G04 #@! TF.GenerationSoftware,KiCad,Pcbnew,5.1.2*
G04 #@! TF.CreationDate,2019-11-12T08:17:00-05:00*
G04 #@! TF.ProjectId,VS_robot_controller,56535f72-6f62-46f7-945f-636f6e74726f,rev?*
G04 #@! TF.SameCoordinates,Original*
G04 #@! TF.FileFunction,Legend,Top*
G04 #@! TF.FilePolarity,Positive*
%FSLAX46Y46*%
G04 Gerber Fmt 4.6, Leading zero omitted, Abs format (unit mm)*
G04 Created by KiCad (PCBNEW 5.1.2) date 2019-11-12 08:17:00*
%MOMM*%
%LPD*%
G04 APERTURE LIST*
%ADD10C,0.300000*%
%ADD11C,0.120000*%
%ADD12C,0.150000*%
%ADD13C,0.160000*%
G04 APERTURE END LIST*
D10*
X176575000Y-59853571D02*
X177432142Y-59853571D01*
X177003571Y-61353571D02*
X177003571Y-59853571D01*
X177789285Y-61353571D02*
X178575000Y-60353571D01*
X177789285Y-60353571D02*
X178575000Y-61353571D01*
X179432142Y-59853571D02*
X179575000Y-59853571D01*
X179717857Y-59925000D01*
X179789285Y-59996428D01*
X179860714Y-60139285D01*
X179932142Y-60425000D01*
X179932142Y-60782142D01*
X179860714Y-61067857D01*
X179789285Y-61210714D01*
X179717857Y-61282142D01*
X179575000Y-61353571D01*
X179432142Y-61353571D01*
X179289285Y-61282142D01*
X179217857Y-61210714D01*
X179146428Y-61067857D01*
X179075000Y-60782142D01*
X179075000Y-60425000D01*
X179146428Y-60139285D01*
X179217857Y-59996428D01*
X179289285Y-59925000D01*
X179432142Y-59853571D01*
X179214285Y-89978571D02*
X179500000Y-89978571D01*
X179642857Y-89907142D01*
X179714285Y-89835714D01*
X179857142Y-89621428D01*
X179928571Y-89335714D01*
X179928571Y-88764285D01*
X179857142Y-88621428D01*
X179785714Y-88550000D01*
X179642857Y-88478571D01*
X179357142Y-88478571D01*
X179214285Y-88550000D01*
X179142857Y-88621428D01*
X179071428Y-88764285D01*
X179071428Y-89121428D01*
X179142857Y-89264285D01*
X179214285Y-89335714D01*
X179357142Y-89407142D01*
X179642857Y-89407142D01*
X179785714Y-89335714D01*
X179857142Y-89264285D01*
X179928571Y-89121428D01*
X201214285Y-90178571D02*
X200357142Y-90178571D01*
X200785714Y-90178571D02*
X200785714Y-88678571D01*
X200642857Y-88892857D01*
X200500000Y-89035714D01*
X200357142Y-89107142D01*
X202142857Y-88678571D02*
X202285714Y-88678571D01*
X202428571Y-88750000D01*
X202500000Y-88821428D01*
X202571428Y-88964285D01*
X202642857Y-89250000D01*
X202642857Y-89607142D01*
X202571428Y-89892857D01*
X202500000Y-90035714D01*
X202428571Y-90107142D01*
X202285714Y-90178571D01*
X202142857Y-90178571D01*
X202000000Y-90107142D01*
X201928571Y-90035714D01*
X201857142Y-89892857D01*
X201785714Y-89607142D01*
X201785714Y-89250000D01*
X201857142Y-88964285D01*
X201928571Y-88821428D01*
X202000000Y-88750000D01*
X202142857Y-88678571D01*
X201464285Y-61678571D02*
X200964285Y-60964285D01*
X200607142Y-61678571D02*
X200607142Y-60178571D01*
X201178571Y-60178571D01*
X201321428Y-60250000D01*
X201392857Y-60321428D01*
X201464285Y-60464285D01*
X201464285Y-60678571D01*
X201392857Y-60821428D01*
X201321428Y-60892857D01*
X201178571Y-60964285D01*
X200607142Y-60964285D01*
X202035714Y-61250000D02*
X202750000Y-61250000D01*
X201892857Y-61678571D02*
X202392857Y-60178571D01*
X202892857Y-61678571D01*
X203250000Y-60178571D02*
X203607142Y-61678571D01*
X203892857Y-60607142D01*
X204178571Y-61678571D01*
X204535714Y-60178571D01*
D11*
X214376000Y-90070000D02*
X214376000Y-84736000D01*
X214376000Y-84736000D02*
X225044000Y-84736000D01*
X225044000Y-84736000D02*
X225044000Y-90070000D01*
X225044000Y-90070000D02*
X225044000Y-90070000D01*
X214884000Y-87530000D02*
X217170000Y-87530000D01*
X217170000Y-87530000D02*
X217170000Y-89816000D01*
X217170000Y-89816000D02*
X217170000Y-89816000D01*
X213800000Y-90400000D02*
X213800000Y-61200000D01*
X213800000Y-61200000D02*
X229250000Y-61200000D01*
X229250000Y-61200000D02*
X229250000Y-90400000D01*
X229250000Y-90400000D02*
X213800000Y-90400000D01*
X213800000Y-90400000D02*
X213800000Y-90400000D01*
X225044000Y-90070000D02*
X214376000Y-90070000D01*
X214376000Y-90070000D02*
X214376000Y-90070000D01*
X237900000Y-82730000D02*
X236570000Y-82730000D01*
X236570000Y-82730000D02*
X236570000Y-81400000D01*
X236570000Y-80130000D02*
X236570000Y-69910000D01*
X239230000Y-69910000D02*
X236570000Y-69910000D01*
X239230000Y-80130000D02*
X239230000Y-69910000D01*
X239230000Y-80130000D02*
X236570000Y-80130000D01*
X184557665Y-104078608D02*
G75*
G03X187790000Y-104235516I1672335J1078608D01*
G01*
X184557665Y-101921392D02*
G75*
G02X187790000Y-101764484I1672335J-1078608D01*
G01*
X185188870Y-104079837D02*
G75*
G03X187270961Y-104080000I1041130J1079837D01*
G01*
X185188870Y-101920163D02*
G75*
G02X187270961Y-101920000I1041130J-1079837D01*
G01*
X187790000Y-104236000D02*
X187790000Y-104080000D01*
X187790000Y-101920000D02*
X187790000Y-101764000D01*
X172170000Y-71770000D02*
X174830000Y-71770000D01*
X172170000Y-71770000D02*
X172170000Y-81990000D01*
X172170000Y-81990000D02*
X174830000Y-81990000D01*
X174830000Y-71770000D02*
X174830000Y-81990000D01*
X174830000Y-69170000D02*
X174830000Y-70500000D01*
X173500000Y-69170000D02*
X174830000Y-69170000D01*
X229270000Y-45230000D02*
X229270000Y-42570000D01*
X229270000Y-45230000D02*
X234410000Y-45230000D01*
X234410000Y-45230000D02*
X234410000Y-42570000D01*
X229270000Y-42570000D02*
X234410000Y-42570000D01*
X226670000Y-42570000D02*
X228000000Y-42570000D01*
X226670000Y-43900000D02*
X226670000Y-42570000D01*
X184420000Y-96000000D02*
G75*
G03X184420000Y-96000000I-1920000J0D01*
G01*
X184420000Y-96000000D02*
X188620000Y-96000000D01*
X205770000Y-47330000D02*
X205770000Y-44670000D01*
X205770000Y-47330000D02*
X210910000Y-47330000D01*
X210910000Y-47330000D02*
X210910000Y-44670000D01*
X205770000Y-44670000D02*
X210910000Y-44670000D01*
X203170000Y-44670000D02*
X204500000Y-44670000D01*
X203170000Y-46000000D02*
X203170000Y-44670000D01*
X218470000Y-101800000D02*
X218470000Y-100470000D01*
X218470000Y-100470000D02*
X219800000Y-100470000D01*
X221070000Y-100470000D02*
X226210000Y-100470000D01*
X226210000Y-103130000D02*
X226210000Y-100470000D01*
X221070000Y-103130000D02*
X226210000Y-103130000D01*
X221070000Y-103130000D02*
X221070000Y-100470000D01*
X181770000Y-45330000D02*
X181770000Y-42670000D01*
X181770000Y-45330000D02*
X184370000Y-45330000D01*
X184370000Y-45330000D02*
X184370000Y-42670000D01*
X181770000Y-42670000D02*
X184370000Y-42670000D01*
X179170000Y-42670000D02*
X180500000Y-42670000D01*
X179170000Y-44000000D02*
X179170000Y-42670000D01*
D12*
X181131000Y-89965000D02*
X199165000Y-89965000D01*
X199165000Y-57199000D02*
X181131000Y-57199000D01*
X181131000Y-89965000D02*
X181131000Y-57199000D01*
X199165000Y-57199000D02*
X199165000Y-89965000D01*
X221238095Y-91452380D02*
X221238095Y-92261904D01*
X221285714Y-92357142D01*
X221333333Y-92404761D01*
X221428571Y-92452380D01*
X221619047Y-92452380D01*
X221714285Y-92404761D01*
X221761904Y-92357142D01*
X221809523Y-92261904D01*
X221809523Y-91452380D01*
X222809523Y-92452380D02*
X222238095Y-92452380D01*
X222523809Y-92452380D02*
X222523809Y-91452380D01*
X222428571Y-91595238D01*
X222333333Y-91690476D01*
X222238095Y-91738095D01*
X234190476Y-84952380D02*
X233857142Y-84476190D01*
X233619047Y-84952380D02*
X233619047Y-83952380D01*
X234000000Y-83952380D01*
X234095238Y-84000000D01*
X234142857Y-84047619D01*
X234190476Y-84142857D01*
X234190476Y-84285714D01*
X234142857Y-84380952D01*
X234095238Y-84428571D01*
X234000000Y-84476190D01*
X233619047Y-84476190D01*
X234619047Y-84952380D02*
X234619047Y-84285714D01*
X234619047Y-83952380D02*
X234571428Y-84000000D01*
X234619047Y-84047619D01*
X234666666Y-84000000D01*
X234619047Y-83952380D01*
X234619047Y-84047619D01*
X235523809Y-84285714D02*
X235523809Y-85095238D01*
X235476190Y-85190476D01*
X235428571Y-85238095D01*
X235333333Y-85285714D01*
X235190476Y-85285714D01*
X235095238Y-85238095D01*
X235523809Y-84904761D02*
X235428571Y-84952380D01*
X235238095Y-84952380D01*
X235142857Y-84904761D01*
X235095238Y-84857142D01*
X235047619Y-84761904D01*
X235047619Y-84476190D01*
X235095238Y-84380952D01*
X235142857Y-84333333D01*
X235238095Y-84285714D01*
X235428571Y-84285714D01*
X235523809Y-84333333D01*
X236000000Y-84952380D02*
X236000000Y-83952380D01*
X236428571Y-84952380D02*
X236428571Y-84428571D01*
X236380952Y-84333333D01*
X236285714Y-84285714D01*
X236142857Y-84285714D01*
X236047619Y-84333333D01*
X236000000Y-84380952D01*
X236761904Y-84285714D02*
X237142857Y-84285714D01*
X236904761Y-83952380D02*
X236904761Y-84809523D01*
X236952380Y-84904761D01*
X237047619Y-84952380D01*
X237142857Y-84952380D01*
X237761904Y-83952380D02*
X237761904Y-84666666D01*
X237714285Y-84809523D01*
X237619047Y-84904761D01*
X237476190Y-84952380D01*
X237380952Y-84952380D01*
X238380952Y-84952380D02*
X238285714Y-84904761D01*
X238238095Y-84857142D01*
X238190476Y-84761904D01*
X238190476Y-84476190D01*
X238238095Y-84380952D01*
X238285714Y-84333333D01*
X238380952Y-84285714D01*
X238523809Y-84285714D01*
X238619047Y-84333333D01*
X238666666Y-84380952D01*
X238714285Y-84476190D01*
X238714285Y-84761904D01*
X238666666Y-84857142D01*
X238619047Y-84904761D01*
X238523809Y-84952380D01*
X238380952Y-84952380D01*
X239047619Y-84285714D02*
X239285714Y-84952380D01*
X239523809Y-84285714D02*
X239285714Y-84952380D01*
X239190476Y-85190476D01*
X239142857Y-85238095D01*
X239047619Y-85285714D01*
X240428571Y-84952380D02*
X239857142Y-84952380D01*
X240142857Y-84952380D02*
X240142857Y-83952380D01*
X240047619Y-84095238D01*
X239952380Y-84190476D01*
X239857142Y-84238095D01*
X184277619Y-106364761D02*
X184182380Y-106412380D01*
X183991904Y-106412380D01*
X183896666Y-106364761D01*
X183849047Y-106317142D01*
X183801428Y-106221904D01*
X183801428Y-105936190D01*
X183849047Y-105840952D01*
X183896666Y-105793333D01*
X183991904Y-105745714D01*
X184182380Y-105745714D01*
X184277619Y-105793333D01*
X184849047Y-106412380D02*
X184753809Y-106364761D01*
X184706190Y-106317142D01*
X184658571Y-106221904D01*
X184658571Y-105936190D01*
X184706190Y-105840952D01*
X184753809Y-105793333D01*
X184849047Y-105745714D01*
X184991904Y-105745714D01*
X185087142Y-105793333D01*
X185134761Y-105840952D01*
X185182380Y-105936190D01*
X185182380Y-106221904D01*
X185134761Y-106317142D01*
X185087142Y-106364761D01*
X184991904Y-106412380D01*
X184849047Y-106412380D01*
X185610952Y-106412380D02*
X185610952Y-105745714D01*
X185610952Y-105840952D02*
X185658571Y-105793333D01*
X185753809Y-105745714D01*
X185896666Y-105745714D01*
X185991904Y-105793333D01*
X186039523Y-105888571D01*
X186039523Y-106412380D01*
X186039523Y-105888571D02*
X186087142Y-105793333D01*
X186182380Y-105745714D01*
X186325238Y-105745714D01*
X186420476Y-105793333D01*
X186468095Y-105888571D01*
X186468095Y-106412380D01*
X186944285Y-106412380D02*
X186944285Y-105745714D01*
X186944285Y-105840952D02*
X186991904Y-105793333D01*
X187087142Y-105745714D01*
X187230000Y-105745714D01*
X187325238Y-105793333D01*
X187372857Y-105888571D01*
X187372857Y-106412380D01*
X187372857Y-105888571D02*
X187420476Y-105793333D01*
X187515714Y-105745714D01*
X187658571Y-105745714D01*
X187753809Y-105793333D01*
X187801428Y-105888571D01*
X187801428Y-106412380D01*
X188230000Y-106364761D02*
X188325238Y-106412380D01*
X188515714Y-106412380D01*
X188610952Y-106364761D01*
X188658571Y-106269523D01*
X188658571Y-106221904D01*
X188610952Y-106126666D01*
X188515714Y-106079047D01*
X188372857Y-106079047D01*
X188277619Y-106031428D01*
X188230000Y-105936190D01*
X188230000Y-105888571D01*
X188277619Y-105793333D01*
X188372857Y-105745714D01*
X188515714Y-105745714D01*
X188610952Y-105793333D01*
X171619047Y-68182380D02*
X171142857Y-68182380D01*
X171142857Y-67182380D01*
X172333333Y-68134761D02*
X172238095Y-68182380D01*
X172047619Y-68182380D01*
X171952380Y-68134761D01*
X171904761Y-68039523D01*
X171904761Y-67658571D01*
X171952380Y-67563333D01*
X172047619Y-67515714D01*
X172238095Y-67515714D01*
X172333333Y-67563333D01*
X172380952Y-67658571D01*
X172380952Y-67753809D01*
X171904761Y-67849047D01*
X172666666Y-67515714D02*
X173047619Y-67515714D01*
X172809523Y-68182380D02*
X172809523Y-67325238D01*
X172857142Y-67230000D01*
X172952380Y-67182380D01*
X173047619Y-67182380D01*
X173238095Y-67515714D02*
X173619047Y-67515714D01*
X173380952Y-67182380D02*
X173380952Y-68039523D01*
X173428571Y-68134761D01*
X173523809Y-68182380D01*
X173619047Y-68182380D01*
X174238095Y-67182380D02*
X174238095Y-67896666D01*
X174190476Y-68039523D01*
X174095238Y-68134761D01*
X173952380Y-68182380D01*
X173857142Y-68182380D01*
X174857142Y-68182380D02*
X174761904Y-68134761D01*
X174714285Y-68087142D01*
X174666666Y-67991904D01*
X174666666Y-67706190D01*
X174714285Y-67610952D01*
X174761904Y-67563333D01*
X174857142Y-67515714D01*
X175000000Y-67515714D01*
X175095238Y-67563333D01*
X175142857Y-67610952D01*
X175190476Y-67706190D01*
X175190476Y-67991904D01*
X175142857Y-68087142D01*
X175095238Y-68134761D01*
X175000000Y-68182380D01*
X174857142Y-68182380D01*
X175523809Y-67515714D02*
X175761904Y-68182380D01*
X176000000Y-67515714D02*
X175761904Y-68182380D01*
X175666666Y-68420476D01*
X175619047Y-68468095D01*
X175523809Y-68515714D01*
X176904761Y-68182380D02*
X176333333Y-68182380D01*
X176619047Y-68182380D02*
X176619047Y-67182380D01*
X176523809Y-67325238D01*
X176428571Y-67420476D01*
X176333333Y-67468095D01*
X228500000Y-46452380D02*
X228833333Y-47452380D01*
X229166666Y-46452380D01*
X229500000Y-47452380D02*
X229500000Y-46785714D01*
X229500000Y-46976190D02*
X229547619Y-46880952D01*
X229595238Y-46833333D01*
X229690476Y-46785714D01*
X229785714Y-46785714D01*
X230500000Y-47404761D02*
X230404761Y-47452380D01*
X230214285Y-47452380D01*
X230119047Y-47404761D01*
X230071428Y-47309523D01*
X230071428Y-46928571D01*
X230119047Y-46833333D01*
X230214285Y-46785714D01*
X230404761Y-46785714D01*
X230500000Y-46833333D01*
X230547619Y-46928571D01*
X230547619Y-47023809D01*
X230071428Y-47119047D01*
X231404761Y-46785714D02*
X231404761Y-47595238D01*
X231357142Y-47690476D01*
X231309523Y-47738095D01*
X231214285Y-47785714D01*
X231071428Y-47785714D01*
X230976190Y-47738095D01*
X231404761Y-47404761D02*
X231309523Y-47452380D01*
X231119047Y-47452380D01*
X231023809Y-47404761D01*
X230976190Y-47357142D01*
X230928571Y-47261904D01*
X230928571Y-46976190D01*
X230976190Y-46880952D01*
X231023809Y-46833333D01*
X231119047Y-46785714D01*
X231309523Y-46785714D01*
X231404761Y-46833333D01*
X232404761Y-47452380D02*
X231833333Y-47452380D01*
X232119047Y-47452380D02*
X232119047Y-46452380D01*
X232023809Y-46595238D01*
X231928571Y-46690476D01*
X231833333Y-46738095D01*
X183500476Y-92532380D02*
X183310000Y-92532380D01*
X183214761Y-92580000D01*
X183167142Y-92627619D01*
X183071904Y-92770476D01*
X183024285Y-92960952D01*
X183024285Y-93341904D01*
X183071904Y-93437142D01*
X183119523Y-93484761D01*
X183214761Y-93532380D01*
X183405238Y-93532380D01*
X183500476Y-93484761D01*
X183548095Y-93437142D01*
X183595714Y-93341904D01*
X183595714Y-93103809D01*
X183548095Y-93008571D01*
X183500476Y-92960952D01*
X183405238Y-92913333D01*
X183214761Y-92913333D01*
X183119523Y-92960952D01*
X183071904Y-93008571D01*
X183024285Y-93103809D01*
X184214761Y-92532380D02*
X184310000Y-92532380D01*
X184405238Y-92580000D01*
X184452857Y-92627619D01*
X184500476Y-92722857D01*
X184548095Y-92913333D01*
X184548095Y-93151428D01*
X184500476Y-93341904D01*
X184452857Y-93437142D01*
X184405238Y-93484761D01*
X184310000Y-93532380D01*
X184214761Y-93532380D01*
X184119523Y-93484761D01*
X184071904Y-93437142D01*
X184024285Y-93341904D01*
X183976666Y-93151428D01*
X183976666Y-92913333D01*
X184024285Y-92722857D01*
X184071904Y-92627619D01*
X184119523Y-92580000D01*
X184214761Y-92532380D01*
X185167142Y-92532380D02*
X185262380Y-92532380D01*
X185357619Y-92580000D01*
X185405238Y-92627619D01*
X185452857Y-92722857D01*
X185500476Y-92913333D01*
X185500476Y-93151428D01*
X185452857Y-93341904D01*
X185405238Y-93437142D01*
X185357619Y-93484761D01*
X185262380Y-93532380D01*
X185167142Y-93532380D01*
X185071904Y-93484761D01*
X185024285Y-93437142D01*
X184976666Y-93341904D01*
X184929047Y-93151428D01*
X184929047Y-92913333D01*
X184976666Y-92722857D01*
X185024285Y-92627619D01*
X185071904Y-92580000D01*
X185167142Y-92532380D01*
X186071904Y-93532380D02*
X185976666Y-93484761D01*
X185929047Y-93437142D01*
X185881428Y-93341904D01*
X185881428Y-93056190D01*
X185929047Y-92960952D01*
X185976666Y-92913333D01*
X186071904Y-92865714D01*
X186214761Y-92865714D01*
X186310000Y-92913333D01*
X186357619Y-92960952D01*
X186405238Y-93056190D01*
X186405238Y-93341904D01*
X186357619Y-93437142D01*
X186310000Y-93484761D01*
X186214761Y-93532380D01*
X186071904Y-93532380D01*
X186833809Y-93532380D02*
X186833809Y-92532380D01*
X187262380Y-93532380D02*
X187262380Y-93008571D01*
X187214761Y-92913333D01*
X187119523Y-92865714D01*
X186976666Y-92865714D01*
X186881428Y-92913333D01*
X186833809Y-92960952D01*
X187738571Y-93532380D02*
X187738571Y-92865714D01*
X187738571Y-92960952D02*
X187786190Y-92913333D01*
X187881428Y-92865714D01*
X188024285Y-92865714D01*
X188119523Y-92913333D01*
X188167142Y-93008571D01*
X188167142Y-93532380D01*
X188167142Y-93008571D02*
X188214761Y-92913333D01*
X188310000Y-92865714D01*
X188452857Y-92865714D01*
X188548095Y-92913333D01*
X188595714Y-93008571D01*
X188595714Y-93532380D01*
X189595714Y-93532380D02*
X189024285Y-93532380D01*
X189310000Y-93532380D02*
X189310000Y-92532380D01*
X189214761Y-92675238D01*
X189119523Y-92770476D01*
X189024285Y-92818095D01*
X205380952Y-48452380D02*
X205571428Y-48452380D01*
X205666666Y-48500000D01*
X205761904Y-48595238D01*
X205809523Y-48785714D01*
X205809523Y-49119047D01*
X205761904Y-49309523D01*
X205666666Y-49404761D01*
X205571428Y-49452380D01*
X205380952Y-49452380D01*
X205285714Y-49404761D01*
X205190476Y-49309523D01*
X205142857Y-49119047D01*
X205142857Y-48785714D01*
X205190476Y-48595238D01*
X205285714Y-48500000D01*
X205380952Y-48452380D01*
X206238095Y-48785714D02*
X206238095Y-49452380D01*
X206238095Y-48880952D02*
X206285714Y-48833333D01*
X206380952Y-48785714D01*
X206523809Y-48785714D01*
X206619047Y-48833333D01*
X206666666Y-48928571D01*
X206666666Y-49452380D01*
X207333333Y-48452380D02*
X207523809Y-48452380D01*
X207619047Y-48500000D01*
X207714285Y-48595238D01*
X207761904Y-48785714D01*
X207761904Y-49119047D01*
X207714285Y-49309523D01*
X207619047Y-49404761D01*
X207523809Y-49452380D01*
X207333333Y-49452380D01*
X207238095Y-49404761D01*
X207142857Y-49309523D01*
X207095238Y-49119047D01*
X207095238Y-48785714D01*
X207142857Y-48595238D01*
X207238095Y-48500000D01*
X207333333Y-48452380D01*
X208047619Y-48785714D02*
X208428571Y-48785714D01*
X208190476Y-49452380D02*
X208190476Y-48595238D01*
X208238095Y-48500000D01*
X208333333Y-48452380D01*
X208428571Y-48452380D01*
X208619047Y-48785714D02*
X209000000Y-48785714D01*
X208761904Y-49452380D02*
X208761904Y-48595238D01*
X208809523Y-48500000D01*
X208904761Y-48452380D01*
X209000000Y-48452380D01*
X209857142Y-49452380D02*
X209285714Y-49452380D01*
X209571428Y-49452380D02*
X209571428Y-48452380D01*
X209476190Y-48595238D01*
X209380952Y-48690476D01*
X209285714Y-48738095D01*
X219404761Y-104785714D02*
X219595238Y-105452380D01*
X219785714Y-104976190D01*
X219976190Y-105452380D01*
X220166666Y-104785714D01*
X220928571Y-105404761D02*
X220833333Y-105452380D01*
X220642857Y-105452380D01*
X220547619Y-105404761D01*
X220500000Y-105309523D01*
X220500000Y-104928571D01*
X220547619Y-104833333D01*
X220642857Y-104785714D01*
X220833333Y-104785714D01*
X220928571Y-104833333D01*
X220976190Y-104928571D01*
X220976190Y-105023809D01*
X220500000Y-105119047D01*
X221833333Y-105452380D02*
X221833333Y-104928571D01*
X221785714Y-104833333D01*
X221690476Y-104785714D01*
X221500000Y-104785714D01*
X221404761Y-104833333D01*
X221833333Y-105404761D02*
X221738095Y-105452380D01*
X221500000Y-105452380D01*
X221404761Y-105404761D01*
X221357142Y-105309523D01*
X221357142Y-105214285D01*
X221404761Y-105119047D01*
X221500000Y-105071428D01*
X221738095Y-105071428D01*
X221833333Y-105023809D01*
X222309523Y-104785714D02*
X222309523Y-105785714D01*
X222309523Y-104833333D02*
X222404761Y-104785714D01*
X222595238Y-104785714D01*
X222690476Y-104833333D01*
X222738095Y-104880952D01*
X222785714Y-104976190D01*
X222785714Y-105261904D01*
X222738095Y-105357142D01*
X222690476Y-105404761D01*
X222595238Y-105452380D01*
X222404761Y-105452380D01*
X222309523Y-105404761D01*
X223357142Y-105452380D02*
X223261904Y-105404761D01*
X223214285Y-105357142D01*
X223166666Y-105261904D01*
X223166666Y-104976190D01*
X223214285Y-104880952D01*
X223261904Y-104833333D01*
X223357142Y-104785714D01*
X223500000Y-104785714D01*
X223595238Y-104833333D01*
X223642857Y-104880952D01*
X223690476Y-104976190D01*
X223690476Y-105261904D01*
X223642857Y-105357142D01*
X223595238Y-105404761D01*
X223500000Y-105452380D01*
X223357142Y-105452380D01*
X224119047Y-104785714D02*
X224119047Y-105452380D01*
X224119047Y-104880952D02*
X224166666Y-104833333D01*
X224261904Y-104785714D01*
X224404761Y-104785714D01*
X224500000Y-104833333D01*
X224547619Y-104928571D01*
X224547619Y-105452380D01*
X225547619Y-105452380D02*
X224976190Y-105452380D01*
X225261904Y-105452380D02*
X225261904Y-104452380D01*
X225166666Y-104595238D01*
X225071428Y-104690476D01*
X224976190Y-104738095D01*
X180571428Y-46428571D02*
X180714285Y-46476190D01*
X180761904Y-46523809D01*
X180809523Y-46619047D01*
X180809523Y-46761904D01*
X180761904Y-46857142D01*
X180714285Y-46904761D01*
X180619047Y-46952380D01*
X180238095Y-46952380D01*
X180238095Y-45952380D01*
X180571428Y-45952380D01*
X180666666Y-46000000D01*
X180714285Y-46047619D01*
X180761904Y-46142857D01*
X180761904Y-46238095D01*
X180714285Y-46333333D01*
X180666666Y-46380952D01*
X180571428Y-46428571D01*
X180238095Y-46428571D01*
X181666666Y-46952380D02*
X181666666Y-46428571D01*
X181619047Y-46333333D01*
X181523809Y-46285714D01*
X181333333Y-46285714D01*
X181238095Y-46333333D01*
X181666666Y-46904761D02*
X181571428Y-46952380D01*
X181333333Y-46952380D01*
X181238095Y-46904761D01*
X181190476Y-46809523D01*
X181190476Y-46714285D01*
X181238095Y-46619047D01*
X181333333Y-46571428D01*
X181571428Y-46571428D01*
X181666666Y-46523809D01*
X182000000Y-46285714D02*
X182380952Y-46285714D01*
X182142857Y-45952380D02*
X182142857Y-46809523D01*
X182190476Y-46904761D01*
X182285714Y-46952380D01*
X182380952Y-46952380D01*
X182571428Y-46285714D02*
X182952380Y-46285714D01*
X182714285Y-45952380D02*
X182714285Y-46809523D01*
X182761904Y-46904761D01*
X182857142Y-46952380D01*
X182952380Y-46952380D01*
X183809523Y-46952380D02*
X183238095Y-46952380D01*
X183523809Y-46952380D02*
X183523809Y-45952380D01*
X183428571Y-46095238D01*
X183333333Y-46190476D01*
X183238095Y-46238095D01*
D13*
X185536904Y-75942857D02*
X185536904Y-75447619D01*
X185841666Y-75714285D01*
X185841666Y-75600000D01*
X185879761Y-75523809D01*
X185917857Y-75485714D01*
X185994047Y-75447619D01*
X186184523Y-75447619D01*
X186260714Y-75485714D01*
X186298809Y-75523809D01*
X186336904Y-75600000D01*
X186336904Y-75828571D01*
X186298809Y-75904761D01*
X186260714Y-75942857D01*
X186260714Y-75104761D02*
X186298809Y-75066666D01*
X186336904Y-75104761D01*
X186298809Y-75142857D01*
X186260714Y-75104761D01*
X186336904Y-75104761D01*
X185536904Y-74800000D02*
X185536904Y-74304761D01*
X185841666Y-74571428D01*
X185841666Y-74457142D01*
X185879761Y-74380952D01*
X185917857Y-74342857D01*
X185994047Y-74304761D01*
X186184523Y-74304761D01*
X186260714Y-74342857D01*
X186298809Y-74380952D01*
X186336904Y-74457142D01*
X186336904Y-74685714D01*
X186298809Y-74761904D01*
X186260714Y-74800000D01*
X185536904Y-74076190D02*
X186336904Y-73809523D01*
X185536904Y-73542857D01*
X186032142Y-73276190D02*
X186032142Y-72666666D01*
X186336904Y-71942857D02*
X185917857Y-71942857D01*
X185841666Y-71980952D01*
X185803571Y-72057142D01*
X185803571Y-72209523D01*
X185841666Y-72285714D01*
X186298809Y-71942857D02*
X186336904Y-72019047D01*
X186336904Y-72209523D01*
X186298809Y-72285714D01*
X186222619Y-72323809D01*
X186146428Y-72323809D01*
X186070238Y-72285714D01*
X186032142Y-72209523D01*
X186032142Y-72019047D01*
X185994047Y-71942857D01*
X186336904Y-71561904D02*
X185803571Y-71561904D01*
X185955952Y-71561904D02*
X185879761Y-71523809D01*
X185841666Y-71485714D01*
X185803571Y-71409523D01*
X185803571Y-71333333D01*
X186336904Y-70723809D02*
X185536904Y-70723809D01*
X186298809Y-70723809D02*
X186336904Y-70800000D01*
X186336904Y-70952380D01*
X186298809Y-71028571D01*
X186260714Y-71066666D01*
X186184523Y-71104761D01*
X185955952Y-71104761D01*
X185879761Y-71066666D01*
X185841666Y-71028571D01*
X185803571Y-70952380D01*
X185803571Y-70800000D01*
X185841666Y-70723809D01*
X185803571Y-70000000D02*
X186336904Y-70000000D01*
X185803571Y-70342857D02*
X186222619Y-70342857D01*
X186298809Y-70304761D01*
X186336904Y-70228571D01*
X186336904Y-70114285D01*
X186298809Y-70038095D01*
X186260714Y-70000000D01*
X186336904Y-69619047D02*
X185803571Y-69619047D01*
X185536904Y-69619047D02*
X185575000Y-69657142D01*
X185613095Y-69619047D01*
X185575000Y-69580952D01*
X185536904Y-69619047D01*
X185613095Y-69619047D01*
X185803571Y-69238095D02*
X186336904Y-69238095D01*
X185879761Y-69238095D02*
X185841666Y-69200000D01*
X185803571Y-69123809D01*
X185803571Y-69009523D01*
X185841666Y-68933333D01*
X185917857Y-68895238D01*
X186336904Y-68895238D01*
X186336904Y-68400000D02*
X186298809Y-68476190D01*
X186260714Y-68514285D01*
X186184523Y-68552380D01*
X185955952Y-68552380D01*
X185879761Y-68514285D01*
X185841666Y-68476190D01*
X185803571Y-68400000D01*
X185803571Y-68285714D01*
X185841666Y-68209523D01*
X185879761Y-68171428D01*
X185955952Y-68133333D01*
X186184523Y-68133333D01*
X186260714Y-68171428D01*
X186298809Y-68209523D01*
X186336904Y-68285714D01*
X186336904Y-68400000D01*
X186032142Y-67790476D02*
X186032142Y-67180952D01*
X185803571Y-66800000D02*
X186603571Y-66800000D01*
X185841666Y-66800000D02*
X185803571Y-66723809D01*
X185803571Y-66571428D01*
X185841666Y-66495238D01*
X185879761Y-66457142D01*
X185955952Y-66419047D01*
X186184523Y-66419047D01*
X186260714Y-66457142D01*
X186298809Y-66495238D01*
X186336904Y-66571428D01*
X186336904Y-66723809D01*
X186298809Y-66800000D01*
X186336904Y-66076190D02*
X185803571Y-66076190D01*
X185955952Y-66076190D02*
X185879761Y-66038095D01*
X185841666Y-66000000D01*
X185803571Y-65923809D01*
X185803571Y-65847619D01*
X186336904Y-65466666D02*
X186298809Y-65542857D01*
X186260714Y-65580952D01*
X186184523Y-65619047D01*
X185955952Y-65619047D01*
X185879761Y-65580952D01*
X185841666Y-65542857D01*
X185803571Y-65466666D01*
X185803571Y-65352380D01*
X185841666Y-65276190D01*
X185879761Y-65238095D01*
X185955952Y-65200000D01*
X186184523Y-65200000D01*
X186260714Y-65238095D01*
X186298809Y-65276190D01*
X186336904Y-65352380D01*
X186336904Y-65466666D01*
X186032142Y-64857142D02*
X186032142Y-64247619D01*
X186336904Y-63866666D02*
X185803571Y-63866666D01*
X185879761Y-63866666D02*
X185841666Y-63828571D01*
X185803571Y-63752380D01*
X185803571Y-63638095D01*
X185841666Y-63561904D01*
X185917857Y-63523809D01*
X186336904Y-63523809D01*
X185917857Y-63523809D02*
X185841666Y-63485714D01*
X185803571Y-63409523D01*
X185803571Y-63295238D01*
X185841666Y-63219047D01*
X185917857Y-63180952D01*
X186336904Y-63180952D01*
X186336904Y-62800000D02*
X185803571Y-62800000D01*
X185536904Y-62800000D02*
X185575000Y-62838095D01*
X185613095Y-62800000D01*
X185575000Y-62761904D01*
X185536904Y-62800000D01*
X185613095Y-62800000D01*
X185803571Y-62419047D02*
X186336904Y-62419047D01*
X185879761Y-62419047D02*
X185841666Y-62380952D01*
X185803571Y-62304761D01*
X185803571Y-62190476D01*
X185841666Y-62114285D01*
X185917857Y-62076190D01*
X186336904Y-62076190D01*
X186336904Y-61695238D02*
X185803571Y-61695238D01*
X185536904Y-61695238D02*
X185575000Y-61733333D01*
X185613095Y-61695238D01*
X185575000Y-61657142D01*
X185536904Y-61695238D01*
X185613095Y-61695238D01*
X186336904Y-60895238D02*
X186336904Y-61352380D01*
X186336904Y-61123809D02*
X185536904Y-61123809D01*
X185651190Y-61200000D01*
X185727380Y-61276190D01*
X185765476Y-61352380D01*
M02*
