G04 #@! TF.GenerationSoftware,KiCad,Pcbnew,5.1.2*
G04 #@! TF.CreationDate,2019-11-12T08:23:57-05:00*
G04 #@! TF.ProjectId,VS_robot_controller,56535f72-6f62-46f7-945f-636f6e74726f,rev?*
G04 #@! TF.SameCoordinates,Original*
G04 #@! TF.FileFunction,Copper,L2,Bot*
G04 #@! TF.FilePolarity,Positive*
%FSLAX46Y46*%
G04 Gerber Fmt 4.6, Leading zero omitted, Abs format (unit mm)*
G04 Created by KiCad (PCBNEW 5.1.2) date 2019-11-12 08:23:57*
%MOMM*%
%LPD*%
G04 APERTURE LIST*
%ADD10R,1.524000X1.524000*%
%ADD11C,1.524000*%
%ADD12O,1.700000X1.700000*%
%ADD13R,1.700000X1.700000*%
%ADD14R,1.800000X1.800000*%
%ADD15C,1.800000*%
%ADD16C,2.400000*%
%ADD17O,2.400000X2.400000*%
%ADD18O,2.199640X1.501140*%
%ADD19O,1.501140X2.199640*%
%ADD20C,0.250000*%
G04 APERTURE END LIST*
D10*
X215900000Y-88800000D03*
D11*
X215900000Y-86260000D03*
X218440000Y-88800000D03*
X218440000Y-86260000D03*
X220980000Y-88800000D03*
X220980000Y-86260000D03*
X223520000Y-88800000D03*
X223520000Y-86260000D03*
D12*
X237900000Y-71240000D03*
X237900000Y-73780000D03*
X237900000Y-76320000D03*
X237900000Y-78860000D03*
D13*
X237900000Y-81400000D03*
D14*
X187500000Y-103000000D03*
D15*
X184960000Y-103000000D03*
D13*
X173500000Y-70500000D03*
D12*
X173500000Y-73040000D03*
X173500000Y-75580000D03*
X173500000Y-78120000D03*
X173500000Y-80660000D03*
D13*
X228000000Y-43900000D03*
D12*
X230540000Y-43900000D03*
X233080000Y-43900000D03*
D16*
X182500000Y-96000000D03*
D17*
X190120000Y-96000000D03*
D13*
X204500000Y-46000000D03*
D12*
X207040000Y-46000000D03*
X209580000Y-46000000D03*
X224880000Y-101800000D03*
X222340000Y-101800000D03*
D13*
X219800000Y-101800000D03*
X180500000Y-44000000D03*
D12*
X183040000Y-44000000D03*
D18*
X195355000Y-79805000D03*
X195355000Y-82345000D03*
X182655000Y-60755000D03*
X182655000Y-63295000D03*
X182655000Y-65835000D03*
X182655000Y-68375000D03*
X182655000Y-70915000D03*
X182655000Y-73455000D03*
X182655000Y-75995000D03*
X182655000Y-78535000D03*
X182655000Y-81075000D03*
X182655000Y-83615000D03*
X182655000Y-86155000D03*
X182655000Y-88695000D03*
X197895000Y-88695000D03*
X197895000Y-86155000D03*
X197895000Y-83615000D03*
X197895000Y-81075000D03*
X197895000Y-78535000D03*
X197895000Y-75995000D03*
X197895000Y-73455000D03*
X197895000Y-70915000D03*
X197895000Y-68375000D03*
X197895000Y-65835000D03*
X197895000Y-63295000D03*
X197895000Y-60755000D03*
X195355000Y-72185000D03*
X195355000Y-69645000D03*
D19*
X195355000Y-88695000D03*
X192815000Y-88695000D03*
X190275000Y-88695000D03*
D20*
X206065000Y-68375000D02*
X230540000Y-43900000D01*
X197895000Y-68375000D02*
X206065000Y-68375000D01*
X230540000Y-66420000D02*
X230540000Y-43900000D01*
X237900000Y-73780000D02*
X230540000Y-66420000D01*
X173500000Y-87000000D02*
X173500000Y-80660000D01*
X182500000Y-96000000D02*
X173500000Y-87000000D01*
X182305750Y-68375000D02*
X182655000Y-68375000D01*
X180800000Y-69880750D02*
X182305750Y-68375000D01*
X180800000Y-73360000D02*
X180800000Y-69880750D01*
X173500000Y-80660000D02*
X180800000Y-73360000D01*
X198220000Y-76320000D02*
X197895000Y-75995000D01*
X237900000Y-76320000D02*
X198220000Y-76320000D01*
X198220000Y-78860000D02*
X197895000Y-78535000D01*
X237900000Y-78860000D02*
X198220000Y-78860000D01*
X217678001Y-89561999D02*
X218440000Y-88800000D01*
X217120170Y-90119830D02*
X217678001Y-89561999D01*
X189829481Y-90119830D02*
X217120170Y-90119830D01*
X188404651Y-88695000D02*
X189829481Y-90119830D01*
X182655000Y-88695000D02*
X188404651Y-88695000D01*
X217678001Y-87021999D02*
X218440000Y-86260000D01*
X217352999Y-87347001D02*
X217678001Y-87021999D01*
X213895998Y-88695000D02*
X215243997Y-87347001D01*
X215243997Y-87347001D02*
X217352999Y-87347001D01*
X197895000Y-88695000D02*
X213895998Y-88695000D01*
X222067001Y-89887001D02*
X221741999Y-89561999D01*
X224041761Y-89887001D02*
X222067001Y-89887001D01*
X224607001Y-89321761D02*
X224041761Y-89887001D01*
X224607001Y-85738239D02*
X224607001Y-89321761D01*
X219943762Y-81075000D02*
X224607001Y-85738239D01*
X221741999Y-89561999D02*
X220980000Y-88800000D01*
X197895000Y-81075000D02*
X219943762Y-81075000D01*
X220218001Y-85498001D02*
X220980000Y-86260000D01*
X219892999Y-85172999D02*
X220218001Y-85498001D01*
X199226251Y-85172999D02*
X219892999Y-85172999D01*
X198244250Y-86155000D02*
X199226251Y-85172999D01*
X197895000Y-86155000D02*
X198244250Y-86155000D01*
X222758001Y-88038001D02*
X223520000Y-88800000D01*
X222432999Y-87712999D02*
X222758001Y-88038001D01*
X222432999Y-85738239D02*
X222432999Y-87712999D01*
X220309760Y-83615000D02*
X222432999Y-85738239D01*
X197895000Y-83615000D02*
X220309760Y-83615000D01*
M02*
