G04 #@! TF.GenerationSoftware,KiCad,Pcbnew,5.1.2*
G04 #@! TF.CreationDate,2019-11-12T08:09:17-05:00*
G04 #@! TF.ProjectId,VS_robot_controller,56535f72-6f62-46f7-945f-636f6e74726f,rev?*
G04 #@! TF.SameCoordinates,Original*
G04 #@! TF.FileFunction,Copper,L1,Top*
G04 #@! TF.FilePolarity,Positive*
%FSLAX46Y46*%
G04 Gerber Fmt 4.6, Leading zero omitted, Abs format (unit mm)*
G04 Created by KiCad (PCBNEW 5.1.2) date 2019-11-12 08:09:17*
%MOMM*%
%LPD*%
G04 APERTURE LIST*
%ADD10R,1.524000X1.524000*%
%ADD11C,1.524000*%
%ADD12O,1.700000X1.700000*%
%ADD13R,1.700000X1.700000*%
%ADD14R,1.800000X1.800000*%
%ADD15C,1.800000*%
%ADD16C,2.400000*%
%ADD17O,2.400000X2.400000*%
%ADD18O,2.199640X1.501140*%
%ADD19O,1.501140X2.199640*%
%ADD20C,0.250000*%
G04 APERTURE END LIST*
D10*
X215900000Y-88800000D03*
D11*
X215900000Y-86260000D03*
X218440000Y-88800000D03*
X218440000Y-86260000D03*
X220980000Y-88800000D03*
X220980000Y-86260000D03*
X223520000Y-88800000D03*
X223520000Y-86260000D03*
D12*
X237900000Y-71240000D03*
X237900000Y-73780000D03*
X237900000Y-76320000D03*
X237900000Y-78860000D03*
D13*
X237900000Y-81400000D03*
D14*
X187500000Y-103000000D03*
D15*
X184960000Y-103000000D03*
D13*
X173500000Y-70500000D03*
D12*
X173500000Y-73040000D03*
X173500000Y-75580000D03*
X173500000Y-78120000D03*
X173500000Y-80660000D03*
D13*
X228000000Y-43900000D03*
D12*
X230540000Y-43900000D03*
X233080000Y-43900000D03*
D16*
X182500000Y-96000000D03*
D17*
X190120000Y-96000000D03*
D13*
X204500000Y-46000000D03*
D12*
X207040000Y-46000000D03*
X209580000Y-46000000D03*
X224880000Y-101800000D03*
X222340000Y-101800000D03*
D13*
X219800000Y-101800000D03*
X180500000Y-44000000D03*
D12*
X183040000Y-44000000D03*
D18*
X195355000Y-79805000D03*
X195355000Y-82345000D03*
X182655000Y-60755000D03*
X182655000Y-63295000D03*
X182655000Y-65835000D03*
X182655000Y-68375000D03*
X182655000Y-70915000D03*
X182655000Y-73455000D03*
X182655000Y-75995000D03*
X182655000Y-78535000D03*
X182655000Y-81075000D03*
X182655000Y-83615000D03*
X182655000Y-86155000D03*
X182655000Y-88695000D03*
X197895000Y-88695000D03*
X197895000Y-86155000D03*
X197895000Y-83615000D03*
X197895000Y-81075000D03*
X197895000Y-78535000D03*
X197895000Y-75995000D03*
X197895000Y-73455000D03*
X197895000Y-70915000D03*
X197895000Y-68375000D03*
X197895000Y-65835000D03*
X197895000Y-63295000D03*
X197895000Y-60755000D03*
X195355000Y-72185000D03*
X195355000Y-69645000D03*
D19*
X195355000Y-88695000D03*
X192815000Y-88695000D03*
X190275000Y-88695000D03*
D20*
X230540000Y-71500000D02*
X237900000Y-78860000D01*
X230540000Y-43900000D02*
X230540000Y-71500000D01*
X228735000Y-73305000D02*
X230540000Y-71500000D01*
X228735000Y-73425000D02*
X228735000Y-73305000D01*
X215900000Y-86260000D02*
X228735000Y-73425000D01*
X239000000Y-81400000D02*
X237900000Y-81400000D01*
X239075001Y-49895001D02*
X239075001Y-81324999D01*
X239075001Y-81324999D02*
X239000000Y-81400000D01*
X233080000Y-43900000D02*
X239075001Y-49895001D01*
X215900000Y-89812000D02*
X215900000Y-88800000D01*
X215975001Y-89887001D02*
X215900000Y-89812000D01*
X230512999Y-89887001D02*
X215975001Y-89887001D01*
X237900000Y-82500000D02*
X230512999Y-89887001D01*
X237900000Y-81400000D02*
X237900000Y-82500000D01*
X215900000Y-95360000D02*
X222340000Y-101800000D01*
X215900000Y-88800000D02*
X215900000Y-95360000D01*
X182305750Y-68375000D02*
X182655000Y-68375000D01*
X181305180Y-69375570D02*
X182305750Y-68375000D01*
X180530000Y-70500000D02*
X181305180Y-69724820D01*
X181305180Y-69724820D02*
X181305180Y-69375570D01*
X173500000Y-70500000D02*
X180530000Y-70500000D01*
X183004250Y-68375000D02*
X182655000Y-68375000D01*
X184004820Y-67374430D02*
X183004250Y-68375000D01*
X184004820Y-67025180D02*
X184004820Y-67374430D01*
X187735000Y-63295000D02*
X184004820Y-67025180D01*
X197895000Y-63295000D02*
X187735000Y-63295000D01*
X214812999Y-88724999D02*
X214888000Y-88800000D01*
X214812999Y-79863749D02*
X214812999Y-88724999D01*
X214888000Y-88800000D02*
X215900000Y-88800000D01*
X198244250Y-63295000D02*
X214812999Y-79863749D01*
X197895000Y-63295000D02*
X198244250Y-63295000D01*
X180500000Y-64600000D02*
X174600000Y-70500000D01*
X180500000Y-44000000D02*
X180500000Y-64600000D01*
X181300001Y-94800001D02*
X182500000Y-96000000D01*
X181230170Y-94730170D02*
X181300001Y-94800001D01*
X181230170Y-77130170D02*
X181230170Y-94730170D01*
X174600000Y-70500000D02*
X181230170Y-77130170D01*
X173500000Y-70500000D02*
X174600000Y-70500000D01*
X204500000Y-44900000D02*
X204500000Y-46000000D01*
X203600000Y-44000000D02*
X204500000Y-44900000D01*
X183040000Y-44000000D02*
X203600000Y-44000000D01*
X209140000Y-43900000D02*
X228000000Y-43900000D01*
X207040000Y-46000000D02*
X209140000Y-43900000D01*
X187500000Y-98620000D02*
X190120000Y-96000000D01*
X187500000Y-103000000D02*
X187500000Y-98620000D01*
X183004250Y-83615000D02*
X182655000Y-83615000D01*
X184960000Y-85570750D02*
X183004250Y-83615000D01*
X184960000Y-103000000D02*
X184960000Y-85570750D01*
X224030001Y-102649999D02*
X224880000Y-101800000D01*
X223704999Y-102975001D02*
X224030001Y-102649999D01*
X202684652Y-102975001D02*
X223704999Y-102975001D01*
X189199420Y-89489769D02*
X202684652Y-102975001D01*
X189199420Y-87270170D02*
X189199420Y-89489769D01*
X183004250Y-81075000D02*
X189199420Y-87270170D01*
X182655000Y-81075000D02*
X183004250Y-81075000D01*
M02*
