M48
; DRILL file {KiCad 5.1.2} date Tue 12 Nov 2019 08:33:08 AM EST
; FORMAT={-:-/ absolute / inch / decimal}
; #@! TF.CreationDate,2019-11-12T08:33:08-05:00
; #@! TF.GenerationSoftware,Kicad,Pcbnew,5.1.2
; #@! TF.FileFunction,Plated,1,2,PTH
FMAT,2
INCH
T1C0.0300
T2C0.0315
T3C0.0354
T4C0.0394
T5C0.0472
%
G90
G05
T1
X8.5Y-3.3961
X8.5Y-3.4961
X8.6Y-3.3961
X8.6Y-3.4961
X8.7Y-3.3961
X8.7Y-3.4961
X8.8Y-3.3961
X8.8Y-3.4961
T2
X7.1911Y-2.3919
X7.1911Y-2.4919
X7.1911Y-2.5919
X7.1911Y-2.6919
X7.1911Y-2.7919
X7.1911Y-2.8919
X7.1911Y-2.9919
X7.1911Y-3.0919
X7.1911Y-3.1919
X7.1911Y-3.2919
X7.1911Y-3.3919
X7.1911Y-3.4919
X7.4911Y-3.4919
X7.5911Y-3.4919
X7.6911Y-2.7419
X7.6911Y-2.8419
X7.6911Y-3.1419
X7.6911Y-3.2419
X7.6911Y-3.4919
X7.7911Y-2.3919
X7.7911Y-2.4919
X7.7911Y-2.5919
X7.7911Y-2.6919
X7.7911Y-2.7919
X7.7911Y-2.8919
X7.7911Y-2.9919
X7.7911Y-3.0919
X7.7911Y-3.1919
X7.7911Y-3.2919
X7.7911Y-3.3919
X7.7911Y-3.4919
T3
X7.2819Y-4.0551
X7.3819Y-4.0551
T4
X8.0512Y-1.811
X8.1512Y-1.811
X8.2512Y-1.811
X8.9764Y-1.7283
X9.0764Y-1.7283
X9.1764Y-1.7283
X7.1063Y-1.7323
X7.2063Y-1.7323
X6.811Y-2.2835
X6.811Y-2.3835
X6.811Y-2.4835
X6.811Y-2.5835
X6.811Y-2.6835
X8.6535Y-4.0079
X8.7535Y-4.0079
X8.8535Y-4.0079
X9.3701Y-2.2772
X9.3701Y-2.3772
X9.3701Y-2.4772
X9.3701Y-2.5772
X9.3701Y-2.6772
T5
X7.185Y-3.7795
X7.485Y-3.7795
T0
M30
