#define Controller_width 12
#define Controller_height 7
static unsigned char Controller_bits[] = {
   0xfc, 0x03, 0xfe, 0x07, 0xff, 0x0f, 0xf3, 0x0c, 0xf3, 0x0c, 0x9f, 0x0f,
   0x0e, 0x07 };
