#define Error_width 12
#define Error_height 12
static unsigned char Error_bits[] = {
   0xf0, 0x00, 0x0c, 0x03, 0x06, 0x06, 0x0a, 0x05, 0x91, 0x08, 0x61, 0x08,
   0x61, 0x08, 0x91, 0x08, 0x0a, 0x05, 0x06, 0x06, 0x0c, 0x03, 0xf0, 0x00 };
