#define Info_width 12
#define Info_height 12
static unsigned char Info_bits[] = {
   0xf0, 0x00, 0x0c, 0x03, 0x62, 0x04, 0x62, 0x04, 0x01, 0x08, 0x71, 0x08,
   0x61, 0x08, 0x61, 0x08, 0x62, 0x04, 0xf2, 0x04, 0x0c, 0x03, 0xf0, 0x00 };
