#define Question_width 12
#define Question_height 12
static unsigned char Question_bits[] = {
   0xf0, 0x00, 0x0c, 0x03, 0xf2, 0x04, 0xfa, 0x05, 0x89, 0x09, 0x81, 0x09,
   0xe1, 0x08, 0x61, 0x08, 0x02, 0x04, 0x62, 0x04, 0x0c, 0x03, 0xf0, 0x00 };
