#define Wifi4_width 14
#define Wifi4_height 11
static unsigned char Wifi4_bits[] = {
   0xf0, 0x03, 0x1e, 0x1e, 0x03, 0x30, 0xe0, 0x01, 0x3c, 0x0f, 0x06, 0x18,
   0xe0, 0x01, 0x38, 0x07, 0x00, 0x00, 0xe0, 0x01, 0xc0, 0x00 };
