M48
; DRILL file {KiCad 5.1.2} date Tue 12 Nov 2019 07:34:38 PM EST
; FORMAT={-:-/ absolute / inch / decimal}
; #@! TF.CreationDate,2019-11-12T19:34:38-05:00
; #@! TF.GenerationSoftware,Kicad,Pcbnew,5.1.2
; #@! TF.FileFunction,Plated,1,2,PTH
FMAT,2
INCH
T1C0.0300
T2C0.0315
T3C0.0315
T4C0.0354
T5C0.0394
%
G90
G05
T1
X5.3543Y-3.8976
X5.3543Y-3.9976
X5.3543Y-4.0976
X5.3543Y-4.1976
X5.4543Y-3.8976
X5.4543Y-3.9976
X5.4543Y-4.0976
X5.4543Y-4.1976
T2
X6.4567Y-3.952
X6.4567Y-4.252
T3
X5.2374Y-3.7945
X5.2374Y-4.0945
X5.2374Y-4.1945
X5.2374Y-4.2945
X5.2374Y-4.3945
X5.3374Y-3.7945
X5.3374Y-4.3945
X5.4374Y-3.7945
X5.4374Y-4.3945
X5.4874Y-4.2945
X5.5374Y-3.7945
X5.5374Y-4.3945
X5.5874Y-4.2945
X5.6374Y-3.7945
X5.6374Y-4.3945
X5.7374Y-3.7945
X5.7374Y-4.3945
X5.8374Y-3.7945
X5.8374Y-4.3945
X5.8874Y-4.2945
X5.9374Y-3.7945
X5.9374Y-4.3945
X5.9874Y-4.2945
X6.0374Y-3.7945
X6.0374Y-4.3945
X6.1374Y-3.7945
X6.1374Y-4.3945
X6.2374Y-3.7945
X6.2374Y-4.3945
X6.3374Y-3.7945
X6.3374Y-4.3945
T4
X6.6929Y-3.7795
X6.7929Y-3.7795
T5
X6.6717Y-4.0551
X6.6717Y-4.1551
X6.6717Y-4.2551
X6.6717Y-4.3551
X6.7717Y-4.0551
X6.7717Y-4.1551
X6.7717Y-4.2551
X6.7717Y-4.3551
T0
M30
