G04 #@! TF.GenerationSoftware,KiCad,Pcbnew,5.1.9+dfsg1-1*
G04 #@! TF.CreationDate,2022-06-21T09:56:44-04:00*
G04 #@! TF.ProjectId,VS_robot_controller,56535f72-6f62-46f7-945f-636f6e74726f,rev?*
G04 #@! TF.SameCoordinates,Original*
G04 #@! TF.FileFunction,Legend,Bot*
G04 #@! TF.FilePolarity,Positive*
%FSLAX46Y46*%
G04 Gerber Fmt 4.6, Leading zero omitted, Abs format (unit mm)*
G04 Created by KiCad (PCBNEW 5.1.9+dfsg1-1) date 2022-06-21 09:56:44*
%MOMM*%
%LPD*%
G01*
G04 APERTURE LIST*
%ADD10C,0.010000*%
G04 APERTURE END LIST*
D10*
G36*
X230039334Y-71458667D02*
G01*
X230625855Y-71458667D01*
X230944015Y-71464832D01*
X231142831Y-71493053D01*
X231272130Y-71557916D01*
X231381737Y-71674008D01*
X231387855Y-71681751D01*
X231448358Y-71768838D01*
X231493142Y-71871098D01*
X231524559Y-72013747D01*
X231544963Y-72222002D01*
X231556707Y-72521080D01*
X231562144Y-72936198D01*
X231563627Y-73492572D01*
X231563650Y-73565585D01*
X231565132Y-74144434D01*
X231570831Y-74579955D01*
X231583003Y-74898142D01*
X231603906Y-75124989D01*
X231635797Y-75286489D01*
X231680933Y-75408638D01*
X231731739Y-75501500D01*
X231855507Y-75679885D01*
X231950576Y-75774873D01*
X231964256Y-75779483D01*
X232068951Y-75830760D01*
X232230838Y-75950353D01*
X232233139Y-75952265D01*
X232437277Y-76122229D01*
X232000305Y-76526063D01*
X231563334Y-76929896D01*
X231563334Y-78803103D01*
X231559830Y-79361526D01*
X231550026Y-79872916D01*
X231534983Y-80309459D01*
X231515760Y-80643346D01*
X231493420Y-80846764D01*
X231483918Y-80885189D01*
X231326650Y-81076153D01*
X231044076Y-81208914D01*
X230674341Y-81269512D01*
X230441729Y-81266598D01*
X230081667Y-81240214D01*
X230055862Y-81641107D01*
X230030056Y-82042000D01*
X230775528Y-82040072D01*
X231284314Y-82019331D01*
X231644816Y-81958642D01*
X231795640Y-81902752D01*
X232021610Y-81739345D01*
X232228797Y-81508843D01*
X232261306Y-81460180D01*
X232322066Y-81354734D01*
X232368826Y-81243074D01*
X232403798Y-81101783D01*
X232429193Y-80907443D01*
X232447224Y-80636634D01*
X232460103Y-80265939D01*
X232470041Y-79771937D01*
X232478918Y-79156233D01*
X232505502Y-77159465D01*
X233008085Y-76717074D01*
X233245106Y-76496128D01*
X233421935Y-76307837D01*
X233507272Y-76186200D01*
X233510667Y-76171191D01*
X233453904Y-76067365D01*
X233302859Y-75881833D01*
X233086402Y-75649112D01*
X233008557Y-75570828D01*
X232506446Y-75073956D01*
X232479390Y-73272283D01*
X232469277Y-72670138D01*
X232457856Y-72213238D01*
X232442739Y-71877497D01*
X232421542Y-71638829D01*
X232391877Y-71473150D01*
X232351360Y-71356375D01*
X232297604Y-71264416D01*
X232277769Y-71237036D01*
X232061263Y-70979623D01*
X231840706Y-70807783D01*
X231572673Y-70703061D01*
X231213738Y-70647000D01*
X230837661Y-70624994D01*
X230039334Y-70595654D01*
X230039334Y-71458667D01*
G37*
X230039334Y-71458667D02*
X230625855Y-71458667D01*
X230944015Y-71464832D01*
X231142831Y-71493053D01*
X231272130Y-71557916D01*
X231381737Y-71674008D01*
X231387855Y-71681751D01*
X231448358Y-71768838D01*
X231493142Y-71871098D01*
X231524559Y-72013747D01*
X231544963Y-72222002D01*
X231556707Y-72521080D01*
X231562144Y-72936198D01*
X231563627Y-73492572D01*
X231563650Y-73565585D01*
X231565132Y-74144434D01*
X231570831Y-74579955D01*
X231583003Y-74898142D01*
X231603906Y-75124989D01*
X231635797Y-75286489D01*
X231680933Y-75408638D01*
X231731739Y-75501500D01*
X231855507Y-75679885D01*
X231950576Y-75774873D01*
X231964256Y-75779483D01*
X232068951Y-75830760D01*
X232230838Y-75950353D01*
X232233139Y-75952265D01*
X232437277Y-76122229D01*
X232000305Y-76526063D01*
X231563334Y-76929896D01*
X231563334Y-78803103D01*
X231559830Y-79361526D01*
X231550026Y-79872916D01*
X231534983Y-80309459D01*
X231515760Y-80643346D01*
X231493420Y-80846764D01*
X231483918Y-80885189D01*
X231326650Y-81076153D01*
X231044076Y-81208914D01*
X230674341Y-81269512D01*
X230441729Y-81266598D01*
X230081667Y-81240214D01*
X230055862Y-81641107D01*
X230030056Y-82042000D01*
X230775528Y-82040072D01*
X231284314Y-82019331D01*
X231644816Y-81958642D01*
X231795640Y-81902752D01*
X232021610Y-81739345D01*
X232228797Y-81508843D01*
X232261306Y-81460180D01*
X232322066Y-81354734D01*
X232368826Y-81243074D01*
X232403798Y-81101783D01*
X232429193Y-80907443D01*
X232447224Y-80636634D01*
X232460103Y-80265939D01*
X232470041Y-79771937D01*
X232478918Y-79156233D01*
X232505502Y-77159465D01*
X233008085Y-76717074D01*
X233245106Y-76496128D01*
X233421935Y-76307837D01*
X233507272Y-76186200D01*
X233510667Y-76171191D01*
X233453904Y-76067365D01*
X233302859Y-75881833D01*
X233086402Y-75649112D01*
X233008557Y-75570828D01*
X232506446Y-75073956D01*
X232479390Y-73272283D01*
X232469277Y-72670138D01*
X232457856Y-72213238D01*
X232442739Y-71877497D01*
X232421542Y-71638829D01*
X232391877Y-71473150D01*
X232351360Y-71356375D01*
X232297604Y-71264416D01*
X232277769Y-71237036D01*
X232061263Y-70979623D01*
X231840706Y-70807783D01*
X231572673Y-70703061D01*
X231213738Y-70647000D01*
X230837661Y-70624994D01*
X230039334Y-70595654D01*
X230039334Y-71458667D01*
G36*
X178794834Y-70624994D02*
G01*
X178398821Y-70646238D01*
X178125607Y-70681287D01*
X177928698Y-70740268D01*
X177761599Y-70833304D01*
X177726634Y-70857624D01*
X177537618Y-71009641D01*
X177392331Y-71178047D01*
X177285168Y-71386585D01*
X177210527Y-71658995D01*
X177162804Y-72019020D01*
X177136395Y-72490401D01*
X177125696Y-73096879D01*
X177124527Y-73408650D01*
X177122667Y-75062301D01*
X176614667Y-75565000D01*
X176382021Y-75806692D01*
X176205410Y-76012014D01*
X176113516Y-76146788D01*
X176106667Y-76170368D01*
X176166741Y-76271149D01*
X176325938Y-76445769D01*
X176552724Y-76660357D01*
X176609197Y-76710125D01*
X177111726Y-77147211D01*
X177138363Y-79165286D01*
X177148305Y-79841900D01*
X177161834Y-80371766D01*
X177184504Y-80777457D01*
X177221867Y-81081546D01*
X177279476Y-81306606D01*
X177362884Y-81475211D01*
X177477643Y-81609934D01*
X177629307Y-81733349D01*
X177799140Y-81851500D01*
X177963912Y-81946614D01*
X178146741Y-82004193D01*
X178395264Y-82033013D01*
X178757121Y-82041853D01*
X178833160Y-82042000D01*
X179587278Y-82042000D01*
X179561473Y-81641107D01*
X179535667Y-81240214D01*
X179175606Y-81266598D01*
X178773534Y-81252861D01*
X178437107Y-81159087D01*
X178204471Y-80999236D01*
X178133416Y-80885189D01*
X178110132Y-80741304D01*
X178089545Y-80455904D01*
X178072715Y-80056802D01*
X178060703Y-79571809D01*
X178054570Y-79028736D01*
X178054000Y-78803103D01*
X178054000Y-76929896D01*
X177617029Y-76526063D01*
X177180058Y-76122229D01*
X177384196Y-75952265D01*
X177546388Y-75832043D01*
X177652337Y-75779526D01*
X177653078Y-75779483D01*
X177734832Y-75712159D01*
X177855690Y-75548998D01*
X177885595Y-75501500D01*
X177943847Y-75392384D01*
X177986924Y-75266145D01*
X178017084Y-75096788D01*
X178036582Y-74858319D01*
X178047677Y-74524744D01*
X178052625Y-74070069D01*
X178053684Y-73565585D01*
X178054868Y-72991629D01*
X178059739Y-72561784D01*
X178070651Y-72250834D01*
X178089956Y-72033562D01*
X178120008Y-71884751D01*
X178163160Y-71779185D01*
X178221766Y-71691645D01*
X178229479Y-71681751D01*
X178339426Y-71562583D01*
X178466464Y-71495406D01*
X178660418Y-71465633D01*
X178971113Y-71458677D01*
X178991479Y-71458667D01*
X179578000Y-71458667D01*
X179578000Y-70595654D01*
X178794834Y-70624994D01*
G37*
X178794834Y-70624994D02*
X178398821Y-70646238D01*
X178125607Y-70681287D01*
X177928698Y-70740268D01*
X177761599Y-70833304D01*
X177726634Y-70857624D01*
X177537618Y-71009641D01*
X177392331Y-71178047D01*
X177285168Y-71386585D01*
X177210527Y-71658995D01*
X177162804Y-72019020D01*
X177136395Y-72490401D01*
X177125696Y-73096879D01*
X177124527Y-73408650D01*
X177122667Y-75062301D01*
X176614667Y-75565000D01*
X176382021Y-75806692D01*
X176205410Y-76012014D01*
X176113516Y-76146788D01*
X176106667Y-76170368D01*
X176166741Y-76271149D01*
X176325938Y-76445769D01*
X176552724Y-76660357D01*
X176609197Y-76710125D01*
X177111726Y-77147211D01*
X177138363Y-79165286D01*
X177148305Y-79841900D01*
X177161834Y-80371766D01*
X177184504Y-80777457D01*
X177221867Y-81081546D01*
X177279476Y-81306606D01*
X177362884Y-81475211D01*
X177477643Y-81609934D01*
X177629307Y-81733349D01*
X177799140Y-81851500D01*
X177963912Y-81946614D01*
X178146741Y-82004193D01*
X178395264Y-82033013D01*
X178757121Y-82041853D01*
X178833160Y-82042000D01*
X179587278Y-82042000D01*
X179561473Y-81641107D01*
X179535667Y-81240214D01*
X179175606Y-81266598D01*
X178773534Y-81252861D01*
X178437107Y-81159087D01*
X178204471Y-80999236D01*
X178133416Y-80885189D01*
X178110132Y-80741304D01*
X178089545Y-80455904D01*
X178072715Y-80056802D01*
X178060703Y-79571809D01*
X178054570Y-79028736D01*
X178054000Y-78803103D01*
X178054000Y-76929896D01*
X177617029Y-76526063D01*
X177180058Y-76122229D01*
X177384196Y-75952265D01*
X177546388Y-75832043D01*
X177652337Y-75779526D01*
X177653078Y-75779483D01*
X177734832Y-75712159D01*
X177855690Y-75548998D01*
X177885595Y-75501500D01*
X177943847Y-75392384D01*
X177986924Y-75266145D01*
X178017084Y-75096788D01*
X178036582Y-74858319D01*
X178047677Y-74524744D01*
X178052625Y-74070069D01*
X178053684Y-73565585D01*
X178054868Y-72991629D01*
X178059739Y-72561784D01*
X178070651Y-72250834D01*
X178089956Y-72033562D01*
X178120008Y-71884751D01*
X178163160Y-71779185D01*
X178221766Y-71691645D01*
X178229479Y-71681751D01*
X178339426Y-71562583D01*
X178466464Y-71495406D01*
X178660418Y-71465633D01*
X178971113Y-71458677D01*
X178991479Y-71458667D01*
X179578000Y-71458667D01*
X179578000Y-70595654D01*
X178794834Y-70624994D01*
G36*
X220428631Y-80137132D02*
G01*
X220387334Y-80199641D01*
X220411475Y-80324728D01*
X220476523Y-80570705D01*
X220571416Y-80897298D01*
X220644318Y-81135199D01*
X220901303Y-81957333D01*
X221551867Y-81957333D01*
X221514215Y-81597500D01*
X221484359Y-81312475D01*
X221446489Y-80951338D01*
X221418782Y-80687333D01*
X221361000Y-80137000D01*
X220874167Y-80111608D01*
X220581694Y-80107478D01*
X220428631Y-80137132D01*
G37*
X220428631Y-80137132D02*
X220387334Y-80199641D01*
X220411475Y-80324728D01*
X220476523Y-80570705D01*
X220571416Y-80897298D01*
X220644318Y-81135199D01*
X220901303Y-81957333D01*
X221551867Y-81957333D01*
X221514215Y-81597500D01*
X221484359Y-81312475D01*
X221446489Y-80951338D01*
X221418782Y-80687333D01*
X221361000Y-80137000D01*
X220874167Y-80111608D01*
X220581694Y-80107478D01*
X220428631Y-80137132D01*
G36*
X205266174Y-80109462D02*
G01*
X205094851Y-80150411D01*
X205062667Y-80187266D01*
X205086561Y-80302798D01*
X205151040Y-80541071D01*
X205245304Y-80863477D01*
X205323242Y-81118599D01*
X205583816Y-81957333D01*
X205925331Y-81957333D01*
X206141999Y-81950197D01*
X206231228Y-81902695D01*
X206234910Y-81775684D01*
X206219819Y-81682167D01*
X206189302Y-81461684D01*
X206153016Y-81139005D01*
X206118405Y-80780749D01*
X206115783Y-80750833D01*
X206058773Y-80094667D01*
X205560720Y-80094667D01*
X205266174Y-80109462D01*
G37*
X205266174Y-80109462D02*
X205094851Y-80150411D01*
X205062667Y-80187266D01*
X205086561Y-80302798D01*
X205151040Y-80541071D01*
X205245304Y-80863477D01*
X205323242Y-81118599D01*
X205583816Y-81957333D01*
X205925331Y-81957333D01*
X206141999Y-81950197D01*
X206231228Y-81902695D01*
X206234910Y-81775684D01*
X206219819Y-81682167D01*
X206189302Y-81461684D01*
X206153016Y-81139005D01*
X206118405Y-80780749D01*
X206115783Y-80750833D01*
X206058773Y-80094667D01*
X205560720Y-80094667D01*
X205266174Y-80109462D01*
G36*
X190788174Y-80109462D02*
G01*
X190616851Y-80150411D01*
X190584667Y-80187266D01*
X190608561Y-80302798D01*
X190673040Y-80541071D01*
X190767304Y-80863477D01*
X190845242Y-81118599D01*
X191105816Y-81957333D01*
X191447331Y-81957333D01*
X191663999Y-81950197D01*
X191753228Y-81902695D01*
X191756910Y-81775684D01*
X191741819Y-81682167D01*
X191711302Y-81461684D01*
X191675016Y-81139005D01*
X191640405Y-80780749D01*
X191637783Y-80750833D01*
X191580773Y-80094667D01*
X191082720Y-80094667D01*
X190788174Y-80109462D01*
G37*
X190788174Y-80109462D02*
X190616851Y-80150411D01*
X190584667Y-80187266D01*
X190608561Y-80302798D01*
X190673040Y-80541071D01*
X190767304Y-80863477D01*
X190845242Y-81118599D01*
X191105816Y-81957333D01*
X191447331Y-81957333D01*
X191663999Y-81950197D01*
X191753228Y-81902695D01*
X191756910Y-81775684D01*
X191741819Y-81682167D01*
X191711302Y-81461684D01*
X191675016Y-81139005D01*
X191640405Y-80780749D01*
X191637783Y-80750833D01*
X191580773Y-80094667D01*
X191082720Y-80094667D01*
X190788174Y-80109462D01*
G36*
X224832174Y-79437776D02*
G01*
X224663656Y-79449532D01*
X224636088Y-79458357D01*
X224608622Y-79564255D01*
X224585644Y-79796194D01*
X224570937Y-80110887D01*
X224568456Y-80231755D01*
X224573351Y-80627765D01*
X224612399Y-80884491D01*
X224702380Y-81031093D01*
X224860072Y-81096726D01*
X225074272Y-81110667D01*
X225277699Y-81164243D01*
X225503431Y-81295848D01*
X225536560Y-81322333D01*
X225717037Y-81458800D01*
X225847831Y-81530715D01*
X225865274Y-81534000D01*
X225976366Y-81487529D01*
X226160869Y-81371297D01*
X226229334Y-81322333D01*
X226464414Y-81186101D01*
X226688368Y-81113154D01*
X226732616Y-81109370D01*
X226945166Y-81090134D01*
X227083055Y-81015842D01*
X227162326Y-80857031D01*
X227199020Y-80584236D01*
X227208765Y-80234868D01*
X227214530Y-79522197D01*
X225954166Y-79461419D01*
X225508548Y-79443791D01*
X225124177Y-79435886D01*
X224832174Y-79437776D01*
G37*
X224832174Y-79437776D02*
X224663656Y-79449532D01*
X224636088Y-79458357D01*
X224608622Y-79564255D01*
X224585644Y-79796194D01*
X224570937Y-80110887D01*
X224568456Y-80231755D01*
X224573351Y-80627765D01*
X224612399Y-80884491D01*
X224702380Y-81031093D01*
X224860072Y-81096726D01*
X225074272Y-81110667D01*
X225277699Y-81164243D01*
X225503431Y-81295848D01*
X225536560Y-81322333D01*
X225717037Y-81458800D01*
X225847831Y-81530715D01*
X225865274Y-81534000D01*
X225976366Y-81487529D01*
X226160869Y-81371297D01*
X226229334Y-81322333D01*
X226464414Y-81186101D01*
X226688368Y-81113154D01*
X226732616Y-81109370D01*
X226945166Y-81090134D01*
X227083055Y-81015842D01*
X227162326Y-80857031D01*
X227199020Y-80584236D01*
X227208765Y-80234868D01*
X227214530Y-79522197D01*
X225954166Y-79461419D01*
X225508548Y-79443791D01*
X225124177Y-79435886D01*
X224832174Y-79437776D01*
G36*
X213486968Y-76708032D02*
G01*
X212935664Y-77254435D01*
X213782832Y-78104497D01*
X214117841Y-78443286D01*
X214350567Y-78689994D01*
X214499572Y-78871157D01*
X214583420Y-79013313D01*
X214620670Y-79142998D01*
X214629886Y-79286750D01*
X214630000Y-79315665D01*
X214658338Y-79620759D01*
X214728147Y-79908014D01*
X214744389Y-79950542D01*
X214945604Y-80264604D01*
X215252532Y-80558555D01*
X215604603Y-80780294D01*
X215791853Y-80851576D01*
X216029903Y-80912159D01*
X216200310Y-80926425D01*
X216388323Y-80893323D01*
X216574241Y-80841926D01*
X217036649Y-80629998D01*
X217385331Y-80294808D01*
X217510584Y-80090909D01*
X217649592Y-79656972D01*
X217650613Y-79609001D01*
X217254667Y-79609001D01*
X217195848Y-79705113D01*
X217045468Y-79872035D01*
X216842640Y-80072884D01*
X216626477Y-80270776D01*
X216436095Y-80428831D01*
X216310606Y-80510164D01*
X216294758Y-80514157D01*
X216190992Y-80477316D01*
X215983216Y-80376601D01*
X215714055Y-80232827D01*
X215680924Y-80214380D01*
X215404799Y-80053511D01*
X215235627Y-79916920D01*
X215158989Y-79762590D01*
X215160463Y-79548506D01*
X215225629Y-79232652D01*
X215275294Y-79032567D01*
X215352793Y-78741106D01*
X215419080Y-78577538D01*
X215501931Y-78504968D01*
X215629123Y-78486506D01*
X215686810Y-78486000D01*
X215947356Y-78473955D01*
X216261674Y-78443910D01*
X216352322Y-78432368D01*
X216743611Y-78378736D01*
X216999139Y-78948260D01*
X217123884Y-79237978D01*
X217214881Y-79471595D01*
X217254255Y-79602890D01*
X217254667Y-79609001D01*
X217650613Y-79609001D01*
X217659408Y-79195807D01*
X217549473Y-78752584D01*
X217329227Y-78372469D01*
X217107641Y-78163217D01*
X216833850Y-78014138D01*
X216509348Y-77901537D01*
X216199212Y-77843005D01*
X215969889Y-77855690D01*
X215877786Y-77857092D01*
X215753521Y-77798587D01*
X215577294Y-77664781D01*
X215329299Y-77440279D01*
X214989736Y-77109686D01*
X214916188Y-77036555D01*
X214038273Y-76161628D01*
X213486968Y-76708032D01*
G37*
X213486968Y-76708032D02*
X212935664Y-77254435D01*
X213782832Y-78104497D01*
X214117841Y-78443286D01*
X214350567Y-78689994D01*
X214499572Y-78871157D01*
X214583420Y-79013313D01*
X214620670Y-79142998D01*
X214629886Y-79286750D01*
X214630000Y-79315665D01*
X214658338Y-79620759D01*
X214728147Y-79908014D01*
X214744389Y-79950542D01*
X214945604Y-80264604D01*
X215252532Y-80558555D01*
X215604603Y-80780294D01*
X215791853Y-80851576D01*
X216029903Y-80912159D01*
X216200310Y-80926425D01*
X216388323Y-80893323D01*
X216574241Y-80841926D01*
X217036649Y-80629998D01*
X217385331Y-80294808D01*
X217510584Y-80090909D01*
X217649592Y-79656972D01*
X217650613Y-79609001D01*
X217254667Y-79609001D01*
X217195848Y-79705113D01*
X217045468Y-79872035D01*
X216842640Y-80072884D01*
X216626477Y-80270776D01*
X216436095Y-80428831D01*
X216310606Y-80510164D01*
X216294758Y-80514157D01*
X216190992Y-80477316D01*
X215983216Y-80376601D01*
X215714055Y-80232827D01*
X215680924Y-80214380D01*
X215404799Y-80053511D01*
X215235627Y-79916920D01*
X215158989Y-79762590D01*
X215160463Y-79548506D01*
X215225629Y-79232652D01*
X215275294Y-79032567D01*
X215352793Y-78741106D01*
X215419080Y-78577538D01*
X215501931Y-78504968D01*
X215629123Y-78486506D01*
X215686810Y-78486000D01*
X215947356Y-78473955D01*
X216261674Y-78443910D01*
X216352322Y-78432368D01*
X216743611Y-78378736D01*
X216999139Y-78948260D01*
X217123884Y-79237978D01*
X217214881Y-79471595D01*
X217254255Y-79602890D01*
X217254667Y-79609001D01*
X217650613Y-79609001D01*
X217659408Y-79195807D01*
X217549473Y-78752584D01*
X217329227Y-78372469D01*
X217107641Y-78163217D01*
X216833850Y-78014138D01*
X216509348Y-77901537D01*
X216199212Y-77843005D01*
X215969889Y-77855690D01*
X215877786Y-77857092D01*
X215753521Y-77798587D01*
X215577294Y-77664781D01*
X215329299Y-77440279D01*
X214989736Y-77109686D01*
X214916188Y-77036555D01*
X214038273Y-76161628D01*
X213486968Y-76708032D01*
G36*
X201998344Y-79614045D02*
G01*
X201930000Y-79671333D01*
X201842632Y-79742460D01*
X201727360Y-79790517D01*
X201552041Y-79819910D01*
X201284535Y-79835045D01*
X200892700Y-79840326D01*
X200694522Y-79840667D01*
X200239737Y-79837729D01*
X199920668Y-79825959D01*
X199703754Y-79800922D01*
X199555435Y-79758183D01*
X199442149Y-79693308D01*
X199413104Y-79671333D01*
X199123558Y-79532635D01*
X198825306Y-79531251D01*
X198559464Y-79648596D01*
X198367148Y-79866081D01*
X198289475Y-80165121D01*
X198289334Y-80179333D01*
X198360567Y-80482232D01*
X198546268Y-80703388D01*
X198804436Y-80825805D01*
X199093075Y-80832487D01*
X199370183Y-80706437D01*
X199440031Y-80645000D01*
X199538358Y-80555534D01*
X199643843Y-80495618D01*
X199790871Y-80459348D01*
X200013825Y-80440821D01*
X200347088Y-80434133D01*
X200672794Y-80433333D01*
X201108048Y-80435408D01*
X201409678Y-80445591D01*
X201613380Y-80469818D01*
X201754848Y-80514027D01*
X201869778Y-80584154D01*
X201945441Y-80645000D01*
X202241144Y-80821105D01*
X202524263Y-80831473D01*
X202807582Y-80681188D01*
X202986795Y-80443405D01*
X203039258Y-80149445D01*
X203033644Y-80127813D01*
X202677614Y-80127813D01*
X202643207Y-80354662D01*
X202512615Y-80490633D01*
X202336268Y-80520318D01*
X202164597Y-80428311D01*
X202085071Y-80308840D01*
X202076451Y-80255074D01*
X199281019Y-80255074D01*
X199194872Y-80426052D01*
X199013700Y-80515010D01*
X198966667Y-80518000D01*
X198787715Y-80456936D01*
X198716043Y-80395067D01*
X198642030Y-80206205D01*
X198688103Y-80021919D01*
X198818207Y-79887644D01*
X198996289Y-79848816D01*
X199114834Y-79892508D01*
X199258790Y-80058437D01*
X199281019Y-80255074D01*
X202076451Y-80255074D01*
X202048024Y-80077775D01*
X202150895Y-79914771D01*
X202367764Y-79853668D01*
X202430753Y-79857553D01*
X202599636Y-79917903D01*
X202670951Y-80079763D01*
X202677614Y-80127813D01*
X203033644Y-80127813D01*
X202963395Y-79857174D01*
X202834710Y-79686092D01*
X202569946Y-79536112D01*
X202270082Y-79511752D01*
X201998344Y-79614045D01*
G37*
X201998344Y-79614045D02*
X201930000Y-79671333D01*
X201842632Y-79742460D01*
X201727360Y-79790517D01*
X201552041Y-79819910D01*
X201284535Y-79835045D01*
X200892700Y-79840326D01*
X200694522Y-79840667D01*
X200239737Y-79837729D01*
X199920668Y-79825959D01*
X199703754Y-79800922D01*
X199555435Y-79758183D01*
X199442149Y-79693308D01*
X199413104Y-79671333D01*
X199123558Y-79532635D01*
X198825306Y-79531251D01*
X198559464Y-79648596D01*
X198367148Y-79866081D01*
X198289475Y-80165121D01*
X198289334Y-80179333D01*
X198360567Y-80482232D01*
X198546268Y-80703388D01*
X198804436Y-80825805D01*
X199093075Y-80832487D01*
X199370183Y-80706437D01*
X199440031Y-80645000D01*
X199538358Y-80555534D01*
X199643843Y-80495618D01*
X199790871Y-80459348D01*
X200013825Y-80440821D01*
X200347088Y-80434133D01*
X200672794Y-80433333D01*
X201108048Y-80435408D01*
X201409678Y-80445591D01*
X201613380Y-80469818D01*
X201754848Y-80514027D01*
X201869778Y-80584154D01*
X201945441Y-80645000D01*
X202241144Y-80821105D01*
X202524263Y-80831473D01*
X202807582Y-80681188D01*
X202986795Y-80443405D01*
X203039258Y-80149445D01*
X203033644Y-80127813D01*
X202677614Y-80127813D01*
X202643207Y-80354662D01*
X202512615Y-80490633D01*
X202336268Y-80520318D01*
X202164597Y-80428311D01*
X202085071Y-80308840D01*
X202076451Y-80255074D01*
X199281019Y-80255074D01*
X199194872Y-80426052D01*
X199013700Y-80515010D01*
X198966667Y-80518000D01*
X198787715Y-80456936D01*
X198716043Y-80395067D01*
X198642030Y-80206205D01*
X198688103Y-80021919D01*
X198818207Y-79887644D01*
X198996289Y-79848816D01*
X199114834Y-79892508D01*
X199258790Y-80058437D01*
X199281019Y-80255074D01*
X202076451Y-80255074D01*
X202048024Y-80077775D01*
X202150895Y-79914771D01*
X202367764Y-79853668D01*
X202430753Y-79857553D01*
X202599636Y-79917903D01*
X202670951Y-80079763D01*
X202677614Y-80127813D01*
X203033644Y-80127813D01*
X202963395Y-79857174D01*
X202834710Y-79686092D01*
X202569946Y-79536112D01*
X202270082Y-79511752D01*
X201998344Y-79614045D01*
G36*
X197146248Y-71075873D02*
G01*
X196868136Y-71244732D01*
X196764837Y-71324806D01*
X196655953Y-71382060D01*
X196511490Y-71420996D01*
X196301454Y-71446114D01*
X195995852Y-71461915D01*
X195564688Y-71472900D01*
X195316474Y-71477565D01*
X194013667Y-71501000D01*
X193991725Y-75851724D01*
X193987575Y-76916652D01*
X193986795Y-77820354D01*
X193989519Y-78570910D01*
X193995880Y-79176396D01*
X194006013Y-79644890D01*
X194020050Y-79984470D01*
X194038125Y-80203213D01*
X194060372Y-80309197D01*
X194065592Y-80317891D01*
X194149598Y-80366313D01*
X194322616Y-80400122D01*
X194606480Y-80421223D01*
X195023025Y-80431524D01*
X195387645Y-80433333D01*
X195868728Y-80434617D01*
X196211728Y-80441454D01*
X196447895Y-80458319D01*
X196608478Y-80489687D01*
X196724724Y-80540036D01*
X196827881Y-80613839D01*
X196865441Y-80645000D01*
X197171664Y-80818581D01*
X197475453Y-80837269D01*
X197747955Y-80699779D01*
X197764344Y-80684990D01*
X197963722Y-80404511D01*
X197997677Y-80094921D01*
X197918355Y-79860045D01*
X197719106Y-79625314D01*
X197453229Y-79504372D01*
X197170884Y-79506445D01*
X196922229Y-79640760D01*
X196892334Y-79671333D01*
X196815188Y-79740468D01*
X196710644Y-79787863D01*
X196548191Y-79817540D01*
X196297317Y-79833525D01*
X195927512Y-79839840D01*
X195608366Y-79840667D01*
X194477643Y-79840667D01*
X194499655Y-75924833D01*
X194521667Y-72009000D01*
X195567810Y-71985155D01*
X196005263Y-71976539D01*
X196306701Y-71977629D01*
X196505380Y-71993516D01*
X196634554Y-72029288D01*
X196727478Y-72090035D01*
X196812600Y-72175655D01*
X197080099Y-72357990D01*
X197379864Y-72400548D01*
X197664411Y-72309104D01*
X197886257Y-72089432D01*
X197913262Y-72041804D01*
X197995310Y-71723034D01*
X197914019Y-71424478D01*
X197718068Y-71203327D01*
X197431553Y-71056590D01*
X197146248Y-71075873D01*
G37*
X197146248Y-71075873D02*
X196868136Y-71244732D01*
X196764837Y-71324806D01*
X196655953Y-71382060D01*
X196511490Y-71420996D01*
X196301454Y-71446114D01*
X195995852Y-71461915D01*
X195564688Y-71472900D01*
X195316474Y-71477565D01*
X194013667Y-71501000D01*
X193991725Y-75851724D01*
X193987575Y-76916652D01*
X193986795Y-77820354D01*
X193989519Y-78570910D01*
X193995880Y-79176396D01*
X194006013Y-79644890D01*
X194020050Y-79984470D01*
X194038125Y-80203213D01*
X194060372Y-80309197D01*
X194065592Y-80317891D01*
X194149598Y-80366313D01*
X194322616Y-80400122D01*
X194606480Y-80421223D01*
X195023025Y-80431524D01*
X195387645Y-80433333D01*
X195868728Y-80434617D01*
X196211728Y-80441454D01*
X196447895Y-80458319D01*
X196608478Y-80489687D01*
X196724724Y-80540036D01*
X196827881Y-80613839D01*
X196865441Y-80645000D01*
X197171664Y-80818581D01*
X197475453Y-80837269D01*
X197747955Y-80699779D01*
X197764344Y-80684990D01*
X197963722Y-80404511D01*
X197997677Y-80094921D01*
X197918355Y-79860045D01*
X197719106Y-79625314D01*
X197453229Y-79504372D01*
X197170884Y-79506445D01*
X196922229Y-79640760D01*
X196892334Y-79671333D01*
X196815188Y-79740468D01*
X196710644Y-79787863D01*
X196548191Y-79817540D01*
X196297317Y-79833525D01*
X195927512Y-79839840D01*
X195608366Y-79840667D01*
X194477643Y-79840667D01*
X194499655Y-75924833D01*
X194521667Y-72009000D01*
X195567810Y-71985155D01*
X196005263Y-71976539D01*
X196306701Y-71977629D01*
X196505380Y-71993516D01*
X196634554Y-72029288D01*
X196727478Y-72090035D01*
X196812600Y-72175655D01*
X197080099Y-72357990D01*
X197379864Y-72400548D01*
X197664411Y-72309104D01*
X197886257Y-72089432D01*
X197913262Y-72041804D01*
X197995310Y-71723034D01*
X197914019Y-71424478D01*
X197718068Y-71203327D01*
X197431553Y-71056590D01*
X197146248Y-71075873D01*
G36*
X181779334Y-73487277D02*
G01*
X181251236Y-74047277D01*
X180759877Y-74570370D01*
X180317350Y-75043528D01*
X179935751Y-75453726D01*
X179627177Y-75787936D01*
X179403721Y-76033130D01*
X179277480Y-76176282D01*
X179253445Y-76207733D01*
X179316445Y-76245278D01*
X179508776Y-76272672D01*
X179790506Y-76284540D01*
X179824945Y-76284667D01*
X180424667Y-76284667D01*
X180424667Y-80687333D01*
X188129334Y-80687333D01*
X188129334Y-77978088D01*
X186505828Y-77978088D01*
X186461761Y-78129345D01*
X186366166Y-78215039D01*
X186206957Y-78384460D01*
X186216306Y-78566382D01*
X186356514Y-78727170D01*
X186477130Y-78888912D01*
X186466849Y-79031576D01*
X186341448Y-79106091D01*
X186236109Y-79101640D01*
X186020941Y-79123539D01*
X185903397Y-79263966D01*
X185908591Y-79488425D01*
X185923134Y-79531533D01*
X185942396Y-79735944D01*
X185850022Y-79855437D01*
X185690168Y-79857966D01*
X185574288Y-79784717D01*
X185397319Y-79704318D01*
X185216488Y-79728656D01*
X185097361Y-79840147D01*
X185081334Y-79916928D01*
X185027363Y-80110360D01*
X184901178Y-80182482D01*
X184756373Y-80125326D01*
X184662391Y-79979214D01*
X184519001Y-79773297D01*
X184319842Y-79716975D01*
X184133401Y-79791963D01*
X183926707Y-79882063D01*
X183796918Y-79825534D01*
X183762170Y-79634556D01*
X183773477Y-79550247D01*
X183764749Y-79293743D01*
X183645821Y-79130762D01*
X183442528Y-79091836D01*
X183393919Y-79101651D01*
X183235057Y-79087879D01*
X183168396Y-78980100D01*
X183209554Y-78835337D01*
X183297830Y-78750840D01*
X183448645Y-78572905D01*
X183443529Y-78372394D01*
X183301437Y-78206334D01*
X183179916Y-78057312D01*
X183209767Y-77916186D01*
X183374941Y-77816242D01*
X183501040Y-77792327D01*
X183676755Y-77761299D01*
X183745729Y-77678766D01*
X183747579Y-77490049D01*
X183745010Y-77455575D01*
X183758524Y-77194612D01*
X183851880Y-77082582D01*
X184026529Y-77118323D01*
X184106954Y-77165414D01*
X184342527Y-77253962D01*
X184523657Y-77188494D01*
X184625577Y-76994994D01*
X184726032Y-76829467D01*
X184871417Y-76796872D01*
X185002607Y-76896551D01*
X185045395Y-76999667D01*
X185156767Y-77189150D01*
X185345917Y-77235734D01*
X185564444Y-77149763D01*
X185766393Y-77077606D01*
X185887711Y-77147672D01*
X185906362Y-77345684D01*
X185902361Y-77368725D01*
X185889500Y-77628390D01*
X185984826Y-77768165D01*
X186193716Y-77808667D01*
X186410772Y-77857746D01*
X186505828Y-77978088D01*
X188129334Y-77978088D01*
X188129334Y-76284667D01*
X188722000Y-76284667D01*
X189014132Y-76277959D01*
X189225810Y-76260306D01*
X189314202Y-76235416D01*
X189314667Y-76233378D01*
X189260407Y-76153899D01*
X189113964Y-75980078D01*
X188899849Y-75740279D01*
X188722000Y-75547467D01*
X188372405Y-75173123D01*
X186763441Y-75173123D01*
X186731863Y-75305284D01*
X186584167Y-75368611D01*
X186437235Y-75436369D01*
X186403556Y-75607333D01*
X186368742Y-75810171D01*
X186262064Y-75897156D01*
X186122418Y-75847018D01*
X185961791Y-75794809D01*
X185815527Y-75855654D01*
X185758667Y-75985676D01*
X185705351Y-76095950D01*
X185589663Y-76104636D01*
X185477992Y-76020120D01*
X185444533Y-75946000D01*
X185344337Y-75816506D01*
X185185908Y-75776730D01*
X185050352Y-75844445D01*
X185041286Y-75857635D01*
X184943052Y-75918134D01*
X184844263Y-75850583D01*
X184812666Y-75764832D01*
X184573334Y-75764832D01*
X184499472Y-75896317D01*
X184319334Y-76004750D01*
X184121358Y-76141737D01*
X184065653Y-76324336D01*
X184161993Y-76511045D01*
X184193378Y-76539533D01*
X184267841Y-76671009D01*
X184211016Y-76786735D01*
X184059349Y-76847744D01*
X183915351Y-76836797D01*
X183674764Y-76844537D01*
X183515952Y-76984266D01*
X183472667Y-77169922D01*
X183430656Y-77389928D01*
X183324544Y-77467861D01*
X183184213Y-77392817D01*
X183114352Y-77300667D01*
X182945778Y-77154468D01*
X182743066Y-77161063D01*
X182546926Y-77314785D01*
X182398917Y-77427630D01*
X182253974Y-77445678D01*
X182165008Y-77376890D01*
X182172030Y-77258385D01*
X182159456Y-77099678D01*
X182077808Y-76964365D01*
X181937319Y-76855981D01*
X181777810Y-76875625D01*
X181726576Y-76897488D01*
X181510629Y-76946105D01*
X181397765Y-76872326D01*
X181409882Y-76702357D01*
X181469460Y-76589783D01*
X181562369Y-76357310D01*
X181512448Y-76185411D01*
X181327675Y-76099117D01*
X181194440Y-76026948D01*
X181116994Y-75895042D01*
X181111744Y-75763780D01*
X181195094Y-75693542D01*
X181217064Y-75692000D01*
X181375338Y-75635992D01*
X181480442Y-75555463D01*
X181568296Y-75442740D01*
X181552631Y-75330757D01*
X181481155Y-75211634D01*
X181381588Y-74997783D01*
X181425624Y-74866509D01*
X181619500Y-74808121D01*
X181744194Y-74803000D01*
X181959820Y-74791494D01*
X182059702Y-74729651D01*
X182097168Y-74576479D01*
X182102198Y-74527833D01*
X182175571Y-74316627D01*
X182317547Y-74245362D01*
X182491034Y-74326553D01*
X182541334Y-74379667D01*
X182727900Y-74495483D01*
X182933773Y-74463467D01*
X183074999Y-74335437D01*
X183228569Y-74217402D01*
X183377747Y-74242535D01*
X183466309Y-74392798D01*
X183472667Y-74463025D01*
X183532711Y-74692480D01*
X183697676Y-74795789D01*
X183931056Y-74763434D01*
X184128557Y-74737503D01*
X184219040Y-74831741D01*
X184186942Y-75023803D01*
X184156520Y-75087151D01*
X184071381Y-75326564D01*
X184127403Y-75481067D01*
X184319334Y-75565000D01*
X184517968Y-75653432D01*
X184573334Y-75764832D01*
X184812666Y-75764832D01*
X184785528Y-75691184D01*
X184781830Y-75626347D01*
X184747437Y-75444846D01*
X184613880Y-75371717D01*
X184594500Y-75368611D01*
X184434034Y-75301568D01*
X184428273Y-75167246D01*
X184550405Y-74993225D01*
X184648277Y-74868526D01*
X184627206Y-74797759D01*
X184550405Y-74749518D01*
X184420218Y-74617577D01*
X184435186Y-74486144D01*
X184588571Y-74407608D01*
X184594500Y-74406722D01*
X184742422Y-74337612D01*
X184788658Y-74159719D01*
X184788873Y-74150016D01*
X184816562Y-73929659D01*
X184902627Y-73859067D01*
X185066752Y-73923153D01*
X185076839Y-73929300D01*
X185216567Y-73990846D01*
X185325693Y-73942570D01*
X185423750Y-73829333D01*
X185589334Y-73617667D01*
X185754917Y-73829333D01*
X185884868Y-73968591D01*
X185995610Y-73983673D01*
X186101829Y-73929300D01*
X186270158Y-73859184D01*
X186359490Y-73923027D01*
X186389510Y-74135919D01*
X186389795Y-74150016D01*
X186432782Y-74333038D01*
X186576123Y-74405517D01*
X186584167Y-74406722D01*
X186745145Y-74475224D01*
X186751578Y-74610355D01*
X186645531Y-74763027D01*
X186560541Y-74884640D01*
X186602610Y-74975129D01*
X186645531Y-75012894D01*
X186763441Y-75173123D01*
X188372405Y-75173123D01*
X188129334Y-74912845D01*
X188129334Y-71797333D01*
X186012667Y-71797333D01*
X186010945Y-72686333D01*
X185143973Y-71765045D01*
X184277000Y-70843756D01*
X181779334Y-73487277D01*
G37*
X181779334Y-73487277D02*
X181251236Y-74047277D01*
X180759877Y-74570370D01*
X180317350Y-75043528D01*
X179935751Y-75453726D01*
X179627177Y-75787936D01*
X179403721Y-76033130D01*
X179277480Y-76176282D01*
X179253445Y-76207733D01*
X179316445Y-76245278D01*
X179508776Y-76272672D01*
X179790506Y-76284540D01*
X179824945Y-76284667D01*
X180424667Y-76284667D01*
X180424667Y-80687333D01*
X188129334Y-80687333D01*
X188129334Y-77978088D01*
X186505828Y-77978088D01*
X186461761Y-78129345D01*
X186366166Y-78215039D01*
X186206957Y-78384460D01*
X186216306Y-78566382D01*
X186356514Y-78727170D01*
X186477130Y-78888912D01*
X186466849Y-79031576D01*
X186341448Y-79106091D01*
X186236109Y-79101640D01*
X186020941Y-79123539D01*
X185903397Y-79263966D01*
X185908591Y-79488425D01*
X185923134Y-79531533D01*
X185942396Y-79735944D01*
X185850022Y-79855437D01*
X185690168Y-79857966D01*
X185574288Y-79784717D01*
X185397319Y-79704318D01*
X185216488Y-79728656D01*
X185097361Y-79840147D01*
X185081334Y-79916928D01*
X185027363Y-80110360D01*
X184901178Y-80182482D01*
X184756373Y-80125326D01*
X184662391Y-79979214D01*
X184519001Y-79773297D01*
X184319842Y-79716975D01*
X184133401Y-79791963D01*
X183926707Y-79882063D01*
X183796918Y-79825534D01*
X183762170Y-79634556D01*
X183773477Y-79550247D01*
X183764749Y-79293743D01*
X183645821Y-79130762D01*
X183442528Y-79091836D01*
X183393919Y-79101651D01*
X183235057Y-79087879D01*
X183168396Y-78980100D01*
X183209554Y-78835337D01*
X183297830Y-78750840D01*
X183448645Y-78572905D01*
X183443529Y-78372394D01*
X183301437Y-78206334D01*
X183179916Y-78057312D01*
X183209767Y-77916186D01*
X183374941Y-77816242D01*
X183501040Y-77792327D01*
X183676755Y-77761299D01*
X183745729Y-77678766D01*
X183747579Y-77490049D01*
X183745010Y-77455575D01*
X183758524Y-77194612D01*
X183851880Y-77082582D01*
X184026529Y-77118323D01*
X184106954Y-77165414D01*
X184342527Y-77253962D01*
X184523657Y-77188494D01*
X184625577Y-76994994D01*
X184726032Y-76829467D01*
X184871417Y-76796872D01*
X185002607Y-76896551D01*
X185045395Y-76999667D01*
X185156767Y-77189150D01*
X185345917Y-77235734D01*
X185564444Y-77149763D01*
X185766393Y-77077606D01*
X185887711Y-77147672D01*
X185906362Y-77345684D01*
X185902361Y-77368725D01*
X185889500Y-77628390D01*
X185984826Y-77768165D01*
X186193716Y-77808667D01*
X186410772Y-77857746D01*
X186505828Y-77978088D01*
X188129334Y-77978088D01*
X188129334Y-76284667D01*
X188722000Y-76284667D01*
X189014132Y-76277959D01*
X189225810Y-76260306D01*
X189314202Y-76235416D01*
X189314667Y-76233378D01*
X189260407Y-76153899D01*
X189113964Y-75980078D01*
X188899849Y-75740279D01*
X188722000Y-75547467D01*
X188372405Y-75173123D01*
X186763441Y-75173123D01*
X186731863Y-75305284D01*
X186584167Y-75368611D01*
X186437235Y-75436369D01*
X186403556Y-75607333D01*
X186368742Y-75810171D01*
X186262064Y-75897156D01*
X186122418Y-75847018D01*
X185961791Y-75794809D01*
X185815527Y-75855654D01*
X185758667Y-75985676D01*
X185705351Y-76095950D01*
X185589663Y-76104636D01*
X185477992Y-76020120D01*
X185444533Y-75946000D01*
X185344337Y-75816506D01*
X185185908Y-75776730D01*
X185050352Y-75844445D01*
X185041286Y-75857635D01*
X184943052Y-75918134D01*
X184844263Y-75850583D01*
X184812666Y-75764832D01*
X184573334Y-75764832D01*
X184499472Y-75896317D01*
X184319334Y-76004750D01*
X184121358Y-76141737D01*
X184065653Y-76324336D01*
X184161993Y-76511045D01*
X184193378Y-76539533D01*
X184267841Y-76671009D01*
X184211016Y-76786735D01*
X184059349Y-76847744D01*
X183915351Y-76836797D01*
X183674764Y-76844537D01*
X183515952Y-76984266D01*
X183472667Y-77169922D01*
X183430656Y-77389928D01*
X183324544Y-77467861D01*
X183184213Y-77392817D01*
X183114352Y-77300667D01*
X182945778Y-77154468D01*
X182743066Y-77161063D01*
X182546926Y-77314785D01*
X182398917Y-77427630D01*
X182253974Y-77445678D01*
X182165008Y-77376890D01*
X182172030Y-77258385D01*
X182159456Y-77099678D01*
X182077808Y-76964365D01*
X181937319Y-76855981D01*
X181777810Y-76875625D01*
X181726576Y-76897488D01*
X181510629Y-76946105D01*
X181397765Y-76872326D01*
X181409882Y-76702357D01*
X181469460Y-76589783D01*
X181562369Y-76357310D01*
X181512448Y-76185411D01*
X181327675Y-76099117D01*
X181194440Y-76026948D01*
X181116994Y-75895042D01*
X181111744Y-75763780D01*
X181195094Y-75693542D01*
X181217064Y-75692000D01*
X181375338Y-75635992D01*
X181480442Y-75555463D01*
X181568296Y-75442740D01*
X181552631Y-75330757D01*
X181481155Y-75211634D01*
X181381588Y-74997783D01*
X181425624Y-74866509D01*
X181619500Y-74808121D01*
X181744194Y-74803000D01*
X181959820Y-74791494D01*
X182059702Y-74729651D01*
X182097168Y-74576479D01*
X182102198Y-74527833D01*
X182175571Y-74316627D01*
X182317547Y-74245362D01*
X182491034Y-74326553D01*
X182541334Y-74379667D01*
X182727900Y-74495483D01*
X182933773Y-74463467D01*
X183074999Y-74335437D01*
X183228569Y-74217402D01*
X183377747Y-74242535D01*
X183466309Y-74392798D01*
X183472667Y-74463025D01*
X183532711Y-74692480D01*
X183697676Y-74795789D01*
X183931056Y-74763434D01*
X184128557Y-74737503D01*
X184219040Y-74831741D01*
X184186942Y-75023803D01*
X184156520Y-75087151D01*
X184071381Y-75326564D01*
X184127403Y-75481067D01*
X184319334Y-75565000D01*
X184517968Y-75653432D01*
X184573334Y-75764832D01*
X184812666Y-75764832D01*
X184785528Y-75691184D01*
X184781830Y-75626347D01*
X184747437Y-75444846D01*
X184613880Y-75371717D01*
X184594500Y-75368611D01*
X184434034Y-75301568D01*
X184428273Y-75167246D01*
X184550405Y-74993225D01*
X184648277Y-74868526D01*
X184627206Y-74797759D01*
X184550405Y-74749518D01*
X184420218Y-74617577D01*
X184435186Y-74486144D01*
X184588571Y-74407608D01*
X184594500Y-74406722D01*
X184742422Y-74337612D01*
X184788658Y-74159719D01*
X184788873Y-74150016D01*
X184816562Y-73929659D01*
X184902627Y-73859067D01*
X185066752Y-73923153D01*
X185076839Y-73929300D01*
X185216567Y-73990846D01*
X185325693Y-73942570D01*
X185423750Y-73829333D01*
X185589334Y-73617667D01*
X185754917Y-73829333D01*
X185884868Y-73968591D01*
X185995610Y-73983673D01*
X186101829Y-73929300D01*
X186270158Y-73859184D01*
X186359490Y-73923027D01*
X186389510Y-74135919D01*
X186389795Y-74150016D01*
X186432782Y-74333038D01*
X186576123Y-74405517D01*
X186584167Y-74406722D01*
X186745145Y-74475224D01*
X186751578Y-74610355D01*
X186645531Y-74763027D01*
X186560541Y-74884640D01*
X186602610Y-74975129D01*
X186645531Y-75012894D01*
X186763441Y-75173123D01*
X188372405Y-75173123D01*
X188129334Y-74912845D01*
X188129334Y-71797333D01*
X186012667Y-71797333D01*
X186010945Y-72686333D01*
X185143973Y-71765045D01*
X184277000Y-70843756D01*
X181779334Y-73487277D01*
G36*
X211522350Y-76640955D02*
G01*
X210852403Y-77311418D01*
X210292665Y-77873402D01*
X209833265Y-78337823D01*
X209464333Y-78715596D01*
X209176000Y-79017639D01*
X208958397Y-79254865D01*
X208801652Y-79438192D01*
X208695897Y-79578535D01*
X208631262Y-79686810D01*
X208597876Y-79773932D01*
X208585871Y-79850817D01*
X208584800Y-79889827D01*
X208657289Y-80201605D01*
X208858639Y-80417689D01*
X209164676Y-80514870D01*
X209239076Y-80518000D01*
X209310244Y-80507352D01*
X209399270Y-80468980D01*
X209516676Y-80393237D01*
X209672982Y-80270481D01*
X209878711Y-80091067D01*
X210144384Y-79845349D01*
X210480521Y-79523684D01*
X210897646Y-79116427D01*
X211406279Y-78613934D01*
X212016941Y-78006560D01*
X212447381Y-77577105D01*
X215392704Y-74636211D01*
X214926302Y-74169808D01*
X214459899Y-73703406D01*
X211522350Y-76640955D01*
G37*
X211522350Y-76640955D02*
X210852403Y-77311418D01*
X210292665Y-77873402D01*
X209833265Y-78337823D01*
X209464333Y-78715596D01*
X209176000Y-79017639D01*
X208958397Y-79254865D01*
X208801652Y-79438192D01*
X208695897Y-79578535D01*
X208631262Y-79686810D01*
X208597876Y-79773932D01*
X208585871Y-79850817D01*
X208584800Y-79889827D01*
X208657289Y-80201605D01*
X208858639Y-80417689D01*
X209164676Y-80514870D01*
X209239076Y-80518000D01*
X209310244Y-80507352D01*
X209399270Y-80468980D01*
X209516676Y-80393237D01*
X209672982Y-80270481D01*
X209878711Y-80091067D01*
X210144384Y-79845349D01*
X210480521Y-79523684D01*
X210897646Y-79116427D01*
X211406279Y-78613934D01*
X212016941Y-78006560D01*
X212447381Y-77577105D01*
X215392704Y-74636211D01*
X214926302Y-74169808D01*
X214459899Y-73703406D01*
X211522350Y-76640955D01*
G36*
X195490966Y-72349925D02*
G01*
X195234988Y-72562558D01*
X195115267Y-72838368D01*
X195135568Y-73135088D01*
X195299655Y-73410446D01*
X195389267Y-73492006D01*
X195675043Y-73638606D01*
X195959731Y-73619663D01*
X196241893Y-73448333D01*
X196493445Y-73236667D01*
X200998667Y-73236667D01*
X200998667Y-75721211D01*
X200998188Y-76436120D01*
X200995929Y-77000878D01*
X200990658Y-77434668D01*
X200981145Y-77756671D01*
X200966158Y-77986068D01*
X200944466Y-78142043D01*
X200914838Y-78243776D01*
X200876041Y-78310449D01*
X200829334Y-78359000D01*
X200683242Y-78593975D01*
X200655610Y-78882654D01*
X200742899Y-79161310D01*
X200883085Y-79326521D01*
X201177935Y-79471064D01*
X201492375Y-79485908D01*
X201686064Y-79416765D01*
X201871478Y-79220787D01*
X201968312Y-78940299D01*
X201955844Y-78645932D01*
X201932520Y-78576750D01*
X201824675Y-78387832D01*
X201710582Y-78283074D01*
X201676317Y-78245362D01*
X201649056Y-78150432D01*
X201628063Y-77981828D01*
X201612603Y-77723097D01*
X201601939Y-77357786D01*
X201595336Y-76869439D01*
X201592058Y-76241604D01*
X201591334Y-75616915D01*
X201589722Y-74962479D01*
X201585158Y-74359136D01*
X201578047Y-73828675D01*
X201568797Y-73392881D01*
X201557814Y-73073540D01*
X201545504Y-72892439D01*
X201539942Y-72862591D01*
X201508825Y-72823814D01*
X201436718Y-72793208D01*
X201305783Y-72769837D01*
X201098180Y-72752763D01*
X200796073Y-72741049D01*
X200381621Y-72733758D01*
X199836987Y-72729952D01*
X199144333Y-72728695D01*
X198990961Y-72728667D01*
X196493371Y-72728667D01*
X196334358Y-72526514D01*
X196076188Y-72316045D01*
X195771075Y-72264340D01*
X195490966Y-72349925D01*
G37*
X195490966Y-72349925D02*
X195234988Y-72562558D01*
X195115267Y-72838368D01*
X195135568Y-73135088D01*
X195299655Y-73410446D01*
X195389267Y-73492006D01*
X195675043Y-73638606D01*
X195959731Y-73619663D01*
X196241893Y-73448333D01*
X196493445Y-73236667D01*
X200998667Y-73236667D01*
X200998667Y-75721211D01*
X200998188Y-76436120D01*
X200995929Y-77000878D01*
X200990658Y-77434668D01*
X200981145Y-77756671D01*
X200966158Y-77986068D01*
X200944466Y-78142043D01*
X200914838Y-78243776D01*
X200876041Y-78310449D01*
X200829334Y-78359000D01*
X200683242Y-78593975D01*
X200655610Y-78882654D01*
X200742899Y-79161310D01*
X200883085Y-79326521D01*
X201177935Y-79471064D01*
X201492375Y-79485908D01*
X201686064Y-79416765D01*
X201871478Y-79220787D01*
X201968312Y-78940299D01*
X201955844Y-78645932D01*
X201932520Y-78576750D01*
X201824675Y-78387832D01*
X201710582Y-78283074D01*
X201676317Y-78245362D01*
X201649056Y-78150432D01*
X201628063Y-77981828D01*
X201612603Y-77723097D01*
X201601939Y-77357786D01*
X201595336Y-76869439D01*
X201592058Y-76241604D01*
X201591334Y-75616915D01*
X201589722Y-74962479D01*
X201585158Y-74359136D01*
X201578047Y-73828675D01*
X201568797Y-73392881D01*
X201557814Y-73073540D01*
X201545504Y-72892439D01*
X201539942Y-72862591D01*
X201508825Y-72823814D01*
X201436718Y-72793208D01*
X201305783Y-72769837D01*
X201098180Y-72752763D01*
X200796073Y-72741049D01*
X200381621Y-72733758D01*
X199836987Y-72729952D01*
X199144333Y-72728695D01*
X198990961Y-72728667D01*
X196493371Y-72728667D01*
X196334358Y-72526514D01*
X196076188Y-72316045D01*
X195771075Y-72264340D01*
X195490966Y-72349925D01*
G36*
X199675892Y-75940583D02*
G01*
X199513152Y-76069151D01*
X199337654Y-76348647D01*
X199309730Y-76657061D01*
X199429196Y-76947322D01*
X199517000Y-77046667D01*
X199625153Y-77165077D01*
X199688737Y-77299332D01*
X199719301Y-77496433D01*
X199728395Y-77803380D01*
X199728667Y-77908092D01*
X199728667Y-78570667D01*
X198111056Y-78570667D01*
X197549888Y-78570068D01*
X197132152Y-78566317D01*
X196831949Y-78556480D01*
X196623376Y-78537625D01*
X196480533Y-78506819D01*
X196377519Y-78461127D01*
X196288434Y-78397619D01*
X196241893Y-78359000D01*
X195929069Y-78182162D01*
X195617246Y-78165118D01*
X195331181Y-78307967D01*
X195279819Y-78355151D01*
X195107339Y-78618691D01*
X195075225Y-78888763D01*
X195157920Y-79138090D01*
X195329864Y-79339397D01*
X195565500Y-79465409D01*
X195839269Y-79488848D01*
X196125614Y-79382439D01*
X196195770Y-79332667D01*
X196279367Y-79275526D01*
X196380885Y-79232860D01*
X196524612Y-79202575D01*
X196734835Y-79182578D01*
X197035841Y-79170775D01*
X197451916Y-79165073D01*
X198007346Y-79163377D01*
X198160088Y-79163333D01*
X198763247Y-79159050D01*
X199277314Y-79146830D01*
X199681655Y-79127620D01*
X199955636Y-79102364D01*
X200072900Y-79075688D01*
X200148159Y-79017776D01*
X200194698Y-78921999D01*
X196082913Y-78921999D01*
X196027591Y-79075425D01*
X195982167Y-79108826D01*
X195740020Y-79137852D01*
X195526604Y-79046245D01*
X195462080Y-78972833D01*
X195419412Y-78782927D01*
X195500279Y-78618827D01*
X195659194Y-78516596D01*
X195850668Y-78512301D01*
X195965068Y-78574042D01*
X196061244Y-78728995D01*
X196082913Y-78921999D01*
X200194698Y-78921999D01*
X200196284Y-78918737D01*
X200223148Y-78744854D01*
X200234622Y-78462412D01*
X200236667Y-78135410D01*
X200239982Y-77739699D01*
X200255175Y-77472207D01*
X200290119Y-77291865D01*
X200352686Y-77157605D01*
X200448334Y-77031226D01*
X200626031Y-76718410D01*
X200640707Y-76453982D01*
X200288882Y-76453982D01*
X200285550Y-76669715D01*
X200220519Y-76820276D01*
X200091600Y-76867422D01*
X199958595Y-76861314D01*
X199755027Y-76810742D01*
X199668269Y-76688789D01*
X199658668Y-76639840D01*
X199689694Y-76404225D01*
X199829705Y-76242160D01*
X199982667Y-76200000D01*
X200180441Y-76271480D01*
X200288882Y-76453982D01*
X200640707Y-76453982D01*
X200642920Y-76414128D01*
X200503446Y-76144132D01*
X200263400Y-75959830D01*
X199954715Y-75867356D01*
X199675892Y-75940583D01*
G37*
X199675892Y-75940583D02*
X199513152Y-76069151D01*
X199337654Y-76348647D01*
X199309730Y-76657061D01*
X199429196Y-76947322D01*
X199517000Y-77046667D01*
X199625153Y-77165077D01*
X199688737Y-77299332D01*
X199719301Y-77496433D01*
X199728395Y-77803380D01*
X199728667Y-77908092D01*
X199728667Y-78570667D01*
X198111056Y-78570667D01*
X197549888Y-78570068D01*
X197132152Y-78566317D01*
X196831949Y-78556480D01*
X196623376Y-78537625D01*
X196480533Y-78506819D01*
X196377519Y-78461127D01*
X196288434Y-78397619D01*
X196241893Y-78359000D01*
X195929069Y-78182162D01*
X195617246Y-78165118D01*
X195331181Y-78307967D01*
X195279819Y-78355151D01*
X195107339Y-78618691D01*
X195075225Y-78888763D01*
X195157920Y-79138090D01*
X195329864Y-79339397D01*
X195565500Y-79465409D01*
X195839269Y-79488848D01*
X196125614Y-79382439D01*
X196195770Y-79332667D01*
X196279367Y-79275526D01*
X196380885Y-79232860D01*
X196524612Y-79202575D01*
X196734835Y-79182578D01*
X197035841Y-79170775D01*
X197451916Y-79165073D01*
X198007346Y-79163377D01*
X198160088Y-79163333D01*
X198763247Y-79159050D01*
X199277314Y-79146830D01*
X199681655Y-79127620D01*
X199955636Y-79102364D01*
X200072900Y-79075688D01*
X200148159Y-79017776D01*
X200194698Y-78921999D01*
X196082913Y-78921999D01*
X196027591Y-79075425D01*
X195982167Y-79108826D01*
X195740020Y-79137852D01*
X195526604Y-79046245D01*
X195462080Y-78972833D01*
X195419412Y-78782927D01*
X195500279Y-78618827D01*
X195659194Y-78516596D01*
X195850668Y-78512301D01*
X195965068Y-78574042D01*
X196061244Y-78728995D01*
X196082913Y-78921999D01*
X200194698Y-78921999D01*
X200196284Y-78918737D01*
X200223148Y-78744854D01*
X200234622Y-78462412D01*
X200236667Y-78135410D01*
X200239982Y-77739699D01*
X200255175Y-77472207D01*
X200290119Y-77291865D01*
X200352686Y-77157605D01*
X200448334Y-77031226D01*
X200626031Y-76718410D01*
X200640707Y-76453982D01*
X200288882Y-76453982D01*
X200285550Y-76669715D01*
X200220519Y-76820276D01*
X200091600Y-76867422D01*
X199958595Y-76861314D01*
X199755027Y-76810742D01*
X199668269Y-76688789D01*
X199658668Y-76639840D01*
X199689694Y-76404225D01*
X199829705Y-76242160D01*
X199982667Y-76200000D01*
X200180441Y-76271480D01*
X200288882Y-76453982D01*
X200640707Y-76453982D01*
X200642920Y-76414128D01*
X200503446Y-76144132D01*
X200263400Y-75959830D01*
X199954715Y-75867356D01*
X199675892Y-75940583D01*
G36*
X225890667Y-72094920D02*
G01*
X225489234Y-72101343D01*
X225203169Y-72125738D01*
X224978701Y-72178025D01*
X224762057Y-72268123D01*
X224653891Y-72323070D01*
X224221025Y-72613892D01*
X223825594Y-72995669D01*
X223508736Y-73421599D01*
X223311590Y-73844879D01*
X223309171Y-73852926D01*
X223206482Y-74332254D01*
X223192628Y-74811325D01*
X223273092Y-75319403D01*
X223453357Y-75885748D01*
X223738903Y-76539624D01*
X223857676Y-76780598D01*
X224038665Y-77184600D01*
X224203983Y-77631329D01*
X224321013Y-78031616D01*
X224330424Y-78073036D01*
X224430808Y-78507079D01*
X224521534Y-78802232D01*
X224621954Y-78986435D01*
X224751423Y-79087627D01*
X224929293Y-79133748D01*
X225074390Y-79147070D01*
X225480304Y-79173141D01*
X225452652Y-78004070D01*
X225425000Y-76835000D01*
X225012216Y-76003184D01*
X224811383Y-75577488D01*
X224698795Y-75286025D01*
X224671469Y-75120369D01*
X224686873Y-75083928D01*
X224782771Y-75068737D01*
X224878292Y-75196077D01*
X224980609Y-75378978D01*
X225049956Y-75426927D01*
X225129686Y-75356128D01*
X225169183Y-75304819D01*
X225261061Y-75196960D01*
X225291913Y-75224711D01*
X225295308Y-75289833D01*
X225343106Y-75415480D01*
X225394500Y-75438000D01*
X225517895Y-75376536D01*
X225600120Y-75289833D01*
X225688881Y-75187689D01*
X225740001Y-75225553D01*
X225766679Y-75289833D01*
X225864685Y-75409724D01*
X225983702Y-75429941D01*
X226056746Y-75345650D01*
X226060000Y-75311000D01*
X226105718Y-75198328D01*
X226144667Y-75184000D01*
X226219782Y-75252576D01*
X226229334Y-75311000D01*
X226297107Y-75423248D01*
X226356334Y-75438000D01*
X226468582Y-75370227D01*
X226483334Y-75311000D01*
X226529051Y-75198328D01*
X226568000Y-75184000D01*
X226643115Y-75252576D01*
X226652667Y-75311000D01*
X226689078Y-75427272D01*
X226769688Y-75414930D01*
X226851563Y-75290554D01*
X226871899Y-75226333D01*
X226951416Y-75076428D01*
X227059769Y-75015190D01*
X227143890Y-75058657D01*
X227160667Y-75139059D01*
X227123925Y-75289110D01*
X227032260Y-75511357D01*
X226996812Y-75583559D01*
X226757852Y-76062303D01*
X226588697Y-76444605D01*
X226475666Y-76781342D01*
X226405077Y-77123396D01*
X226363250Y-77521645D01*
X226336505Y-78026970D01*
X226335908Y-78041500D01*
X226289987Y-79163333D01*
X226672627Y-79163333D01*
X226958548Y-79134532D01*
X227140694Y-79057161D01*
X227157307Y-79040382D01*
X227223578Y-78900123D01*
X227302699Y-78645684D01*
X227378506Y-78329718D01*
X227384718Y-78299549D01*
X227476397Y-77958027D01*
X227625502Y-77523730D01*
X227811148Y-77054021D01*
X227964135Y-76708000D01*
X228224100Y-76128977D01*
X228407530Y-75661548D01*
X228523824Y-75271399D01*
X228582384Y-74924218D01*
X228592609Y-74585690D01*
X228585022Y-74441556D01*
X228460013Y-73842437D01*
X228187123Y-73281255D01*
X227787644Y-72788533D01*
X227282867Y-72394791D01*
X227079400Y-72283118D01*
X226854436Y-72188055D01*
X226617850Y-72130490D01*
X226317618Y-72102186D01*
X225901714Y-72094906D01*
X225890667Y-72094920D01*
G37*
X225890667Y-72094920D02*
X225489234Y-72101343D01*
X225203169Y-72125738D01*
X224978701Y-72178025D01*
X224762057Y-72268123D01*
X224653891Y-72323070D01*
X224221025Y-72613892D01*
X223825594Y-72995669D01*
X223508736Y-73421599D01*
X223311590Y-73844879D01*
X223309171Y-73852926D01*
X223206482Y-74332254D01*
X223192628Y-74811325D01*
X223273092Y-75319403D01*
X223453357Y-75885748D01*
X223738903Y-76539624D01*
X223857676Y-76780598D01*
X224038665Y-77184600D01*
X224203983Y-77631329D01*
X224321013Y-78031616D01*
X224330424Y-78073036D01*
X224430808Y-78507079D01*
X224521534Y-78802232D01*
X224621954Y-78986435D01*
X224751423Y-79087627D01*
X224929293Y-79133748D01*
X225074390Y-79147070D01*
X225480304Y-79173141D01*
X225452652Y-78004070D01*
X225425000Y-76835000D01*
X225012216Y-76003184D01*
X224811383Y-75577488D01*
X224698795Y-75286025D01*
X224671469Y-75120369D01*
X224686873Y-75083928D01*
X224782771Y-75068737D01*
X224878292Y-75196077D01*
X224980609Y-75378978D01*
X225049956Y-75426927D01*
X225129686Y-75356128D01*
X225169183Y-75304819D01*
X225261061Y-75196960D01*
X225291913Y-75224711D01*
X225295308Y-75289833D01*
X225343106Y-75415480D01*
X225394500Y-75438000D01*
X225517895Y-75376536D01*
X225600120Y-75289833D01*
X225688881Y-75187689D01*
X225740001Y-75225553D01*
X225766679Y-75289833D01*
X225864685Y-75409724D01*
X225983702Y-75429941D01*
X226056746Y-75345650D01*
X226060000Y-75311000D01*
X226105718Y-75198328D01*
X226144667Y-75184000D01*
X226219782Y-75252576D01*
X226229334Y-75311000D01*
X226297107Y-75423248D01*
X226356334Y-75438000D01*
X226468582Y-75370227D01*
X226483334Y-75311000D01*
X226529051Y-75198328D01*
X226568000Y-75184000D01*
X226643115Y-75252576D01*
X226652667Y-75311000D01*
X226689078Y-75427272D01*
X226769688Y-75414930D01*
X226851563Y-75290554D01*
X226871899Y-75226333D01*
X226951416Y-75076428D01*
X227059769Y-75015190D01*
X227143890Y-75058657D01*
X227160667Y-75139059D01*
X227123925Y-75289110D01*
X227032260Y-75511357D01*
X226996812Y-75583559D01*
X226757852Y-76062303D01*
X226588697Y-76444605D01*
X226475666Y-76781342D01*
X226405077Y-77123396D01*
X226363250Y-77521645D01*
X226336505Y-78026970D01*
X226335908Y-78041500D01*
X226289987Y-79163333D01*
X226672627Y-79163333D01*
X226958548Y-79134532D01*
X227140694Y-79057161D01*
X227157307Y-79040382D01*
X227223578Y-78900123D01*
X227302699Y-78645684D01*
X227378506Y-78329718D01*
X227384718Y-78299549D01*
X227476397Y-77958027D01*
X227625502Y-77523730D01*
X227811148Y-77054021D01*
X227964135Y-76708000D01*
X228224100Y-76128977D01*
X228407530Y-75661548D01*
X228523824Y-75271399D01*
X228582384Y-74924218D01*
X228592609Y-74585690D01*
X228585022Y-74441556D01*
X228460013Y-73842437D01*
X228187123Y-73281255D01*
X227787644Y-72788533D01*
X227282867Y-72394791D01*
X227079400Y-72283118D01*
X226854436Y-72188055D01*
X226617850Y-72130490D01*
X226317618Y-72102186D01*
X225901714Y-72094906D01*
X225890667Y-72094920D01*
G36*
X225462366Y-75590756D02*
G01*
X225221985Y-75600285D01*
X225094242Y-75617147D01*
X225086254Y-75621524D01*
X225097118Y-75714675D01*
X225167774Y-75919256D01*
X225283761Y-76194509D01*
X225309676Y-76251315D01*
X225419370Y-76499239D01*
X225496097Y-76713659D01*
X225547179Y-76936145D01*
X225579939Y-77208266D01*
X225601699Y-77571592D01*
X225617543Y-77999167D01*
X225655883Y-79163333D01*
X226128429Y-79163333D01*
X226163763Y-77999167D01*
X226180392Y-77523697D01*
X226201564Y-77176360D01*
X226234581Y-76915977D01*
X226286747Y-76701370D01*
X226365363Y-76491359D01*
X226473198Y-76254371D01*
X226599478Y-75972989D01*
X226684544Y-75756063D01*
X226713027Y-75643510D01*
X226710771Y-75637214D01*
X226611371Y-75616886D01*
X226389886Y-75601623D01*
X226093260Y-75591878D01*
X225768439Y-75588104D01*
X225462366Y-75590756D01*
G37*
X225462366Y-75590756D02*
X225221985Y-75600285D01*
X225094242Y-75617147D01*
X225086254Y-75621524D01*
X225097118Y-75714675D01*
X225167774Y-75919256D01*
X225283761Y-76194509D01*
X225309676Y-76251315D01*
X225419370Y-76499239D01*
X225496097Y-76713659D01*
X225547179Y-76936145D01*
X225579939Y-77208266D01*
X225601699Y-77571592D01*
X225617543Y-77999167D01*
X225655883Y-79163333D01*
X226128429Y-79163333D01*
X226163763Y-77999167D01*
X226180392Y-77523697D01*
X226201564Y-77176360D01*
X226234581Y-76915977D01*
X226286747Y-76701370D01*
X226365363Y-76491359D01*
X226473198Y-76254371D01*
X226599478Y-75972989D01*
X226684544Y-75756063D01*
X226713027Y-75643510D01*
X226710771Y-75637214D01*
X226611371Y-75616886D01*
X226389886Y-75601623D01*
X226093260Y-75591878D01*
X225768439Y-75588104D01*
X225462366Y-75590756D01*
G36*
X196344635Y-74838818D02*
G01*
X196295819Y-74883818D01*
X196131391Y-75148905D01*
X196104566Y-75437917D01*
X196198005Y-75708508D01*
X196394374Y-75918328D01*
X196676333Y-76025030D01*
X196765334Y-76030667D01*
X197063574Y-75950669D01*
X197238697Y-75819000D01*
X197391556Y-75694686D01*
X197570041Y-75630529D01*
X197835262Y-75608460D01*
X197954516Y-75607333D01*
X198458667Y-75607333D01*
X198458667Y-76296124D01*
X198453862Y-76646180D01*
X198432210Y-76872384D01*
X198382859Y-77020111D01*
X198294955Y-77134736D01*
X198247000Y-77181082D01*
X198072008Y-77443990D01*
X198036604Y-77744003D01*
X198141668Y-78027814D01*
X198231291Y-78132575D01*
X198503982Y-78287123D01*
X198814183Y-78312211D01*
X199101109Y-78208579D01*
X199205909Y-78120710D01*
X199363954Y-77843345D01*
X199377747Y-77537577D01*
X199248679Y-77256401D01*
X199181343Y-77183870D01*
X199088668Y-77086050D01*
X199026941Y-76973483D01*
X198988588Y-76809800D01*
X198966033Y-76558631D01*
X198951700Y-76183607D01*
X198948509Y-76066080D01*
X198924334Y-75141667D01*
X198212565Y-75116861D01*
X197842851Y-75097339D01*
X197594541Y-75062135D01*
X197419753Y-74999625D01*
X197270608Y-74898183D01*
X197253569Y-74884028D01*
X196942478Y-74709674D01*
X196630637Y-74694602D01*
X196344635Y-74838818D01*
G37*
X196344635Y-74838818D02*
X196295819Y-74883818D01*
X196131391Y-75148905D01*
X196104566Y-75437917D01*
X196198005Y-75708508D01*
X196394374Y-75918328D01*
X196676333Y-76025030D01*
X196765334Y-76030667D01*
X197063574Y-75950669D01*
X197238697Y-75819000D01*
X197391556Y-75694686D01*
X197570041Y-75630529D01*
X197835262Y-75608460D01*
X197954516Y-75607333D01*
X198458667Y-75607333D01*
X198458667Y-76296124D01*
X198453862Y-76646180D01*
X198432210Y-76872384D01*
X198382859Y-77020111D01*
X198294955Y-77134736D01*
X198247000Y-77181082D01*
X198072008Y-77443990D01*
X198036604Y-77744003D01*
X198141668Y-78027814D01*
X198231291Y-78132575D01*
X198503982Y-78287123D01*
X198814183Y-78312211D01*
X199101109Y-78208579D01*
X199205909Y-78120710D01*
X199363954Y-77843345D01*
X199377747Y-77537577D01*
X199248679Y-77256401D01*
X199181343Y-77183870D01*
X199088668Y-77086050D01*
X199026941Y-76973483D01*
X198988588Y-76809800D01*
X198966033Y-76558631D01*
X198951700Y-76183607D01*
X198948509Y-76066080D01*
X198924334Y-75141667D01*
X198212565Y-75116861D01*
X197842851Y-75097339D01*
X197594541Y-75062135D01*
X197419753Y-74999625D01*
X197270608Y-74898183D01*
X197253569Y-74884028D01*
X196942478Y-74709674D01*
X196630637Y-74694602D01*
X196344635Y-74838818D01*
G36*
X198654040Y-71118870D02*
G01*
X198453117Y-71290081D01*
X198327609Y-71525919D01*
X198304441Y-71800985D01*
X198410542Y-72089879D01*
X198464812Y-72166915D01*
X198704235Y-72348699D01*
X198998034Y-72398998D01*
X199293151Y-72317212D01*
X199474667Y-72178333D01*
X199559080Y-72095326D01*
X199650049Y-72037458D01*
X199777795Y-72000200D01*
X199972538Y-71979018D01*
X200264499Y-71969384D01*
X200683900Y-71966765D01*
X200886426Y-71966667D01*
X202099334Y-71966667D01*
X202099334Y-74353043D01*
X202098714Y-75053939D01*
X202096014Y-75605280D01*
X202089975Y-76026839D01*
X202079339Y-76338393D01*
X202062846Y-76559716D01*
X202039238Y-76710585D01*
X202007254Y-76810773D01*
X201965638Y-76880057D01*
X201936277Y-76914210D01*
X201762493Y-77196391D01*
X201726645Y-77485633D01*
X201807493Y-77749408D01*
X201983797Y-77955187D01*
X202234318Y-78070443D01*
X202537815Y-78062648D01*
X202659587Y-78021935D01*
X202903941Y-77838986D01*
X203027087Y-77572754D01*
X203024067Y-77418135D01*
X202739579Y-77418135D01*
X202702624Y-77534588D01*
X202607334Y-77639333D01*
X202464104Y-77758885D01*
X202347350Y-77759896D01*
X202241294Y-77698923D01*
X202091005Y-77559481D01*
X202031605Y-77448994D01*
X202071447Y-77282737D01*
X202208142Y-77131729D01*
X202376685Y-77060976D01*
X202416995Y-77063604D01*
X202558724Y-77149216D01*
X202666924Y-77273294D01*
X202739579Y-77418135D01*
X203024067Y-77418135D01*
X203021092Y-77265825D01*
X202878025Y-76960784D01*
X202861334Y-76938897D01*
X202812976Y-76869637D01*
X202774803Y-76785806D01*
X202745615Y-76667952D01*
X202724212Y-76496621D01*
X202709396Y-76252362D01*
X202699966Y-75915721D01*
X202694723Y-75467246D01*
X202692468Y-74887484D01*
X202692000Y-74192745D01*
X202689933Y-73404634D01*
X202683420Y-72773749D01*
X202671997Y-72288028D01*
X202655197Y-71935412D01*
X202632556Y-71703839D01*
X202629276Y-71689946D01*
X199283473Y-71689946D01*
X199269502Y-71843906D01*
X199192839Y-72004550D01*
X199040425Y-72039877D01*
X198993420Y-72035505D01*
X198790140Y-71961752D01*
X198679307Y-71860833D01*
X198637922Y-71674293D01*
X198718685Y-71513382D01*
X198874528Y-71410087D01*
X199058385Y-71396400D01*
X199216364Y-71495815D01*
X199283473Y-71689946D01*
X202629276Y-71689946D01*
X202603607Y-71581249D01*
X202590400Y-71560266D01*
X202477991Y-71517561D01*
X202231726Y-71486959D01*
X201841081Y-71467755D01*
X201295529Y-71459248D01*
X201070249Y-71458667D01*
X200549423Y-71457903D01*
X200170407Y-71453231D01*
X199905679Y-71441075D01*
X199727716Y-71417864D01*
X199608995Y-71380023D01*
X199521993Y-71323978D01*
X199440031Y-71247000D01*
X199174423Y-71071930D01*
X198903451Y-71037687D01*
X198654040Y-71118870D01*
G37*
X198654040Y-71118870D02*
X198453117Y-71290081D01*
X198327609Y-71525919D01*
X198304441Y-71800985D01*
X198410542Y-72089879D01*
X198464812Y-72166915D01*
X198704235Y-72348699D01*
X198998034Y-72398998D01*
X199293151Y-72317212D01*
X199474667Y-72178333D01*
X199559080Y-72095326D01*
X199650049Y-72037458D01*
X199777795Y-72000200D01*
X199972538Y-71979018D01*
X200264499Y-71969384D01*
X200683900Y-71966765D01*
X200886426Y-71966667D01*
X202099334Y-71966667D01*
X202099334Y-74353043D01*
X202098714Y-75053939D01*
X202096014Y-75605280D01*
X202089975Y-76026839D01*
X202079339Y-76338393D01*
X202062846Y-76559716D01*
X202039238Y-76710585D01*
X202007254Y-76810773D01*
X201965638Y-76880057D01*
X201936277Y-76914210D01*
X201762493Y-77196391D01*
X201726645Y-77485633D01*
X201807493Y-77749408D01*
X201983797Y-77955187D01*
X202234318Y-78070443D01*
X202537815Y-78062648D01*
X202659587Y-78021935D01*
X202903941Y-77838986D01*
X203027087Y-77572754D01*
X203024067Y-77418135D01*
X202739579Y-77418135D01*
X202702624Y-77534588D01*
X202607334Y-77639333D01*
X202464104Y-77758885D01*
X202347350Y-77759896D01*
X202241294Y-77698923D01*
X202091005Y-77559481D01*
X202031605Y-77448994D01*
X202071447Y-77282737D01*
X202208142Y-77131729D01*
X202376685Y-77060976D01*
X202416995Y-77063604D01*
X202558724Y-77149216D01*
X202666924Y-77273294D01*
X202739579Y-77418135D01*
X203024067Y-77418135D01*
X203021092Y-77265825D01*
X202878025Y-76960784D01*
X202861334Y-76938897D01*
X202812976Y-76869637D01*
X202774803Y-76785806D01*
X202745615Y-76667952D01*
X202724212Y-76496621D01*
X202709396Y-76252362D01*
X202699966Y-75915721D01*
X202694723Y-75467246D01*
X202692468Y-74887484D01*
X202692000Y-74192745D01*
X202689933Y-73404634D01*
X202683420Y-72773749D01*
X202671997Y-72288028D01*
X202655197Y-71935412D01*
X202632556Y-71703839D01*
X202629276Y-71689946D01*
X199283473Y-71689946D01*
X199269502Y-71843906D01*
X199192839Y-72004550D01*
X199040425Y-72039877D01*
X198993420Y-72035505D01*
X198790140Y-71961752D01*
X198679307Y-71860833D01*
X198637922Y-71674293D01*
X198718685Y-71513382D01*
X198874528Y-71410087D01*
X199058385Y-71396400D01*
X199216364Y-71495815D01*
X199283473Y-71689946D01*
X202629276Y-71689946D01*
X202603607Y-71581249D01*
X202590400Y-71560266D01*
X202477991Y-71517561D01*
X202231726Y-71486959D01*
X201841081Y-71467755D01*
X201295529Y-71459248D01*
X201070249Y-71458667D01*
X200549423Y-71457903D01*
X200170407Y-71453231D01*
X199905679Y-71441075D01*
X199727716Y-71417864D01*
X199608995Y-71380023D01*
X199521993Y-71323978D01*
X199440031Y-71247000D01*
X199174423Y-71071930D01*
X198903451Y-71037687D01*
X198654040Y-71118870D01*
G36*
X199476482Y-73731136D02*
G01*
X199405441Y-73787000D01*
X199318728Y-73856846D01*
X199231109Y-73909357D01*
X199118474Y-73947025D01*
X198956714Y-73972343D01*
X198721720Y-73987803D01*
X198389382Y-73995900D01*
X197935591Y-73999124D01*
X197345778Y-73999963D01*
X196804813Y-74003435D01*
X196318268Y-74012406D01*
X195912659Y-74025911D01*
X195614500Y-74042986D01*
X195450305Y-74062666D01*
X195429911Y-74069648D01*
X195390606Y-74136233D01*
X195363069Y-74290487D01*
X195346368Y-74550795D01*
X195339573Y-74935538D01*
X195341751Y-75463098D01*
X195345244Y-75740519D01*
X195368334Y-77343000D01*
X195913077Y-77368611D01*
X196236988Y-77395317D01*
X196446620Y-77449423D01*
X196596727Y-77548232D01*
X196649868Y-77601444D01*
X196914261Y-77776142D01*
X197215792Y-77805885D01*
X197504390Y-77690870D01*
X197611353Y-77597689D01*
X197766565Y-77344239D01*
X197806237Y-77147768D01*
X197443436Y-77147768D01*
X197428061Y-77337041D01*
X197386223Y-77413555D01*
X197224724Y-77472838D01*
X197022651Y-77437547D01*
X196865859Y-77325759D01*
X196850000Y-77300667D01*
X196798405Y-77073052D01*
X196880982Y-76898727D01*
X197063683Y-76811580D01*
X197308742Y-76844058D01*
X197399840Y-76955339D01*
X197443436Y-77147768D01*
X197806237Y-77147768D01*
X197809556Y-77131333D01*
X197738939Y-76828893D01*
X197555155Y-76606710D01*
X197300304Y-76482016D01*
X197016483Y-76472045D01*
X196745792Y-76594029D01*
X196668387Y-76664204D01*
X196424586Y-76832611D01*
X196151500Y-76875870D01*
X195834000Y-76877333D01*
X195834000Y-74591333D01*
X197527334Y-74591333D01*
X198106728Y-74592355D01*
X198540914Y-74596882D01*
X198854013Y-74607107D01*
X199070144Y-74625224D01*
X199213428Y-74653423D01*
X199307985Y-74693899D01*
X199377935Y-74748845D01*
X199390000Y-74760667D01*
X199650014Y-74914188D01*
X199947448Y-74934007D01*
X200228416Y-74829028D01*
X200439028Y-74608153D01*
X200451465Y-74585278D01*
X200557626Y-74313360D01*
X200551915Y-74252487D01*
X200188423Y-74252487D01*
X200134249Y-74433850D01*
X199991679Y-74562575D01*
X199855667Y-74591333D01*
X199666449Y-74538230D01*
X199574612Y-74452308D01*
X199523256Y-74226391D01*
X199605324Y-74042205D01*
X199784914Y-73943016D01*
X199985453Y-73957217D01*
X200142668Y-74074828D01*
X200188423Y-74252487D01*
X200551915Y-74252487D01*
X200537433Y-74098131D01*
X200380813Y-73877467D01*
X200327847Y-73822820D01*
X200048716Y-73624269D01*
X199768912Y-73593862D01*
X199476482Y-73731136D01*
G37*
X199476482Y-73731136D02*
X199405441Y-73787000D01*
X199318728Y-73856846D01*
X199231109Y-73909357D01*
X199118474Y-73947025D01*
X198956714Y-73972343D01*
X198721720Y-73987803D01*
X198389382Y-73995900D01*
X197935591Y-73999124D01*
X197345778Y-73999963D01*
X196804813Y-74003435D01*
X196318268Y-74012406D01*
X195912659Y-74025911D01*
X195614500Y-74042986D01*
X195450305Y-74062666D01*
X195429911Y-74069648D01*
X195390606Y-74136233D01*
X195363069Y-74290487D01*
X195346368Y-74550795D01*
X195339573Y-74935538D01*
X195341751Y-75463098D01*
X195345244Y-75740519D01*
X195368334Y-77343000D01*
X195913077Y-77368611D01*
X196236988Y-77395317D01*
X196446620Y-77449423D01*
X196596727Y-77548232D01*
X196649868Y-77601444D01*
X196914261Y-77776142D01*
X197215792Y-77805885D01*
X197504390Y-77690870D01*
X197611353Y-77597689D01*
X197766565Y-77344239D01*
X197806237Y-77147768D01*
X197443436Y-77147768D01*
X197428061Y-77337041D01*
X197386223Y-77413555D01*
X197224724Y-77472838D01*
X197022651Y-77437547D01*
X196865859Y-77325759D01*
X196850000Y-77300667D01*
X196798405Y-77073052D01*
X196880982Y-76898727D01*
X197063683Y-76811580D01*
X197308742Y-76844058D01*
X197399840Y-76955339D01*
X197443436Y-77147768D01*
X197806237Y-77147768D01*
X197809556Y-77131333D01*
X197738939Y-76828893D01*
X197555155Y-76606710D01*
X197300304Y-76482016D01*
X197016483Y-76472045D01*
X196745792Y-76594029D01*
X196668387Y-76664204D01*
X196424586Y-76832611D01*
X196151500Y-76875870D01*
X195834000Y-76877333D01*
X195834000Y-74591333D01*
X197527334Y-74591333D01*
X198106728Y-74592355D01*
X198540914Y-74596882D01*
X198854013Y-74607107D01*
X199070144Y-74625224D01*
X199213428Y-74653423D01*
X199307985Y-74693899D01*
X199377935Y-74748845D01*
X199390000Y-74760667D01*
X199650014Y-74914188D01*
X199947448Y-74934007D01*
X200228416Y-74829028D01*
X200439028Y-74608153D01*
X200451465Y-74585278D01*
X200557626Y-74313360D01*
X200551915Y-74252487D01*
X200188423Y-74252487D01*
X200134249Y-74433850D01*
X199991679Y-74562575D01*
X199855667Y-74591333D01*
X199666449Y-74538230D01*
X199574612Y-74452308D01*
X199523256Y-74226391D01*
X199605324Y-74042205D01*
X199784914Y-73943016D01*
X199985453Y-73957217D01*
X200142668Y-74074828D01*
X200188423Y-74252487D01*
X200551915Y-74252487D01*
X200537433Y-74098131D01*
X200380813Y-73877467D01*
X200327847Y-73822820D01*
X200048716Y-73624269D01*
X199768912Y-73593862D01*
X199476482Y-73731136D01*
G36*
X228852001Y-75937526D02*
G01*
X229013784Y-76040087D01*
X229244245Y-76171542D01*
X229501559Y-76309363D01*
X229743898Y-76431023D01*
X229929435Y-76513994D01*
X230009382Y-76537370D01*
X230014388Y-76499313D01*
X229954667Y-76449212D01*
X229771634Y-76337744D01*
X229525796Y-76204960D01*
X229261468Y-76072475D01*
X229022963Y-75961900D01*
X228854596Y-75894852D01*
X228800724Y-75886387D01*
X228852001Y-75937526D01*
G37*
X228852001Y-75937526D02*
X229013784Y-76040087D01*
X229244245Y-76171542D01*
X229501559Y-76309363D01*
X229743898Y-76431023D01*
X229929435Y-76513994D01*
X230009382Y-76537370D01*
X230014388Y-76499313D01*
X229954667Y-76449212D01*
X229771634Y-76337744D01*
X229525796Y-76204960D01*
X229261468Y-76072475D01*
X229022963Y-75961900D01*
X228854596Y-75894852D01*
X228800724Y-75886387D01*
X228852001Y-75937526D01*
G36*
X223028931Y-75849388D02*
G01*
X222852582Y-75918375D01*
X222607908Y-76029463D01*
X222335197Y-76163384D01*
X222074737Y-76300870D01*
X221866816Y-76422655D01*
X221826667Y-76449141D01*
X221734504Y-76525287D01*
X221775484Y-76532324D01*
X221931216Y-76476709D01*
X222183305Y-76364899D01*
X222482834Y-76218802D01*
X222767236Y-76067564D01*
X222981692Y-75938856D01*
X223090172Y-75854806D01*
X223096667Y-75841770D01*
X223028931Y-75849388D01*
G37*
X223028931Y-75849388D02*
X222852582Y-75918375D01*
X222607908Y-76029463D01*
X222335197Y-76163384D01*
X222074737Y-76300870D01*
X221866816Y-76422655D01*
X221826667Y-76449141D01*
X221734504Y-76525287D01*
X221775484Y-76532324D01*
X221931216Y-76476709D01*
X222183305Y-76364899D01*
X222482834Y-76218802D01*
X222767236Y-76067564D01*
X222981692Y-75938856D01*
X223090172Y-75854806D01*
X223096667Y-75841770D01*
X223028931Y-75849388D01*
G36*
X209694541Y-71636879D02*
G01*
X209634667Y-71681238D01*
X209686855Y-71769085D01*
X209820577Y-71936401D01*
X209931000Y-72062482D01*
X210101617Y-72269302D01*
X210190387Y-72450914D01*
X210223406Y-72680381D01*
X210227334Y-72892151D01*
X210227334Y-73393815D01*
X209754924Y-73452839D01*
X209479507Y-73480593D01*
X209302164Y-73462378D01*
X209153355Y-73376281D01*
X208968187Y-73204931D01*
X208725328Y-72989972D01*
X208567684Y-72912383D01*
X208480749Y-72972678D01*
X208450017Y-73171374D01*
X208449334Y-73223350D01*
X208528195Y-73676473D01*
X208746601Y-74074394D01*
X209077283Y-74391018D01*
X209492973Y-74600251D01*
X209966402Y-74676000D01*
X209967353Y-74676000D01*
X210138301Y-74681539D01*
X210278909Y-74711670D01*
X210420350Y-74786665D01*
X210593794Y-74926795D01*
X210830415Y-75152332D01*
X211074000Y-75395667D01*
X211355089Y-75674538D01*
X211592425Y-75903079D01*
X211761150Y-76057829D01*
X211836405Y-76115329D01*
X211836577Y-76115333D01*
X211913032Y-76059190D01*
X212077829Y-75909085D01*
X212301310Y-75692508D01*
X212409691Y-75584147D01*
X212936156Y-75052960D01*
X212191672Y-74311926D01*
X211879479Y-73997354D01*
X211670671Y-73772309D01*
X211546250Y-73609286D01*
X211487216Y-73480781D01*
X211474573Y-73359289D01*
X211480819Y-73282815D01*
X211454058Y-72821857D01*
X211280533Y-72391067D01*
X210982606Y-72029034D01*
X210614989Y-71788556D01*
X210381735Y-71707840D01*
X210117409Y-71652024D01*
X209871761Y-71626555D01*
X209694541Y-71636879D01*
G37*
X209694541Y-71636879D02*
X209634667Y-71681238D01*
X209686855Y-71769085D01*
X209820577Y-71936401D01*
X209931000Y-72062482D01*
X210101617Y-72269302D01*
X210190387Y-72450914D01*
X210223406Y-72680381D01*
X210227334Y-72892151D01*
X210227334Y-73393815D01*
X209754924Y-73452839D01*
X209479507Y-73480593D01*
X209302164Y-73462378D01*
X209153355Y-73376281D01*
X208968187Y-73204931D01*
X208725328Y-72989972D01*
X208567684Y-72912383D01*
X208480749Y-72972678D01*
X208450017Y-73171374D01*
X208449334Y-73223350D01*
X208528195Y-73676473D01*
X208746601Y-74074394D01*
X209077283Y-74391018D01*
X209492973Y-74600251D01*
X209966402Y-74676000D01*
X209967353Y-74676000D01*
X210138301Y-74681539D01*
X210278909Y-74711670D01*
X210420350Y-74786665D01*
X210593794Y-74926795D01*
X210830415Y-75152332D01*
X211074000Y-75395667D01*
X211355089Y-75674538D01*
X211592425Y-75903079D01*
X211761150Y-76057829D01*
X211836405Y-76115329D01*
X211836577Y-76115333D01*
X211913032Y-76059190D01*
X212077829Y-75909085D01*
X212301310Y-75692508D01*
X212409691Y-75584147D01*
X212936156Y-75052960D01*
X212191672Y-74311926D01*
X211879479Y-73997354D01*
X211670671Y-73772309D01*
X211546250Y-73609286D01*
X211487216Y-73480781D01*
X211474573Y-73359289D01*
X211480819Y-73282815D01*
X211454058Y-72821857D01*
X211280533Y-72391067D01*
X210982606Y-72029034D01*
X210614989Y-71788556D01*
X210381735Y-71707840D01*
X210117409Y-71652024D01*
X209871761Y-71626555D01*
X209694541Y-71636879D01*
G36*
X213487582Y-71320526D02*
G01*
X213216038Y-71385605D01*
X213034539Y-71490193D01*
X212961994Y-71616738D01*
X213017310Y-71747687D01*
X213219396Y-71865486D01*
X213230288Y-71869491D01*
X213676693Y-72112122D01*
X214043876Y-72493190D01*
X214303151Y-72936692D01*
X214426612Y-73209827D01*
X214513846Y-73426034D01*
X214545267Y-73534869D01*
X214601105Y-73637362D01*
X214749685Y-73814666D01*
X214962730Y-74039891D01*
X215211969Y-74286145D01*
X215469125Y-74526540D01*
X215705927Y-74734183D01*
X215894098Y-74882186D01*
X216005365Y-74943657D01*
X216021517Y-74938872D01*
X216140350Y-74849444D01*
X216256154Y-74914488D01*
X216295570Y-74993500D01*
X216371973Y-75115980D01*
X216524266Y-75305544D01*
X216716246Y-75522755D01*
X216911707Y-75728177D01*
X217074445Y-75882372D01*
X217168254Y-75945902D01*
X217170000Y-75946000D01*
X217249588Y-75890168D01*
X217411196Y-75743868D01*
X217617683Y-75540925D01*
X217820108Y-75323587D01*
X217963692Y-75146856D01*
X218016667Y-75050909D01*
X217957264Y-74945913D01*
X217805172Y-74772094D01*
X217599566Y-74566863D01*
X217379622Y-74367631D01*
X217184517Y-74211808D01*
X217062250Y-74139500D01*
X216962616Y-74078420D01*
X216985706Y-73969097D01*
X217019916Y-73909339D01*
X217051290Y-73836253D01*
X217044107Y-73754582D01*
X216983197Y-73644942D01*
X216853390Y-73487952D01*
X216639517Y-73264227D01*
X216326410Y-72954385D01*
X216100435Y-72734446D01*
X215595064Y-72258509D01*
X215173166Y-71898295D01*
X214810671Y-71638727D01*
X214483511Y-71464729D01*
X214167614Y-71361225D01*
X213838912Y-71313139D01*
X213830262Y-71312512D01*
X213487582Y-71320526D01*
G37*
X213487582Y-71320526D02*
X213216038Y-71385605D01*
X213034539Y-71490193D01*
X212961994Y-71616738D01*
X213017310Y-71747687D01*
X213219396Y-71865486D01*
X213230288Y-71869491D01*
X213676693Y-72112122D01*
X214043876Y-72493190D01*
X214303151Y-72936692D01*
X214426612Y-73209827D01*
X214513846Y-73426034D01*
X214545267Y-73534869D01*
X214601105Y-73637362D01*
X214749685Y-73814666D01*
X214962730Y-74039891D01*
X215211969Y-74286145D01*
X215469125Y-74526540D01*
X215705927Y-74734183D01*
X215894098Y-74882186D01*
X216005365Y-74943657D01*
X216021517Y-74938872D01*
X216140350Y-74849444D01*
X216256154Y-74914488D01*
X216295570Y-74993500D01*
X216371973Y-75115980D01*
X216524266Y-75305544D01*
X216716246Y-75522755D01*
X216911707Y-75728177D01*
X217074445Y-75882372D01*
X217168254Y-75945902D01*
X217170000Y-75946000D01*
X217249588Y-75890168D01*
X217411196Y-75743868D01*
X217617683Y-75540925D01*
X217820108Y-75323587D01*
X217963692Y-75146856D01*
X218016667Y-75050909D01*
X217957264Y-74945913D01*
X217805172Y-74772094D01*
X217599566Y-74566863D01*
X217379622Y-74367631D01*
X217184517Y-74211808D01*
X217062250Y-74139500D01*
X216962616Y-74078420D01*
X216985706Y-73969097D01*
X217019916Y-73909339D01*
X217051290Y-73836253D01*
X217044107Y-73754582D01*
X216983197Y-73644942D01*
X216853390Y-73487952D01*
X216639517Y-73264227D01*
X216326410Y-72954385D01*
X216100435Y-72734446D01*
X215595064Y-72258509D01*
X215173166Y-71898295D01*
X214810671Y-71638727D01*
X214483511Y-71464729D01*
X214167614Y-71361225D01*
X213838912Y-71313139D01*
X213830262Y-71312512D01*
X213487582Y-71320526D01*
G36*
X229248971Y-74692962D02*
G01*
X229168946Y-74698798D01*
X229089784Y-74712346D01*
X229162653Y-74722995D01*
X229370259Y-74729388D01*
X229573667Y-74730614D01*
X229855249Y-74727478D01*
X230007749Y-74719393D01*
X230016182Y-74707714D01*
X229930946Y-74698329D01*
X229592038Y-74685517D01*
X229248971Y-74692962D01*
G37*
X229248971Y-74692962D02*
X229168946Y-74698798D01*
X229089784Y-74712346D01*
X229162653Y-74722995D01*
X229370259Y-74729388D01*
X229573667Y-74730614D01*
X229855249Y-74727478D01*
X230007749Y-74719393D01*
X230016182Y-74707714D01*
X229930946Y-74698329D01*
X229592038Y-74685517D01*
X229248971Y-74692962D01*
G36*
X221882971Y-74692962D02*
G01*
X221802946Y-74698798D01*
X221723784Y-74712346D01*
X221796653Y-74722995D01*
X222004259Y-74729388D01*
X222207667Y-74730614D01*
X222489249Y-74727478D01*
X222641749Y-74719393D01*
X222650182Y-74707714D01*
X222564946Y-74698329D01*
X222226038Y-74685517D01*
X221882971Y-74692962D01*
G37*
X221882971Y-74692962D02*
X221802946Y-74698798D01*
X221723784Y-74712346D01*
X221796653Y-74722995D01*
X222004259Y-74729388D01*
X222207667Y-74730614D01*
X222489249Y-74727478D01*
X222641749Y-74719393D01*
X222650182Y-74707714D01*
X222564946Y-74698329D01*
X222226038Y-74685517D01*
X221882971Y-74692962D01*
G36*
X229911208Y-72934139D02*
G01*
X229709119Y-73024635D01*
X229453664Y-73148918D01*
X229188721Y-73284663D01*
X228958168Y-73409545D01*
X228805884Y-73501240D01*
X228769334Y-73534064D01*
X228797891Y-73569636D01*
X228898502Y-73545939D01*
X229093577Y-73453713D01*
X229405526Y-73283696D01*
X229489000Y-73236667D01*
X229753985Y-73082440D01*
X229940679Y-72965218D01*
X230018974Y-72904246D01*
X230016054Y-72899753D01*
X229911208Y-72934139D01*
G37*
X229911208Y-72934139D02*
X229709119Y-73024635D01*
X229453664Y-73148918D01*
X229188721Y-73284663D01*
X228958168Y-73409545D01*
X228805884Y-73501240D01*
X228769334Y-73534064D01*
X228797891Y-73569636D01*
X228898502Y-73545939D01*
X229093577Y-73453713D01*
X229405526Y-73283696D01*
X229489000Y-73236667D01*
X229753985Y-73082440D01*
X229940679Y-72965218D01*
X230018974Y-72904246D01*
X230016054Y-72899753D01*
X229911208Y-72934139D01*
G36*
X221799512Y-72933547D02*
G01*
X221928362Y-73022312D01*
X222134620Y-73144900D01*
X222380982Y-73280920D01*
X222630146Y-73409981D01*
X222844810Y-73511692D01*
X222987671Y-73565661D01*
X223012000Y-73569517D01*
X223001770Y-73534668D01*
X222866716Y-73440323D01*
X222632952Y-73303741D01*
X222505039Y-73234439D01*
X222205573Y-73080692D01*
X221959873Y-72964094D01*
X221808378Y-72903494D01*
X221785372Y-72898996D01*
X221799512Y-72933547D01*
G37*
X221799512Y-72933547D02*
X221928362Y-73022312D01*
X222134620Y-73144900D01*
X222380982Y-73280920D01*
X222630146Y-73409981D01*
X222844810Y-73511692D01*
X222987671Y-73565661D01*
X223012000Y-73569517D01*
X223001770Y-73534668D01*
X222866716Y-73440323D01*
X222632952Y-73303741D01*
X222505039Y-73234439D01*
X222205573Y-73080692D01*
X221959873Y-72964094D01*
X221808378Y-72903494D01*
X221785372Y-72898996D01*
X221799512Y-72933547D01*
G36*
X229183732Y-71760401D02*
G01*
X229129167Y-71789819D01*
X229000898Y-71879329D01*
X228816750Y-72027409D01*
X228613626Y-72201519D01*
X228428427Y-72369116D01*
X228298057Y-72497660D01*
X228259418Y-72554610D01*
X228261334Y-72555094D01*
X228343320Y-72507654D01*
X228520554Y-72379704D01*
X228756861Y-72197515D01*
X228790500Y-72170844D01*
X229070584Y-71941050D01*
X229233162Y-71791907D01*
X229272717Y-71729621D01*
X229183732Y-71760401D01*
G37*
X229183732Y-71760401D02*
X229129167Y-71789819D01*
X229000898Y-71879329D01*
X228816750Y-72027409D01*
X228613626Y-72201519D01*
X228428427Y-72369116D01*
X228298057Y-72497660D01*
X228259418Y-72554610D01*
X228261334Y-72555094D01*
X228343320Y-72507654D01*
X228520554Y-72379704D01*
X228756861Y-72197515D01*
X228790500Y-72170844D01*
X229070584Y-71941050D01*
X229233162Y-71791907D01*
X229272717Y-71729621D01*
X229183732Y-71760401D01*
G36*
X222583078Y-71799078D02*
G01*
X222731592Y-71939452D01*
X222955635Y-72126775D01*
X223011092Y-72170748D01*
X223250044Y-72350732D01*
X223427474Y-72469585D01*
X223512196Y-72506852D01*
X223515275Y-72501451D01*
X223452673Y-72418003D01*
X223297627Y-72274337D01*
X223090515Y-72102251D01*
X222871713Y-71933541D01*
X222681597Y-71800007D01*
X222560544Y-71733445D01*
X222539842Y-71733270D01*
X222583078Y-71799078D01*
G37*
X222583078Y-71799078D02*
X222731592Y-71939452D01*
X222955635Y-72126775D01*
X223011092Y-72170748D01*
X223250044Y-72350732D01*
X223427474Y-72469585D01*
X223512196Y-72506852D01*
X223515275Y-72501451D01*
X223452673Y-72418003D01*
X223297627Y-72274337D01*
X223090515Y-72102251D01*
X222871713Y-71933541D01*
X222681597Y-71800007D01*
X222560544Y-71733445D01*
X222539842Y-71733270D01*
X222583078Y-71799078D01*
G36*
X227747150Y-70899175D02*
G01*
X227588459Y-71118007D01*
X227486363Y-71270074D01*
X227323948Y-71529327D01*
X227213643Y-71730726D01*
X227175616Y-71836810D01*
X227177970Y-71842858D01*
X227239045Y-71797818D01*
X227360511Y-71640069D01*
X227516947Y-71402878D01*
X227528840Y-71383689D01*
X227715326Y-71069143D01*
X227812558Y-70880022D01*
X227822508Y-70821606D01*
X227747150Y-70899175D01*
G37*
X227747150Y-70899175D02*
X227588459Y-71118007D01*
X227486363Y-71270074D01*
X227323948Y-71529327D01*
X227213643Y-71730726D01*
X227175616Y-71836810D01*
X227177970Y-71842858D01*
X227239045Y-71797818D01*
X227360511Y-71640069D01*
X227516947Y-71402878D01*
X227528840Y-71383689D01*
X227715326Y-71069143D01*
X227812558Y-70880022D01*
X227822508Y-70821606D01*
X227747150Y-70899175D01*
G36*
X223991256Y-70896281D02*
G01*
X224084863Y-71074659D01*
X224222552Y-71303578D01*
X224376647Y-71539775D01*
X224519477Y-71739985D01*
X224623367Y-71860945D01*
X224651571Y-71878172D01*
X224661504Y-71820454D01*
X224589509Y-71674078D01*
X224573753Y-71649167D01*
X224330494Y-71276607D01*
X224162920Y-71027012D01*
X224056401Y-70880110D01*
X223996306Y-70815626D01*
X223969405Y-70811707D01*
X223991256Y-70896281D01*
G37*
X223991256Y-70896281D02*
X224084863Y-71074659D01*
X224222552Y-71303578D01*
X224376647Y-71539775D01*
X224519477Y-71739985D01*
X224623367Y-71860945D01*
X224651571Y-71878172D01*
X224661504Y-71820454D01*
X224589509Y-71674078D01*
X224573753Y-71649167D01*
X224330494Y-71276607D01*
X224162920Y-71027012D01*
X224056401Y-70880110D01*
X223996306Y-70815626D01*
X223969405Y-70811707D01*
X223991256Y-70896281D01*
G36*
X225833094Y-70768772D02*
G01*
X225828878Y-70804388D01*
X225815330Y-71103383D01*
X225828394Y-71387322D01*
X225829561Y-71397055D01*
X225845530Y-71455411D01*
X225857282Y-71364391D01*
X225862738Y-71143937D01*
X225862885Y-71077667D01*
X225858652Y-70837380D01*
X225848030Y-70728859D01*
X225833094Y-70768772D01*
G37*
X225833094Y-70768772D02*
X225828878Y-70804388D01*
X225815330Y-71103383D01*
X225828394Y-71387322D01*
X225829561Y-71397055D01*
X225845530Y-71455411D01*
X225857282Y-71364391D01*
X225862738Y-71143937D01*
X225862885Y-71077667D01*
X225858652Y-70837380D01*
X225848030Y-70728859D01*
X225833094Y-70768772D01*
G36*
X233127900Y-59020694D02*
G01*
X232980939Y-59056142D01*
X232912345Y-59136057D01*
X232892057Y-59203166D01*
X232870231Y-59324528D01*
X232825551Y-59595368D01*
X232760845Y-59997787D01*
X232678946Y-60513890D01*
X232582681Y-61125779D01*
X232474883Y-61815558D01*
X232358380Y-62565330D01*
X232269341Y-63141054D01*
X232149695Y-63912162D01*
X232037575Y-64626983D01*
X231935636Y-65269152D01*
X231846533Y-65822303D01*
X231772920Y-66270073D01*
X231717452Y-66596096D01*
X231682785Y-66784008D01*
X231671853Y-66824054D01*
X231655318Y-66729696D01*
X231615491Y-66484892D01*
X231555039Y-66106523D01*
X231476630Y-65611474D01*
X231382931Y-65016629D01*
X231276609Y-64338873D01*
X231160331Y-63595088D01*
X231053586Y-62910251D01*
X230930747Y-62124390D01*
X230815153Y-61391208D01*
X230709505Y-60727386D01*
X230616504Y-60149608D01*
X230538851Y-59674555D01*
X230479249Y-59318910D01*
X230440399Y-59099355D01*
X230425558Y-59032001D01*
X230331854Y-59020138D01*
X230125019Y-59021948D01*
X229980294Y-59029084D01*
X229563863Y-59055000D01*
X230395186Y-63881000D01*
X230547827Y-64765098D01*
X230692725Y-65600478D01*
X230827214Y-66372017D01*
X230948624Y-67064591D01*
X231054288Y-67663074D01*
X231141538Y-68152342D01*
X231207704Y-68517272D01*
X231250120Y-68742738D01*
X231265264Y-68812833D01*
X231364698Y-68873922D01*
X231565355Y-68910079D01*
X231800595Y-68918624D01*
X232003776Y-68896879D01*
X232105865Y-68846624D01*
X232128007Y-68752068D01*
X232175813Y-68505714D01*
X232246586Y-68122705D01*
X232337629Y-67618186D01*
X232446244Y-67007300D01*
X232569735Y-66305191D01*
X232705405Y-65527002D01*
X232850556Y-64687877D01*
X232961596Y-64041791D01*
X233112239Y-63164769D01*
X233255332Y-62335304D01*
X233388164Y-61568858D01*
X233508028Y-60880897D01*
X233612213Y-60286884D01*
X233698010Y-59802284D01*
X233762710Y-59442560D01*
X233803602Y-59223179D01*
X233816774Y-59160833D01*
X233820558Y-59075268D01*
X233743104Y-59030517D01*
X233549251Y-59014123D01*
X233398551Y-59012667D01*
X233127900Y-59020694D01*
G37*
X233127900Y-59020694D02*
X232980939Y-59056142D01*
X232912345Y-59136057D01*
X232892057Y-59203166D01*
X232870231Y-59324528D01*
X232825551Y-59595368D01*
X232760845Y-59997787D01*
X232678946Y-60513890D01*
X232582681Y-61125779D01*
X232474883Y-61815558D01*
X232358380Y-62565330D01*
X232269341Y-63141054D01*
X232149695Y-63912162D01*
X232037575Y-64626983D01*
X231935636Y-65269152D01*
X231846533Y-65822303D01*
X231772920Y-66270073D01*
X231717452Y-66596096D01*
X231682785Y-66784008D01*
X231671853Y-66824054D01*
X231655318Y-66729696D01*
X231615491Y-66484892D01*
X231555039Y-66106523D01*
X231476630Y-65611474D01*
X231382931Y-65016629D01*
X231276609Y-64338873D01*
X231160331Y-63595088D01*
X231053586Y-62910251D01*
X230930747Y-62124390D01*
X230815153Y-61391208D01*
X230709505Y-60727386D01*
X230616504Y-60149608D01*
X230538851Y-59674555D01*
X230479249Y-59318910D01*
X230440399Y-59099355D01*
X230425558Y-59032001D01*
X230331854Y-59020138D01*
X230125019Y-59021948D01*
X229980294Y-59029084D01*
X229563863Y-59055000D01*
X230395186Y-63881000D01*
X230547827Y-64765098D01*
X230692725Y-65600478D01*
X230827214Y-66372017D01*
X230948624Y-67064591D01*
X231054288Y-67663074D01*
X231141538Y-68152342D01*
X231207704Y-68517272D01*
X231250120Y-68742738D01*
X231265264Y-68812833D01*
X231364698Y-68873922D01*
X231565355Y-68910079D01*
X231800595Y-68918624D01*
X232003776Y-68896879D01*
X232105865Y-68846624D01*
X232128007Y-68752068D01*
X232175813Y-68505714D01*
X232246586Y-68122705D01*
X232337629Y-67618186D01*
X232446244Y-67007300D01*
X232569735Y-66305191D01*
X232705405Y-65527002D01*
X232850556Y-64687877D01*
X232961596Y-64041791D01*
X233112239Y-63164769D01*
X233255332Y-62335304D01*
X233388164Y-61568858D01*
X233508028Y-60880897D01*
X233612213Y-60286884D01*
X233698010Y-59802284D01*
X233762710Y-59442560D01*
X233803602Y-59223179D01*
X233816774Y-59160833D01*
X233820558Y-59075268D01*
X233743104Y-59030517D01*
X233549251Y-59014123D01*
X233398551Y-59012667D01*
X233127900Y-59020694D01*
G36*
X225213334Y-59859333D02*
G01*
X227499334Y-59859333D01*
X227499334Y-63415333D01*
X225382667Y-63415333D01*
X225382667Y-64262000D01*
X227499334Y-64262000D01*
X227499334Y-68072000D01*
X225128667Y-68072000D01*
X225128667Y-68834000D01*
X228430667Y-68834000D01*
X228430667Y-59012667D01*
X225213334Y-59012667D01*
X225213334Y-59859333D01*
G37*
X225213334Y-59859333D02*
X227499334Y-59859333D01*
X227499334Y-63415333D01*
X225382667Y-63415333D01*
X225382667Y-64262000D01*
X227499334Y-64262000D01*
X227499334Y-68072000D01*
X225128667Y-68072000D01*
X225128667Y-68834000D01*
X228430667Y-68834000D01*
X228430667Y-59012667D01*
X225213334Y-59012667D01*
X225213334Y-59859333D01*
G36*
X221307489Y-59013293D02*
G01*
X220900853Y-59017194D01*
X220611881Y-59027402D01*
X220414742Y-59046949D01*
X220283600Y-59078868D01*
X220192623Y-59126191D01*
X220115975Y-59191951D01*
X220087152Y-59220485D01*
X220008529Y-59305374D01*
X219952742Y-59396544D01*
X219915878Y-59522786D01*
X219894021Y-59712894D01*
X219883257Y-59995659D01*
X219879671Y-60399874D01*
X219879334Y-60748909D01*
X219879334Y-62069516D01*
X220323834Y-62043924D01*
X220768334Y-62018333D01*
X220815726Y-59859333D01*
X222927334Y-59859333D01*
X222927334Y-68072000D01*
X220815316Y-68072000D01*
X220768334Y-65659000D01*
X220323834Y-65633409D01*
X219879334Y-65607817D01*
X219879334Y-67036817D01*
X219877716Y-67611666D01*
X219886337Y-68049295D01*
X219925403Y-68368235D01*
X220015123Y-68587013D01*
X220175705Y-68724158D01*
X220427358Y-68798199D01*
X220790291Y-68827665D01*
X221284710Y-68831085D01*
X221832124Y-68827316D01*
X222334378Y-68822929D01*
X222781393Y-68814800D01*
X223144286Y-68803795D01*
X223394177Y-68790779D01*
X223500615Y-68777333D01*
X223612708Y-68676471D01*
X223732314Y-68494075D01*
X223733449Y-68491888D01*
X223761997Y-68415185D01*
X223785990Y-68295658D01*
X223805801Y-68119634D01*
X223821801Y-67873437D01*
X223834364Y-67543392D01*
X223843860Y-67115825D01*
X223850663Y-66577060D01*
X223855144Y-65913424D01*
X223857676Y-65111241D01*
X223858631Y-64156836D01*
X223858667Y-63891700D01*
X223858667Y-59533659D01*
X223420281Y-59012667D01*
X221857626Y-59012667D01*
X221307489Y-59013293D01*
G37*
X221307489Y-59013293D02*
X220900853Y-59017194D01*
X220611881Y-59027402D01*
X220414742Y-59046949D01*
X220283600Y-59078868D01*
X220192623Y-59126191D01*
X220115975Y-59191951D01*
X220087152Y-59220485D01*
X220008529Y-59305374D01*
X219952742Y-59396544D01*
X219915878Y-59522786D01*
X219894021Y-59712894D01*
X219883257Y-59995659D01*
X219879671Y-60399874D01*
X219879334Y-60748909D01*
X219879334Y-62069516D01*
X220323834Y-62043924D01*
X220768334Y-62018333D01*
X220815726Y-59859333D01*
X222927334Y-59859333D01*
X222927334Y-68072000D01*
X220815316Y-68072000D01*
X220768334Y-65659000D01*
X220323834Y-65633409D01*
X219879334Y-65607817D01*
X219879334Y-67036817D01*
X219877716Y-67611666D01*
X219886337Y-68049295D01*
X219925403Y-68368235D01*
X220015123Y-68587013D01*
X220175705Y-68724158D01*
X220427358Y-68798199D01*
X220790291Y-68827665D01*
X221284710Y-68831085D01*
X221832124Y-68827316D01*
X222334378Y-68822929D01*
X222781393Y-68814800D01*
X223144286Y-68803795D01*
X223394177Y-68790779D01*
X223500615Y-68777333D01*
X223612708Y-68676471D01*
X223732314Y-68494075D01*
X223733449Y-68491888D01*
X223761997Y-68415185D01*
X223785990Y-68295658D01*
X223805801Y-68119634D01*
X223821801Y-67873437D01*
X223834364Y-67543392D01*
X223843860Y-67115825D01*
X223850663Y-66577060D01*
X223855144Y-65913424D01*
X223857676Y-65111241D01*
X223858631Y-64156836D01*
X223858667Y-63891700D01*
X223858667Y-59533659D01*
X223420281Y-59012667D01*
X221857626Y-59012667D01*
X221307489Y-59013293D01*
G36*
X214968667Y-59859333D02*
G01*
X216408000Y-59859333D01*
X216408000Y-68834000D01*
X217339334Y-68834000D01*
X217339334Y-59865688D01*
X218122500Y-59841344D01*
X218905667Y-59817000D01*
X218931473Y-59414833D01*
X218957278Y-59012667D01*
X214968667Y-59012667D01*
X214968667Y-59859333D01*
G37*
X214968667Y-59859333D02*
X216408000Y-59859333D01*
X216408000Y-68834000D01*
X217339334Y-68834000D01*
X217339334Y-59865688D01*
X218122500Y-59841344D01*
X218905667Y-59817000D01*
X218931473Y-59414833D01*
X218957278Y-59012667D01*
X214968667Y-59012667D01*
X214968667Y-59859333D01*
G36*
X211319020Y-59013309D02*
G01*
X210895051Y-59017069D01*
X210589580Y-59026700D01*
X210377190Y-59044951D01*
X210232463Y-59074575D01*
X210129981Y-59118323D01*
X210044328Y-59178947D01*
X209999222Y-59217002D01*
X209761667Y-59421338D01*
X209761667Y-68397024D01*
X209966926Y-68615512D01*
X210172184Y-68834000D01*
X211854608Y-68834000D01*
X212427989Y-68833491D01*
X212856702Y-68830157D01*
X213165411Y-68821286D01*
X213378779Y-68804166D01*
X213521472Y-68776086D01*
X213618153Y-68734334D01*
X213693487Y-68676199D01*
X213744849Y-68626182D01*
X213952667Y-68418363D01*
X213952667Y-59859333D01*
X213021334Y-59859333D01*
X213021334Y-68072000D01*
X210650667Y-68072000D01*
X210650667Y-59859333D01*
X213021334Y-59859333D01*
X213952667Y-59859333D01*
X213952667Y-59428303D01*
X213744849Y-59220485D01*
X213669215Y-59149120D01*
X213588813Y-59096307D01*
X213478678Y-59059254D01*
X213313846Y-59035168D01*
X213069352Y-59021257D01*
X212720233Y-59014727D01*
X212241523Y-59012788D01*
X211886904Y-59012667D01*
X211319020Y-59013309D01*
G37*
X211319020Y-59013309D02*
X210895051Y-59017069D01*
X210589580Y-59026700D01*
X210377190Y-59044951D01*
X210232463Y-59074575D01*
X210129981Y-59118323D01*
X210044328Y-59178947D01*
X209999222Y-59217002D01*
X209761667Y-59421338D01*
X209761667Y-68397024D01*
X209966926Y-68615512D01*
X210172184Y-68834000D01*
X211854608Y-68834000D01*
X212427989Y-68833491D01*
X212856702Y-68830157D01*
X213165411Y-68821286D01*
X213378779Y-68804166D01*
X213521472Y-68776086D01*
X213618153Y-68734334D01*
X213693487Y-68676199D01*
X213744849Y-68626182D01*
X213952667Y-68418363D01*
X213952667Y-59859333D01*
X213021334Y-59859333D01*
X213021334Y-68072000D01*
X210650667Y-68072000D01*
X210650667Y-59859333D01*
X213021334Y-59859333D01*
X213952667Y-59859333D01*
X213952667Y-59428303D01*
X213744849Y-59220485D01*
X213669215Y-59149120D01*
X213588813Y-59096307D01*
X213478678Y-59059254D01*
X213313846Y-59035168D01*
X213069352Y-59021257D01*
X212720233Y-59014727D01*
X212241523Y-59012788D01*
X211886904Y-59012667D01*
X211319020Y-59013309D01*
G36*
X205855876Y-59013068D02*
G01*
X205401805Y-59015872D01*
X205070143Y-59023478D01*
X204837426Y-59038286D01*
X204680194Y-59062695D01*
X204574984Y-59099105D01*
X204498333Y-59149915D01*
X204426778Y-59217525D01*
X204423819Y-59220485D01*
X204216000Y-59428303D01*
X204216000Y-61544097D01*
X204216373Y-62196491D01*
X204218719Y-62701273D01*
X204224878Y-63080165D01*
X204236691Y-63354889D01*
X204256000Y-63547165D01*
X204284644Y-63678716D01*
X204324464Y-63771262D01*
X204377302Y-63846527D01*
X204414895Y-63891119D01*
X204559453Y-64027497D01*
X204735172Y-64106167D01*
X205000175Y-64148848D01*
X205134561Y-64160016D01*
X205406111Y-64184030D01*
X205594514Y-64209047D01*
X205655334Y-64227286D01*
X205628018Y-64311518D01*
X205550863Y-64534773D01*
X205431055Y-64876633D01*
X205275782Y-65316677D01*
X205092232Y-65834488D01*
X204887593Y-66409647D01*
X204851000Y-66512285D01*
X204643406Y-67095662D01*
X204455688Y-67625624D01*
X204295041Y-68081659D01*
X204168660Y-68443260D01*
X204083740Y-68689916D01*
X204047476Y-68801119D01*
X204046667Y-68805066D01*
X204123195Y-68821238D01*
X204321063Y-68824283D01*
X204523798Y-68817058D01*
X205000928Y-68791667D01*
X205873907Y-66294000D01*
X206090078Y-65669982D01*
X206287056Y-65090737D01*
X206457958Y-64577344D01*
X206595904Y-64150885D01*
X206694012Y-63832441D01*
X206745400Y-63643092D01*
X206751443Y-63605833D01*
X206745438Y-63517535D01*
X206701313Y-63461836D01*
X206587592Y-63431239D01*
X206372798Y-63418245D01*
X206025454Y-63415358D01*
X205951667Y-63415333D01*
X205147334Y-63415333D01*
X205147334Y-59859333D01*
X207348667Y-59859333D01*
X207348667Y-68834000D01*
X208280000Y-68834000D01*
X208280000Y-59012667D01*
X206455819Y-59012667D01*
X205855876Y-59013068D01*
G37*
X205855876Y-59013068D02*
X205401805Y-59015872D01*
X205070143Y-59023478D01*
X204837426Y-59038286D01*
X204680194Y-59062695D01*
X204574984Y-59099105D01*
X204498333Y-59149915D01*
X204426778Y-59217525D01*
X204423819Y-59220485D01*
X204216000Y-59428303D01*
X204216000Y-61544097D01*
X204216373Y-62196491D01*
X204218719Y-62701273D01*
X204224878Y-63080165D01*
X204236691Y-63354889D01*
X204256000Y-63547165D01*
X204284644Y-63678716D01*
X204324464Y-63771262D01*
X204377302Y-63846527D01*
X204414895Y-63891119D01*
X204559453Y-64027497D01*
X204735172Y-64106167D01*
X205000175Y-64148848D01*
X205134561Y-64160016D01*
X205406111Y-64184030D01*
X205594514Y-64209047D01*
X205655334Y-64227286D01*
X205628018Y-64311518D01*
X205550863Y-64534773D01*
X205431055Y-64876633D01*
X205275782Y-65316677D01*
X205092232Y-65834488D01*
X204887593Y-66409647D01*
X204851000Y-66512285D01*
X204643406Y-67095662D01*
X204455688Y-67625624D01*
X204295041Y-68081659D01*
X204168660Y-68443260D01*
X204083740Y-68689916D01*
X204047476Y-68801119D01*
X204046667Y-68805066D01*
X204123195Y-68821238D01*
X204321063Y-68824283D01*
X204523798Y-68817058D01*
X205000928Y-68791667D01*
X205873907Y-66294000D01*
X206090078Y-65669982D01*
X206287056Y-65090737D01*
X206457958Y-64577344D01*
X206595904Y-64150885D01*
X206694012Y-63832441D01*
X206745400Y-63643092D01*
X206751443Y-63605833D01*
X206745438Y-63517535D01*
X206701313Y-63461836D01*
X206587592Y-63431239D01*
X206372798Y-63418245D01*
X206025454Y-63415358D01*
X205951667Y-63415333D01*
X205147334Y-63415333D01*
X205147334Y-59859333D01*
X207348667Y-59859333D01*
X207348667Y-68834000D01*
X208280000Y-68834000D01*
X208280000Y-59012667D01*
X206455819Y-59012667D01*
X205855876Y-59013068D01*
G36*
X196561193Y-59273163D02*
G01*
X196476679Y-59379799D01*
X196417262Y-59485981D01*
X196378524Y-59622428D01*
X196356047Y-59819858D01*
X196345413Y-60108991D01*
X196342202Y-60520545D01*
X196342000Y-60797163D01*
X196342000Y-62060667D01*
X197273334Y-62060667D01*
X197273334Y-59859333D01*
X199390000Y-59859333D01*
X199390000Y-61807404D01*
X197948783Y-63542146D01*
X197559530Y-64015010D01*
X197203840Y-64455349D01*
X196897051Y-64843514D01*
X196654500Y-65159856D01*
X196491524Y-65384726D01*
X196424783Y-65494622D01*
X196395433Y-65654660D01*
X196370661Y-65947649D01*
X196352491Y-66337227D01*
X196342949Y-66787031D01*
X196342000Y-66981049D01*
X196349706Y-67579675D01*
X196375879Y-68030983D01*
X196425104Y-68356420D01*
X196501962Y-68577430D01*
X196611039Y-68715460D01*
X196726794Y-68781406D01*
X196853091Y-68798485D01*
X197118438Y-68813248D01*
X197492553Y-68824723D01*
X197945160Y-68831940D01*
X198366167Y-68834000D01*
X199868483Y-68834000D01*
X200073742Y-68615691D01*
X200150243Y-68527850D01*
X200204908Y-68433982D01*
X200241404Y-68305741D01*
X200263395Y-68114782D01*
X200274546Y-67832760D01*
X200278522Y-67431330D01*
X200279000Y-67028191D01*
X200279000Y-65659000D01*
X199834500Y-65633409D01*
X199390000Y-65607817D01*
X199390000Y-68072000D01*
X197273334Y-68072000D01*
X197273334Y-65741536D01*
X198638851Y-64091601D01*
X199019980Y-63629460D01*
X199371184Y-63200527D01*
X199676016Y-62825133D01*
X199918034Y-62523606D01*
X200080792Y-62316276D01*
X200141685Y-62233723D01*
X200196563Y-62120184D01*
X200235209Y-61954510D01*
X200260131Y-61709139D01*
X200273832Y-61356511D01*
X200278821Y-60869064D01*
X200279000Y-60723559D01*
X200279000Y-59421338D01*
X200041446Y-59217002D01*
X199950617Y-59144022D01*
X199855376Y-59090877D01*
X199728820Y-59054423D01*
X199544044Y-59031518D01*
X199274142Y-59019020D01*
X198892210Y-59013786D01*
X198371343Y-59012672D01*
X198292139Y-59012667D01*
X196780386Y-59012667D01*
X196561193Y-59273163D01*
G37*
X196561193Y-59273163D02*
X196476679Y-59379799D01*
X196417262Y-59485981D01*
X196378524Y-59622428D01*
X196356047Y-59819858D01*
X196345413Y-60108991D01*
X196342202Y-60520545D01*
X196342000Y-60797163D01*
X196342000Y-62060667D01*
X197273334Y-62060667D01*
X197273334Y-59859333D01*
X199390000Y-59859333D01*
X199390000Y-61807404D01*
X197948783Y-63542146D01*
X197559530Y-64015010D01*
X197203840Y-64455349D01*
X196897051Y-64843514D01*
X196654500Y-65159856D01*
X196491524Y-65384726D01*
X196424783Y-65494622D01*
X196395433Y-65654660D01*
X196370661Y-65947649D01*
X196352491Y-66337227D01*
X196342949Y-66787031D01*
X196342000Y-66981049D01*
X196349706Y-67579675D01*
X196375879Y-68030983D01*
X196425104Y-68356420D01*
X196501962Y-68577430D01*
X196611039Y-68715460D01*
X196726794Y-68781406D01*
X196853091Y-68798485D01*
X197118438Y-68813248D01*
X197492553Y-68824723D01*
X197945160Y-68831940D01*
X198366167Y-68834000D01*
X199868483Y-68834000D01*
X200073742Y-68615691D01*
X200150243Y-68527850D01*
X200204908Y-68433982D01*
X200241404Y-68305741D01*
X200263395Y-68114782D01*
X200274546Y-67832760D01*
X200278522Y-67431330D01*
X200279000Y-67028191D01*
X200279000Y-65659000D01*
X199834500Y-65633409D01*
X199390000Y-65607817D01*
X199390000Y-68072000D01*
X197273334Y-68072000D01*
X197273334Y-65741536D01*
X198638851Y-64091601D01*
X199019980Y-63629460D01*
X199371184Y-63200527D01*
X199676016Y-62825133D01*
X199918034Y-62523606D01*
X200080792Y-62316276D01*
X200141685Y-62233723D01*
X200196563Y-62120184D01*
X200235209Y-61954510D01*
X200260131Y-61709139D01*
X200273832Y-61356511D01*
X200278821Y-60869064D01*
X200279000Y-60723559D01*
X200279000Y-59421338D01*
X200041446Y-59217002D01*
X199950617Y-59144022D01*
X199855376Y-59090877D01*
X199728820Y-59054423D01*
X199544044Y-59031518D01*
X199274142Y-59019020D01*
X198892210Y-59013786D01*
X198371343Y-59012672D01*
X198292139Y-59012667D01*
X196780386Y-59012667D01*
X196561193Y-59273163D01*
G36*
X192494287Y-59013128D02*
G01*
X192055264Y-59016233D01*
X191737256Y-59024559D01*
X191516104Y-59040684D01*
X191367651Y-59067186D01*
X191267735Y-59106644D01*
X191192200Y-59161636D01*
X191131152Y-59220485D01*
X190923334Y-59428303D01*
X190923334Y-64523697D01*
X191131152Y-64731515D01*
X191216190Y-64810253D01*
X191307535Y-64866082D01*
X191434042Y-64902938D01*
X191624568Y-64924754D01*
X191907968Y-64935467D01*
X192313098Y-64939010D01*
X192655152Y-64939333D01*
X193971334Y-64939333D01*
X193971334Y-68834000D01*
X194818000Y-68834000D01*
X194818000Y-59859333D01*
X193971334Y-59859333D01*
X193971334Y-61961889D01*
X193969150Y-62542276D01*
X193963009Y-63065814D01*
X193953528Y-63508936D01*
X193941321Y-63848076D01*
X193927007Y-64059666D01*
X193914889Y-64120889D01*
X193812693Y-64142948D01*
X193576645Y-64160969D01*
X193242213Y-64173060D01*
X192856556Y-64177333D01*
X191854667Y-64177333D01*
X191854667Y-59859333D01*
X193971334Y-59859333D01*
X194818000Y-59859333D01*
X194818000Y-59012667D01*
X193078485Y-59012667D01*
X192494287Y-59013128D01*
G37*
X192494287Y-59013128D02*
X192055264Y-59016233D01*
X191737256Y-59024559D01*
X191516104Y-59040684D01*
X191367651Y-59067186D01*
X191267735Y-59106644D01*
X191192200Y-59161636D01*
X191131152Y-59220485D01*
X190923334Y-59428303D01*
X190923334Y-64523697D01*
X191131152Y-64731515D01*
X191216190Y-64810253D01*
X191307535Y-64866082D01*
X191434042Y-64902938D01*
X191624568Y-64924754D01*
X191907968Y-64935467D01*
X192313098Y-64939010D01*
X192655152Y-64939333D01*
X193971334Y-64939333D01*
X193971334Y-68834000D01*
X194818000Y-68834000D01*
X194818000Y-59859333D01*
X193971334Y-59859333D01*
X193971334Y-61961889D01*
X193969150Y-62542276D01*
X193963009Y-63065814D01*
X193953528Y-63508936D01*
X193941321Y-63848076D01*
X193927007Y-64059666D01*
X193914889Y-64120889D01*
X193812693Y-64142948D01*
X193576645Y-64160969D01*
X193242213Y-64173060D01*
X192856556Y-64177333D01*
X191854667Y-64177333D01*
X191854667Y-59859333D01*
X193971334Y-59859333D01*
X194818000Y-59859333D01*
X194818000Y-59012667D01*
X193078485Y-59012667D01*
X192494287Y-59013128D01*
G36*
X187518353Y-58941486D02*
G01*
X187362981Y-58975488D01*
X187336648Y-58993820D01*
X187317140Y-59082926D01*
X187271502Y-59320895D01*
X187202928Y-59689815D01*
X187114612Y-60171776D01*
X187009747Y-60748865D01*
X186891528Y-61403171D01*
X186763147Y-62116782D01*
X186627798Y-62871786D01*
X186488675Y-63650272D01*
X186348972Y-64434327D01*
X186211882Y-65206042D01*
X186080599Y-65947502D01*
X185958317Y-66640798D01*
X185848228Y-67268017D01*
X185753528Y-67811248D01*
X185677409Y-68252578D01*
X185623065Y-68574097D01*
X185593690Y-68757892D01*
X185589334Y-68793683D01*
X185665787Y-68816105D01*
X185862362Y-68830743D01*
X186038867Y-68834000D01*
X186488399Y-68834000D01*
X186652768Y-67796833D01*
X186817137Y-66759667D01*
X188759154Y-66759667D01*
X188904429Y-67691000D01*
X188963632Y-68076617D01*
X189012256Y-68404785D01*
X189044658Y-68636686D01*
X189055185Y-68728167D01*
X189138557Y-68798115D01*
X189382033Y-68831018D01*
X189527947Y-68834000D01*
X189793504Y-68829084D01*
X189926832Y-68803195D01*
X189964980Y-68739620D01*
X189950254Y-68643500D01*
X189925066Y-68516440D01*
X189873959Y-68242011D01*
X189800397Y-67839606D01*
X189707846Y-67328621D01*
X189599767Y-66728449D01*
X189479627Y-66058486D01*
X189431644Y-65789993D01*
X188610527Y-65789993D01*
X188558417Y-65833301D01*
X188421020Y-65857679D01*
X188169819Y-65868381D01*
X187801696Y-65870667D01*
X186954647Y-65870667D01*
X187005122Y-65553167D01*
X187158051Y-64601490D01*
X187299850Y-63739442D01*
X187428613Y-62977608D01*
X187542433Y-62326573D01*
X187639406Y-61796923D01*
X187717626Y-61399243D01*
X187775187Y-61144118D01*
X187810184Y-61042132D01*
X187816785Y-61044667D01*
X187842995Y-61159796D01*
X187891134Y-61418709D01*
X187957175Y-61797857D01*
X188037094Y-62273692D01*
X188126863Y-62822664D01*
X188214838Y-63373000D01*
X188309955Y-63969878D01*
X188398444Y-64516610D01*
X188476338Y-64989361D01*
X188539671Y-65364298D01*
X188584476Y-65617586D01*
X188605869Y-65722500D01*
X188610527Y-65789993D01*
X189431644Y-65789993D01*
X189350888Y-65338127D01*
X189217015Y-64586765D01*
X189081472Y-63823796D01*
X188947723Y-63068615D01*
X188819232Y-62340615D01*
X188699463Y-61659192D01*
X188591880Y-61043740D01*
X188555227Y-60833000D01*
X188465906Y-60332658D01*
X188380483Y-59879736D01*
X188305109Y-59504947D01*
X188245938Y-59239009D01*
X188211782Y-59118500D01*
X188129797Y-58995854D01*
X187982896Y-58939984D01*
X187755146Y-58928000D01*
X187518353Y-58941486D01*
G37*
X187518353Y-58941486D02*
X187362981Y-58975488D01*
X187336648Y-58993820D01*
X187317140Y-59082926D01*
X187271502Y-59320895D01*
X187202928Y-59689815D01*
X187114612Y-60171776D01*
X187009747Y-60748865D01*
X186891528Y-61403171D01*
X186763147Y-62116782D01*
X186627798Y-62871786D01*
X186488675Y-63650272D01*
X186348972Y-64434327D01*
X186211882Y-65206042D01*
X186080599Y-65947502D01*
X185958317Y-66640798D01*
X185848228Y-67268017D01*
X185753528Y-67811248D01*
X185677409Y-68252578D01*
X185623065Y-68574097D01*
X185593690Y-68757892D01*
X185589334Y-68793683D01*
X185665787Y-68816105D01*
X185862362Y-68830743D01*
X186038867Y-68834000D01*
X186488399Y-68834000D01*
X186652768Y-67796833D01*
X186817137Y-66759667D01*
X188759154Y-66759667D01*
X188904429Y-67691000D01*
X188963632Y-68076617D01*
X189012256Y-68404785D01*
X189044658Y-68636686D01*
X189055185Y-68728167D01*
X189138557Y-68798115D01*
X189382033Y-68831018D01*
X189527947Y-68834000D01*
X189793504Y-68829084D01*
X189926832Y-68803195D01*
X189964980Y-68739620D01*
X189950254Y-68643500D01*
X189925066Y-68516440D01*
X189873959Y-68242011D01*
X189800397Y-67839606D01*
X189707846Y-67328621D01*
X189599767Y-66728449D01*
X189479627Y-66058486D01*
X189431644Y-65789993D01*
X188610527Y-65789993D01*
X188558417Y-65833301D01*
X188421020Y-65857679D01*
X188169819Y-65868381D01*
X187801696Y-65870667D01*
X186954647Y-65870667D01*
X187005122Y-65553167D01*
X187158051Y-64601490D01*
X187299850Y-63739442D01*
X187428613Y-62977608D01*
X187542433Y-62326573D01*
X187639406Y-61796923D01*
X187717626Y-61399243D01*
X187775187Y-61144118D01*
X187810184Y-61042132D01*
X187816785Y-61044667D01*
X187842995Y-61159796D01*
X187891134Y-61418709D01*
X187957175Y-61797857D01*
X188037094Y-62273692D01*
X188126863Y-62822664D01*
X188214838Y-63373000D01*
X188309955Y-63969878D01*
X188398444Y-64516610D01*
X188476338Y-64989361D01*
X188539671Y-65364298D01*
X188584476Y-65617586D01*
X188605869Y-65722500D01*
X188610527Y-65789993D01*
X189431644Y-65789993D01*
X189350888Y-65338127D01*
X189217015Y-64586765D01*
X189081472Y-63823796D01*
X188947723Y-63068615D01*
X188819232Y-62340615D01*
X188699463Y-61659192D01*
X188591880Y-61043740D01*
X188555227Y-60833000D01*
X188465906Y-60332658D01*
X188380483Y-59879736D01*
X188305109Y-59504947D01*
X188245938Y-59239009D01*
X188211782Y-59118500D01*
X188129797Y-58995854D01*
X187982896Y-58939984D01*
X187755146Y-58928000D01*
X187518353Y-58941486D01*
G36*
X181915218Y-59013474D02*
G01*
X181516229Y-59017983D01*
X181232826Y-59029327D01*
X181038135Y-59050638D01*
X180905284Y-59085046D01*
X180807400Y-59135684D01*
X180717609Y-59205684D01*
X180704555Y-59216863D01*
X180467000Y-59421059D01*
X180467000Y-62018333D01*
X180911500Y-62043924D01*
X181356000Y-62069516D01*
X181356000Y-59859333D01*
X183557334Y-59859333D01*
X183557334Y-68072000D01*
X181356000Y-68072000D01*
X181356000Y-65607817D01*
X180911500Y-65633409D01*
X180467000Y-65659000D01*
X180467000Y-67028204D01*
X180467971Y-67539542D01*
X180473327Y-67909892D01*
X180486732Y-68167600D01*
X180511852Y-68341010D01*
X180552352Y-68458468D01*
X180611896Y-68548317D01*
X180672259Y-68615704D01*
X180877518Y-68834000D01*
X184035817Y-68834000D01*
X184241075Y-68615512D01*
X184446334Y-68397024D01*
X184446334Y-59421338D01*
X184208779Y-59217002D01*
X184118037Y-59144081D01*
X184022894Y-59090961D01*
X183896478Y-59054506D01*
X183711918Y-59031584D01*
X183442341Y-59019060D01*
X183060875Y-59013801D01*
X182540648Y-59012673D01*
X182456667Y-59012667D01*
X181915218Y-59013474D01*
G37*
X181915218Y-59013474D02*
X181516229Y-59017983D01*
X181232826Y-59029327D01*
X181038135Y-59050638D01*
X180905284Y-59085046D01*
X180807400Y-59135684D01*
X180717609Y-59205684D01*
X180704555Y-59216863D01*
X180467000Y-59421059D01*
X180467000Y-62018333D01*
X180911500Y-62043924D01*
X181356000Y-62069516D01*
X181356000Y-59859333D01*
X183557334Y-59859333D01*
X183557334Y-68072000D01*
X181356000Y-68072000D01*
X181356000Y-65607817D01*
X180911500Y-65633409D01*
X180467000Y-65659000D01*
X180467000Y-67028204D01*
X180467971Y-67539542D01*
X180473327Y-67909892D01*
X180486732Y-68167600D01*
X180511852Y-68341010D01*
X180552352Y-68458468D01*
X180611896Y-68548317D01*
X180672259Y-68615704D01*
X180877518Y-68834000D01*
X184035817Y-68834000D01*
X184241075Y-68615512D01*
X184446334Y-68397024D01*
X184446334Y-59421338D01*
X184208779Y-59217002D01*
X184118037Y-59144081D01*
X184022894Y-59090961D01*
X183896478Y-59054506D01*
X183711918Y-59031584D01*
X183442341Y-59019060D01*
X183060875Y-59013801D01*
X182540648Y-59012673D01*
X182456667Y-59012667D01*
X181915218Y-59013474D01*
G36*
X175768000Y-59859333D02*
G01*
X178054000Y-59859333D01*
X178054000Y-63415333D01*
X175937334Y-63415333D01*
X175937334Y-64262000D01*
X178054000Y-64262000D01*
X178054000Y-68072000D01*
X175683334Y-68072000D01*
X175683334Y-68834000D01*
X178985334Y-68834000D01*
X178985334Y-59012667D01*
X175768000Y-59012667D01*
X175768000Y-59859333D01*
G37*
X175768000Y-59859333D02*
X178054000Y-59859333D01*
X178054000Y-63415333D01*
X175937334Y-63415333D01*
X175937334Y-64262000D01*
X178054000Y-64262000D01*
X178054000Y-68072000D01*
X175683334Y-68072000D01*
X175683334Y-68834000D01*
X178985334Y-68834000D01*
X178985334Y-59012667D01*
X175768000Y-59012667D01*
X175768000Y-59859333D01*
G36*
X184584776Y-77695566D02*
G01*
X184294557Y-77902084D01*
X184257820Y-77937913D01*
X184077581Y-78136385D01*
X184000699Y-78294550D01*
X183999771Y-78479691D01*
X184009660Y-78547196D01*
X184134646Y-78880360D01*
X184364831Y-79132836D01*
X184660884Y-79279919D01*
X184983477Y-79296904D01*
X185133140Y-79252891D01*
X185358292Y-79094818D01*
X185551318Y-78855184D01*
X185663064Y-78601257D01*
X185674000Y-78512711D01*
X185606747Y-78195395D01*
X185432502Y-77912446D01*
X185210700Y-77740483D01*
X184877279Y-77644367D01*
X184584776Y-77695566D01*
G37*
X184584776Y-77695566D02*
X184294557Y-77902084D01*
X184257820Y-77937913D01*
X184077581Y-78136385D01*
X184000699Y-78294550D01*
X183999771Y-78479691D01*
X184009660Y-78547196D01*
X184134646Y-78880360D01*
X184364831Y-79132836D01*
X184660884Y-79279919D01*
X184983477Y-79296904D01*
X185133140Y-79252891D01*
X185358292Y-79094818D01*
X185551318Y-78855184D01*
X185663064Y-78601257D01*
X185674000Y-78512711D01*
X185606747Y-78195395D01*
X185432502Y-77912446D01*
X185210700Y-77740483D01*
X184877279Y-77644367D01*
X184584776Y-77695566D01*
G36*
X182480228Y-75062042D02*
G01*
X182244595Y-75219042D01*
X182041262Y-75520438D01*
X181981487Y-75840950D01*
X182047535Y-76148126D01*
X182221673Y-76409516D01*
X182486167Y-76592670D01*
X182823283Y-76665137D01*
X183025277Y-76647582D01*
X183261074Y-76528439D01*
X183469370Y-76297640D01*
X183608343Y-76012257D01*
X183642000Y-75805991D01*
X183568562Y-75486644D01*
X183375213Y-75235585D01*
X183102407Y-75069804D01*
X182790594Y-75006293D01*
X182480228Y-75062042D01*
G37*
X182480228Y-75062042D02*
X182244595Y-75219042D01*
X182041262Y-75520438D01*
X181981487Y-75840950D01*
X182047535Y-76148126D01*
X182221673Y-76409516D01*
X182486167Y-76592670D01*
X182823283Y-76665137D01*
X183025277Y-76647582D01*
X183261074Y-76528439D01*
X183469370Y-76297640D01*
X183608343Y-76012257D01*
X183642000Y-75805991D01*
X183568562Y-75486644D01*
X183375213Y-75235585D01*
X183102407Y-75069804D01*
X182790594Y-75006293D01*
X182480228Y-75062042D01*
G36*
X185330391Y-74328986D02*
G01*
X185126163Y-74524572D01*
X185009142Y-74789363D01*
X184996667Y-74908145D01*
X185068594Y-75158088D01*
X185248538Y-75376340D01*
X185482743Y-75507163D01*
X185589334Y-75522667D01*
X185755141Y-75472626D01*
X185953038Y-75351772D01*
X185958916Y-75347188D01*
X186131461Y-75120663D01*
X186174277Y-74853312D01*
X186103252Y-74590730D01*
X185934277Y-74378512D01*
X185683242Y-74262251D01*
X185577469Y-74252667D01*
X185330391Y-74328986D01*
G37*
X185330391Y-74328986D02*
X185126163Y-74524572D01*
X185009142Y-74789363D01*
X184996667Y-74908145D01*
X185068594Y-75158088D01*
X185248538Y-75376340D01*
X185482743Y-75507163D01*
X185589334Y-75522667D01*
X185755141Y-75472626D01*
X185953038Y-75351772D01*
X185958916Y-75347188D01*
X186131461Y-75120663D01*
X186174277Y-74853312D01*
X186103252Y-74590730D01*
X185934277Y-74378512D01*
X185683242Y-74262251D01*
X185577469Y-74252667D01*
X185330391Y-74328986D01*
M02*
