G04 #@! TF.GenerationSoftware,KiCad,Pcbnew,5.1.9+dfsg1-1*
G04 #@! TF.CreationDate,2022-06-21T09:56:44-04:00*
G04 #@! TF.ProjectId,VS_robot_controller,56535f72-6f62-46f7-945f-636f6e74726f,rev?*
G04 #@! TF.SameCoordinates,Original*
G04 #@! TF.FileFunction,Copper,L2,Bot*
G04 #@! TF.FilePolarity,Positive*
%FSLAX46Y46*%
G04 Gerber Fmt 4.6, Leading zero omitted, Abs format (unit mm)*
G04 Created by KiCad (PCBNEW 5.1.9+dfsg1-1) date 2022-06-21 09:56:44*
%MOMM*%
%LPD*%
G01*
G04 APERTURE LIST*
G04 #@! TA.AperFunction,ComponentPad*
%ADD10R,1.524000X1.524000*%
G04 #@! TD*
G04 #@! TA.AperFunction,ComponentPad*
%ADD11C,1.524000*%
G04 #@! TD*
G04 #@! TA.AperFunction,ComponentPad*
%ADD12O,1.700000X1.700000*%
G04 #@! TD*
G04 #@! TA.AperFunction,ComponentPad*
%ADD13R,1.700000X1.700000*%
G04 #@! TD*
G04 #@! TA.AperFunction,ComponentPad*
%ADD14R,1.800000X1.800000*%
G04 #@! TD*
G04 #@! TA.AperFunction,ComponentPad*
%ADD15C,1.800000*%
G04 #@! TD*
G04 #@! TA.AperFunction,ComponentPad*
%ADD16C,2.400000*%
G04 #@! TD*
G04 #@! TA.AperFunction,ComponentPad*
%ADD17O,2.400000X2.400000*%
G04 #@! TD*
G04 #@! TA.AperFunction,ComponentPad*
%ADD18C,1.879600*%
G04 #@! TD*
G04 #@! TA.AperFunction,ViaPad*
%ADD19C,0.800000*%
G04 #@! TD*
G04 #@! TA.AperFunction,Conductor*
%ADD20C,0.250000*%
G04 #@! TD*
G04 APERTURE END LIST*
D10*
X215900000Y-88800000D03*
D11*
X215900000Y-86260000D03*
X218440000Y-88800000D03*
X218440000Y-86260000D03*
X220980000Y-88800000D03*
X220980000Y-86260000D03*
X223520000Y-88800000D03*
X223520000Y-86260000D03*
D12*
X238000000Y-57840000D03*
X238000000Y-60380000D03*
X238000000Y-62920000D03*
X238000000Y-65460000D03*
D13*
X238000000Y-68000000D03*
D14*
X187500000Y-103000000D03*
D15*
X184960000Y-103000000D03*
D13*
X173000000Y-58000000D03*
D12*
X173000000Y-60540000D03*
X173000000Y-63080000D03*
X173000000Y-65620000D03*
X173000000Y-68160000D03*
D16*
X182500000Y-96000000D03*
D17*
X190120000Y-96000000D03*
D13*
X207518000Y-45720000D03*
D12*
X204978000Y-45720000D03*
X202438000Y-45720000D03*
X224880000Y-101800000D03*
X222340000Y-101800000D03*
D13*
X219800000Y-101800000D03*
X180500000Y-44000000D03*
D12*
X183040000Y-44000000D03*
D18*
X182626000Y-60198000D03*
X182626000Y-62738000D03*
X182626000Y-65278000D03*
X182626000Y-67818000D03*
X182626000Y-70358000D03*
X182626000Y-72898000D03*
X182626000Y-75438000D03*
X182626000Y-77978000D03*
X182626000Y-80518000D03*
X182626000Y-83058000D03*
X182626000Y-85598000D03*
X182626000Y-88138000D03*
X197866000Y-88138000D03*
X197866000Y-85598000D03*
X197866000Y-83058000D03*
X197866000Y-80518000D03*
X197866000Y-77978000D03*
X197866000Y-75438000D03*
X197866000Y-72898000D03*
X197866000Y-70358000D03*
X197866000Y-67818000D03*
X197866000Y-65278000D03*
X197866000Y-62738000D03*
X197866000Y-60198000D03*
X194945000Y-81915000D03*
X194945000Y-79375000D03*
X194945000Y-68961000D03*
X194945000Y-71501000D03*
X183896000Y-57658000D03*
X186436000Y-57658000D03*
X188976000Y-57658000D03*
X191516000Y-57658000D03*
X194056000Y-57658000D03*
X196596000Y-57658000D03*
D19*
X210566000Y-81280000D03*
D20*
X191071189Y-61023189D02*
X197866000Y-67818000D01*
X185323095Y-61023189D02*
X191071189Y-61023189D01*
X181124905Y-56824999D02*
X185323095Y-61023189D01*
X171889999Y-56824999D02*
X181124905Y-56824999D01*
X170885010Y-57829988D02*
X171889999Y-56824999D01*
X170885010Y-63505010D02*
X170885010Y-57829988D01*
X173000000Y-65620000D02*
X170885010Y-63505010D01*
X236635001Y-61744999D02*
X238000000Y-60380000D01*
X203939001Y-61744999D02*
X236635001Y-61744999D01*
X197866000Y-67818000D02*
X203939001Y-61744999D01*
X215900000Y-92820000D02*
X224880000Y-101800000D01*
X215900000Y-88800000D02*
X215900000Y-92820000D01*
X183896000Y-47396000D02*
X180500000Y-44000000D01*
X183896000Y-57658000D02*
X183896000Y-47396000D01*
X183896000Y-57658000D02*
X186436000Y-57658000D01*
X197866000Y-70010094D02*
X197866000Y-70358000D01*
X189329105Y-61473199D02*
X197866000Y-70010094D01*
X173933199Y-61473199D02*
X189329105Y-61473199D01*
X173000000Y-60540000D02*
X173933199Y-61473199D01*
X194470094Y-72898000D02*
X197866000Y-72898000D01*
X185574895Y-64002801D02*
X194470094Y-72898000D01*
X173922801Y-64002801D02*
X185574895Y-64002801D01*
X173000000Y-63080000D02*
X173922801Y-64002801D01*
X225482000Y-75438000D02*
X238000000Y-62920000D01*
X197866000Y-75438000D02*
X225482000Y-75438000D01*
X225482000Y-77978000D02*
X197866000Y-77978000D01*
X238000000Y-65460000D02*
X225482000Y-77978000D01*
X213460000Y-81280000D02*
X218440000Y-86260000D01*
X210566000Y-81280000D02*
X213460000Y-81280000D01*
X219527001Y-87347001D02*
X214093001Y-87347001D01*
X220980000Y-88800000D02*
X219527001Y-87347001D01*
X207264000Y-80518000D02*
X197866000Y-80518000D01*
X214093001Y-87347001D02*
X207264000Y-80518000D01*
X213973199Y-79253199D02*
X220980000Y-86260000D01*
X197258895Y-79253199D02*
X213973199Y-79253199D01*
X196601199Y-79910895D02*
X197258895Y-79253199D01*
X196601199Y-84333199D02*
X196601199Y-79910895D01*
X197866000Y-85598000D02*
X196601199Y-84333199D01*
X226055001Y-91335001D02*
X223520000Y-88800000D01*
X226055001Y-102364001D02*
X226055001Y-91335001D01*
X225444001Y-102975001D02*
X226055001Y-102364001D01*
X224315999Y-102975001D02*
X225444001Y-102975001D01*
X223704999Y-102364001D02*
X224315999Y-102975001D01*
X223704999Y-101261409D02*
X223704999Y-102364001D01*
X205501590Y-83058000D02*
X223704999Y-101261409D01*
X197866000Y-83058000D02*
X205501590Y-83058000D01*
X182626000Y-80518000D02*
X199136000Y-97028000D01*
X222085002Y-101800000D02*
X222340000Y-101800000D01*
X217313002Y-97028000D02*
X222085002Y-101800000D01*
X199136000Y-97028000D02*
X217313002Y-97028000D01*
M02*
