G04 #@! TF.GenerationSoftware,KiCad,Pcbnew,5.1.2*
G04 #@! TF.CreationDate,2019-11-12T08:33:06-05:00*
G04 #@! TF.ProjectId,VS_robot_controller,56535f72-6f62-46f7-945f-636f6e74726f,rev?*
G04 #@! TF.SameCoordinates,Original*
G04 #@! TF.FileFunction,Soldermask,Top*
G04 #@! TF.FilePolarity,Negative*
%FSLAX46Y46*%
G04 Gerber Fmt 4.6, Leading zero omitted, Abs format (unit mm)*
G04 Created by KiCad (PCBNEW 5.1.2) date 2019-11-12 08:33:06*
%MOMM*%
%LPD*%
G04 APERTURE LIST*
%ADD10C,0.100000*%
G04 APERTURE END LIST*
D10*
G36*
X188451000Y-103951000D02*
G01*
X186549000Y-103951000D01*
X186549000Y-102049000D01*
X188451000Y-102049000D01*
X188451000Y-103951000D01*
X188451000Y-103951000D01*
G37*
G36*
X185237395Y-102085546D02*
G01*
X185410466Y-102157234D01*
X185410467Y-102157235D01*
X185566227Y-102261310D01*
X185698690Y-102393773D01*
X185698691Y-102393775D01*
X185802766Y-102549534D01*
X185874454Y-102722605D01*
X185911000Y-102906333D01*
X185911000Y-103093667D01*
X185874454Y-103277395D01*
X185802766Y-103450466D01*
X185802765Y-103450467D01*
X185698690Y-103606227D01*
X185566227Y-103738690D01*
X185487818Y-103791081D01*
X185410466Y-103842766D01*
X185237395Y-103914454D01*
X185053667Y-103951000D01*
X184866333Y-103951000D01*
X184682605Y-103914454D01*
X184509534Y-103842766D01*
X184432182Y-103791081D01*
X184353773Y-103738690D01*
X184221310Y-103606227D01*
X184117235Y-103450467D01*
X184117234Y-103450466D01*
X184045546Y-103277395D01*
X184009000Y-103093667D01*
X184009000Y-102906333D01*
X184045546Y-102722605D01*
X184117234Y-102549534D01*
X184221309Y-102393775D01*
X184221310Y-102393773D01*
X184353773Y-102261310D01*
X184509533Y-102157235D01*
X184509534Y-102157234D01*
X184682605Y-102085546D01*
X184866333Y-102049000D01*
X185053667Y-102049000D01*
X185237395Y-102085546D01*
X185237395Y-102085546D01*
G37*
G36*
X222450442Y-100905518D02*
G01*
X222516627Y-100912037D01*
X222686466Y-100963557D01*
X222842991Y-101047222D01*
X222878729Y-101076552D01*
X222980186Y-101159814D01*
X223063448Y-101261271D01*
X223092778Y-101297009D01*
X223176443Y-101453534D01*
X223227963Y-101623373D01*
X223245359Y-101800000D01*
X223227963Y-101976627D01*
X223176443Y-102146466D01*
X223092778Y-102302991D01*
X223063448Y-102338729D01*
X222980186Y-102440186D01*
X222878729Y-102523448D01*
X222842991Y-102552778D01*
X222686466Y-102636443D01*
X222516627Y-102687963D01*
X222450443Y-102694481D01*
X222384260Y-102701000D01*
X222295740Y-102701000D01*
X222229557Y-102694481D01*
X222163373Y-102687963D01*
X221993534Y-102636443D01*
X221837009Y-102552778D01*
X221801271Y-102523448D01*
X221699814Y-102440186D01*
X221616552Y-102338729D01*
X221587222Y-102302991D01*
X221503557Y-102146466D01*
X221452037Y-101976627D01*
X221434641Y-101800000D01*
X221452037Y-101623373D01*
X221503557Y-101453534D01*
X221587222Y-101297009D01*
X221616552Y-101261271D01*
X221699814Y-101159814D01*
X221801271Y-101076552D01*
X221837009Y-101047222D01*
X221993534Y-100963557D01*
X222163373Y-100912037D01*
X222229557Y-100905519D01*
X222295740Y-100899000D01*
X222384260Y-100899000D01*
X222450442Y-100905518D01*
X222450442Y-100905518D01*
G37*
G36*
X224990442Y-100905518D02*
G01*
X225056627Y-100912037D01*
X225226466Y-100963557D01*
X225382991Y-101047222D01*
X225418729Y-101076552D01*
X225520186Y-101159814D01*
X225603448Y-101261271D01*
X225632778Y-101297009D01*
X225716443Y-101453534D01*
X225767963Y-101623373D01*
X225785359Y-101800000D01*
X225767963Y-101976627D01*
X225716443Y-102146466D01*
X225632778Y-102302991D01*
X225603448Y-102338729D01*
X225520186Y-102440186D01*
X225418729Y-102523448D01*
X225382991Y-102552778D01*
X225226466Y-102636443D01*
X225056627Y-102687963D01*
X224990443Y-102694481D01*
X224924260Y-102701000D01*
X224835740Y-102701000D01*
X224769557Y-102694481D01*
X224703373Y-102687963D01*
X224533534Y-102636443D01*
X224377009Y-102552778D01*
X224341271Y-102523448D01*
X224239814Y-102440186D01*
X224156552Y-102338729D01*
X224127222Y-102302991D01*
X224043557Y-102146466D01*
X223992037Y-101976627D01*
X223974641Y-101800000D01*
X223992037Y-101623373D01*
X224043557Y-101453534D01*
X224127222Y-101297009D01*
X224156552Y-101261271D01*
X224239814Y-101159814D01*
X224341271Y-101076552D01*
X224377009Y-101047222D01*
X224533534Y-100963557D01*
X224703373Y-100912037D01*
X224769557Y-100905519D01*
X224835740Y-100899000D01*
X224924260Y-100899000D01*
X224990442Y-100905518D01*
X224990442Y-100905518D01*
G37*
G36*
X220701000Y-102701000D02*
G01*
X218899000Y-102701000D01*
X218899000Y-100899000D01*
X220701000Y-100899000D01*
X220701000Y-102701000D01*
X220701000Y-102701000D01*
G37*
G36*
X190365239Y-94767101D02*
G01*
X190601053Y-94838634D01*
X190818381Y-94954799D01*
X191008871Y-95111129D01*
X191165201Y-95301619D01*
X191281366Y-95518947D01*
X191352899Y-95754761D01*
X191377053Y-96000000D01*
X191352899Y-96245239D01*
X191281366Y-96481053D01*
X191165201Y-96698381D01*
X191008871Y-96888871D01*
X190818381Y-97045201D01*
X190601053Y-97161366D01*
X190365239Y-97232899D01*
X190181457Y-97251000D01*
X190058543Y-97251000D01*
X189874761Y-97232899D01*
X189638947Y-97161366D01*
X189421619Y-97045201D01*
X189231129Y-96888871D01*
X189074799Y-96698381D01*
X188958634Y-96481053D01*
X188887101Y-96245239D01*
X188862947Y-96000000D01*
X188887101Y-95754761D01*
X188958634Y-95518947D01*
X189074799Y-95301619D01*
X189231129Y-95111129D01*
X189421619Y-94954799D01*
X189638947Y-94838634D01*
X189874761Y-94767101D01*
X190058543Y-94749000D01*
X190181457Y-94749000D01*
X190365239Y-94767101D01*
X190365239Y-94767101D01*
G37*
G36*
X182864903Y-94797075D02*
G01*
X182965236Y-94838634D01*
X183092571Y-94891378D01*
X183297466Y-95028285D01*
X183471715Y-95202534D01*
X183608622Y-95407429D01*
X183702925Y-95635097D01*
X183751000Y-95876787D01*
X183751000Y-96123213D01*
X183702925Y-96364903D01*
X183608622Y-96592571D01*
X183471715Y-96797466D01*
X183297466Y-96971715D01*
X183092571Y-97108622D01*
X183092570Y-97108623D01*
X183092569Y-97108623D01*
X182864903Y-97202925D01*
X182623214Y-97251000D01*
X182376786Y-97251000D01*
X182135097Y-97202925D01*
X181907431Y-97108623D01*
X181907430Y-97108623D01*
X181907429Y-97108622D01*
X181702534Y-96971715D01*
X181528285Y-96797466D01*
X181391378Y-96592571D01*
X181297075Y-96364903D01*
X181249000Y-96123213D01*
X181249000Y-95876787D01*
X181297075Y-95635097D01*
X181391378Y-95407429D01*
X181528285Y-95202534D01*
X181702534Y-95028285D01*
X181907429Y-94891378D01*
X182034765Y-94838634D01*
X182135097Y-94797075D01*
X182376786Y-94749000D01*
X182623214Y-94749000D01*
X182864903Y-94797075D01*
X182864903Y-94797075D01*
G37*
G36*
X192972135Y-87555778D02*
G01*
X193123232Y-87601613D01*
X193262483Y-87676044D01*
X193384538Y-87776212D01*
X193484706Y-87898267D01*
X193559137Y-88037518D01*
X193604972Y-88188615D01*
X193616570Y-88306375D01*
X193616570Y-89083625D01*
X193604972Y-89201385D01*
X193559137Y-89352482D01*
X193484706Y-89491733D01*
X193384538Y-89613788D01*
X193262482Y-89713956D01*
X193123231Y-89788387D01*
X192972134Y-89834222D01*
X192815000Y-89849698D01*
X192657865Y-89834222D01*
X192506768Y-89788387D01*
X192367517Y-89713956D01*
X192245462Y-89613788D01*
X192145294Y-89491732D01*
X192070863Y-89352481D01*
X192025028Y-89201384D01*
X192013430Y-89083624D01*
X192013430Y-88306375D01*
X192025028Y-88188615D01*
X192025028Y-88188614D01*
X192070863Y-88037519D01*
X192145293Y-87898271D01*
X192145295Y-87898267D01*
X192245463Y-87776212D01*
X192367518Y-87676044D01*
X192506769Y-87601613D01*
X192657866Y-87555778D01*
X192815000Y-87540302D01*
X192972135Y-87555778D01*
X192972135Y-87555778D01*
G37*
G36*
X195512135Y-87555778D02*
G01*
X195663232Y-87601613D01*
X195802483Y-87676044D01*
X195924538Y-87776212D01*
X196024706Y-87898267D01*
X196099137Y-88037518D01*
X196144972Y-88188615D01*
X196156570Y-88306375D01*
X196156570Y-89083625D01*
X196144972Y-89201385D01*
X196099137Y-89352482D01*
X196024706Y-89491733D01*
X195924538Y-89613788D01*
X195802482Y-89713956D01*
X195663231Y-89788387D01*
X195512134Y-89834222D01*
X195355000Y-89849698D01*
X195197865Y-89834222D01*
X195046768Y-89788387D01*
X194907517Y-89713956D01*
X194785462Y-89613788D01*
X194685294Y-89491732D01*
X194610863Y-89352481D01*
X194565028Y-89201384D01*
X194553430Y-89083624D01*
X194553430Y-88306375D01*
X194565028Y-88188615D01*
X194565028Y-88188614D01*
X194610863Y-88037519D01*
X194685293Y-87898271D01*
X194685295Y-87898267D01*
X194785463Y-87776212D01*
X194907518Y-87676044D01*
X195046769Y-87601613D01*
X195197866Y-87555778D01*
X195355000Y-87540302D01*
X195512135Y-87555778D01*
X195512135Y-87555778D01*
G37*
G36*
X190432135Y-87555778D02*
G01*
X190583232Y-87601613D01*
X190722483Y-87676044D01*
X190844538Y-87776212D01*
X190944706Y-87898267D01*
X191019137Y-88037518D01*
X191064972Y-88188615D01*
X191076570Y-88306375D01*
X191076570Y-89083625D01*
X191064972Y-89201385D01*
X191019137Y-89352482D01*
X190944706Y-89491733D01*
X190844538Y-89613788D01*
X190722482Y-89713956D01*
X190583231Y-89788387D01*
X190432134Y-89834222D01*
X190275000Y-89849698D01*
X190117865Y-89834222D01*
X189966768Y-89788387D01*
X189827517Y-89713956D01*
X189705462Y-89613788D01*
X189605294Y-89491732D01*
X189530863Y-89352481D01*
X189485028Y-89201384D01*
X189473430Y-89083624D01*
X189473430Y-88306375D01*
X189485028Y-88188615D01*
X189485028Y-88188614D01*
X189530863Y-88037519D01*
X189605293Y-87898271D01*
X189605295Y-87898267D01*
X189705463Y-87776212D01*
X189827518Y-87676044D01*
X189966769Y-87601613D01*
X190117866Y-87555778D01*
X190275000Y-87540302D01*
X190432135Y-87555778D01*
X190432135Y-87555778D01*
G37*
G36*
X216713000Y-89613000D02*
G01*
X215087000Y-89613000D01*
X215087000Y-87987000D01*
X216713000Y-87987000D01*
X216713000Y-89613000D01*
X216713000Y-89613000D01*
G37*
G36*
X218677142Y-88018242D02*
G01*
X218825101Y-88079529D01*
X218958255Y-88168499D01*
X219071501Y-88281745D01*
X219160471Y-88414899D01*
X219221758Y-88562858D01*
X219253000Y-88719925D01*
X219253000Y-88880075D01*
X219221758Y-89037142D01*
X219160471Y-89185101D01*
X219071501Y-89318255D01*
X218958255Y-89431501D01*
X218825101Y-89520471D01*
X218677142Y-89581758D01*
X218520075Y-89613000D01*
X218359925Y-89613000D01*
X218202858Y-89581758D01*
X218054899Y-89520471D01*
X217921745Y-89431501D01*
X217808499Y-89318255D01*
X217719529Y-89185101D01*
X217658242Y-89037142D01*
X217627000Y-88880075D01*
X217627000Y-88719925D01*
X217658242Y-88562858D01*
X217719529Y-88414899D01*
X217808499Y-88281745D01*
X217921745Y-88168499D01*
X218054899Y-88079529D01*
X218202858Y-88018242D01*
X218359925Y-87987000D01*
X218520075Y-87987000D01*
X218677142Y-88018242D01*
X218677142Y-88018242D01*
G37*
G36*
X221217142Y-88018242D02*
G01*
X221365101Y-88079529D01*
X221498255Y-88168499D01*
X221611501Y-88281745D01*
X221700471Y-88414899D01*
X221761758Y-88562858D01*
X221793000Y-88719925D01*
X221793000Y-88880075D01*
X221761758Y-89037142D01*
X221700471Y-89185101D01*
X221611501Y-89318255D01*
X221498255Y-89431501D01*
X221365101Y-89520471D01*
X221217142Y-89581758D01*
X221060075Y-89613000D01*
X220899925Y-89613000D01*
X220742858Y-89581758D01*
X220594899Y-89520471D01*
X220461745Y-89431501D01*
X220348499Y-89318255D01*
X220259529Y-89185101D01*
X220198242Y-89037142D01*
X220167000Y-88880075D01*
X220167000Y-88719925D01*
X220198242Y-88562858D01*
X220259529Y-88414899D01*
X220348499Y-88281745D01*
X220461745Y-88168499D01*
X220594899Y-88079529D01*
X220742858Y-88018242D01*
X220899925Y-87987000D01*
X221060075Y-87987000D01*
X221217142Y-88018242D01*
X221217142Y-88018242D01*
G37*
G36*
X223757142Y-88018242D02*
G01*
X223905101Y-88079529D01*
X224038255Y-88168499D01*
X224151501Y-88281745D01*
X224240471Y-88414899D01*
X224301758Y-88562858D01*
X224333000Y-88719925D01*
X224333000Y-88880075D01*
X224301758Y-89037142D01*
X224240471Y-89185101D01*
X224151501Y-89318255D01*
X224038255Y-89431501D01*
X223905101Y-89520471D01*
X223757142Y-89581758D01*
X223600075Y-89613000D01*
X223439925Y-89613000D01*
X223282858Y-89581758D01*
X223134899Y-89520471D01*
X223001745Y-89431501D01*
X222888499Y-89318255D01*
X222799529Y-89185101D01*
X222738242Y-89037142D01*
X222707000Y-88880075D01*
X222707000Y-88719925D01*
X222738242Y-88562858D01*
X222799529Y-88414899D01*
X222888499Y-88281745D01*
X223001745Y-88168499D01*
X223134899Y-88079529D01*
X223282858Y-88018242D01*
X223439925Y-87987000D01*
X223600075Y-87987000D01*
X223757142Y-88018242D01*
X223757142Y-88018242D01*
G37*
G36*
X198322878Y-87897296D02*
G01*
X198401385Y-87905028D01*
X198552482Y-87950863D01*
X198691733Y-88025294D01*
X198813788Y-88125462D01*
X198913956Y-88247517D01*
X198988387Y-88386768D01*
X199034222Y-88537865D01*
X199049698Y-88695000D01*
X199034222Y-88852135D01*
X198988387Y-89003232D01*
X198913956Y-89142483D01*
X198813788Y-89264538D01*
X198691733Y-89364706D01*
X198552482Y-89439137D01*
X198401385Y-89484972D01*
X198332737Y-89491733D01*
X198283626Y-89496570D01*
X197506374Y-89496570D01*
X197457263Y-89491733D01*
X197388615Y-89484972D01*
X197237518Y-89439137D01*
X197098267Y-89364706D01*
X196976212Y-89264538D01*
X196876044Y-89142483D01*
X196801613Y-89003232D01*
X196755778Y-88852135D01*
X196740302Y-88695000D01*
X196755778Y-88537865D01*
X196801613Y-88386768D01*
X196876044Y-88247517D01*
X196976212Y-88125462D01*
X197098267Y-88025294D01*
X197237518Y-87950863D01*
X197388615Y-87905028D01*
X197467122Y-87897296D01*
X197506374Y-87893430D01*
X198283626Y-87893430D01*
X198322878Y-87897296D01*
X198322878Y-87897296D01*
G37*
G36*
X183082878Y-87897296D02*
G01*
X183161385Y-87905028D01*
X183312482Y-87950863D01*
X183451733Y-88025294D01*
X183573788Y-88125462D01*
X183673956Y-88247517D01*
X183748387Y-88386768D01*
X183794222Y-88537865D01*
X183809698Y-88695000D01*
X183794222Y-88852135D01*
X183748387Y-89003232D01*
X183673956Y-89142483D01*
X183573788Y-89264538D01*
X183451733Y-89364706D01*
X183312482Y-89439137D01*
X183161385Y-89484972D01*
X183092737Y-89491733D01*
X183043626Y-89496570D01*
X182266374Y-89496570D01*
X182217263Y-89491733D01*
X182148615Y-89484972D01*
X181997518Y-89439137D01*
X181858267Y-89364706D01*
X181736212Y-89264538D01*
X181636044Y-89142483D01*
X181561613Y-89003232D01*
X181515778Y-88852135D01*
X181500302Y-88695000D01*
X181515778Y-88537865D01*
X181561613Y-88386768D01*
X181636044Y-88247517D01*
X181736212Y-88125462D01*
X181858267Y-88025294D01*
X181997518Y-87950863D01*
X182148615Y-87905028D01*
X182227122Y-87897296D01*
X182266374Y-87893430D01*
X183043626Y-87893430D01*
X183082878Y-87897296D01*
X183082878Y-87897296D01*
G37*
G36*
X221217142Y-85478242D02*
G01*
X221365101Y-85539529D01*
X221498255Y-85628499D01*
X221611501Y-85741745D01*
X221700471Y-85874899D01*
X221761758Y-86022858D01*
X221793000Y-86179925D01*
X221793000Y-86340075D01*
X221761758Y-86497142D01*
X221700471Y-86645101D01*
X221611501Y-86778255D01*
X221498255Y-86891501D01*
X221365101Y-86980471D01*
X221217142Y-87041758D01*
X221060075Y-87073000D01*
X220899925Y-87073000D01*
X220742858Y-87041758D01*
X220594899Y-86980471D01*
X220461745Y-86891501D01*
X220348499Y-86778255D01*
X220259529Y-86645101D01*
X220198242Y-86497142D01*
X220167000Y-86340075D01*
X220167000Y-86179925D01*
X220198242Y-86022858D01*
X220259529Y-85874899D01*
X220348499Y-85741745D01*
X220461745Y-85628499D01*
X220594899Y-85539529D01*
X220742858Y-85478242D01*
X220899925Y-85447000D01*
X221060075Y-85447000D01*
X221217142Y-85478242D01*
X221217142Y-85478242D01*
G37*
G36*
X216137142Y-85478242D02*
G01*
X216285101Y-85539529D01*
X216418255Y-85628499D01*
X216531501Y-85741745D01*
X216620471Y-85874899D01*
X216681758Y-86022858D01*
X216713000Y-86179925D01*
X216713000Y-86340075D01*
X216681758Y-86497142D01*
X216620471Y-86645101D01*
X216531501Y-86778255D01*
X216418255Y-86891501D01*
X216285101Y-86980471D01*
X216137142Y-87041758D01*
X215980075Y-87073000D01*
X215819925Y-87073000D01*
X215662858Y-87041758D01*
X215514899Y-86980471D01*
X215381745Y-86891501D01*
X215268499Y-86778255D01*
X215179529Y-86645101D01*
X215118242Y-86497142D01*
X215087000Y-86340075D01*
X215087000Y-86179925D01*
X215118242Y-86022858D01*
X215179529Y-85874899D01*
X215268499Y-85741745D01*
X215381745Y-85628499D01*
X215514899Y-85539529D01*
X215662858Y-85478242D01*
X215819925Y-85447000D01*
X215980075Y-85447000D01*
X216137142Y-85478242D01*
X216137142Y-85478242D01*
G37*
G36*
X218677142Y-85478242D02*
G01*
X218825101Y-85539529D01*
X218958255Y-85628499D01*
X219071501Y-85741745D01*
X219160471Y-85874899D01*
X219221758Y-86022858D01*
X219253000Y-86179925D01*
X219253000Y-86340075D01*
X219221758Y-86497142D01*
X219160471Y-86645101D01*
X219071501Y-86778255D01*
X218958255Y-86891501D01*
X218825101Y-86980471D01*
X218677142Y-87041758D01*
X218520075Y-87073000D01*
X218359925Y-87073000D01*
X218202858Y-87041758D01*
X218054899Y-86980471D01*
X217921745Y-86891501D01*
X217808499Y-86778255D01*
X217719529Y-86645101D01*
X217658242Y-86497142D01*
X217627000Y-86340075D01*
X217627000Y-86179925D01*
X217658242Y-86022858D01*
X217719529Y-85874899D01*
X217808499Y-85741745D01*
X217921745Y-85628499D01*
X218054899Y-85539529D01*
X218202858Y-85478242D01*
X218359925Y-85447000D01*
X218520075Y-85447000D01*
X218677142Y-85478242D01*
X218677142Y-85478242D01*
G37*
G36*
X223757142Y-85478242D02*
G01*
X223905101Y-85539529D01*
X224038255Y-85628499D01*
X224151501Y-85741745D01*
X224240471Y-85874899D01*
X224301758Y-86022858D01*
X224333000Y-86179925D01*
X224333000Y-86340075D01*
X224301758Y-86497142D01*
X224240471Y-86645101D01*
X224151501Y-86778255D01*
X224038255Y-86891501D01*
X223905101Y-86980471D01*
X223757142Y-87041758D01*
X223600075Y-87073000D01*
X223439925Y-87073000D01*
X223282858Y-87041758D01*
X223134899Y-86980471D01*
X223001745Y-86891501D01*
X222888499Y-86778255D01*
X222799529Y-86645101D01*
X222738242Y-86497142D01*
X222707000Y-86340075D01*
X222707000Y-86179925D01*
X222738242Y-86022858D01*
X222799529Y-85874899D01*
X222888499Y-85741745D01*
X223001745Y-85628499D01*
X223134899Y-85539529D01*
X223282858Y-85478242D01*
X223439925Y-85447000D01*
X223600075Y-85447000D01*
X223757142Y-85478242D01*
X223757142Y-85478242D01*
G37*
G36*
X198322878Y-85357296D02*
G01*
X198401385Y-85365028D01*
X198552482Y-85410863D01*
X198691733Y-85485294D01*
X198813788Y-85585462D01*
X198913956Y-85707517D01*
X198988387Y-85846768D01*
X199034222Y-85997865D01*
X199049698Y-86155000D01*
X199034222Y-86312135D01*
X198988387Y-86463232D01*
X198913956Y-86602483D01*
X198813788Y-86724538D01*
X198691733Y-86824706D01*
X198552482Y-86899137D01*
X198401385Y-86944972D01*
X198322878Y-86952704D01*
X198283626Y-86956570D01*
X197506374Y-86956570D01*
X197467122Y-86952704D01*
X197388615Y-86944972D01*
X197237518Y-86899137D01*
X197098267Y-86824706D01*
X196976212Y-86724538D01*
X196876044Y-86602483D01*
X196801613Y-86463232D01*
X196755778Y-86312135D01*
X196740302Y-86155000D01*
X196755778Y-85997865D01*
X196801613Y-85846768D01*
X196876044Y-85707517D01*
X196976212Y-85585462D01*
X197098267Y-85485294D01*
X197237518Y-85410863D01*
X197388615Y-85365028D01*
X197467122Y-85357296D01*
X197506374Y-85353430D01*
X198283626Y-85353430D01*
X198322878Y-85357296D01*
X198322878Y-85357296D01*
G37*
G36*
X183082878Y-85357296D02*
G01*
X183161385Y-85365028D01*
X183312482Y-85410863D01*
X183451733Y-85485294D01*
X183573788Y-85585462D01*
X183673956Y-85707517D01*
X183748387Y-85846768D01*
X183794222Y-85997865D01*
X183809698Y-86155000D01*
X183794222Y-86312135D01*
X183748387Y-86463232D01*
X183673956Y-86602483D01*
X183573788Y-86724538D01*
X183451733Y-86824706D01*
X183312482Y-86899137D01*
X183161385Y-86944972D01*
X183082878Y-86952704D01*
X183043626Y-86956570D01*
X182266374Y-86956570D01*
X182227122Y-86952704D01*
X182148615Y-86944972D01*
X181997518Y-86899137D01*
X181858267Y-86824706D01*
X181736212Y-86724538D01*
X181636044Y-86602483D01*
X181561613Y-86463232D01*
X181515778Y-86312135D01*
X181500302Y-86155000D01*
X181515778Y-85997865D01*
X181561613Y-85846768D01*
X181636044Y-85707517D01*
X181736212Y-85585462D01*
X181858267Y-85485294D01*
X181997518Y-85410863D01*
X182148615Y-85365028D01*
X182227122Y-85357296D01*
X182266374Y-85353430D01*
X183043626Y-85353430D01*
X183082878Y-85357296D01*
X183082878Y-85357296D01*
G37*
G36*
X183082878Y-82817296D02*
G01*
X183161385Y-82825028D01*
X183312482Y-82870863D01*
X183451733Y-82945294D01*
X183573788Y-83045462D01*
X183673956Y-83167517D01*
X183748387Y-83306768D01*
X183794222Y-83457865D01*
X183809698Y-83615000D01*
X183794222Y-83772135D01*
X183748387Y-83923232D01*
X183673956Y-84062483D01*
X183573788Y-84184538D01*
X183451733Y-84284706D01*
X183312482Y-84359137D01*
X183161385Y-84404972D01*
X183082878Y-84412704D01*
X183043626Y-84416570D01*
X182266374Y-84416570D01*
X182227122Y-84412704D01*
X182148615Y-84404972D01*
X181997518Y-84359137D01*
X181858267Y-84284706D01*
X181736212Y-84184538D01*
X181636044Y-84062483D01*
X181561613Y-83923232D01*
X181515778Y-83772135D01*
X181500302Y-83615000D01*
X181515778Y-83457865D01*
X181561613Y-83306768D01*
X181636044Y-83167517D01*
X181736212Y-83045462D01*
X181858267Y-82945294D01*
X181997518Y-82870863D01*
X182148615Y-82825028D01*
X182227122Y-82817296D01*
X182266374Y-82813430D01*
X183043626Y-82813430D01*
X183082878Y-82817296D01*
X183082878Y-82817296D01*
G37*
G36*
X198322878Y-82817296D02*
G01*
X198401385Y-82825028D01*
X198552482Y-82870863D01*
X198691733Y-82945294D01*
X198813788Y-83045462D01*
X198913956Y-83167517D01*
X198988387Y-83306768D01*
X199034222Y-83457865D01*
X199049698Y-83615000D01*
X199034222Y-83772135D01*
X198988387Y-83923232D01*
X198913956Y-84062483D01*
X198813788Y-84184538D01*
X198691733Y-84284706D01*
X198552482Y-84359137D01*
X198401385Y-84404972D01*
X198322878Y-84412704D01*
X198283626Y-84416570D01*
X197506374Y-84416570D01*
X197467122Y-84412704D01*
X197388615Y-84404972D01*
X197237518Y-84359137D01*
X197098267Y-84284706D01*
X196976212Y-84184538D01*
X196876044Y-84062483D01*
X196801613Y-83923232D01*
X196755778Y-83772135D01*
X196740302Y-83615000D01*
X196755778Y-83457865D01*
X196801613Y-83306768D01*
X196876044Y-83167517D01*
X196976212Y-83045462D01*
X197098267Y-82945294D01*
X197237518Y-82870863D01*
X197388615Y-82825028D01*
X197467122Y-82817296D01*
X197506374Y-82813430D01*
X198283626Y-82813430D01*
X198322878Y-82817296D01*
X198322878Y-82817296D01*
G37*
G36*
X195782878Y-81547296D02*
G01*
X195861385Y-81555028D01*
X196012482Y-81600863D01*
X196151733Y-81675294D01*
X196273788Y-81775462D01*
X196373956Y-81897517D01*
X196448387Y-82036768D01*
X196494222Y-82187865D01*
X196509698Y-82345000D01*
X196494222Y-82502135D01*
X196448387Y-82653232D01*
X196373956Y-82792483D01*
X196273788Y-82914538D01*
X196151733Y-83014706D01*
X196012482Y-83089137D01*
X195861385Y-83134972D01*
X195782878Y-83142704D01*
X195743626Y-83146570D01*
X194966374Y-83146570D01*
X194927122Y-83142704D01*
X194848615Y-83134972D01*
X194697518Y-83089137D01*
X194558267Y-83014706D01*
X194436212Y-82914538D01*
X194336044Y-82792483D01*
X194261613Y-82653232D01*
X194215778Y-82502135D01*
X194200302Y-82345000D01*
X194215778Y-82187865D01*
X194261613Y-82036768D01*
X194336044Y-81897517D01*
X194436212Y-81775462D01*
X194558267Y-81675294D01*
X194697518Y-81600863D01*
X194848615Y-81555028D01*
X194927122Y-81547296D01*
X194966374Y-81543430D01*
X195743626Y-81543430D01*
X195782878Y-81547296D01*
X195782878Y-81547296D01*
G37*
G36*
X198322878Y-80277296D02*
G01*
X198401385Y-80285028D01*
X198552482Y-80330863D01*
X198691733Y-80405294D01*
X198813788Y-80505462D01*
X198913956Y-80627517D01*
X198988387Y-80766768D01*
X199034222Y-80917865D01*
X199049698Y-81075000D01*
X199034222Y-81232135D01*
X198988387Y-81383232D01*
X198913956Y-81522483D01*
X198813788Y-81644538D01*
X198691733Y-81744706D01*
X198552482Y-81819137D01*
X198401385Y-81864972D01*
X198322878Y-81872704D01*
X198283626Y-81876570D01*
X197506374Y-81876570D01*
X197467122Y-81872704D01*
X197388615Y-81864972D01*
X197237518Y-81819137D01*
X197098267Y-81744706D01*
X196976212Y-81644538D01*
X196876044Y-81522483D01*
X196801613Y-81383232D01*
X196755778Y-81232135D01*
X196740302Y-81075000D01*
X196755778Y-80917865D01*
X196801613Y-80766768D01*
X196876044Y-80627517D01*
X196976212Y-80505462D01*
X197098267Y-80405294D01*
X197237518Y-80330863D01*
X197388615Y-80285028D01*
X197467122Y-80277296D01*
X197506374Y-80273430D01*
X198283626Y-80273430D01*
X198322878Y-80277296D01*
X198322878Y-80277296D01*
G37*
G36*
X183082878Y-80277296D02*
G01*
X183161385Y-80285028D01*
X183312482Y-80330863D01*
X183451733Y-80405294D01*
X183573788Y-80505462D01*
X183673956Y-80627517D01*
X183748387Y-80766768D01*
X183794222Y-80917865D01*
X183809698Y-81075000D01*
X183794222Y-81232135D01*
X183748387Y-81383232D01*
X183673956Y-81522483D01*
X183573788Y-81644538D01*
X183451733Y-81744706D01*
X183312482Y-81819137D01*
X183161385Y-81864972D01*
X183082878Y-81872704D01*
X183043626Y-81876570D01*
X182266374Y-81876570D01*
X182227122Y-81872704D01*
X182148615Y-81864972D01*
X181997518Y-81819137D01*
X181858267Y-81744706D01*
X181736212Y-81644538D01*
X181636044Y-81522483D01*
X181561613Y-81383232D01*
X181515778Y-81232135D01*
X181500302Y-81075000D01*
X181515778Y-80917865D01*
X181561613Y-80766768D01*
X181636044Y-80627517D01*
X181736212Y-80505462D01*
X181858267Y-80405294D01*
X181997518Y-80330863D01*
X182148615Y-80285028D01*
X182227122Y-80277296D01*
X182266374Y-80273430D01*
X183043626Y-80273430D01*
X183082878Y-80277296D01*
X183082878Y-80277296D01*
G37*
G36*
X195782878Y-79007296D02*
G01*
X195861385Y-79015028D01*
X196012482Y-79060863D01*
X196151733Y-79135294D01*
X196273788Y-79235462D01*
X196373956Y-79357517D01*
X196448387Y-79496768D01*
X196494222Y-79647865D01*
X196509698Y-79805000D01*
X196494222Y-79962135D01*
X196448387Y-80113232D01*
X196373956Y-80252483D01*
X196273788Y-80374538D01*
X196151733Y-80474706D01*
X196012482Y-80549137D01*
X195861385Y-80594972D01*
X195782878Y-80602704D01*
X195743626Y-80606570D01*
X194966374Y-80606570D01*
X194927122Y-80602704D01*
X194848615Y-80594972D01*
X194697518Y-80549137D01*
X194558267Y-80474706D01*
X194436212Y-80374538D01*
X194336044Y-80252483D01*
X194261613Y-80113232D01*
X194215778Y-79962135D01*
X194200302Y-79805000D01*
X194215778Y-79647865D01*
X194261613Y-79496768D01*
X194336044Y-79357517D01*
X194436212Y-79235462D01*
X194558267Y-79135294D01*
X194697518Y-79060863D01*
X194848615Y-79015028D01*
X194927122Y-79007296D01*
X194966374Y-79003430D01*
X195743626Y-79003430D01*
X195782878Y-79007296D01*
X195782878Y-79007296D01*
G37*
G36*
X183082878Y-77737296D02*
G01*
X183161385Y-77745028D01*
X183312482Y-77790863D01*
X183451733Y-77865294D01*
X183573788Y-77965462D01*
X183673956Y-78087517D01*
X183748387Y-78226768D01*
X183794222Y-78377865D01*
X183809698Y-78535000D01*
X183794222Y-78692135D01*
X183748387Y-78843232D01*
X183673956Y-78982483D01*
X183573788Y-79104538D01*
X183451733Y-79204706D01*
X183312482Y-79279137D01*
X183161385Y-79324972D01*
X183082878Y-79332704D01*
X183043626Y-79336570D01*
X182266374Y-79336570D01*
X182227122Y-79332704D01*
X182148615Y-79324972D01*
X181997518Y-79279137D01*
X181858267Y-79204706D01*
X181736212Y-79104538D01*
X181636044Y-78982483D01*
X181561613Y-78843232D01*
X181515778Y-78692135D01*
X181500302Y-78535000D01*
X181515778Y-78377865D01*
X181561613Y-78226768D01*
X181636044Y-78087517D01*
X181736212Y-77965462D01*
X181858267Y-77865294D01*
X181997518Y-77790863D01*
X182148615Y-77745028D01*
X182227122Y-77737296D01*
X182266374Y-77733430D01*
X183043626Y-77733430D01*
X183082878Y-77737296D01*
X183082878Y-77737296D01*
G37*
G36*
X198322878Y-77737296D02*
G01*
X198401385Y-77745028D01*
X198552482Y-77790863D01*
X198691733Y-77865294D01*
X198813788Y-77965462D01*
X198913956Y-78087517D01*
X198988387Y-78226768D01*
X199034222Y-78377865D01*
X199049698Y-78535000D01*
X199034222Y-78692135D01*
X198988387Y-78843232D01*
X198913956Y-78982483D01*
X198813788Y-79104538D01*
X198691733Y-79204706D01*
X198552482Y-79279137D01*
X198401385Y-79324972D01*
X198322878Y-79332704D01*
X198283626Y-79336570D01*
X197506374Y-79336570D01*
X197467122Y-79332704D01*
X197388615Y-79324972D01*
X197237518Y-79279137D01*
X197098267Y-79204706D01*
X196976212Y-79104538D01*
X196876044Y-78982483D01*
X196801613Y-78843232D01*
X196755778Y-78692135D01*
X196740302Y-78535000D01*
X196755778Y-78377865D01*
X196801613Y-78226768D01*
X196876044Y-78087517D01*
X196976212Y-77965462D01*
X197098267Y-77865294D01*
X197237518Y-77790863D01*
X197388615Y-77745028D01*
X197467122Y-77737296D01*
X197506374Y-77733430D01*
X198283626Y-77733430D01*
X198322878Y-77737296D01*
X198322878Y-77737296D01*
G37*
G36*
X183082878Y-75197296D02*
G01*
X183161385Y-75205028D01*
X183312482Y-75250863D01*
X183451733Y-75325294D01*
X183573788Y-75425462D01*
X183673956Y-75547517D01*
X183748387Y-75686768D01*
X183794222Y-75837865D01*
X183809698Y-75995000D01*
X183794222Y-76152135D01*
X183748387Y-76303232D01*
X183673956Y-76442483D01*
X183573788Y-76564538D01*
X183451733Y-76664706D01*
X183312482Y-76739137D01*
X183161385Y-76784972D01*
X183082878Y-76792704D01*
X183043626Y-76796570D01*
X182266374Y-76796570D01*
X182227122Y-76792704D01*
X182148615Y-76784972D01*
X181997518Y-76739137D01*
X181858267Y-76664706D01*
X181736212Y-76564538D01*
X181636044Y-76442483D01*
X181561613Y-76303232D01*
X181515778Y-76152135D01*
X181500302Y-75995000D01*
X181515778Y-75837865D01*
X181561613Y-75686768D01*
X181636044Y-75547517D01*
X181736212Y-75425462D01*
X181858267Y-75325294D01*
X181997518Y-75250863D01*
X182148615Y-75205028D01*
X182227122Y-75197296D01*
X182266374Y-75193430D01*
X183043626Y-75193430D01*
X183082878Y-75197296D01*
X183082878Y-75197296D01*
G37*
G36*
X198322878Y-75197296D02*
G01*
X198401385Y-75205028D01*
X198552482Y-75250863D01*
X198691733Y-75325294D01*
X198813788Y-75425462D01*
X198913956Y-75547517D01*
X198988387Y-75686768D01*
X199034222Y-75837865D01*
X199049698Y-75995000D01*
X199034222Y-76152135D01*
X198988387Y-76303232D01*
X198913956Y-76442483D01*
X198813788Y-76564538D01*
X198691733Y-76664706D01*
X198552482Y-76739137D01*
X198401385Y-76784972D01*
X198322878Y-76792704D01*
X198283626Y-76796570D01*
X197506374Y-76796570D01*
X197467122Y-76792704D01*
X197388615Y-76784972D01*
X197237518Y-76739137D01*
X197098267Y-76664706D01*
X196976212Y-76564538D01*
X196876044Y-76442483D01*
X196801613Y-76303232D01*
X196755778Y-76152135D01*
X196740302Y-75995000D01*
X196755778Y-75837865D01*
X196801613Y-75686768D01*
X196876044Y-75547517D01*
X196976212Y-75425462D01*
X197098267Y-75325294D01*
X197237518Y-75250863D01*
X197388615Y-75205028D01*
X197467122Y-75197296D01*
X197506374Y-75193430D01*
X198283626Y-75193430D01*
X198322878Y-75197296D01*
X198322878Y-75197296D01*
G37*
G36*
X183082878Y-72657296D02*
G01*
X183161385Y-72665028D01*
X183312482Y-72710863D01*
X183451733Y-72785294D01*
X183573788Y-72885462D01*
X183673956Y-73007517D01*
X183748387Y-73146768D01*
X183794222Y-73297865D01*
X183809698Y-73455000D01*
X183794222Y-73612135D01*
X183748387Y-73763232D01*
X183673956Y-73902483D01*
X183573788Y-74024538D01*
X183451733Y-74124706D01*
X183312482Y-74199137D01*
X183161385Y-74244972D01*
X183082878Y-74252704D01*
X183043626Y-74256570D01*
X182266374Y-74256570D01*
X182227122Y-74252704D01*
X182148615Y-74244972D01*
X181997518Y-74199137D01*
X181858267Y-74124706D01*
X181736212Y-74024538D01*
X181636044Y-73902483D01*
X181561613Y-73763232D01*
X181515778Y-73612135D01*
X181500302Y-73455000D01*
X181515778Y-73297865D01*
X181561613Y-73146768D01*
X181636044Y-73007517D01*
X181736212Y-72885462D01*
X181858267Y-72785294D01*
X181997518Y-72710863D01*
X182148615Y-72665028D01*
X182227122Y-72657296D01*
X182266374Y-72653430D01*
X183043626Y-72653430D01*
X183082878Y-72657296D01*
X183082878Y-72657296D01*
G37*
G36*
X198322878Y-72657296D02*
G01*
X198401385Y-72665028D01*
X198552482Y-72710863D01*
X198691733Y-72785294D01*
X198813788Y-72885462D01*
X198913956Y-73007517D01*
X198988387Y-73146768D01*
X199034222Y-73297865D01*
X199049698Y-73455000D01*
X199034222Y-73612135D01*
X198988387Y-73763232D01*
X198913956Y-73902483D01*
X198813788Y-74024538D01*
X198691733Y-74124706D01*
X198552482Y-74199137D01*
X198401385Y-74244972D01*
X198322878Y-74252704D01*
X198283626Y-74256570D01*
X197506374Y-74256570D01*
X197467122Y-74252704D01*
X197388615Y-74244972D01*
X197237518Y-74199137D01*
X197098267Y-74124706D01*
X196976212Y-74024538D01*
X196876044Y-73902483D01*
X196801613Y-73763232D01*
X196755778Y-73612135D01*
X196740302Y-73455000D01*
X196755778Y-73297865D01*
X196801613Y-73146768D01*
X196876044Y-73007517D01*
X196976212Y-72885462D01*
X197098267Y-72785294D01*
X197237518Y-72710863D01*
X197388615Y-72665028D01*
X197467122Y-72657296D01*
X197506374Y-72653430D01*
X198283626Y-72653430D01*
X198322878Y-72657296D01*
X198322878Y-72657296D01*
G37*
G36*
X195782878Y-71387296D02*
G01*
X195861385Y-71395028D01*
X196012482Y-71440863D01*
X196151733Y-71515294D01*
X196273788Y-71615462D01*
X196373956Y-71737517D01*
X196448387Y-71876768D01*
X196494222Y-72027865D01*
X196509698Y-72185000D01*
X196494222Y-72342135D01*
X196448387Y-72493232D01*
X196373956Y-72632483D01*
X196273788Y-72754538D01*
X196151733Y-72854706D01*
X196012482Y-72929137D01*
X195861385Y-72974972D01*
X195782878Y-72982704D01*
X195743626Y-72986570D01*
X194966374Y-72986570D01*
X194927122Y-72982704D01*
X194848615Y-72974972D01*
X194697518Y-72929137D01*
X194558267Y-72854706D01*
X194436212Y-72754538D01*
X194336044Y-72632483D01*
X194261613Y-72493232D01*
X194215778Y-72342135D01*
X194200302Y-72185000D01*
X194215778Y-72027865D01*
X194261613Y-71876768D01*
X194336044Y-71737517D01*
X194436212Y-71615462D01*
X194558267Y-71515294D01*
X194697518Y-71440863D01*
X194848615Y-71395028D01*
X194927122Y-71387296D01*
X194966374Y-71383430D01*
X195743626Y-71383430D01*
X195782878Y-71387296D01*
X195782878Y-71387296D01*
G37*
G36*
X198322878Y-70117296D02*
G01*
X198401385Y-70125028D01*
X198552482Y-70170863D01*
X198691733Y-70245294D01*
X198813788Y-70345462D01*
X198913956Y-70467517D01*
X198988387Y-70606768D01*
X199034222Y-70757865D01*
X199049698Y-70915000D01*
X199034222Y-71072135D01*
X198988387Y-71223232D01*
X198913956Y-71362483D01*
X198813788Y-71484538D01*
X198691733Y-71584706D01*
X198552482Y-71659137D01*
X198401385Y-71704972D01*
X198322878Y-71712704D01*
X198283626Y-71716570D01*
X197506374Y-71716570D01*
X197467122Y-71712704D01*
X197388615Y-71704972D01*
X197237518Y-71659137D01*
X197098267Y-71584706D01*
X196976212Y-71484538D01*
X196876044Y-71362483D01*
X196801613Y-71223232D01*
X196755778Y-71072135D01*
X196740302Y-70915000D01*
X196755778Y-70757865D01*
X196801613Y-70606768D01*
X196876044Y-70467517D01*
X196976212Y-70345462D01*
X197098267Y-70245294D01*
X197237518Y-70170863D01*
X197388615Y-70125028D01*
X197467122Y-70117296D01*
X197506374Y-70113430D01*
X198283626Y-70113430D01*
X198322878Y-70117296D01*
X198322878Y-70117296D01*
G37*
G36*
X183082878Y-70117296D02*
G01*
X183161385Y-70125028D01*
X183312482Y-70170863D01*
X183451733Y-70245294D01*
X183573788Y-70345462D01*
X183673956Y-70467517D01*
X183748387Y-70606768D01*
X183794222Y-70757865D01*
X183809698Y-70915000D01*
X183794222Y-71072135D01*
X183748387Y-71223232D01*
X183673956Y-71362483D01*
X183573788Y-71484538D01*
X183451733Y-71584706D01*
X183312482Y-71659137D01*
X183161385Y-71704972D01*
X183082878Y-71712704D01*
X183043626Y-71716570D01*
X182266374Y-71716570D01*
X182227122Y-71712704D01*
X182148615Y-71704972D01*
X181997518Y-71659137D01*
X181858267Y-71584706D01*
X181736212Y-71484538D01*
X181636044Y-71362483D01*
X181561613Y-71223232D01*
X181515778Y-71072135D01*
X181500302Y-70915000D01*
X181515778Y-70757865D01*
X181561613Y-70606768D01*
X181636044Y-70467517D01*
X181736212Y-70345462D01*
X181858267Y-70245294D01*
X181997518Y-70170863D01*
X182148615Y-70125028D01*
X182227122Y-70117296D01*
X182266374Y-70113430D01*
X183043626Y-70113430D01*
X183082878Y-70117296D01*
X183082878Y-70117296D01*
G37*
G36*
X195782878Y-68847296D02*
G01*
X195861385Y-68855028D01*
X196012482Y-68900863D01*
X196012484Y-68900864D01*
X196034775Y-68912779D01*
X196151733Y-68975294D01*
X196273788Y-69075462D01*
X196373956Y-69197517D01*
X196448387Y-69336768D01*
X196494222Y-69487865D01*
X196509698Y-69645000D01*
X196494222Y-69802135D01*
X196448387Y-69953232D01*
X196373956Y-70092483D01*
X196273788Y-70214538D01*
X196151733Y-70314706D01*
X196012482Y-70389137D01*
X195861385Y-70434972D01*
X195782878Y-70442704D01*
X195743626Y-70446570D01*
X194966374Y-70446570D01*
X194927122Y-70442704D01*
X194848615Y-70434972D01*
X194697518Y-70389137D01*
X194558267Y-70314706D01*
X194436212Y-70214538D01*
X194336044Y-70092483D01*
X194261613Y-69953232D01*
X194215778Y-69802135D01*
X194200302Y-69645000D01*
X194215778Y-69487865D01*
X194261613Y-69336768D01*
X194336044Y-69197517D01*
X194436212Y-69075462D01*
X194558267Y-68975294D01*
X194675225Y-68912779D01*
X194697516Y-68900864D01*
X194697518Y-68900863D01*
X194848615Y-68855028D01*
X194927122Y-68847296D01*
X194966374Y-68843430D01*
X195743626Y-68843430D01*
X195782878Y-68847296D01*
X195782878Y-68847296D01*
G37*
G36*
X183082878Y-67577296D02*
G01*
X183161385Y-67585028D01*
X183312482Y-67630863D01*
X183451733Y-67705294D01*
X183573788Y-67805462D01*
X183673956Y-67927517D01*
X183748387Y-68066768D01*
X183794222Y-68217865D01*
X183809698Y-68375000D01*
X183794222Y-68532135D01*
X183748387Y-68683232D01*
X183673956Y-68822483D01*
X183573788Y-68944538D01*
X183451733Y-69044706D01*
X183312482Y-69119137D01*
X183161385Y-69164972D01*
X183082878Y-69172704D01*
X183043626Y-69176570D01*
X182266374Y-69176570D01*
X182227122Y-69172704D01*
X182148615Y-69164972D01*
X181997518Y-69119137D01*
X181858267Y-69044706D01*
X181736212Y-68944538D01*
X181636044Y-68822483D01*
X181561613Y-68683232D01*
X181515778Y-68532135D01*
X181500302Y-68375000D01*
X181515778Y-68217865D01*
X181561613Y-68066768D01*
X181636044Y-67927517D01*
X181736212Y-67805462D01*
X181858267Y-67705294D01*
X181997518Y-67630863D01*
X182148615Y-67585028D01*
X182227122Y-67577296D01*
X182266374Y-67573430D01*
X183043626Y-67573430D01*
X183082878Y-67577296D01*
X183082878Y-67577296D01*
G37*
G36*
X198322878Y-67577296D02*
G01*
X198401385Y-67585028D01*
X198552482Y-67630863D01*
X198691733Y-67705294D01*
X198813788Y-67805462D01*
X198913956Y-67927517D01*
X198988387Y-68066768D01*
X199034222Y-68217865D01*
X199049698Y-68375000D01*
X199034222Y-68532135D01*
X198988387Y-68683232D01*
X198913956Y-68822483D01*
X198813788Y-68944538D01*
X198691733Y-69044706D01*
X198552482Y-69119137D01*
X198401385Y-69164972D01*
X198322878Y-69172704D01*
X198283626Y-69176570D01*
X197506374Y-69176570D01*
X197467122Y-69172704D01*
X197388615Y-69164972D01*
X197237518Y-69119137D01*
X197098267Y-69044706D01*
X196976212Y-68944538D01*
X196876044Y-68822483D01*
X196801613Y-68683232D01*
X196755778Y-68532135D01*
X196740302Y-68375000D01*
X196755778Y-68217865D01*
X196801613Y-68066768D01*
X196876044Y-67927517D01*
X196976212Y-67805462D01*
X197098267Y-67705294D01*
X197237518Y-67630863D01*
X197388615Y-67585028D01*
X197467122Y-67577296D01*
X197506374Y-67573430D01*
X198283626Y-67573430D01*
X198322878Y-67577296D01*
X198322878Y-67577296D01*
G37*
G36*
X173110442Y-67265518D02*
G01*
X173176627Y-67272037D01*
X173346466Y-67323557D01*
X173502991Y-67407222D01*
X173538729Y-67436552D01*
X173640186Y-67519814D01*
X173723448Y-67621271D01*
X173752778Y-67657009D01*
X173836443Y-67813534D01*
X173887963Y-67983373D01*
X173905359Y-68160000D01*
X173887963Y-68336627D01*
X173836443Y-68506466D01*
X173752778Y-68662991D01*
X173736165Y-68683234D01*
X173640186Y-68800186D01*
X173538729Y-68883448D01*
X173502991Y-68912778D01*
X173346466Y-68996443D01*
X173176627Y-69047963D01*
X173110442Y-69054482D01*
X173044260Y-69061000D01*
X172955740Y-69061000D01*
X172889558Y-69054482D01*
X172823373Y-69047963D01*
X172653534Y-68996443D01*
X172497009Y-68912778D01*
X172461271Y-68883448D01*
X172359814Y-68800186D01*
X172263835Y-68683234D01*
X172247222Y-68662991D01*
X172163557Y-68506466D01*
X172112037Y-68336627D01*
X172094641Y-68160000D01*
X172112037Y-67983373D01*
X172163557Y-67813534D01*
X172247222Y-67657009D01*
X172276552Y-67621271D01*
X172359814Y-67519814D01*
X172461271Y-67436552D01*
X172497009Y-67407222D01*
X172653534Y-67323557D01*
X172823373Y-67272037D01*
X172889558Y-67265518D01*
X172955740Y-67259000D01*
X173044260Y-67259000D01*
X173110442Y-67265518D01*
X173110442Y-67265518D01*
G37*
G36*
X238901000Y-68901000D02*
G01*
X237099000Y-68901000D01*
X237099000Y-67099000D01*
X238901000Y-67099000D01*
X238901000Y-68901000D01*
X238901000Y-68901000D01*
G37*
G36*
X183082878Y-65037296D02*
G01*
X183161385Y-65045028D01*
X183312482Y-65090863D01*
X183451733Y-65165294D01*
X183573788Y-65265462D01*
X183673956Y-65387517D01*
X183748387Y-65526768D01*
X183794222Y-65677865D01*
X183809698Y-65835000D01*
X183794222Y-65992135D01*
X183748387Y-66143232D01*
X183673956Y-66282483D01*
X183573788Y-66404538D01*
X183451733Y-66504706D01*
X183312482Y-66579137D01*
X183161385Y-66624972D01*
X183082878Y-66632704D01*
X183043626Y-66636570D01*
X182266374Y-66636570D01*
X182227122Y-66632704D01*
X182148615Y-66624972D01*
X181997518Y-66579137D01*
X181858267Y-66504706D01*
X181736212Y-66404538D01*
X181636044Y-66282483D01*
X181561613Y-66143232D01*
X181515778Y-65992135D01*
X181500302Y-65835000D01*
X181515778Y-65677865D01*
X181561613Y-65526768D01*
X181636044Y-65387517D01*
X181736212Y-65265462D01*
X181858267Y-65165294D01*
X181997518Y-65090863D01*
X182148615Y-65045028D01*
X182227122Y-65037296D01*
X182266374Y-65033430D01*
X183043626Y-65033430D01*
X183082878Y-65037296D01*
X183082878Y-65037296D01*
G37*
G36*
X198322878Y-65037296D02*
G01*
X198401385Y-65045028D01*
X198552482Y-65090863D01*
X198691733Y-65165294D01*
X198813788Y-65265462D01*
X198913956Y-65387517D01*
X198988387Y-65526768D01*
X199034222Y-65677865D01*
X199049698Y-65835000D01*
X199034222Y-65992135D01*
X198988387Y-66143232D01*
X198913956Y-66282483D01*
X198813788Y-66404538D01*
X198691733Y-66504706D01*
X198552482Y-66579137D01*
X198401385Y-66624972D01*
X198322878Y-66632704D01*
X198283626Y-66636570D01*
X197506374Y-66636570D01*
X197467122Y-66632704D01*
X197388615Y-66624972D01*
X197237518Y-66579137D01*
X197098267Y-66504706D01*
X196976212Y-66404538D01*
X196876044Y-66282483D01*
X196801613Y-66143232D01*
X196755778Y-65992135D01*
X196740302Y-65835000D01*
X196755778Y-65677865D01*
X196801613Y-65526768D01*
X196876044Y-65387517D01*
X196976212Y-65265462D01*
X197098267Y-65165294D01*
X197237518Y-65090863D01*
X197388615Y-65045028D01*
X197467122Y-65037296D01*
X197506374Y-65033430D01*
X198283626Y-65033430D01*
X198322878Y-65037296D01*
X198322878Y-65037296D01*
G37*
G36*
X173110443Y-64725519D02*
G01*
X173176627Y-64732037D01*
X173346466Y-64783557D01*
X173502991Y-64867222D01*
X173538729Y-64896552D01*
X173640186Y-64979814D01*
X173723448Y-65081271D01*
X173752778Y-65117009D01*
X173836443Y-65273534D01*
X173887963Y-65443373D01*
X173905359Y-65620000D01*
X173887963Y-65796627D01*
X173836443Y-65966466D01*
X173752778Y-66122991D01*
X173736165Y-66143234D01*
X173640186Y-66260186D01*
X173538729Y-66343448D01*
X173502991Y-66372778D01*
X173346466Y-66456443D01*
X173176627Y-66507963D01*
X173110442Y-66514482D01*
X173044260Y-66521000D01*
X172955740Y-66521000D01*
X172889558Y-66514482D01*
X172823373Y-66507963D01*
X172653534Y-66456443D01*
X172497009Y-66372778D01*
X172461271Y-66343448D01*
X172359814Y-66260186D01*
X172263835Y-66143234D01*
X172247222Y-66122991D01*
X172163557Y-65966466D01*
X172112037Y-65796627D01*
X172094641Y-65620000D01*
X172112037Y-65443373D01*
X172163557Y-65273534D01*
X172247222Y-65117009D01*
X172276552Y-65081271D01*
X172359814Y-64979814D01*
X172461271Y-64896552D01*
X172497009Y-64867222D01*
X172653534Y-64783557D01*
X172823373Y-64732037D01*
X172889557Y-64725519D01*
X172955740Y-64719000D01*
X173044260Y-64719000D01*
X173110443Y-64725519D01*
X173110443Y-64725519D01*
G37*
G36*
X238110443Y-64565519D02*
G01*
X238176627Y-64572037D01*
X238346466Y-64623557D01*
X238502991Y-64707222D01*
X238517342Y-64719000D01*
X238640186Y-64819814D01*
X238723448Y-64921271D01*
X238752778Y-64957009D01*
X238752779Y-64957011D01*
X238799826Y-65045028D01*
X238836443Y-65113534D01*
X238887963Y-65283373D01*
X238905359Y-65460000D01*
X238887963Y-65636627D01*
X238836443Y-65806466D01*
X238752778Y-65962991D01*
X238728860Y-65992135D01*
X238640186Y-66100186D01*
X238538729Y-66183448D01*
X238502991Y-66212778D01*
X238346466Y-66296443D01*
X238176627Y-66347963D01*
X238110443Y-66354481D01*
X238044260Y-66361000D01*
X237955740Y-66361000D01*
X237889557Y-66354481D01*
X237823373Y-66347963D01*
X237653534Y-66296443D01*
X237497009Y-66212778D01*
X237461271Y-66183448D01*
X237359814Y-66100186D01*
X237271140Y-65992135D01*
X237247222Y-65962991D01*
X237163557Y-65806466D01*
X237112037Y-65636627D01*
X237094641Y-65460000D01*
X237112037Y-65283373D01*
X237163557Y-65113534D01*
X237200175Y-65045028D01*
X237247221Y-64957011D01*
X237247222Y-64957009D01*
X237276552Y-64921271D01*
X237359814Y-64819814D01*
X237482658Y-64719000D01*
X237497009Y-64707222D01*
X237653534Y-64623557D01*
X237823373Y-64572037D01*
X237889557Y-64565519D01*
X237955740Y-64559000D01*
X238044260Y-64559000D01*
X238110443Y-64565519D01*
X238110443Y-64565519D01*
G37*
G36*
X198322878Y-62497296D02*
G01*
X198401385Y-62505028D01*
X198552482Y-62550863D01*
X198691733Y-62625294D01*
X198813788Y-62725462D01*
X198913956Y-62847517D01*
X198988387Y-62986768D01*
X199034222Y-63137865D01*
X199049698Y-63295000D01*
X199034222Y-63452135D01*
X198988387Y-63603232D01*
X198913956Y-63742483D01*
X198813788Y-63864538D01*
X198691733Y-63964706D01*
X198552482Y-64039137D01*
X198401385Y-64084972D01*
X198322878Y-64092704D01*
X198283626Y-64096570D01*
X197506374Y-64096570D01*
X197467122Y-64092704D01*
X197388615Y-64084972D01*
X197237518Y-64039137D01*
X197098267Y-63964706D01*
X196976212Y-63864538D01*
X196876044Y-63742483D01*
X196801613Y-63603232D01*
X196755778Y-63452135D01*
X196740302Y-63295000D01*
X196755778Y-63137865D01*
X196801613Y-62986768D01*
X196876044Y-62847517D01*
X196976212Y-62725462D01*
X197098267Y-62625294D01*
X197237518Y-62550863D01*
X197388615Y-62505028D01*
X197467122Y-62497296D01*
X197506374Y-62493430D01*
X198283626Y-62493430D01*
X198322878Y-62497296D01*
X198322878Y-62497296D01*
G37*
G36*
X183082878Y-62497296D02*
G01*
X183161385Y-62505028D01*
X183312482Y-62550863D01*
X183451733Y-62625294D01*
X183573788Y-62725462D01*
X183673956Y-62847517D01*
X183748387Y-62986768D01*
X183794222Y-63137865D01*
X183809698Y-63295000D01*
X183794222Y-63452135D01*
X183748387Y-63603232D01*
X183673956Y-63742483D01*
X183573788Y-63864538D01*
X183451733Y-63964706D01*
X183312482Y-64039137D01*
X183161385Y-64084972D01*
X183082878Y-64092704D01*
X183043626Y-64096570D01*
X182266374Y-64096570D01*
X182227122Y-64092704D01*
X182148615Y-64084972D01*
X181997518Y-64039137D01*
X181858267Y-63964706D01*
X181736212Y-63864538D01*
X181636044Y-63742483D01*
X181561613Y-63603232D01*
X181515778Y-63452135D01*
X181500302Y-63295000D01*
X181515778Y-63137865D01*
X181561613Y-62986768D01*
X181636044Y-62847517D01*
X181736212Y-62725462D01*
X181858267Y-62625294D01*
X181997518Y-62550863D01*
X182148615Y-62505028D01*
X182227122Y-62497296D01*
X182266374Y-62493430D01*
X183043626Y-62493430D01*
X183082878Y-62497296D01*
X183082878Y-62497296D01*
G37*
G36*
X173110442Y-62185518D02*
G01*
X173176627Y-62192037D01*
X173346466Y-62243557D01*
X173502991Y-62327222D01*
X173538729Y-62356552D01*
X173640186Y-62439814D01*
X173723448Y-62541271D01*
X173752778Y-62577009D01*
X173836443Y-62733534D01*
X173887963Y-62903373D01*
X173905359Y-63080000D01*
X173887963Y-63256627D01*
X173836443Y-63426466D01*
X173752778Y-63582991D01*
X173736165Y-63603234D01*
X173640186Y-63720186D01*
X173538729Y-63803448D01*
X173502991Y-63832778D01*
X173346466Y-63916443D01*
X173176627Y-63967963D01*
X173110443Y-63974481D01*
X173044260Y-63981000D01*
X172955740Y-63981000D01*
X172889557Y-63974481D01*
X172823373Y-63967963D01*
X172653534Y-63916443D01*
X172497009Y-63832778D01*
X172461271Y-63803448D01*
X172359814Y-63720186D01*
X172263835Y-63603234D01*
X172247222Y-63582991D01*
X172163557Y-63426466D01*
X172112037Y-63256627D01*
X172094641Y-63080000D01*
X172112037Y-62903373D01*
X172163557Y-62733534D01*
X172247222Y-62577009D01*
X172276552Y-62541271D01*
X172359814Y-62439814D01*
X172461271Y-62356552D01*
X172497009Y-62327222D01*
X172653534Y-62243557D01*
X172823373Y-62192037D01*
X172889558Y-62185518D01*
X172955740Y-62179000D01*
X173044260Y-62179000D01*
X173110442Y-62185518D01*
X173110442Y-62185518D01*
G37*
G36*
X238110442Y-62025518D02*
G01*
X238176627Y-62032037D01*
X238346466Y-62083557D01*
X238502991Y-62167222D01*
X238517342Y-62179000D01*
X238640186Y-62279814D01*
X238723448Y-62381271D01*
X238752778Y-62417009D01*
X238752779Y-62417011D01*
X238799826Y-62505028D01*
X238836443Y-62573534D01*
X238887963Y-62743373D01*
X238905359Y-62920000D01*
X238887963Y-63096627D01*
X238836443Y-63266466D01*
X238752778Y-63422991D01*
X238728860Y-63452135D01*
X238640186Y-63560186D01*
X238538729Y-63643448D01*
X238502991Y-63672778D01*
X238346466Y-63756443D01*
X238176627Y-63807963D01*
X238110442Y-63814482D01*
X238044260Y-63821000D01*
X237955740Y-63821000D01*
X237889558Y-63814482D01*
X237823373Y-63807963D01*
X237653534Y-63756443D01*
X237497009Y-63672778D01*
X237461271Y-63643448D01*
X237359814Y-63560186D01*
X237271140Y-63452135D01*
X237247222Y-63422991D01*
X237163557Y-63266466D01*
X237112037Y-63096627D01*
X237094641Y-62920000D01*
X237112037Y-62743373D01*
X237163557Y-62573534D01*
X237200175Y-62505028D01*
X237247221Y-62417011D01*
X237247222Y-62417009D01*
X237276552Y-62381271D01*
X237359814Y-62279814D01*
X237482658Y-62179000D01*
X237497009Y-62167222D01*
X237653534Y-62083557D01*
X237823373Y-62032037D01*
X237889558Y-62025518D01*
X237955740Y-62019000D01*
X238044260Y-62019000D01*
X238110442Y-62025518D01*
X238110442Y-62025518D01*
G37*
G36*
X183082878Y-59957296D02*
G01*
X183161385Y-59965028D01*
X183312482Y-60010863D01*
X183451733Y-60085294D01*
X183573788Y-60185462D01*
X183673956Y-60307517D01*
X183748387Y-60446768D01*
X183794222Y-60597865D01*
X183809698Y-60755000D01*
X183794222Y-60912135D01*
X183748387Y-61063232D01*
X183673956Y-61202483D01*
X183573788Y-61324538D01*
X183451733Y-61424706D01*
X183312482Y-61499137D01*
X183161385Y-61544972D01*
X183082878Y-61552704D01*
X183043626Y-61556570D01*
X182266374Y-61556570D01*
X182227122Y-61552704D01*
X182148615Y-61544972D01*
X181997518Y-61499137D01*
X181858267Y-61424706D01*
X181736212Y-61324538D01*
X181636044Y-61202483D01*
X181561613Y-61063232D01*
X181515778Y-60912135D01*
X181500302Y-60755000D01*
X181515778Y-60597865D01*
X181561613Y-60446768D01*
X181636044Y-60307517D01*
X181736212Y-60185462D01*
X181858267Y-60085294D01*
X181997518Y-60010863D01*
X182148615Y-59965028D01*
X182227122Y-59957296D01*
X182266374Y-59953430D01*
X183043626Y-59953430D01*
X183082878Y-59957296D01*
X183082878Y-59957296D01*
G37*
G36*
X198322878Y-59957296D02*
G01*
X198401385Y-59965028D01*
X198552482Y-60010863D01*
X198691733Y-60085294D01*
X198813788Y-60185462D01*
X198913956Y-60307517D01*
X198988387Y-60446768D01*
X199034222Y-60597865D01*
X199049698Y-60755000D01*
X199034222Y-60912135D01*
X198988387Y-61063232D01*
X198913956Y-61202483D01*
X198813788Y-61324538D01*
X198691733Y-61424706D01*
X198552482Y-61499137D01*
X198401385Y-61544972D01*
X198322878Y-61552704D01*
X198283626Y-61556570D01*
X197506374Y-61556570D01*
X197467122Y-61552704D01*
X197388615Y-61544972D01*
X197237518Y-61499137D01*
X197098267Y-61424706D01*
X196976212Y-61324538D01*
X196876044Y-61202483D01*
X196801613Y-61063232D01*
X196755778Y-60912135D01*
X196740302Y-60755000D01*
X196755778Y-60597865D01*
X196801613Y-60446768D01*
X196876044Y-60307517D01*
X196976212Y-60185462D01*
X197098267Y-60085294D01*
X197237518Y-60010863D01*
X197388615Y-59965028D01*
X197467122Y-59957296D01*
X197506374Y-59953430D01*
X198283626Y-59953430D01*
X198322878Y-59957296D01*
X198322878Y-59957296D01*
G37*
G36*
X173110443Y-59645519D02*
G01*
X173176627Y-59652037D01*
X173346466Y-59703557D01*
X173502991Y-59787222D01*
X173538729Y-59816552D01*
X173640186Y-59899814D01*
X173723448Y-60001271D01*
X173752778Y-60037009D01*
X173836443Y-60193534D01*
X173887963Y-60363373D01*
X173905359Y-60540000D01*
X173887963Y-60716627D01*
X173836443Y-60886466D01*
X173752778Y-61042991D01*
X173736165Y-61063234D01*
X173640186Y-61180186D01*
X173538729Y-61263448D01*
X173502991Y-61292778D01*
X173346466Y-61376443D01*
X173176627Y-61427963D01*
X173110442Y-61434482D01*
X173044260Y-61441000D01*
X172955740Y-61441000D01*
X172889558Y-61434482D01*
X172823373Y-61427963D01*
X172653534Y-61376443D01*
X172497009Y-61292778D01*
X172461271Y-61263448D01*
X172359814Y-61180186D01*
X172263835Y-61063234D01*
X172247222Y-61042991D01*
X172163557Y-60886466D01*
X172112037Y-60716627D01*
X172094641Y-60540000D01*
X172112037Y-60363373D01*
X172163557Y-60193534D01*
X172247222Y-60037009D01*
X172276552Y-60001271D01*
X172359814Y-59899814D01*
X172461271Y-59816552D01*
X172497009Y-59787222D01*
X172653534Y-59703557D01*
X172823373Y-59652037D01*
X172889557Y-59645519D01*
X172955740Y-59639000D01*
X173044260Y-59639000D01*
X173110443Y-59645519D01*
X173110443Y-59645519D01*
G37*
G36*
X238110443Y-59485519D02*
G01*
X238176627Y-59492037D01*
X238346466Y-59543557D01*
X238502991Y-59627222D01*
X238517342Y-59639000D01*
X238640186Y-59739814D01*
X238723448Y-59841271D01*
X238752778Y-59877009D01*
X238752779Y-59877011D01*
X238799826Y-59965028D01*
X238836443Y-60033534D01*
X238887963Y-60203373D01*
X238905359Y-60380000D01*
X238887963Y-60556627D01*
X238836443Y-60726466D01*
X238752778Y-60882991D01*
X238728860Y-60912135D01*
X238640186Y-61020186D01*
X238538729Y-61103448D01*
X238502991Y-61132778D01*
X238346466Y-61216443D01*
X238176627Y-61267963D01*
X238110442Y-61274482D01*
X238044260Y-61281000D01*
X237955740Y-61281000D01*
X237889558Y-61274482D01*
X237823373Y-61267963D01*
X237653534Y-61216443D01*
X237497009Y-61132778D01*
X237461271Y-61103448D01*
X237359814Y-61020186D01*
X237271140Y-60912135D01*
X237247222Y-60882991D01*
X237163557Y-60726466D01*
X237112037Y-60556627D01*
X237094641Y-60380000D01*
X237112037Y-60203373D01*
X237163557Y-60033534D01*
X237200175Y-59965028D01*
X237247221Y-59877011D01*
X237247222Y-59877009D01*
X237276552Y-59841271D01*
X237359814Y-59739814D01*
X237482658Y-59639000D01*
X237497009Y-59627222D01*
X237653534Y-59543557D01*
X237823373Y-59492037D01*
X237889557Y-59485519D01*
X237955740Y-59479000D01*
X238044260Y-59479000D01*
X238110443Y-59485519D01*
X238110443Y-59485519D01*
G37*
G36*
X173901000Y-58901000D02*
G01*
X172099000Y-58901000D01*
X172099000Y-57099000D01*
X173901000Y-57099000D01*
X173901000Y-58901000D01*
X173901000Y-58901000D01*
G37*
G36*
X238110442Y-56945518D02*
G01*
X238176627Y-56952037D01*
X238346466Y-57003557D01*
X238502991Y-57087222D01*
X238517342Y-57099000D01*
X238640186Y-57199814D01*
X238723448Y-57301271D01*
X238752778Y-57337009D01*
X238836443Y-57493534D01*
X238887963Y-57663373D01*
X238905359Y-57840000D01*
X238887963Y-58016627D01*
X238836443Y-58186466D01*
X238752778Y-58342991D01*
X238723448Y-58378729D01*
X238640186Y-58480186D01*
X238538729Y-58563448D01*
X238502991Y-58592778D01*
X238346466Y-58676443D01*
X238176627Y-58727963D01*
X238110443Y-58734481D01*
X238044260Y-58741000D01*
X237955740Y-58741000D01*
X237889557Y-58734481D01*
X237823373Y-58727963D01*
X237653534Y-58676443D01*
X237497009Y-58592778D01*
X237461271Y-58563448D01*
X237359814Y-58480186D01*
X237276552Y-58378729D01*
X237247222Y-58342991D01*
X237163557Y-58186466D01*
X237112037Y-58016627D01*
X237094641Y-57840000D01*
X237112037Y-57663373D01*
X237163557Y-57493534D01*
X237247222Y-57337009D01*
X237276552Y-57301271D01*
X237359814Y-57199814D01*
X237482658Y-57099000D01*
X237497009Y-57087222D01*
X237653534Y-57003557D01*
X237823373Y-56952037D01*
X237889558Y-56945518D01*
X237955740Y-56939000D01*
X238044260Y-56939000D01*
X238110442Y-56945518D01*
X238110442Y-56945518D01*
G37*
G36*
X209690443Y-45105519D02*
G01*
X209756627Y-45112037D01*
X209926466Y-45163557D01*
X210082991Y-45247222D01*
X210118729Y-45276552D01*
X210220186Y-45359814D01*
X210303448Y-45461271D01*
X210332778Y-45497009D01*
X210416443Y-45653534D01*
X210467963Y-45823373D01*
X210485359Y-46000000D01*
X210467963Y-46176627D01*
X210416443Y-46346466D01*
X210332778Y-46502991D01*
X210303448Y-46538729D01*
X210220186Y-46640186D01*
X210118729Y-46723448D01*
X210082991Y-46752778D01*
X209926466Y-46836443D01*
X209756627Y-46887963D01*
X209690442Y-46894482D01*
X209624260Y-46901000D01*
X209535740Y-46901000D01*
X209469558Y-46894482D01*
X209403373Y-46887963D01*
X209233534Y-46836443D01*
X209077009Y-46752778D01*
X209041271Y-46723448D01*
X208939814Y-46640186D01*
X208856552Y-46538729D01*
X208827222Y-46502991D01*
X208743557Y-46346466D01*
X208692037Y-46176627D01*
X208674641Y-46000000D01*
X208692037Y-45823373D01*
X208743557Y-45653534D01*
X208827222Y-45497009D01*
X208856552Y-45461271D01*
X208939814Y-45359814D01*
X209041271Y-45276552D01*
X209077009Y-45247222D01*
X209233534Y-45163557D01*
X209403373Y-45112037D01*
X209469557Y-45105519D01*
X209535740Y-45099000D01*
X209624260Y-45099000D01*
X209690443Y-45105519D01*
X209690443Y-45105519D01*
G37*
G36*
X205401000Y-46901000D02*
G01*
X203599000Y-46901000D01*
X203599000Y-45099000D01*
X205401000Y-45099000D01*
X205401000Y-46901000D01*
X205401000Y-46901000D01*
G37*
G36*
X207150443Y-45105519D02*
G01*
X207216627Y-45112037D01*
X207386466Y-45163557D01*
X207542991Y-45247222D01*
X207578729Y-45276552D01*
X207680186Y-45359814D01*
X207763448Y-45461271D01*
X207792778Y-45497009D01*
X207876443Y-45653534D01*
X207927963Y-45823373D01*
X207945359Y-46000000D01*
X207927963Y-46176627D01*
X207876443Y-46346466D01*
X207792778Y-46502991D01*
X207763448Y-46538729D01*
X207680186Y-46640186D01*
X207578729Y-46723448D01*
X207542991Y-46752778D01*
X207386466Y-46836443D01*
X207216627Y-46887963D01*
X207150442Y-46894482D01*
X207084260Y-46901000D01*
X206995740Y-46901000D01*
X206929558Y-46894482D01*
X206863373Y-46887963D01*
X206693534Y-46836443D01*
X206537009Y-46752778D01*
X206501271Y-46723448D01*
X206399814Y-46640186D01*
X206316552Y-46538729D01*
X206287222Y-46502991D01*
X206203557Y-46346466D01*
X206152037Y-46176627D01*
X206134641Y-46000000D01*
X206152037Y-45823373D01*
X206203557Y-45653534D01*
X206287222Y-45497009D01*
X206316552Y-45461271D01*
X206399814Y-45359814D01*
X206501271Y-45276552D01*
X206537009Y-45247222D01*
X206693534Y-45163557D01*
X206863373Y-45112037D01*
X206929557Y-45105519D01*
X206995740Y-45099000D01*
X207084260Y-45099000D01*
X207150443Y-45105519D01*
X207150443Y-45105519D01*
G37*
G36*
X183150443Y-43105519D02*
G01*
X183216627Y-43112037D01*
X183386466Y-43163557D01*
X183542991Y-43247222D01*
X183578729Y-43276552D01*
X183680186Y-43359814D01*
X183763448Y-43461271D01*
X183792778Y-43497009D01*
X183876443Y-43653534D01*
X183927963Y-43823373D01*
X183945359Y-44000000D01*
X183927963Y-44176627D01*
X183876443Y-44346466D01*
X183792778Y-44502991D01*
X183763448Y-44538729D01*
X183680186Y-44640186D01*
X183578729Y-44723448D01*
X183542991Y-44752778D01*
X183386466Y-44836443D01*
X183216627Y-44887963D01*
X183150443Y-44894481D01*
X183084260Y-44901000D01*
X182995740Y-44901000D01*
X182929557Y-44894481D01*
X182863373Y-44887963D01*
X182693534Y-44836443D01*
X182537009Y-44752778D01*
X182501271Y-44723448D01*
X182399814Y-44640186D01*
X182316552Y-44538729D01*
X182287222Y-44502991D01*
X182203557Y-44346466D01*
X182152037Y-44176627D01*
X182134641Y-44000000D01*
X182152037Y-43823373D01*
X182203557Y-43653534D01*
X182287222Y-43497009D01*
X182316552Y-43461271D01*
X182399814Y-43359814D01*
X182501271Y-43276552D01*
X182537009Y-43247222D01*
X182693534Y-43163557D01*
X182863373Y-43112037D01*
X182929557Y-43105519D01*
X182995740Y-43099000D01*
X183084260Y-43099000D01*
X183150443Y-43105519D01*
X183150443Y-43105519D01*
G37*
G36*
X181401000Y-44901000D02*
G01*
X179599000Y-44901000D01*
X179599000Y-43099000D01*
X181401000Y-43099000D01*
X181401000Y-44901000D01*
X181401000Y-44901000D01*
G37*
G36*
X228901000Y-44801000D02*
G01*
X227099000Y-44801000D01*
X227099000Y-42999000D01*
X228901000Y-42999000D01*
X228901000Y-44801000D01*
X228901000Y-44801000D01*
G37*
G36*
X230650443Y-43005519D02*
G01*
X230716627Y-43012037D01*
X230886466Y-43063557D01*
X231042991Y-43147222D01*
X231062895Y-43163557D01*
X231180186Y-43259814D01*
X231262253Y-43359814D01*
X231292778Y-43397009D01*
X231376443Y-43553534D01*
X231427963Y-43723373D01*
X231445359Y-43900000D01*
X231427963Y-44076627D01*
X231376443Y-44246466D01*
X231292778Y-44402991D01*
X231263448Y-44438729D01*
X231180186Y-44540186D01*
X231078729Y-44623448D01*
X231042991Y-44652778D01*
X230886466Y-44736443D01*
X230716627Y-44787963D01*
X230650443Y-44794481D01*
X230584260Y-44801000D01*
X230495740Y-44801000D01*
X230429557Y-44794481D01*
X230363373Y-44787963D01*
X230193534Y-44736443D01*
X230037009Y-44652778D01*
X230001271Y-44623448D01*
X229899814Y-44540186D01*
X229816552Y-44438729D01*
X229787222Y-44402991D01*
X229703557Y-44246466D01*
X229652037Y-44076627D01*
X229634641Y-43900000D01*
X229652037Y-43723373D01*
X229703557Y-43553534D01*
X229787222Y-43397009D01*
X229817747Y-43359814D01*
X229899814Y-43259814D01*
X230017105Y-43163557D01*
X230037009Y-43147222D01*
X230193534Y-43063557D01*
X230363373Y-43012037D01*
X230429558Y-43005518D01*
X230495740Y-42999000D01*
X230584260Y-42999000D01*
X230650443Y-43005519D01*
X230650443Y-43005519D01*
G37*
G36*
X233190443Y-43005519D02*
G01*
X233256627Y-43012037D01*
X233426466Y-43063557D01*
X233582991Y-43147222D01*
X233602895Y-43163557D01*
X233720186Y-43259814D01*
X233802253Y-43359814D01*
X233832778Y-43397009D01*
X233916443Y-43553534D01*
X233967963Y-43723373D01*
X233985359Y-43900000D01*
X233967963Y-44076627D01*
X233916443Y-44246466D01*
X233832778Y-44402991D01*
X233803448Y-44438729D01*
X233720186Y-44540186D01*
X233618729Y-44623448D01*
X233582991Y-44652778D01*
X233426466Y-44736443D01*
X233256627Y-44787963D01*
X233190443Y-44794481D01*
X233124260Y-44801000D01*
X233035740Y-44801000D01*
X232969557Y-44794481D01*
X232903373Y-44787963D01*
X232733534Y-44736443D01*
X232577009Y-44652778D01*
X232541271Y-44623448D01*
X232439814Y-44540186D01*
X232356552Y-44438729D01*
X232327222Y-44402991D01*
X232243557Y-44246466D01*
X232192037Y-44076627D01*
X232174641Y-43900000D01*
X232192037Y-43723373D01*
X232243557Y-43553534D01*
X232327222Y-43397009D01*
X232357747Y-43359814D01*
X232439814Y-43259814D01*
X232557105Y-43163557D01*
X232577009Y-43147222D01*
X232733534Y-43063557D01*
X232903373Y-43012037D01*
X232969558Y-43005518D01*
X233035740Y-42999000D01*
X233124260Y-42999000D01*
X233190443Y-43005519D01*
X233190443Y-43005519D01*
G37*
M02*
