M48
; DRILL file {KiCad 5.1.9+dfsg1-1} date Tue Jun 21 09:56:47 2022
; FORMAT={-:-/ absolute / inch / decimal}
; #@! TF.CreationDate,2022-06-21T09:56:47-04:00
; #@! TF.GenerationSoftware,Kicad,Pcbnew,5.1.9+dfsg1-1
; #@! TF.FileFunction,Plated,1,2,PTH
FMAT,2
INCH
T1C0.0157
T2C0.0300
T3C0.0354
T4C0.0394
T5C0.0400
T6C0.0472
%
G90
G05
T1
X8.29Y-3.2
T2
X8.5Y-3.3961
X8.5Y-3.4961
X8.6Y-3.3961
X8.6Y-3.4961
X8.7Y-3.3961
X8.7Y-3.4961
X8.8Y-3.3961
X8.8Y-3.4961
T3
X7.2819Y-4.0551
X7.3819Y-4.0551
T4
X6.811Y-2.2835
X6.811Y-2.3835
X6.811Y-2.4835
X6.811Y-2.5835
X6.811Y-2.6835
X7.1063Y-1.7323
X7.2063Y-1.7323
X7.97Y-1.8
X8.07Y-1.8
X8.17Y-1.8
X8.6535Y-4.0079
X8.7535Y-4.0079
X8.8535Y-4.0079
X9.3701Y-2.2772
X9.3701Y-2.3772
X9.3701Y-2.4772
X9.3701Y-2.5772
X9.3701Y-2.6772
T5
X7.19Y-2.37
X7.19Y-2.47
X7.19Y-2.57
X7.19Y-2.67
X7.19Y-2.77
X7.19Y-2.87
X7.19Y-2.97
X7.19Y-3.07
X7.19Y-3.17
X7.19Y-3.27
X7.19Y-3.37
X7.19Y-3.47
X7.24Y-2.27
X7.34Y-2.27
X7.44Y-2.27
X7.54Y-2.27
X7.64Y-2.27
X7.675Y-2.715
X7.675Y-2.815
X7.675Y-3.125
X7.675Y-3.225
X7.74Y-2.27
X7.79Y-2.37
X7.79Y-2.47
X7.79Y-2.57
X7.79Y-2.67
X7.79Y-2.77
X7.79Y-2.87
X7.79Y-2.97
X7.79Y-3.07
X7.79Y-3.17
X7.79Y-3.27
X7.79Y-3.37
X7.79Y-3.47
T6
X7.185Y-3.7795
X7.485Y-3.7795
T0
M30
