G04 #@! TF.GenerationSoftware,KiCad,Pcbnew,5.1.2*
G04 #@! TF.CreationDate,2019-11-12T08:33:06-05:00*
G04 #@! TF.ProjectId,VS_robot_controller,56535f72-6f62-46f7-945f-636f6e74726f,rev?*
G04 #@! TF.SameCoordinates,Original*
G04 #@! TF.FileFunction,Legend,Bot*
G04 #@! TF.FilePolarity,Positive*
%FSLAX46Y46*%
G04 Gerber Fmt 4.6, Leading zero omitted, Abs format (unit mm)*
G04 Created by KiCad (PCBNEW 5.1.2) date 2019-11-12 08:33:06*
%MOMM*%
%LPD*%
G04 APERTURE LIST*
%ADD10C,0.300000*%
%ADD11C,0.010000*%
G04 APERTURE END LIST*
D10*
X207314285Y-54753571D02*
X206814285Y-56253571D01*
X206314285Y-54753571D01*
X205028571Y-56253571D02*
X205885714Y-56253571D01*
X205457142Y-56253571D02*
X205457142Y-54753571D01*
X205600000Y-54967857D01*
X205742857Y-55110714D01*
X205885714Y-55182142D01*
X218503571Y-52235714D02*
X218575000Y-52307142D01*
X218789285Y-52378571D01*
X218932142Y-52378571D01*
X219146428Y-52307142D01*
X219289285Y-52164285D01*
X219360714Y-52021428D01*
X219432142Y-51735714D01*
X219432142Y-51521428D01*
X219360714Y-51235714D01*
X219289285Y-51092857D01*
X219146428Y-50950000D01*
X218932142Y-50878571D01*
X218789285Y-50878571D01*
X218575000Y-50950000D01*
X218503571Y-51021428D01*
X217646428Y-52378571D02*
X217789285Y-52307142D01*
X217860714Y-52235714D01*
X217932142Y-52092857D01*
X217932142Y-51664285D01*
X217860714Y-51521428D01*
X217789285Y-51450000D01*
X217646428Y-51378571D01*
X217432142Y-51378571D01*
X217289285Y-51450000D01*
X217217857Y-51521428D01*
X217146428Y-51664285D01*
X217146428Y-52092857D01*
X217217857Y-52235714D01*
X217289285Y-52307142D01*
X217432142Y-52378571D01*
X217646428Y-52378571D01*
X216503571Y-52378571D02*
X216503571Y-51378571D01*
X216503571Y-51521428D02*
X216432142Y-51450000D01*
X216289285Y-51378571D01*
X216075000Y-51378571D01*
X215932142Y-51450000D01*
X215860714Y-51592857D01*
X215860714Y-52378571D01*
X215860714Y-51592857D02*
X215789285Y-51450000D01*
X215646428Y-51378571D01*
X215432142Y-51378571D01*
X215289285Y-51450000D01*
X215217857Y-51592857D01*
X215217857Y-52378571D01*
X214503571Y-52378571D02*
X214503571Y-50878571D01*
X214503571Y-51450000D02*
X214360714Y-51378571D01*
X214075000Y-51378571D01*
X213932142Y-51450000D01*
X213860714Y-51521428D01*
X213789285Y-51664285D01*
X213789285Y-52092857D01*
X213860714Y-52235714D01*
X213932142Y-52307142D01*
X214075000Y-52378571D01*
X214360714Y-52378571D01*
X214503571Y-52307142D01*
X212503571Y-52378571D02*
X212503571Y-51592857D01*
X212575000Y-51450000D01*
X212717857Y-51378571D01*
X213003571Y-51378571D01*
X213146428Y-51450000D01*
X212503571Y-52307142D02*
X212646428Y-52378571D01*
X213003571Y-52378571D01*
X213146428Y-52307142D01*
X213217857Y-52164285D01*
X213217857Y-52021428D01*
X213146428Y-51878571D01*
X213003571Y-51807142D01*
X212646428Y-51807142D01*
X212503571Y-51735714D01*
X212003571Y-51378571D02*
X211432142Y-51378571D01*
X211789285Y-50878571D02*
X211789285Y-52164285D01*
X211717857Y-52307142D01*
X211575000Y-52378571D01*
X211432142Y-52378571D01*
X208932142Y-52378571D02*
X209432142Y-51664285D01*
X209789285Y-52378571D02*
X209789285Y-50878571D01*
X209217857Y-50878571D01*
X209075000Y-50950000D01*
X209003571Y-51021428D01*
X208932142Y-51164285D01*
X208932142Y-51378571D01*
X209003571Y-51521428D01*
X209075000Y-51592857D01*
X209217857Y-51664285D01*
X209789285Y-51664285D01*
X208075000Y-52378571D02*
X208217857Y-52307142D01*
X208289285Y-52235714D01*
X208360714Y-52092857D01*
X208360714Y-51664285D01*
X208289285Y-51521428D01*
X208217857Y-51450000D01*
X208075000Y-51378571D01*
X207860714Y-51378571D01*
X207717857Y-51450000D01*
X207646428Y-51521428D01*
X207575000Y-51664285D01*
X207575000Y-52092857D01*
X207646428Y-52235714D01*
X207717857Y-52307142D01*
X207860714Y-52378571D01*
X208075000Y-52378571D01*
X206932142Y-52378571D02*
X206932142Y-50878571D01*
X206932142Y-51450000D02*
X206789285Y-51378571D01*
X206503571Y-51378571D01*
X206360714Y-51450000D01*
X206289285Y-51521428D01*
X206217857Y-51664285D01*
X206217857Y-52092857D01*
X206289285Y-52235714D01*
X206360714Y-52307142D01*
X206503571Y-52378571D01*
X206789285Y-52378571D01*
X206932142Y-52307142D01*
X205360714Y-52378571D02*
X205503571Y-52307142D01*
X205575000Y-52235714D01*
X205646428Y-52092857D01*
X205646428Y-51664285D01*
X205575000Y-51521428D01*
X205503571Y-51450000D01*
X205360714Y-51378571D01*
X205146428Y-51378571D01*
X205003571Y-51450000D01*
X204932142Y-51521428D01*
X204860714Y-51664285D01*
X204860714Y-52092857D01*
X204932142Y-52235714D01*
X205003571Y-52307142D01*
X205146428Y-52378571D01*
X205360714Y-52378571D01*
X204432142Y-51378571D02*
X203860714Y-51378571D01*
X204217857Y-50878571D02*
X204217857Y-52164285D01*
X204146428Y-52307142D01*
X204003571Y-52378571D01*
X203860714Y-52378571D01*
X201360714Y-52235714D02*
X201432142Y-52307142D01*
X201646428Y-52378571D01*
X201789285Y-52378571D01*
X202003571Y-52307142D01*
X202146428Y-52164285D01*
X202217857Y-52021428D01*
X202289285Y-51735714D01*
X202289285Y-51521428D01*
X202217857Y-51235714D01*
X202146428Y-51092857D01*
X202003571Y-50950000D01*
X201789285Y-50878571D01*
X201646428Y-50878571D01*
X201432142Y-50950000D01*
X201360714Y-51021428D01*
X200503571Y-52378571D02*
X200646428Y-52307142D01*
X200717857Y-52235714D01*
X200789285Y-52092857D01*
X200789285Y-51664285D01*
X200717857Y-51521428D01*
X200646428Y-51450000D01*
X200503571Y-51378571D01*
X200289285Y-51378571D01*
X200146428Y-51450000D01*
X200075000Y-51521428D01*
X200003571Y-51664285D01*
X200003571Y-52092857D01*
X200075000Y-52235714D01*
X200146428Y-52307142D01*
X200289285Y-52378571D01*
X200503571Y-52378571D01*
X199360714Y-51378571D02*
X199360714Y-52378571D01*
X199360714Y-51521428D02*
X199289285Y-51450000D01*
X199146428Y-51378571D01*
X198932142Y-51378571D01*
X198789285Y-51450000D01*
X198717857Y-51592857D01*
X198717857Y-52378571D01*
X198217857Y-51378571D02*
X197646428Y-51378571D01*
X198003571Y-50878571D02*
X198003571Y-52164285D01*
X197932142Y-52307142D01*
X197789285Y-52378571D01*
X197646428Y-52378571D01*
X197146428Y-52378571D02*
X197146428Y-51378571D01*
X197146428Y-51664285D02*
X197075000Y-51521428D01*
X197003571Y-51450000D01*
X196860714Y-51378571D01*
X196717857Y-51378571D01*
X196003571Y-52378571D02*
X196146428Y-52307142D01*
X196217857Y-52235714D01*
X196289285Y-52092857D01*
X196289285Y-51664285D01*
X196217857Y-51521428D01*
X196146428Y-51450000D01*
X196003571Y-51378571D01*
X195789285Y-51378571D01*
X195646428Y-51450000D01*
X195575000Y-51521428D01*
X195503571Y-51664285D01*
X195503571Y-52092857D01*
X195575000Y-52235714D01*
X195646428Y-52307142D01*
X195789285Y-52378571D01*
X196003571Y-52378571D01*
X194646428Y-52378571D02*
X194789285Y-52307142D01*
X194860714Y-52164285D01*
X194860714Y-50878571D01*
X193860714Y-52378571D02*
X194003571Y-52307142D01*
X194075000Y-52164285D01*
X194075000Y-50878571D01*
X192717857Y-52307142D02*
X192860714Y-52378571D01*
X193146428Y-52378571D01*
X193289285Y-52307142D01*
X193360714Y-52164285D01*
X193360714Y-51592857D01*
X193289285Y-51450000D01*
X193146428Y-51378571D01*
X192860714Y-51378571D01*
X192717857Y-51450000D01*
X192646428Y-51592857D01*
X192646428Y-51735714D01*
X193360714Y-51878571D01*
X192003571Y-52378571D02*
X192003571Y-51378571D01*
X192003571Y-51664285D02*
X191932142Y-51521428D01*
X191860714Y-51450000D01*
X191717857Y-51378571D01*
X191575000Y-51378571D01*
D11*
G36*
X186931391Y-90641986D02*
G01*
X186727163Y-90837572D01*
X186610142Y-91102363D01*
X186597667Y-91221145D01*
X186669594Y-91471088D01*
X186849538Y-91689340D01*
X187083743Y-91820163D01*
X187190334Y-91835667D01*
X187356141Y-91785626D01*
X187554038Y-91664772D01*
X187559916Y-91660188D01*
X187732461Y-91433663D01*
X187775277Y-91166312D01*
X187704252Y-90903730D01*
X187535277Y-90691512D01*
X187284242Y-90575251D01*
X187178469Y-90565667D01*
X186931391Y-90641986D01*
X186931391Y-90641986D01*
G37*
X186931391Y-90641986D02*
X186727163Y-90837572D01*
X186610142Y-91102363D01*
X186597667Y-91221145D01*
X186669594Y-91471088D01*
X186849538Y-91689340D01*
X187083743Y-91820163D01*
X187190334Y-91835667D01*
X187356141Y-91785626D01*
X187554038Y-91664772D01*
X187559916Y-91660188D01*
X187732461Y-91433663D01*
X187775277Y-91166312D01*
X187704252Y-90903730D01*
X187535277Y-90691512D01*
X187284242Y-90575251D01*
X187178469Y-90565667D01*
X186931391Y-90641986D01*
G36*
X184081228Y-91375042D02*
G01*
X183845595Y-91532042D01*
X183642262Y-91833438D01*
X183582487Y-92153950D01*
X183648535Y-92461126D01*
X183822673Y-92722516D01*
X184087167Y-92905670D01*
X184424283Y-92978137D01*
X184626277Y-92960582D01*
X184862074Y-92841439D01*
X185070370Y-92610640D01*
X185209343Y-92325257D01*
X185243000Y-92118991D01*
X185169562Y-91799644D01*
X184976213Y-91548585D01*
X184703407Y-91382804D01*
X184391594Y-91319293D01*
X184081228Y-91375042D01*
X184081228Y-91375042D01*
G37*
X184081228Y-91375042D02*
X183845595Y-91532042D01*
X183642262Y-91833438D01*
X183582487Y-92153950D01*
X183648535Y-92461126D01*
X183822673Y-92722516D01*
X184087167Y-92905670D01*
X184424283Y-92978137D01*
X184626277Y-92960582D01*
X184862074Y-92841439D01*
X185070370Y-92610640D01*
X185209343Y-92325257D01*
X185243000Y-92118991D01*
X185169562Y-91799644D01*
X184976213Y-91548585D01*
X184703407Y-91382804D01*
X184391594Y-91319293D01*
X184081228Y-91375042D01*
G36*
X186185776Y-94008566D02*
G01*
X185895557Y-94215084D01*
X185858820Y-94250913D01*
X185678581Y-94449385D01*
X185601699Y-94607550D01*
X185600771Y-94792691D01*
X185610660Y-94860196D01*
X185735646Y-95193360D01*
X185965831Y-95445836D01*
X186261884Y-95592919D01*
X186584477Y-95609904D01*
X186734140Y-95565891D01*
X186959292Y-95407818D01*
X187152318Y-95168184D01*
X187264064Y-94914257D01*
X187275000Y-94825711D01*
X187207747Y-94508395D01*
X187033502Y-94225446D01*
X186811700Y-94053483D01*
X186478279Y-93957367D01*
X186185776Y-94008566D01*
X186185776Y-94008566D01*
G37*
X186185776Y-94008566D02*
X185895557Y-94215084D01*
X185858820Y-94250913D01*
X185678581Y-94449385D01*
X185601699Y-94607550D01*
X185600771Y-94792691D01*
X185610660Y-94860196D01*
X185735646Y-95193360D01*
X185965831Y-95445836D01*
X186261884Y-95592919D01*
X186584477Y-95609904D01*
X186734140Y-95565891D01*
X186959292Y-95407818D01*
X187152318Y-95168184D01*
X187264064Y-94914257D01*
X187275000Y-94825711D01*
X187207747Y-94508395D01*
X187033502Y-94225446D01*
X186811700Y-94053483D01*
X186478279Y-93957367D01*
X186185776Y-94008566D01*
G36*
X177369000Y-76172333D02*
G01*
X179655000Y-76172333D01*
X179655000Y-79728333D01*
X177538334Y-79728333D01*
X177538334Y-80575000D01*
X179655000Y-80575000D01*
X179655000Y-84385000D01*
X177284334Y-84385000D01*
X177284334Y-85147000D01*
X180586334Y-85147000D01*
X180586334Y-75325667D01*
X177369000Y-75325667D01*
X177369000Y-76172333D01*
X177369000Y-76172333D01*
G37*
X177369000Y-76172333D02*
X179655000Y-76172333D01*
X179655000Y-79728333D01*
X177538334Y-79728333D01*
X177538334Y-80575000D01*
X179655000Y-80575000D01*
X179655000Y-84385000D01*
X177284334Y-84385000D01*
X177284334Y-85147000D01*
X180586334Y-85147000D01*
X180586334Y-75325667D01*
X177369000Y-75325667D01*
X177369000Y-76172333D01*
G36*
X183516218Y-75326474D02*
G01*
X183117229Y-75330983D01*
X182833826Y-75342327D01*
X182639135Y-75363638D01*
X182506284Y-75398046D01*
X182408400Y-75448684D01*
X182318609Y-75518684D01*
X182305555Y-75529863D01*
X182068000Y-75734059D01*
X182068000Y-78331333D01*
X182512500Y-78356924D01*
X182957000Y-78382516D01*
X182957000Y-76172333D01*
X185158334Y-76172333D01*
X185158334Y-84385000D01*
X182957000Y-84385000D01*
X182957000Y-81920817D01*
X182512500Y-81946409D01*
X182068000Y-81972000D01*
X182068000Y-83341204D01*
X182068971Y-83852542D01*
X182074327Y-84222892D01*
X182087732Y-84480600D01*
X182112852Y-84654010D01*
X182153352Y-84771468D01*
X182212896Y-84861317D01*
X182273259Y-84928704D01*
X182478518Y-85147000D01*
X185636817Y-85147000D01*
X185842075Y-84928512D01*
X186047334Y-84710024D01*
X186047334Y-75734338D01*
X185809779Y-75530002D01*
X185719037Y-75457081D01*
X185623894Y-75403961D01*
X185497478Y-75367506D01*
X185312918Y-75344584D01*
X185043341Y-75332060D01*
X184661875Y-75326801D01*
X184141648Y-75325673D01*
X184057667Y-75325667D01*
X183516218Y-75326474D01*
X183516218Y-75326474D01*
G37*
X183516218Y-75326474D02*
X183117229Y-75330983D01*
X182833826Y-75342327D01*
X182639135Y-75363638D01*
X182506284Y-75398046D01*
X182408400Y-75448684D01*
X182318609Y-75518684D01*
X182305555Y-75529863D01*
X182068000Y-75734059D01*
X182068000Y-78331333D01*
X182512500Y-78356924D01*
X182957000Y-78382516D01*
X182957000Y-76172333D01*
X185158334Y-76172333D01*
X185158334Y-84385000D01*
X182957000Y-84385000D01*
X182957000Y-81920817D01*
X182512500Y-81946409D01*
X182068000Y-81972000D01*
X182068000Y-83341204D01*
X182068971Y-83852542D01*
X182074327Y-84222892D01*
X182087732Y-84480600D01*
X182112852Y-84654010D01*
X182153352Y-84771468D01*
X182212896Y-84861317D01*
X182273259Y-84928704D01*
X182478518Y-85147000D01*
X185636817Y-85147000D01*
X185842075Y-84928512D01*
X186047334Y-84710024D01*
X186047334Y-75734338D01*
X185809779Y-75530002D01*
X185719037Y-75457081D01*
X185623894Y-75403961D01*
X185497478Y-75367506D01*
X185312918Y-75344584D01*
X185043341Y-75332060D01*
X184661875Y-75326801D01*
X184141648Y-75325673D01*
X184057667Y-75325667D01*
X183516218Y-75326474D01*
G36*
X189119353Y-75254486D02*
G01*
X188963981Y-75288488D01*
X188937648Y-75306820D01*
X188918140Y-75395926D01*
X188872502Y-75633895D01*
X188803928Y-76002815D01*
X188715612Y-76484776D01*
X188610747Y-77061865D01*
X188492528Y-77716171D01*
X188364147Y-78429782D01*
X188228798Y-79184786D01*
X188089675Y-79963272D01*
X187949972Y-80747327D01*
X187812882Y-81519042D01*
X187681599Y-82260502D01*
X187559317Y-82953798D01*
X187449228Y-83581017D01*
X187354528Y-84124248D01*
X187278409Y-84565578D01*
X187224065Y-84887097D01*
X187194690Y-85070892D01*
X187190334Y-85106683D01*
X187266787Y-85129105D01*
X187463362Y-85143743D01*
X187639867Y-85147000D01*
X188089399Y-85147000D01*
X188253768Y-84109833D01*
X188418137Y-83072667D01*
X190360154Y-83072667D01*
X190505429Y-84004000D01*
X190564632Y-84389617D01*
X190613256Y-84717785D01*
X190645658Y-84949686D01*
X190656185Y-85041167D01*
X190739557Y-85111115D01*
X190983033Y-85144018D01*
X191128947Y-85147000D01*
X191394504Y-85142084D01*
X191527832Y-85116195D01*
X191565980Y-85052620D01*
X191551254Y-84956500D01*
X191526066Y-84829440D01*
X191474959Y-84555011D01*
X191401397Y-84152606D01*
X191308846Y-83641621D01*
X191200767Y-83041449D01*
X191080627Y-82371486D01*
X191032644Y-82102993D01*
X190211527Y-82102993D01*
X190159417Y-82146301D01*
X190022020Y-82170679D01*
X189770819Y-82181381D01*
X189402696Y-82183667D01*
X188555647Y-82183667D01*
X188606122Y-81866167D01*
X188759051Y-80914490D01*
X188900850Y-80052442D01*
X189029613Y-79290608D01*
X189143433Y-78639573D01*
X189240406Y-78109923D01*
X189318626Y-77712243D01*
X189376187Y-77457118D01*
X189411184Y-77355132D01*
X189417785Y-77357667D01*
X189443995Y-77472796D01*
X189492134Y-77731709D01*
X189558175Y-78110857D01*
X189638094Y-78586692D01*
X189727863Y-79135664D01*
X189815838Y-79686000D01*
X189910955Y-80282878D01*
X189999444Y-80829610D01*
X190077338Y-81302361D01*
X190140671Y-81677298D01*
X190185476Y-81930586D01*
X190206869Y-82035500D01*
X190211527Y-82102993D01*
X191032644Y-82102993D01*
X190951888Y-81651127D01*
X190818015Y-80899765D01*
X190682472Y-80136796D01*
X190548723Y-79381615D01*
X190420232Y-78653615D01*
X190300463Y-77972192D01*
X190192880Y-77356740D01*
X190156227Y-77146000D01*
X190066906Y-76645658D01*
X189981483Y-76192736D01*
X189906109Y-75817947D01*
X189846938Y-75552009D01*
X189812782Y-75431500D01*
X189730797Y-75308854D01*
X189583896Y-75252984D01*
X189356146Y-75241000D01*
X189119353Y-75254486D01*
X189119353Y-75254486D01*
G37*
X189119353Y-75254486D02*
X188963981Y-75288488D01*
X188937648Y-75306820D01*
X188918140Y-75395926D01*
X188872502Y-75633895D01*
X188803928Y-76002815D01*
X188715612Y-76484776D01*
X188610747Y-77061865D01*
X188492528Y-77716171D01*
X188364147Y-78429782D01*
X188228798Y-79184786D01*
X188089675Y-79963272D01*
X187949972Y-80747327D01*
X187812882Y-81519042D01*
X187681599Y-82260502D01*
X187559317Y-82953798D01*
X187449228Y-83581017D01*
X187354528Y-84124248D01*
X187278409Y-84565578D01*
X187224065Y-84887097D01*
X187194690Y-85070892D01*
X187190334Y-85106683D01*
X187266787Y-85129105D01*
X187463362Y-85143743D01*
X187639867Y-85147000D01*
X188089399Y-85147000D01*
X188253768Y-84109833D01*
X188418137Y-83072667D01*
X190360154Y-83072667D01*
X190505429Y-84004000D01*
X190564632Y-84389617D01*
X190613256Y-84717785D01*
X190645658Y-84949686D01*
X190656185Y-85041167D01*
X190739557Y-85111115D01*
X190983033Y-85144018D01*
X191128947Y-85147000D01*
X191394504Y-85142084D01*
X191527832Y-85116195D01*
X191565980Y-85052620D01*
X191551254Y-84956500D01*
X191526066Y-84829440D01*
X191474959Y-84555011D01*
X191401397Y-84152606D01*
X191308846Y-83641621D01*
X191200767Y-83041449D01*
X191080627Y-82371486D01*
X191032644Y-82102993D01*
X190211527Y-82102993D01*
X190159417Y-82146301D01*
X190022020Y-82170679D01*
X189770819Y-82181381D01*
X189402696Y-82183667D01*
X188555647Y-82183667D01*
X188606122Y-81866167D01*
X188759051Y-80914490D01*
X188900850Y-80052442D01*
X189029613Y-79290608D01*
X189143433Y-78639573D01*
X189240406Y-78109923D01*
X189318626Y-77712243D01*
X189376187Y-77457118D01*
X189411184Y-77355132D01*
X189417785Y-77357667D01*
X189443995Y-77472796D01*
X189492134Y-77731709D01*
X189558175Y-78110857D01*
X189638094Y-78586692D01*
X189727863Y-79135664D01*
X189815838Y-79686000D01*
X189910955Y-80282878D01*
X189999444Y-80829610D01*
X190077338Y-81302361D01*
X190140671Y-81677298D01*
X190185476Y-81930586D01*
X190206869Y-82035500D01*
X190211527Y-82102993D01*
X191032644Y-82102993D01*
X190951888Y-81651127D01*
X190818015Y-80899765D01*
X190682472Y-80136796D01*
X190548723Y-79381615D01*
X190420232Y-78653615D01*
X190300463Y-77972192D01*
X190192880Y-77356740D01*
X190156227Y-77146000D01*
X190066906Y-76645658D01*
X189981483Y-76192736D01*
X189906109Y-75817947D01*
X189846938Y-75552009D01*
X189812782Y-75431500D01*
X189730797Y-75308854D01*
X189583896Y-75252984D01*
X189356146Y-75241000D01*
X189119353Y-75254486D01*
G36*
X194095287Y-75326128D02*
G01*
X193656264Y-75329233D01*
X193338256Y-75337559D01*
X193117104Y-75353684D01*
X192968651Y-75380186D01*
X192868735Y-75419644D01*
X192793200Y-75474636D01*
X192732152Y-75533485D01*
X192524334Y-75741303D01*
X192524334Y-80836697D01*
X192732152Y-81044515D01*
X192817190Y-81123253D01*
X192908535Y-81179082D01*
X193035042Y-81215938D01*
X193225568Y-81237754D01*
X193508968Y-81248467D01*
X193914098Y-81252010D01*
X194256152Y-81252333D01*
X195572334Y-81252333D01*
X195572334Y-85147000D01*
X196419000Y-85147000D01*
X196419000Y-76172333D01*
X195572334Y-76172333D01*
X195572334Y-78274889D01*
X195570150Y-78855276D01*
X195564009Y-79378814D01*
X195554528Y-79821936D01*
X195542321Y-80161076D01*
X195528007Y-80372666D01*
X195515889Y-80433889D01*
X195413693Y-80455948D01*
X195177645Y-80473969D01*
X194843213Y-80486060D01*
X194457556Y-80490333D01*
X193455667Y-80490333D01*
X193455667Y-76172333D01*
X195572334Y-76172333D01*
X196419000Y-76172333D01*
X196419000Y-75325667D01*
X194679485Y-75325667D01*
X194095287Y-75326128D01*
X194095287Y-75326128D01*
G37*
X194095287Y-75326128D02*
X193656264Y-75329233D01*
X193338256Y-75337559D01*
X193117104Y-75353684D01*
X192968651Y-75380186D01*
X192868735Y-75419644D01*
X192793200Y-75474636D01*
X192732152Y-75533485D01*
X192524334Y-75741303D01*
X192524334Y-80836697D01*
X192732152Y-81044515D01*
X192817190Y-81123253D01*
X192908535Y-81179082D01*
X193035042Y-81215938D01*
X193225568Y-81237754D01*
X193508968Y-81248467D01*
X193914098Y-81252010D01*
X194256152Y-81252333D01*
X195572334Y-81252333D01*
X195572334Y-85147000D01*
X196419000Y-85147000D01*
X196419000Y-76172333D01*
X195572334Y-76172333D01*
X195572334Y-78274889D01*
X195570150Y-78855276D01*
X195564009Y-79378814D01*
X195554528Y-79821936D01*
X195542321Y-80161076D01*
X195528007Y-80372666D01*
X195515889Y-80433889D01*
X195413693Y-80455948D01*
X195177645Y-80473969D01*
X194843213Y-80486060D01*
X194457556Y-80490333D01*
X193455667Y-80490333D01*
X193455667Y-76172333D01*
X195572334Y-76172333D01*
X196419000Y-76172333D01*
X196419000Y-75325667D01*
X194679485Y-75325667D01*
X194095287Y-75326128D01*
G36*
X198162193Y-75586163D02*
G01*
X198077679Y-75692799D01*
X198018262Y-75798981D01*
X197979524Y-75935428D01*
X197957047Y-76132858D01*
X197946413Y-76421991D01*
X197943202Y-76833545D01*
X197943000Y-77110163D01*
X197943000Y-78373667D01*
X198874334Y-78373667D01*
X198874334Y-76172333D01*
X200991000Y-76172333D01*
X200991000Y-78120404D01*
X199549783Y-79855146D01*
X199160530Y-80328010D01*
X198804840Y-80768349D01*
X198498051Y-81156514D01*
X198255500Y-81472856D01*
X198092524Y-81697726D01*
X198025783Y-81807622D01*
X197996433Y-81967660D01*
X197971661Y-82260649D01*
X197953491Y-82650227D01*
X197943949Y-83100031D01*
X197943000Y-83294049D01*
X197950706Y-83892675D01*
X197976879Y-84343983D01*
X198026104Y-84669420D01*
X198102962Y-84890430D01*
X198212039Y-85028460D01*
X198327794Y-85094406D01*
X198454091Y-85111485D01*
X198719438Y-85126248D01*
X199093553Y-85137723D01*
X199546160Y-85144940D01*
X199967167Y-85147000D01*
X201469483Y-85147000D01*
X201674742Y-84928691D01*
X201751243Y-84840850D01*
X201805908Y-84746982D01*
X201842404Y-84618741D01*
X201864395Y-84427782D01*
X201875546Y-84145760D01*
X201879522Y-83744330D01*
X201880000Y-83341191D01*
X201880000Y-81972000D01*
X201435500Y-81946409D01*
X200991000Y-81920817D01*
X200991000Y-84385000D01*
X198874334Y-84385000D01*
X198874334Y-82054536D01*
X200239851Y-80404601D01*
X200620980Y-79942460D01*
X200972184Y-79513527D01*
X201277016Y-79138133D01*
X201519034Y-78836606D01*
X201681792Y-78629276D01*
X201742685Y-78546723D01*
X201797563Y-78433184D01*
X201836209Y-78267510D01*
X201861131Y-78022139D01*
X201874832Y-77669511D01*
X201879821Y-77182064D01*
X201880000Y-77036559D01*
X201880000Y-75734338D01*
X201642446Y-75530002D01*
X201551617Y-75457022D01*
X201456376Y-75403877D01*
X201329820Y-75367423D01*
X201145044Y-75344518D01*
X200875142Y-75332020D01*
X200493210Y-75326786D01*
X199972343Y-75325672D01*
X199893139Y-75325667D01*
X198381386Y-75325667D01*
X198162193Y-75586163D01*
X198162193Y-75586163D01*
G37*
X198162193Y-75586163D02*
X198077679Y-75692799D01*
X198018262Y-75798981D01*
X197979524Y-75935428D01*
X197957047Y-76132858D01*
X197946413Y-76421991D01*
X197943202Y-76833545D01*
X197943000Y-77110163D01*
X197943000Y-78373667D01*
X198874334Y-78373667D01*
X198874334Y-76172333D01*
X200991000Y-76172333D01*
X200991000Y-78120404D01*
X199549783Y-79855146D01*
X199160530Y-80328010D01*
X198804840Y-80768349D01*
X198498051Y-81156514D01*
X198255500Y-81472856D01*
X198092524Y-81697726D01*
X198025783Y-81807622D01*
X197996433Y-81967660D01*
X197971661Y-82260649D01*
X197953491Y-82650227D01*
X197943949Y-83100031D01*
X197943000Y-83294049D01*
X197950706Y-83892675D01*
X197976879Y-84343983D01*
X198026104Y-84669420D01*
X198102962Y-84890430D01*
X198212039Y-85028460D01*
X198327794Y-85094406D01*
X198454091Y-85111485D01*
X198719438Y-85126248D01*
X199093553Y-85137723D01*
X199546160Y-85144940D01*
X199967167Y-85147000D01*
X201469483Y-85147000D01*
X201674742Y-84928691D01*
X201751243Y-84840850D01*
X201805908Y-84746982D01*
X201842404Y-84618741D01*
X201864395Y-84427782D01*
X201875546Y-84145760D01*
X201879522Y-83744330D01*
X201880000Y-83341191D01*
X201880000Y-81972000D01*
X201435500Y-81946409D01*
X200991000Y-81920817D01*
X200991000Y-84385000D01*
X198874334Y-84385000D01*
X198874334Y-82054536D01*
X200239851Y-80404601D01*
X200620980Y-79942460D01*
X200972184Y-79513527D01*
X201277016Y-79138133D01*
X201519034Y-78836606D01*
X201681792Y-78629276D01*
X201742685Y-78546723D01*
X201797563Y-78433184D01*
X201836209Y-78267510D01*
X201861131Y-78022139D01*
X201874832Y-77669511D01*
X201879821Y-77182064D01*
X201880000Y-77036559D01*
X201880000Y-75734338D01*
X201642446Y-75530002D01*
X201551617Y-75457022D01*
X201456376Y-75403877D01*
X201329820Y-75367423D01*
X201145044Y-75344518D01*
X200875142Y-75332020D01*
X200493210Y-75326786D01*
X199972343Y-75325672D01*
X199893139Y-75325667D01*
X198381386Y-75325667D01*
X198162193Y-75586163D01*
G36*
X207456876Y-75326068D02*
G01*
X207002805Y-75328872D01*
X206671143Y-75336478D01*
X206438426Y-75351286D01*
X206281194Y-75375695D01*
X206175984Y-75412105D01*
X206099333Y-75462915D01*
X206027778Y-75530525D01*
X206024819Y-75533485D01*
X205817000Y-75741303D01*
X205817000Y-77857097D01*
X205817373Y-78509491D01*
X205819719Y-79014273D01*
X205825878Y-79393165D01*
X205837691Y-79667889D01*
X205857000Y-79860165D01*
X205885644Y-79991716D01*
X205925464Y-80084262D01*
X205978302Y-80159527D01*
X206015895Y-80204119D01*
X206160453Y-80340497D01*
X206336172Y-80419167D01*
X206601175Y-80461848D01*
X206735561Y-80473016D01*
X207007111Y-80497030D01*
X207195514Y-80522047D01*
X207256334Y-80540286D01*
X207229018Y-80624518D01*
X207151863Y-80847773D01*
X207032055Y-81189633D01*
X206876782Y-81629677D01*
X206693232Y-82147488D01*
X206488593Y-82722647D01*
X206452000Y-82825285D01*
X206244406Y-83408662D01*
X206056688Y-83938624D01*
X205896041Y-84394659D01*
X205769660Y-84756260D01*
X205684740Y-85002916D01*
X205648476Y-85114119D01*
X205647667Y-85118066D01*
X205724195Y-85134238D01*
X205922063Y-85137283D01*
X206124798Y-85130058D01*
X206601928Y-85104667D01*
X207474907Y-82607000D01*
X207691078Y-81982982D01*
X207888056Y-81403737D01*
X208058958Y-80890344D01*
X208196904Y-80463885D01*
X208295012Y-80145441D01*
X208346400Y-79956092D01*
X208352443Y-79918833D01*
X208346438Y-79830535D01*
X208302313Y-79774836D01*
X208188592Y-79744239D01*
X207973798Y-79731245D01*
X207626454Y-79728358D01*
X207552667Y-79728333D01*
X206748334Y-79728333D01*
X206748334Y-76172333D01*
X208949667Y-76172333D01*
X208949667Y-85147000D01*
X209881000Y-85147000D01*
X209881000Y-75325667D01*
X208056819Y-75325667D01*
X207456876Y-75326068D01*
X207456876Y-75326068D01*
G37*
X207456876Y-75326068D02*
X207002805Y-75328872D01*
X206671143Y-75336478D01*
X206438426Y-75351286D01*
X206281194Y-75375695D01*
X206175984Y-75412105D01*
X206099333Y-75462915D01*
X206027778Y-75530525D01*
X206024819Y-75533485D01*
X205817000Y-75741303D01*
X205817000Y-77857097D01*
X205817373Y-78509491D01*
X205819719Y-79014273D01*
X205825878Y-79393165D01*
X205837691Y-79667889D01*
X205857000Y-79860165D01*
X205885644Y-79991716D01*
X205925464Y-80084262D01*
X205978302Y-80159527D01*
X206015895Y-80204119D01*
X206160453Y-80340497D01*
X206336172Y-80419167D01*
X206601175Y-80461848D01*
X206735561Y-80473016D01*
X207007111Y-80497030D01*
X207195514Y-80522047D01*
X207256334Y-80540286D01*
X207229018Y-80624518D01*
X207151863Y-80847773D01*
X207032055Y-81189633D01*
X206876782Y-81629677D01*
X206693232Y-82147488D01*
X206488593Y-82722647D01*
X206452000Y-82825285D01*
X206244406Y-83408662D01*
X206056688Y-83938624D01*
X205896041Y-84394659D01*
X205769660Y-84756260D01*
X205684740Y-85002916D01*
X205648476Y-85114119D01*
X205647667Y-85118066D01*
X205724195Y-85134238D01*
X205922063Y-85137283D01*
X206124798Y-85130058D01*
X206601928Y-85104667D01*
X207474907Y-82607000D01*
X207691078Y-81982982D01*
X207888056Y-81403737D01*
X208058958Y-80890344D01*
X208196904Y-80463885D01*
X208295012Y-80145441D01*
X208346400Y-79956092D01*
X208352443Y-79918833D01*
X208346438Y-79830535D01*
X208302313Y-79774836D01*
X208188592Y-79744239D01*
X207973798Y-79731245D01*
X207626454Y-79728358D01*
X207552667Y-79728333D01*
X206748334Y-79728333D01*
X206748334Y-76172333D01*
X208949667Y-76172333D01*
X208949667Y-85147000D01*
X209881000Y-85147000D01*
X209881000Y-75325667D01*
X208056819Y-75325667D01*
X207456876Y-75326068D01*
G36*
X212920020Y-75326309D02*
G01*
X212496051Y-75330069D01*
X212190580Y-75339700D01*
X211978190Y-75357951D01*
X211833463Y-75387575D01*
X211730981Y-75431323D01*
X211645328Y-75491947D01*
X211600222Y-75530002D01*
X211362667Y-75734338D01*
X211362667Y-84710024D01*
X211567926Y-84928512D01*
X211773184Y-85147000D01*
X213455608Y-85147000D01*
X214028989Y-85146491D01*
X214457702Y-85143157D01*
X214766411Y-85134286D01*
X214979779Y-85117166D01*
X215122472Y-85089086D01*
X215219153Y-85047334D01*
X215294487Y-84989199D01*
X215345849Y-84939182D01*
X215553667Y-84731363D01*
X215553667Y-76172333D01*
X214622334Y-76172333D01*
X214622334Y-84385000D01*
X212251667Y-84385000D01*
X212251667Y-76172333D01*
X214622334Y-76172333D01*
X215553667Y-76172333D01*
X215553667Y-75741303D01*
X215345849Y-75533485D01*
X215270215Y-75462120D01*
X215189813Y-75409307D01*
X215079678Y-75372254D01*
X214914846Y-75348168D01*
X214670352Y-75334257D01*
X214321233Y-75327727D01*
X213842523Y-75325788D01*
X213487904Y-75325667D01*
X212920020Y-75326309D01*
X212920020Y-75326309D01*
G37*
X212920020Y-75326309D02*
X212496051Y-75330069D01*
X212190580Y-75339700D01*
X211978190Y-75357951D01*
X211833463Y-75387575D01*
X211730981Y-75431323D01*
X211645328Y-75491947D01*
X211600222Y-75530002D01*
X211362667Y-75734338D01*
X211362667Y-84710024D01*
X211567926Y-84928512D01*
X211773184Y-85147000D01*
X213455608Y-85147000D01*
X214028989Y-85146491D01*
X214457702Y-85143157D01*
X214766411Y-85134286D01*
X214979779Y-85117166D01*
X215122472Y-85089086D01*
X215219153Y-85047334D01*
X215294487Y-84989199D01*
X215345849Y-84939182D01*
X215553667Y-84731363D01*
X215553667Y-76172333D01*
X214622334Y-76172333D01*
X214622334Y-84385000D01*
X212251667Y-84385000D01*
X212251667Y-76172333D01*
X214622334Y-76172333D01*
X215553667Y-76172333D01*
X215553667Y-75741303D01*
X215345849Y-75533485D01*
X215270215Y-75462120D01*
X215189813Y-75409307D01*
X215079678Y-75372254D01*
X214914846Y-75348168D01*
X214670352Y-75334257D01*
X214321233Y-75327727D01*
X213842523Y-75325788D01*
X213487904Y-75325667D01*
X212920020Y-75326309D01*
G36*
X216569667Y-76172333D02*
G01*
X218009000Y-76172333D01*
X218009000Y-85147000D01*
X218940334Y-85147000D01*
X218940334Y-76178688D01*
X219723500Y-76154344D01*
X220506667Y-76130000D01*
X220532473Y-75727833D01*
X220558278Y-75325667D01*
X216569667Y-75325667D01*
X216569667Y-76172333D01*
X216569667Y-76172333D01*
G37*
X216569667Y-76172333D02*
X218009000Y-76172333D01*
X218009000Y-85147000D01*
X218940334Y-85147000D01*
X218940334Y-76178688D01*
X219723500Y-76154344D01*
X220506667Y-76130000D01*
X220532473Y-75727833D01*
X220558278Y-75325667D01*
X216569667Y-75325667D01*
X216569667Y-76172333D01*
G36*
X222908489Y-75326293D02*
G01*
X222501853Y-75330194D01*
X222212881Y-75340402D01*
X222015742Y-75359949D01*
X221884600Y-75391868D01*
X221793623Y-75439191D01*
X221716975Y-75504951D01*
X221688152Y-75533485D01*
X221609529Y-75618374D01*
X221553742Y-75709544D01*
X221516878Y-75835786D01*
X221495021Y-76025894D01*
X221484257Y-76308659D01*
X221480671Y-76712874D01*
X221480334Y-77061909D01*
X221480334Y-78382516D01*
X221924834Y-78356924D01*
X222369334Y-78331333D01*
X222416726Y-76172333D01*
X224528334Y-76172333D01*
X224528334Y-84385000D01*
X222416316Y-84385000D01*
X222369334Y-81972000D01*
X221924834Y-81946409D01*
X221480334Y-81920817D01*
X221480334Y-83349817D01*
X221478716Y-83924666D01*
X221487337Y-84362295D01*
X221526403Y-84681235D01*
X221616123Y-84900013D01*
X221776705Y-85037158D01*
X222028358Y-85111199D01*
X222391291Y-85140665D01*
X222885710Y-85144085D01*
X223433124Y-85140316D01*
X223935378Y-85135929D01*
X224382393Y-85127800D01*
X224745286Y-85116795D01*
X224995177Y-85103779D01*
X225101615Y-85090333D01*
X225213708Y-84989471D01*
X225333314Y-84807075D01*
X225334449Y-84804888D01*
X225362997Y-84728185D01*
X225386990Y-84608658D01*
X225406801Y-84432634D01*
X225422801Y-84186437D01*
X225435364Y-83856392D01*
X225444860Y-83428825D01*
X225451663Y-82890060D01*
X225456144Y-82226424D01*
X225458676Y-81424241D01*
X225459631Y-80469836D01*
X225459667Y-80204700D01*
X225459667Y-75846659D01*
X225021281Y-75325667D01*
X223458626Y-75325667D01*
X222908489Y-75326293D01*
X222908489Y-75326293D01*
G37*
X222908489Y-75326293D02*
X222501853Y-75330194D01*
X222212881Y-75340402D01*
X222015742Y-75359949D01*
X221884600Y-75391868D01*
X221793623Y-75439191D01*
X221716975Y-75504951D01*
X221688152Y-75533485D01*
X221609529Y-75618374D01*
X221553742Y-75709544D01*
X221516878Y-75835786D01*
X221495021Y-76025894D01*
X221484257Y-76308659D01*
X221480671Y-76712874D01*
X221480334Y-77061909D01*
X221480334Y-78382516D01*
X221924834Y-78356924D01*
X222369334Y-78331333D01*
X222416726Y-76172333D01*
X224528334Y-76172333D01*
X224528334Y-84385000D01*
X222416316Y-84385000D01*
X222369334Y-81972000D01*
X221924834Y-81946409D01*
X221480334Y-81920817D01*
X221480334Y-83349817D01*
X221478716Y-83924666D01*
X221487337Y-84362295D01*
X221526403Y-84681235D01*
X221616123Y-84900013D01*
X221776705Y-85037158D01*
X222028358Y-85111199D01*
X222391291Y-85140665D01*
X222885710Y-85144085D01*
X223433124Y-85140316D01*
X223935378Y-85135929D01*
X224382393Y-85127800D01*
X224745286Y-85116795D01*
X224995177Y-85103779D01*
X225101615Y-85090333D01*
X225213708Y-84989471D01*
X225333314Y-84807075D01*
X225334449Y-84804888D01*
X225362997Y-84728185D01*
X225386990Y-84608658D01*
X225406801Y-84432634D01*
X225422801Y-84186437D01*
X225435364Y-83856392D01*
X225444860Y-83428825D01*
X225451663Y-82890060D01*
X225456144Y-82226424D01*
X225458676Y-81424241D01*
X225459631Y-80469836D01*
X225459667Y-80204700D01*
X225459667Y-75846659D01*
X225021281Y-75325667D01*
X223458626Y-75325667D01*
X222908489Y-75326293D01*
G36*
X226814334Y-76172333D02*
G01*
X229100334Y-76172333D01*
X229100334Y-79728333D01*
X226983667Y-79728333D01*
X226983667Y-80575000D01*
X229100334Y-80575000D01*
X229100334Y-84385000D01*
X226729667Y-84385000D01*
X226729667Y-85147000D01*
X230031667Y-85147000D01*
X230031667Y-75325667D01*
X226814334Y-75325667D01*
X226814334Y-76172333D01*
X226814334Y-76172333D01*
G37*
X226814334Y-76172333D02*
X229100334Y-76172333D01*
X229100334Y-79728333D01*
X226983667Y-79728333D01*
X226983667Y-80575000D01*
X229100334Y-80575000D01*
X229100334Y-84385000D01*
X226729667Y-84385000D01*
X226729667Y-85147000D01*
X230031667Y-85147000D01*
X230031667Y-75325667D01*
X226814334Y-75325667D01*
X226814334Y-76172333D01*
G36*
X234728900Y-75333694D02*
G01*
X234581939Y-75369142D01*
X234513345Y-75449057D01*
X234493057Y-75516166D01*
X234471231Y-75637528D01*
X234426551Y-75908368D01*
X234361845Y-76310787D01*
X234279946Y-76826890D01*
X234183681Y-77438779D01*
X234075883Y-78128558D01*
X233959380Y-78878330D01*
X233870341Y-79454054D01*
X233750695Y-80225162D01*
X233638575Y-80939983D01*
X233536636Y-81582152D01*
X233447533Y-82135303D01*
X233373920Y-82583073D01*
X233318452Y-82909096D01*
X233283785Y-83097008D01*
X233272853Y-83137054D01*
X233256318Y-83042696D01*
X233216491Y-82797892D01*
X233156039Y-82419523D01*
X233077630Y-81924474D01*
X232983931Y-81329629D01*
X232877609Y-80651873D01*
X232761331Y-79908088D01*
X232654586Y-79223251D01*
X232531747Y-78437390D01*
X232416153Y-77704208D01*
X232310505Y-77040386D01*
X232217504Y-76462608D01*
X232139851Y-75987555D01*
X232080249Y-75631910D01*
X232041399Y-75412355D01*
X232026558Y-75345001D01*
X231932854Y-75333138D01*
X231726019Y-75334948D01*
X231581294Y-75342084D01*
X231164863Y-75368000D01*
X231996186Y-80194000D01*
X232148827Y-81078098D01*
X232293725Y-81913478D01*
X232428214Y-82685017D01*
X232549624Y-83377591D01*
X232655288Y-83976074D01*
X232742538Y-84465342D01*
X232808704Y-84830272D01*
X232851120Y-85055738D01*
X232866264Y-85125833D01*
X232965698Y-85186922D01*
X233166355Y-85223079D01*
X233401595Y-85231624D01*
X233604776Y-85209879D01*
X233706865Y-85159624D01*
X233729007Y-85065068D01*
X233776813Y-84818714D01*
X233847586Y-84435705D01*
X233938629Y-83931186D01*
X234047244Y-83320300D01*
X234170735Y-82618191D01*
X234306405Y-81840002D01*
X234451556Y-81000877D01*
X234562596Y-80354791D01*
X234713239Y-79477769D01*
X234856332Y-78648304D01*
X234989164Y-77881858D01*
X235109028Y-77193897D01*
X235213213Y-76599884D01*
X235299010Y-76115284D01*
X235363710Y-75755560D01*
X235404602Y-75536179D01*
X235417774Y-75473833D01*
X235421558Y-75388268D01*
X235344104Y-75343517D01*
X235150251Y-75327123D01*
X234999551Y-75325667D01*
X234728900Y-75333694D01*
X234728900Y-75333694D01*
G37*
X234728900Y-75333694D02*
X234581939Y-75369142D01*
X234513345Y-75449057D01*
X234493057Y-75516166D01*
X234471231Y-75637528D01*
X234426551Y-75908368D01*
X234361845Y-76310787D01*
X234279946Y-76826890D01*
X234183681Y-77438779D01*
X234075883Y-78128558D01*
X233959380Y-78878330D01*
X233870341Y-79454054D01*
X233750695Y-80225162D01*
X233638575Y-80939983D01*
X233536636Y-81582152D01*
X233447533Y-82135303D01*
X233373920Y-82583073D01*
X233318452Y-82909096D01*
X233283785Y-83097008D01*
X233272853Y-83137054D01*
X233256318Y-83042696D01*
X233216491Y-82797892D01*
X233156039Y-82419523D01*
X233077630Y-81924474D01*
X232983931Y-81329629D01*
X232877609Y-80651873D01*
X232761331Y-79908088D01*
X232654586Y-79223251D01*
X232531747Y-78437390D01*
X232416153Y-77704208D01*
X232310505Y-77040386D01*
X232217504Y-76462608D01*
X232139851Y-75987555D01*
X232080249Y-75631910D01*
X232041399Y-75412355D01*
X232026558Y-75345001D01*
X231932854Y-75333138D01*
X231726019Y-75334948D01*
X231581294Y-75342084D01*
X231164863Y-75368000D01*
X231996186Y-80194000D01*
X232148827Y-81078098D01*
X232293725Y-81913478D01*
X232428214Y-82685017D01*
X232549624Y-83377591D01*
X232655288Y-83976074D01*
X232742538Y-84465342D01*
X232808704Y-84830272D01*
X232851120Y-85055738D01*
X232866264Y-85125833D01*
X232965698Y-85186922D01*
X233166355Y-85223079D01*
X233401595Y-85231624D01*
X233604776Y-85209879D01*
X233706865Y-85159624D01*
X233729007Y-85065068D01*
X233776813Y-84818714D01*
X233847586Y-84435705D01*
X233938629Y-83931186D01*
X234047244Y-83320300D01*
X234170735Y-82618191D01*
X234306405Y-81840002D01*
X234451556Y-81000877D01*
X234562596Y-80354791D01*
X234713239Y-79477769D01*
X234856332Y-78648304D01*
X234989164Y-77881858D01*
X235109028Y-77193897D01*
X235213213Y-76599884D01*
X235299010Y-76115284D01*
X235363710Y-75755560D01*
X235404602Y-75536179D01*
X235417774Y-75473833D01*
X235421558Y-75388268D01*
X235344104Y-75343517D01*
X235150251Y-75327123D01*
X234999551Y-75325667D01*
X234728900Y-75333694D01*
G36*
X227434094Y-87081772D02*
G01*
X227429878Y-87117388D01*
X227416330Y-87416383D01*
X227429394Y-87700322D01*
X227430561Y-87710055D01*
X227446530Y-87768411D01*
X227458282Y-87677391D01*
X227463738Y-87456937D01*
X227463885Y-87390667D01*
X227459652Y-87150380D01*
X227449030Y-87041859D01*
X227434094Y-87081772D01*
X227434094Y-87081772D01*
G37*
X227434094Y-87081772D02*
X227429878Y-87117388D01*
X227416330Y-87416383D01*
X227429394Y-87700322D01*
X227430561Y-87710055D01*
X227446530Y-87768411D01*
X227458282Y-87677391D01*
X227463738Y-87456937D01*
X227463885Y-87390667D01*
X227459652Y-87150380D01*
X227449030Y-87041859D01*
X227434094Y-87081772D01*
G36*
X225592256Y-87209281D02*
G01*
X225685863Y-87387659D01*
X225823552Y-87616578D01*
X225977647Y-87852775D01*
X226120477Y-88052985D01*
X226224367Y-88173945D01*
X226252571Y-88191172D01*
X226262504Y-88133454D01*
X226190509Y-87987078D01*
X226174753Y-87962167D01*
X225931494Y-87589607D01*
X225763920Y-87340012D01*
X225657401Y-87193110D01*
X225597306Y-87128626D01*
X225570405Y-87124707D01*
X225592256Y-87209281D01*
X225592256Y-87209281D01*
G37*
X225592256Y-87209281D02*
X225685863Y-87387659D01*
X225823552Y-87616578D01*
X225977647Y-87852775D01*
X226120477Y-88052985D01*
X226224367Y-88173945D01*
X226252571Y-88191172D01*
X226262504Y-88133454D01*
X226190509Y-87987078D01*
X226174753Y-87962167D01*
X225931494Y-87589607D01*
X225763920Y-87340012D01*
X225657401Y-87193110D01*
X225597306Y-87128626D01*
X225570405Y-87124707D01*
X225592256Y-87209281D01*
G36*
X229348150Y-87212175D02*
G01*
X229189459Y-87431007D01*
X229087363Y-87583074D01*
X228924948Y-87842327D01*
X228814643Y-88043726D01*
X228776616Y-88149810D01*
X228778970Y-88155858D01*
X228840045Y-88110818D01*
X228961511Y-87953069D01*
X229117947Y-87715878D01*
X229129840Y-87696689D01*
X229316326Y-87382143D01*
X229413558Y-87193022D01*
X229423508Y-87134606D01*
X229348150Y-87212175D01*
X229348150Y-87212175D01*
G37*
X229348150Y-87212175D02*
X229189459Y-87431007D01*
X229087363Y-87583074D01*
X228924948Y-87842327D01*
X228814643Y-88043726D01*
X228776616Y-88149810D01*
X228778970Y-88155858D01*
X228840045Y-88110818D01*
X228961511Y-87953069D01*
X229117947Y-87715878D01*
X229129840Y-87696689D01*
X229316326Y-87382143D01*
X229413558Y-87193022D01*
X229423508Y-87134606D01*
X229348150Y-87212175D01*
G36*
X224184078Y-88112078D02*
G01*
X224332592Y-88252452D01*
X224556635Y-88439775D01*
X224612092Y-88483748D01*
X224851044Y-88663732D01*
X225028474Y-88782585D01*
X225113196Y-88819852D01*
X225116275Y-88814451D01*
X225053673Y-88731003D01*
X224898627Y-88587337D01*
X224691515Y-88415251D01*
X224472713Y-88246541D01*
X224282597Y-88113007D01*
X224161544Y-88046445D01*
X224140842Y-88046270D01*
X224184078Y-88112078D01*
X224184078Y-88112078D01*
G37*
X224184078Y-88112078D02*
X224332592Y-88252452D01*
X224556635Y-88439775D01*
X224612092Y-88483748D01*
X224851044Y-88663732D01*
X225028474Y-88782585D01*
X225113196Y-88819852D01*
X225116275Y-88814451D01*
X225053673Y-88731003D01*
X224898627Y-88587337D01*
X224691515Y-88415251D01*
X224472713Y-88246541D01*
X224282597Y-88113007D01*
X224161544Y-88046445D01*
X224140842Y-88046270D01*
X224184078Y-88112078D01*
G36*
X230784732Y-88073401D02*
G01*
X230730167Y-88102819D01*
X230601898Y-88192329D01*
X230417750Y-88340409D01*
X230214626Y-88514519D01*
X230029427Y-88682116D01*
X229899057Y-88810660D01*
X229860418Y-88867610D01*
X229862334Y-88868094D01*
X229944320Y-88820654D01*
X230121554Y-88692704D01*
X230357861Y-88510515D01*
X230391500Y-88483844D01*
X230671584Y-88254050D01*
X230834162Y-88104907D01*
X230873717Y-88042621D01*
X230784732Y-88073401D01*
X230784732Y-88073401D01*
G37*
X230784732Y-88073401D02*
X230730167Y-88102819D01*
X230601898Y-88192329D01*
X230417750Y-88340409D01*
X230214626Y-88514519D01*
X230029427Y-88682116D01*
X229899057Y-88810660D01*
X229860418Y-88867610D01*
X229862334Y-88868094D01*
X229944320Y-88820654D01*
X230121554Y-88692704D01*
X230357861Y-88510515D01*
X230391500Y-88483844D01*
X230671584Y-88254050D01*
X230834162Y-88104907D01*
X230873717Y-88042621D01*
X230784732Y-88073401D01*
G36*
X223400512Y-89246547D02*
G01*
X223529362Y-89335312D01*
X223735620Y-89457900D01*
X223981982Y-89593920D01*
X224231146Y-89722981D01*
X224445810Y-89824692D01*
X224588671Y-89878661D01*
X224613000Y-89882517D01*
X224602770Y-89847668D01*
X224467716Y-89753323D01*
X224233952Y-89616741D01*
X224106039Y-89547439D01*
X223806573Y-89393692D01*
X223560873Y-89277094D01*
X223409378Y-89216494D01*
X223386372Y-89211996D01*
X223400512Y-89246547D01*
X223400512Y-89246547D01*
G37*
X223400512Y-89246547D02*
X223529362Y-89335312D01*
X223735620Y-89457900D01*
X223981982Y-89593920D01*
X224231146Y-89722981D01*
X224445810Y-89824692D01*
X224588671Y-89878661D01*
X224613000Y-89882517D01*
X224602770Y-89847668D01*
X224467716Y-89753323D01*
X224233952Y-89616741D01*
X224106039Y-89547439D01*
X223806573Y-89393692D01*
X223560873Y-89277094D01*
X223409378Y-89216494D01*
X223386372Y-89211996D01*
X223400512Y-89246547D01*
G36*
X231512208Y-89247139D02*
G01*
X231310119Y-89337635D01*
X231054664Y-89461918D01*
X230789721Y-89597663D01*
X230559168Y-89722545D01*
X230406884Y-89814240D01*
X230370334Y-89847064D01*
X230398891Y-89882636D01*
X230499502Y-89858939D01*
X230694577Y-89766713D01*
X231006526Y-89596696D01*
X231090000Y-89549667D01*
X231354985Y-89395440D01*
X231541679Y-89278218D01*
X231619974Y-89217246D01*
X231617054Y-89212753D01*
X231512208Y-89247139D01*
X231512208Y-89247139D01*
G37*
X231512208Y-89247139D02*
X231310119Y-89337635D01*
X231054664Y-89461918D01*
X230789721Y-89597663D01*
X230559168Y-89722545D01*
X230406884Y-89814240D01*
X230370334Y-89847064D01*
X230398891Y-89882636D01*
X230499502Y-89858939D01*
X230694577Y-89766713D01*
X231006526Y-89596696D01*
X231090000Y-89549667D01*
X231354985Y-89395440D01*
X231541679Y-89278218D01*
X231619974Y-89217246D01*
X231617054Y-89212753D01*
X231512208Y-89247139D01*
G36*
X223483971Y-91005962D02*
G01*
X223403946Y-91011798D01*
X223324784Y-91025346D01*
X223397653Y-91035995D01*
X223605259Y-91042388D01*
X223808667Y-91043614D01*
X224090249Y-91040478D01*
X224242749Y-91032393D01*
X224251182Y-91020714D01*
X224165946Y-91011329D01*
X223827038Y-90998517D01*
X223483971Y-91005962D01*
X223483971Y-91005962D01*
G37*
X223483971Y-91005962D02*
X223403946Y-91011798D01*
X223324784Y-91025346D01*
X223397653Y-91035995D01*
X223605259Y-91042388D01*
X223808667Y-91043614D01*
X224090249Y-91040478D01*
X224242749Y-91032393D01*
X224251182Y-91020714D01*
X224165946Y-91011329D01*
X223827038Y-90998517D01*
X223483971Y-91005962D01*
G36*
X230849971Y-91005962D02*
G01*
X230769946Y-91011798D01*
X230690784Y-91025346D01*
X230763653Y-91035995D01*
X230971259Y-91042388D01*
X231174667Y-91043614D01*
X231456249Y-91040478D01*
X231608749Y-91032393D01*
X231617182Y-91020714D01*
X231531946Y-91011329D01*
X231193038Y-90998517D01*
X230849971Y-91005962D01*
X230849971Y-91005962D01*
G37*
X230849971Y-91005962D02*
X230769946Y-91011798D01*
X230690784Y-91025346D01*
X230763653Y-91035995D01*
X230971259Y-91042388D01*
X231174667Y-91043614D01*
X231456249Y-91040478D01*
X231608749Y-91032393D01*
X231617182Y-91020714D01*
X231531946Y-91011329D01*
X231193038Y-90998517D01*
X230849971Y-91005962D01*
G36*
X215088582Y-87633526D02*
G01*
X214817038Y-87698605D01*
X214635539Y-87803193D01*
X214562994Y-87929738D01*
X214618310Y-88060687D01*
X214820396Y-88178486D01*
X214831288Y-88182491D01*
X215277693Y-88425122D01*
X215644876Y-88806190D01*
X215904151Y-89249692D01*
X216027612Y-89522827D01*
X216114846Y-89739034D01*
X216146267Y-89847869D01*
X216202105Y-89950362D01*
X216350685Y-90127666D01*
X216563730Y-90352891D01*
X216812969Y-90599145D01*
X217070125Y-90839540D01*
X217306927Y-91047183D01*
X217495098Y-91195186D01*
X217606365Y-91256657D01*
X217622517Y-91251872D01*
X217741350Y-91162444D01*
X217857154Y-91227488D01*
X217896570Y-91306500D01*
X217972973Y-91428980D01*
X218125266Y-91618544D01*
X218317246Y-91835755D01*
X218512707Y-92041177D01*
X218675445Y-92195372D01*
X218769254Y-92258902D01*
X218771000Y-92259000D01*
X218850588Y-92203168D01*
X219012196Y-92056868D01*
X219218683Y-91853925D01*
X219421108Y-91636587D01*
X219564692Y-91459856D01*
X219617667Y-91363909D01*
X219558264Y-91258913D01*
X219406172Y-91085094D01*
X219200566Y-90879863D01*
X218980622Y-90680631D01*
X218785517Y-90524808D01*
X218663250Y-90452500D01*
X218563616Y-90391420D01*
X218586706Y-90282097D01*
X218620916Y-90222339D01*
X218652290Y-90149253D01*
X218645107Y-90067582D01*
X218584197Y-89957942D01*
X218454390Y-89800952D01*
X218240517Y-89577227D01*
X217927410Y-89267385D01*
X217701435Y-89047446D01*
X217196064Y-88571509D01*
X216774166Y-88211295D01*
X216411671Y-87951727D01*
X216084511Y-87777729D01*
X215768614Y-87674225D01*
X215439912Y-87626139D01*
X215431262Y-87625512D01*
X215088582Y-87633526D01*
X215088582Y-87633526D01*
G37*
X215088582Y-87633526D02*
X214817038Y-87698605D01*
X214635539Y-87803193D01*
X214562994Y-87929738D01*
X214618310Y-88060687D01*
X214820396Y-88178486D01*
X214831288Y-88182491D01*
X215277693Y-88425122D01*
X215644876Y-88806190D01*
X215904151Y-89249692D01*
X216027612Y-89522827D01*
X216114846Y-89739034D01*
X216146267Y-89847869D01*
X216202105Y-89950362D01*
X216350685Y-90127666D01*
X216563730Y-90352891D01*
X216812969Y-90599145D01*
X217070125Y-90839540D01*
X217306927Y-91047183D01*
X217495098Y-91195186D01*
X217606365Y-91256657D01*
X217622517Y-91251872D01*
X217741350Y-91162444D01*
X217857154Y-91227488D01*
X217896570Y-91306500D01*
X217972973Y-91428980D01*
X218125266Y-91618544D01*
X218317246Y-91835755D01*
X218512707Y-92041177D01*
X218675445Y-92195372D01*
X218769254Y-92258902D01*
X218771000Y-92259000D01*
X218850588Y-92203168D01*
X219012196Y-92056868D01*
X219218683Y-91853925D01*
X219421108Y-91636587D01*
X219564692Y-91459856D01*
X219617667Y-91363909D01*
X219558264Y-91258913D01*
X219406172Y-91085094D01*
X219200566Y-90879863D01*
X218980622Y-90680631D01*
X218785517Y-90524808D01*
X218663250Y-90452500D01*
X218563616Y-90391420D01*
X218586706Y-90282097D01*
X218620916Y-90222339D01*
X218652290Y-90149253D01*
X218645107Y-90067582D01*
X218584197Y-89957942D01*
X218454390Y-89800952D01*
X218240517Y-89577227D01*
X217927410Y-89267385D01*
X217701435Y-89047446D01*
X217196064Y-88571509D01*
X216774166Y-88211295D01*
X216411671Y-87951727D01*
X216084511Y-87777729D01*
X215768614Y-87674225D01*
X215439912Y-87626139D01*
X215431262Y-87625512D01*
X215088582Y-87633526D01*
G36*
X211295541Y-87949879D02*
G01*
X211235667Y-87994238D01*
X211287855Y-88082085D01*
X211421577Y-88249401D01*
X211532000Y-88375482D01*
X211702617Y-88582302D01*
X211791387Y-88763914D01*
X211824406Y-88993381D01*
X211828334Y-89205151D01*
X211828334Y-89706815D01*
X211355924Y-89765839D01*
X211080507Y-89793593D01*
X210903164Y-89775378D01*
X210754355Y-89689281D01*
X210569187Y-89517931D01*
X210326328Y-89302972D01*
X210168684Y-89225383D01*
X210081749Y-89285678D01*
X210051017Y-89484374D01*
X210050334Y-89536350D01*
X210129195Y-89989473D01*
X210347601Y-90387394D01*
X210678283Y-90704018D01*
X211093973Y-90913251D01*
X211567402Y-90989000D01*
X211568353Y-90989000D01*
X211739301Y-90994539D01*
X211879909Y-91024670D01*
X212021350Y-91099665D01*
X212194794Y-91239795D01*
X212431415Y-91465332D01*
X212675000Y-91708667D01*
X212956089Y-91987538D01*
X213193425Y-92216079D01*
X213362150Y-92370829D01*
X213437405Y-92428329D01*
X213437577Y-92428333D01*
X213514032Y-92372190D01*
X213678829Y-92222085D01*
X213902310Y-92005508D01*
X214010691Y-91897147D01*
X214537156Y-91365960D01*
X213792672Y-90624926D01*
X213480479Y-90310354D01*
X213271671Y-90085309D01*
X213147250Y-89922286D01*
X213088216Y-89793781D01*
X213075573Y-89672289D01*
X213081819Y-89595815D01*
X213055058Y-89134857D01*
X212881533Y-88704067D01*
X212583606Y-88342034D01*
X212215989Y-88101556D01*
X211982735Y-88020840D01*
X211718409Y-87965024D01*
X211472761Y-87939555D01*
X211295541Y-87949879D01*
X211295541Y-87949879D01*
G37*
X211295541Y-87949879D02*
X211235667Y-87994238D01*
X211287855Y-88082085D01*
X211421577Y-88249401D01*
X211532000Y-88375482D01*
X211702617Y-88582302D01*
X211791387Y-88763914D01*
X211824406Y-88993381D01*
X211828334Y-89205151D01*
X211828334Y-89706815D01*
X211355924Y-89765839D01*
X211080507Y-89793593D01*
X210903164Y-89775378D01*
X210754355Y-89689281D01*
X210569187Y-89517931D01*
X210326328Y-89302972D01*
X210168684Y-89225383D01*
X210081749Y-89285678D01*
X210051017Y-89484374D01*
X210050334Y-89536350D01*
X210129195Y-89989473D01*
X210347601Y-90387394D01*
X210678283Y-90704018D01*
X211093973Y-90913251D01*
X211567402Y-90989000D01*
X211568353Y-90989000D01*
X211739301Y-90994539D01*
X211879909Y-91024670D01*
X212021350Y-91099665D01*
X212194794Y-91239795D01*
X212431415Y-91465332D01*
X212675000Y-91708667D01*
X212956089Y-91987538D01*
X213193425Y-92216079D01*
X213362150Y-92370829D01*
X213437405Y-92428329D01*
X213437577Y-92428333D01*
X213514032Y-92372190D01*
X213678829Y-92222085D01*
X213902310Y-92005508D01*
X214010691Y-91897147D01*
X214537156Y-91365960D01*
X213792672Y-90624926D01*
X213480479Y-90310354D01*
X213271671Y-90085309D01*
X213147250Y-89922286D01*
X213088216Y-89793781D01*
X213075573Y-89672289D01*
X213081819Y-89595815D01*
X213055058Y-89134857D01*
X212881533Y-88704067D01*
X212583606Y-88342034D01*
X212215989Y-88101556D01*
X211982735Y-88020840D01*
X211718409Y-87965024D01*
X211472761Y-87939555D01*
X211295541Y-87949879D01*
G36*
X224629931Y-92162388D02*
G01*
X224453582Y-92231375D01*
X224208908Y-92342463D01*
X223936197Y-92476384D01*
X223675737Y-92613870D01*
X223467816Y-92735655D01*
X223427667Y-92762141D01*
X223335504Y-92838287D01*
X223376484Y-92845324D01*
X223532216Y-92789709D01*
X223784305Y-92677899D01*
X224083834Y-92531802D01*
X224368236Y-92380564D01*
X224582692Y-92251856D01*
X224691172Y-92167806D01*
X224697667Y-92154770D01*
X224629931Y-92162388D01*
X224629931Y-92162388D01*
G37*
X224629931Y-92162388D02*
X224453582Y-92231375D01*
X224208908Y-92342463D01*
X223936197Y-92476384D01*
X223675737Y-92613870D01*
X223467816Y-92735655D01*
X223427667Y-92762141D01*
X223335504Y-92838287D01*
X223376484Y-92845324D01*
X223532216Y-92789709D01*
X223784305Y-92677899D01*
X224083834Y-92531802D01*
X224368236Y-92380564D01*
X224582692Y-92251856D01*
X224691172Y-92167806D01*
X224697667Y-92154770D01*
X224629931Y-92162388D01*
G36*
X230453001Y-92250526D02*
G01*
X230614784Y-92353087D01*
X230845245Y-92484542D01*
X231102559Y-92622363D01*
X231344898Y-92744023D01*
X231530435Y-92826994D01*
X231610382Y-92850370D01*
X231615388Y-92812313D01*
X231555667Y-92762212D01*
X231372634Y-92650744D01*
X231126796Y-92517960D01*
X230862468Y-92385475D01*
X230623963Y-92274900D01*
X230455596Y-92207852D01*
X230401724Y-92199387D01*
X230453001Y-92250526D01*
X230453001Y-92250526D01*
G37*
X230453001Y-92250526D02*
X230614784Y-92353087D01*
X230845245Y-92484542D01*
X231102559Y-92622363D01*
X231344898Y-92744023D01*
X231530435Y-92826994D01*
X231610382Y-92850370D01*
X231615388Y-92812313D01*
X231555667Y-92762212D01*
X231372634Y-92650744D01*
X231126796Y-92517960D01*
X230862468Y-92385475D01*
X230623963Y-92274900D01*
X230455596Y-92207852D01*
X230401724Y-92199387D01*
X230453001Y-92250526D01*
G36*
X201077482Y-90044136D02*
G01*
X201006441Y-90100000D01*
X200919728Y-90169846D01*
X200832109Y-90222357D01*
X200719474Y-90260025D01*
X200557714Y-90285343D01*
X200322720Y-90300803D01*
X199990382Y-90308900D01*
X199536591Y-90312124D01*
X198946778Y-90312963D01*
X198405813Y-90316435D01*
X197919268Y-90325406D01*
X197513659Y-90338911D01*
X197215500Y-90355986D01*
X197051305Y-90375666D01*
X197030911Y-90382648D01*
X196991606Y-90449233D01*
X196964069Y-90603487D01*
X196947368Y-90863795D01*
X196940573Y-91248538D01*
X196942751Y-91776098D01*
X196946244Y-92053519D01*
X196969334Y-93656000D01*
X197514077Y-93681611D01*
X197837988Y-93708317D01*
X198047620Y-93762423D01*
X198197727Y-93861232D01*
X198250868Y-93914444D01*
X198515261Y-94089142D01*
X198816792Y-94118885D01*
X199105390Y-94003870D01*
X199212353Y-93910689D01*
X199367565Y-93657239D01*
X199407237Y-93460768D01*
X199044436Y-93460768D01*
X199029061Y-93650041D01*
X198987223Y-93726555D01*
X198825724Y-93785838D01*
X198623651Y-93750547D01*
X198466859Y-93638759D01*
X198451000Y-93613667D01*
X198399405Y-93386052D01*
X198481982Y-93211727D01*
X198664683Y-93124580D01*
X198909742Y-93157058D01*
X199000840Y-93268339D01*
X199044436Y-93460768D01*
X199407237Y-93460768D01*
X199410556Y-93444333D01*
X199339939Y-93141893D01*
X199156155Y-92919710D01*
X198901304Y-92795016D01*
X198617483Y-92785045D01*
X198346792Y-92907029D01*
X198269387Y-92977204D01*
X198025586Y-93145611D01*
X197752500Y-93188870D01*
X197435000Y-93190333D01*
X197435000Y-90904333D01*
X199128334Y-90904333D01*
X199707728Y-90905355D01*
X200141914Y-90909882D01*
X200455013Y-90920107D01*
X200671144Y-90938224D01*
X200814428Y-90966423D01*
X200908985Y-91006899D01*
X200978935Y-91061845D01*
X200991000Y-91073667D01*
X201251014Y-91227188D01*
X201548448Y-91247007D01*
X201829416Y-91142028D01*
X202040028Y-90921153D01*
X202052465Y-90898278D01*
X202158626Y-90626360D01*
X202152915Y-90565487D01*
X201789423Y-90565487D01*
X201735249Y-90746850D01*
X201592679Y-90875575D01*
X201456667Y-90904333D01*
X201267449Y-90851230D01*
X201175612Y-90765308D01*
X201124256Y-90539391D01*
X201206324Y-90355205D01*
X201385914Y-90256016D01*
X201586453Y-90270217D01*
X201743668Y-90387828D01*
X201789423Y-90565487D01*
X202152915Y-90565487D01*
X202138433Y-90411131D01*
X201981813Y-90190467D01*
X201928847Y-90135820D01*
X201649716Y-89937269D01*
X201369912Y-89906862D01*
X201077482Y-90044136D01*
X201077482Y-90044136D01*
G37*
X201077482Y-90044136D02*
X201006441Y-90100000D01*
X200919728Y-90169846D01*
X200832109Y-90222357D01*
X200719474Y-90260025D01*
X200557714Y-90285343D01*
X200322720Y-90300803D01*
X199990382Y-90308900D01*
X199536591Y-90312124D01*
X198946778Y-90312963D01*
X198405813Y-90316435D01*
X197919268Y-90325406D01*
X197513659Y-90338911D01*
X197215500Y-90355986D01*
X197051305Y-90375666D01*
X197030911Y-90382648D01*
X196991606Y-90449233D01*
X196964069Y-90603487D01*
X196947368Y-90863795D01*
X196940573Y-91248538D01*
X196942751Y-91776098D01*
X196946244Y-92053519D01*
X196969334Y-93656000D01*
X197514077Y-93681611D01*
X197837988Y-93708317D01*
X198047620Y-93762423D01*
X198197727Y-93861232D01*
X198250868Y-93914444D01*
X198515261Y-94089142D01*
X198816792Y-94118885D01*
X199105390Y-94003870D01*
X199212353Y-93910689D01*
X199367565Y-93657239D01*
X199407237Y-93460768D01*
X199044436Y-93460768D01*
X199029061Y-93650041D01*
X198987223Y-93726555D01*
X198825724Y-93785838D01*
X198623651Y-93750547D01*
X198466859Y-93638759D01*
X198451000Y-93613667D01*
X198399405Y-93386052D01*
X198481982Y-93211727D01*
X198664683Y-93124580D01*
X198909742Y-93157058D01*
X199000840Y-93268339D01*
X199044436Y-93460768D01*
X199407237Y-93460768D01*
X199410556Y-93444333D01*
X199339939Y-93141893D01*
X199156155Y-92919710D01*
X198901304Y-92795016D01*
X198617483Y-92785045D01*
X198346792Y-92907029D01*
X198269387Y-92977204D01*
X198025586Y-93145611D01*
X197752500Y-93188870D01*
X197435000Y-93190333D01*
X197435000Y-90904333D01*
X199128334Y-90904333D01*
X199707728Y-90905355D01*
X200141914Y-90909882D01*
X200455013Y-90920107D01*
X200671144Y-90938224D01*
X200814428Y-90966423D01*
X200908985Y-91006899D01*
X200978935Y-91061845D01*
X200991000Y-91073667D01*
X201251014Y-91227188D01*
X201548448Y-91247007D01*
X201829416Y-91142028D01*
X202040028Y-90921153D01*
X202052465Y-90898278D01*
X202158626Y-90626360D01*
X202152915Y-90565487D01*
X201789423Y-90565487D01*
X201735249Y-90746850D01*
X201592679Y-90875575D01*
X201456667Y-90904333D01*
X201267449Y-90851230D01*
X201175612Y-90765308D01*
X201124256Y-90539391D01*
X201206324Y-90355205D01*
X201385914Y-90256016D01*
X201586453Y-90270217D01*
X201743668Y-90387828D01*
X201789423Y-90565487D01*
X202152915Y-90565487D01*
X202138433Y-90411131D01*
X201981813Y-90190467D01*
X201928847Y-90135820D01*
X201649716Y-89937269D01*
X201369912Y-89906862D01*
X201077482Y-90044136D01*
G36*
X200255040Y-87431870D02*
G01*
X200054117Y-87603081D01*
X199928609Y-87838919D01*
X199905441Y-88113985D01*
X200011542Y-88402879D01*
X200065812Y-88479915D01*
X200305235Y-88661699D01*
X200599034Y-88711998D01*
X200894151Y-88630212D01*
X201075667Y-88491333D01*
X201160080Y-88408326D01*
X201251049Y-88350458D01*
X201378795Y-88313200D01*
X201573538Y-88292018D01*
X201865499Y-88282384D01*
X202284900Y-88279765D01*
X202487426Y-88279667D01*
X203700334Y-88279667D01*
X203700334Y-90666043D01*
X203699714Y-91366939D01*
X203697014Y-91918280D01*
X203690975Y-92339839D01*
X203680339Y-92651393D01*
X203663846Y-92872716D01*
X203640238Y-93023585D01*
X203608254Y-93123773D01*
X203566638Y-93193057D01*
X203537277Y-93227210D01*
X203363493Y-93509391D01*
X203327645Y-93798633D01*
X203408493Y-94062408D01*
X203584797Y-94268187D01*
X203835318Y-94383443D01*
X204138815Y-94375648D01*
X204260587Y-94334935D01*
X204504941Y-94151986D01*
X204628087Y-93885754D01*
X204625067Y-93731135D01*
X204340579Y-93731135D01*
X204303624Y-93847588D01*
X204208334Y-93952333D01*
X204065104Y-94071885D01*
X203948350Y-94072896D01*
X203842294Y-94011923D01*
X203692005Y-93872481D01*
X203632605Y-93761994D01*
X203672447Y-93595737D01*
X203809142Y-93444729D01*
X203977685Y-93373976D01*
X204017995Y-93376604D01*
X204159724Y-93462216D01*
X204267924Y-93586294D01*
X204340579Y-93731135D01*
X204625067Y-93731135D01*
X204622092Y-93578825D01*
X204479025Y-93273784D01*
X204462334Y-93251897D01*
X204413976Y-93182637D01*
X204375803Y-93098806D01*
X204346615Y-92980952D01*
X204325212Y-92809621D01*
X204310396Y-92565362D01*
X204300966Y-92228721D01*
X204295723Y-91780246D01*
X204293468Y-91200484D01*
X204293000Y-90505745D01*
X204290933Y-89717634D01*
X204284420Y-89086749D01*
X204272997Y-88601028D01*
X204256197Y-88248412D01*
X204233556Y-88016839D01*
X204230276Y-88002946D01*
X200884473Y-88002946D01*
X200870502Y-88156906D01*
X200793839Y-88317550D01*
X200641425Y-88352877D01*
X200594420Y-88348505D01*
X200391140Y-88274752D01*
X200280307Y-88173833D01*
X200238922Y-87987293D01*
X200319685Y-87826382D01*
X200475528Y-87723087D01*
X200659385Y-87709400D01*
X200817364Y-87808815D01*
X200884473Y-88002946D01*
X204230276Y-88002946D01*
X204204607Y-87894249D01*
X204191400Y-87873266D01*
X204078991Y-87830561D01*
X203832726Y-87799959D01*
X203442081Y-87780755D01*
X202896529Y-87772248D01*
X202671249Y-87771667D01*
X202150423Y-87770903D01*
X201771407Y-87766231D01*
X201506679Y-87754075D01*
X201328716Y-87730864D01*
X201209995Y-87693023D01*
X201122993Y-87636978D01*
X201041031Y-87560000D01*
X200775423Y-87384930D01*
X200504451Y-87350687D01*
X200255040Y-87431870D01*
X200255040Y-87431870D01*
G37*
X200255040Y-87431870D02*
X200054117Y-87603081D01*
X199928609Y-87838919D01*
X199905441Y-88113985D01*
X200011542Y-88402879D01*
X200065812Y-88479915D01*
X200305235Y-88661699D01*
X200599034Y-88711998D01*
X200894151Y-88630212D01*
X201075667Y-88491333D01*
X201160080Y-88408326D01*
X201251049Y-88350458D01*
X201378795Y-88313200D01*
X201573538Y-88292018D01*
X201865499Y-88282384D01*
X202284900Y-88279765D01*
X202487426Y-88279667D01*
X203700334Y-88279667D01*
X203700334Y-90666043D01*
X203699714Y-91366939D01*
X203697014Y-91918280D01*
X203690975Y-92339839D01*
X203680339Y-92651393D01*
X203663846Y-92872716D01*
X203640238Y-93023585D01*
X203608254Y-93123773D01*
X203566638Y-93193057D01*
X203537277Y-93227210D01*
X203363493Y-93509391D01*
X203327645Y-93798633D01*
X203408493Y-94062408D01*
X203584797Y-94268187D01*
X203835318Y-94383443D01*
X204138815Y-94375648D01*
X204260587Y-94334935D01*
X204504941Y-94151986D01*
X204628087Y-93885754D01*
X204625067Y-93731135D01*
X204340579Y-93731135D01*
X204303624Y-93847588D01*
X204208334Y-93952333D01*
X204065104Y-94071885D01*
X203948350Y-94072896D01*
X203842294Y-94011923D01*
X203692005Y-93872481D01*
X203632605Y-93761994D01*
X203672447Y-93595737D01*
X203809142Y-93444729D01*
X203977685Y-93373976D01*
X204017995Y-93376604D01*
X204159724Y-93462216D01*
X204267924Y-93586294D01*
X204340579Y-93731135D01*
X204625067Y-93731135D01*
X204622092Y-93578825D01*
X204479025Y-93273784D01*
X204462334Y-93251897D01*
X204413976Y-93182637D01*
X204375803Y-93098806D01*
X204346615Y-92980952D01*
X204325212Y-92809621D01*
X204310396Y-92565362D01*
X204300966Y-92228721D01*
X204295723Y-91780246D01*
X204293468Y-91200484D01*
X204293000Y-90505745D01*
X204290933Y-89717634D01*
X204284420Y-89086749D01*
X204272997Y-88601028D01*
X204256197Y-88248412D01*
X204233556Y-88016839D01*
X204230276Y-88002946D01*
X200884473Y-88002946D01*
X200870502Y-88156906D01*
X200793839Y-88317550D01*
X200641425Y-88352877D01*
X200594420Y-88348505D01*
X200391140Y-88274752D01*
X200280307Y-88173833D01*
X200238922Y-87987293D01*
X200319685Y-87826382D01*
X200475528Y-87723087D01*
X200659385Y-87709400D01*
X200817364Y-87808815D01*
X200884473Y-88002946D01*
X204230276Y-88002946D01*
X204204607Y-87894249D01*
X204191400Y-87873266D01*
X204078991Y-87830561D01*
X203832726Y-87799959D01*
X203442081Y-87780755D01*
X202896529Y-87772248D01*
X202671249Y-87771667D01*
X202150423Y-87770903D01*
X201771407Y-87766231D01*
X201506679Y-87754075D01*
X201328716Y-87730864D01*
X201209995Y-87693023D01*
X201122993Y-87636978D01*
X201041031Y-87560000D01*
X200775423Y-87384930D01*
X200504451Y-87350687D01*
X200255040Y-87431870D01*
G36*
X197945635Y-91151818D02*
G01*
X197896819Y-91196818D01*
X197732391Y-91461905D01*
X197705566Y-91750917D01*
X197799005Y-92021508D01*
X197995374Y-92231328D01*
X198277333Y-92338030D01*
X198366334Y-92343667D01*
X198664574Y-92263669D01*
X198839697Y-92132000D01*
X198992556Y-92007686D01*
X199171041Y-91943529D01*
X199436262Y-91921460D01*
X199555516Y-91920333D01*
X200059667Y-91920333D01*
X200059667Y-92609124D01*
X200054862Y-92959180D01*
X200033210Y-93185384D01*
X199983859Y-93333111D01*
X199895955Y-93447736D01*
X199848000Y-93494082D01*
X199673008Y-93756990D01*
X199637604Y-94057003D01*
X199742668Y-94340814D01*
X199832291Y-94445575D01*
X200104982Y-94600123D01*
X200415183Y-94625211D01*
X200702109Y-94521579D01*
X200806909Y-94433710D01*
X200964954Y-94156345D01*
X200978747Y-93850577D01*
X200849679Y-93569401D01*
X200782343Y-93496870D01*
X200689668Y-93399050D01*
X200627941Y-93286483D01*
X200589588Y-93122800D01*
X200567033Y-92871631D01*
X200552700Y-92496607D01*
X200549509Y-92379080D01*
X200525334Y-91454667D01*
X199813565Y-91429861D01*
X199443851Y-91410339D01*
X199195541Y-91375135D01*
X199020753Y-91312625D01*
X198871608Y-91211183D01*
X198854569Y-91197028D01*
X198543478Y-91022674D01*
X198231637Y-91007602D01*
X197945635Y-91151818D01*
X197945635Y-91151818D01*
G37*
X197945635Y-91151818D02*
X197896819Y-91196818D01*
X197732391Y-91461905D01*
X197705566Y-91750917D01*
X197799005Y-92021508D01*
X197995374Y-92231328D01*
X198277333Y-92338030D01*
X198366334Y-92343667D01*
X198664574Y-92263669D01*
X198839697Y-92132000D01*
X198992556Y-92007686D01*
X199171041Y-91943529D01*
X199436262Y-91921460D01*
X199555516Y-91920333D01*
X200059667Y-91920333D01*
X200059667Y-92609124D01*
X200054862Y-92959180D01*
X200033210Y-93185384D01*
X199983859Y-93333111D01*
X199895955Y-93447736D01*
X199848000Y-93494082D01*
X199673008Y-93756990D01*
X199637604Y-94057003D01*
X199742668Y-94340814D01*
X199832291Y-94445575D01*
X200104982Y-94600123D01*
X200415183Y-94625211D01*
X200702109Y-94521579D01*
X200806909Y-94433710D01*
X200964954Y-94156345D01*
X200978747Y-93850577D01*
X200849679Y-93569401D01*
X200782343Y-93496870D01*
X200689668Y-93399050D01*
X200627941Y-93286483D01*
X200589588Y-93122800D01*
X200567033Y-92871631D01*
X200552700Y-92496607D01*
X200549509Y-92379080D01*
X200525334Y-91454667D01*
X199813565Y-91429861D01*
X199443851Y-91410339D01*
X199195541Y-91375135D01*
X199020753Y-91312625D01*
X198871608Y-91211183D01*
X198854569Y-91197028D01*
X198543478Y-91022674D01*
X198231637Y-91007602D01*
X197945635Y-91151818D01*
G36*
X227063366Y-91903756D02*
G01*
X226822985Y-91913285D01*
X226695242Y-91930147D01*
X226687254Y-91934524D01*
X226698118Y-92027675D01*
X226768774Y-92232256D01*
X226884761Y-92507509D01*
X226910676Y-92564315D01*
X227020370Y-92812239D01*
X227097097Y-93026659D01*
X227148179Y-93249145D01*
X227180939Y-93521266D01*
X227202699Y-93884592D01*
X227218543Y-94312167D01*
X227256883Y-95476333D01*
X227729429Y-95476333D01*
X227764763Y-94312167D01*
X227781392Y-93836697D01*
X227802564Y-93489360D01*
X227835581Y-93228977D01*
X227887747Y-93014370D01*
X227966363Y-92804359D01*
X228074198Y-92567371D01*
X228200478Y-92285989D01*
X228285544Y-92069063D01*
X228314027Y-91956510D01*
X228311771Y-91950214D01*
X228212371Y-91929886D01*
X227990886Y-91914623D01*
X227694260Y-91904878D01*
X227369439Y-91901104D01*
X227063366Y-91903756D01*
X227063366Y-91903756D01*
G37*
X227063366Y-91903756D02*
X226822985Y-91913285D01*
X226695242Y-91930147D01*
X226687254Y-91934524D01*
X226698118Y-92027675D01*
X226768774Y-92232256D01*
X226884761Y-92507509D01*
X226910676Y-92564315D01*
X227020370Y-92812239D01*
X227097097Y-93026659D01*
X227148179Y-93249145D01*
X227180939Y-93521266D01*
X227202699Y-93884592D01*
X227218543Y-94312167D01*
X227256883Y-95476333D01*
X227729429Y-95476333D01*
X227764763Y-94312167D01*
X227781392Y-93836697D01*
X227802564Y-93489360D01*
X227835581Y-93228977D01*
X227887747Y-93014370D01*
X227966363Y-92804359D01*
X228074198Y-92567371D01*
X228200478Y-92285989D01*
X228285544Y-92069063D01*
X228314027Y-91956510D01*
X228311771Y-91950214D01*
X228212371Y-91929886D01*
X227990886Y-91914623D01*
X227694260Y-91904878D01*
X227369439Y-91901104D01*
X227063366Y-91903756D01*
G36*
X227491667Y-88407920D02*
G01*
X227090234Y-88414343D01*
X226804169Y-88438738D01*
X226579701Y-88491025D01*
X226363057Y-88581123D01*
X226254891Y-88636070D01*
X225822025Y-88926892D01*
X225426594Y-89308669D01*
X225109736Y-89734599D01*
X224912590Y-90157879D01*
X224910171Y-90165926D01*
X224807482Y-90645254D01*
X224793628Y-91124325D01*
X224874092Y-91632403D01*
X225054357Y-92198748D01*
X225339903Y-92852624D01*
X225458676Y-93093598D01*
X225639665Y-93497600D01*
X225804983Y-93944329D01*
X225922013Y-94344616D01*
X225931424Y-94386036D01*
X226031808Y-94820079D01*
X226122534Y-95115232D01*
X226222954Y-95299435D01*
X226352423Y-95400627D01*
X226530293Y-95446748D01*
X226675390Y-95460070D01*
X227081304Y-95486141D01*
X227053652Y-94317070D01*
X227026000Y-93148000D01*
X226613216Y-92316184D01*
X226412383Y-91890488D01*
X226299795Y-91599025D01*
X226272469Y-91433369D01*
X226287873Y-91396928D01*
X226383771Y-91381737D01*
X226479292Y-91509077D01*
X226581609Y-91691978D01*
X226650956Y-91739927D01*
X226730686Y-91669128D01*
X226770183Y-91617819D01*
X226862061Y-91509960D01*
X226892913Y-91537711D01*
X226896308Y-91602833D01*
X226944106Y-91728480D01*
X226995500Y-91751000D01*
X227118895Y-91689536D01*
X227201120Y-91602833D01*
X227289881Y-91500689D01*
X227341001Y-91538553D01*
X227367679Y-91602833D01*
X227465685Y-91722724D01*
X227584702Y-91742941D01*
X227657746Y-91658650D01*
X227661000Y-91624000D01*
X227706718Y-91511328D01*
X227745667Y-91497000D01*
X227820782Y-91565576D01*
X227830334Y-91624000D01*
X227898107Y-91736248D01*
X227957334Y-91751000D01*
X228069582Y-91683227D01*
X228084334Y-91624000D01*
X228130051Y-91511328D01*
X228169000Y-91497000D01*
X228244115Y-91565576D01*
X228253667Y-91624000D01*
X228290078Y-91740272D01*
X228370688Y-91727930D01*
X228452563Y-91603554D01*
X228472899Y-91539333D01*
X228552416Y-91389428D01*
X228660769Y-91328190D01*
X228744890Y-91371657D01*
X228761667Y-91452059D01*
X228724925Y-91602110D01*
X228633260Y-91824357D01*
X228597812Y-91896559D01*
X228358852Y-92375303D01*
X228189697Y-92757605D01*
X228076666Y-93094342D01*
X228006077Y-93436396D01*
X227964250Y-93834645D01*
X227937505Y-94339970D01*
X227936908Y-94354500D01*
X227890987Y-95476333D01*
X228273627Y-95476333D01*
X228559548Y-95447532D01*
X228741694Y-95370161D01*
X228758307Y-95353382D01*
X228824578Y-95213123D01*
X228903699Y-94958684D01*
X228979506Y-94642718D01*
X228985718Y-94612549D01*
X229077397Y-94271027D01*
X229226502Y-93836730D01*
X229412148Y-93367021D01*
X229565135Y-93021000D01*
X229825100Y-92441977D01*
X230008530Y-91974548D01*
X230124824Y-91584399D01*
X230183384Y-91237218D01*
X230193609Y-90898690D01*
X230186022Y-90754556D01*
X230061013Y-90155437D01*
X229788123Y-89594255D01*
X229388644Y-89101533D01*
X228883867Y-88707791D01*
X228680400Y-88596118D01*
X228455436Y-88501055D01*
X228218850Y-88443490D01*
X227918618Y-88415186D01*
X227502714Y-88407906D01*
X227491667Y-88407920D01*
X227491667Y-88407920D01*
G37*
X227491667Y-88407920D02*
X227090234Y-88414343D01*
X226804169Y-88438738D01*
X226579701Y-88491025D01*
X226363057Y-88581123D01*
X226254891Y-88636070D01*
X225822025Y-88926892D01*
X225426594Y-89308669D01*
X225109736Y-89734599D01*
X224912590Y-90157879D01*
X224910171Y-90165926D01*
X224807482Y-90645254D01*
X224793628Y-91124325D01*
X224874092Y-91632403D01*
X225054357Y-92198748D01*
X225339903Y-92852624D01*
X225458676Y-93093598D01*
X225639665Y-93497600D01*
X225804983Y-93944329D01*
X225922013Y-94344616D01*
X225931424Y-94386036D01*
X226031808Y-94820079D01*
X226122534Y-95115232D01*
X226222954Y-95299435D01*
X226352423Y-95400627D01*
X226530293Y-95446748D01*
X226675390Y-95460070D01*
X227081304Y-95486141D01*
X227053652Y-94317070D01*
X227026000Y-93148000D01*
X226613216Y-92316184D01*
X226412383Y-91890488D01*
X226299795Y-91599025D01*
X226272469Y-91433369D01*
X226287873Y-91396928D01*
X226383771Y-91381737D01*
X226479292Y-91509077D01*
X226581609Y-91691978D01*
X226650956Y-91739927D01*
X226730686Y-91669128D01*
X226770183Y-91617819D01*
X226862061Y-91509960D01*
X226892913Y-91537711D01*
X226896308Y-91602833D01*
X226944106Y-91728480D01*
X226995500Y-91751000D01*
X227118895Y-91689536D01*
X227201120Y-91602833D01*
X227289881Y-91500689D01*
X227341001Y-91538553D01*
X227367679Y-91602833D01*
X227465685Y-91722724D01*
X227584702Y-91742941D01*
X227657746Y-91658650D01*
X227661000Y-91624000D01*
X227706718Y-91511328D01*
X227745667Y-91497000D01*
X227820782Y-91565576D01*
X227830334Y-91624000D01*
X227898107Y-91736248D01*
X227957334Y-91751000D01*
X228069582Y-91683227D01*
X228084334Y-91624000D01*
X228130051Y-91511328D01*
X228169000Y-91497000D01*
X228244115Y-91565576D01*
X228253667Y-91624000D01*
X228290078Y-91740272D01*
X228370688Y-91727930D01*
X228452563Y-91603554D01*
X228472899Y-91539333D01*
X228552416Y-91389428D01*
X228660769Y-91328190D01*
X228744890Y-91371657D01*
X228761667Y-91452059D01*
X228724925Y-91602110D01*
X228633260Y-91824357D01*
X228597812Y-91896559D01*
X228358852Y-92375303D01*
X228189697Y-92757605D01*
X228076666Y-93094342D01*
X228006077Y-93436396D01*
X227964250Y-93834645D01*
X227937505Y-94339970D01*
X227936908Y-94354500D01*
X227890987Y-95476333D01*
X228273627Y-95476333D01*
X228559548Y-95447532D01*
X228741694Y-95370161D01*
X228758307Y-95353382D01*
X228824578Y-95213123D01*
X228903699Y-94958684D01*
X228979506Y-94642718D01*
X228985718Y-94612549D01*
X229077397Y-94271027D01*
X229226502Y-93836730D01*
X229412148Y-93367021D01*
X229565135Y-93021000D01*
X229825100Y-92441977D01*
X230008530Y-91974548D01*
X230124824Y-91584399D01*
X230183384Y-91237218D01*
X230193609Y-90898690D01*
X230186022Y-90754556D01*
X230061013Y-90155437D01*
X229788123Y-89594255D01*
X229388644Y-89101533D01*
X228883867Y-88707791D01*
X228680400Y-88596118D01*
X228455436Y-88501055D01*
X228218850Y-88443490D01*
X227918618Y-88415186D01*
X227502714Y-88407906D01*
X227491667Y-88407920D01*
G36*
X201276892Y-92253583D02*
G01*
X201114152Y-92382151D01*
X200938654Y-92661647D01*
X200910730Y-92970061D01*
X201030196Y-93260322D01*
X201118000Y-93359667D01*
X201226153Y-93478077D01*
X201289737Y-93612332D01*
X201320301Y-93809433D01*
X201329395Y-94116380D01*
X201329667Y-94221092D01*
X201329667Y-94883667D01*
X199712056Y-94883667D01*
X199150888Y-94883068D01*
X198733152Y-94879317D01*
X198432949Y-94869480D01*
X198224376Y-94850625D01*
X198081533Y-94819819D01*
X197978519Y-94774127D01*
X197889434Y-94710619D01*
X197842893Y-94672000D01*
X197530069Y-94495162D01*
X197218246Y-94478118D01*
X196932181Y-94620967D01*
X196880819Y-94668151D01*
X196708339Y-94931691D01*
X196676225Y-95201763D01*
X196758920Y-95451090D01*
X196930864Y-95652397D01*
X197166500Y-95778409D01*
X197440269Y-95801848D01*
X197726614Y-95695439D01*
X197796770Y-95645667D01*
X197880367Y-95588526D01*
X197981885Y-95545860D01*
X198125612Y-95515575D01*
X198335835Y-95495578D01*
X198636841Y-95483775D01*
X199052916Y-95478073D01*
X199608346Y-95476377D01*
X199761088Y-95476333D01*
X200364247Y-95472050D01*
X200878314Y-95459830D01*
X201282655Y-95440620D01*
X201556636Y-95415364D01*
X201673900Y-95388688D01*
X201749159Y-95330776D01*
X201795698Y-95234999D01*
X197683913Y-95234999D01*
X197628591Y-95388425D01*
X197583167Y-95421826D01*
X197341020Y-95450852D01*
X197127604Y-95359245D01*
X197063080Y-95285833D01*
X197020412Y-95095927D01*
X197101279Y-94931827D01*
X197260194Y-94829596D01*
X197451668Y-94825301D01*
X197566068Y-94887042D01*
X197662244Y-95041995D01*
X197683913Y-95234999D01*
X201795698Y-95234999D01*
X201797284Y-95231737D01*
X201824148Y-95057854D01*
X201835622Y-94775412D01*
X201837667Y-94448410D01*
X201840982Y-94052699D01*
X201856175Y-93785207D01*
X201891119Y-93604865D01*
X201953686Y-93470605D01*
X202049334Y-93344226D01*
X202227031Y-93031410D01*
X202241707Y-92766982D01*
X201889882Y-92766982D01*
X201886550Y-92982715D01*
X201821519Y-93133276D01*
X201692600Y-93180422D01*
X201559595Y-93174314D01*
X201356027Y-93123742D01*
X201269269Y-93001789D01*
X201259668Y-92952840D01*
X201290694Y-92717225D01*
X201430705Y-92555160D01*
X201583667Y-92513000D01*
X201781441Y-92584480D01*
X201889882Y-92766982D01*
X202241707Y-92766982D01*
X202243920Y-92727128D01*
X202104446Y-92457132D01*
X201864400Y-92272830D01*
X201555715Y-92180356D01*
X201276892Y-92253583D01*
X201276892Y-92253583D01*
G37*
X201276892Y-92253583D02*
X201114152Y-92382151D01*
X200938654Y-92661647D01*
X200910730Y-92970061D01*
X201030196Y-93260322D01*
X201118000Y-93359667D01*
X201226153Y-93478077D01*
X201289737Y-93612332D01*
X201320301Y-93809433D01*
X201329395Y-94116380D01*
X201329667Y-94221092D01*
X201329667Y-94883667D01*
X199712056Y-94883667D01*
X199150888Y-94883068D01*
X198733152Y-94879317D01*
X198432949Y-94869480D01*
X198224376Y-94850625D01*
X198081533Y-94819819D01*
X197978519Y-94774127D01*
X197889434Y-94710619D01*
X197842893Y-94672000D01*
X197530069Y-94495162D01*
X197218246Y-94478118D01*
X196932181Y-94620967D01*
X196880819Y-94668151D01*
X196708339Y-94931691D01*
X196676225Y-95201763D01*
X196758920Y-95451090D01*
X196930864Y-95652397D01*
X197166500Y-95778409D01*
X197440269Y-95801848D01*
X197726614Y-95695439D01*
X197796770Y-95645667D01*
X197880367Y-95588526D01*
X197981885Y-95545860D01*
X198125612Y-95515575D01*
X198335835Y-95495578D01*
X198636841Y-95483775D01*
X199052916Y-95478073D01*
X199608346Y-95476377D01*
X199761088Y-95476333D01*
X200364247Y-95472050D01*
X200878314Y-95459830D01*
X201282655Y-95440620D01*
X201556636Y-95415364D01*
X201673900Y-95388688D01*
X201749159Y-95330776D01*
X201795698Y-95234999D01*
X197683913Y-95234999D01*
X197628591Y-95388425D01*
X197583167Y-95421826D01*
X197341020Y-95450852D01*
X197127604Y-95359245D01*
X197063080Y-95285833D01*
X197020412Y-95095927D01*
X197101279Y-94931827D01*
X197260194Y-94829596D01*
X197451668Y-94825301D01*
X197566068Y-94887042D01*
X197662244Y-95041995D01*
X197683913Y-95234999D01*
X201795698Y-95234999D01*
X201797284Y-95231737D01*
X201824148Y-95057854D01*
X201835622Y-94775412D01*
X201837667Y-94448410D01*
X201840982Y-94052699D01*
X201856175Y-93785207D01*
X201891119Y-93604865D01*
X201953686Y-93470605D01*
X202049334Y-93344226D01*
X202227031Y-93031410D01*
X202241707Y-92766982D01*
X201889882Y-92766982D01*
X201886550Y-92982715D01*
X201821519Y-93133276D01*
X201692600Y-93180422D01*
X201559595Y-93174314D01*
X201356027Y-93123742D01*
X201269269Y-93001789D01*
X201259668Y-92952840D01*
X201290694Y-92717225D01*
X201430705Y-92555160D01*
X201583667Y-92513000D01*
X201781441Y-92584480D01*
X201889882Y-92766982D01*
X202241707Y-92766982D01*
X202243920Y-92727128D01*
X202104446Y-92457132D01*
X201864400Y-92272830D01*
X201555715Y-92180356D01*
X201276892Y-92253583D01*
G36*
X197091966Y-88662925D02*
G01*
X196835988Y-88875558D01*
X196716267Y-89151368D01*
X196736568Y-89448088D01*
X196900655Y-89723446D01*
X196990267Y-89805006D01*
X197276043Y-89951606D01*
X197560731Y-89932663D01*
X197842893Y-89761333D01*
X198094445Y-89549667D01*
X202599667Y-89549667D01*
X202599667Y-92034211D01*
X202599188Y-92749120D01*
X202596929Y-93313878D01*
X202591658Y-93747668D01*
X202582145Y-94069671D01*
X202567158Y-94299068D01*
X202545466Y-94455043D01*
X202515838Y-94556776D01*
X202477041Y-94623449D01*
X202430334Y-94672000D01*
X202284242Y-94906975D01*
X202256610Y-95195654D01*
X202343899Y-95474310D01*
X202484085Y-95639521D01*
X202778935Y-95784064D01*
X203093375Y-95798908D01*
X203287064Y-95729765D01*
X203472478Y-95533787D01*
X203569312Y-95253299D01*
X203556844Y-94958932D01*
X203533520Y-94889750D01*
X203425675Y-94700832D01*
X203311582Y-94596074D01*
X203277317Y-94558362D01*
X203250056Y-94463432D01*
X203229063Y-94294828D01*
X203213603Y-94036097D01*
X203202939Y-93670786D01*
X203196336Y-93182439D01*
X203193058Y-92554604D01*
X203192334Y-91929915D01*
X203190722Y-91275479D01*
X203186158Y-90672136D01*
X203179047Y-90141675D01*
X203169797Y-89705881D01*
X203158814Y-89386540D01*
X203146504Y-89205439D01*
X203140942Y-89175591D01*
X203109825Y-89136814D01*
X203037718Y-89106208D01*
X202906783Y-89082837D01*
X202699180Y-89065763D01*
X202397073Y-89054049D01*
X201982621Y-89046758D01*
X201437987Y-89042952D01*
X200745333Y-89041695D01*
X200591961Y-89041667D01*
X198094371Y-89041667D01*
X197935358Y-88839514D01*
X197677188Y-88629045D01*
X197372075Y-88577340D01*
X197091966Y-88662925D01*
X197091966Y-88662925D01*
G37*
X197091966Y-88662925D02*
X196835988Y-88875558D01*
X196716267Y-89151368D01*
X196736568Y-89448088D01*
X196900655Y-89723446D01*
X196990267Y-89805006D01*
X197276043Y-89951606D01*
X197560731Y-89932663D01*
X197842893Y-89761333D01*
X198094445Y-89549667D01*
X202599667Y-89549667D01*
X202599667Y-92034211D01*
X202599188Y-92749120D01*
X202596929Y-93313878D01*
X202591658Y-93747668D01*
X202582145Y-94069671D01*
X202567158Y-94299068D01*
X202545466Y-94455043D01*
X202515838Y-94556776D01*
X202477041Y-94623449D01*
X202430334Y-94672000D01*
X202284242Y-94906975D01*
X202256610Y-95195654D01*
X202343899Y-95474310D01*
X202484085Y-95639521D01*
X202778935Y-95784064D01*
X203093375Y-95798908D01*
X203287064Y-95729765D01*
X203472478Y-95533787D01*
X203569312Y-95253299D01*
X203556844Y-94958932D01*
X203533520Y-94889750D01*
X203425675Y-94700832D01*
X203311582Y-94596074D01*
X203277317Y-94558362D01*
X203250056Y-94463432D01*
X203229063Y-94294828D01*
X203213603Y-94036097D01*
X203202939Y-93670786D01*
X203196336Y-93182439D01*
X203193058Y-92554604D01*
X203192334Y-91929915D01*
X203190722Y-91275479D01*
X203186158Y-90672136D01*
X203179047Y-90141675D01*
X203169797Y-89705881D01*
X203158814Y-89386540D01*
X203146504Y-89205439D01*
X203140942Y-89175591D01*
X203109825Y-89136814D01*
X203037718Y-89106208D01*
X202906783Y-89082837D01*
X202699180Y-89065763D01*
X202397073Y-89054049D01*
X201982621Y-89046758D01*
X201437987Y-89042952D01*
X200745333Y-89041695D01*
X200591961Y-89041667D01*
X198094371Y-89041667D01*
X197935358Y-88839514D01*
X197677188Y-88629045D01*
X197372075Y-88577340D01*
X197091966Y-88662925D01*
G36*
X213123350Y-92953955D02*
G01*
X212453403Y-93624418D01*
X211893665Y-94186402D01*
X211434265Y-94650823D01*
X211065333Y-95028596D01*
X210777000Y-95330639D01*
X210559397Y-95567865D01*
X210402652Y-95751192D01*
X210296897Y-95891535D01*
X210232262Y-95999810D01*
X210198876Y-96086932D01*
X210186871Y-96163817D01*
X210185800Y-96202827D01*
X210258289Y-96514605D01*
X210459639Y-96730689D01*
X210765676Y-96827870D01*
X210840076Y-96831000D01*
X210911244Y-96820352D01*
X211000270Y-96781980D01*
X211117676Y-96706237D01*
X211273982Y-96583481D01*
X211479711Y-96404067D01*
X211745384Y-96158349D01*
X212081521Y-95836684D01*
X212498646Y-95429427D01*
X213007279Y-94926934D01*
X213617941Y-94319560D01*
X214048381Y-93890105D01*
X216993704Y-90949211D01*
X216527302Y-90482808D01*
X216060899Y-90016406D01*
X213123350Y-92953955D01*
X213123350Y-92953955D01*
G37*
X213123350Y-92953955D02*
X212453403Y-93624418D01*
X211893665Y-94186402D01*
X211434265Y-94650823D01*
X211065333Y-95028596D01*
X210777000Y-95330639D01*
X210559397Y-95567865D01*
X210402652Y-95751192D01*
X210296897Y-95891535D01*
X210232262Y-95999810D01*
X210198876Y-96086932D01*
X210186871Y-96163817D01*
X210185800Y-96202827D01*
X210258289Y-96514605D01*
X210459639Y-96730689D01*
X210765676Y-96827870D01*
X210840076Y-96831000D01*
X210911244Y-96820352D01*
X211000270Y-96781980D01*
X211117676Y-96706237D01*
X211273982Y-96583481D01*
X211479711Y-96404067D01*
X211745384Y-96158349D01*
X212081521Y-95836684D01*
X212498646Y-95429427D01*
X213007279Y-94926934D01*
X213617941Y-94319560D01*
X214048381Y-93890105D01*
X216993704Y-90949211D01*
X216527302Y-90482808D01*
X216060899Y-90016406D01*
X213123350Y-92953955D01*
G36*
X183380334Y-89800277D02*
G01*
X182852236Y-90360277D01*
X182360877Y-90883370D01*
X181918350Y-91356528D01*
X181536751Y-91766726D01*
X181228177Y-92100936D01*
X181004721Y-92346130D01*
X180878480Y-92489282D01*
X180854445Y-92520733D01*
X180917445Y-92558278D01*
X181109776Y-92585672D01*
X181391506Y-92597540D01*
X181425945Y-92597667D01*
X182025667Y-92597667D01*
X182025667Y-97000333D01*
X189730334Y-97000333D01*
X189730334Y-94291088D01*
X188106828Y-94291088D01*
X188062761Y-94442345D01*
X187967166Y-94528039D01*
X187807957Y-94697460D01*
X187817306Y-94879382D01*
X187957514Y-95040170D01*
X188078130Y-95201912D01*
X188067849Y-95344576D01*
X187942448Y-95419091D01*
X187837109Y-95414640D01*
X187621941Y-95436539D01*
X187504397Y-95576966D01*
X187509591Y-95801425D01*
X187524134Y-95844533D01*
X187543396Y-96048944D01*
X187451022Y-96168437D01*
X187291168Y-96170966D01*
X187175288Y-96097717D01*
X186998319Y-96017318D01*
X186817488Y-96041656D01*
X186698361Y-96153147D01*
X186682334Y-96229928D01*
X186628363Y-96423360D01*
X186502178Y-96495482D01*
X186357373Y-96438326D01*
X186263391Y-96292214D01*
X186120001Y-96086297D01*
X185920842Y-96029975D01*
X185734401Y-96104963D01*
X185527707Y-96195063D01*
X185397918Y-96138534D01*
X185363170Y-95947556D01*
X185374477Y-95863247D01*
X185365749Y-95606743D01*
X185246821Y-95443762D01*
X185043528Y-95404836D01*
X184994919Y-95414651D01*
X184836057Y-95400879D01*
X184769396Y-95293100D01*
X184810554Y-95148337D01*
X184898830Y-95063840D01*
X185049645Y-94885905D01*
X185044529Y-94685394D01*
X184902437Y-94519334D01*
X184780916Y-94370312D01*
X184810767Y-94229186D01*
X184975941Y-94129242D01*
X185102040Y-94105327D01*
X185277755Y-94074299D01*
X185346729Y-93991766D01*
X185348579Y-93803049D01*
X185346010Y-93768575D01*
X185359524Y-93507612D01*
X185452880Y-93395582D01*
X185627529Y-93431323D01*
X185707954Y-93478414D01*
X185943527Y-93566962D01*
X186124657Y-93501494D01*
X186226577Y-93307994D01*
X186327032Y-93142467D01*
X186472417Y-93109872D01*
X186603607Y-93209551D01*
X186646395Y-93312667D01*
X186757767Y-93502150D01*
X186946917Y-93548734D01*
X187165444Y-93462763D01*
X187367393Y-93390606D01*
X187488711Y-93460672D01*
X187507362Y-93658684D01*
X187503361Y-93681725D01*
X187490500Y-93941390D01*
X187585826Y-94081165D01*
X187794716Y-94121667D01*
X188011772Y-94170746D01*
X188106828Y-94291088D01*
X189730334Y-94291088D01*
X189730334Y-92597667D01*
X190323000Y-92597667D01*
X190615132Y-92590959D01*
X190826810Y-92573306D01*
X190915202Y-92548416D01*
X190915667Y-92546378D01*
X190861407Y-92466899D01*
X190714964Y-92293078D01*
X190500849Y-92053279D01*
X190323000Y-91860467D01*
X189973405Y-91486123D01*
X188364441Y-91486123D01*
X188332863Y-91618284D01*
X188185167Y-91681611D01*
X188038235Y-91749369D01*
X188004556Y-91920333D01*
X187969742Y-92123171D01*
X187863064Y-92210156D01*
X187723418Y-92160018D01*
X187562791Y-92107809D01*
X187416527Y-92168654D01*
X187359667Y-92298676D01*
X187306351Y-92408950D01*
X187190663Y-92417636D01*
X187078992Y-92333120D01*
X187045533Y-92259000D01*
X186945337Y-92129506D01*
X186786908Y-92089730D01*
X186651352Y-92157445D01*
X186642286Y-92170635D01*
X186544052Y-92231134D01*
X186445263Y-92163583D01*
X186413666Y-92077832D01*
X186174334Y-92077832D01*
X186100472Y-92209317D01*
X185920334Y-92317750D01*
X185722358Y-92454737D01*
X185666653Y-92637336D01*
X185762993Y-92824045D01*
X185794378Y-92852533D01*
X185868841Y-92984009D01*
X185812016Y-93099735D01*
X185660349Y-93160744D01*
X185516351Y-93149797D01*
X185275764Y-93157537D01*
X185116952Y-93297266D01*
X185073667Y-93482922D01*
X185031656Y-93702928D01*
X184925544Y-93780861D01*
X184785213Y-93705817D01*
X184715352Y-93613667D01*
X184546778Y-93467468D01*
X184344066Y-93474063D01*
X184147926Y-93627785D01*
X183999917Y-93740630D01*
X183854974Y-93758678D01*
X183766008Y-93689890D01*
X183773030Y-93571385D01*
X183760456Y-93412678D01*
X183678808Y-93277365D01*
X183538319Y-93168981D01*
X183378810Y-93188625D01*
X183327576Y-93210488D01*
X183111629Y-93259105D01*
X182998765Y-93185326D01*
X183010882Y-93015357D01*
X183070460Y-92902783D01*
X183163369Y-92670310D01*
X183113448Y-92498411D01*
X182928675Y-92412117D01*
X182795440Y-92339948D01*
X182717994Y-92208042D01*
X182712744Y-92076780D01*
X182796094Y-92006542D01*
X182818064Y-92005000D01*
X182976338Y-91948992D01*
X183081442Y-91868463D01*
X183169296Y-91755740D01*
X183153631Y-91643757D01*
X183082155Y-91524634D01*
X182982588Y-91310783D01*
X183026624Y-91179509D01*
X183220500Y-91121121D01*
X183345194Y-91116000D01*
X183560820Y-91104494D01*
X183660702Y-91042651D01*
X183698168Y-90889479D01*
X183703198Y-90840833D01*
X183776571Y-90629627D01*
X183918547Y-90558362D01*
X184092034Y-90639553D01*
X184142334Y-90692667D01*
X184328900Y-90808483D01*
X184534773Y-90776467D01*
X184675999Y-90648437D01*
X184829569Y-90530402D01*
X184978747Y-90555535D01*
X185067309Y-90705798D01*
X185073667Y-90776025D01*
X185133711Y-91005480D01*
X185298676Y-91108789D01*
X185532056Y-91076434D01*
X185729557Y-91050503D01*
X185820040Y-91144741D01*
X185787942Y-91336803D01*
X185757520Y-91400151D01*
X185672381Y-91639564D01*
X185728403Y-91794067D01*
X185920334Y-91878000D01*
X186118968Y-91966432D01*
X186174334Y-92077832D01*
X186413666Y-92077832D01*
X186386528Y-92004184D01*
X186382830Y-91939347D01*
X186348437Y-91757846D01*
X186214880Y-91684717D01*
X186195500Y-91681611D01*
X186035034Y-91614568D01*
X186029273Y-91480246D01*
X186151405Y-91306225D01*
X186249277Y-91181526D01*
X186228206Y-91110759D01*
X186151405Y-91062518D01*
X186021218Y-90930577D01*
X186036186Y-90799144D01*
X186189571Y-90720608D01*
X186195500Y-90719722D01*
X186343422Y-90650612D01*
X186389658Y-90472719D01*
X186389873Y-90463016D01*
X186417562Y-90242659D01*
X186503627Y-90172067D01*
X186667752Y-90236153D01*
X186677839Y-90242300D01*
X186817567Y-90303846D01*
X186926693Y-90255570D01*
X187024750Y-90142333D01*
X187190334Y-89930667D01*
X187355917Y-90142333D01*
X187485868Y-90281591D01*
X187596610Y-90296673D01*
X187702829Y-90242300D01*
X187871158Y-90172184D01*
X187960490Y-90236027D01*
X187990510Y-90448919D01*
X187990795Y-90463016D01*
X188033782Y-90646038D01*
X188177123Y-90718517D01*
X188185167Y-90719722D01*
X188346145Y-90788224D01*
X188352578Y-90923355D01*
X188246531Y-91076027D01*
X188161541Y-91197640D01*
X188203610Y-91288129D01*
X188246531Y-91325894D01*
X188364441Y-91486123D01*
X189973405Y-91486123D01*
X189730334Y-91225845D01*
X189730334Y-88110333D01*
X187613667Y-88110333D01*
X187611945Y-88999333D01*
X186744973Y-88078045D01*
X185878000Y-87156756D01*
X183380334Y-89800277D01*
X183380334Y-89800277D01*
G37*
X183380334Y-89800277D02*
X182852236Y-90360277D01*
X182360877Y-90883370D01*
X181918350Y-91356528D01*
X181536751Y-91766726D01*
X181228177Y-92100936D01*
X181004721Y-92346130D01*
X180878480Y-92489282D01*
X180854445Y-92520733D01*
X180917445Y-92558278D01*
X181109776Y-92585672D01*
X181391506Y-92597540D01*
X181425945Y-92597667D01*
X182025667Y-92597667D01*
X182025667Y-97000333D01*
X189730334Y-97000333D01*
X189730334Y-94291088D01*
X188106828Y-94291088D01*
X188062761Y-94442345D01*
X187967166Y-94528039D01*
X187807957Y-94697460D01*
X187817306Y-94879382D01*
X187957514Y-95040170D01*
X188078130Y-95201912D01*
X188067849Y-95344576D01*
X187942448Y-95419091D01*
X187837109Y-95414640D01*
X187621941Y-95436539D01*
X187504397Y-95576966D01*
X187509591Y-95801425D01*
X187524134Y-95844533D01*
X187543396Y-96048944D01*
X187451022Y-96168437D01*
X187291168Y-96170966D01*
X187175288Y-96097717D01*
X186998319Y-96017318D01*
X186817488Y-96041656D01*
X186698361Y-96153147D01*
X186682334Y-96229928D01*
X186628363Y-96423360D01*
X186502178Y-96495482D01*
X186357373Y-96438326D01*
X186263391Y-96292214D01*
X186120001Y-96086297D01*
X185920842Y-96029975D01*
X185734401Y-96104963D01*
X185527707Y-96195063D01*
X185397918Y-96138534D01*
X185363170Y-95947556D01*
X185374477Y-95863247D01*
X185365749Y-95606743D01*
X185246821Y-95443762D01*
X185043528Y-95404836D01*
X184994919Y-95414651D01*
X184836057Y-95400879D01*
X184769396Y-95293100D01*
X184810554Y-95148337D01*
X184898830Y-95063840D01*
X185049645Y-94885905D01*
X185044529Y-94685394D01*
X184902437Y-94519334D01*
X184780916Y-94370312D01*
X184810767Y-94229186D01*
X184975941Y-94129242D01*
X185102040Y-94105327D01*
X185277755Y-94074299D01*
X185346729Y-93991766D01*
X185348579Y-93803049D01*
X185346010Y-93768575D01*
X185359524Y-93507612D01*
X185452880Y-93395582D01*
X185627529Y-93431323D01*
X185707954Y-93478414D01*
X185943527Y-93566962D01*
X186124657Y-93501494D01*
X186226577Y-93307994D01*
X186327032Y-93142467D01*
X186472417Y-93109872D01*
X186603607Y-93209551D01*
X186646395Y-93312667D01*
X186757767Y-93502150D01*
X186946917Y-93548734D01*
X187165444Y-93462763D01*
X187367393Y-93390606D01*
X187488711Y-93460672D01*
X187507362Y-93658684D01*
X187503361Y-93681725D01*
X187490500Y-93941390D01*
X187585826Y-94081165D01*
X187794716Y-94121667D01*
X188011772Y-94170746D01*
X188106828Y-94291088D01*
X189730334Y-94291088D01*
X189730334Y-92597667D01*
X190323000Y-92597667D01*
X190615132Y-92590959D01*
X190826810Y-92573306D01*
X190915202Y-92548416D01*
X190915667Y-92546378D01*
X190861407Y-92466899D01*
X190714964Y-92293078D01*
X190500849Y-92053279D01*
X190323000Y-91860467D01*
X189973405Y-91486123D01*
X188364441Y-91486123D01*
X188332863Y-91618284D01*
X188185167Y-91681611D01*
X188038235Y-91749369D01*
X188004556Y-91920333D01*
X187969742Y-92123171D01*
X187863064Y-92210156D01*
X187723418Y-92160018D01*
X187562791Y-92107809D01*
X187416527Y-92168654D01*
X187359667Y-92298676D01*
X187306351Y-92408950D01*
X187190663Y-92417636D01*
X187078992Y-92333120D01*
X187045533Y-92259000D01*
X186945337Y-92129506D01*
X186786908Y-92089730D01*
X186651352Y-92157445D01*
X186642286Y-92170635D01*
X186544052Y-92231134D01*
X186445263Y-92163583D01*
X186413666Y-92077832D01*
X186174334Y-92077832D01*
X186100472Y-92209317D01*
X185920334Y-92317750D01*
X185722358Y-92454737D01*
X185666653Y-92637336D01*
X185762993Y-92824045D01*
X185794378Y-92852533D01*
X185868841Y-92984009D01*
X185812016Y-93099735D01*
X185660349Y-93160744D01*
X185516351Y-93149797D01*
X185275764Y-93157537D01*
X185116952Y-93297266D01*
X185073667Y-93482922D01*
X185031656Y-93702928D01*
X184925544Y-93780861D01*
X184785213Y-93705817D01*
X184715352Y-93613667D01*
X184546778Y-93467468D01*
X184344066Y-93474063D01*
X184147926Y-93627785D01*
X183999917Y-93740630D01*
X183854974Y-93758678D01*
X183766008Y-93689890D01*
X183773030Y-93571385D01*
X183760456Y-93412678D01*
X183678808Y-93277365D01*
X183538319Y-93168981D01*
X183378810Y-93188625D01*
X183327576Y-93210488D01*
X183111629Y-93259105D01*
X182998765Y-93185326D01*
X183010882Y-93015357D01*
X183070460Y-92902783D01*
X183163369Y-92670310D01*
X183113448Y-92498411D01*
X182928675Y-92412117D01*
X182795440Y-92339948D01*
X182717994Y-92208042D01*
X182712744Y-92076780D01*
X182796094Y-92006542D01*
X182818064Y-92005000D01*
X182976338Y-91948992D01*
X183081442Y-91868463D01*
X183169296Y-91755740D01*
X183153631Y-91643757D01*
X183082155Y-91524634D01*
X182982588Y-91310783D01*
X183026624Y-91179509D01*
X183220500Y-91121121D01*
X183345194Y-91116000D01*
X183560820Y-91104494D01*
X183660702Y-91042651D01*
X183698168Y-90889479D01*
X183703198Y-90840833D01*
X183776571Y-90629627D01*
X183918547Y-90558362D01*
X184092034Y-90639553D01*
X184142334Y-90692667D01*
X184328900Y-90808483D01*
X184534773Y-90776467D01*
X184675999Y-90648437D01*
X184829569Y-90530402D01*
X184978747Y-90555535D01*
X185067309Y-90705798D01*
X185073667Y-90776025D01*
X185133711Y-91005480D01*
X185298676Y-91108789D01*
X185532056Y-91076434D01*
X185729557Y-91050503D01*
X185820040Y-91144741D01*
X185787942Y-91336803D01*
X185757520Y-91400151D01*
X185672381Y-91639564D01*
X185728403Y-91794067D01*
X185920334Y-91878000D01*
X186118968Y-91966432D01*
X186174334Y-92077832D01*
X186413666Y-92077832D01*
X186386528Y-92004184D01*
X186382830Y-91939347D01*
X186348437Y-91757846D01*
X186214880Y-91684717D01*
X186195500Y-91681611D01*
X186035034Y-91614568D01*
X186029273Y-91480246D01*
X186151405Y-91306225D01*
X186249277Y-91181526D01*
X186228206Y-91110759D01*
X186151405Y-91062518D01*
X186021218Y-90930577D01*
X186036186Y-90799144D01*
X186189571Y-90720608D01*
X186195500Y-90719722D01*
X186343422Y-90650612D01*
X186389658Y-90472719D01*
X186389873Y-90463016D01*
X186417562Y-90242659D01*
X186503627Y-90172067D01*
X186667752Y-90236153D01*
X186677839Y-90242300D01*
X186817567Y-90303846D01*
X186926693Y-90255570D01*
X187024750Y-90142333D01*
X187190334Y-89930667D01*
X187355917Y-90142333D01*
X187485868Y-90281591D01*
X187596610Y-90296673D01*
X187702829Y-90242300D01*
X187871158Y-90172184D01*
X187960490Y-90236027D01*
X187990510Y-90448919D01*
X187990795Y-90463016D01*
X188033782Y-90646038D01*
X188177123Y-90718517D01*
X188185167Y-90719722D01*
X188346145Y-90788224D01*
X188352578Y-90923355D01*
X188246531Y-91076027D01*
X188161541Y-91197640D01*
X188203610Y-91288129D01*
X188246531Y-91325894D01*
X188364441Y-91486123D01*
X189973405Y-91486123D01*
X189730334Y-91225845D01*
X189730334Y-88110333D01*
X187613667Y-88110333D01*
X187611945Y-88999333D01*
X186744973Y-88078045D01*
X185878000Y-87156756D01*
X183380334Y-89800277D01*
G36*
X198747248Y-87388873D02*
G01*
X198469136Y-87557732D01*
X198365837Y-87637806D01*
X198256953Y-87695060D01*
X198112490Y-87733996D01*
X197902454Y-87759114D01*
X197596852Y-87774915D01*
X197165688Y-87785900D01*
X196917474Y-87790565D01*
X195614667Y-87814000D01*
X195592725Y-92164724D01*
X195588575Y-93229652D01*
X195587795Y-94133354D01*
X195590519Y-94883910D01*
X195596880Y-95489396D01*
X195607013Y-95957890D01*
X195621050Y-96297470D01*
X195639125Y-96516213D01*
X195661372Y-96622197D01*
X195666592Y-96630891D01*
X195750598Y-96679313D01*
X195923616Y-96713122D01*
X196207480Y-96734223D01*
X196624025Y-96744524D01*
X196988645Y-96746333D01*
X197469728Y-96747617D01*
X197812728Y-96754454D01*
X198048895Y-96771319D01*
X198209478Y-96802687D01*
X198325724Y-96853036D01*
X198428881Y-96926839D01*
X198466441Y-96958000D01*
X198772664Y-97131581D01*
X199076453Y-97150269D01*
X199348955Y-97012779D01*
X199365344Y-96997990D01*
X199564722Y-96717511D01*
X199598677Y-96407921D01*
X199519355Y-96173045D01*
X199320106Y-95938314D01*
X199054229Y-95817372D01*
X198771884Y-95819445D01*
X198523229Y-95953760D01*
X198493334Y-95984333D01*
X198416188Y-96053468D01*
X198311644Y-96100863D01*
X198149191Y-96130540D01*
X197898317Y-96146525D01*
X197528512Y-96152840D01*
X197209366Y-96153667D01*
X196078643Y-96153667D01*
X196100655Y-92237833D01*
X196122667Y-88322000D01*
X197168810Y-88298155D01*
X197606263Y-88289539D01*
X197907701Y-88290629D01*
X198106380Y-88306516D01*
X198235554Y-88342288D01*
X198328478Y-88403035D01*
X198413600Y-88488655D01*
X198681099Y-88670990D01*
X198980864Y-88713548D01*
X199265411Y-88622104D01*
X199487257Y-88402432D01*
X199514262Y-88354804D01*
X199596310Y-88036034D01*
X199515019Y-87737478D01*
X199319068Y-87516327D01*
X199032553Y-87369590D01*
X198747248Y-87388873D01*
X198747248Y-87388873D01*
G37*
X198747248Y-87388873D02*
X198469136Y-87557732D01*
X198365837Y-87637806D01*
X198256953Y-87695060D01*
X198112490Y-87733996D01*
X197902454Y-87759114D01*
X197596852Y-87774915D01*
X197165688Y-87785900D01*
X196917474Y-87790565D01*
X195614667Y-87814000D01*
X195592725Y-92164724D01*
X195588575Y-93229652D01*
X195587795Y-94133354D01*
X195590519Y-94883910D01*
X195596880Y-95489396D01*
X195607013Y-95957890D01*
X195621050Y-96297470D01*
X195639125Y-96516213D01*
X195661372Y-96622197D01*
X195666592Y-96630891D01*
X195750598Y-96679313D01*
X195923616Y-96713122D01*
X196207480Y-96734223D01*
X196624025Y-96744524D01*
X196988645Y-96746333D01*
X197469728Y-96747617D01*
X197812728Y-96754454D01*
X198048895Y-96771319D01*
X198209478Y-96802687D01*
X198325724Y-96853036D01*
X198428881Y-96926839D01*
X198466441Y-96958000D01*
X198772664Y-97131581D01*
X199076453Y-97150269D01*
X199348955Y-97012779D01*
X199365344Y-96997990D01*
X199564722Y-96717511D01*
X199598677Y-96407921D01*
X199519355Y-96173045D01*
X199320106Y-95938314D01*
X199054229Y-95817372D01*
X198771884Y-95819445D01*
X198523229Y-95953760D01*
X198493334Y-95984333D01*
X198416188Y-96053468D01*
X198311644Y-96100863D01*
X198149191Y-96130540D01*
X197898317Y-96146525D01*
X197528512Y-96152840D01*
X197209366Y-96153667D01*
X196078643Y-96153667D01*
X196100655Y-92237833D01*
X196122667Y-88322000D01*
X197168810Y-88298155D01*
X197606263Y-88289539D01*
X197907701Y-88290629D01*
X198106380Y-88306516D01*
X198235554Y-88342288D01*
X198328478Y-88403035D01*
X198413600Y-88488655D01*
X198681099Y-88670990D01*
X198980864Y-88713548D01*
X199265411Y-88622104D01*
X199487257Y-88402432D01*
X199514262Y-88354804D01*
X199596310Y-88036034D01*
X199515019Y-87737478D01*
X199319068Y-87516327D01*
X199032553Y-87369590D01*
X198747248Y-87388873D01*
G36*
X203599344Y-95927045D02*
G01*
X203531000Y-95984333D01*
X203443632Y-96055460D01*
X203328360Y-96103517D01*
X203153041Y-96132910D01*
X202885535Y-96148045D01*
X202493700Y-96153326D01*
X202295522Y-96153667D01*
X201840737Y-96150729D01*
X201521668Y-96138959D01*
X201304754Y-96113922D01*
X201156435Y-96071183D01*
X201043149Y-96006308D01*
X201014104Y-95984333D01*
X200724558Y-95845635D01*
X200426306Y-95844251D01*
X200160464Y-95961596D01*
X199968148Y-96179081D01*
X199890475Y-96478121D01*
X199890334Y-96492333D01*
X199961567Y-96795232D01*
X200147268Y-97016388D01*
X200405436Y-97138805D01*
X200694075Y-97145487D01*
X200971183Y-97019437D01*
X201041031Y-96958000D01*
X201139358Y-96868534D01*
X201244843Y-96808618D01*
X201391871Y-96772348D01*
X201614825Y-96753821D01*
X201948088Y-96747133D01*
X202273794Y-96746333D01*
X202709048Y-96748408D01*
X203010678Y-96758591D01*
X203214380Y-96782818D01*
X203355848Y-96827027D01*
X203470778Y-96897154D01*
X203546441Y-96958000D01*
X203842144Y-97134105D01*
X204125263Y-97144473D01*
X204408582Y-96994188D01*
X204587795Y-96756405D01*
X204640258Y-96462445D01*
X204634644Y-96440813D01*
X204278614Y-96440813D01*
X204244207Y-96667662D01*
X204113615Y-96803633D01*
X203937268Y-96833318D01*
X203765597Y-96741311D01*
X203686071Y-96621840D01*
X203677451Y-96568074D01*
X200882019Y-96568074D01*
X200795872Y-96739052D01*
X200614700Y-96828010D01*
X200567667Y-96831000D01*
X200388715Y-96769936D01*
X200317043Y-96708067D01*
X200243030Y-96519205D01*
X200289103Y-96334919D01*
X200419207Y-96200644D01*
X200597289Y-96161816D01*
X200715834Y-96205508D01*
X200859790Y-96371437D01*
X200882019Y-96568074D01*
X203677451Y-96568074D01*
X203649024Y-96390775D01*
X203751895Y-96227771D01*
X203968764Y-96166668D01*
X204031753Y-96170553D01*
X204200636Y-96230903D01*
X204271951Y-96392763D01*
X204278614Y-96440813D01*
X204634644Y-96440813D01*
X204564395Y-96170174D01*
X204435710Y-95999092D01*
X204170946Y-95849112D01*
X203871082Y-95824752D01*
X203599344Y-95927045D01*
X203599344Y-95927045D01*
G37*
X203599344Y-95927045D02*
X203531000Y-95984333D01*
X203443632Y-96055460D01*
X203328360Y-96103517D01*
X203153041Y-96132910D01*
X202885535Y-96148045D01*
X202493700Y-96153326D01*
X202295522Y-96153667D01*
X201840737Y-96150729D01*
X201521668Y-96138959D01*
X201304754Y-96113922D01*
X201156435Y-96071183D01*
X201043149Y-96006308D01*
X201014104Y-95984333D01*
X200724558Y-95845635D01*
X200426306Y-95844251D01*
X200160464Y-95961596D01*
X199968148Y-96179081D01*
X199890475Y-96478121D01*
X199890334Y-96492333D01*
X199961567Y-96795232D01*
X200147268Y-97016388D01*
X200405436Y-97138805D01*
X200694075Y-97145487D01*
X200971183Y-97019437D01*
X201041031Y-96958000D01*
X201139358Y-96868534D01*
X201244843Y-96808618D01*
X201391871Y-96772348D01*
X201614825Y-96753821D01*
X201948088Y-96747133D01*
X202273794Y-96746333D01*
X202709048Y-96748408D01*
X203010678Y-96758591D01*
X203214380Y-96782818D01*
X203355848Y-96827027D01*
X203470778Y-96897154D01*
X203546441Y-96958000D01*
X203842144Y-97134105D01*
X204125263Y-97144473D01*
X204408582Y-96994188D01*
X204587795Y-96756405D01*
X204640258Y-96462445D01*
X204634644Y-96440813D01*
X204278614Y-96440813D01*
X204244207Y-96667662D01*
X204113615Y-96803633D01*
X203937268Y-96833318D01*
X203765597Y-96741311D01*
X203686071Y-96621840D01*
X203677451Y-96568074D01*
X200882019Y-96568074D01*
X200795872Y-96739052D01*
X200614700Y-96828010D01*
X200567667Y-96831000D01*
X200388715Y-96769936D01*
X200317043Y-96708067D01*
X200243030Y-96519205D01*
X200289103Y-96334919D01*
X200419207Y-96200644D01*
X200597289Y-96161816D01*
X200715834Y-96205508D01*
X200859790Y-96371437D01*
X200882019Y-96568074D01*
X203677451Y-96568074D01*
X203649024Y-96390775D01*
X203751895Y-96227771D01*
X203968764Y-96166668D01*
X204031753Y-96170553D01*
X204200636Y-96230903D01*
X204271951Y-96392763D01*
X204278614Y-96440813D01*
X204634644Y-96440813D01*
X204564395Y-96170174D01*
X204435710Y-95999092D01*
X204170946Y-95849112D01*
X203871082Y-95824752D01*
X203599344Y-95927045D01*
G36*
X215087968Y-93021032D02*
G01*
X214536664Y-93567435D01*
X215383832Y-94417497D01*
X215718841Y-94756286D01*
X215951567Y-95002994D01*
X216100572Y-95184157D01*
X216184420Y-95326313D01*
X216221670Y-95455998D01*
X216230886Y-95599750D01*
X216231000Y-95628665D01*
X216259338Y-95933759D01*
X216329147Y-96221014D01*
X216345389Y-96263542D01*
X216546604Y-96577604D01*
X216853532Y-96871555D01*
X217205603Y-97093294D01*
X217392853Y-97164576D01*
X217630903Y-97225159D01*
X217801310Y-97239425D01*
X217989323Y-97206323D01*
X218175241Y-97154926D01*
X218637649Y-96942998D01*
X218986331Y-96607808D01*
X219111584Y-96403909D01*
X219250592Y-95969972D01*
X219251613Y-95922001D01*
X218855667Y-95922001D01*
X218796848Y-96018113D01*
X218646468Y-96185035D01*
X218443640Y-96385884D01*
X218227477Y-96583776D01*
X218037095Y-96741831D01*
X217911606Y-96823164D01*
X217895758Y-96827157D01*
X217791992Y-96790316D01*
X217584216Y-96689601D01*
X217315055Y-96545827D01*
X217281924Y-96527380D01*
X217005799Y-96366511D01*
X216836627Y-96229920D01*
X216759989Y-96075590D01*
X216761463Y-95861506D01*
X216826629Y-95545652D01*
X216876294Y-95345567D01*
X216953793Y-95054106D01*
X217020080Y-94890538D01*
X217102931Y-94817968D01*
X217230123Y-94799506D01*
X217287810Y-94799000D01*
X217548356Y-94786955D01*
X217862674Y-94756910D01*
X217953322Y-94745368D01*
X218344611Y-94691736D01*
X218600139Y-95261260D01*
X218724884Y-95550978D01*
X218815881Y-95784595D01*
X218855255Y-95915890D01*
X218855667Y-95922001D01*
X219251613Y-95922001D01*
X219260408Y-95508807D01*
X219150473Y-95065584D01*
X218930227Y-94685469D01*
X218708641Y-94476217D01*
X218434850Y-94327138D01*
X218110348Y-94214537D01*
X217800212Y-94156005D01*
X217570889Y-94168690D01*
X217478786Y-94170092D01*
X217354521Y-94111587D01*
X217178294Y-93977781D01*
X216930299Y-93753279D01*
X216590736Y-93422686D01*
X216517188Y-93349555D01*
X215639273Y-92474628D01*
X215087968Y-93021032D01*
X215087968Y-93021032D01*
G37*
X215087968Y-93021032D02*
X214536664Y-93567435D01*
X215383832Y-94417497D01*
X215718841Y-94756286D01*
X215951567Y-95002994D01*
X216100572Y-95184157D01*
X216184420Y-95326313D01*
X216221670Y-95455998D01*
X216230886Y-95599750D01*
X216231000Y-95628665D01*
X216259338Y-95933759D01*
X216329147Y-96221014D01*
X216345389Y-96263542D01*
X216546604Y-96577604D01*
X216853532Y-96871555D01*
X217205603Y-97093294D01*
X217392853Y-97164576D01*
X217630903Y-97225159D01*
X217801310Y-97239425D01*
X217989323Y-97206323D01*
X218175241Y-97154926D01*
X218637649Y-96942998D01*
X218986331Y-96607808D01*
X219111584Y-96403909D01*
X219250592Y-95969972D01*
X219251613Y-95922001D01*
X218855667Y-95922001D01*
X218796848Y-96018113D01*
X218646468Y-96185035D01*
X218443640Y-96385884D01*
X218227477Y-96583776D01*
X218037095Y-96741831D01*
X217911606Y-96823164D01*
X217895758Y-96827157D01*
X217791992Y-96790316D01*
X217584216Y-96689601D01*
X217315055Y-96545827D01*
X217281924Y-96527380D01*
X217005799Y-96366511D01*
X216836627Y-96229920D01*
X216759989Y-96075590D01*
X216761463Y-95861506D01*
X216826629Y-95545652D01*
X216876294Y-95345567D01*
X216953793Y-95054106D01*
X217020080Y-94890538D01*
X217102931Y-94817968D01*
X217230123Y-94799506D01*
X217287810Y-94799000D01*
X217548356Y-94786955D01*
X217862674Y-94756910D01*
X217953322Y-94745368D01*
X218344611Y-94691736D01*
X218600139Y-95261260D01*
X218724884Y-95550978D01*
X218815881Y-95784595D01*
X218855255Y-95915890D01*
X218855667Y-95922001D01*
X219251613Y-95922001D01*
X219260408Y-95508807D01*
X219150473Y-95065584D01*
X218930227Y-94685469D01*
X218708641Y-94476217D01*
X218434850Y-94327138D01*
X218110348Y-94214537D01*
X217800212Y-94156005D01*
X217570889Y-94168690D01*
X217478786Y-94170092D01*
X217354521Y-94111587D01*
X217178294Y-93977781D01*
X216930299Y-93753279D01*
X216590736Y-93422686D01*
X216517188Y-93349555D01*
X215639273Y-92474628D01*
X215087968Y-93021032D01*
G36*
X226433174Y-95750776D02*
G01*
X226264656Y-95762532D01*
X226237088Y-95771357D01*
X226209622Y-95877255D01*
X226186644Y-96109194D01*
X226171937Y-96423887D01*
X226169456Y-96544755D01*
X226174351Y-96940765D01*
X226213399Y-97197491D01*
X226303380Y-97344093D01*
X226461072Y-97409726D01*
X226675272Y-97423667D01*
X226878699Y-97477243D01*
X227104431Y-97608848D01*
X227137560Y-97635333D01*
X227318037Y-97771800D01*
X227448831Y-97843715D01*
X227466274Y-97847000D01*
X227577366Y-97800529D01*
X227761869Y-97684297D01*
X227830334Y-97635333D01*
X228065414Y-97499101D01*
X228289368Y-97426154D01*
X228333616Y-97422370D01*
X228546166Y-97403134D01*
X228684055Y-97328842D01*
X228763326Y-97170031D01*
X228800020Y-96897236D01*
X228809765Y-96547868D01*
X228815530Y-95835197D01*
X227555166Y-95774419D01*
X227109548Y-95756791D01*
X226725177Y-95748886D01*
X226433174Y-95750776D01*
X226433174Y-95750776D01*
G37*
X226433174Y-95750776D02*
X226264656Y-95762532D01*
X226237088Y-95771357D01*
X226209622Y-95877255D01*
X226186644Y-96109194D01*
X226171937Y-96423887D01*
X226169456Y-96544755D01*
X226174351Y-96940765D01*
X226213399Y-97197491D01*
X226303380Y-97344093D01*
X226461072Y-97409726D01*
X226675272Y-97423667D01*
X226878699Y-97477243D01*
X227104431Y-97608848D01*
X227137560Y-97635333D01*
X227318037Y-97771800D01*
X227448831Y-97843715D01*
X227466274Y-97847000D01*
X227577366Y-97800529D01*
X227761869Y-97684297D01*
X227830334Y-97635333D01*
X228065414Y-97499101D01*
X228289368Y-97426154D01*
X228333616Y-97422370D01*
X228546166Y-97403134D01*
X228684055Y-97328842D01*
X228763326Y-97170031D01*
X228800020Y-96897236D01*
X228809765Y-96547868D01*
X228815530Y-95835197D01*
X227555166Y-95774419D01*
X227109548Y-95756791D01*
X226725177Y-95748886D01*
X226433174Y-95750776D01*
G36*
X192389174Y-96422462D02*
G01*
X192217851Y-96463411D01*
X192185667Y-96500266D01*
X192209561Y-96615798D01*
X192274040Y-96854071D01*
X192368304Y-97176477D01*
X192446242Y-97431599D01*
X192706816Y-98270333D01*
X193048331Y-98270333D01*
X193264999Y-98263197D01*
X193354228Y-98215695D01*
X193357910Y-98088684D01*
X193342819Y-97995167D01*
X193312302Y-97774684D01*
X193276016Y-97452005D01*
X193241405Y-97093749D01*
X193238783Y-97063833D01*
X193181773Y-96407667D01*
X192683720Y-96407667D01*
X192389174Y-96422462D01*
X192389174Y-96422462D01*
G37*
X192389174Y-96422462D02*
X192217851Y-96463411D01*
X192185667Y-96500266D01*
X192209561Y-96615798D01*
X192274040Y-96854071D01*
X192368304Y-97176477D01*
X192446242Y-97431599D01*
X192706816Y-98270333D01*
X193048331Y-98270333D01*
X193264999Y-98263197D01*
X193354228Y-98215695D01*
X193357910Y-98088684D01*
X193342819Y-97995167D01*
X193312302Y-97774684D01*
X193276016Y-97452005D01*
X193241405Y-97093749D01*
X193238783Y-97063833D01*
X193181773Y-96407667D01*
X192683720Y-96407667D01*
X192389174Y-96422462D01*
G36*
X206867174Y-96422462D02*
G01*
X206695851Y-96463411D01*
X206663667Y-96500266D01*
X206687561Y-96615798D01*
X206752040Y-96854071D01*
X206846304Y-97176477D01*
X206924242Y-97431599D01*
X207184816Y-98270333D01*
X207526331Y-98270333D01*
X207742999Y-98263197D01*
X207832228Y-98215695D01*
X207835910Y-98088684D01*
X207820819Y-97995167D01*
X207790302Y-97774684D01*
X207754016Y-97452005D01*
X207719405Y-97093749D01*
X207716783Y-97063833D01*
X207659773Y-96407667D01*
X207161720Y-96407667D01*
X206867174Y-96422462D01*
X206867174Y-96422462D01*
G37*
X206867174Y-96422462D02*
X206695851Y-96463411D01*
X206663667Y-96500266D01*
X206687561Y-96615798D01*
X206752040Y-96854071D01*
X206846304Y-97176477D01*
X206924242Y-97431599D01*
X207184816Y-98270333D01*
X207526331Y-98270333D01*
X207742999Y-98263197D01*
X207832228Y-98215695D01*
X207835910Y-98088684D01*
X207820819Y-97995167D01*
X207790302Y-97774684D01*
X207754016Y-97452005D01*
X207719405Y-97093749D01*
X207716783Y-97063833D01*
X207659773Y-96407667D01*
X207161720Y-96407667D01*
X206867174Y-96422462D01*
G36*
X222029631Y-96450132D02*
G01*
X221988334Y-96512641D01*
X222012475Y-96637728D01*
X222077523Y-96883705D01*
X222172416Y-97210298D01*
X222245318Y-97448199D01*
X222502303Y-98270333D01*
X223152867Y-98270333D01*
X223115215Y-97910500D01*
X223085359Y-97625475D01*
X223047489Y-97264338D01*
X223019782Y-97000333D01*
X222962000Y-96450000D01*
X222475167Y-96424608D01*
X222182694Y-96420478D01*
X222029631Y-96450132D01*
X222029631Y-96450132D01*
G37*
X222029631Y-96450132D02*
X221988334Y-96512641D01*
X222012475Y-96637728D01*
X222077523Y-96883705D01*
X222172416Y-97210298D01*
X222245318Y-97448199D01*
X222502303Y-98270333D01*
X223152867Y-98270333D01*
X223115215Y-97910500D01*
X223085359Y-97625475D01*
X223047489Y-97264338D01*
X223019782Y-97000333D01*
X222962000Y-96450000D01*
X222475167Y-96424608D01*
X222182694Y-96420478D01*
X222029631Y-96450132D01*
G36*
X180395834Y-86937994D02*
G01*
X179999821Y-86959238D01*
X179726607Y-86994287D01*
X179529698Y-87053268D01*
X179362599Y-87146304D01*
X179327634Y-87170624D01*
X179138618Y-87322641D01*
X178993331Y-87491047D01*
X178886168Y-87699585D01*
X178811527Y-87971995D01*
X178763804Y-88332020D01*
X178737395Y-88803401D01*
X178726696Y-89409879D01*
X178725527Y-89721650D01*
X178723667Y-91375301D01*
X178215667Y-91878000D01*
X177983021Y-92119692D01*
X177806410Y-92325014D01*
X177714516Y-92459788D01*
X177707667Y-92483368D01*
X177767741Y-92584149D01*
X177926938Y-92758769D01*
X178153724Y-92973357D01*
X178210197Y-93023125D01*
X178712726Y-93460211D01*
X178739363Y-95478286D01*
X178749305Y-96154900D01*
X178762834Y-96684766D01*
X178785504Y-97090457D01*
X178822867Y-97394546D01*
X178880476Y-97619606D01*
X178963884Y-97788211D01*
X179078643Y-97922934D01*
X179230307Y-98046349D01*
X179400140Y-98164500D01*
X179564912Y-98259614D01*
X179747741Y-98317193D01*
X179996264Y-98346013D01*
X180358121Y-98354853D01*
X180434160Y-98355000D01*
X181188278Y-98355000D01*
X181162473Y-97954107D01*
X181136667Y-97553214D01*
X180776606Y-97579598D01*
X180374534Y-97565861D01*
X180038107Y-97472087D01*
X179805471Y-97312236D01*
X179734416Y-97198189D01*
X179711132Y-97054304D01*
X179690545Y-96768904D01*
X179673715Y-96369802D01*
X179661703Y-95884809D01*
X179655570Y-95341736D01*
X179655000Y-95116103D01*
X179655000Y-93242896D01*
X179218029Y-92839063D01*
X178781058Y-92435229D01*
X178985196Y-92265265D01*
X179147388Y-92145043D01*
X179253337Y-92092526D01*
X179254078Y-92092483D01*
X179335832Y-92025159D01*
X179456690Y-91861998D01*
X179486595Y-91814500D01*
X179544847Y-91705384D01*
X179587924Y-91579145D01*
X179618084Y-91409788D01*
X179637582Y-91171319D01*
X179648677Y-90837744D01*
X179653625Y-90383069D01*
X179654684Y-89878585D01*
X179655868Y-89304629D01*
X179660739Y-88874784D01*
X179671651Y-88563834D01*
X179690956Y-88346562D01*
X179721008Y-88197751D01*
X179764160Y-88092185D01*
X179822766Y-88004645D01*
X179830479Y-87994751D01*
X179940426Y-87875583D01*
X180067464Y-87808406D01*
X180261418Y-87778633D01*
X180572113Y-87771677D01*
X180592479Y-87771667D01*
X181179000Y-87771667D01*
X181179000Y-86908654D01*
X180395834Y-86937994D01*
X180395834Y-86937994D01*
G37*
X180395834Y-86937994D02*
X179999821Y-86959238D01*
X179726607Y-86994287D01*
X179529698Y-87053268D01*
X179362599Y-87146304D01*
X179327634Y-87170624D01*
X179138618Y-87322641D01*
X178993331Y-87491047D01*
X178886168Y-87699585D01*
X178811527Y-87971995D01*
X178763804Y-88332020D01*
X178737395Y-88803401D01*
X178726696Y-89409879D01*
X178725527Y-89721650D01*
X178723667Y-91375301D01*
X178215667Y-91878000D01*
X177983021Y-92119692D01*
X177806410Y-92325014D01*
X177714516Y-92459788D01*
X177707667Y-92483368D01*
X177767741Y-92584149D01*
X177926938Y-92758769D01*
X178153724Y-92973357D01*
X178210197Y-93023125D01*
X178712726Y-93460211D01*
X178739363Y-95478286D01*
X178749305Y-96154900D01*
X178762834Y-96684766D01*
X178785504Y-97090457D01*
X178822867Y-97394546D01*
X178880476Y-97619606D01*
X178963884Y-97788211D01*
X179078643Y-97922934D01*
X179230307Y-98046349D01*
X179400140Y-98164500D01*
X179564912Y-98259614D01*
X179747741Y-98317193D01*
X179996264Y-98346013D01*
X180358121Y-98354853D01*
X180434160Y-98355000D01*
X181188278Y-98355000D01*
X181162473Y-97954107D01*
X181136667Y-97553214D01*
X180776606Y-97579598D01*
X180374534Y-97565861D01*
X180038107Y-97472087D01*
X179805471Y-97312236D01*
X179734416Y-97198189D01*
X179711132Y-97054304D01*
X179690545Y-96768904D01*
X179673715Y-96369802D01*
X179661703Y-95884809D01*
X179655570Y-95341736D01*
X179655000Y-95116103D01*
X179655000Y-93242896D01*
X179218029Y-92839063D01*
X178781058Y-92435229D01*
X178985196Y-92265265D01*
X179147388Y-92145043D01*
X179253337Y-92092526D01*
X179254078Y-92092483D01*
X179335832Y-92025159D01*
X179456690Y-91861998D01*
X179486595Y-91814500D01*
X179544847Y-91705384D01*
X179587924Y-91579145D01*
X179618084Y-91409788D01*
X179637582Y-91171319D01*
X179648677Y-90837744D01*
X179653625Y-90383069D01*
X179654684Y-89878585D01*
X179655868Y-89304629D01*
X179660739Y-88874784D01*
X179671651Y-88563834D01*
X179690956Y-88346562D01*
X179721008Y-88197751D01*
X179764160Y-88092185D01*
X179822766Y-88004645D01*
X179830479Y-87994751D01*
X179940426Y-87875583D01*
X180067464Y-87808406D01*
X180261418Y-87778633D01*
X180572113Y-87771677D01*
X180592479Y-87771667D01*
X181179000Y-87771667D01*
X181179000Y-86908654D01*
X180395834Y-86937994D01*
G36*
X231640334Y-87771667D02*
G01*
X232226855Y-87771667D01*
X232545015Y-87777832D01*
X232743831Y-87806053D01*
X232873130Y-87870916D01*
X232982737Y-87987008D01*
X232988855Y-87994751D01*
X233049358Y-88081838D01*
X233094142Y-88184098D01*
X233125559Y-88326747D01*
X233145963Y-88535002D01*
X233157707Y-88834080D01*
X233163144Y-89249198D01*
X233164627Y-89805572D01*
X233164650Y-89878585D01*
X233166132Y-90457434D01*
X233171831Y-90892955D01*
X233184003Y-91211142D01*
X233204906Y-91437989D01*
X233236797Y-91599489D01*
X233281933Y-91721638D01*
X233332739Y-91814500D01*
X233456507Y-91992885D01*
X233551576Y-92087873D01*
X233565256Y-92092483D01*
X233669951Y-92143760D01*
X233831838Y-92263353D01*
X233834139Y-92265265D01*
X234038277Y-92435229D01*
X233601305Y-92839063D01*
X233164334Y-93242896D01*
X233164334Y-95116103D01*
X233160830Y-95674526D01*
X233151026Y-96185916D01*
X233135983Y-96622459D01*
X233116760Y-96956346D01*
X233094420Y-97159764D01*
X233084918Y-97198189D01*
X232927650Y-97389153D01*
X232645076Y-97521914D01*
X232275341Y-97582512D01*
X232042729Y-97579598D01*
X231682667Y-97553214D01*
X231656862Y-97954107D01*
X231631056Y-98355000D01*
X232376528Y-98353072D01*
X232885314Y-98332331D01*
X233245816Y-98271642D01*
X233396640Y-98215752D01*
X233622610Y-98052345D01*
X233829797Y-97821843D01*
X233862306Y-97773180D01*
X233923066Y-97667734D01*
X233969826Y-97556074D01*
X234004798Y-97414783D01*
X234030193Y-97220443D01*
X234048224Y-96949634D01*
X234061103Y-96578939D01*
X234071041Y-96084937D01*
X234079918Y-95469233D01*
X234106502Y-93472465D01*
X234609085Y-93030074D01*
X234846106Y-92809128D01*
X235022935Y-92620837D01*
X235108272Y-92499200D01*
X235111667Y-92484191D01*
X235054904Y-92380365D01*
X234903859Y-92194833D01*
X234687402Y-91962112D01*
X234609557Y-91883828D01*
X234107446Y-91386956D01*
X234080390Y-89585283D01*
X234070277Y-88983138D01*
X234058856Y-88526238D01*
X234043739Y-88190497D01*
X234022542Y-87951829D01*
X233992877Y-87786150D01*
X233952360Y-87669375D01*
X233898604Y-87577416D01*
X233878769Y-87550036D01*
X233662263Y-87292623D01*
X233441706Y-87120783D01*
X233173673Y-87016061D01*
X232814738Y-86960000D01*
X232438661Y-86937994D01*
X231640334Y-86908654D01*
X231640334Y-87771667D01*
X231640334Y-87771667D01*
G37*
X231640334Y-87771667D02*
X232226855Y-87771667D01*
X232545015Y-87777832D01*
X232743831Y-87806053D01*
X232873130Y-87870916D01*
X232982737Y-87987008D01*
X232988855Y-87994751D01*
X233049358Y-88081838D01*
X233094142Y-88184098D01*
X233125559Y-88326747D01*
X233145963Y-88535002D01*
X233157707Y-88834080D01*
X233163144Y-89249198D01*
X233164627Y-89805572D01*
X233164650Y-89878585D01*
X233166132Y-90457434D01*
X233171831Y-90892955D01*
X233184003Y-91211142D01*
X233204906Y-91437989D01*
X233236797Y-91599489D01*
X233281933Y-91721638D01*
X233332739Y-91814500D01*
X233456507Y-91992885D01*
X233551576Y-92087873D01*
X233565256Y-92092483D01*
X233669951Y-92143760D01*
X233831838Y-92263353D01*
X233834139Y-92265265D01*
X234038277Y-92435229D01*
X233601305Y-92839063D01*
X233164334Y-93242896D01*
X233164334Y-95116103D01*
X233160830Y-95674526D01*
X233151026Y-96185916D01*
X233135983Y-96622459D01*
X233116760Y-96956346D01*
X233094420Y-97159764D01*
X233084918Y-97198189D01*
X232927650Y-97389153D01*
X232645076Y-97521914D01*
X232275341Y-97582512D01*
X232042729Y-97579598D01*
X231682667Y-97553214D01*
X231656862Y-97954107D01*
X231631056Y-98355000D01*
X232376528Y-98353072D01*
X232885314Y-98332331D01*
X233245816Y-98271642D01*
X233396640Y-98215752D01*
X233622610Y-98052345D01*
X233829797Y-97821843D01*
X233862306Y-97773180D01*
X233923066Y-97667734D01*
X233969826Y-97556074D01*
X234004798Y-97414783D01*
X234030193Y-97220443D01*
X234048224Y-96949634D01*
X234061103Y-96578939D01*
X234071041Y-96084937D01*
X234079918Y-95469233D01*
X234106502Y-93472465D01*
X234609085Y-93030074D01*
X234846106Y-92809128D01*
X235022935Y-92620837D01*
X235108272Y-92499200D01*
X235111667Y-92484191D01*
X235054904Y-92380365D01*
X234903859Y-92194833D01*
X234687402Y-91962112D01*
X234609557Y-91883828D01*
X234107446Y-91386956D01*
X234080390Y-89585283D01*
X234070277Y-88983138D01*
X234058856Y-88526238D01*
X234043739Y-88190497D01*
X234022542Y-87951829D01*
X233992877Y-87786150D01*
X233952360Y-87669375D01*
X233898604Y-87577416D01*
X233878769Y-87550036D01*
X233662263Y-87292623D01*
X233441706Y-87120783D01*
X233173673Y-87016061D01*
X232814738Y-86960000D01*
X232438661Y-86937994D01*
X231640334Y-86908654D01*
X231640334Y-87771667D01*
M02*
