G04 #@! TF.GenerationSoftware,KiCad,Pcbnew,5.1.9+dfsg1-1*
G04 #@! TF.CreationDate,2022-06-21T09:56:44-04:00*
G04 #@! TF.ProjectId,VS_robot_controller,56535f72-6f62-46f7-945f-636f6e74726f,rev?*
G04 #@! TF.SameCoordinates,Original*
G04 #@! TF.FileFunction,Soldermask,Bot*
G04 #@! TF.FilePolarity,Negative*
%FSLAX46Y46*%
G04 Gerber Fmt 4.6, Leading zero omitted, Abs format (unit mm)*
G04 Created by KiCad (PCBNEW 5.1.9+dfsg1-1) date 2022-06-21 09:56:44*
%MOMM*%
%LPD*%
G01*
G04 APERTURE LIST*
%ADD10C,3.302000*%
%ADD11C,1.626000*%
%ADD12O,1.802000X1.802000*%
%ADD13C,1.902000*%
%ADD14C,2.502000*%
%ADD15O,2.502000X2.502000*%
%ADD16C,1.981600*%
G04 APERTURE END LIST*
D10*
X236000000Y-50000000D03*
X175000000Y-50000000D03*
X175000000Y-102000000D03*
X236000000Y-102000000D03*
G36*
G01*
X216662000Y-89613000D02*
X215138000Y-89613000D01*
G75*
G02*
X215087000Y-89562000I0J51000D01*
G01*
X215087000Y-88038000D01*
G75*
G02*
X215138000Y-87987000I51000J0D01*
G01*
X216662000Y-87987000D01*
G75*
G02*
X216713000Y-88038000I0J-51000D01*
G01*
X216713000Y-89562000D01*
G75*
G02*
X216662000Y-89613000I-51000J0D01*
G01*
G37*
D11*
X215900000Y-86260000D03*
X218440000Y-88800000D03*
X218440000Y-86260000D03*
X220980000Y-88800000D03*
X220980000Y-86260000D03*
X223520000Y-88800000D03*
X223520000Y-86260000D03*
D12*
X238000000Y-57840000D03*
X238000000Y-60380000D03*
X238000000Y-62920000D03*
X238000000Y-65460000D03*
G36*
G01*
X238901000Y-67150000D02*
X238901000Y-68850000D01*
G75*
G02*
X238850000Y-68901000I-51000J0D01*
G01*
X237150000Y-68901000D01*
G75*
G02*
X237099000Y-68850000I0J51000D01*
G01*
X237099000Y-67150000D01*
G75*
G02*
X237150000Y-67099000I51000J0D01*
G01*
X238850000Y-67099000D01*
G75*
G02*
X238901000Y-67150000I0J-51000D01*
G01*
G37*
G36*
G01*
X188451000Y-102100000D02*
X188451000Y-103900000D01*
G75*
G02*
X188400000Y-103951000I-51000J0D01*
G01*
X186600000Y-103951000D01*
G75*
G02*
X186549000Y-103900000I0J51000D01*
G01*
X186549000Y-102100000D01*
G75*
G02*
X186600000Y-102049000I51000J0D01*
G01*
X188400000Y-102049000D01*
G75*
G02*
X188451000Y-102100000I0J-51000D01*
G01*
G37*
D13*
X184960000Y-103000000D03*
G36*
G01*
X172099000Y-58850000D02*
X172099000Y-57150000D01*
G75*
G02*
X172150000Y-57099000I51000J0D01*
G01*
X173850000Y-57099000D01*
G75*
G02*
X173901000Y-57150000I0J-51000D01*
G01*
X173901000Y-58850000D01*
G75*
G02*
X173850000Y-58901000I-51000J0D01*
G01*
X172150000Y-58901000D01*
G75*
G02*
X172099000Y-58850000I0J51000D01*
G01*
G37*
D12*
X173000000Y-60540000D03*
X173000000Y-63080000D03*
X173000000Y-65620000D03*
X173000000Y-68160000D03*
D14*
X182500000Y-96000000D03*
D15*
X190120000Y-96000000D03*
G36*
G01*
X206668000Y-44819000D02*
X208368000Y-44819000D01*
G75*
G02*
X208419000Y-44870000I0J-51000D01*
G01*
X208419000Y-46570000D01*
G75*
G02*
X208368000Y-46621000I-51000J0D01*
G01*
X206668000Y-46621000D01*
G75*
G02*
X206617000Y-46570000I0J51000D01*
G01*
X206617000Y-44870000D01*
G75*
G02*
X206668000Y-44819000I51000J0D01*
G01*
G37*
D12*
X204978000Y-45720000D03*
X202438000Y-45720000D03*
X224880000Y-101800000D03*
X222340000Y-101800000D03*
G36*
G01*
X220650000Y-102701000D02*
X218950000Y-102701000D01*
G75*
G02*
X218899000Y-102650000I0J51000D01*
G01*
X218899000Y-100950000D01*
G75*
G02*
X218950000Y-100899000I51000J0D01*
G01*
X220650000Y-100899000D01*
G75*
G02*
X220701000Y-100950000I0J-51000D01*
G01*
X220701000Y-102650000D01*
G75*
G02*
X220650000Y-102701000I-51000J0D01*
G01*
G37*
G36*
G01*
X181350000Y-44901000D02*
X179650000Y-44901000D01*
G75*
G02*
X179599000Y-44850000I0J51000D01*
G01*
X179599000Y-43150000D01*
G75*
G02*
X179650000Y-43099000I51000J0D01*
G01*
X181350000Y-43099000D01*
G75*
G02*
X181401000Y-43150000I0J-51000D01*
G01*
X181401000Y-44850000D01*
G75*
G02*
X181350000Y-44901000I-51000J0D01*
G01*
G37*
X183040000Y-44000000D03*
D16*
X182626000Y-60198000D03*
X182626000Y-62738000D03*
X182626000Y-65278000D03*
X182626000Y-67818000D03*
X182626000Y-70358000D03*
X182626000Y-72898000D03*
X182626000Y-75438000D03*
X182626000Y-77978000D03*
X182626000Y-80518000D03*
X182626000Y-83058000D03*
X182626000Y-85598000D03*
X182626000Y-88138000D03*
X197866000Y-88138000D03*
X197866000Y-85598000D03*
X197866000Y-83058000D03*
X197866000Y-80518000D03*
X197866000Y-77978000D03*
X197866000Y-75438000D03*
X197866000Y-72898000D03*
X197866000Y-70358000D03*
X197866000Y-67818000D03*
X197866000Y-65278000D03*
X197866000Y-62738000D03*
X197866000Y-60198000D03*
X194945000Y-81915000D03*
X194945000Y-79375000D03*
X194945000Y-68961000D03*
X194945000Y-71501000D03*
X183896000Y-57658000D03*
X186436000Y-57658000D03*
X188976000Y-57658000D03*
X191516000Y-57658000D03*
X194056000Y-57658000D03*
X196596000Y-57658000D03*
M02*
