G04 #@! TF.GenerationSoftware,KiCad,Pcbnew,5.1.6*
G04 #@! TF.CreationDate,2020-07-08T06:17:30-04:00*
G04 #@! TF.ProjectId,VS_robot_receiver,56535f72-6f62-46f7-945f-726563656976,rev?*
G04 #@! TF.SameCoordinates,Original*
G04 #@! TF.FileFunction,Copper,L1,Top*
G04 #@! TF.FilePolarity,Positive*
%FSLAX46Y46*%
G04 Gerber Fmt 4.6, Leading zero omitted, Abs format (unit mm)*
G04 Created by KiCad (PCBNEW 5.1.6) date 2020-07-08 06:17:30*
%MOMM*%
%LPD*%
G01*
G04 APERTURE LIST*
G04 #@! TA.AperFunction,ComponentPad*
%ADD10R,1.524000X1.524000*%
G04 #@! TD*
G04 #@! TA.AperFunction,ComponentPad*
%ADD11C,1.524000*%
G04 #@! TD*
G04 #@! TA.AperFunction,ComponentPad*
%ADD12R,1.800000X1.800000*%
G04 #@! TD*
G04 #@! TA.AperFunction,ComponentPad*
%ADD13C,1.800000*%
G04 #@! TD*
G04 #@! TA.AperFunction,ComponentPad*
%ADD14R,1.700000X1.700000*%
G04 #@! TD*
G04 #@! TA.AperFunction,ComponentPad*
%ADD15O,1.700000X1.700000*%
G04 #@! TD*
G04 #@! TA.AperFunction,ComponentPad*
%ADD16O,1.501140X2.199640*%
G04 #@! TD*
G04 #@! TA.AperFunction,ComponentPad*
%ADD17O,2.199640X1.501140*%
G04 #@! TD*
G04 #@! TA.AperFunction,ComponentPad*
%ADD18C,1.600000*%
G04 #@! TD*
G04 #@! TA.AperFunction,ComponentPad*
%ADD19O,1.600000X1.600000*%
G04 #@! TD*
G04 #@! TA.AperFunction,ViaPad*
%ADD20C,0.800000*%
G04 #@! TD*
G04 #@! TA.AperFunction,Conductor*
%ADD21C,0.250000*%
G04 #@! TD*
G04 APERTURE END LIST*
D10*
X133500000Y-108500000D03*
D11*
X136040000Y-108500000D03*
X133500000Y-105960000D03*
X136040000Y-105960000D03*
X133500000Y-103420000D03*
X136040000Y-103420000D03*
X133500000Y-100880000D03*
X136040000Y-100880000D03*
D12*
X170000000Y-96000000D03*
D13*
X172540000Y-96000000D03*
D14*
X172000000Y-103000000D03*
D15*
X169460000Y-103000000D03*
X172000000Y-105540000D03*
X169460000Y-105540000D03*
X172000000Y-108080000D03*
X169460000Y-108080000D03*
X172000000Y-110620000D03*
X169460000Y-110620000D03*
D16*
X153880000Y-99420000D03*
X156420000Y-99420000D03*
X134830000Y-112120000D03*
X137370000Y-112120000D03*
X139910000Y-112120000D03*
X142450000Y-112120000D03*
X144990000Y-112120000D03*
X147530000Y-112120000D03*
X150070000Y-112120000D03*
X152610000Y-112120000D03*
X155150000Y-112120000D03*
X157690000Y-112120000D03*
X160230000Y-112120000D03*
X162770000Y-112120000D03*
X162770000Y-96880000D03*
X160230000Y-96880000D03*
X157690000Y-96880000D03*
X155150000Y-96880000D03*
X152610000Y-96880000D03*
X150070000Y-96880000D03*
X147530000Y-96880000D03*
X144990000Y-96880000D03*
X142450000Y-96880000D03*
X139910000Y-96880000D03*
X137370000Y-96880000D03*
X134830000Y-96880000D03*
X146260000Y-99420000D03*
X143720000Y-99420000D03*
D17*
X162770000Y-99420000D03*
X162770000Y-101960000D03*
X162770000Y-104500000D03*
D18*
X165780000Y-94530000D03*
D19*
X165780000Y-102150000D03*
D20*
X133000000Y-95000000D03*
D21*
X141025170Y-95455170D02*
X142450000Y-96880000D01*
X134384481Y-95455170D02*
X141025170Y-95455170D01*
X133754420Y-96085231D02*
X134384481Y-95455170D01*
X133754420Y-97674769D02*
X133754420Y-96085231D01*
X134384481Y-98304830D02*
X133754420Y-97674769D01*
X135275519Y-98304830D02*
X134384481Y-98304830D01*
X137127001Y-107412999D02*
X137127001Y-100156312D01*
X137127001Y-100156312D02*
X135275519Y-98304830D01*
X136040000Y-108500000D02*
X137127001Y-107412999D01*
X156650000Y-108080000D02*
X152610000Y-112120000D01*
X169460000Y-108080000D02*
X156650000Y-108080000D01*
X172455170Y-113544830D02*
X159114830Y-113544830D01*
X173175001Y-112824999D02*
X172455170Y-113544830D01*
X173175001Y-101889999D02*
X173175001Y-112824999D01*
X159114830Y-113544830D02*
X157690000Y-112120000D01*
X172635003Y-101350001D02*
X173175001Y-101889999D01*
X166579999Y-101350001D02*
X172635003Y-101350001D01*
X165780000Y-102150000D02*
X166579999Y-101350001D01*
X132412999Y-104872999D02*
X133500000Y-105960000D01*
X132412999Y-95587001D02*
X132412999Y-104872999D01*
X133000000Y-95000000D02*
X132412999Y-95587001D01*
X140985580Y-103035580D02*
X134830000Y-96880000D01*
X163175929Y-103035580D02*
X140985580Y-103035580D01*
X164315350Y-104175001D02*
X163175929Y-103035580D01*
X170824999Y-104175001D02*
X164315350Y-104175001D01*
X172000000Y-103000000D02*
X170824999Y-104175001D01*
X155490359Y-113649990D02*
X151599990Y-113649990D01*
X156225580Y-112914769D02*
X155490359Y-113649990D01*
X156225580Y-111325231D02*
X156225580Y-112914769D01*
X158295810Y-109255001D02*
X156225580Y-111325231D01*
X151599990Y-113649990D02*
X150070000Y-112120000D01*
X170824999Y-109255001D02*
X158295810Y-109255001D01*
X172000000Y-108080000D02*
X170824999Y-109255001D01*
M02*
