M48
; DRILL file {KiCad 5.1.9+dfsg1-1} date Mon Jul 18 15:01:03 2022
; FORMAT={-:-/ absolute / inch / decimal}
; #@! TF.CreationDate,2022-07-18T15:01:03-04:00
; #@! TF.GenerationSoftware,Kicad,Pcbnew,5.1.9+dfsg1-1
; #@! TF.FileFunction,Plated,1,2,PTH
FMAT,2
INCH
T1C0.0157
T2C0.0300
T3C0.0315
T4C0.0354
T5C0.0394
T6C0.0400
%
G90
G05
T1
X6.04Y-4.25
X6.19Y-4.25
T2
X5.42Y-3.94
X5.42Y-4.04
X5.42Y-4.14
X5.42Y-4.24
X5.52Y-3.94
X5.52Y-4.04
X5.52Y-4.14
X5.52Y-4.24
T3
X6.35Y-3.94
X6.35Y-4.24
T4
X6.71Y-3.77
X6.81Y-3.77
T5
X6.67Y-3.99
X6.67Y-4.09
X6.67Y-4.19
X6.67Y-4.39
X6.77Y-3.99
X6.77Y-4.09
X6.77Y-4.19
X6.77Y-4.39
T6
X5.24Y-3.85
X5.24Y-3.95
X5.24Y-4.05
X5.24Y-4.15
X5.24Y-4.25
X5.24Y-4.35
X5.34Y-3.8
X5.34Y-4.4
X5.44Y-3.8
X5.44Y-4.4
X5.54Y-3.8
X5.54Y-4.4
X5.64Y-3.8
X5.64Y-4.4
X5.685Y-3.915
X5.74Y-3.8
X5.74Y-4.4
X5.785Y-3.915
X5.84Y-3.8
X5.84Y-4.4
X5.94Y-3.8
X5.94Y-4.4
X6.04Y-3.8
X6.04Y-4.4
X6.095Y-3.915
X6.14Y-3.8
X6.14Y-4.4
X6.195Y-3.915
X6.24Y-3.8
X6.24Y-4.4
X6.34Y-3.8
X6.34Y-4.4
X6.44Y-3.8
X6.44Y-4.4
T0
M30
