G04 #@! TF.GenerationSoftware,KiCad,Pcbnew,5.1.9+dfsg1-1*
G04 #@! TF.CreationDate,2022-07-18T15:00:59-04:00*
G04 #@! TF.ProjectId,VS_robot_receiver,56535f72-6f62-46f7-945f-726563656976,rev?*
G04 #@! TF.SameCoordinates,Original*
G04 #@! TF.FileFunction,Legend,Top*
G04 #@! TF.FilePolarity,Positive*
%FSLAX46Y46*%
G04 Gerber Fmt 4.6, Leading zero omitted, Abs format (unit mm)*
G04 Created by KiCad (PCBNEW 5.1.9+dfsg1-1) date 2022-07-18 15:00:59*
%MOMM*%
%LPD*%
G01*
G04 APERTURE LIST*
%ADD10C,0.300000*%
%ADD11C,0.100000*%
%ADD12C,0.125000*%
%ADD13C,0.127000*%
%ADD14C,0.120000*%
%ADD15C,0.150000*%
G04 APERTURE END LIST*
D10*
X168235714Y-97643142D02*
X169378571Y-97643142D01*
X173521428Y-97643142D02*
X174664285Y-97643142D01*
X174092857Y-98214571D02*
X174092857Y-97071714D01*
D11*
X163095238Y-94273809D02*
X163380952Y-94273809D01*
X163238095Y-94273809D02*
X163238095Y-94773809D01*
X163285714Y-94702380D01*
X163333333Y-94654761D01*
X163380952Y-94630952D01*
X162785714Y-94773809D02*
X162738095Y-94773809D01*
X162690476Y-94750000D01*
X162666666Y-94726190D01*
X162642857Y-94678571D01*
X162619047Y-94583333D01*
X162619047Y-94464285D01*
X162642857Y-94369047D01*
X162666666Y-94321428D01*
X162690476Y-94297619D01*
X162738095Y-94273809D01*
X162785714Y-94273809D01*
X162833333Y-94297619D01*
X162857142Y-94321428D01*
X162880952Y-94369047D01*
X162904761Y-94464285D01*
X162904761Y-94583333D01*
X162880952Y-94678571D01*
X162857142Y-94726190D01*
X162833333Y-94750000D01*
X162785714Y-94773809D01*
X136219333Y-110255809D02*
X135933619Y-110255809D01*
X136076476Y-109755809D02*
X136076476Y-110255809D01*
X135814571Y-109755809D02*
X135552666Y-110089142D01*
X135814571Y-110089142D02*
X135552666Y-109755809D01*
X135266952Y-110255809D02*
X135219333Y-110255809D01*
X135171714Y-110232000D01*
X135147904Y-110208190D01*
X135124095Y-110160571D01*
X135100285Y-110065333D01*
X135100285Y-109946285D01*
X135124095Y-109851047D01*
X135147904Y-109803428D01*
X135171714Y-109779619D01*
X135219333Y-109755809D01*
X135266952Y-109755809D01*
X135314571Y-109779619D01*
X135338380Y-109803428D01*
X135362190Y-109851047D01*
X135386000Y-109946285D01*
X135386000Y-110065333D01*
X135362190Y-110160571D01*
X135338380Y-110208190D01*
X135314571Y-110232000D01*
X135266952Y-110255809D01*
X173632857Y-100865809D02*
X173656666Y-100842000D01*
X173704285Y-100818190D01*
X173823333Y-100818190D01*
X173870952Y-100842000D01*
X173894761Y-100865809D01*
X173918571Y-100913428D01*
X173918571Y-100961047D01*
X173894761Y-101032476D01*
X173609047Y-101318190D01*
X173918571Y-101318190D01*
X174109047Y-101175333D02*
X174347142Y-101175333D01*
X174061428Y-101318190D02*
X174228095Y-100818190D01*
X174394761Y-101318190D01*
X173597142Y-103659809D02*
X173620952Y-103636000D01*
X173668571Y-103612190D01*
X173787619Y-103612190D01*
X173835238Y-103636000D01*
X173859047Y-103659809D01*
X173882857Y-103707428D01*
X173882857Y-103755047D01*
X173859047Y-103826476D01*
X173573333Y-104112190D01*
X173882857Y-104112190D01*
X174263809Y-103850285D02*
X174335238Y-103874095D01*
X174359047Y-103897904D01*
X174382857Y-103945523D01*
X174382857Y-104016952D01*
X174359047Y-104064571D01*
X174335238Y-104088380D01*
X174287619Y-104112190D01*
X174097142Y-104112190D01*
X174097142Y-103612190D01*
X174263809Y-103612190D01*
X174311428Y-103636000D01*
X174335238Y-103659809D01*
X174359047Y-103707428D01*
X174359047Y-103755047D01*
X174335238Y-103802666D01*
X174311428Y-103826476D01*
X174263809Y-103850285D01*
X174097142Y-103850285D01*
X171831047Y-113034000D02*
X171783428Y-113010190D01*
X171712000Y-113010190D01*
X171640571Y-113034000D01*
X171592952Y-113081619D01*
X171569142Y-113129238D01*
X171545333Y-113224476D01*
X171545333Y-113295904D01*
X171569142Y-113391142D01*
X171592952Y-113438761D01*
X171640571Y-113486380D01*
X171712000Y-113510190D01*
X171759619Y-113510190D01*
X171831047Y-113486380D01*
X171854857Y-113462571D01*
X171854857Y-113295904D01*
X171759619Y-113295904D01*
X172069142Y-113510190D02*
X172069142Y-113010190D01*
X172354857Y-113510190D01*
X172354857Y-113010190D01*
X172592952Y-113510190D02*
X172592952Y-113010190D01*
X172712000Y-113010190D01*
X172783428Y-113034000D01*
X172831047Y-113081619D01*
X172854857Y-113129238D01*
X172878666Y-113224476D01*
X172878666Y-113295904D01*
X172854857Y-113391142D01*
X172831047Y-113438761D01*
X172783428Y-113486380D01*
X172712000Y-113510190D01*
X172592952Y-113510190D01*
X173863047Y-106430000D02*
X173815428Y-106406190D01*
X173744000Y-106406190D01*
X173672571Y-106430000D01*
X173624952Y-106477619D01*
X173601142Y-106525238D01*
X173577333Y-106620476D01*
X173577333Y-106691904D01*
X173601142Y-106787142D01*
X173624952Y-106834761D01*
X173672571Y-106882380D01*
X173744000Y-106906190D01*
X173791619Y-106906190D01*
X173863047Y-106882380D01*
X173886857Y-106858571D01*
X173886857Y-106691904D01*
X173791619Y-106691904D01*
X174101142Y-106906190D02*
X174101142Y-106406190D01*
X174386857Y-106906190D01*
X174386857Y-106406190D01*
X174624952Y-106906190D02*
X174624952Y-106406190D01*
X174744000Y-106406190D01*
X174815428Y-106430000D01*
X174863047Y-106477619D01*
X174886857Y-106525238D01*
X174910666Y-106620476D01*
X174910666Y-106691904D01*
X174886857Y-106787142D01*
X174863047Y-106834761D01*
X174815428Y-106882380D01*
X174744000Y-106906190D01*
X174624952Y-106906190D01*
X168652095Y-113010190D02*
X168818761Y-113510190D01*
X168985428Y-113010190D01*
X169152095Y-113510190D02*
X169152095Y-113176857D01*
X169152095Y-113010190D02*
X169128285Y-113034000D01*
X169152095Y-113057809D01*
X169175904Y-113034000D01*
X169152095Y-113010190D01*
X169152095Y-113057809D01*
X169390190Y-113176857D02*
X169390190Y-113510190D01*
X169390190Y-113224476D02*
X169414000Y-113200666D01*
X169461619Y-113176857D01*
X169533047Y-113176857D01*
X169580666Y-113200666D01*
X169604476Y-113248285D01*
X169604476Y-113510190D01*
D12*
X166892857Y-104112190D02*
X166607142Y-104112190D01*
X166750000Y-104112190D02*
X166750000Y-103612190D01*
X166702380Y-103683619D01*
X166654761Y-103731238D01*
X166607142Y-103755047D01*
X167273809Y-103850285D02*
X167345238Y-103874095D01*
X167369047Y-103897904D01*
X167392857Y-103945523D01*
X167392857Y-104016952D01*
X167369047Y-104064571D01*
X167345238Y-104088380D01*
X167297619Y-104112190D01*
X167107142Y-104112190D01*
X167107142Y-103612190D01*
X167273809Y-103612190D01*
X167321428Y-103636000D01*
X167345238Y-103659809D01*
X167369047Y-103707428D01*
X167369047Y-103755047D01*
X167345238Y-103802666D01*
X167321428Y-103826476D01*
X167273809Y-103850285D01*
X167107142Y-103850285D01*
D11*
X166928571Y-101572190D02*
X166642857Y-101572190D01*
X166785714Y-101572190D02*
X166785714Y-101072190D01*
X166738095Y-101143619D01*
X166690476Y-101191238D01*
X166642857Y-101215047D01*
X167119047Y-101429333D02*
X167357142Y-101429333D01*
X167071428Y-101572190D02*
X167238095Y-101072190D01*
X167404761Y-101572190D01*
X165997047Y-106406190D02*
X166116095Y-106906190D01*
X166211333Y-106549047D01*
X166306571Y-106906190D01*
X166425619Y-106406190D01*
X166806571Y-106882380D02*
X166758952Y-106906190D01*
X166663714Y-106906190D01*
X166616095Y-106882380D01*
X166592285Y-106834761D01*
X166592285Y-106644285D01*
X166616095Y-106596666D01*
X166663714Y-106572857D01*
X166758952Y-106572857D01*
X166806571Y-106596666D01*
X166830380Y-106644285D01*
X166830380Y-106691904D01*
X166592285Y-106739523D01*
X167258952Y-106906190D02*
X167258952Y-106644285D01*
X167235142Y-106596666D01*
X167187523Y-106572857D01*
X167092285Y-106572857D01*
X167044666Y-106596666D01*
X167258952Y-106882380D02*
X167211333Y-106906190D01*
X167092285Y-106906190D01*
X167044666Y-106882380D01*
X167020857Y-106834761D01*
X167020857Y-106787142D01*
X167044666Y-106739523D01*
X167092285Y-106715714D01*
X167211333Y-106715714D01*
X167258952Y-106691904D01*
X167497047Y-106572857D02*
X167497047Y-107072857D01*
X167497047Y-106596666D02*
X167544666Y-106572857D01*
X167639904Y-106572857D01*
X167687523Y-106596666D01*
X167711333Y-106620476D01*
X167735142Y-106668095D01*
X167735142Y-106810952D01*
X167711333Y-106858571D01*
X167687523Y-106882380D01*
X167639904Y-106906190D01*
X167544666Y-106906190D01*
X167497047Y-106882380D01*
X136159809Y-94261809D02*
X136159809Y-94595142D01*
X136159809Y-94499904D02*
X136136000Y-94547523D01*
X136112190Y-94571333D01*
X136064571Y-94595142D01*
X136016952Y-94595142D01*
X135636000Y-94261809D02*
X135636000Y-94523714D01*
X135659809Y-94571333D01*
X135707428Y-94595142D01*
X135802666Y-94595142D01*
X135850285Y-94571333D01*
X135636000Y-94285619D02*
X135683619Y-94261809D01*
X135802666Y-94261809D01*
X135850285Y-94285619D01*
X135874095Y-94333238D01*
X135874095Y-94380857D01*
X135850285Y-94428476D01*
X135802666Y-94452285D01*
X135683619Y-94452285D01*
X135636000Y-94476095D01*
X135445523Y-94595142D02*
X135350285Y-94261809D01*
X135255047Y-94499904D01*
X135159809Y-94261809D01*
X135064571Y-94595142D01*
D13*
X131826000Y-95250000D02*
X131826000Y-113030000D01*
X164846000Y-95250000D02*
X131826000Y-95250000D01*
X164846000Y-113030000D02*
X164846000Y-95250000D01*
X131826000Y-113030000D02*
X164846000Y-113030000D01*
D14*
X170144000Y-94522000D02*
X170144000Y-94678000D01*
X170144000Y-96838000D02*
X170144000Y-96994000D01*
X173376335Y-94679392D02*
G75*
G03*
X170144000Y-94522484I-1672335J-1078608D01*
G01*
X173376335Y-96836608D02*
G75*
G02*
X170144000Y-96993516I-1672335J1078608D01*
G01*
X172745130Y-94678163D02*
G75*
G03*
X170663039Y-94678000I-1041130J-1079837D01*
G01*
X172745130Y-96837837D02*
G75*
G02*
X170663039Y-96838000I-1041130J1079837D01*
G01*
X173288000Y-112836000D02*
X173288000Y-110176000D01*
X170688000Y-112836000D02*
X173288000Y-112836000D01*
X170688000Y-110176000D02*
X173288000Y-110176000D01*
X170688000Y-112836000D02*
X170688000Y-110176000D01*
X169418000Y-112836000D02*
X168088000Y-112836000D01*
X168088000Y-112836000D02*
X168088000Y-111506000D01*
X168088000Y-107756000D02*
X173288000Y-107756000D01*
X168088000Y-102616000D02*
X168088000Y-107756000D01*
X173288000Y-100016000D02*
X173288000Y-107756000D01*
X168088000Y-102616000D02*
X170688000Y-102616000D01*
X170688000Y-102616000D02*
X170688000Y-100016000D01*
X170688000Y-100016000D02*
X173288000Y-100016000D01*
X168088000Y-101346000D02*
X168088000Y-100016000D01*
X168088000Y-100016000D02*
X169418000Y-100016000D01*
X160250000Y-107156000D02*
X159920000Y-107156000D01*
X159920000Y-107156000D02*
X159920000Y-100616000D01*
X159920000Y-100616000D02*
X160250000Y-100616000D01*
X162330000Y-107156000D02*
X162660000Y-107156000D01*
X162660000Y-107156000D02*
X162660000Y-100616000D01*
X162660000Y-100616000D02*
X162330000Y-100616000D01*
D15*
X141772666Y-103798666D02*
X142248857Y-103798666D01*
X141677428Y-104084380D02*
X142010761Y-103084380D01*
X142344095Y-104084380D01*
X142677428Y-104084380D02*
X142677428Y-103417714D01*
X142677428Y-103608190D02*
X142725047Y-103512952D01*
X142772666Y-103465333D01*
X142867904Y-103417714D01*
X142963142Y-103417714D01*
X143725047Y-104084380D02*
X143725047Y-103084380D01*
X143725047Y-104036761D02*
X143629809Y-104084380D01*
X143439333Y-104084380D01*
X143344095Y-104036761D01*
X143296476Y-103989142D01*
X143248857Y-103893904D01*
X143248857Y-103608190D01*
X143296476Y-103512952D01*
X143344095Y-103465333D01*
X143439333Y-103417714D01*
X143629809Y-103417714D01*
X143725047Y-103465333D01*
X144629809Y-103417714D02*
X144629809Y-104084380D01*
X144201238Y-103417714D02*
X144201238Y-103941523D01*
X144248857Y-104036761D01*
X144344095Y-104084380D01*
X144486952Y-104084380D01*
X144582190Y-104036761D01*
X144629809Y-103989142D01*
X145106000Y-104084380D02*
X145106000Y-103417714D01*
X145106000Y-103084380D02*
X145058380Y-103132000D01*
X145106000Y-103179619D01*
X145153619Y-103132000D01*
X145106000Y-103084380D01*
X145106000Y-103179619D01*
X145582190Y-103417714D02*
X145582190Y-104084380D01*
X145582190Y-103512952D02*
X145629809Y-103465333D01*
X145725047Y-103417714D01*
X145867904Y-103417714D01*
X145963142Y-103465333D01*
X146010761Y-103560571D01*
X146010761Y-104084380D01*
X146629809Y-104084380D02*
X146534571Y-104036761D01*
X146486952Y-103989142D01*
X146439333Y-103893904D01*
X146439333Y-103608190D01*
X146486952Y-103512952D01*
X146534571Y-103465333D01*
X146629809Y-103417714D01*
X146772666Y-103417714D01*
X146867904Y-103465333D01*
X146915523Y-103512952D01*
X146963142Y-103608190D01*
X146963142Y-103893904D01*
X146915523Y-103989142D01*
X146867904Y-104036761D01*
X146772666Y-104084380D01*
X146629809Y-104084380D01*
X148153619Y-104084380D02*
X148153619Y-103084380D01*
X148534571Y-103084380D01*
X148629809Y-103132000D01*
X148677428Y-103179619D01*
X148725047Y-103274857D01*
X148725047Y-103417714D01*
X148677428Y-103512952D01*
X148629809Y-103560571D01*
X148534571Y-103608190D01*
X148153619Y-103608190D01*
X149153619Y-104084380D02*
X149153619Y-103417714D01*
X149153619Y-103608190D02*
X149201238Y-103512952D01*
X149248857Y-103465333D01*
X149344095Y-103417714D01*
X149439333Y-103417714D01*
X149915523Y-104084380D02*
X149820285Y-104036761D01*
X149772666Y-103989142D01*
X149725047Y-103893904D01*
X149725047Y-103608190D01*
X149772666Y-103512952D01*
X149820285Y-103465333D01*
X149915523Y-103417714D01*
X150058380Y-103417714D01*
X150153619Y-103465333D01*
X150201238Y-103512952D01*
X150248857Y-103608190D01*
X150248857Y-103893904D01*
X150201238Y-103989142D01*
X150153619Y-104036761D01*
X150058380Y-104084380D01*
X149915523Y-104084380D01*
X151439333Y-104084380D02*
X151439333Y-103084380D01*
X151772666Y-103798666D01*
X152106000Y-103084380D01*
X152106000Y-104084380D01*
X152582190Y-104084380D02*
X152582190Y-103417714D01*
X152582190Y-103084380D02*
X152534571Y-103132000D01*
X152582190Y-103179619D01*
X152629809Y-103132000D01*
X152582190Y-103084380D01*
X152582190Y-103179619D01*
X153058380Y-103417714D02*
X153058380Y-104084380D01*
X153058380Y-103512952D02*
X153106000Y-103465333D01*
X153201238Y-103417714D01*
X153344095Y-103417714D01*
X153439333Y-103465333D01*
X153486952Y-103560571D01*
X153486952Y-104084380D01*
X153963142Y-104084380D02*
X153963142Y-103417714D01*
X153963142Y-103084380D02*
X153915523Y-103132000D01*
X153963142Y-103179619D01*
X154010761Y-103132000D01*
X153963142Y-103084380D01*
X153963142Y-103179619D01*
X155106000Y-103084380D02*
X155725047Y-103084380D01*
X155391714Y-103465333D01*
X155534571Y-103465333D01*
X155629809Y-103512952D01*
X155677428Y-103560571D01*
X155725047Y-103655809D01*
X155725047Y-103893904D01*
X155677428Y-103989142D01*
X155629809Y-104036761D01*
X155534571Y-104084380D01*
X155248857Y-104084380D01*
X155153619Y-104036761D01*
X155106000Y-103989142D01*
X156058380Y-103417714D02*
X156296476Y-104084380D01*
X156534571Y-103417714D01*
X156820285Y-103084380D02*
X157439333Y-103084380D01*
X157106000Y-103465333D01*
X157248857Y-103465333D01*
X157344095Y-103512952D01*
X157391714Y-103560571D01*
X157439333Y-103655809D01*
X157439333Y-103893904D01*
X157391714Y-103989142D01*
X157344095Y-104036761D01*
X157248857Y-104084380D01*
X156963142Y-104084380D01*
X156867904Y-104036761D01*
X156820285Y-103989142D01*
X166600380Y-93876761D02*
X166505142Y-93924380D01*
X166314666Y-93924380D01*
X166219428Y-93876761D01*
X166171809Y-93829142D01*
X166124190Y-93733904D01*
X166124190Y-93448190D01*
X166171809Y-93352952D01*
X166219428Y-93305333D01*
X166314666Y-93257714D01*
X166505142Y-93257714D01*
X166600380Y-93305333D01*
X167171809Y-93924380D02*
X167076571Y-93876761D01*
X167028952Y-93829142D01*
X166981333Y-93733904D01*
X166981333Y-93448190D01*
X167028952Y-93352952D01*
X167076571Y-93305333D01*
X167171809Y-93257714D01*
X167314666Y-93257714D01*
X167409904Y-93305333D01*
X167457523Y-93352952D01*
X167505142Y-93448190D01*
X167505142Y-93733904D01*
X167457523Y-93829142D01*
X167409904Y-93876761D01*
X167314666Y-93924380D01*
X167171809Y-93924380D01*
X167933714Y-93924380D02*
X167933714Y-93257714D01*
X167933714Y-93352952D02*
X167981333Y-93305333D01*
X168076571Y-93257714D01*
X168219428Y-93257714D01*
X168314666Y-93305333D01*
X168362285Y-93400571D01*
X168362285Y-93924380D01*
X168362285Y-93400571D02*
X168409904Y-93305333D01*
X168505142Y-93257714D01*
X168648000Y-93257714D01*
X168743238Y-93305333D01*
X168790857Y-93400571D01*
X168790857Y-93924380D01*
X169267047Y-93924380D02*
X169267047Y-93257714D01*
X169267047Y-93352952D02*
X169314666Y-93305333D01*
X169409904Y-93257714D01*
X169552761Y-93257714D01*
X169648000Y-93305333D01*
X169695619Y-93400571D01*
X169695619Y-93924380D01*
X169695619Y-93400571D02*
X169743238Y-93305333D01*
X169838476Y-93257714D01*
X169981333Y-93257714D01*
X170076571Y-93305333D01*
X170124190Y-93400571D01*
X170124190Y-93924380D01*
X167540380Y-112839333D02*
X166540380Y-112839333D01*
X166540380Y-112458380D01*
X166588000Y-112363142D01*
X166635619Y-112315523D01*
X166730857Y-112267904D01*
X166873714Y-112267904D01*
X166968952Y-112315523D01*
X167016571Y-112363142D01*
X167064190Y-112458380D01*
X167064190Y-112839333D01*
X166540380Y-111934571D02*
X167540380Y-111696476D01*
X166826095Y-111506000D01*
X167540380Y-111315523D01*
X166540380Y-111077428D01*
X167540380Y-110125047D02*
X167064190Y-110458380D01*
X167540380Y-110696476D02*
X166540380Y-110696476D01*
X166540380Y-110315523D01*
X166588000Y-110220285D01*
X166635619Y-110172666D01*
X166730857Y-110125047D01*
X166873714Y-110125047D01*
X166968952Y-110172666D01*
X167016571Y-110220285D01*
X167064190Y-110315523D01*
X167064190Y-110696476D01*
X170354666Y-98468380D02*
X170354666Y-99182666D01*
X170307047Y-99325523D01*
X170211809Y-99420761D01*
X170068952Y-99468380D01*
X169973714Y-99468380D01*
X170783238Y-98563619D02*
X170830857Y-98516000D01*
X170926095Y-98468380D01*
X171164190Y-98468380D01*
X171259428Y-98516000D01*
X171307047Y-98563619D01*
X171354666Y-98658857D01*
X171354666Y-98754095D01*
X171307047Y-98896952D01*
X170735619Y-99468380D01*
X171354666Y-99468380D01*
X159372380Y-104005047D02*
X159372380Y-104576476D01*
X159372380Y-104290761D02*
X158372380Y-104290761D01*
X158515238Y-104386000D01*
X158610476Y-104481238D01*
X158658095Y-104576476D01*
X159372380Y-103576476D02*
X158372380Y-103576476D01*
X158991428Y-103481238D02*
X159372380Y-103195523D01*
X158705714Y-103195523D02*
X159086666Y-103576476D01*
M02*
