G04 #@! TF.GenerationSoftware,KiCad,Pcbnew,5.1.9+dfsg1-1*
G04 #@! TF.CreationDate,2022-07-18T15:00:59-04:00*
G04 #@! TF.ProjectId,VS_robot_receiver,56535f72-6f62-46f7-945f-726563656976,rev?*
G04 #@! TF.SameCoordinates,Original*
G04 #@! TF.FileFunction,Copper,L1,Top*
G04 #@! TF.FilePolarity,Positive*
%FSLAX46Y46*%
G04 Gerber Fmt 4.6, Leading zero omitted, Abs format (unit mm)*
G04 Created by KiCad (PCBNEW 5.1.9+dfsg1-1) date 2022-07-18 15:00:59*
%MOMM*%
%LPD*%
G01*
G04 APERTURE LIST*
G04 #@! TA.AperFunction,ComponentPad*
%ADD10C,1.879600*%
G04 #@! TD*
G04 #@! TA.AperFunction,ComponentPad*
%ADD11R,1.800000X1.800000*%
G04 #@! TD*
G04 #@! TA.AperFunction,ComponentPad*
%ADD12C,1.800000*%
G04 #@! TD*
G04 #@! TA.AperFunction,ComponentPad*
%ADD13R,1.700000X1.700000*%
G04 #@! TD*
G04 #@! TA.AperFunction,ComponentPad*
%ADD14O,1.700000X1.700000*%
G04 #@! TD*
G04 #@! TA.AperFunction,ComponentPad*
%ADD15C,1.600000*%
G04 #@! TD*
G04 #@! TA.AperFunction,ComponentPad*
%ADD16O,1.600000X1.600000*%
G04 #@! TD*
G04 #@! TA.AperFunction,ComponentPad*
%ADD17R,1.524000X1.524000*%
G04 #@! TD*
G04 #@! TA.AperFunction,ComponentPad*
%ADD18C,1.524000*%
G04 #@! TD*
G04 #@! TA.AperFunction,ViaPad*
%ADD19C,0.800000*%
G04 #@! TD*
G04 #@! TA.AperFunction,Conductor*
%ADD20C,0.250000*%
G04 #@! TD*
G04 APERTURE END LIST*
D10*
X133096000Y-97790000D03*
X133096000Y-100330000D03*
X133096000Y-102870000D03*
X133096000Y-105410000D03*
X133096000Y-107950000D03*
X133096000Y-110490000D03*
X146939000Y-99441000D03*
X144399000Y-99441000D03*
X154813000Y-99441000D03*
X157353000Y-99441000D03*
X135636000Y-96520000D03*
X138176000Y-96520000D03*
X140716000Y-96520000D03*
X143256000Y-96520000D03*
X145796000Y-96520000D03*
X148336000Y-96520000D03*
X150876000Y-96520000D03*
X153416000Y-96520000D03*
X155956000Y-96520000D03*
X158496000Y-96520000D03*
X161036000Y-96520000D03*
X163576000Y-96520000D03*
X163576000Y-111760000D03*
X161036000Y-111760000D03*
X158496000Y-111760000D03*
X155956000Y-111760000D03*
X153416000Y-111760000D03*
X150876000Y-111760000D03*
X148336000Y-111760000D03*
X145796000Y-111760000D03*
X143256000Y-111760000D03*
X140716000Y-111760000D03*
X138176000Y-111760000D03*
X135636000Y-111760000D03*
D11*
X170434000Y-95758000D03*
D12*
X172974000Y-95758000D03*
D13*
X169418000Y-111506000D03*
D14*
X171958000Y-111506000D03*
D13*
X169418000Y-101346000D03*
D14*
X171958000Y-101346000D03*
X169418000Y-103886000D03*
X171958000Y-103886000D03*
X169418000Y-106426000D03*
X171958000Y-106426000D03*
D15*
X161290000Y-107696000D03*
D16*
X161290000Y-100076000D03*
D17*
X137668000Y-107696000D03*
D18*
X140208000Y-107696000D03*
X137668000Y-105156000D03*
X140208000Y-105156000D03*
X137668000Y-102616000D03*
X140208000Y-102616000D03*
X137668000Y-100076000D03*
X140208000Y-100076000D03*
D19*
X153416000Y-107950000D03*
X157226000Y-107950000D03*
D20*
X170439199Y-113024801D02*
X171958000Y-111506000D01*
X157888895Y-113024801D02*
X170439199Y-113024801D01*
X157231199Y-112367105D02*
X157888895Y-113024801D01*
X157231199Y-111152895D02*
X157231199Y-112367105D01*
X156573503Y-110495199D02*
X157231199Y-111152895D01*
X140467199Y-110495199D02*
X156573503Y-110495199D01*
X137668000Y-107696000D02*
X140467199Y-110495199D01*
X171958000Y-111506000D02*
X171958000Y-106426000D01*
X171659001Y-94532999D02*
X170434000Y-95758000D01*
X173562001Y-94532999D02*
X171659001Y-94532999D01*
X174199001Y-95169999D02*
X173562001Y-94532999D01*
X174199001Y-98153001D02*
X174199001Y-95169999D01*
X173133001Y-99219001D02*
X174199001Y-98153001D01*
X173133001Y-105250999D02*
X173133001Y-99219001D01*
X171958000Y-106426000D02*
X173133001Y-105250999D01*
X138176000Y-96520000D02*
X135636000Y-99060000D01*
X135636000Y-105664000D02*
X137668000Y-107696000D01*
X135636000Y-99060000D02*
X135636000Y-105664000D01*
X171748999Y-96983001D02*
X172974000Y-95758000D01*
X170871629Y-96983001D02*
X171748999Y-96983001D01*
X161290000Y-106564630D02*
X170871629Y-96983001D01*
X161290000Y-107696000D02*
X161290000Y-106564630D01*
X158496000Y-102870000D02*
X161290000Y-100076000D01*
X158496000Y-111760000D02*
X158496000Y-102870000D01*
X160164999Y-107053221D02*
X160164999Y-108348999D01*
X162415001Y-104803219D02*
X160164999Y-107053221D01*
X162415001Y-99535999D02*
X162415001Y-104803219D01*
X160164999Y-108348999D02*
X163576000Y-111760000D01*
X161830001Y-98950999D02*
X162415001Y-99535999D01*
X160749999Y-98950999D02*
X161830001Y-98950999D01*
X153457997Y-106243001D02*
X160749999Y-98950999D01*
X138755001Y-106243001D02*
X153457997Y-106243001D01*
X137668000Y-105156000D02*
X138755001Y-106243001D01*
X153416000Y-107950000D02*
X157226000Y-107950000D01*
X161704094Y-98391906D02*
X163576000Y-96520000D01*
X160274000Y-98391906D02*
X161704094Y-98391906D01*
X153509906Y-105156000D02*
X160274000Y-98391906D01*
X140208000Y-105156000D02*
X153509906Y-105156000D01*
X155225684Y-96520000D02*
X155956000Y-96520000D01*
X138755001Y-101528999D02*
X150216685Y-101528999D01*
X150216685Y-101528999D02*
X155225684Y-96520000D01*
X137668000Y-102616000D02*
X138755001Y-101528999D01*
X159771199Y-97784801D02*
X161036000Y-96520000D01*
X154597293Y-97784801D02*
X159771199Y-97784801D01*
X149766094Y-102616000D02*
X154597293Y-97784801D01*
X140208000Y-102616000D02*
X149766094Y-102616000D01*
X150268895Y-95255199D02*
X157231199Y-95255199D01*
X149611199Y-95912895D02*
X150268895Y-95255199D01*
X149611199Y-98640707D02*
X149611199Y-95912895D01*
X147546105Y-100705801D02*
X149611199Y-98640707D01*
X142446563Y-100705801D02*
X147546105Y-100705801D01*
X157231199Y-95255199D02*
X158496000Y-96520000D01*
X140729761Y-98988999D02*
X142446563Y-100705801D01*
X138755001Y-98988999D02*
X140729761Y-98988999D01*
X137668000Y-100076000D02*
X138755001Y-98988999D01*
M02*
