G04 #@! TF.GenerationSoftware,KiCad,Pcbnew,5.1.2*
G04 #@! TF.CreationDate,2019-11-12T19:34:36-05:00*
G04 #@! TF.ProjectId,VS_robot_receiver,56535f72-6f62-46f7-945f-726563656976,rev?*
G04 #@! TF.SameCoordinates,Original*
G04 #@! TF.FileFunction,Legend,Bot*
G04 #@! TF.FilePolarity,Positive*
%FSLAX46Y46*%
G04 Gerber Fmt 4.6, Leading zero omitted, Abs format (unit mm)*
G04 Created by KiCad (PCBNEW 5.1.2) date 2019-11-12 19:34:36*
%MOMM*%
%LPD*%
G04 APERTURE LIST*
%ADD10C,0.250000*%
%ADD11C,0.300000*%
%ADD12C,0.010000*%
%ADD13C,0.150000*%
G04 APERTURE END LIST*
D10*
X159047619Y-94482142D02*
X159095238Y-94529761D01*
X159238095Y-94577380D01*
X159333333Y-94577380D01*
X159476190Y-94529761D01*
X159571428Y-94434523D01*
X159619047Y-94339285D01*
X159666666Y-94148809D01*
X159666666Y-94005952D01*
X159619047Y-93815476D01*
X159571428Y-93720238D01*
X159476190Y-93625000D01*
X159333333Y-93577380D01*
X159238095Y-93577380D01*
X159095238Y-93625000D01*
X159047619Y-93672619D01*
X158476190Y-94577380D02*
X158571428Y-94529761D01*
X158619047Y-94482142D01*
X158666666Y-94386904D01*
X158666666Y-94101190D01*
X158619047Y-94005952D01*
X158571428Y-93958333D01*
X158476190Y-93910714D01*
X158333333Y-93910714D01*
X158238095Y-93958333D01*
X158190476Y-94005952D01*
X158142857Y-94101190D01*
X158142857Y-94386904D01*
X158190476Y-94482142D01*
X158238095Y-94529761D01*
X158333333Y-94577380D01*
X158476190Y-94577380D01*
X157714285Y-94577380D02*
X157714285Y-93910714D01*
X157714285Y-94005952D02*
X157666666Y-93958333D01*
X157571428Y-93910714D01*
X157428571Y-93910714D01*
X157333333Y-93958333D01*
X157285714Y-94053571D01*
X157285714Y-94577380D01*
X157285714Y-94053571D02*
X157238095Y-93958333D01*
X157142857Y-93910714D01*
X157000000Y-93910714D01*
X156904761Y-93958333D01*
X156857142Y-94053571D01*
X156857142Y-94577380D01*
X156380952Y-94577380D02*
X156380952Y-93577380D01*
X156380952Y-93958333D02*
X156285714Y-93910714D01*
X156095238Y-93910714D01*
X156000000Y-93958333D01*
X155952380Y-94005952D01*
X155904761Y-94101190D01*
X155904761Y-94386904D01*
X155952380Y-94482142D01*
X156000000Y-94529761D01*
X156095238Y-94577380D01*
X156285714Y-94577380D01*
X156380952Y-94529761D01*
X155047619Y-94577380D02*
X155047619Y-94053571D01*
X155095238Y-93958333D01*
X155190476Y-93910714D01*
X155380952Y-93910714D01*
X155476190Y-93958333D01*
X155047619Y-94529761D02*
X155142857Y-94577380D01*
X155380952Y-94577380D01*
X155476190Y-94529761D01*
X155523809Y-94434523D01*
X155523809Y-94339285D01*
X155476190Y-94244047D01*
X155380952Y-94196428D01*
X155142857Y-94196428D01*
X155047619Y-94148809D01*
X154714285Y-93910714D02*
X154333333Y-93910714D01*
X154571428Y-93577380D02*
X154571428Y-94434523D01*
X154523809Y-94529761D01*
X154428571Y-94577380D01*
X154333333Y-94577380D01*
X152666666Y-94577380D02*
X153000000Y-94101190D01*
X153238095Y-94577380D02*
X153238095Y-93577380D01*
X152857142Y-93577380D01*
X152761904Y-93625000D01*
X152714285Y-93672619D01*
X152666666Y-93767857D01*
X152666666Y-93910714D01*
X152714285Y-94005952D01*
X152761904Y-94053571D01*
X152857142Y-94101190D01*
X153238095Y-94101190D01*
X152095238Y-94577380D02*
X152190476Y-94529761D01*
X152238095Y-94482142D01*
X152285714Y-94386904D01*
X152285714Y-94101190D01*
X152238095Y-94005952D01*
X152190476Y-93958333D01*
X152095238Y-93910714D01*
X151952380Y-93910714D01*
X151857142Y-93958333D01*
X151809523Y-94005952D01*
X151761904Y-94101190D01*
X151761904Y-94386904D01*
X151809523Y-94482142D01*
X151857142Y-94529761D01*
X151952380Y-94577380D01*
X152095238Y-94577380D01*
X151333333Y-94577380D02*
X151333333Y-93577380D01*
X151333333Y-93958333D02*
X151238095Y-93910714D01*
X151047619Y-93910714D01*
X150952380Y-93958333D01*
X150904761Y-94005952D01*
X150857142Y-94101190D01*
X150857142Y-94386904D01*
X150904761Y-94482142D01*
X150952380Y-94529761D01*
X151047619Y-94577380D01*
X151238095Y-94577380D01*
X151333333Y-94529761D01*
X150285714Y-94577380D02*
X150380952Y-94529761D01*
X150428571Y-94482142D01*
X150476190Y-94386904D01*
X150476190Y-94101190D01*
X150428571Y-94005952D01*
X150380952Y-93958333D01*
X150285714Y-93910714D01*
X150142857Y-93910714D01*
X150047619Y-93958333D01*
X150000000Y-94005952D01*
X149952380Y-94101190D01*
X149952380Y-94386904D01*
X150000000Y-94482142D01*
X150047619Y-94529761D01*
X150142857Y-94577380D01*
X150285714Y-94577380D01*
X149666666Y-93910714D02*
X149285714Y-93910714D01*
X149523809Y-93577380D02*
X149523809Y-94434523D01*
X149476190Y-94529761D01*
X149380952Y-94577380D01*
X149285714Y-94577380D01*
X147619047Y-94577380D02*
X147952380Y-94101190D01*
X148190476Y-94577380D02*
X148190476Y-93577380D01*
X147809523Y-93577380D01*
X147714285Y-93625000D01*
X147666666Y-93672619D01*
X147619047Y-93767857D01*
X147619047Y-93910714D01*
X147666666Y-94005952D01*
X147714285Y-94053571D01*
X147809523Y-94101190D01*
X148190476Y-94101190D01*
X146809523Y-94529761D02*
X146904761Y-94577380D01*
X147095238Y-94577380D01*
X147190476Y-94529761D01*
X147238095Y-94434523D01*
X147238095Y-94053571D01*
X147190476Y-93958333D01*
X147095238Y-93910714D01*
X146904761Y-93910714D01*
X146809523Y-93958333D01*
X146761904Y-94053571D01*
X146761904Y-94148809D01*
X147238095Y-94244047D01*
X145904761Y-94529761D02*
X146000000Y-94577380D01*
X146190476Y-94577380D01*
X146285714Y-94529761D01*
X146333333Y-94482142D01*
X146380952Y-94386904D01*
X146380952Y-94101190D01*
X146333333Y-94005952D01*
X146285714Y-93958333D01*
X146190476Y-93910714D01*
X146000000Y-93910714D01*
X145904761Y-93958333D01*
X145095238Y-94529761D02*
X145190476Y-94577380D01*
X145380952Y-94577380D01*
X145476190Y-94529761D01*
X145523809Y-94434523D01*
X145523809Y-94053571D01*
X145476190Y-93958333D01*
X145380952Y-93910714D01*
X145190476Y-93910714D01*
X145095238Y-93958333D01*
X145047619Y-94053571D01*
X145047619Y-94148809D01*
X145523809Y-94244047D01*
X144619047Y-94577380D02*
X144619047Y-93910714D01*
X144619047Y-93577380D02*
X144666666Y-93625000D01*
X144619047Y-93672619D01*
X144571428Y-93625000D01*
X144619047Y-93577380D01*
X144619047Y-93672619D01*
X144238095Y-93910714D02*
X144000000Y-94577380D01*
X143761904Y-93910714D01*
X143000000Y-94529761D02*
X143095238Y-94577380D01*
X143285714Y-94577380D01*
X143380952Y-94529761D01*
X143428571Y-94434523D01*
X143428571Y-94053571D01*
X143380952Y-93958333D01*
X143285714Y-93910714D01*
X143095238Y-93910714D01*
X143000000Y-93958333D01*
X142952380Y-94053571D01*
X142952380Y-94148809D01*
X143428571Y-94244047D01*
X142523809Y-94577380D02*
X142523809Y-93910714D01*
X142523809Y-94101190D02*
X142476190Y-94005952D01*
X142428571Y-93958333D01*
X142333333Y-93910714D01*
X142238095Y-93910714D01*
X151809523Y-95327380D02*
X151476190Y-96327380D01*
X151142857Y-95327380D01*
X150285714Y-96327380D02*
X150857142Y-96327380D01*
X150571428Y-96327380D02*
X150571428Y-95327380D01*
X150666666Y-95470238D01*
X150761904Y-95565476D01*
X150857142Y-95613095D01*
D11*
X167785714Y-94107142D02*
X168928571Y-94107142D01*
X173071428Y-94107142D02*
X174214285Y-94107142D01*
X173642857Y-94678571D02*
X173642857Y-93535714D01*
D12*
G36*
X142303196Y-105858493D02*
G01*
X142201082Y-105956286D01*
X142142571Y-106088682D01*
X142136334Y-106148073D01*
X142172297Y-106273044D01*
X142262269Y-106382170D01*
X142379372Y-106447582D01*
X142432667Y-106455334D01*
X142515571Y-106430313D01*
X142614519Y-106369886D01*
X142617458Y-106367594D01*
X142703731Y-106254332D01*
X142725139Y-106120656D01*
X142689626Y-105989365D01*
X142605139Y-105883256D01*
X142479621Y-105825126D01*
X142426735Y-105820334D01*
X142303196Y-105858493D01*
X142303196Y-105858493D01*
G37*
X142303196Y-105858493D02*
X142201082Y-105956286D01*
X142142571Y-106088682D01*
X142136334Y-106148073D01*
X142172297Y-106273044D01*
X142262269Y-106382170D01*
X142379372Y-106447582D01*
X142432667Y-106455334D01*
X142515571Y-106430313D01*
X142614519Y-106369886D01*
X142617458Y-106367594D01*
X142703731Y-106254332D01*
X142725139Y-106120656D01*
X142689626Y-105989365D01*
X142605139Y-105883256D01*
X142479621Y-105825126D01*
X142426735Y-105820334D01*
X142303196Y-105858493D01*
G36*
X140878114Y-106225021D02*
G01*
X140760298Y-106303521D01*
X140658631Y-106454219D01*
X140628744Y-106614475D01*
X140661768Y-106768063D01*
X140748837Y-106898758D01*
X140881084Y-106990335D01*
X141049642Y-107026569D01*
X141150639Y-107017791D01*
X141268537Y-106958220D01*
X141372685Y-106842820D01*
X141442172Y-106700129D01*
X141459000Y-106596996D01*
X141422281Y-106437322D01*
X141325607Y-106311793D01*
X141189204Y-106228902D01*
X141033297Y-106197147D01*
X140878114Y-106225021D01*
X140878114Y-106225021D01*
G37*
X140878114Y-106225021D02*
X140760298Y-106303521D01*
X140658631Y-106454219D01*
X140628744Y-106614475D01*
X140661768Y-106768063D01*
X140748837Y-106898758D01*
X140881084Y-106990335D01*
X141049642Y-107026569D01*
X141150639Y-107017791D01*
X141268537Y-106958220D01*
X141372685Y-106842820D01*
X141442172Y-106700129D01*
X141459000Y-106596996D01*
X141422281Y-106437322D01*
X141325607Y-106311793D01*
X141189204Y-106228902D01*
X141033297Y-106197147D01*
X140878114Y-106225021D01*
G36*
X141930388Y-107541783D02*
G01*
X141785279Y-107645042D01*
X141766910Y-107662957D01*
X141676791Y-107762193D01*
X141638350Y-107841275D01*
X141637886Y-107933846D01*
X141642830Y-107967598D01*
X141705323Y-108134180D01*
X141820416Y-108260418D01*
X141968442Y-108333960D01*
X142129739Y-108342452D01*
X142204570Y-108320446D01*
X142317146Y-108241409D01*
X142413659Y-108121592D01*
X142469532Y-107994629D01*
X142475000Y-107950356D01*
X142441374Y-107791698D01*
X142354251Y-107650223D01*
X142243350Y-107564242D01*
X142076640Y-107516184D01*
X141930388Y-107541783D01*
X141930388Y-107541783D01*
G37*
X141930388Y-107541783D02*
X141785279Y-107645042D01*
X141766910Y-107662957D01*
X141676791Y-107762193D01*
X141638350Y-107841275D01*
X141637886Y-107933846D01*
X141642830Y-107967598D01*
X141705323Y-108134180D01*
X141820416Y-108260418D01*
X141968442Y-108333960D01*
X142129739Y-108342452D01*
X142204570Y-108320446D01*
X142317146Y-108241409D01*
X142413659Y-108121592D01*
X142469532Y-107994629D01*
X142475000Y-107950356D01*
X142441374Y-107791698D01*
X142354251Y-107650223D01*
X142243350Y-107564242D01*
X142076640Y-107516184D01*
X141930388Y-107541783D01*
G36*
X137522000Y-98623667D02*
G01*
X138665000Y-98623667D01*
X138665000Y-100401667D01*
X137606667Y-100401667D01*
X137606667Y-100825000D01*
X138665000Y-100825000D01*
X138665000Y-102730000D01*
X137479667Y-102730000D01*
X137479667Y-103111000D01*
X139130667Y-103111000D01*
X139130667Y-98200334D01*
X137522000Y-98200334D01*
X137522000Y-98623667D01*
X137522000Y-98623667D01*
G37*
X137522000Y-98623667D02*
X138665000Y-98623667D01*
X138665000Y-100401667D01*
X137606667Y-100401667D01*
X137606667Y-100825000D01*
X138665000Y-100825000D01*
X138665000Y-102730000D01*
X137479667Y-102730000D01*
X137479667Y-103111000D01*
X139130667Y-103111000D01*
X139130667Y-98200334D01*
X137522000Y-98200334D01*
X137522000Y-98623667D01*
G36*
X140595609Y-98200737D02*
G01*
X140396115Y-98202992D01*
X140254413Y-98208664D01*
X140157068Y-98219319D01*
X140090642Y-98236523D01*
X140041700Y-98261842D01*
X139996805Y-98296842D01*
X139990278Y-98302432D01*
X139871500Y-98404530D01*
X139871500Y-99703167D01*
X140093750Y-99715962D01*
X140316000Y-99728758D01*
X140316000Y-98623667D01*
X141416667Y-98623667D01*
X141416667Y-102730000D01*
X140316000Y-102730000D01*
X140316000Y-101497909D01*
X140093750Y-101510705D01*
X139871500Y-101523500D01*
X139871500Y-102208102D01*
X139871986Y-102463771D01*
X139874664Y-102648946D01*
X139881366Y-102777800D01*
X139893926Y-102864505D01*
X139914176Y-102923234D01*
X139943948Y-102968159D01*
X139974130Y-103001852D01*
X140076759Y-103111000D01*
X141655909Y-103111000D01*
X141861167Y-102892512D01*
X141861167Y-98404669D01*
X141742390Y-98302501D01*
X141697019Y-98266041D01*
X141649447Y-98239481D01*
X141586239Y-98221253D01*
X141493959Y-98209792D01*
X141359171Y-98203530D01*
X141168438Y-98200901D01*
X140908324Y-98200337D01*
X140866334Y-98200334D01*
X140595609Y-98200737D01*
X140595609Y-98200737D01*
G37*
X140595609Y-98200737D02*
X140396115Y-98202992D01*
X140254413Y-98208664D01*
X140157068Y-98219319D01*
X140090642Y-98236523D01*
X140041700Y-98261842D01*
X139996805Y-98296842D01*
X139990278Y-98302432D01*
X139871500Y-98404530D01*
X139871500Y-99703167D01*
X140093750Y-99715962D01*
X140316000Y-99728758D01*
X140316000Y-98623667D01*
X141416667Y-98623667D01*
X141416667Y-102730000D01*
X140316000Y-102730000D01*
X140316000Y-101497909D01*
X140093750Y-101510705D01*
X139871500Y-101523500D01*
X139871500Y-102208102D01*
X139871986Y-102463771D01*
X139874664Y-102648946D01*
X139881366Y-102777800D01*
X139893926Y-102864505D01*
X139914176Y-102923234D01*
X139943948Y-102968159D01*
X139974130Y-103001852D01*
X140076759Y-103111000D01*
X141655909Y-103111000D01*
X141861167Y-102892512D01*
X141861167Y-98404669D01*
X141742390Y-98302501D01*
X141697019Y-98266041D01*
X141649447Y-98239481D01*
X141586239Y-98221253D01*
X141493959Y-98209792D01*
X141359171Y-98203530D01*
X141168438Y-98200901D01*
X140908324Y-98200337D01*
X140866334Y-98200334D01*
X140595609Y-98200737D01*
G36*
X143397177Y-98164743D02*
G01*
X143319491Y-98181744D01*
X143306324Y-98190910D01*
X143296570Y-98235463D01*
X143273751Y-98354448D01*
X143239464Y-98538908D01*
X143195306Y-98779888D01*
X143142874Y-99068433D01*
X143083764Y-99395586D01*
X143019574Y-99752391D01*
X142951899Y-100129893D01*
X142882338Y-100519136D01*
X142812486Y-100911164D01*
X142743941Y-101297021D01*
X142678300Y-101667751D01*
X142617159Y-102014399D01*
X142562114Y-102328009D01*
X142514764Y-102599624D01*
X142476705Y-102820289D01*
X142449533Y-102981049D01*
X142434845Y-103072946D01*
X142432667Y-103090842D01*
X142470894Y-103102053D01*
X142569181Y-103109372D01*
X142657434Y-103111000D01*
X142882200Y-103111000D01*
X142964384Y-102592417D01*
X143046569Y-102073834D01*
X144017577Y-102073834D01*
X144090215Y-102539500D01*
X144119816Y-102732309D01*
X144144128Y-102896393D01*
X144160329Y-103012343D01*
X144165593Y-103058084D01*
X144207279Y-103093058D01*
X144329017Y-103109509D01*
X144401974Y-103111000D01*
X144534752Y-103108542D01*
X144601416Y-103095598D01*
X144620490Y-103063810D01*
X144613127Y-103015750D01*
X144600533Y-102952220D01*
X144574980Y-102815006D01*
X144538199Y-102613803D01*
X144491923Y-102358311D01*
X144437884Y-102058225D01*
X144377814Y-101723243D01*
X144353822Y-101588997D01*
X143943264Y-101588997D01*
X143917209Y-101610651D01*
X143848510Y-101622840D01*
X143722910Y-101628191D01*
X143538848Y-101629334D01*
X143115324Y-101629334D01*
X143140561Y-101470584D01*
X143217026Y-100994745D01*
X143287925Y-100563721D01*
X143352307Y-100182804D01*
X143409217Y-99857287D01*
X143457703Y-99592462D01*
X143496813Y-99393622D01*
X143525594Y-99266059D01*
X143543092Y-99215066D01*
X143546393Y-99216334D01*
X143559498Y-99273898D01*
X143583567Y-99403355D01*
X143616588Y-99592929D01*
X143656547Y-99830846D01*
X143701432Y-100105332D01*
X143745419Y-100380500D01*
X143792978Y-100678939D01*
X143837222Y-100952305D01*
X143876169Y-101188681D01*
X143907836Y-101376149D01*
X143930238Y-101502793D01*
X143940935Y-101555250D01*
X143943264Y-101588997D01*
X144353822Y-101588997D01*
X144313444Y-101363064D01*
X144246508Y-100987383D01*
X144178736Y-100605898D01*
X144111862Y-100228308D01*
X144047616Y-99864308D01*
X143987732Y-99523596D01*
X143933940Y-99215870D01*
X143915614Y-99110500D01*
X143870953Y-98860329D01*
X143828242Y-98633868D01*
X143790555Y-98446474D01*
X143760969Y-98313505D01*
X143743891Y-98253250D01*
X143702899Y-98191927D01*
X143629448Y-98163992D01*
X143515573Y-98158000D01*
X143397177Y-98164743D01*
X143397177Y-98164743D01*
G37*
X143397177Y-98164743D02*
X143319491Y-98181744D01*
X143306324Y-98190910D01*
X143296570Y-98235463D01*
X143273751Y-98354448D01*
X143239464Y-98538908D01*
X143195306Y-98779888D01*
X143142874Y-99068433D01*
X143083764Y-99395586D01*
X143019574Y-99752391D01*
X142951899Y-100129893D01*
X142882338Y-100519136D01*
X142812486Y-100911164D01*
X142743941Y-101297021D01*
X142678300Y-101667751D01*
X142617159Y-102014399D01*
X142562114Y-102328009D01*
X142514764Y-102599624D01*
X142476705Y-102820289D01*
X142449533Y-102981049D01*
X142434845Y-103072946D01*
X142432667Y-103090842D01*
X142470894Y-103102053D01*
X142569181Y-103109372D01*
X142657434Y-103111000D01*
X142882200Y-103111000D01*
X142964384Y-102592417D01*
X143046569Y-102073834D01*
X144017577Y-102073834D01*
X144090215Y-102539500D01*
X144119816Y-102732309D01*
X144144128Y-102896393D01*
X144160329Y-103012343D01*
X144165593Y-103058084D01*
X144207279Y-103093058D01*
X144329017Y-103109509D01*
X144401974Y-103111000D01*
X144534752Y-103108542D01*
X144601416Y-103095598D01*
X144620490Y-103063810D01*
X144613127Y-103015750D01*
X144600533Y-102952220D01*
X144574980Y-102815006D01*
X144538199Y-102613803D01*
X144491923Y-102358311D01*
X144437884Y-102058225D01*
X144377814Y-101723243D01*
X144353822Y-101588997D01*
X143943264Y-101588997D01*
X143917209Y-101610651D01*
X143848510Y-101622840D01*
X143722910Y-101628191D01*
X143538848Y-101629334D01*
X143115324Y-101629334D01*
X143140561Y-101470584D01*
X143217026Y-100994745D01*
X143287925Y-100563721D01*
X143352307Y-100182804D01*
X143409217Y-99857287D01*
X143457703Y-99592462D01*
X143496813Y-99393622D01*
X143525594Y-99266059D01*
X143543092Y-99215066D01*
X143546393Y-99216334D01*
X143559498Y-99273898D01*
X143583567Y-99403355D01*
X143616588Y-99592929D01*
X143656547Y-99830846D01*
X143701432Y-100105332D01*
X143745419Y-100380500D01*
X143792978Y-100678939D01*
X143837222Y-100952305D01*
X143876169Y-101188681D01*
X143907836Y-101376149D01*
X143930238Y-101502793D01*
X143940935Y-101555250D01*
X143943264Y-101588997D01*
X144353822Y-101588997D01*
X144313444Y-101363064D01*
X144246508Y-100987383D01*
X144178736Y-100605898D01*
X144111862Y-100228308D01*
X144047616Y-99864308D01*
X143987732Y-99523596D01*
X143933940Y-99215870D01*
X143915614Y-99110500D01*
X143870953Y-98860329D01*
X143828242Y-98633868D01*
X143790555Y-98446474D01*
X143760969Y-98313505D01*
X143743891Y-98253250D01*
X143702899Y-98191927D01*
X143629448Y-98163992D01*
X143515573Y-98158000D01*
X143397177Y-98164743D01*
G36*
X145885144Y-98200564D02*
G01*
X145665632Y-98202117D01*
X145506628Y-98206280D01*
X145396052Y-98214342D01*
X145321826Y-98227593D01*
X145271868Y-98247322D01*
X145234100Y-98274818D01*
X145203576Y-98304243D01*
X145099667Y-98408152D01*
X145099667Y-100955849D01*
X145203576Y-101059758D01*
X145246095Y-101099127D01*
X145291768Y-101127041D01*
X145355021Y-101145469D01*
X145450284Y-101156377D01*
X145591984Y-101161734D01*
X145794549Y-101163505D01*
X145965576Y-101163667D01*
X146623667Y-101163667D01*
X146623667Y-103111000D01*
X147047000Y-103111000D01*
X147047000Y-98623667D01*
X146623667Y-98623667D01*
X146623667Y-99674945D01*
X146622575Y-99965138D01*
X146619505Y-100226907D01*
X146614764Y-100448468D01*
X146608661Y-100618038D01*
X146601504Y-100723833D01*
X146595445Y-100754445D01*
X146544347Y-100765474D01*
X146426323Y-100774485D01*
X146259107Y-100780530D01*
X146066278Y-100782667D01*
X145565334Y-100782667D01*
X145565334Y-98623667D01*
X146623667Y-98623667D01*
X147047000Y-98623667D01*
X147047000Y-98200334D01*
X146177243Y-98200334D01*
X145885144Y-98200564D01*
X145885144Y-98200564D01*
G37*
X145885144Y-98200564D02*
X145665632Y-98202117D01*
X145506628Y-98206280D01*
X145396052Y-98214342D01*
X145321826Y-98227593D01*
X145271868Y-98247322D01*
X145234100Y-98274818D01*
X145203576Y-98304243D01*
X145099667Y-98408152D01*
X145099667Y-100955849D01*
X145203576Y-101059758D01*
X145246095Y-101099127D01*
X145291768Y-101127041D01*
X145355021Y-101145469D01*
X145450284Y-101156377D01*
X145591984Y-101161734D01*
X145794549Y-101163505D01*
X145965576Y-101163667D01*
X146623667Y-101163667D01*
X146623667Y-103111000D01*
X147047000Y-103111000D01*
X147047000Y-98623667D01*
X146623667Y-98623667D01*
X146623667Y-99674945D01*
X146622575Y-99965138D01*
X146619505Y-100226907D01*
X146614764Y-100448468D01*
X146608661Y-100618038D01*
X146601504Y-100723833D01*
X146595445Y-100754445D01*
X146544347Y-100765474D01*
X146426323Y-100774485D01*
X146259107Y-100780530D01*
X146066278Y-100782667D01*
X145565334Y-100782667D01*
X145565334Y-98623667D01*
X146623667Y-98623667D01*
X147047000Y-98623667D01*
X147047000Y-98200334D01*
X146177243Y-98200334D01*
X145885144Y-98200564D01*
G36*
X147918597Y-98330582D02*
G01*
X147876340Y-98383900D01*
X147846631Y-98436991D01*
X147827262Y-98505214D01*
X147816024Y-98603929D01*
X147810707Y-98748496D01*
X147809101Y-98954273D01*
X147809000Y-99092582D01*
X147809000Y-99724334D01*
X148274667Y-99724334D01*
X148274667Y-98623667D01*
X149333000Y-98623667D01*
X149333000Y-99597702D01*
X148612392Y-100465073D01*
X148417765Y-100701505D01*
X148239920Y-100921675D01*
X148086526Y-101115757D01*
X147965250Y-101273928D01*
X147883762Y-101386363D01*
X147850392Y-101441311D01*
X147835717Y-101521330D01*
X147823331Y-101667825D01*
X147814246Y-101862614D01*
X147809475Y-102087516D01*
X147809000Y-102184525D01*
X147812853Y-102483838D01*
X147825940Y-102709492D01*
X147850552Y-102872210D01*
X147888981Y-102982715D01*
X147943520Y-103051730D01*
X148001397Y-103084703D01*
X148064546Y-103093243D01*
X148197219Y-103100624D01*
X148384277Y-103106362D01*
X148610580Y-103109970D01*
X148821084Y-103111000D01*
X149572242Y-103111000D01*
X149674871Y-103001846D01*
X149713122Y-102957925D01*
X149740454Y-102910991D01*
X149758702Y-102846871D01*
X149769698Y-102751391D01*
X149775273Y-102610380D01*
X149777261Y-102409665D01*
X149777500Y-102208096D01*
X149777500Y-101523500D01*
X149555250Y-101510705D01*
X149333000Y-101497909D01*
X149333000Y-102730000D01*
X148274667Y-102730000D01*
X148274667Y-101564768D01*
X148957426Y-100739801D01*
X149147990Y-100508730D01*
X149323592Y-100294264D01*
X149476008Y-100106567D01*
X149597017Y-99955803D01*
X149678396Y-99852138D01*
X149708843Y-99810862D01*
X149736282Y-99754092D01*
X149755605Y-99671255D01*
X149768066Y-99548570D01*
X149774916Y-99372256D01*
X149777411Y-99128532D01*
X149777500Y-99055780D01*
X149777500Y-98404669D01*
X149658723Y-98302501D01*
X149613309Y-98266011D01*
X149565688Y-98239439D01*
X149502410Y-98221212D01*
X149410022Y-98209759D01*
X149275071Y-98203510D01*
X149084105Y-98200893D01*
X148823672Y-98200336D01*
X148784070Y-98200334D01*
X148028193Y-98200334D01*
X147918597Y-98330582D01*
X147918597Y-98330582D01*
G37*
X147918597Y-98330582D02*
X147876340Y-98383900D01*
X147846631Y-98436991D01*
X147827262Y-98505214D01*
X147816024Y-98603929D01*
X147810707Y-98748496D01*
X147809101Y-98954273D01*
X147809000Y-99092582D01*
X147809000Y-99724334D01*
X148274667Y-99724334D01*
X148274667Y-98623667D01*
X149333000Y-98623667D01*
X149333000Y-99597702D01*
X148612392Y-100465073D01*
X148417765Y-100701505D01*
X148239920Y-100921675D01*
X148086526Y-101115757D01*
X147965250Y-101273928D01*
X147883762Y-101386363D01*
X147850392Y-101441311D01*
X147835717Y-101521330D01*
X147823331Y-101667825D01*
X147814246Y-101862614D01*
X147809475Y-102087516D01*
X147809000Y-102184525D01*
X147812853Y-102483838D01*
X147825940Y-102709492D01*
X147850552Y-102872210D01*
X147888981Y-102982715D01*
X147943520Y-103051730D01*
X148001397Y-103084703D01*
X148064546Y-103093243D01*
X148197219Y-103100624D01*
X148384277Y-103106362D01*
X148610580Y-103109970D01*
X148821084Y-103111000D01*
X149572242Y-103111000D01*
X149674871Y-103001846D01*
X149713122Y-102957925D01*
X149740454Y-102910991D01*
X149758702Y-102846871D01*
X149769698Y-102751391D01*
X149775273Y-102610380D01*
X149777261Y-102409665D01*
X149777500Y-102208096D01*
X149777500Y-101523500D01*
X149555250Y-101510705D01*
X149333000Y-101497909D01*
X149333000Y-102730000D01*
X148274667Y-102730000D01*
X148274667Y-101564768D01*
X148957426Y-100739801D01*
X149147990Y-100508730D01*
X149323592Y-100294264D01*
X149476008Y-100106567D01*
X149597017Y-99955803D01*
X149678396Y-99852138D01*
X149708843Y-99810862D01*
X149736282Y-99754092D01*
X149755605Y-99671255D01*
X149768066Y-99548570D01*
X149774916Y-99372256D01*
X149777411Y-99128532D01*
X149777500Y-99055780D01*
X149777500Y-98404669D01*
X149658723Y-98302501D01*
X149613309Y-98266011D01*
X149565688Y-98239439D01*
X149502410Y-98221212D01*
X149410022Y-98209759D01*
X149275071Y-98203510D01*
X149084105Y-98200893D01*
X148823672Y-98200336D01*
X148784070Y-98200334D01*
X148028193Y-98200334D01*
X147918597Y-98330582D01*
G36*
X152565938Y-98200534D02*
G01*
X152338903Y-98201936D01*
X152173072Y-98205739D01*
X152056713Y-98213143D01*
X151978097Y-98225348D01*
X151925492Y-98243553D01*
X151887167Y-98268958D01*
X151851389Y-98302763D01*
X151849910Y-98304243D01*
X151746000Y-98408152D01*
X151746000Y-99466049D01*
X151746187Y-99792246D01*
X151747360Y-100044637D01*
X151750439Y-100234083D01*
X151756346Y-100371445D01*
X151766000Y-100467583D01*
X151780322Y-100533358D01*
X151800232Y-100579631D01*
X151826651Y-100617264D01*
X151845448Y-100639560D01*
X151917727Y-100707749D01*
X152005586Y-100747084D01*
X152138088Y-100768424D01*
X152205281Y-100774008D01*
X152341056Y-100786015D01*
X152435257Y-100798524D01*
X152465667Y-100807643D01*
X152452009Y-100849759D01*
X152413432Y-100961387D01*
X152353528Y-101132317D01*
X152275891Y-101352339D01*
X152184116Y-101611244D01*
X152081797Y-101898824D01*
X152063500Y-101950143D01*
X151959703Y-102241831D01*
X151865844Y-102506812D01*
X151785521Y-102734830D01*
X151722330Y-102915630D01*
X151679870Y-103038958D01*
X151661738Y-103094560D01*
X151661334Y-103096533D01*
X151699598Y-103104619D01*
X151798532Y-103106142D01*
X151899899Y-103102529D01*
X152138464Y-103089834D01*
X152574954Y-101841000D01*
X152683039Y-101528991D01*
X152781528Y-101239369D01*
X152866979Y-100982672D01*
X152935952Y-100769443D01*
X152985006Y-100610221D01*
X153010700Y-100515546D01*
X153013722Y-100496917D01*
X153010719Y-100452768D01*
X152988657Y-100424918D01*
X152931796Y-100409620D01*
X152824399Y-100403123D01*
X152650727Y-100401679D01*
X152613834Y-100401667D01*
X152211667Y-100401667D01*
X152211667Y-98623667D01*
X153312334Y-98623667D01*
X153312334Y-103111000D01*
X153778000Y-103111000D01*
X153778000Y-98200334D01*
X152865910Y-98200334D01*
X152565938Y-98200534D01*
X152565938Y-98200534D01*
G37*
X152565938Y-98200534D02*
X152338903Y-98201936D01*
X152173072Y-98205739D01*
X152056713Y-98213143D01*
X151978097Y-98225348D01*
X151925492Y-98243553D01*
X151887167Y-98268958D01*
X151851389Y-98302763D01*
X151849910Y-98304243D01*
X151746000Y-98408152D01*
X151746000Y-99466049D01*
X151746187Y-99792246D01*
X151747360Y-100044637D01*
X151750439Y-100234083D01*
X151756346Y-100371445D01*
X151766000Y-100467583D01*
X151780322Y-100533358D01*
X151800232Y-100579631D01*
X151826651Y-100617264D01*
X151845448Y-100639560D01*
X151917727Y-100707749D01*
X152005586Y-100747084D01*
X152138088Y-100768424D01*
X152205281Y-100774008D01*
X152341056Y-100786015D01*
X152435257Y-100798524D01*
X152465667Y-100807643D01*
X152452009Y-100849759D01*
X152413432Y-100961387D01*
X152353528Y-101132317D01*
X152275891Y-101352339D01*
X152184116Y-101611244D01*
X152081797Y-101898824D01*
X152063500Y-101950143D01*
X151959703Y-102241831D01*
X151865844Y-102506812D01*
X151785521Y-102734830D01*
X151722330Y-102915630D01*
X151679870Y-103038958D01*
X151661738Y-103094560D01*
X151661334Y-103096533D01*
X151699598Y-103104619D01*
X151798532Y-103106142D01*
X151899899Y-103102529D01*
X152138464Y-103089834D01*
X152574954Y-101841000D01*
X152683039Y-101528991D01*
X152781528Y-101239369D01*
X152866979Y-100982672D01*
X152935952Y-100769443D01*
X152985006Y-100610221D01*
X153010700Y-100515546D01*
X153013722Y-100496917D01*
X153010719Y-100452768D01*
X152988657Y-100424918D01*
X152931796Y-100409620D01*
X152824399Y-100403123D01*
X152650727Y-100401679D01*
X152613834Y-100401667D01*
X152211667Y-100401667D01*
X152211667Y-98623667D01*
X153312334Y-98623667D01*
X153312334Y-103111000D01*
X153778000Y-103111000D01*
X153778000Y-98200334D01*
X152865910Y-98200334D01*
X152565938Y-98200534D01*
G36*
X155297510Y-98200655D02*
G01*
X155085526Y-98202535D01*
X154932790Y-98207350D01*
X154826595Y-98216476D01*
X154754232Y-98231288D01*
X154702991Y-98253162D01*
X154660164Y-98283474D01*
X154637611Y-98302501D01*
X154518834Y-98404669D01*
X154518834Y-102892512D01*
X154724092Y-103111000D01*
X155565304Y-103111000D01*
X155851995Y-103110746D01*
X156066351Y-103109079D01*
X156220706Y-103104643D01*
X156327390Y-103096083D01*
X156398736Y-103082043D01*
X156447077Y-103061167D01*
X156484744Y-103032100D01*
X156510425Y-103007091D01*
X156614334Y-102903182D01*
X156614334Y-98623667D01*
X156148667Y-98623667D01*
X156148667Y-102730000D01*
X154963334Y-102730000D01*
X154963334Y-98623667D01*
X156148667Y-98623667D01*
X156614334Y-98623667D01*
X156614334Y-98408152D01*
X156510425Y-98304243D01*
X156472608Y-98268560D01*
X156432407Y-98242154D01*
X156377339Y-98223627D01*
X156294923Y-98211584D01*
X156172676Y-98204629D01*
X155998117Y-98201364D01*
X155758762Y-98200394D01*
X155581452Y-98200334D01*
X155297510Y-98200655D01*
X155297510Y-98200655D01*
G37*
X155297510Y-98200655D02*
X155085526Y-98202535D01*
X154932790Y-98207350D01*
X154826595Y-98216476D01*
X154754232Y-98231288D01*
X154702991Y-98253162D01*
X154660164Y-98283474D01*
X154637611Y-98302501D01*
X154518834Y-98404669D01*
X154518834Y-102892512D01*
X154724092Y-103111000D01*
X155565304Y-103111000D01*
X155851995Y-103110746D01*
X156066351Y-103109079D01*
X156220706Y-103104643D01*
X156327390Y-103096083D01*
X156398736Y-103082043D01*
X156447077Y-103061167D01*
X156484744Y-103032100D01*
X156510425Y-103007091D01*
X156614334Y-102903182D01*
X156614334Y-98623667D01*
X156148667Y-98623667D01*
X156148667Y-102730000D01*
X154963334Y-102730000D01*
X154963334Y-98623667D01*
X156148667Y-98623667D01*
X156614334Y-98623667D01*
X156614334Y-98408152D01*
X156510425Y-98304243D01*
X156472608Y-98268560D01*
X156432407Y-98242154D01*
X156377339Y-98223627D01*
X156294923Y-98211584D01*
X156172676Y-98204629D01*
X155998117Y-98201364D01*
X155758762Y-98200394D01*
X155581452Y-98200334D01*
X155297510Y-98200655D01*
G36*
X157122334Y-98623667D02*
G01*
X157842000Y-98623667D01*
X157842000Y-103111000D01*
X158307667Y-103111000D01*
X158307667Y-98626844D01*
X158699250Y-98614672D01*
X159090834Y-98602500D01*
X159103737Y-98401417D01*
X159116639Y-98200334D01*
X157122334Y-98200334D01*
X157122334Y-98623667D01*
X157122334Y-98623667D01*
G37*
X157122334Y-98623667D02*
X157842000Y-98623667D01*
X157842000Y-103111000D01*
X158307667Y-103111000D01*
X158307667Y-98626844D01*
X158699250Y-98614672D01*
X159090834Y-98602500D01*
X159103737Y-98401417D01*
X159116639Y-98200334D01*
X157122334Y-98200334D01*
X157122334Y-98623667D01*
G36*
X160291745Y-98200647D02*
G01*
X160088427Y-98202597D01*
X159943941Y-98207701D01*
X159845371Y-98217475D01*
X159779800Y-98233434D01*
X159734312Y-98257096D01*
X159695988Y-98289976D01*
X159681576Y-98304243D01*
X159642265Y-98346687D01*
X159614371Y-98392272D01*
X159595939Y-98455393D01*
X159585011Y-98550447D01*
X159579629Y-98691830D01*
X159577836Y-98893937D01*
X159577667Y-99068455D01*
X159577667Y-99728758D01*
X159799917Y-99715962D01*
X160022167Y-99703167D01*
X160045863Y-98623667D01*
X161101667Y-98623667D01*
X161101667Y-102730000D01*
X160045658Y-102730000D01*
X160033913Y-102126750D01*
X160022167Y-101523500D01*
X159799917Y-101510705D01*
X159577667Y-101497909D01*
X159577667Y-102212409D01*
X159576858Y-102499833D01*
X159581169Y-102718648D01*
X159600702Y-102878118D01*
X159645562Y-102987507D01*
X159725853Y-103056079D01*
X159851679Y-103093100D01*
X160033146Y-103107833D01*
X160280355Y-103109543D01*
X160554062Y-103107658D01*
X160805189Y-103105465D01*
X161028697Y-103101400D01*
X161210143Y-103095898D01*
X161335089Y-103089390D01*
X161388308Y-103082667D01*
X161444354Y-103032236D01*
X161504157Y-102941038D01*
X161504725Y-102939944D01*
X161518999Y-102901593D01*
X161530995Y-102841829D01*
X161540901Y-102753817D01*
X161548901Y-102630719D01*
X161555182Y-102465696D01*
X161559930Y-102251913D01*
X161563332Y-101982530D01*
X161565572Y-101650712D01*
X161566838Y-101249621D01*
X161567316Y-100772418D01*
X161567334Y-100639850D01*
X161567334Y-98460830D01*
X161457737Y-98330582D01*
X161348141Y-98200334D01*
X160566813Y-98200334D01*
X160291745Y-98200647D01*
X160291745Y-98200647D01*
G37*
X160291745Y-98200647D02*
X160088427Y-98202597D01*
X159943941Y-98207701D01*
X159845371Y-98217475D01*
X159779800Y-98233434D01*
X159734312Y-98257096D01*
X159695988Y-98289976D01*
X159681576Y-98304243D01*
X159642265Y-98346687D01*
X159614371Y-98392272D01*
X159595939Y-98455393D01*
X159585011Y-98550447D01*
X159579629Y-98691830D01*
X159577836Y-98893937D01*
X159577667Y-99068455D01*
X159577667Y-99728758D01*
X159799917Y-99715962D01*
X160022167Y-99703167D01*
X160045863Y-98623667D01*
X161101667Y-98623667D01*
X161101667Y-102730000D01*
X160045658Y-102730000D01*
X160033913Y-102126750D01*
X160022167Y-101523500D01*
X159799917Y-101510705D01*
X159577667Y-101497909D01*
X159577667Y-102212409D01*
X159576858Y-102499833D01*
X159581169Y-102718648D01*
X159600702Y-102878118D01*
X159645562Y-102987507D01*
X159725853Y-103056079D01*
X159851679Y-103093100D01*
X160033146Y-103107833D01*
X160280355Y-103109543D01*
X160554062Y-103107658D01*
X160805189Y-103105465D01*
X161028697Y-103101400D01*
X161210143Y-103095898D01*
X161335089Y-103089390D01*
X161388308Y-103082667D01*
X161444354Y-103032236D01*
X161504157Y-102941038D01*
X161504725Y-102939944D01*
X161518999Y-102901593D01*
X161530995Y-102841829D01*
X161540901Y-102753817D01*
X161548901Y-102630719D01*
X161555182Y-102465696D01*
X161559930Y-102251913D01*
X161563332Y-101982530D01*
X161565572Y-101650712D01*
X161566838Y-101249621D01*
X161567316Y-100772418D01*
X161567334Y-100639850D01*
X161567334Y-98460830D01*
X161457737Y-98330582D01*
X161348141Y-98200334D01*
X160566813Y-98200334D01*
X160291745Y-98200647D01*
G36*
X162244667Y-98623667D02*
G01*
X163387667Y-98623667D01*
X163387667Y-100401667D01*
X162329334Y-100401667D01*
X162329334Y-100825000D01*
X163387667Y-100825000D01*
X163387667Y-102730000D01*
X162202334Y-102730000D01*
X162202334Y-103111000D01*
X163853334Y-103111000D01*
X163853334Y-98200334D01*
X162244667Y-98200334D01*
X162244667Y-98623667D01*
X162244667Y-98623667D01*
G37*
X162244667Y-98623667D02*
X163387667Y-98623667D01*
X163387667Y-100401667D01*
X162329334Y-100401667D01*
X162329334Y-100825000D01*
X163387667Y-100825000D01*
X163387667Y-102730000D01*
X162202334Y-102730000D01*
X162202334Y-103111000D01*
X163853334Y-103111000D01*
X163853334Y-98200334D01*
X162244667Y-98200334D01*
X162244667Y-98623667D01*
G36*
X166201950Y-98204347D02*
G01*
X166128470Y-98222071D01*
X166094173Y-98262029D01*
X166084029Y-98295583D01*
X166073116Y-98356264D01*
X166050776Y-98491684D01*
X166018423Y-98692894D01*
X165977473Y-98950945D01*
X165929341Y-99256890D01*
X165875442Y-99601779D01*
X165817190Y-99976665D01*
X165772671Y-100264527D01*
X165712848Y-100650081D01*
X165656788Y-101007492D01*
X165605818Y-101328576D01*
X165561267Y-101605152D01*
X165524460Y-101829037D01*
X165496726Y-101992048D01*
X165479393Y-102086004D01*
X165473927Y-102106027D01*
X165465659Y-102058848D01*
X165445746Y-101936446D01*
X165415520Y-101747262D01*
X165376315Y-101499737D01*
X165329466Y-101202315D01*
X165276305Y-100863437D01*
X165218166Y-100491544D01*
X165164793Y-100149126D01*
X165103374Y-99756195D01*
X165045577Y-99389604D01*
X164992753Y-99057693D01*
X164946252Y-98768804D01*
X164907426Y-98531278D01*
X164877625Y-98353455D01*
X164858200Y-98243678D01*
X164850779Y-98210001D01*
X164803927Y-98204069D01*
X164700510Y-98204974D01*
X164628147Y-98208542D01*
X164419932Y-98221500D01*
X164835593Y-100634500D01*
X164911914Y-101076549D01*
X164984363Y-101494239D01*
X165051607Y-101880009D01*
X165112312Y-102226296D01*
X165165144Y-102525537D01*
X165208769Y-102770171D01*
X165241852Y-102952636D01*
X165263060Y-103065369D01*
X165270632Y-103100417D01*
X165320349Y-103130961D01*
X165420678Y-103149040D01*
X165538298Y-103153312D01*
X165639888Y-103142440D01*
X165690933Y-103117312D01*
X165702004Y-103070034D01*
X165725907Y-102946857D01*
X165761293Y-102755353D01*
X165806815Y-102503093D01*
X165861122Y-102197650D01*
X165922868Y-101846596D01*
X165990703Y-101457501D01*
X166063278Y-101037939D01*
X166118798Y-100714896D01*
X166194120Y-100276385D01*
X166265666Y-99861652D01*
X166332082Y-99478429D01*
X166392014Y-99134449D01*
X166444107Y-98837442D01*
X166487005Y-98595142D01*
X166519355Y-98415280D01*
X166539801Y-98305590D01*
X166546387Y-98274417D01*
X166548279Y-98231634D01*
X166509552Y-98209259D01*
X166412626Y-98201062D01*
X166337276Y-98200334D01*
X166201950Y-98204347D01*
X166201950Y-98204347D01*
G37*
X166201950Y-98204347D02*
X166128470Y-98222071D01*
X166094173Y-98262029D01*
X166084029Y-98295583D01*
X166073116Y-98356264D01*
X166050776Y-98491684D01*
X166018423Y-98692894D01*
X165977473Y-98950945D01*
X165929341Y-99256890D01*
X165875442Y-99601779D01*
X165817190Y-99976665D01*
X165772671Y-100264527D01*
X165712848Y-100650081D01*
X165656788Y-101007492D01*
X165605818Y-101328576D01*
X165561267Y-101605152D01*
X165524460Y-101829037D01*
X165496726Y-101992048D01*
X165479393Y-102086004D01*
X165473927Y-102106027D01*
X165465659Y-102058848D01*
X165445746Y-101936446D01*
X165415520Y-101747262D01*
X165376315Y-101499737D01*
X165329466Y-101202315D01*
X165276305Y-100863437D01*
X165218166Y-100491544D01*
X165164793Y-100149126D01*
X165103374Y-99756195D01*
X165045577Y-99389604D01*
X164992753Y-99057693D01*
X164946252Y-98768804D01*
X164907426Y-98531278D01*
X164877625Y-98353455D01*
X164858200Y-98243678D01*
X164850779Y-98210001D01*
X164803927Y-98204069D01*
X164700510Y-98204974D01*
X164628147Y-98208542D01*
X164419932Y-98221500D01*
X164835593Y-100634500D01*
X164911914Y-101076549D01*
X164984363Y-101494239D01*
X165051607Y-101880009D01*
X165112312Y-102226296D01*
X165165144Y-102525537D01*
X165208769Y-102770171D01*
X165241852Y-102952636D01*
X165263060Y-103065369D01*
X165270632Y-103100417D01*
X165320349Y-103130961D01*
X165420678Y-103149040D01*
X165538298Y-103153312D01*
X165639888Y-103142440D01*
X165690933Y-103117312D01*
X165702004Y-103070034D01*
X165725907Y-102946857D01*
X165761293Y-102755353D01*
X165806815Y-102503093D01*
X165861122Y-102197650D01*
X165922868Y-101846596D01*
X165990703Y-101457501D01*
X166063278Y-101037939D01*
X166118798Y-100714896D01*
X166194120Y-100276385D01*
X166265666Y-99861652D01*
X166332082Y-99478429D01*
X166392014Y-99134449D01*
X166444107Y-98837442D01*
X166487005Y-98595142D01*
X166519355Y-98415280D01*
X166539801Y-98305590D01*
X166546387Y-98274417D01*
X166548279Y-98231634D01*
X166509552Y-98209259D01*
X166412626Y-98201062D01*
X166337276Y-98200334D01*
X166201950Y-98204347D01*
G36*
X162554547Y-104078386D02*
G01*
X162552439Y-104096194D01*
X162545665Y-104245692D01*
X162552197Y-104387661D01*
X162552781Y-104392528D01*
X162560765Y-104421706D01*
X162566641Y-104376196D01*
X162569369Y-104265969D01*
X162569443Y-104232834D01*
X162567326Y-104112690D01*
X162562015Y-104058430D01*
X162554547Y-104078386D01*
X162554547Y-104078386D01*
G37*
X162554547Y-104078386D02*
X162552439Y-104096194D01*
X162545665Y-104245692D01*
X162552197Y-104387661D01*
X162552781Y-104392528D01*
X162560765Y-104421706D01*
X162566641Y-104376196D01*
X162569369Y-104265969D01*
X162569443Y-104232834D01*
X162567326Y-104112690D01*
X162562015Y-104058430D01*
X162554547Y-104078386D01*
G36*
X161633628Y-104142141D02*
G01*
X161680432Y-104231330D01*
X161749276Y-104345789D01*
X161826324Y-104463888D01*
X161897739Y-104563993D01*
X161949684Y-104624473D01*
X161963786Y-104633086D01*
X161968752Y-104604227D01*
X161932755Y-104531039D01*
X161924877Y-104518584D01*
X161803247Y-104332304D01*
X161719460Y-104207506D01*
X161666201Y-104134055D01*
X161636153Y-104101813D01*
X161622703Y-104099854D01*
X161633628Y-104142141D01*
X161633628Y-104142141D01*
G37*
X161633628Y-104142141D02*
X161680432Y-104231330D01*
X161749276Y-104345789D01*
X161826324Y-104463888D01*
X161897739Y-104563993D01*
X161949684Y-104624473D01*
X161963786Y-104633086D01*
X161968752Y-104604227D01*
X161932755Y-104531039D01*
X161924877Y-104518584D01*
X161803247Y-104332304D01*
X161719460Y-104207506D01*
X161666201Y-104134055D01*
X161636153Y-104101813D01*
X161622703Y-104099854D01*
X161633628Y-104142141D01*
G36*
X163511575Y-104143588D02*
G01*
X163432230Y-104253004D01*
X163381182Y-104329037D01*
X163299974Y-104458664D01*
X163244822Y-104559363D01*
X163225808Y-104612405D01*
X163226985Y-104615429D01*
X163257523Y-104592909D01*
X163318256Y-104514035D01*
X163396474Y-104395439D01*
X163402420Y-104385845D01*
X163495663Y-104228572D01*
X163544279Y-104134011D01*
X163549254Y-104104803D01*
X163511575Y-104143588D01*
X163511575Y-104143588D01*
G37*
X163511575Y-104143588D02*
X163432230Y-104253004D01*
X163381182Y-104329037D01*
X163299974Y-104458664D01*
X163244822Y-104559363D01*
X163225808Y-104612405D01*
X163226985Y-104615429D01*
X163257523Y-104592909D01*
X163318256Y-104514035D01*
X163396474Y-104395439D01*
X163402420Y-104385845D01*
X163495663Y-104228572D01*
X163544279Y-104134011D01*
X163549254Y-104104803D01*
X163511575Y-104143588D01*
G36*
X160929539Y-104593539D02*
G01*
X161003796Y-104663726D01*
X161115818Y-104757388D01*
X161143546Y-104779374D01*
X161263022Y-104869366D01*
X161351737Y-104928793D01*
X161394098Y-104947426D01*
X161395638Y-104944726D01*
X161364337Y-104903002D01*
X161286814Y-104831169D01*
X161183258Y-104745126D01*
X161073857Y-104660771D01*
X160978799Y-104594004D01*
X160918272Y-104560723D01*
X160907921Y-104560635D01*
X160929539Y-104593539D01*
X160929539Y-104593539D01*
G37*
X160929539Y-104593539D02*
X161003796Y-104663726D01*
X161115818Y-104757388D01*
X161143546Y-104779374D01*
X161263022Y-104869366D01*
X161351737Y-104928793D01*
X161394098Y-104947426D01*
X161395638Y-104944726D01*
X161364337Y-104903002D01*
X161286814Y-104831169D01*
X161183258Y-104745126D01*
X161073857Y-104660771D01*
X160978799Y-104594004D01*
X160918272Y-104560723D01*
X160907921Y-104560635D01*
X160929539Y-104593539D01*
G36*
X164229866Y-104574201D02*
G01*
X164202584Y-104588910D01*
X164138449Y-104633665D01*
X164046375Y-104707705D01*
X163944813Y-104794760D01*
X163852214Y-104878558D01*
X163787029Y-104942830D01*
X163767709Y-104971305D01*
X163768667Y-104971547D01*
X163809660Y-104947827D01*
X163898277Y-104883852D01*
X164016431Y-104792758D01*
X164033250Y-104779422D01*
X164173292Y-104664525D01*
X164254581Y-104589954D01*
X164274359Y-104558811D01*
X164229866Y-104574201D01*
X164229866Y-104574201D01*
G37*
X164229866Y-104574201D02*
X164202584Y-104588910D01*
X164138449Y-104633665D01*
X164046375Y-104707705D01*
X163944813Y-104794760D01*
X163852214Y-104878558D01*
X163787029Y-104942830D01*
X163767709Y-104971305D01*
X163768667Y-104971547D01*
X163809660Y-104947827D01*
X163898277Y-104883852D01*
X164016431Y-104792758D01*
X164033250Y-104779422D01*
X164173292Y-104664525D01*
X164254581Y-104589954D01*
X164274359Y-104558811D01*
X164229866Y-104574201D01*
G36*
X160537756Y-105160774D02*
G01*
X160602181Y-105205156D01*
X160705310Y-105266450D01*
X160828491Y-105334460D01*
X160953073Y-105398991D01*
X161060405Y-105449846D01*
X161131836Y-105476831D01*
X161144000Y-105478759D01*
X161138885Y-105461334D01*
X161071358Y-105414162D01*
X160954476Y-105345871D01*
X160890520Y-105311220D01*
X160740787Y-105234346D01*
X160617937Y-105176047D01*
X160542189Y-105145747D01*
X160530686Y-105143498D01*
X160537756Y-105160774D01*
X160537756Y-105160774D01*
G37*
X160537756Y-105160774D02*
X160602181Y-105205156D01*
X160705310Y-105266450D01*
X160828491Y-105334460D01*
X160953073Y-105398991D01*
X161060405Y-105449846D01*
X161131836Y-105476831D01*
X161144000Y-105478759D01*
X161138885Y-105461334D01*
X161071358Y-105414162D01*
X160954476Y-105345871D01*
X160890520Y-105311220D01*
X160740787Y-105234346D01*
X160617937Y-105176047D01*
X160542189Y-105145747D01*
X160530686Y-105143498D01*
X160537756Y-105160774D01*
G36*
X164593604Y-105161070D02*
G01*
X164492560Y-105206318D01*
X164364832Y-105268459D01*
X164232361Y-105336332D01*
X164117084Y-105398773D01*
X164040942Y-105444620D01*
X164022667Y-105461032D01*
X164036946Y-105478818D01*
X164087251Y-105466970D01*
X164184789Y-105420857D01*
X164340763Y-105335848D01*
X164382500Y-105312334D01*
X164514993Y-105235220D01*
X164608340Y-105176609D01*
X164647487Y-105146123D01*
X164646027Y-105143877D01*
X164593604Y-105161070D01*
X164593604Y-105161070D01*
G37*
X164593604Y-105161070D02*
X164492560Y-105206318D01*
X164364832Y-105268459D01*
X164232361Y-105336332D01*
X164117084Y-105398773D01*
X164040942Y-105444620D01*
X164022667Y-105461032D01*
X164036946Y-105478818D01*
X164087251Y-105466970D01*
X164184789Y-105420857D01*
X164340763Y-105335848D01*
X164382500Y-105312334D01*
X164514993Y-105235220D01*
X164608340Y-105176609D01*
X164647487Y-105146123D01*
X164646027Y-105143877D01*
X164593604Y-105161070D01*
G36*
X160579486Y-106040481D02*
G01*
X160539473Y-106043399D01*
X160499892Y-106050173D01*
X160536327Y-106055498D01*
X160640130Y-106058694D01*
X160741834Y-106059307D01*
X160882625Y-106057739D01*
X160958875Y-106053697D01*
X160963091Y-106047857D01*
X160920473Y-106043165D01*
X160751019Y-106036759D01*
X160579486Y-106040481D01*
X160579486Y-106040481D01*
G37*
X160579486Y-106040481D02*
X160539473Y-106043399D01*
X160499892Y-106050173D01*
X160536327Y-106055498D01*
X160640130Y-106058694D01*
X160741834Y-106059307D01*
X160882625Y-106057739D01*
X160958875Y-106053697D01*
X160963091Y-106047857D01*
X160920473Y-106043165D01*
X160751019Y-106036759D01*
X160579486Y-106040481D01*
G36*
X164262486Y-106040481D02*
G01*
X164222473Y-106043399D01*
X164182892Y-106050173D01*
X164219327Y-106055498D01*
X164323130Y-106058694D01*
X164424834Y-106059307D01*
X164565625Y-106057739D01*
X164641875Y-106053697D01*
X164646091Y-106047857D01*
X164603473Y-106043165D01*
X164434019Y-106036759D01*
X164262486Y-106040481D01*
X164262486Y-106040481D01*
G37*
X164262486Y-106040481D02*
X164222473Y-106043399D01*
X164182892Y-106050173D01*
X164219327Y-106055498D01*
X164323130Y-106058694D01*
X164424834Y-106059307D01*
X164565625Y-106057739D01*
X164641875Y-106053697D01*
X164646091Y-106047857D01*
X164603473Y-106043165D01*
X164434019Y-106036759D01*
X164262486Y-106040481D01*
G36*
X156381791Y-104354263D02*
G01*
X156246019Y-104386803D01*
X156155270Y-104439097D01*
X156118997Y-104502369D01*
X156146655Y-104567844D01*
X156247698Y-104626743D01*
X156253144Y-104628746D01*
X156476347Y-104750061D01*
X156659938Y-104940595D01*
X156789576Y-105162346D01*
X156851306Y-105298914D01*
X156894923Y-105407017D01*
X156910634Y-105461435D01*
X156938553Y-105512681D01*
X157012843Y-105601333D01*
X157119365Y-105713946D01*
X157243985Y-105837073D01*
X157372563Y-105957270D01*
X157490964Y-106061092D01*
X157585049Y-106135093D01*
X157640683Y-106165829D01*
X157648759Y-106163436D01*
X157708175Y-106118722D01*
X157766077Y-106151244D01*
X157785785Y-106190750D01*
X157823987Y-106251990D01*
X157900133Y-106346772D01*
X157996123Y-106455378D01*
X158093854Y-106558089D01*
X158175223Y-106635186D01*
X158222127Y-106666951D01*
X158223000Y-106667000D01*
X158262794Y-106639084D01*
X158343598Y-106565934D01*
X158446842Y-106464463D01*
X158548054Y-106355794D01*
X158619846Y-106267428D01*
X158646334Y-106219455D01*
X158616632Y-106166957D01*
X158540586Y-106080047D01*
X158437783Y-105977432D01*
X158327811Y-105877816D01*
X158230259Y-105799904D01*
X158169125Y-105763750D01*
X158119308Y-105733210D01*
X158130853Y-105678549D01*
X158147958Y-105648670D01*
X158163645Y-105612127D01*
X158160054Y-105571291D01*
X158129599Y-105516471D01*
X158064695Y-105437976D01*
X157957759Y-105326114D01*
X157801205Y-105171193D01*
X157688218Y-105061223D01*
X157435532Y-104823255D01*
X157224583Y-104643148D01*
X157043336Y-104513364D01*
X156879756Y-104426365D01*
X156721807Y-104374613D01*
X156557456Y-104350570D01*
X156553131Y-104350256D01*
X156381791Y-104354263D01*
X156381791Y-104354263D01*
G37*
X156381791Y-104354263D02*
X156246019Y-104386803D01*
X156155270Y-104439097D01*
X156118997Y-104502369D01*
X156146655Y-104567844D01*
X156247698Y-104626743D01*
X156253144Y-104628746D01*
X156476347Y-104750061D01*
X156659938Y-104940595D01*
X156789576Y-105162346D01*
X156851306Y-105298914D01*
X156894923Y-105407017D01*
X156910634Y-105461435D01*
X156938553Y-105512681D01*
X157012843Y-105601333D01*
X157119365Y-105713946D01*
X157243985Y-105837073D01*
X157372563Y-105957270D01*
X157490964Y-106061092D01*
X157585049Y-106135093D01*
X157640683Y-106165829D01*
X157648759Y-106163436D01*
X157708175Y-106118722D01*
X157766077Y-106151244D01*
X157785785Y-106190750D01*
X157823987Y-106251990D01*
X157900133Y-106346772D01*
X157996123Y-106455378D01*
X158093854Y-106558089D01*
X158175223Y-106635186D01*
X158222127Y-106666951D01*
X158223000Y-106667000D01*
X158262794Y-106639084D01*
X158343598Y-106565934D01*
X158446842Y-106464463D01*
X158548054Y-106355794D01*
X158619846Y-106267428D01*
X158646334Y-106219455D01*
X158616632Y-106166957D01*
X158540586Y-106080047D01*
X158437783Y-105977432D01*
X158327811Y-105877816D01*
X158230259Y-105799904D01*
X158169125Y-105763750D01*
X158119308Y-105733210D01*
X158130853Y-105678549D01*
X158147958Y-105648670D01*
X158163645Y-105612127D01*
X158160054Y-105571291D01*
X158129599Y-105516471D01*
X158064695Y-105437976D01*
X157957759Y-105326114D01*
X157801205Y-105171193D01*
X157688218Y-105061223D01*
X157435532Y-104823255D01*
X157224583Y-104643148D01*
X157043336Y-104513364D01*
X156879756Y-104426365D01*
X156721807Y-104374613D01*
X156557456Y-104350570D01*
X156553131Y-104350256D01*
X156381791Y-104354263D01*
G36*
X154485271Y-104512440D02*
G01*
X154455334Y-104534619D01*
X154481428Y-104578543D01*
X154548289Y-104662201D01*
X154603500Y-104725241D01*
X154688809Y-104828651D01*
X154733194Y-104919457D01*
X154749703Y-105034191D01*
X154751667Y-105140076D01*
X154751667Y-105390908D01*
X154515462Y-105420420D01*
X154377754Y-105434297D01*
X154289082Y-105425189D01*
X154214678Y-105382141D01*
X154122094Y-105296466D01*
X154000664Y-105188986D01*
X153921842Y-105150192D01*
X153878375Y-105180339D01*
X153863009Y-105279687D01*
X153862667Y-105305675D01*
X153902098Y-105532237D01*
X154011301Y-105731197D01*
X154176642Y-105889509D01*
X154384487Y-105994126D01*
X154621201Y-106032000D01*
X154621677Y-106032000D01*
X154707151Y-106034770D01*
X154777455Y-106049835D01*
X154848175Y-106087333D01*
X154934897Y-106157398D01*
X155053208Y-106270166D01*
X155175000Y-106391834D01*
X155315545Y-106531269D01*
X155434213Y-106645540D01*
X155518575Y-106722915D01*
X155556203Y-106751665D01*
X155556289Y-106751667D01*
X155594516Y-106723595D01*
X155676915Y-106648543D01*
X155788655Y-106540254D01*
X155842846Y-106486074D01*
X156106078Y-106220480D01*
X155733836Y-105849963D01*
X155577740Y-105692677D01*
X155473336Y-105580155D01*
X155411125Y-105498643D01*
X155381608Y-105434391D01*
X155375287Y-105373645D01*
X155378410Y-105335408D01*
X155365029Y-105104929D01*
X155278267Y-104889534D01*
X155129303Y-104708517D01*
X154945495Y-104588278D01*
X154828868Y-104547920D01*
X154696705Y-104520012D01*
X154573881Y-104507278D01*
X154485271Y-104512440D01*
X154485271Y-104512440D01*
G37*
X154485271Y-104512440D02*
X154455334Y-104534619D01*
X154481428Y-104578543D01*
X154548289Y-104662201D01*
X154603500Y-104725241D01*
X154688809Y-104828651D01*
X154733194Y-104919457D01*
X154749703Y-105034191D01*
X154751667Y-105140076D01*
X154751667Y-105390908D01*
X154515462Y-105420420D01*
X154377754Y-105434297D01*
X154289082Y-105425189D01*
X154214678Y-105382141D01*
X154122094Y-105296466D01*
X154000664Y-105188986D01*
X153921842Y-105150192D01*
X153878375Y-105180339D01*
X153863009Y-105279687D01*
X153862667Y-105305675D01*
X153902098Y-105532237D01*
X154011301Y-105731197D01*
X154176642Y-105889509D01*
X154384487Y-105994126D01*
X154621201Y-106032000D01*
X154621677Y-106032000D01*
X154707151Y-106034770D01*
X154777455Y-106049835D01*
X154848175Y-106087333D01*
X154934897Y-106157398D01*
X155053208Y-106270166D01*
X155175000Y-106391834D01*
X155315545Y-106531269D01*
X155434213Y-106645540D01*
X155518575Y-106722915D01*
X155556203Y-106751665D01*
X155556289Y-106751667D01*
X155594516Y-106723595D01*
X155676915Y-106648543D01*
X155788655Y-106540254D01*
X155842846Y-106486074D01*
X156106078Y-106220480D01*
X155733836Y-105849963D01*
X155577740Y-105692677D01*
X155473336Y-105580155D01*
X155411125Y-105498643D01*
X155381608Y-105434391D01*
X155375287Y-105373645D01*
X155378410Y-105335408D01*
X155365029Y-105104929D01*
X155278267Y-104889534D01*
X155129303Y-104708517D01*
X154945495Y-104588278D01*
X154828868Y-104547920D01*
X154696705Y-104520012D01*
X154573881Y-104507278D01*
X154485271Y-104512440D01*
G36*
X161152466Y-106618694D02*
G01*
X161064291Y-106653188D01*
X160941954Y-106708732D01*
X160805599Y-106775692D01*
X160675369Y-106844435D01*
X160571408Y-106905328D01*
X160551334Y-106918571D01*
X160505252Y-106956644D01*
X160525742Y-106960162D01*
X160603608Y-106932355D01*
X160729653Y-106876450D01*
X160879417Y-106803401D01*
X161021618Y-106727782D01*
X161128846Y-106663428D01*
X161183086Y-106621403D01*
X161186334Y-106614885D01*
X161152466Y-106618694D01*
X161152466Y-106618694D01*
G37*
X161152466Y-106618694D02*
X161064291Y-106653188D01*
X160941954Y-106708732D01*
X160805599Y-106775692D01*
X160675369Y-106844435D01*
X160571408Y-106905328D01*
X160551334Y-106918571D01*
X160505252Y-106956644D01*
X160525742Y-106960162D01*
X160603608Y-106932355D01*
X160729653Y-106876450D01*
X160879417Y-106803401D01*
X161021618Y-106727782D01*
X161128846Y-106663428D01*
X161183086Y-106621403D01*
X161186334Y-106614885D01*
X161152466Y-106618694D01*
G36*
X164064001Y-106662763D02*
G01*
X164144892Y-106714044D01*
X164260123Y-106779771D01*
X164388780Y-106848682D01*
X164509949Y-106909512D01*
X164602718Y-106950997D01*
X164642691Y-106962685D01*
X164645194Y-106943657D01*
X164615334Y-106918606D01*
X164523817Y-106862872D01*
X164400898Y-106796480D01*
X164268734Y-106730238D01*
X164149482Y-106674950D01*
X164065298Y-106641426D01*
X164038362Y-106637194D01*
X164064001Y-106662763D01*
X164064001Y-106662763D01*
G37*
X164064001Y-106662763D02*
X164144892Y-106714044D01*
X164260123Y-106779771D01*
X164388780Y-106848682D01*
X164509949Y-106909512D01*
X164602718Y-106950997D01*
X164642691Y-106962685D01*
X164645194Y-106943657D01*
X164615334Y-106918606D01*
X164523817Y-106862872D01*
X164400898Y-106796480D01*
X164268734Y-106730238D01*
X164149482Y-106674950D01*
X164065298Y-106641426D01*
X164038362Y-106637194D01*
X164064001Y-106662763D01*
G36*
X149376241Y-105559568D02*
G01*
X149340721Y-105587500D01*
X149297364Y-105622423D01*
X149253555Y-105648679D01*
X149197237Y-105667513D01*
X149116357Y-105680172D01*
X148998860Y-105687902D01*
X148832691Y-105691950D01*
X148605796Y-105693562D01*
X148310889Y-105693982D01*
X148040407Y-105695718D01*
X147797134Y-105700203D01*
X147594330Y-105706956D01*
X147445250Y-105715493D01*
X147363153Y-105725333D01*
X147352956Y-105728824D01*
X147333303Y-105762117D01*
X147319535Y-105839244D01*
X147311184Y-105969398D01*
X147307787Y-106161769D01*
X147308876Y-106425549D01*
X147310622Y-106564260D01*
X147322167Y-107365500D01*
X147594539Y-107378306D01*
X147756494Y-107391659D01*
X147861310Y-107418712D01*
X147936364Y-107468116D01*
X147962934Y-107494722D01*
X148095131Y-107582071D01*
X148245896Y-107596943D01*
X148390195Y-107539435D01*
X148443677Y-107492845D01*
X148521283Y-107366120D01*
X148541118Y-107267884D01*
X148359718Y-107267884D01*
X148352031Y-107362521D01*
X148331112Y-107400778D01*
X148250362Y-107430419D01*
X148149326Y-107412774D01*
X148070930Y-107356880D01*
X148063000Y-107344334D01*
X148037203Y-107230526D01*
X148078491Y-107143364D01*
X148169842Y-107099790D01*
X148292371Y-107116029D01*
X148337920Y-107171670D01*
X148359718Y-107267884D01*
X148541118Y-107267884D01*
X148542778Y-107259667D01*
X148507470Y-107108447D01*
X148415578Y-106997355D01*
X148288152Y-106935008D01*
X148146242Y-106930023D01*
X148010896Y-106991015D01*
X147972194Y-107026102D01*
X147850293Y-107110306D01*
X147713750Y-107131935D01*
X147555000Y-107132667D01*
X147555000Y-105989667D01*
X148401667Y-105989667D01*
X148691364Y-105990178D01*
X148908457Y-105992441D01*
X149065007Y-105997554D01*
X149173072Y-106006612D01*
X149244714Y-106020712D01*
X149291993Y-106040950D01*
X149326968Y-106068423D01*
X149333000Y-106074334D01*
X149463007Y-106151094D01*
X149611724Y-106161004D01*
X149752208Y-106108514D01*
X149857514Y-105998077D01*
X149863733Y-105986639D01*
X149916813Y-105850680D01*
X149913958Y-105820244D01*
X149732212Y-105820244D01*
X149705125Y-105910925D01*
X149633840Y-105975288D01*
X149565834Y-105989667D01*
X149471225Y-105963115D01*
X149425306Y-105920154D01*
X149399628Y-105807196D01*
X149440662Y-105715103D01*
X149530457Y-105665508D01*
X149630727Y-105672609D01*
X149709334Y-105731414D01*
X149732212Y-105820244D01*
X149913958Y-105820244D01*
X149906717Y-105743066D01*
X149828407Y-105632734D01*
X149801924Y-105605410D01*
X149662358Y-105506135D01*
X149522456Y-105490931D01*
X149376241Y-105559568D01*
X149376241Y-105559568D01*
G37*
X149376241Y-105559568D02*
X149340721Y-105587500D01*
X149297364Y-105622423D01*
X149253555Y-105648679D01*
X149197237Y-105667513D01*
X149116357Y-105680172D01*
X148998860Y-105687902D01*
X148832691Y-105691950D01*
X148605796Y-105693562D01*
X148310889Y-105693982D01*
X148040407Y-105695718D01*
X147797134Y-105700203D01*
X147594330Y-105706956D01*
X147445250Y-105715493D01*
X147363153Y-105725333D01*
X147352956Y-105728824D01*
X147333303Y-105762117D01*
X147319535Y-105839244D01*
X147311184Y-105969398D01*
X147307787Y-106161769D01*
X147308876Y-106425549D01*
X147310622Y-106564260D01*
X147322167Y-107365500D01*
X147594539Y-107378306D01*
X147756494Y-107391659D01*
X147861310Y-107418712D01*
X147936364Y-107468116D01*
X147962934Y-107494722D01*
X148095131Y-107582071D01*
X148245896Y-107596943D01*
X148390195Y-107539435D01*
X148443677Y-107492845D01*
X148521283Y-107366120D01*
X148541118Y-107267884D01*
X148359718Y-107267884D01*
X148352031Y-107362521D01*
X148331112Y-107400778D01*
X148250362Y-107430419D01*
X148149326Y-107412774D01*
X148070930Y-107356880D01*
X148063000Y-107344334D01*
X148037203Y-107230526D01*
X148078491Y-107143364D01*
X148169842Y-107099790D01*
X148292371Y-107116029D01*
X148337920Y-107171670D01*
X148359718Y-107267884D01*
X148541118Y-107267884D01*
X148542778Y-107259667D01*
X148507470Y-107108447D01*
X148415578Y-106997355D01*
X148288152Y-106935008D01*
X148146242Y-106930023D01*
X148010896Y-106991015D01*
X147972194Y-107026102D01*
X147850293Y-107110306D01*
X147713750Y-107131935D01*
X147555000Y-107132667D01*
X147555000Y-105989667D01*
X148401667Y-105989667D01*
X148691364Y-105990178D01*
X148908457Y-105992441D01*
X149065007Y-105997554D01*
X149173072Y-106006612D01*
X149244714Y-106020712D01*
X149291993Y-106040950D01*
X149326968Y-106068423D01*
X149333000Y-106074334D01*
X149463007Y-106151094D01*
X149611724Y-106161004D01*
X149752208Y-106108514D01*
X149857514Y-105998077D01*
X149863733Y-105986639D01*
X149916813Y-105850680D01*
X149913958Y-105820244D01*
X149732212Y-105820244D01*
X149705125Y-105910925D01*
X149633840Y-105975288D01*
X149565834Y-105989667D01*
X149471225Y-105963115D01*
X149425306Y-105920154D01*
X149399628Y-105807196D01*
X149440662Y-105715103D01*
X149530457Y-105665508D01*
X149630727Y-105672609D01*
X149709334Y-105731414D01*
X149732212Y-105820244D01*
X149913958Y-105820244D01*
X149906717Y-105743066D01*
X149828407Y-105632734D01*
X149801924Y-105605410D01*
X149662358Y-105506135D01*
X149522456Y-105490931D01*
X149376241Y-105559568D01*
G36*
X148965020Y-104253435D02*
G01*
X148864559Y-104339041D01*
X148801805Y-104456960D01*
X148790221Y-104594493D01*
X148843271Y-104738940D01*
X148870406Y-104777458D01*
X148990118Y-104868350D01*
X149137017Y-104893499D01*
X149284576Y-104852606D01*
X149375334Y-104783167D01*
X149417540Y-104741663D01*
X149463025Y-104712729D01*
X149526898Y-104694100D01*
X149624269Y-104683509D01*
X149770250Y-104678692D01*
X149979950Y-104677383D01*
X150081213Y-104677334D01*
X150687667Y-104677334D01*
X150687667Y-105870522D01*
X150687357Y-106220970D01*
X150686007Y-106496640D01*
X150682988Y-106707420D01*
X150677670Y-106863197D01*
X150669423Y-106973858D01*
X150657619Y-107049293D01*
X150641627Y-107099387D01*
X150620819Y-107134029D01*
X150606139Y-107151105D01*
X150519247Y-107292196D01*
X150501323Y-107436817D01*
X150541747Y-107568704D01*
X150629899Y-107671594D01*
X150755159Y-107729222D01*
X150906908Y-107725324D01*
X150967794Y-107704968D01*
X151089971Y-107613493D01*
X151151544Y-107480377D01*
X151150034Y-107403068D01*
X151007790Y-107403068D01*
X150989312Y-107461294D01*
X150941667Y-107513667D01*
X150870052Y-107573443D01*
X150811675Y-107573948D01*
X150758647Y-107543462D01*
X150683503Y-107473741D01*
X150653803Y-107418497D01*
X150673724Y-107335369D01*
X150742071Y-107259865D01*
X150826343Y-107224488D01*
X150846498Y-107225802D01*
X150917362Y-107268608D01*
X150971462Y-107330647D01*
X151007790Y-107403068D01*
X151150034Y-107403068D01*
X151148546Y-107326913D01*
X151077013Y-107174392D01*
X151068667Y-107163449D01*
X151044488Y-107128819D01*
X151025402Y-107086903D01*
X151010808Y-107027976D01*
X151000106Y-106942311D01*
X150992698Y-106820181D01*
X150987983Y-106651861D01*
X150985362Y-106427623D01*
X150984234Y-106137742D01*
X150984000Y-105790373D01*
X150982967Y-105396317D01*
X150979710Y-105080875D01*
X150973999Y-104838014D01*
X150965599Y-104661706D01*
X150954278Y-104545920D01*
X150952638Y-104538973D01*
X149279737Y-104538973D01*
X149272751Y-104615953D01*
X149234420Y-104696275D01*
X149158213Y-104713939D01*
X149134710Y-104711753D01*
X149033070Y-104674876D01*
X148977654Y-104624417D01*
X148956961Y-104531147D01*
X148997343Y-104450691D01*
X149075264Y-104399044D01*
X149167193Y-104392200D01*
X149246182Y-104441908D01*
X149279737Y-104538973D01*
X150952638Y-104538973D01*
X150939804Y-104484625D01*
X150933200Y-104474133D01*
X150876996Y-104452781D01*
X150753863Y-104437480D01*
X150558541Y-104427878D01*
X150285765Y-104423624D01*
X150173125Y-104423334D01*
X149912712Y-104422952D01*
X149723204Y-104420616D01*
X149590840Y-104414538D01*
X149501858Y-104402932D01*
X149442498Y-104384012D01*
X149398997Y-104355989D01*
X149358016Y-104317500D01*
X149225212Y-104229965D01*
X149089726Y-104212844D01*
X148965020Y-104253435D01*
X148965020Y-104253435D01*
G37*
X148965020Y-104253435D02*
X148864559Y-104339041D01*
X148801805Y-104456960D01*
X148790221Y-104594493D01*
X148843271Y-104738940D01*
X148870406Y-104777458D01*
X148990118Y-104868350D01*
X149137017Y-104893499D01*
X149284576Y-104852606D01*
X149375334Y-104783167D01*
X149417540Y-104741663D01*
X149463025Y-104712729D01*
X149526898Y-104694100D01*
X149624269Y-104683509D01*
X149770250Y-104678692D01*
X149979950Y-104677383D01*
X150081213Y-104677334D01*
X150687667Y-104677334D01*
X150687667Y-105870522D01*
X150687357Y-106220970D01*
X150686007Y-106496640D01*
X150682988Y-106707420D01*
X150677670Y-106863197D01*
X150669423Y-106973858D01*
X150657619Y-107049293D01*
X150641627Y-107099387D01*
X150620819Y-107134029D01*
X150606139Y-107151105D01*
X150519247Y-107292196D01*
X150501323Y-107436817D01*
X150541747Y-107568704D01*
X150629899Y-107671594D01*
X150755159Y-107729222D01*
X150906908Y-107725324D01*
X150967794Y-107704968D01*
X151089971Y-107613493D01*
X151151544Y-107480377D01*
X151150034Y-107403068D01*
X151007790Y-107403068D01*
X150989312Y-107461294D01*
X150941667Y-107513667D01*
X150870052Y-107573443D01*
X150811675Y-107573948D01*
X150758647Y-107543462D01*
X150683503Y-107473741D01*
X150653803Y-107418497D01*
X150673724Y-107335369D01*
X150742071Y-107259865D01*
X150826343Y-107224488D01*
X150846498Y-107225802D01*
X150917362Y-107268608D01*
X150971462Y-107330647D01*
X151007790Y-107403068D01*
X151150034Y-107403068D01*
X151148546Y-107326913D01*
X151077013Y-107174392D01*
X151068667Y-107163449D01*
X151044488Y-107128819D01*
X151025402Y-107086903D01*
X151010808Y-107027976D01*
X151000106Y-106942311D01*
X150992698Y-106820181D01*
X150987983Y-106651861D01*
X150985362Y-106427623D01*
X150984234Y-106137742D01*
X150984000Y-105790373D01*
X150982967Y-105396317D01*
X150979710Y-105080875D01*
X150973999Y-104838014D01*
X150965599Y-104661706D01*
X150954278Y-104545920D01*
X150952638Y-104538973D01*
X149279737Y-104538973D01*
X149272751Y-104615953D01*
X149234420Y-104696275D01*
X149158213Y-104713939D01*
X149134710Y-104711753D01*
X149033070Y-104674876D01*
X148977654Y-104624417D01*
X148956961Y-104531147D01*
X148997343Y-104450691D01*
X149075264Y-104399044D01*
X149167193Y-104392200D01*
X149246182Y-104441908D01*
X149279737Y-104538973D01*
X150952638Y-104538973D01*
X150939804Y-104484625D01*
X150933200Y-104474133D01*
X150876996Y-104452781D01*
X150753863Y-104437480D01*
X150558541Y-104427878D01*
X150285765Y-104423624D01*
X150173125Y-104423334D01*
X149912712Y-104422952D01*
X149723204Y-104420616D01*
X149590840Y-104414538D01*
X149501858Y-104402932D01*
X149442498Y-104384012D01*
X149398997Y-104355989D01*
X149358016Y-104317500D01*
X149225212Y-104229965D01*
X149089726Y-104212844D01*
X148965020Y-104253435D01*
G36*
X147810318Y-106113409D02*
G01*
X147785910Y-106135909D01*
X147703696Y-106268453D01*
X147690283Y-106412959D01*
X147737003Y-106548254D01*
X147835187Y-106653164D01*
X147976167Y-106706515D01*
X148020667Y-106709334D01*
X148169787Y-106669335D01*
X148257349Y-106603500D01*
X148333778Y-106541343D01*
X148423021Y-106509265D01*
X148555631Y-106498230D01*
X148615258Y-106497667D01*
X148867334Y-106497667D01*
X148867334Y-106842062D01*
X148864931Y-107017090D01*
X148854105Y-107130192D01*
X148829430Y-107204056D01*
X148785478Y-107261368D01*
X148761500Y-107284541D01*
X148674004Y-107415995D01*
X148656302Y-107566002D01*
X148708834Y-107707907D01*
X148753646Y-107760288D01*
X148889991Y-107837562D01*
X149045092Y-107850106D01*
X149188555Y-107798290D01*
X149240955Y-107754355D01*
X149319977Y-107615673D01*
X149326874Y-107462789D01*
X149262340Y-107322201D01*
X149228672Y-107285935D01*
X149182334Y-107237025D01*
X149151471Y-107180742D01*
X149132294Y-107098900D01*
X149121017Y-106973316D01*
X149113850Y-106785804D01*
X149112255Y-106727040D01*
X149100167Y-106264834D01*
X148744283Y-106252431D01*
X148559426Y-106242670D01*
X148435271Y-106225068D01*
X148347877Y-106193813D01*
X148273304Y-106143092D01*
X148264785Y-106136014D01*
X148109239Y-106048837D01*
X147953319Y-106041301D01*
X147810318Y-106113409D01*
X147810318Y-106113409D01*
G37*
X147810318Y-106113409D02*
X147785910Y-106135909D01*
X147703696Y-106268453D01*
X147690283Y-106412959D01*
X147737003Y-106548254D01*
X147835187Y-106653164D01*
X147976167Y-106706515D01*
X148020667Y-106709334D01*
X148169787Y-106669335D01*
X148257349Y-106603500D01*
X148333778Y-106541343D01*
X148423021Y-106509265D01*
X148555631Y-106498230D01*
X148615258Y-106497667D01*
X148867334Y-106497667D01*
X148867334Y-106842062D01*
X148864931Y-107017090D01*
X148854105Y-107130192D01*
X148829430Y-107204056D01*
X148785478Y-107261368D01*
X148761500Y-107284541D01*
X148674004Y-107415995D01*
X148656302Y-107566002D01*
X148708834Y-107707907D01*
X148753646Y-107760288D01*
X148889991Y-107837562D01*
X149045092Y-107850106D01*
X149188555Y-107798290D01*
X149240955Y-107754355D01*
X149319977Y-107615673D01*
X149326874Y-107462789D01*
X149262340Y-107322201D01*
X149228672Y-107285935D01*
X149182334Y-107237025D01*
X149151471Y-107180742D01*
X149132294Y-107098900D01*
X149121017Y-106973316D01*
X149113850Y-106785804D01*
X149112255Y-106727040D01*
X149100167Y-106264834D01*
X148744283Y-106252431D01*
X148559426Y-106242670D01*
X148435271Y-106225068D01*
X148347877Y-106193813D01*
X148273304Y-106143092D01*
X148264785Y-106136014D01*
X148109239Y-106048837D01*
X147953319Y-106041301D01*
X147810318Y-106113409D01*
G36*
X162369183Y-106489378D02*
G01*
X162248993Y-106494143D01*
X162185121Y-106502574D01*
X162181127Y-106504762D01*
X162186559Y-106551338D01*
X162221887Y-106653628D01*
X162279881Y-106791255D01*
X162292838Y-106819658D01*
X162347685Y-106943620D01*
X162386049Y-107050830D01*
X162411590Y-107162073D01*
X162427970Y-107298133D01*
X162438850Y-107479796D01*
X162446772Y-107693584D01*
X162465942Y-108275667D01*
X162702215Y-108275667D01*
X162719882Y-107693584D01*
X162728196Y-107455849D01*
X162738782Y-107282180D01*
X162755291Y-107151989D01*
X162781374Y-107044685D01*
X162820682Y-106939680D01*
X162874599Y-106821186D01*
X162937739Y-106680495D01*
X162980272Y-106572032D01*
X162994514Y-106515755D01*
X162993386Y-106512607D01*
X162943686Y-106502443D01*
X162832943Y-106494812D01*
X162684630Y-106489939D01*
X162522220Y-106488052D01*
X162369183Y-106489378D01*
X162369183Y-106489378D01*
G37*
X162369183Y-106489378D02*
X162248993Y-106494143D01*
X162185121Y-106502574D01*
X162181127Y-106504762D01*
X162186559Y-106551338D01*
X162221887Y-106653628D01*
X162279881Y-106791255D01*
X162292838Y-106819658D01*
X162347685Y-106943620D01*
X162386049Y-107050830D01*
X162411590Y-107162073D01*
X162427970Y-107298133D01*
X162438850Y-107479796D01*
X162446772Y-107693584D01*
X162465942Y-108275667D01*
X162702215Y-108275667D01*
X162719882Y-107693584D01*
X162728196Y-107455849D01*
X162738782Y-107282180D01*
X162755291Y-107151989D01*
X162781374Y-107044685D01*
X162820682Y-106939680D01*
X162874599Y-106821186D01*
X162937739Y-106680495D01*
X162980272Y-106572032D01*
X162994514Y-106515755D01*
X162993386Y-106512607D01*
X162943686Y-106502443D01*
X162832943Y-106494812D01*
X162684630Y-106489939D01*
X162522220Y-106488052D01*
X162369183Y-106489378D01*
G36*
X162583334Y-104741460D02*
G01*
X162382617Y-104744672D01*
X162239585Y-104756869D01*
X162127351Y-104783013D01*
X162019029Y-104828062D01*
X161964946Y-104855535D01*
X161748513Y-105000946D01*
X161550797Y-105191835D01*
X161392368Y-105404800D01*
X161293795Y-105616440D01*
X161292586Y-105620463D01*
X161241241Y-105860127D01*
X161234314Y-106099663D01*
X161274546Y-106353702D01*
X161364679Y-106636874D01*
X161507452Y-106963812D01*
X161566838Y-107084299D01*
X161657333Y-107286300D01*
X161739992Y-107509665D01*
X161798507Y-107709808D01*
X161803212Y-107730518D01*
X161853404Y-107947540D01*
X161898767Y-108095116D01*
X161948977Y-108187218D01*
X162013712Y-108237814D01*
X162102647Y-108260874D01*
X162175195Y-108267535D01*
X162378152Y-108280571D01*
X162364326Y-107696035D01*
X162350500Y-107111500D01*
X162144108Y-106695592D01*
X162043692Y-106482744D01*
X161987398Y-106337013D01*
X161973735Y-106254185D01*
X161981437Y-106235964D01*
X162029386Y-106228369D01*
X162077146Y-106292039D01*
X162128305Y-106383489D01*
X162162978Y-106407464D01*
X162202843Y-106372064D01*
X162222592Y-106346410D01*
X162268531Y-106292480D01*
X162283957Y-106306356D01*
X162285654Y-106338917D01*
X162309553Y-106401740D01*
X162335250Y-106413000D01*
X162396948Y-106382268D01*
X162438060Y-106338917D01*
X162482441Y-106287845D01*
X162508001Y-106306777D01*
X162521340Y-106338917D01*
X162570343Y-106398862D01*
X162629851Y-106408971D01*
X162666373Y-106366825D01*
X162668000Y-106349500D01*
X162690859Y-106293164D01*
X162710334Y-106286000D01*
X162747891Y-106320288D01*
X162752667Y-106349500D01*
X162786554Y-106405624D01*
X162816167Y-106413000D01*
X162872291Y-106379114D01*
X162879667Y-106349500D01*
X162902526Y-106293164D01*
X162922000Y-106286000D01*
X162959558Y-106320288D01*
X162964334Y-106349500D01*
X162982539Y-106407636D01*
X163022844Y-106401465D01*
X163063782Y-106339277D01*
X163073950Y-106307167D01*
X163113708Y-106232214D01*
X163167885Y-106201595D01*
X163209945Y-106223329D01*
X163218334Y-106263530D01*
X163199963Y-106338555D01*
X163154130Y-106449679D01*
X163136406Y-106485780D01*
X163016926Y-106725152D01*
X162932349Y-106916303D01*
X162875833Y-107084671D01*
X162840539Y-107255698D01*
X162819625Y-107454823D01*
X162806253Y-107707485D01*
X162805954Y-107714750D01*
X162782994Y-108275667D01*
X162974314Y-108275667D01*
X163117274Y-108261266D01*
X163208347Y-108222581D01*
X163216654Y-108214191D01*
X163249789Y-108144062D01*
X163289350Y-108016842D01*
X163327253Y-107858859D01*
X163330359Y-107843775D01*
X163376199Y-107673014D01*
X163450751Y-107455865D01*
X163543574Y-107221011D01*
X163620068Y-107048000D01*
X163750050Y-106758489D01*
X163841765Y-106524774D01*
X163899912Y-106329700D01*
X163929192Y-106156109D01*
X163934305Y-105986845D01*
X163930511Y-105914778D01*
X163868007Y-105615219D01*
X163731562Y-105334628D01*
X163531822Y-105088267D01*
X163279434Y-104891396D01*
X163177700Y-104835559D01*
X163065218Y-104788028D01*
X162946925Y-104759245D01*
X162796809Y-104745093D01*
X162588857Y-104741453D01*
X162583334Y-104741460D01*
X162583334Y-104741460D01*
G37*
X162583334Y-104741460D02*
X162382617Y-104744672D01*
X162239585Y-104756869D01*
X162127351Y-104783013D01*
X162019029Y-104828062D01*
X161964946Y-104855535D01*
X161748513Y-105000946D01*
X161550797Y-105191835D01*
X161392368Y-105404800D01*
X161293795Y-105616440D01*
X161292586Y-105620463D01*
X161241241Y-105860127D01*
X161234314Y-106099663D01*
X161274546Y-106353702D01*
X161364679Y-106636874D01*
X161507452Y-106963812D01*
X161566838Y-107084299D01*
X161657333Y-107286300D01*
X161739992Y-107509665D01*
X161798507Y-107709808D01*
X161803212Y-107730518D01*
X161853404Y-107947540D01*
X161898767Y-108095116D01*
X161948977Y-108187218D01*
X162013712Y-108237814D01*
X162102647Y-108260874D01*
X162175195Y-108267535D01*
X162378152Y-108280571D01*
X162364326Y-107696035D01*
X162350500Y-107111500D01*
X162144108Y-106695592D01*
X162043692Y-106482744D01*
X161987398Y-106337013D01*
X161973735Y-106254185D01*
X161981437Y-106235964D01*
X162029386Y-106228369D01*
X162077146Y-106292039D01*
X162128305Y-106383489D01*
X162162978Y-106407464D01*
X162202843Y-106372064D01*
X162222592Y-106346410D01*
X162268531Y-106292480D01*
X162283957Y-106306356D01*
X162285654Y-106338917D01*
X162309553Y-106401740D01*
X162335250Y-106413000D01*
X162396948Y-106382268D01*
X162438060Y-106338917D01*
X162482441Y-106287845D01*
X162508001Y-106306777D01*
X162521340Y-106338917D01*
X162570343Y-106398862D01*
X162629851Y-106408971D01*
X162666373Y-106366825D01*
X162668000Y-106349500D01*
X162690859Y-106293164D01*
X162710334Y-106286000D01*
X162747891Y-106320288D01*
X162752667Y-106349500D01*
X162786554Y-106405624D01*
X162816167Y-106413000D01*
X162872291Y-106379114D01*
X162879667Y-106349500D01*
X162902526Y-106293164D01*
X162922000Y-106286000D01*
X162959558Y-106320288D01*
X162964334Y-106349500D01*
X162982539Y-106407636D01*
X163022844Y-106401465D01*
X163063782Y-106339277D01*
X163073950Y-106307167D01*
X163113708Y-106232214D01*
X163167885Y-106201595D01*
X163209945Y-106223329D01*
X163218334Y-106263530D01*
X163199963Y-106338555D01*
X163154130Y-106449679D01*
X163136406Y-106485780D01*
X163016926Y-106725152D01*
X162932349Y-106916303D01*
X162875833Y-107084671D01*
X162840539Y-107255698D01*
X162819625Y-107454823D01*
X162806253Y-107707485D01*
X162805954Y-107714750D01*
X162782994Y-108275667D01*
X162974314Y-108275667D01*
X163117274Y-108261266D01*
X163208347Y-108222581D01*
X163216654Y-108214191D01*
X163249789Y-108144062D01*
X163289350Y-108016842D01*
X163327253Y-107858859D01*
X163330359Y-107843775D01*
X163376199Y-107673014D01*
X163450751Y-107455865D01*
X163543574Y-107221011D01*
X163620068Y-107048000D01*
X163750050Y-106758489D01*
X163841765Y-106524774D01*
X163899912Y-106329700D01*
X163929192Y-106156109D01*
X163934305Y-105986845D01*
X163930511Y-105914778D01*
X163868007Y-105615219D01*
X163731562Y-105334628D01*
X163531822Y-105088267D01*
X163279434Y-104891396D01*
X163177700Y-104835559D01*
X163065218Y-104788028D01*
X162946925Y-104759245D01*
X162796809Y-104745093D01*
X162588857Y-104741453D01*
X162583334Y-104741460D01*
G36*
X149475946Y-106664292D02*
G01*
X149394576Y-106728576D01*
X149306827Y-106868324D01*
X149292865Y-107022531D01*
X149352598Y-107167661D01*
X149396500Y-107217334D01*
X149450577Y-107276539D01*
X149482369Y-107343666D01*
X149497651Y-107442217D01*
X149502198Y-107595690D01*
X149502334Y-107648046D01*
X149502334Y-107979334D01*
X148693528Y-107979334D01*
X148412944Y-107979034D01*
X148204076Y-107977159D01*
X148053975Y-107972240D01*
X147949688Y-107962813D01*
X147878267Y-107947410D01*
X147826760Y-107924564D01*
X147782217Y-107892810D01*
X147758947Y-107873500D01*
X147602535Y-107785081D01*
X147446623Y-107776559D01*
X147303591Y-107847984D01*
X147277910Y-107871576D01*
X147191670Y-108003346D01*
X147175613Y-108138382D01*
X147216960Y-108263045D01*
X147302932Y-108363699D01*
X147420750Y-108426705D01*
X147557635Y-108438424D01*
X147700807Y-108385220D01*
X147735885Y-108360334D01*
X147777684Y-108331763D01*
X147828443Y-108310430D01*
X147900306Y-108295288D01*
X148005418Y-108285289D01*
X148155921Y-108279388D01*
X148363958Y-108276537D01*
X148641673Y-108275689D01*
X148718044Y-108275667D01*
X149019624Y-108273525D01*
X149276657Y-108267415D01*
X149478828Y-108257810D01*
X149615818Y-108245182D01*
X149674450Y-108231844D01*
X149712080Y-108202888D01*
X149735349Y-108155000D01*
X147679457Y-108155000D01*
X147651796Y-108231713D01*
X147629084Y-108248413D01*
X147508010Y-108262926D01*
X147401302Y-108217123D01*
X147369040Y-108180417D01*
X147347706Y-108085464D01*
X147388140Y-108003414D01*
X147467597Y-107952298D01*
X147563334Y-107950151D01*
X147620534Y-107981021D01*
X147668622Y-108058498D01*
X147679457Y-108155000D01*
X149735349Y-108155000D01*
X149736142Y-108153369D01*
X149749574Y-108066427D01*
X149755311Y-107925206D01*
X149756334Y-107761705D01*
X149757991Y-107563850D01*
X149765588Y-107430104D01*
X149783060Y-107339933D01*
X149814343Y-107272803D01*
X149862167Y-107209613D01*
X149951016Y-107053205D01*
X149958354Y-106920991D01*
X149782441Y-106920991D01*
X149780775Y-107028858D01*
X149748260Y-107104138D01*
X149683800Y-107127711D01*
X149617298Y-107124657D01*
X149515514Y-107099371D01*
X149472135Y-107038395D01*
X149467334Y-107013920D01*
X149482847Y-106896113D01*
X149552853Y-106815080D01*
X149629334Y-106794000D01*
X149728221Y-106829740D01*
X149782441Y-106920991D01*
X149958354Y-106920991D01*
X149959460Y-106901064D01*
X149889723Y-106766066D01*
X149769700Y-106673915D01*
X149615358Y-106627678D01*
X149475946Y-106664292D01*
X149475946Y-106664292D01*
G37*
X149475946Y-106664292D02*
X149394576Y-106728576D01*
X149306827Y-106868324D01*
X149292865Y-107022531D01*
X149352598Y-107167661D01*
X149396500Y-107217334D01*
X149450577Y-107276539D01*
X149482369Y-107343666D01*
X149497651Y-107442217D01*
X149502198Y-107595690D01*
X149502334Y-107648046D01*
X149502334Y-107979334D01*
X148693528Y-107979334D01*
X148412944Y-107979034D01*
X148204076Y-107977159D01*
X148053975Y-107972240D01*
X147949688Y-107962813D01*
X147878267Y-107947410D01*
X147826760Y-107924564D01*
X147782217Y-107892810D01*
X147758947Y-107873500D01*
X147602535Y-107785081D01*
X147446623Y-107776559D01*
X147303591Y-107847984D01*
X147277910Y-107871576D01*
X147191670Y-108003346D01*
X147175613Y-108138382D01*
X147216960Y-108263045D01*
X147302932Y-108363699D01*
X147420750Y-108426705D01*
X147557635Y-108438424D01*
X147700807Y-108385220D01*
X147735885Y-108360334D01*
X147777684Y-108331763D01*
X147828443Y-108310430D01*
X147900306Y-108295288D01*
X148005418Y-108285289D01*
X148155921Y-108279388D01*
X148363958Y-108276537D01*
X148641673Y-108275689D01*
X148718044Y-108275667D01*
X149019624Y-108273525D01*
X149276657Y-108267415D01*
X149478828Y-108257810D01*
X149615818Y-108245182D01*
X149674450Y-108231844D01*
X149712080Y-108202888D01*
X149735349Y-108155000D01*
X147679457Y-108155000D01*
X147651796Y-108231713D01*
X147629084Y-108248413D01*
X147508010Y-108262926D01*
X147401302Y-108217123D01*
X147369040Y-108180417D01*
X147347706Y-108085464D01*
X147388140Y-108003414D01*
X147467597Y-107952298D01*
X147563334Y-107950151D01*
X147620534Y-107981021D01*
X147668622Y-108058498D01*
X147679457Y-108155000D01*
X149735349Y-108155000D01*
X149736142Y-108153369D01*
X149749574Y-108066427D01*
X149755311Y-107925206D01*
X149756334Y-107761705D01*
X149757991Y-107563850D01*
X149765588Y-107430104D01*
X149783060Y-107339933D01*
X149814343Y-107272803D01*
X149862167Y-107209613D01*
X149951016Y-107053205D01*
X149958354Y-106920991D01*
X149782441Y-106920991D01*
X149780775Y-107028858D01*
X149748260Y-107104138D01*
X149683800Y-107127711D01*
X149617298Y-107124657D01*
X149515514Y-107099371D01*
X149472135Y-107038395D01*
X149467334Y-107013920D01*
X149482847Y-106896113D01*
X149552853Y-106815080D01*
X149629334Y-106794000D01*
X149728221Y-106829740D01*
X149782441Y-106920991D01*
X149958354Y-106920991D01*
X149959460Y-106901064D01*
X149889723Y-106766066D01*
X149769700Y-106673915D01*
X149615358Y-106627678D01*
X149475946Y-106664292D01*
G36*
X147383483Y-104868963D02*
G01*
X147255494Y-104975279D01*
X147195634Y-105113184D01*
X147205784Y-105261544D01*
X147287828Y-105399223D01*
X147332634Y-105440003D01*
X147475522Y-105513303D01*
X147617866Y-105503832D01*
X147758947Y-105418167D01*
X147884723Y-105312334D01*
X150137334Y-105312334D01*
X150137334Y-106554606D01*
X150137094Y-106912060D01*
X150135965Y-107194439D01*
X150133329Y-107411334D01*
X150128573Y-107572336D01*
X150121079Y-107687034D01*
X150110233Y-107765022D01*
X150095419Y-107815888D01*
X150076021Y-107849225D01*
X150052667Y-107873500D01*
X149979621Y-107990988D01*
X149965805Y-108135327D01*
X150009450Y-108274655D01*
X150079543Y-108357261D01*
X150226968Y-108429532D01*
X150384188Y-108436954D01*
X150481032Y-108402383D01*
X150573739Y-108304394D01*
X150622156Y-108164150D01*
X150615922Y-108016966D01*
X150604260Y-107982375D01*
X150550338Y-107887916D01*
X150493291Y-107835537D01*
X150476159Y-107816681D01*
X150462528Y-107769216D01*
X150452032Y-107684914D01*
X150444302Y-107555549D01*
X150438970Y-107372893D01*
X150435668Y-107128720D01*
X150434029Y-106814802D01*
X150433667Y-106502458D01*
X150432861Y-106175240D01*
X150430579Y-105873568D01*
X150427024Y-105608338D01*
X150422399Y-105390441D01*
X150416907Y-105230770D01*
X150410752Y-105140220D01*
X150407971Y-105125296D01*
X150392413Y-105105907D01*
X150356359Y-105090604D01*
X150290892Y-105078919D01*
X150187090Y-105070382D01*
X150036037Y-105064525D01*
X149828811Y-105060879D01*
X149556494Y-105058976D01*
X149210167Y-105058348D01*
X149133481Y-105058334D01*
X147884686Y-105058334D01*
X147805179Y-104957257D01*
X147676094Y-104852023D01*
X147523538Y-104826170D01*
X147383483Y-104868963D01*
X147383483Y-104868963D01*
G37*
X147383483Y-104868963D02*
X147255494Y-104975279D01*
X147195634Y-105113184D01*
X147205784Y-105261544D01*
X147287828Y-105399223D01*
X147332634Y-105440003D01*
X147475522Y-105513303D01*
X147617866Y-105503832D01*
X147758947Y-105418167D01*
X147884723Y-105312334D01*
X150137334Y-105312334D01*
X150137334Y-106554606D01*
X150137094Y-106912060D01*
X150135965Y-107194439D01*
X150133329Y-107411334D01*
X150128573Y-107572336D01*
X150121079Y-107687034D01*
X150110233Y-107765022D01*
X150095419Y-107815888D01*
X150076021Y-107849225D01*
X150052667Y-107873500D01*
X149979621Y-107990988D01*
X149965805Y-108135327D01*
X150009450Y-108274655D01*
X150079543Y-108357261D01*
X150226968Y-108429532D01*
X150384188Y-108436954D01*
X150481032Y-108402383D01*
X150573739Y-108304394D01*
X150622156Y-108164150D01*
X150615922Y-108016966D01*
X150604260Y-107982375D01*
X150550338Y-107887916D01*
X150493291Y-107835537D01*
X150476159Y-107816681D01*
X150462528Y-107769216D01*
X150452032Y-107684914D01*
X150444302Y-107555549D01*
X150438970Y-107372893D01*
X150435668Y-107128720D01*
X150434029Y-106814802D01*
X150433667Y-106502458D01*
X150432861Y-106175240D01*
X150430579Y-105873568D01*
X150427024Y-105608338D01*
X150422399Y-105390441D01*
X150416907Y-105230770D01*
X150410752Y-105140220D01*
X150407971Y-105125296D01*
X150392413Y-105105907D01*
X150356359Y-105090604D01*
X150290892Y-105078919D01*
X150187090Y-105070382D01*
X150036037Y-105064525D01*
X149828811Y-105060879D01*
X149556494Y-105058976D01*
X149210167Y-105058348D01*
X149133481Y-105058334D01*
X147884686Y-105058334D01*
X147805179Y-104957257D01*
X147676094Y-104852023D01*
X147523538Y-104826170D01*
X147383483Y-104868963D01*
G36*
X155399175Y-107014478D02*
G01*
X155064202Y-107349709D01*
X154784333Y-107630701D01*
X154554633Y-107862912D01*
X154370167Y-108051798D01*
X154226000Y-108202820D01*
X154117199Y-108321433D01*
X154038826Y-108413096D01*
X153985949Y-108483268D01*
X153953631Y-108537405D01*
X153936938Y-108580966D01*
X153930936Y-108619409D01*
X153930400Y-108638914D01*
X153966645Y-108794803D01*
X154067320Y-108902845D01*
X154220338Y-108951435D01*
X154257538Y-108953000D01*
X154293122Y-108947676D01*
X154337635Y-108928490D01*
X154396338Y-108890619D01*
X154474491Y-108829241D01*
X154577356Y-108739534D01*
X154710192Y-108616675D01*
X154878261Y-108455842D01*
X155086823Y-108252214D01*
X155341140Y-108000967D01*
X155646471Y-107697280D01*
X155861691Y-107482553D01*
X157334352Y-106012106D01*
X157101151Y-105778904D01*
X156867950Y-105545703D01*
X155399175Y-107014478D01*
X155399175Y-107014478D01*
G37*
X155399175Y-107014478D02*
X155064202Y-107349709D01*
X154784333Y-107630701D01*
X154554633Y-107862912D01*
X154370167Y-108051798D01*
X154226000Y-108202820D01*
X154117199Y-108321433D01*
X154038826Y-108413096D01*
X153985949Y-108483268D01*
X153953631Y-108537405D01*
X153936938Y-108580966D01*
X153930936Y-108619409D01*
X153930400Y-108638914D01*
X153966645Y-108794803D01*
X154067320Y-108902845D01*
X154220338Y-108951435D01*
X154257538Y-108953000D01*
X154293122Y-108947676D01*
X154337635Y-108928490D01*
X154396338Y-108890619D01*
X154474491Y-108829241D01*
X154577356Y-108739534D01*
X154710192Y-108616675D01*
X154878261Y-108455842D01*
X155086823Y-108252214D01*
X155341140Y-108000967D01*
X155646471Y-107697280D01*
X155861691Y-107482553D01*
X157334352Y-106012106D01*
X157101151Y-105778904D01*
X156867950Y-105545703D01*
X155399175Y-107014478D01*
G36*
X140527667Y-105437639D02*
G01*
X140263618Y-105717639D01*
X140017939Y-105979185D01*
X139796675Y-106215764D01*
X139605876Y-106420863D01*
X139451589Y-106587968D01*
X139339861Y-106710565D01*
X139276740Y-106782141D01*
X139264723Y-106797867D01*
X139296223Y-106816639D01*
X139392388Y-106830336D01*
X139533253Y-106836270D01*
X139550473Y-106836334D01*
X139850334Y-106836334D01*
X139850334Y-109037667D01*
X143702667Y-109037667D01*
X143702667Y-107683044D01*
X142890914Y-107683044D01*
X142868881Y-107758673D01*
X142821083Y-107801520D01*
X142741479Y-107886230D01*
X142746153Y-107977191D01*
X142816257Y-108057585D01*
X142876565Y-108138456D01*
X142871425Y-108209788D01*
X142808724Y-108247046D01*
X142756055Y-108244820D01*
X142648471Y-108255770D01*
X142589699Y-108325983D01*
X142592296Y-108438213D01*
X142599567Y-108459767D01*
X142609198Y-108561972D01*
X142563011Y-108621719D01*
X142483084Y-108622983D01*
X142425144Y-108586359D01*
X142336660Y-108546159D01*
X142246244Y-108558328D01*
X142186681Y-108614074D01*
X142178667Y-108652464D01*
X142151682Y-108749180D01*
X142088589Y-108785241D01*
X142016187Y-108756663D01*
X141969196Y-108683607D01*
X141897501Y-108580649D01*
X141797921Y-108552488D01*
X141704701Y-108589982D01*
X141601354Y-108635032D01*
X141536459Y-108606767D01*
X141519085Y-108511278D01*
X141524739Y-108469124D01*
X141520375Y-108340872D01*
X141460911Y-108259381D01*
X141359264Y-108239918D01*
X141334960Y-108244826D01*
X141255529Y-108237940D01*
X141222198Y-108184050D01*
X141242777Y-108111669D01*
X141286915Y-108069420D01*
X141362323Y-107980453D01*
X141359765Y-107880197D01*
X141288719Y-107797167D01*
X141227958Y-107722656D01*
X141242884Y-107652093D01*
X141325471Y-107602121D01*
X141388520Y-107590164D01*
X141476378Y-107574650D01*
X141510865Y-107533383D01*
X141511790Y-107439025D01*
X141510505Y-107421788D01*
X141517262Y-107291306D01*
X141563940Y-107235291D01*
X141651265Y-107253162D01*
X141691477Y-107276707D01*
X141809264Y-107320981D01*
X141899829Y-107288247D01*
X141950789Y-107191497D01*
X142001016Y-107108734D01*
X142073709Y-107092436D01*
X142139304Y-107142276D01*
X142160698Y-107193834D01*
X142216384Y-107288575D01*
X142310959Y-107311867D01*
X142420222Y-107268882D01*
X142521197Y-107232803D01*
X142581856Y-107267836D01*
X142591181Y-107366842D01*
X142589181Y-107378363D01*
X142582750Y-107508195D01*
X142630413Y-107578083D01*
X142734858Y-107598334D01*
X142843386Y-107622873D01*
X142890914Y-107683044D01*
X143702667Y-107683044D01*
X143702667Y-106836334D01*
X143999000Y-106836334D01*
X144145066Y-106832980D01*
X144250905Y-106824153D01*
X144295101Y-106811708D01*
X144295334Y-106810689D01*
X144268204Y-106770950D01*
X144194982Y-106684039D01*
X144087925Y-106564140D01*
X143999000Y-106467734D01*
X143824203Y-106280562D01*
X143019721Y-106280562D01*
X143003932Y-106346642D01*
X142930084Y-106378306D01*
X142856618Y-106412185D01*
X142839778Y-106497667D01*
X142822371Y-106599086D01*
X142769032Y-106642578D01*
X142699209Y-106617509D01*
X142618896Y-106591405D01*
X142545764Y-106621827D01*
X142517334Y-106686838D01*
X142490676Y-106741975D01*
X142432832Y-106746318D01*
X142376996Y-106704060D01*
X142360267Y-106667000D01*
X142310169Y-106602253D01*
X142230954Y-106582365D01*
X142163176Y-106616223D01*
X142158643Y-106622818D01*
X142109526Y-106653067D01*
X142060132Y-106619292D01*
X142044333Y-106576416D01*
X141924667Y-106576416D01*
X141887736Y-106642159D01*
X141797667Y-106696375D01*
X141698679Y-106764869D01*
X141670827Y-106856168D01*
X141718997Y-106949523D01*
X141734689Y-106963767D01*
X141771921Y-107029505D01*
X141743508Y-107087368D01*
X141667675Y-107117872D01*
X141595676Y-107112399D01*
X141475382Y-107116269D01*
X141395976Y-107186133D01*
X141374334Y-107278961D01*
X141353328Y-107388964D01*
X141300272Y-107427931D01*
X141230107Y-107390409D01*
X141195176Y-107344334D01*
X141110889Y-107271234D01*
X141009533Y-107274532D01*
X140911463Y-107351393D01*
X140837459Y-107407815D01*
X140764987Y-107416839D01*
X140720504Y-107382445D01*
X140724015Y-107323193D01*
X140717728Y-107243839D01*
X140676904Y-107176183D01*
X140606660Y-107121991D01*
X140526905Y-107131813D01*
X140501288Y-107142744D01*
X140393315Y-107167053D01*
X140336883Y-107130163D01*
X140342941Y-107045179D01*
X140372730Y-106988892D01*
X140419185Y-106872655D01*
X140394224Y-106786706D01*
X140301838Y-106743559D01*
X140235220Y-106707474D01*
X140196497Y-106641521D01*
X140193872Y-106575890D01*
X140235547Y-106540771D01*
X140246532Y-106540000D01*
X140325669Y-106511996D01*
X140378221Y-106471732D01*
X140422148Y-106415370D01*
X140414316Y-106359379D01*
X140378578Y-106299817D01*
X140328794Y-106192892D01*
X140350812Y-106127255D01*
X140447750Y-106098061D01*
X140510097Y-106095500D01*
X140617910Y-106089747D01*
X140667851Y-106058826D01*
X140686584Y-105982240D01*
X140689099Y-105957917D01*
X140725786Y-105852314D01*
X140796774Y-105816681D01*
X140883517Y-105857277D01*
X140908667Y-105883834D01*
X141001950Y-105941742D01*
X141104887Y-105925734D01*
X141175500Y-105861719D01*
X141252285Y-105802701D01*
X141326874Y-105815268D01*
X141371155Y-105890399D01*
X141374334Y-105925513D01*
X141404356Y-106040240D01*
X141486838Y-106091895D01*
X141603528Y-106075717D01*
X141702279Y-106062752D01*
X141747520Y-106109871D01*
X141731471Y-106205902D01*
X141716260Y-106237576D01*
X141673691Y-106357282D01*
X141701702Y-106434534D01*
X141797667Y-106476500D01*
X141896984Y-106520716D01*
X141924667Y-106576416D01*
X142044333Y-106576416D01*
X142030764Y-106539592D01*
X142028915Y-106507174D01*
X142011719Y-106416423D01*
X141944940Y-106379859D01*
X141935250Y-106378306D01*
X141855017Y-106344784D01*
X141852137Y-106277623D01*
X141913203Y-106190613D01*
X141962139Y-106128263D01*
X141951603Y-106092880D01*
X141913203Y-106068759D01*
X141848109Y-106002789D01*
X141855593Y-105937072D01*
X141932286Y-105897804D01*
X141935250Y-105897361D01*
X142009211Y-105862806D01*
X142032329Y-105773860D01*
X142032437Y-105769008D01*
X142046281Y-105658830D01*
X142089314Y-105623534D01*
X142171376Y-105655577D01*
X142176420Y-105658650D01*
X142246284Y-105689423D01*
X142300847Y-105665285D01*
X142349875Y-105608667D01*
X142432667Y-105502834D01*
X142515459Y-105608667D01*
X142580434Y-105678296D01*
X142635805Y-105685837D01*
X142688915Y-105658650D01*
X142773079Y-105623592D01*
X142817745Y-105655514D01*
X142832755Y-105761960D01*
X142832898Y-105769008D01*
X142854391Y-105860519D01*
X142926062Y-105896759D01*
X142930084Y-105897361D01*
X143010573Y-105931612D01*
X143013789Y-105999178D01*
X142960766Y-106075514D01*
X142918271Y-106136320D01*
X142939305Y-106181565D01*
X142960766Y-106200447D01*
X143019721Y-106280562D01*
X143824203Y-106280562D01*
X143702667Y-106150423D01*
X143702667Y-104592667D01*
X142644334Y-104592667D01*
X142643903Y-104814917D01*
X142643473Y-105037167D01*
X142209987Y-104576523D01*
X141776500Y-104115878D01*
X140527667Y-105437639D01*
X140527667Y-105437639D01*
G37*
X140527667Y-105437639D02*
X140263618Y-105717639D01*
X140017939Y-105979185D01*
X139796675Y-106215764D01*
X139605876Y-106420863D01*
X139451589Y-106587968D01*
X139339861Y-106710565D01*
X139276740Y-106782141D01*
X139264723Y-106797867D01*
X139296223Y-106816639D01*
X139392388Y-106830336D01*
X139533253Y-106836270D01*
X139550473Y-106836334D01*
X139850334Y-106836334D01*
X139850334Y-109037667D01*
X143702667Y-109037667D01*
X143702667Y-107683044D01*
X142890914Y-107683044D01*
X142868881Y-107758673D01*
X142821083Y-107801520D01*
X142741479Y-107886230D01*
X142746153Y-107977191D01*
X142816257Y-108057585D01*
X142876565Y-108138456D01*
X142871425Y-108209788D01*
X142808724Y-108247046D01*
X142756055Y-108244820D01*
X142648471Y-108255770D01*
X142589699Y-108325983D01*
X142592296Y-108438213D01*
X142599567Y-108459767D01*
X142609198Y-108561972D01*
X142563011Y-108621719D01*
X142483084Y-108622983D01*
X142425144Y-108586359D01*
X142336660Y-108546159D01*
X142246244Y-108558328D01*
X142186681Y-108614074D01*
X142178667Y-108652464D01*
X142151682Y-108749180D01*
X142088589Y-108785241D01*
X142016187Y-108756663D01*
X141969196Y-108683607D01*
X141897501Y-108580649D01*
X141797921Y-108552488D01*
X141704701Y-108589982D01*
X141601354Y-108635032D01*
X141536459Y-108606767D01*
X141519085Y-108511278D01*
X141524739Y-108469124D01*
X141520375Y-108340872D01*
X141460911Y-108259381D01*
X141359264Y-108239918D01*
X141334960Y-108244826D01*
X141255529Y-108237940D01*
X141222198Y-108184050D01*
X141242777Y-108111669D01*
X141286915Y-108069420D01*
X141362323Y-107980453D01*
X141359765Y-107880197D01*
X141288719Y-107797167D01*
X141227958Y-107722656D01*
X141242884Y-107652093D01*
X141325471Y-107602121D01*
X141388520Y-107590164D01*
X141476378Y-107574650D01*
X141510865Y-107533383D01*
X141511790Y-107439025D01*
X141510505Y-107421788D01*
X141517262Y-107291306D01*
X141563940Y-107235291D01*
X141651265Y-107253162D01*
X141691477Y-107276707D01*
X141809264Y-107320981D01*
X141899829Y-107288247D01*
X141950789Y-107191497D01*
X142001016Y-107108734D01*
X142073709Y-107092436D01*
X142139304Y-107142276D01*
X142160698Y-107193834D01*
X142216384Y-107288575D01*
X142310959Y-107311867D01*
X142420222Y-107268882D01*
X142521197Y-107232803D01*
X142581856Y-107267836D01*
X142591181Y-107366842D01*
X142589181Y-107378363D01*
X142582750Y-107508195D01*
X142630413Y-107578083D01*
X142734858Y-107598334D01*
X142843386Y-107622873D01*
X142890914Y-107683044D01*
X143702667Y-107683044D01*
X143702667Y-106836334D01*
X143999000Y-106836334D01*
X144145066Y-106832980D01*
X144250905Y-106824153D01*
X144295101Y-106811708D01*
X144295334Y-106810689D01*
X144268204Y-106770950D01*
X144194982Y-106684039D01*
X144087925Y-106564140D01*
X143999000Y-106467734D01*
X143824203Y-106280562D01*
X143019721Y-106280562D01*
X143003932Y-106346642D01*
X142930084Y-106378306D01*
X142856618Y-106412185D01*
X142839778Y-106497667D01*
X142822371Y-106599086D01*
X142769032Y-106642578D01*
X142699209Y-106617509D01*
X142618896Y-106591405D01*
X142545764Y-106621827D01*
X142517334Y-106686838D01*
X142490676Y-106741975D01*
X142432832Y-106746318D01*
X142376996Y-106704060D01*
X142360267Y-106667000D01*
X142310169Y-106602253D01*
X142230954Y-106582365D01*
X142163176Y-106616223D01*
X142158643Y-106622818D01*
X142109526Y-106653067D01*
X142060132Y-106619292D01*
X142044333Y-106576416D01*
X141924667Y-106576416D01*
X141887736Y-106642159D01*
X141797667Y-106696375D01*
X141698679Y-106764869D01*
X141670827Y-106856168D01*
X141718997Y-106949523D01*
X141734689Y-106963767D01*
X141771921Y-107029505D01*
X141743508Y-107087368D01*
X141667675Y-107117872D01*
X141595676Y-107112399D01*
X141475382Y-107116269D01*
X141395976Y-107186133D01*
X141374334Y-107278961D01*
X141353328Y-107388964D01*
X141300272Y-107427931D01*
X141230107Y-107390409D01*
X141195176Y-107344334D01*
X141110889Y-107271234D01*
X141009533Y-107274532D01*
X140911463Y-107351393D01*
X140837459Y-107407815D01*
X140764987Y-107416839D01*
X140720504Y-107382445D01*
X140724015Y-107323193D01*
X140717728Y-107243839D01*
X140676904Y-107176183D01*
X140606660Y-107121991D01*
X140526905Y-107131813D01*
X140501288Y-107142744D01*
X140393315Y-107167053D01*
X140336883Y-107130163D01*
X140342941Y-107045179D01*
X140372730Y-106988892D01*
X140419185Y-106872655D01*
X140394224Y-106786706D01*
X140301838Y-106743559D01*
X140235220Y-106707474D01*
X140196497Y-106641521D01*
X140193872Y-106575890D01*
X140235547Y-106540771D01*
X140246532Y-106540000D01*
X140325669Y-106511996D01*
X140378221Y-106471732D01*
X140422148Y-106415370D01*
X140414316Y-106359379D01*
X140378578Y-106299817D01*
X140328794Y-106192892D01*
X140350812Y-106127255D01*
X140447750Y-106098061D01*
X140510097Y-106095500D01*
X140617910Y-106089747D01*
X140667851Y-106058826D01*
X140686584Y-105982240D01*
X140689099Y-105957917D01*
X140725786Y-105852314D01*
X140796774Y-105816681D01*
X140883517Y-105857277D01*
X140908667Y-105883834D01*
X141001950Y-105941742D01*
X141104887Y-105925734D01*
X141175500Y-105861719D01*
X141252285Y-105802701D01*
X141326874Y-105815268D01*
X141371155Y-105890399D01*
X141374334Y-105925513D01*
X141404356Y-106040240D01*
X141486838Y-106091895D01*
X141603528Y-106075717D01*
X141702279Y-106062752D01*
X141747520Y-106109871D01*
X141731471Y-106205902D01*
X141716260Y-106237576D01*
X141673691Y-106357282D01*
X141701702Y-106434534D01*
X141797667Y-106476500D01*
X141896984Y-106520716D01*
X141924667Y-106576416D01*
X142044333Y-106576416D01*
X142030764Y-106539592D01*
X142028915Y-106507174D01*
X142011719Y-106416423D01*
X141944940Y-106379859D01*
X141935250Y-106378306D01*
X141855017Y-106344784D01*
X141852137Y-106277623D01*
X141913203Y-106190613D01*
X141962139Y-106128263D01*
X141951603Y-106092880D01*
X141913203Y-106068759D01*
X141848109Y-106002789D01*
X141855593Y-105937072D01*
X141932286Y-105897804D01*
X141935250Y-105897361D01*
X142009211Y-105862806D01*
X142032329Y-105773860D01*
X142032437Y-105769008D01*
X142046281Y-105658830D01*
X142089314Y-105623534D01*
X142171376Y-105655577D01*
X142176420Y-105658650D01*
X142246284Y-105689423D01*
X142300847Y-105665285D01*
X142349875Y-105608667D01*
X142432667Y-105502834D01*
X142515459Y-105608667D01*
X142580434Y-105678296D01*
X142635805Y-105685837D01*
X142688915Y-105658650D01*
X142773079Y-105623592D01*
X142817745Y-105655514D01*
X142832755Y-105761960D01*
X142832898Y-105769008D01*
X142854391Y-105860519D01*
X142926062Y-105896759D01*
X142930084Y-105897361D01*
X143010573Y-105931612D01*
X143013789Y-105999178D01*
X142960766Y-106075514D01*
X142918271Y-106136320D01*
X142939305Y-106181565D01*
X142960766Y-106200447D01*
X143019721Y-106280562D01*
X143824203Y-106280562D01*
X143702667Y-106150423D01*
X143702667Y-104592667D01*
X142644334Y-104592667D01*
X142643903Y-104814917D01*
X142643473Y-105037167D01*
X142209987Y-104576523D01*
X141776500Y-104115878D01*
X140527667Y-105437639D01*
G36*
X148211124Y-104231937D02*
G01*
X148072068Y-104316366D01*
X148020419Y-104356403D01*
X147965977Y-104385030D01*
X147893745Y-104404498D01*
X147788727Y-104417057D01*
X147635926Y-104424958D01*
X147420344Y-104430450D01*
X147296237Y-104432783D01*
X146644834Y-104444500D01*
X146633863Y-106619862D01*
X146631788Y-107152326D01*
X146631398Y-107604177D01*
X146632760Y-107979455D01*
X146635940Y-108282198D01*
X146641007Y-108516445D01*
X146648025Y-108686235D01*
X146657063Y-108795607D01*
X146668186Y-108848599D01*
X146670796Y-108852946D01*
X146712799Y-108877157D01*
X146799308Y-108894061D01*
X146941240Y-108904612D01*
X147149513Y-108909762D01*
X147331823Y-108910667D01*
X147572364Y-108911309D01*
X147743864Y-108914727D01*
X147861948Y-108923160D01*
X147942239Y-108938844D01*
X148000362Y-108964018D01*
X148051941Y-109000920D01*
X148070721Y-109016500D01*
X148223832Y-109103291D01*
X148375727Y-109112635D01*
X148511978Y-109043890D01*
X148520172Y-109036495D01*
X148619861Y-108896256D01*
X148636839Y-108741461D01*
X148597178Y-108624023D01*
X148497553Y-108506657D01*
X148364615Y-108446186D01*
X148223442Y-108447223D01*
X148099115Y-108514380D01*
X148084167Y-108529667D01*
X148045594Y-108564234D01*
X147993322Y-108587932D01*
X147912096Y-108602770D01*
X147786659Y-108610763D01*
X147601756Y-108613920D01*
X147442183Y-108614334D01*
X146876822Y-108614334D01*
X146898834Y-104698500D01*
X147421905Y-104686578D01*
X147640632Y-104682270D01*
X147791351Y-104682815D01*
X147890690Y-104690758D01*
X147955277Y-104708644D01*
X148001739Y-104739018D01*
X148044300Y-104781828D01*
X148178050Y-104872995D01*
X148327932Y-104894274D01*
X148470206Y-104848552D01*
X148581129Y-104738716D01*
X148594631Y-104714902D01*
X148635655Y-104555517D01*
X148595010Y-104406239D01*
X148497034Y-104295664D01*
X148353777Y-104222295D01*
X148211124Y-104231937D01*
X148211124Y-104231937D01*
G37*
X148211124Y-104231937D02*
X148072068Y-104316366D01*
X148020419Y-104356403D01*
X147965977Y-104385030D01*
X147893745Y-104404498D01*
X147788727Y-104417057D01*
X147635926Y-104424958D01*
X147420344Y-104430450D01*
X147296237Y-104432783D01*
X146644834Y-104444500D01*
X146633863Y-106619862D01*
X146631788Y-107152326D01*
X146631398Y-107604177D01*
X146632760Y-107979455D01*
X146635940Y-108282198D01*
X146641007Y-108516445D01*
X146648025Y-108686235D01*
X146657063Y-108795607D01*
X146668186Y-108848599D01*
X146670796Y-108852946D01*
X146712799Y-108877157D01*
X146799308Y-108894061D01*
X146941240Y-108904612D01*
X147149513Y-108909762D01*
X147331823Y-108910667D01*
X147572364Y-108911309D01*
X147743864Y-108914727D01*
X147861948Y-108923160D01*
X147942239Y-108938844D01*
X148000362Y-108964018D01*
X148051941Y-109000920D01*
X148070721Y-109016500D01*
X148223832Y-109103291D01*
X148375727Y-109112635D01*
X148511978Y-109043890D01*
X148520172Y-109036495D01*
X148619861Y-108896256D01*
X148636839Y-108741461D01*
X148597178Y-108624023D01*
X148497553Y-108506657D01*
X148364615Y-108446186D01*
X148223442Y-108447223D01*
X148099115Y-108514380D01*
X148084167Y-108529667D01*
X148045594Y-108564234D01*
X147993322Y-108587932D01*
X147912096Y-108602770D01*
X147786659Y-108610763D01*
X147601756Y-108613920D01*
X147442183Y-108614334D01*
X146876822Y-108614334D01*
X146898834Y-104698500D01*
X147421905Y-104686578D01*
X147640632Y-104682270D01*
X147791351Y-104682815D01*
X147890690Y-104690758D01*
X147955277Y-104708644D01*
X148001739Y-104739018D01*
X148044300Y-104781828D01*
X148178050Y-104872995D01*
X148327932Y-104894274D01*
X148470206Y-104848552D01*
X148581129Y-104738716D01*
X148594631Y-104714902D01*
X148635655Y-104555517D01*
X148595010Y-104406239D01*
X148497034Y-104295664D01*
X148353777Y-104222295D01*
X148211124Y-104231937D01*
G36*
X150637172Y-108501023D02*
G01*
X150603000Y-108529667D01*
X150559316Y-108565230D01*
X150501680Y-108589259D01*
X150414021Y-108603955D01*
X150280268Y-108611523D01*
X150084350Y-108614163D01*
X149985261Y-108614334D01*
X149757869Y-108612865D01*
X149598334Y-108606980D01*
X149489877Y-108594461D01*
X149415718Y-108573092D01*
X149359075Y-108540654D01*
X149344552Y-108529667D01*
X149199779Y-108460318D01*
X149050653Y-108459626D01*
X148917732Y-108518298D01*
X148821574Y-108627041D01*
X148782738Y-108776561D01*
X148782667Y-108783667D01*
X148818284Y-108935116D01*
X148911134Y-109045694D01*
X149040218Y-109106903D01*
X149184538Y-109110244D01*
X149323092Y-109047219D01*
X149358016Y-109016500D01*
X149407179Y-108971767D01*
X149459922Y-108941809D01*
X149533436Y-108923674D01*
X149644913Y-108914411D01*
X149811544Y-108911067D01*
X149974397Y-108910667D01*
X150192024Y-108911704D01*
X150342839Y-108916796D01*
X150444690Y-108928909D01*
X150515424Y-108951014D01*
X150572889Y-108986077D01*
X150610721Y-109016500D01*
X150758572Y-109104553D01*
X150900132Y-109109737D01*
X151041791Y-109034594D01*
X151131398Y-108915703D01*
X151157629Y-108768723D01*
X151154822Y-108757907D01*
X150976807Y-108757907D01*
X150959604Y-108871331D01*
X150894308Y-108939317D01*
X150806134Y-108954159D01*
X150720299Y-108908156D01*
X150680536Y-108848420D01*
X150676226Y-108821537D01*
X149278510Y-108821537D01*
X149235436Y-108907026D01*
X149144850Y-108951505D01*
X149121334Y-108953000D01*
X149031858Y-108922468D01*
X148996022Y-108891534D01*
X148959015Y-108797103D01*
X148982052Y-108704960D01*
X149047104Y-108637822D01*
X149136145Y-108618408D01*
X149195417Y-108640254D01*
X149267395Y-108723219D01*
X149278510Y-108821537D01*
X150676226Y-108821537D01*
X150662012Y-108732888D01*
X150713448Y-108651386D01*
X150821882Y-108620834D01*
X150853377Y-108622777D01*
X150937818Y-108652952D01*
X150973476Y-108733882D01*
X150976807Y-108757907D01*
X151154822Y-108757907D01*
X151119698Y-108622587D01*
X151055355Y-108537046D01*
X150922973Y-108462056D01*
X150773041Y-108449876D01*
X150637172Y-108501023D01*
X150637172Y-108501023D01*
G37*
X150637172Y-108501023D02*
X150603000Y-108529667D01*
X150559316Y-108565230D01*
X150501680Y-108589259D01*
X150414021Y-108603955D01*
X150280268Y-108611523D01*
X150084350Y-108614163D01*
X149985261Y-108614334D01*
X149757869Y-108612865D01*
X149598334Y-108606980D01*
X149489877Y-108594461D01*
X149415718Y-108573092D01*
X149359075Y-108540654D01*
X149344552Y-108529667D01*
X149199779Y-108460318D01*
X149050653Y-108459626D01*
X148917732Y-108518298D01*
X148821574Y-108627041D01*
X148782738Y-108776561D01*
X148782667Y-108783667D01*
X148818284Y-108935116D01*
X148911134Y-109045694D01*
X149040218Y-109106903D01*
X149184538Y-109110244D01*
X149323092Y-109047219D01*
X149358016Y-109016500D01*
X149407179Y-108971767D01*
X149459922Y-108941809D01*
X149533436Y-108923674D01*
X149644913Y-108914411D01*
X149811544Y-108911067D01*
X149974397Y-108910667D01*
X150192024Y-108911704D01*
X150342839Y-108916796D01*
X150444690Y-108928909D01*
X150515424Y-108951014D01*
X150572889Y-108986077D01*
X150610721Y-109016500D01*
X150758572Y-109104553D01*
X150900132Y-109109737D01*
X151041791Y-109034594D01*
X151131398Y-108915703D01*
X151157629Y-108768723D01*
X151154822Y-108757907D01*
X150976807Y-108757907D01*
X150959604Y-108871331D01*
X150894308Y-108939317D01*
X150806134Y-108954159D01*
X150720299Y-108908156D01*
X150680536Y-108848420D01*
X150676226Y-108821537D01*
X149278510Y-108821537D01*
X149235436Y-108907026D01*
X149144850Y-108951505D01*
X149121334Y-108953000D01*
X149031858Y-108922468D01*
X148996022Y-108891534D01*
X148959015Y-108797103D01*
X148982052Y-108704960D01*
X149047104Y-108637822D01*
X149136145Y-108618408D01*
X149195417Y-108640254D01*
X149267395Y-108723219D01*
X149278510Y-108821537D01*
X150676226Y-108821537D01*
X150662012Y-108732888D01*
X150713448Y-108651386D01*
X150821882Y-108620834D01*
X150853377Y-108622777D01*
X150937818Y-108652952D01*
X150973476Y-108733882D01*
X150976807Y-108757907D01*
X151154822Y-108757907D01*
X151119698Y-108622587D01*
X151055355Y-108537046D01*
X150922973Y-108462056D01*
X150773041Y-108449876D01*
X150637172Y-108501023D01*
G36*
X156381484Y-107048016D02*
G01*
X156105832Y-107321218D01*
X156529416Y-107746249D01*
X156696921Y-107915643D01*
X156813284Y-108038997D01*
X156887786Y-108129579D01*
X156929710Y-108200657D01*
X156948335Y-108265499D01*
X156952943Y-108337375D01*
X156953000Y-108351833D01*
X156967169Y-108504380D01*
X157002074Y-108648007D01*
X157010195Y-108669271D01*
X157110802Y-108826302D01*
X157264266Y-108973278D01*
X157440302Y-109084147D01*
X157533927Y-109119788D01*
X157652952Y-109150080D01*
X157738155Y-109157213D01*
X157832162Y-109140662D01*
X157925121Y-109114963D01*
X158156325Y-109008999D01*
X158330666Y-108841404D01*
X158393292Y-108739455D01*
X158462796Y-108522486D01*
X158463306Y-108498501D01*
X158265334Y-108498501D01*
X158235924Y-108546557D01*
X158160734Y-108630018D01*
X158059320Y-108730442D01*
X157951239Y-108829388D01*
X157856048Y-108908416D01*
X157793303Y-108949082D01*
X157785379Y-108951079D01*
X157733496Y-108932658D01*
X157629608Y-108882301D01*
X157495028Y-108810414D01*
X157478462Y-108801190D01*
X157340400Y-108720756D01*
X157255814Y-108652460D01*
X157217495Y-108575295D01*
X157218232Y-108468253D01*
X157250815Y-108310326D01*
X157275647Y-108210284D01*
X157314397Y-108064553D01*
X157347540Y-107982769D01*
X157388966Y-107946484D01*
X157452562Y-107937253D01*
X157481405Y-107937000D01*
X157611678Y-107930978D01*
X157768837Y-107915955D01*
X157814161Y-107910184D01*
X158009806Y-107883368D01*
X158137570Y-108168130D01*
X158199942Y-108312989D01*
X158245441Y-108429798D01*
X158265128Y-108495445D01*
X158265334Y-108498501D01*
X158463306Y-108498501D01*
X158467704Y-108291904D01*
X158412737Y-108070292D01*
X158302614Y-107880235D01*
X158191821Y-107775609D01*
X158054925Y-107701069D01*
X157892674Y-107644769D01*
X157737606Y-107615503D01*
X157622945Y-107621845D01*
X157576893Y-107622546D01*
X157514761Y-107593294D01*
X157426647Y-107526391D01*
X157302650Y-107414140D01*
X157132868Y-107248843D01*
X157096094Y-107212278D01*
X156657137Y-106774814D01*
X156381484Y-107048016D01*
X156381484Y-107048016D01*
G37*
X156381484Y-107048016D02*
X156105832Y-107321218D01*
X156529416Y-107746249D01*
X156696921Y-107915643D01*
X156813284Y-108038997D01*
X156887786Y-108129579D01*
X156929710Y-108200657D01*
X156948335Y-108265499D01*
X156952943Y-108337375D01*
X156953000Y-108351833D01*
X156967169Y-108504380D01*
X157002074Y-108648007D01*
X157010195Y-108669271D01*
X157110802Y-108826302D01*
X157264266Y-108973278D01*
X157440302Y-109084147D01*
X157533927Y-109119788D01*
X157652952Y-109150080D01*
X157738155Y-109157213D01*
X157832162Y-109140662D01*
X157925121Y-109114963D01*
X158156325Y-109008999D01*
X158330666Y-108841404D01*
X158393292Y-108739455D01*
X158462796Y-108522486D01*
X158463306Y-108498501D01*
X158265334Y-108498501D01*
X158235924Y-108546557D01*
X158160734Y-108630018D01*
X158059320Y-108730442D01*
X157951239Y-108829388D01*
X157856048Y-108908416D01*
X157793303Y-108949082D01*
X157785379Y-108951079D01*
X157733496Y-108932658D01*
X157629608Y-108882301D01*
X157495028Y-108810414D01*
X157478462Y-108801190D01*
X157340400Y-108720756D01*
X157255814Y-108652460D01*
X157217495Y-108575295D01*
X157218232Y-108468253D01*
X157250815Y-108310326D01*
X157275647Y-108210284D01*
X157314397Y-108064553D01*
X157347540Y-107982769D01*
X157388966Y-107946484D01*
X157452562Y-107937253D01*
X157481405Y-107937000D01*
X157611678Y-107930978D01*
X157768837Y-107915955D01*
X157814161Y-107910184D01*
X158009806Y-107883368D01*
X158137570Y-108168130D01*
X158199942Y-108312989D01*
X158245441Y-108429798D01*
X158265128Y-108495445D01*
X158265334Y-108498501D01*
X158463306Y-108498501D01*
X158467704Y-108291904D01*
X158412737Y-108070292D01*
X158302614Y-107880235D01*
X158191821Y-107775609D01*
X158054925Y-107701069D01*
X157892674Y-107644769D01*
X157737606Y-107615503D01*
X157622945Y-107621845D01*
X157576893Y-107622546D01*
X157514761Y-107593294D01*
X157426647Y-107526391D01*
X157302650Y-107414140D01*
X157132868Y-107248843D01*
X157096094Y-107212278D01*
X156657137Y-106774814D01*
X156381484Y-107048016D01*
G36*
X162054087Y-108412888D02*
G01*
X161969828Y-108418766D01*
X161956044Y-108423179D01*
X161942311Y-108476128D01*
X161930822Y-108592097D01*
X161923469Y-108749444D01*
X161922228Y-108809878D01*
X161924676Y-109007883D01*
X161944200Y-109136246D01*
X161989190Y-109209547D01*
X162068036Y-109242363D01*
X162175136Y-109249334D01*
X162276850Y-109276122D01*
X162389716Y-109341924D01*
X162406280Y-109355167D01*
X162496519Y-109423400D01*
X162561916Y-109459358D01*
X162570637Y-109461000D01*
X162626183Y-109437765D01*
X162718435Y-109379649D01*
X162752667Y-109355167D01*
X162870207Y-109287051D01*
X162982184Y-109250577D01*
X163004308Y-109248685D01*
X163110583Y-109239067D01*
X163179528Y-109201921D01*
X163219163Y-109122516D01*
X163237510Y-108986118D01*
X163242383Y-108811434D01*
X163245265Y-108455099D01*
X162615083Y-108424710D01*
X162392274Y-108415896D01*
X162200089Y-108411943D01*
X162054087Y-108412888D01*
X162054087Y-108412888D01*
G37*
X162054087Y-108412888D02*
X161969828Y-108418766D01*
X161956044Y-108423179D01*
X161942311Y-108476128D01*
X161930822Y-108592097D01*
X161923469Y-108749444D01*
X161922228Y-108809878D01*
X161924676Y-109007883D01*
X161944200Y-109136246D01*
X161989190Y-109209547D01*
X162068036Y-109242363D01*
X162175136Y-109249334D01*
X162276850Y-109276122D01*
X162389716Y-109341924D01*
X162406280Y-109355167D01*
X162496519Y-109423400D01*
X162561916Y-109459358D01*
X162570637Y-109461000D01*
X162626183Y-109437765D01*
X162718435Y-109379649D01*
X162752667Y-109355167D01*
X162870207Y-109287051D01*
X162982184Y-109250577D01*
X163004308Y-109248685D01*
X163110583Y-109239067D01*
X163179528Y-109201921D01*
X163219163Y-109122516D01*
X163237510Y-108986118D01*
X163242383Y-108811434D01*
X163245265Y-108455099D01*
X162615083Y-108424710D01*
X162392274Y-108415896D01*
X162200089Y-108411943D01*
X162054087Y-108412888D01*
G36*
X145032087Y-108748731D02*
G01*
X144946426Y-108769206D01*
X144930334Y-108787633D01*
X144942281Y-108845399D01*
X144974520Y-108964536D01*
X145021652Y-109125739D01*
X145060621Y-109253300D01*
X145190908Y-109672667D01*
X145361666Y-109672667D01*
X145470000Y-109669099D01*
X145514614Y-109645348D01*
X145516455Y-109581842D01*
X145508910Y-109535084D01*
X145493651Y-109424842D01*
X145475508Y-109263503D01*
X145458203Y-109084375D01*
X145456892Y-109069417D01*
X145428387Y-108741334D01*
X145179360Y-108741334D01*
X145032087Y-108748731D01*
X145032087Y-108748731D01*
G37*
X145032087Y-108748731D02*
X144946426Y-108769206D01*
X144930334Y-108787633D01*
X144942281Y-108845399D01*
X144974520Y-108964536D01*
X145021652Y-109125739D01*
X145060621Y-109253300D01*
X145190908Y-109672667D01*
X145361666Y-109672667D01*
X145470000Y-109669099D01*
X145514614Y-109645348D01*
X145516455Y-109581842D01*
X145508910Y-109535084D01*
X145493651Y-109424842D01*
X145475508Y-109263503D01*
X145458203Y-109084375D01*
X145456892Y-109069417D01*
X145428387Y-108741334D01*
X145179360Y-108741334D01*
X145032087Y-108748731D01*
G36*
X152271087Y-108748731D02*
G01*
X152185426Y-108769206D01*
X152169334Y-108787633D01*
X152181281Y-108845399D01*
X152213520Y-108964536D01*
X152260652Y-109125739D01*
X152299621Y-109253300D01*
X152429908Y-109672667D01*
X152600666Y-109672667D01*
X152709000Y-109669099D01*
X152753614Y-109645348D01*
X152755455Y-109581842D01*
X152747910Y-109535084D01*
X152732651Y-109424842D01*
X152714508Y-109263503D01*
X152697203Y-109084375D01*
X152695892Y-109069417D01*
X152667387Y-108741334D01*
X152418360Y-108741334D01*
X152271087Y-108748731D01*
X152271087Y-108748731D01*
G37*
X152271087Y-108748731D02*
X152185426Y-108769206D01*
X152169334Y-108787633D01*
X152181281Y-108845399D01*
X152213520Y-108964536D01*
X152260652Y-109125739D01*
X152299621Y-109253300D01*
X152429908Y-109672667D01*
X152600666Y-109672667D01*
X152709000Y-109669099D01*
X152753614Y-109645348D01*
X152755455Y-109581842D01*
X152747910Y-109535084D01*
X152732651Y-109424842D01*
X152714508Y-109263503D01*
X152697203Y-109084375D01*
X152695892Y-109069417D01*
X152667387Y-108741334D01*
X152418360Y-108741334D01*
X152271087Y-108748731D01*
G36*
X159852316Y-108762566D02*
G01*
X159831667Y-108793821D01*
X159843738Y-108856364D01*
X159876262Y-108979353D01*
X159923708Y-109142649D01*
X159960159Y-109261600D01*
X160088652Y-109672667D01*
X160413934Y-109672667D01*
X160395108Y-109492750D01*
X160380180Y-109350238D01*
X160361245Y-109169669D01*
X160347391Y-109037667D01*
X160318500Y-108762500D01*
X160075084Y-108749804D01*
X159928847Y-108747739D01*
X159852316Y-108762566D01*
X159852316Y-108762566D01*
G37*
X159852316Y-108762566D02*
X159831667Y-108793821D01*
X159843738Y-108856364D01*
X159876262Y-108979353D01*
X159923708Y-109142649D01*
X159960159Y-109261600D01*
X160088652Y-109672667D01*
X160413934Y-109672667D01*
X160395108Y-109492750D01*
X160380180Y-109350238D01*
X160361245Y-109169669D01*
X160347391Y-109037667D01*
X160318500Y-108762500D01*
X160075084Y-108749804D01*
X159928847Y-108747739D01*
X159852316Y-108762566D01*
G36*
X139035417Y-104006497D02*
G01*
X138837411Y-104017119D01*
X138700804Y-104034644D01*
X138602349Y-104064134D01*
X138518800Y-104110652D01*
X138501317Y-104122812D01*
X138406809Y-104198821D01*
X138334166Y-104283024D01*
X138280584Y-104387293D01*
X138243264Y-104523498D01*
X138219402Y-104703510D01*
X138206198Y-104939201D01*
X138200848Y-105242440D01*
X138200264Y-105398325D01*
X138199334Y-106225151D01*
X137945334Y-106476500D01*
X137829011Y-106597346D01*
X137740705Y-106700007D01*
X137694758Y-106767394D01*
X137691334Y-106779184D01*
X137721371Y-106829575D01*
X137800969Y-106916885D01*
X137914362Y-107024179D01*
X137942599Y-107049063D01*
X138193863Y-107267606D01*
X138207182Y-108276643D01*
X138212153Y-108614950D01*
X138218917Y-108879883D01*
X138230252Y-109082729D01*
X138248934Y-109234773D01*
X138277738Y-109347303D01*
X138319442Y-109431606D01*
X138376822Y-109498967D01*
X138452654Y-109560675D01*
X138537570Y-109619750D01*
X138619956Y-109667307D01*
X138711371Y-109696097D01*
X138835632Y-109710507D01*
X139016561Y-109714927D01*
X139054580Y-109715000D01*
X139431639Y-109715000D01*
X139418737Y-109514554D01*
X139405834Y-109314107D01*
X139225803Y-109327299D01*
X139024767Y-109320431D01*
X138856554Y-109273544D01*
X138740236Y-109193618D01*
X138704708Y-109136595D01*
X138693066Y-109064652D01*
X138682773Y-108921952D01*
X138674358Y-108722401D01*
X138668352Y-108479905D01*
X138665285Y-108208368D01*
X138665000Y-108095552D01*
X138665000Y-107158948D01*
X138446515Y-106957032D01*
X138228029Y-106755115D01*
X138330098Y-106670133D01*
X138411194Y-106610022D01*
X138464169Y-106583763D01*
X138464539Y-106583742D01*
X138505416Y-106550080D01*
X138565845Y-106468499D01*
X138580798Y-106444750D01*
X138609924Y-106390192D01*
X138631462Y-106327073D01*
X138646542Y-106242394D01*
X138656291Y-106123160D01*
X138661839Y-105956372D01*
X138664313Y-105729035D01*
X138664842Y-105476793D01*
X138665434Y-105189815D01*
X138667870Y-104974892D01*
X138673326Y-104819417D01*
X138682978Y-104710781D01*
X138698004Y-104636376D01*
X138719580Y-104583593D01*
X138748883Y-104539823D01*
X138752740Y-104534876D01*
X138807713Y-104475292D01*
X138871232Y-104441703D01*
X138968209Y-104426817D01*
X139123557Y-104423339D01*
X139133740Y-104423334D01*
X139427000Y-104423334D01*
X139427000Y-103991827D01*
X139035417Y-104006497D01*
X139035417Y-104006497D01*
G37*
X139035417Y-104006497D02*
X138837411Y-104017119D01*
X138700804Y-104034644D01*
X138602349Y-104064134D01*
X138518800Y-104110652D01*
X138501317Y-104122812D01*
X138406809Y-104198821D01*
X138334166Y-104283024D01*
X138280584Y-104387293D01*
X138243264Y-104523498D01*
X138219402Y-104703510D01*
X138206198Y-104939201D01*
X138200848Y-105242440D01*
X138200264Y-105398325D01*
X138199334Y-106225151D01*
X137945334Y-106476500D01*
X137829011Y-106597346D01*
X137740705Y-106700007D01*
X137694758Y-106767394D01*
X137691334Y-106779184D01*
X137721371Y-106829575D01*
X137800969Y-106916885D01*
X137914362Y-107024179D01*
X137942599Y-107049063D01*
X138193863Y-107267606D01*
X138207182Y-108276643D01*
X138212153Y-108614950D01*
X138218917Y-108879883D01*
X138230252Y-109082729D01*
X138248934Y-109234773D01*
X138277738Y-109347303D01*
X138319442Y-109431606D01*
X138376822Y-109498967D01*
X138452654Y-109560675D01*
X138537570Y-109619750D01*
X138619956Y-109667307D01*
X138711371Y-109696097D01*
X138835632Y-109710507D01*
X139016561Y-109714927D01*
X139054580Y-109715000D01*
X139431639Y-109715000D01*
X139418737Y-109514554D01*
X139405834Y-109314107D01*
X139225803Y-109327299D01*
X139024767Y-109320431D01*
X138856554Y-109273544D01*
X138740236Y-109193618D01*
X138704708Y-109136595D01*
X138693066Y-109064652D01*
X138682773Y-108921952D01*
X138674358Y-108722401D01*
X138668352Y-108479905D01*
X138665285Y-108208368D01*
X138665000Y-108095552D01*
X138665000Y-107158948D01*
X138446515Y-106957032D01*
X138228029Y-106755115D01*
X138330098Y-106670133D01*
X138411194Y-106610022D01*
X138464169Y-106583763D01*
X138464539Y-106583742D01*
X138505416Y-106550080D01*
X138565845Y-106468499D01*
X138580798Y-106444750D01*
X138609924Y-106390192D01*
X138631462Y-106327073D01*
X138646542Y-106242394D01*
X138656291Y-106123160D01*
X138661839Y-105956372D01*
X138664313Y-105729035D01*
X138664842Y-105476793D01*
X138665434Y-105189815D01*
X138667870Y-104974892D01*
X138673326Y-104819417D01*
X138682978Y-104710781D01*
X138698004Y-104636376D01*
X138719580Y-104583593D01*
X138748883Y-104539823D01*
X138752740Y-104534876D01*
X138807713Y-104475292D01*
X138871232Y-104441703D01*
X138968209Y-104426817D01*
X139123557Y-104423339D01*
X139133740Y-104423334D01*
X139427000Y-104423334D01*
X139427000Y-103991827D01*
X139035417Y-104006497D01*
G36*
X164657667Y-104423334D02*
G01*
X164950928Y-104423334D01*
X165110008Y-104426416D01*
X165209416Y-104440527D01*
X165274065Y-104472958D01*
X165328869Y-104531004D01*
X165331928Y-104534876D01*
X165362179Y-104578419D01*
X165384571Y-104629549D01*
X165400280Y-104700874D01*
X165410482Y-104805001D01*
X165416354Y-104954540D01*
X165419072Y-105162099D01*
X165419814Y-105440286D01*
X165419825Y-105476793D01*
X165420566Y-105766217D01*
X165423416Y-105983978D01*
X165429502Y-106143071D01*
X165439953Y-106256495D01*
X165455899Y-106337245D01*
X165478467Y-106398319D01*
X165503870Y-106444750D01*
X165565754Y-106533943D01*
X165613288Y-106581437D01*
X165620128Y-106583742D01*
X165672476Y-106609380D01*
X165753419Y-106669177D01*
X165754570Y-106670133D01*
X165856639Y-106755115D01*
X165638153Y-106957032D01*
X165419667Y-107158948D01*
X165419667Y-108095552D01*
X165417915Y-108374763D01*
X165413013Y-108630458D01*
X165405492Y-108848730D01*
X165395880Y-109015673D01*
X165384710Y-109117382D01*
X165379959Y-109136595D01*
X165301325Y-109232077D01*
X165160038Y-109298457D01*
X164975171Y-109328756D01*
X164858865Y-109327299D01*
X164678834Y-109314107D01*
X164665931Y-109514554D01*
X164653028Y-109715000D01*
X165025764Y-109714036D01*
X165280157Y-109703666D01*
X165460408Y-109673321D01*
X165535820Y-109645376D01*
X165648805Y-109563673D01*
X165752399Y-109448422D01*
X165768653Y-109424090D01*
X165799033Y-109371367D01*
X165822413Y-109315537D01*
X165839899Y-109244892D01*
X165852597Y-109147722D01*
X165861612Y-109012317D01*
X165868052Y-108826970D01*
X165873021Y-108579969D01*
X165877459Y-108272117D01*
X165890751Y-107273733D01*
X166142043Y-107052537D01*
X166260553Y-106942064D01*
X166348968Y-106847919D01*
X166391636Y-106787100D01*
X166393334Y-106779596D01*
X166364952Y-106727683D01*
X166289430Y-106634917D01*
X166181201Y-106518556D01*
X166142279Y-106479414D01*
X165891223Y-106230978D01*
X165877695Y-105330142D01*
X165872639Y-105029069D01*
X165866928Y-104800619D01*
X165859370Y-104632749D01*
X165848771Y-104513415D01*
X165833939Y-104430575D01*
X165813680Y-104372188D01*
X165786802Y-104326208D01*
X165776885Y-104312518D01*
X165668632Y-104183812D01*
X165558353Y-104097892D01*
X165424337Y-104045531D01*
X165244869Y-104017500D01*
X165056831Y-104006497D01*
X164657667Y-103991827D01*
X164657667Y-104423334D01*
X164657667Y-104423334D01*
G37*
X164657667Y-104423334D02*
X164950928Y-104423334D01*
X165110008Y-104426416D01*
X165209416Y-104440527D01*
X165274065Y-104472958D01*
X165328869Y-104531004D01*
X165331928Y-104534876D01*
X165362179Y-104578419D01*
X165384571Y-104629549D01*
X165400280Y-104700874D01*
X165410482Y-104805001D01*
X165416354Y-104954540D01*
X165419072Y-105162099D01*
X165419814Y-105440286D01*
X165419825Y-105476793D01*
X165420566Y-105766217D01*
X165423416Y-105983978D01*
X165429502Y-106143071D01*
X165439953Y-106256495D01*
X165455899Y-106337245D01*
X165478467Y-106398319D01*
X165503870Y-106444750D01*
X165565754Y-106533943D01*
X165613288Y-106581437D01*
X165620128Y-106583742D01*
X165672476Y-106609380D01*
X165753419Y-106669177D01*
X165754570Y-106670133D01*
X165856639Y-106755115D01*
X165638153Y-106957032D01*
X165419667Y-107158948D01*
X165419667Y-108095552D01*
X165417915Y-108374763D01*
X165413013Y-108630458D01*
X165405492Y-108848730D01*
X165395880Y-109015673D01*
X165384710Y-109117382D01*
X165379959Y-109136595D01*
X165301325Y-109232077D01*
X165160038Y-109298457D01*
X164975171Y-109328756D01*
X164858865Y-109327299D01*
X164678834Y-109314107D01*
X164665931Y-109514554D01*
X164653028Y-109715000D01*
X165025764Y-109714036D01*
X165280157Y-109703666D01*
X165460408Y-109673321D01*
X165535820Y-109645376D01*
X165648805Y-109563673D01*
X165752399Y-109448422D01*
X165768653Y-109424090D01*
X165799033Y-109371367D01*
X165822413Y-109315537D01*
X165839899Y-109244892D01*
X165852597Y-109147722D01*
X165861612Y-109012317D01*
X165868052Y-108826970D01*
X165873021Y-108579969D01*
X165877459Y-108272117D01*
X165890751Y-107273733D01*
X166142043Y-107052537D01*
X166260553Y-106942064D01*
X166348968Y-106847919D01*
X166391636Y-106787100D01*
X166393334Y-106779596D01*
X166364952Y-106727683D01*
X166289430Y-106634917D01*
X166181201Y-106518556D01*
X166142279Y-106479414D01*
X165891223Y-106230978D01*
X165877695Y-105330142D01*
X165872639Y-105029069D01*
X165866928Y-104800619D01*
X165859370Y-104632749D01*
X165848771Y-104513415D01*
X165833939Y-104430575D01*
X165813680Y-104372188D01*
X165786802Y-104326208D01*
X165776885Y-104312518D01*
X165668632Y-104183812D01*
X165558353Y-104097892D01*
X165424337Y-104045531D01*
X165244869Y-104017500D01*
X165056831Y-104006497D01*
X164657667Y-103991827D01*
X164657667Y-104423334D01*
D13*
X138166666Y-96452380D02*
X138166666Y-95452380D01*
X137595238Y-96452380D01*
X137595238Y-95452380D01*
X136547619Y-96452380D02*
X136880952Y-95976190D01*
X137119047Y-96452380D02*
X137119047Y-95452380D01*
X136738095Y-95452380D01*
X136642857Y-95500000D01*
X136595238Y-95547619D01*
X136547619Y-95642857D01*
X136547619Y-95785714D01*
X136595238Y-95880952D01*
X136642857Y-95928571D01*
X136738095Y-95976190D01*
X137119047Y-95976190D01*
X135785714Y-95928571D02*
X136119047Y-95928571D01*
X136119047Y-96452380D02*
X136119047Y-95452380D01*
X135642857Y-95452380D01*
X135309523Y-95547619D02*
X135261904Y-95500000D01*
X135166666Y-95452380D01*
X134928571Y-95452380D01*
X134833333Y-95500000D01*
X134785714Y-95547619D01*
X134738095Y-95642857D01*
X134738095Y-95738095D01*
X134785714Y-95880952D01*
X135357142Y-96452380D01*
X134738095Y-96452380D01*
X133880952Y-95785714D02*
X133880952Y-96452380D01*
X134119047Y-95404761D02*
X134357142Y-96119047D01*
X133738095Y-96119047D01*
X173222380Y-99364761D02*
X173317619Y-99412380D01*
X173508095Y-99412380D01*
X173603333Y-99364761D01*
X173650952Y-99317142D01*
X173698571Y-99221904D01*
X173698571Y-98936190D01*
X173650952Y-98840952D01*
X173603333Y-98793333D01*
X173508095Y-98745714D01*
X173317619Y-98745714D01*
X173222380Y-98793333D01*
X172650952Y-99412380D02*
X172746190Y-99364761D01*
X172793809Y-99317142D01*
X172841428Y-99221904D01*
X172841428Y-98936190D01*
X172793809Y-98840952D01*
X172746190Y-98793333D01*
X172650952Y-98745714D01*
X172508095Y-98745714D01*
X172412857Y-98793333D01*
X172365238Y-98840952D01*
X172317619Y-98936190D01*
X172317619Y-99221904D01*
X172365238Y-99317142D01*
X172412857Y-99364761D01*
X172508095Y-99412380D01*
X172650952Y-99412380D01*
X171889047Y-99412380D02*
X171889047Y-98745714D01*
X171889047Y-98840952D02*
X171841428Y-98793333D01*
X171746190Y-98745714D01*
X171603333Y-98745714D01*
X171508095Y-98793333D01*
X171460476Y-98888571D01*
X171460476Y-99412380D01*
X171460476Y-98888571D02*
X171412857Y-98793333D01*
X171317619Y-98745714D01*
X171174761Y-98745714D01*
X171079523Y-98793333D01*
X171031904Y-98888571D01*
X171031904Y-99412380D01*
X170555714Y-99412380D02*
X170555714Y-98745714D01*
X170555714Y-98840952D02*
X170508095Y-98793333D01*
X170412857Y-98745714D01*
X170270000Y-98745714D01*
X170174761Y-98793333D01*
X170127142Y-98888571D01*
X170127142Y-99412380D01*
X170127142Y-98888571D02*
X170079523Y-98793333D01*
X169984285Y-98745714D01*
X169841428Y-98745714D01*
X169746190Y-98793333D01*
X169698571Y-98888571D01*
X169698571Y-99412380D01*
X169270000Y-99364761D02*
X169174761Y-99412380D01*
X168984285Y-99412380D01*
X168889047Y-99364761D01*
X168841428Y-99269523D01*
X168841428Y-99221904D01*
X168889047Y-99126666D01*
X168984285Y-99079047D01*
X169127142Y-99079047D01*
X169222380Y-99031428D01*
X169270000Y-98936190D01*
X169270000Y-98888571D01*
X169222380Y-98793333D01*
X169127142Y-98745714D01*
X168984285Y-98745714D01*
X168889047Y-98793333D01*
M02*
