G04 #@! TF.GenerationSoftware,KiCad,Pcbnew,5.1.6*
G04 #@! TF.CreationDate,2020-07-08T06:17:30-04:00*
G04 #@! TF.ProjectId,VS_robot_receiver,56535f72-6f62-46f7-945f-726563656976,rev?*
G04 #@! TF.SameCoordinates,Original*
G04 #@! TF.FileFunction,Legend,Top*
G04 #@! TF.FilePolarity,Positive*
%FSLAX46Y46*%
G04 Gerber Fmt 4.6, Leading zero omitted, Abs format (unit mm)*
G04 Created by KiCad (PCBNEW 5.1.6) date 2020-07-08 06:17:30*
%MOMM*%
%LPD*%
G01*
G04 APERTURE LIST*
%ADD10C,0.100000*%
%ADD11C,0.125000*%
%ADD12C,0.300000*%
%ADD13C,0.120000*%
%ADD14C,0.150000*%
%ADD15C,0.160000*%
G04 APERTURE END LIST*
D10*
X162904761Y-110226190D02*
X163000000Y-110226190D01*
X163047619Y-110202380D01*
X163071428Y-110178571D01*
X163119047Y-110107142D01*
X163142857Y-110011904D01*
X163142857Y-109821428D01*
X163119047Y-109773809D01*
X163095238Y-109750000D01*
X163047619Y-109726190D01*
X162952380Y-109726190D01*
X162904761Y-109750000D01*
X162880952Y-109773809D01*
X162857142Y-109821428D01*
X162857142Y-109940476D01*
X162880952Y-109988095D01*
X162904761Y-110011904D01*
X162952380Y-110035714D01*
X163047619Y-110035714D01*
X163095238Y-110011904D01*
X163119047Y-109988095D01*
X163142857Y-109940476D01*
X162904761Y-94726190D02*
X162619047Y-94726190D01*
X162761904Y-94726190D02*
X162761904Y-94226190D01*
X162714285Y-94297619D01*
X162666666Y-94345238D01*
X162619047Y-94369047D01*
X163214285Y-94226190D02*
X163261904Y-94226190D01*
X163309523Y-94250000D01*
X163333333Y-94273809D01*
X163357142Y-94321428D01*
X163380952Y-94416666D01*
X163380952Y-94535714D01*
X163357142Y-94630952D01*
X163333333Y-94678571D01*
X163309523Y-94702380D01*
X163261904Y-94726190D01*
X163214285Y-94726190D01*
X163166666Y-94702380D01*
X163142857Y-94678571D01*
X163119047Y-94630952D01*
X163095238Y-94535714D01*
X163095238Y-94416666D01*
X163119047Y-94321428D01*
X163142857Y-94273809D01*
X163166666Y-94250000D01*
X163214285Y-94226190D01*
X132416666Y-111726190D02*
X132702380Y-111726190D01*
X132559523Y-112226190D02*
X132559523Y-111726190D01*
X132821428Y-112226190D02*
X133083333Y-111892857D01*
X132821428Y-111892857D02*
X133083333Y-112226190D01*
X133369047Y-111726190D02*
X133416666Y-111726190D01*
X133464285Y-111750000D01*
X133488095Y-111773809D01*
X133511904Y-111821428D01*
X133535714Y-111916666D01*
X133535714Y-112035714D01*
X133511904Y-112130952D01*
X133488095Y-112178571D01*
X133464285Y-112202380D01*
X133416666Y-112226190D01*
X133369047Y-112226190D01*
X133321428Y-112202380D01*
X133297619Y-112178571D01*
X133273809Y-112130952D01*
X133250000Y-112035714D01*
X133250000Y-111916666D01*
X133273809Y-111821428D01*
X133297619Y-111773809D01*
X133321428Y-111750000D01*
X133369047Y-111726190D01*
X174095238Y-105226190D02*
X174000000Y-105226190D01*
X173952380Y-105250000D01*
X173928571Y-105273809D01*
X173880952Y-105345238D01*
X173857142Y-105440476D01*
X173857142Y-105630952D01*
X173880952Y-105678571D01*
X173904761Y-105702380D01*
X173952380Y-105726190D01*
X174047619Y-105726190D01*
X174095238Y-105702380D01*
X174119047Y-105678571D01*
X174142857Y-105630952D01*
X174142857Y-105511904D01*
X174119047Y-105464285D01*
X174095238Y-105440476D01*
X174047619Y-105416666D01*
X173952380Y-105416666D01*
X173904761Y-105440476D01*
X173880952Y-105464285D01*
X173857142Y-105511904D01*
X173833333Y-107726190D02*
X174166666Y-107726190D01*
X173952380Y-108226190D01*
X173619047Y-110750000D02*
X173571428Y-110726190D01*
X173500000Y-110726190D01*
X173428571Y-110750000D01*
X173380952Y-110797619D01*
X173357142Y-110845238D01*
X173333333Y-110940476D01*
X173333333Y-111011904D01*
X173357142Y-111107142D01*
X173380952Y-111154761D01*
X173428571Y-111202380D01*
X173500000Y-111226190D01*
X173547619Y-111226190D01*
X173619047Y-111202380D01*
X173642857Y-111178571D01*
X173642857Y-111011904D01*
X173547619Y-111011904D01*
X173857142Y-111226190D02*
X173857142Y-110726190D01*
X174142857Y-111226190D01*
X174142857Y-110726190D01*
X174380952Y-111226190D02*
X174380952Y-110726190D01*
X174500000Y-110726190D01*
X174571428Y-110750000D01*
X174619047Y-110797619D01*
X174642857Y-110845238D01*
X174666666Y-110940476D01*
X174666666Y-111011904D01*
X174642857Y-111107142D01*
X174619047Y-111154761D01*
X174571428Y-111202380D01*
X174500000Y-111226190D01*
X174380952Y-111226190D01*
X166619047Y-110750000D02*
X166571428Y-110726190D01*
X166500000Y-110726190D01*
X166428571Y-110750000D01*
X166380952Y-110797619D01*
X166357142Y-110845238D01*
X166333333Y-110940476D01*
X166333333Y-111011904D01*
X166357142Y-111107142D01*
X166380952Y-111154761D01*
X166428571Y-111202380D01*
X166500000Y-111226190D01*
X166547619Y-111226190D01*
X166619047Y-111202380D01*
X166642857Y-111178571D01*
X166642857Y-111011904D01*
X166547619Y-111011904D01*
X166857142Y-111226190D02*
X166857142Y-110726190D01*
X167142857Y-111226190D01*
X167142857Y-110726190D01*
X167380952Y-111226190D02*
X167380952Y-110726190D01*
X167500000Y-110726190D01*
X167571428Y-110750000D01*
X167619047Y-110797619D01*
X167642857Y-110845238D01*
X167666666Y-110940476D01*
X167666666Y-111011904D01*
X167642857Y-111107142D01*
X167619047Y-111154761D01*
X167571428Y-111202380D01*
X167500000Y-111226190D01*
X167380952Y-111226190D01*
X173904761Y-102726190D02*
X173666666Y-102726190D01*
X173642857Y-102964285D01*
X173666666Y-102940476D01*
X173714285Y-102916666D01*
X173833333Y-102916666D01*
X173880952Y-102940476D01*
X173904761Y-102964285D01*
X173928571Y-103011904D01*
X173928571Y-103130952D01*
X173904761Y-103178571D01*
X173880952Y-103202380D01*
X173833333Y-103226190D01*
X173714285Y-103226190D01*
X173666666Y-103202380D01*
X173642857Y-103178571D01*
X174071428Y-102726190D02*
X174238095Y-103226190D01*
X174404761Y-102726190D01*
D11*
X166952380Y-107940476D02*
X166904761Y-107916666D01*
X166880952Y-107892857D01*
X166857142Y-107845238D01*
X166857142Y-107821428D01*
X166880952Y-107773809D01*
X166904761Y-107750000D01*
X166952380Y-107726190D01*
X167047619Y-107726190D01*
X167095238Y-107750000D01*
X167119047Y-107773809D01*
X167142857Y-107821428D01*
X167142857Y-107845238D01*
X167119047Y-107892857D01*
X167095238Y-107916666D01*
X167047619Y-107940476D01*
X166952380Y-107940476D01*
X166904761Y-107964285D01*
X166880952Y-107988095D01*
X166857142Y-108035714D01*
X166857142Y-108130952D01*
X166880952Y-108178571D01*
X166904761Y-108202380D01*
X166952380Y-108226190D01*
X167047619Y-108226190D01*
X167095238Y-108202380D01*
X167119047Y-108178571D01*
X167142857Y-108130952D01*
X167142857Y-108035714D01*
X167119047Y-107988095D01*
X167095238Y-107964285D01*
X167047619Y-107940476D01*
D10*
X166904761Y-105726190D02*
X167000000Y-105726190D01*
X167047619Y-105702380D01*
X167071428Y-105678571D01*
X167119047Y-105607142D01*
X167142857Y-105511904D01*
X167142857Y-105321428D01*
X167119047Y-105273809D01*
X167095238Y-105250000D01*
X167047619Y-105226190D01*
X166952380Y-105226190D01*
X166904761Y-105250000D01*
X166880952Y-105273809D01*
X166857142Y-105321428D01*
X166857142Y-105440476D01*
X166880952Y-105488095D01*
X166904761Y-105511904D01*
X166952380Y-105535714D01*
X167047619Y-105535714D01*
X167095238Y-105511904D01*
X167119047Y-105488095D01*
X167142857Y-105440476D01*
X167119047Y-102726190D02*
X166880952Y-102726190D01*
X166857142Y-102964285D01*
X166880952Y-102940476D01*
X166928571Y-102916666D01*
X167047619Y-102916666D01*
X167095238Y-102940476D01*
X167119047Y-102964285D01*
X167142857Y-103011904D01*
X167142857Y-103130952D01*
X167119047Y-103178571D01*
X167095238Y-103202380D01*
X167047619Y-103226190D01*
X166928571Y-103226190D01*
X166880952Y-103202380D01*
X166857142Y-103178571D01*
D12*
X167785714Y-94107142D02*
X168928571Y-94107142D01*
X173071428Y-94107142D02*
X174214285Y-94107142D01*
X173642857Y-94678571D02*
X173642857Y-93535714D01*
D10*
X135476190Y-95226190D02*
X135476190Y-94892857D01*
X135476190Y-94988095D02*
X135500000Y-94940476D01*
X135523809Y-94916666D01*
X135571428Y-94892857D01*
X135619047Y-94892857D01*
X136000000Y-95226190D02*
X136000000Y-94964285D01*
X135976190Y-94916666D01*
X135928571Y-94892857D01*
X135833333Y-94892857D01*
X135785714Y-94916666D01*
X136000000Y-95202380D02*
X135952380Y-95226190D01*
X135833333Y-95226190D01*
X135785714Y-95202380D01*
X135761904Y-95154761D01*
X135761904Y-95107142D01*
X135785714Y-95059523D01*
X135833333Y-95035714D01*
X135952380Y-95035714D01*
X136000000Y-95011904D01*
X136190476Y-94892857D02*
X136285714Y-95226190D01*
X136380952Y-94988095D01*
X136476190Y-95226190D01*
X136571428Y-94892857D01*
D13*
X169710000Y-97080000D02*
X169710000Y-97236000D01*
X169710000Y-94764000D02*
X169710000Y-94920000D01*
X172942335Y-94921392D02*
G75*
G03*
X169710000Y-94764484I-1672335J-1078608D01*
G01*
X172942335Y-97078608D02*
G75*
G02*
X169710000Y-97235516I-1672335J1078608D01*
G01*
X172311130Y-94920163D02*
G75*
G03*
X170229039Y-94920000I-1041130J-1079837D01*
G01*
X172311130Y-97079837D02*
G75*
G02*
X170229039Y-97080000I-1041130J1079837D01*
G01*
X172000000Y-101670000D02*
X173330000Y-101670000D01*
X173330000Y-101670000D02*
X173330000Y-103000000D01*
X170730000Y-101670000D02*
X170730000Y-104270000D01*
X170730000Y-104270000D02*
X173330000Y-104270000D01*
X173330000Y-104270000D02*
X173330000Y-111950000D01*
X168130000Y-111950000D02*
X173330000Y-111950000D01*
X168130000Y-101670000D02*
X168130000Y-111950000D01*
X168130000Y-101670000D02*
X170730000Y-101670000D01*
D14*
X131274000Y-95610000D02*
X164040000Y-95610000D01*
X164040000Y-113644000D02*
X131274000Y-113644000D01*
X131274000Y-95610000D02*
X131274000Y-113644000D01*
X164040000Y-113644000D02*
X164040000Y-95610000D01*
D13*
X164410000Y-101610000D02*
X164740000Y-101610000D01*
X164410000Y-95070000D02*
X164410000Y-101610000D01*
X164740000Y-95070000D02*
X164410000Y-95070000D01*
X167150000Y-101610000D02*
X166820000Y-101610000D01*
X167150000Y-95070000D02*
X167150000Y-101610000D01*
X166820000Y-95070000D02*
X167150000Y-95070000D01*
D14*
X169317619Y-99364761D02*
X169222380Y-99412380D01*
X169031904Y-99412380D01*
X168936666Y-99364761D01*
X168889047Y-99317142D01*
X168841428Y-99221904D01*
X168841428Y-98936190D01*
X168889047Y-98840952D01*
X168936666Y-98793333D01*
X169031904Y-98745714D01*
X169222380Y-98745714D01*
X169317619Y-98793333D01*
X169889047Y-99412380D02*
X169793809Y-99364761D01*
X169746190Y-99317142D01*
X169698571Y-99221904D01*
X169698571Y-98936190D01*
X169746190Y-98840952D01*
X169793809Y-98793333D01*
X169889047Y-98745714D01*
X170031904Y-98745714D01*
X170127142Y-98793333D01*
X170174761Y-98840952D01*
X170222380Y-98936190D01*
X170222380Y-99221904D01*
X170174761Y-99317142D01*
X170127142Y-99364761D01*
X170031904Y-99412380D01*
X169889047Y-99412380D01*
X170650952Y-99412380D02*
X170650952Y-98745714D01*
X170650952Y-98840952D02*
X170698571Y-98793333D01*
X170793809Y-98745714D01*
X170936666Y-98745714D01*
X171031904Y-98793333D01*
X171079523Y-98888571D01*
X171079523Y-99412380D01*
X171079523Y-98888571D02*
X171127142Y-98793333D01*
X171222380Y-98745714D01*
X171365238Y-98745714D01*
X171460476Y-98793333D01*
X171508095Y-98888571D01*
X171508095Y-99412380D01*
X171984285Y-99412380D02*
X171984285Y-98745714D01*
X171984285Y-98840952D02*
X172031904Y-98793333D01*
X172127142Y-98745714D01*
X172270000Y-98745714D01*
X172365238Y-98793333D01*
X172412857Y-98888571D01*
X172412857Y-99412380D01*
X172412857Y-98888571D02*
X172460476Y-98793333D01*
X172555714Y-98745714D01*
X172698571Y-98745714D01*
X172793809Y-98793333D01*
X172841428Y-98888571D01*
X172841428Y-99412380D01*
X173270000Y-99364761D02*
X173365238Y-99412380D01*
X173555714Y-99412380D01*
X173650952Y-99364761D01*
X173698571Y-99269523D01*
X173698571Y-99221904D01*
X173650952Y-99126666D01*
X173555714Y-99079047D01*
X173412857Y-99079047D01*
X173317619Y-99031428D01*
X173270000Y-98936190D01*
X173270000Y-98888571D01*
X173317619Y-98793333D01*
X173412857Y-98745714D01*
X173555714Y-98745714D01*
X173650952Y-98793333D01*
X168325238Y-113452380D02*
X168230000Y-113404761D01*
X168182380Y-113357142D01*
X168134761Y-113261904D01*
X168134761Y-112976190D01*
X168182380Y-112880952D01*
X168230000Y-112833333D01*
X168325238Y-112785714D01*
X168468095Y-112785714D01*
X168563333Y-112833333D01*
X168610952Y-112880952D01*
X168658571Y-112976190D01*
X168658571Y-113261904D01*
X168610952Y-113357142D01*
X168563333Y-113404761D01*
X168468095Y-113452380D01*
X168325238Y-113452380D01*
X169515714Y-112785714D02*
X169515714Y-113452380D01*
X169087142Y-112785714D02*
X169087142Y-113309523D01*
X169134761Y-113404761D01*
X169230000Y-113452380D01*
X169372857Y-113452380D01*
X169468095Y-113404761D01*
X169515714Y-113357142D01*
X169849047Y-112785714D02*
X170230000Y-112785714D01*
X169991904Y-112452380D02*
X169991904Y-113309523D01*
X170039523Y-113404761D01*
X170134761Y-113452380D01*
X170230000Y-113452380D01*
X170563333Y-112785714D02*
X170563333Y-113785714D01*
X170563333Y-112833333D02*
X170658571Y-112785714D01*
X170849047Y-112785714D01*
X170944285Y-112833333D01*
X170991904Y-112880952D01*
X171039523Y-112976190D01*
X171039523Y-113261904D01*
X170991904Y-113357142D01*
X170944285Y-113404761D01*
X170849047Y-113452380D01*
X170658571Y-113452380D01*
X170563333Y-113404761D01*
X171896666Y-112785714D02*
X171896666Y-113452380D01*
X171468095Y-112785714D02*
X171468095Y-113309523D01*
X171515714Y-113404761D01*
X171610952Y-113452380D01*
X171753809Y-113452380D01*
X171849047Y-113404761D01*
X171896666Y-113357142D01*
X172230000Y-112785714D02*
X172610952Y-112785714D01*
X172372857Y-112452380D02*
X172372857Y-113309523D01*
X172420476Y-113404761D01*
X172515714Y-113452380D01*
X172610952Y-113452380D01*
X172896666Y-113404761D02*
X172991904Y-113452380D01*
X173182380Y-113452380D01*
X173277619Y-113404761D01*
X173325238Y-113309523D01*
X173325238Y-113261904D01*
X173277619Y-113166666D01*
X173182380Y-113119047D01*
X173039523Y-113119047D01*
X172944285Y-113071428D01*
X172896666Y-112976190D01*
X172896666Y-112928571D01*
X172944285Y-112833333D01*
X173039523Y-112785714D01*
X173182380Y-112785714D01*
X173277619Y-112833333D01*
D15*
X143400000Y-109861904D02*
X143400000Y-109061904D01*
X143704761Y-109061904D01*
X143780952Y-109100000D01*
X143819047Y-109138095D01*
X143857142Y-109214285D01*
X143857142Y-109328571D01*
X143819047Y-109404761D01*
X143780952Y-109442857D01*
X143704761Y-109480952D01*
X143400000Y-109480952D01*
X144200000Y-109861904D02*
X144200000Y-109328571D01*
X144200000Y-109480952D02*
X144238095Y-109404761D01*
X144276190Y-109366666D01*
X144352380Y-109328571D01*
X144428571Y-109328571D01*
X144809523Y-109861904D02*
X144733333Y-109823809D01*
X144695238Y-109785714D01*
X144657142Y-109709523D01*
X144657142Y-109480952D01*
X144695238Y-109404761D01*
X144733333Y-109366666D01*
X144809523Y-109328571D01*
X144923809Y-109328571D01*
X145000000Y-109366666D01*
X145038095Y-109404761D01*
X145076190Y-109480952D01*
X145076190Y-109709523D01*
X145038095Y-109785714D01*
X145000000Y-109823809D01*
X144923809Y-109861904D01*
X144809523Y-109861904D01*
X146028571Y-109861904D02*
X146028571Y-109328571D01*
X146028571Y-109404761D02*
X146066666Y-109366666D01*
X146142857Y-109328571D01*
X146257142Y-109328571D01*
X146333333Y-109366666D01*
X146371428Y-109442857D01*
X146371428Y-109861904D01*
X146371428Y-109442857D02*
X146409523Y-109366666D01*
X146485714Y-109328571D01*
X146600000Y-109328571D01*
X146676190Y-109366666D01*
X146714285Y-109442857D01*
X146714285Y-109861904D01*
X147095238Y-109861904D02*
X147095238Y-109328571D01*
X147095238Y-109061904D02*
X147057142Y-109100000D01*
X147095238Y-109138095D01*
X147133333Y-109100000D01*
X147095238Y-109061904D01*
X147095238Y-109138095D01*
X147476190Y-109328571D02*
X147476190Y-109861904D01*
X147476190Y-109404761D02*
X147514285Y-109366666D01*
X147590476Y-109328571D01*
X147704761Y-109328571D01*
X147780952Y-109366666D01*
X147819047Y-109442857D01*
X147819047Y-109861904D01*
X148200000Y-109861904D02*
X148200000Y-109328571D01*
X148200000Y-109061904D02*
X148161904Y-109100000D01*
X148200000Y-109138095D01*
X148238095Y-109100000D01*
X148200000Y-109061904D01*
X148200000Y-109138095D01*
D10*
X165566190Y-99717142D02*
X165566190Y-99812380D01*
X165590000Y-99860000D01*
X165613809Y-99883809D01*
X165685238Y-99931428D01*
X165780476Y-99955238D01*
X165970952Y-99955238D01*
X166018571Y-99931428D01*
X166042380Y-99907619D01*
X166066190Y-99860000D01*
X166066190Y-99764761D01*
X166042380Y-99717142D01*
X166018571Y-99693333D01*
X165970952Y-99669523D01*
X165851904Y-99669523D01*
X165804285Y-99693333D01*
X165780476Y-99717142D01*
X165756666Y-99764761D01*
X165756666Y-99860000D01*
X165780476Y-99907619D01*
X165804285Y-99931428D01*
X165851904Y-99955238D01*
X165566190Y-99360000D02*
X165566190Y-99312380D01*
X165590000Y-99264761D01*
X165613809Y-99240952D01*
X165661428Y-99217142D01*
X165756666Y-99193333D01*
X165875714Y-99193333D01*
X165970952Y-99217142D01*
X166018571Y-99240952D01*
X166042380Y-99264761D01*
X166066190Y-99312380D01*
X166066190Y-99360000D01*
X166042380Y-99407619D01*
X166018571Y-99431428D01*
X165970952Y-99455238D01*
X165875714Y-99479047D01*
X165756666Y-99479047D01*
X165661428Y-99455238D01*
X165613809Y-99431428D01*
X165590000Y-99407619D01*
X165566190Y-99360000D01*
X165566190Y-98883809D02*
X165566190Y-98836190D01*
X165590000Y-98788571D01*
X165613809Y-98764761D01*
X165661428Y-98740952D01*
X165756666Y-98717142D01*
X165875714Y-98717142D01*
X165970952Y-98740952D01*
X166018571Y-98764761D01*
X166042380Y-98788571D01*
X166066190Y-98836190D01*
X166066190Y-98883809D01*
X166042380Y-98931428D01*
X166018571Y-98955238D01*
X165970952Y-98979047D01*
X165875714Y-99002857D01*
X165756666Y-99002857D01*
X165661428Y-98979047D01*
X165613809Y-98955238D01*
X165590000Y-98931428D01*
X165566190Y-98883809D01*
X166066190Y-98050476D02*
X166042380Y-98098095D01*
X166018571Y-98121904D01*
X165970952Y-98145714D01*
X165828095Y-98145714D01*
X165780476Y-98121904D01*
X165756666Y-98098095D01*
X165732857Y-98050476D01*
X165732857Y-97979047D01*
X165756666Y-97931428D01*
X165780476Y-97907619D01*
X165828095Y-97883809D01*
X165970952Y-97883809D01*
X166018571Y-97907619D01*
X166042380Y-97931428D01*
X166066190Y-97979047D01*
X166066190Y-98050476D01*
X166066190Y-97669523D02*
X165566190Y-97669523D01*
X166066190Y-97455238D02*
X165804285Y-97455238D01*
X165756666Y-97479047D01*
X165732857Y-97526666D01*
X165732857Y-97598095D01*
X165756666Y-97645714D01*
X165780476Y-97669523D01*
X166066190Y-97217142D02*
X165732857Y-97217142D01*
X165780476Y-97217142D02*
X165756666Y-97193333D01*
X165732857Y-97145714D01*
X165732857Y-97074285D01*
X165756666Y-97026666D01*
X165804285Y-97002857D01*
X166066190Y-97002857D01*
X165804285Y-97002857D02*
X165756666Y-96979047D01*
X165732857Y-96931428D01*
X165732857Y-96860000D01*
X165756666Y-96812380D01*
X165804285Y-96788571D01*
X166066190Y-96788571D01*
M02*
