G04 #@! TF.GenerationSoftware,KiCad,Pcbnew,5.1.6*
G04 #@! TF.CreationDate,2020-07-08T06:17:30-04:00*
G04 #@! TF.ProjectId,VS_robot_receiver,56535f72-6f62-46f7-945f-726563656976,rev?*
G04 #@! TF.SameCoordinates,Original*
G04 #@! TF.FileFunction,Soldermask,Bot*
G04 #@! TF.FilePolarity,Negative*
%FSLAX46Y46*%
G04 Gerber Fmt 4.6, Leading zero omitted, Abs format (unit mm)*
G04 Created by KiCad (PCBNEW 5.1.6) date 2020-07-08 06:17:30*
%MOMM*%
%LPD*%
G01*
G04 APERTURE LIST*
%ADD10C,0.100000*%
G04 APERTURE END LIST*
D10*
G36*
X134987134Y-110980778D02*
G01*
X135138231Y-111026613D01*
X135277482Y-111101044D01*
X135399538Y-111201212D01*
X135499706Y-111323267D01*
X135574137Y-111462518D01*
X135619972Y-111613615D01*
X135631570Y-111731375D01*
X135631570Y-112508625D01*
X135619972Y-112626385D01*
X135574137Y-112777482D01*
X135499706Y-112916733D01*
X135399538Y-113038788D01*
X135277483Y-113138956D01*
X135138232Y-113213387D01*
X134987135Y-113259222D01*
X134830000Y-113274698D01*
X134672866Y-113259222D01*
X134521769Y-113213387D01*
X134382518Y-113138956D01*
X134260463Y-113038788D01*
X134160295Y-112916733D01*
X134085864Y-112777482D01*
X134085863Y-112777481D01*
X134040028Y-112626386D01*
X134028430Y-112508626D01*
X134028430Y-111731375D01*
X134040028Y-111613618D01*
X134040028Y-111613616D01*
X134085863Y-111462519D01*
X134160294Y-111323268D01*
X134260462Y-111201212D01*
X134382517Y-111101044D01*
X134521768Y-111026613D01*
X134672865Y-110980778D01*
X134830000Y-110965302D01*
X134987134Y-110980778D01*
G37*
G36*
X160387134Y-110980778D02*
G01*
X160538231Y-111026613D01*
X160677482Y-111101044D01*
X160799538Y-111201212D01*
X160899706Y-111323267D01*
X160974137Y-111462518D01*
X161019972Y-111613615D01*
X161031570Y-111731375D01*
X161031570Y-112508625D01*
X161019972Y-112626385D01*
X160974137Y-112777482D01*
X160899706Y-112916733D01*
X160799538Y-113038788D01*
X160677483Y-113138956D01*
X160538232Y-113213387D01*
X160387135Y-113259222D01*
X160230000Y-113274698D01*
X160072866Y-113259222D01*
X159921769Y-113213387D01*
X159782518Y-113138956D01*
X159660463Y-113038788D01*
X159560295Y-112916733D01*
X159485864Y-112777482D01*
X159485863Y-112777481D01*
X159440028Y-112626386D01*
X159428430Y-112508626D01*
X159428430Y-111731375D01*
X159440028Y-111613618D01*
X159440028Y-111613616D01*
X159485863Y-111462519D01*
X159560294Y-111323268D01*
X159660462Y-111201212D01*
X159782517Y-111101044D01*
X159921768Y-111026613D01*
X160072865Y-110980778D01*
X160230000Y-110965302D01*
X160387134Y-110980778D01*
G37*
G36*
X162927134Y-110980778D02*
G01*
X163078231Y-111026613D01*
X163217482Y-111101044D01*
X163339538Y-111201212D01*
X163439706Y-111323267D01*
X163514137Y-111462518D01*
X163559972Y-111613615D01*
X163571570Y-111731375D01*
X163571570Y-112508625D01*
X163559972Y-112626385D01*
X163514137Y-112777482D01*
X163439706Y-112916733D01*
X163339538Y-113038788D01*
X163217483Y-113138956D01*
X163078232Y-113213387D01*
X162927135Y-113259222D01*
X162770000Y-113274698D01*
X162612866Y-113259222D01*
X162461769Y-113213387D01*
X162322518Y-113138956D01*
X162200463Y-113038788D01*
X162100295Y-112916733D01*
X162025864Y-112777482D01*
X162025863Y-112777481D01*
X161980028Y-112626386D01*
X161968430Y-112508626D01*
X161968430Y-111731375D01*
X161980028Y-111613618D01*
X161980028Y-111613616D01*
X162025863Y-111462519D01*
X162100294Y-111323268D01*
X162200462Y-111201212D01*
X162322517Y-111101044D01*
X162461768Y-111026613D01*
X162612865Y-110980778D01*
X162770000Y-110965302D01*
X162927134Y-110980778D01*
G37*
G36*
X157847134Y-110980778D02*
G01*
X157998231Y-111026613D01*
X158137482Y-111101044D01*
X158259538Y-111201212D01*
X158359706Y-111323267D01*
X158434137Y-111462518D01*
X158479972Y-111613615D01*
X158491570Y-111731375D01*
X158491570Y-112508625D01*
X158479972Y-112626385D01*
X158434137Y-112777482D01*
X158359706Y-112916733D01*
X158259538Y-113038788D01*
X158137483Y-113138956D01*
X157998232Y-113213387D01*
X157847135Y-113259222D01*
X157690000Y-113274698D01*
X157532866Y-113259222D01*
X157381769Y-113213387D01*
X157242518Y-113138956D01*
X157120463Y-113038788D01*
X157020295Y-112916733D01*
X156945864Y-112777482D01*
X156945863Y-112777481D01*
X156900028Y-112626386D01*
X156888430Y-112508626D01*
X156888430Y-111731375D01*
X156900028Y-111613618D01*
X156900028Y-111613616D01*
X156945863Y-111462519D01*
X157020294Y-111323268D01*
X157120462Y-111201212D01*
X157242517Y-111101044D01*
X157381768Y-111026613D01*
X157532865Y-110980778D01*
X157690000Y-110965302D01*
X157847134Y-110980778D01*
G37*
G36*
X155307134Y-110980778D02*
G01*
X155458231Y-111026613D01*
X155597482Y-111101044D01*
X155719538Y-111201212D01*
X155819706Y-111323267D01*
X155894137Y-111462518D01*
X155939972Y-111613615D01*
X155951570Y-111731375D01*
X155951570Y-112508625D01*
X155939972Y-112626385D01*
X155894137Y-112777482D01*
X155819706Y-112916733D01*
X155719538Y-113038788D01*
X155597483Y-113138956D01*
X155458232Y-113213387D01*
X155307135Y-113259222D01*
X155150000Y-113274698D01*
X154992866Y-113259222D01*
X154841769Y-113213387D01*
X154702518Y-113138956D01*
X154580463Y-113038788D01*
X154480295Y-112916733D01*
X154405864Y-112777482D01*
X154405863Y-112777481D01*
X154360028Y-112626386D01*
X154348430Y-112508626D01*
X154348430Y-111731375D01*
X154360028Y-111613618D01*
X154360028Y-111613616D01*
X154405863Y-111462519D01*
X154480294Y-111323268D01*
X154580462Y-111201212D01*
X154702517Y-111101044D01*
X154841768Y-111026613D01*
X154992865Y-110980778D01*
X155150000Y-110965302D01*
X155307134Y-110980778D01*
G37*
G36*
X152767134Y-110980778D02*
G01*
X152918231Y-111026613D01*
X153057482Y-111101044D01*
X153179538Y-111201212D01*
X153279706Y-111323267D01*
X153354137Y-111462518D01*
X153399972Y-111613615D01*
X153411570Y-111731375D01*
X153411570Y-112508625D01*
X153399972Y-112626385D01*
X153354137Y-112777482D01*
X153279706Y-112916733D01*
X153179538Y-113038788D01*
X153057483Y-113138956D01*
X152918232Y-113213387D01*
X152767135Y-113259222D01*
X152610000Y-113274698D01*
X152452866Y-113259222D01*
X152301769Y-113213387D01*
X152162518Y-113138956D01*
X152040463Y-113038788D01*
X151940295Y-112916733D01*
X151865864Y-112777482D01*
X151865863Y-112777481D01*
X151820028Y-112626386D01*
X151808430Y-112508626D01*
X151808430Y-111731375D01*
X151820028Y-111613618D01*
X151820028Y-111613616D01*
X151865863Y-111462519D01*
X151940294Y-111323268D01*
X152040462Y-111201212D01*
X152162517Y-111101044D01*
X152301768Y-111026613D01*
X152452865Y-110980778D01*
X152610000Y-110965302D01*
X152767134Y-110980778D01*
G37*
G36*
X150227134Y-110980778D02*
G01*
X150378231Y-111026613D01*
X150517482Y-111101044D01*
X150639538Y-111201212D01*
X150739706Y-111323267D01*
X150814137Y-111462518D01*
X150859972Y-111613615D01*
X150871570Y-111731375D01*
X150871570Y-112508625D01*
X150859972Y-112626385D01*
X150814137Y-112777482D01*
X150739706Y-112916733D01*
X150639538Y-113038788D01*
X150517483Y-113138956D01*
X150378232Y-113213387D01*
X150227135Y-113259222D01*
X150070000Y-113274698D01*
X149912866Y-113259222D01*
X149761769Y-113213387D01*
X149622518Y-113138956D01*
X149500463Y-113038788D01*
X149400295Y-112916733D01*
X149325864Y-112777482D01*
X149325863Y-112777481D01*
X149280028Y-112626386D01*
X149268430Y-112508626D01*
X149268430Y-111731375D01*
X149280028Y-111613618D01*
X149280028Y-111613616D01*
X149325863Y-111462519D01*
X149400294Y-111323268D01*
X149500462Y-111201212D01*
X149622517Y-111101044D01*
X149761768Y-111026613D01*
X149912865Y-110980778D01*
X150070000Y-110965302D01*
X150227134Y-110980778D01*
G37*
G36*
X145147134Y-110980778D02*
G01*
X145298231Y-111026613D01*
X145437482Y-111101044D01*
X145559538Y-111201212D01*
X145659706Y-111323267D01*
X145734137Y-111462518D01*
X145779972Y-111613615D01*
X145791570Y-111731375D01*
X145791570Y-112508625D01*
X145779972Y-112626385D01*
X145734137Y-112777482D01*
X145659706Y-112916733D01*
X145559538Y-113038788D01*
X145437483Y-113138956D01*
X145298232Y-113213387D01*
X145147135Y-113259222D01*
X144990000Y-113274698D01*
X144832866Y-113259222D01*
X144681769Y-113213387D01*
X144542518Y-113138956D01*
X144420463Y-113038788D01*
X144320295Y-112916733D01*
X144245864Y-112777482D01*
X144245863Y-112777481D01*
X144200028Y-112626386D01*
X144188430Y-112508626D01*
X144188430Y-111731375D01*
X144200028Y-111613618D01*
X144200028Y-111613616D01*
X144245863Y-111462519D01*
X144320294Y-111323268D01*
X144420462Y-111201212D01*
X144542517Y-111101044D01*
X144681768Y-111026613D01*
X144832865Y-110980778D01*
X144990000Y-110965302D01*
X145147134Y-110980778D01*
G37*
G36*
X142607134Y-110980778D02*
G01*
X142758231Y-111026613D01*
X142897482Y-111101044D01*
X143019538Y-111201212D01*
X143119706Y-111323267D01*
X143194137Y-111462518D01*
X143239972Y-111613615D01*
X143251570Y-111731375D01*
X143251570Y-112508625D01*
X143239972Y-112626385D01*
X143194137Y-112777482D01*
X143119706Y-112916733D01*
X143019538Y-113038788D01*
X142897483Y-113138956D01*
X142758232Y-113213387D01*
X142607135Y-113259222D01*
X142450000Y-113274698D01*
X142292866Y-113259222D01*
X142141769Y-113213387D01*
X142002518Y-113138956D01*
X141880463Y-113038788D01*
X141780295Y-112916733D01*
X141705864Y-112777482D01*
X141705863Y-112777481D01*
X141660028Y-112626386D01*
X141648430Y-112508626D01*
X141648430Y-111731375D01*
X141660028Y-111613618D01*
X141660028Y-111613616D01*
X141705863Y-111462519D01*
X141780294Y-111323268D01*
X141880462Y-111201212D01*
X142002517Y-111101044D01*
X142141768Y-111026613D01*
X142292865Y-110980778D01*
X142450000Y-110965302D01*
X142607134Y-110980778D01*
G37*
G36*
X140067134Y-110980778D02*
G01*
X140218231Y-111026613D01*
X140357482Y-111101044D01*
X140479538Y-111201212D01*
X140579706Y-111323267D01*
X140654137Y-111462518D01*
X140699972Y-111613615D01*
X140711570Y-111731375D01*
X140711570Y-112508625D01*
X140699972Y-112626385D01*
X140654137Y-112777482D01*
X140579706Y-112916733D01*
X140479538Y-113038788D01*
X140357483Y-113138956D01*
X140218232Y-113213387D01*
X140067135Y-113259222D01*
X139910000Y-113274698D01*
X139752866Y-113259222D01*
X139601769Y-113213387D01*
X139462518Y-113138956D01*
X139340463Y-113038788D01*
X139240295Y-112916733D01*
X139165864Y-112777482D01*
X139165863Y-112777481D01*
X139120028Y-112626386D01*
X139108430Y-112508626D01*
X139108430Y-111731375D01*
X139120028Y-111613618D01*
X139120028Y-111613616D01*
X139165863Y-111462519D01*
X139240294Y-111323268D01*
X139340462Y-111201212D01*
X139462517Y-111101044D01*
X139601768Y-111026613D01*
X139752865Y-110980778D01*
X139910000Y-110965302D01*
X140067134Y-110980778D01*
G37*
G36*
X137527134Y-110980778D02*
G01*
X137678231Y-111026613D01*
X137817482Y-111101044D01*
X137939538Y-111201212D01*
X138039706Y-111323267D01*
X138114137Y-111462518D01*
X138159972Y-111613615D01*
X138171570Y-111731375D01*
X138171570Y-112508625D01*
X138159972Y-112626385D01*
X138114137Y-112777482D01*
X138039706Y-112916733D01*
X137939538Y-113038788D01*
X137817483Y-113138956D01*
X137678232Y-113213387D01*
X137527135Y-113259222D01*
X137370000Y-113274698D01*
X137212866Y-113259222D01*
X137061769Y-113213387D01*
X136922518Y-113138956D01*
X136800463Y-113038788D01*
X136700295Y-112916733D01*
X136625864Y-112777482D01*
X136625863Y-112777481D01*
X136580028Y-112626386D01*
X136568430Y-112508626D01*
X136568430Y-111731375D01*
X136580028Y-111613618D01*
X136580028Y-111613616D01*
X136625863Y-111462519D01*
X136700294Y-111323268D01*
X136800462Y-111201212D01*
X136922517Y-111101044D01*
X137061768Y-111026613D01*
X137212865Y-110980778D01*
X137370000Y-110965302D01*
X137527134Y-110980778D01*
G37*
G36*
X147687134Y-110980778D02*
G01*
X147838231Y-111026613D01*
X147977482Y-111101044D01*
X148099538Y-111201212D01*
X148199706Y-111323267D01*
X148274137Y-111462518D01*
X148319972Y-111613615D01*
X148331570Y-111731375D01*
X148331570Y-112508625D01*
X148319972Y-112626385D01*
X148274137Y-112777482D01*
X148199706Y-112916733D01*
X148099538Y-113038788D01*
X147977483Y-113138956D01*
X147838232Y-113213387D01*
X147687135Y-113259222D01*
X147530000Y-113274698D01*
X147372866Y-113259222D01*
X147221769Y-113213387D01*
X147082518Y-113138956D01*
X146960463Y-113038788D01*
X146860295Y-112916733D01*
X146785864Y-112777482D01*
X146785863Y-112777481D01*
X146740028Y-112626386D01*
X146728430Y-112508626D01*
X146728430Y-111731375D01*
X146740028Y-111613618D01*
X146740028Y-111613616D01*
X146785863Y-111462519D01*
X146860294Y-111323268D01*
X146960462Y-111201212D01*
X147082517Y-111101044D01*
X147221768Y-111026613D01*
X147372865Y-110980778D01*
X147530000Y-110965302D01*
X147687134Y-110980778D01*
G37*
G36*
X169573512Y-109723927D02*
G01*
X169722812Y-109753624D01*
X169886784Y-109821544D01*
X170034354Y-109920147D01*
X170159853Y-110045646D01*
X170258456Y-110193216D01*
X170326376Y-110357188D01*
X170361000Y-110531259D01*
X170361000Y-110708741D01*
X170326376Y-110882812D01*
X170258456Y-111046784D01*
X170159853Y-111194354D01*
X170034354Y-111319853D01*
X169886784Y-111418456D01*
X169722812Y-111486376D01*
X169573512Y-111516073D01*
X169548742Y-111521000D01*
X169371258Y-111521000D01*
X169346488Y-111516073D01*
X169197188Y-111486376D01*
X169033216Y-111418456D01*
X168885646Y-111319853D01*
X168760147Y-111194354D01*
X168661544Y-111046784D01*
X168593624Y-110882812D01*
X168559000Y-110708741D01*
X168559000Y-110531259D01*
X168593624Y-110357188D01*
X168661544Y-110193216D01*
X168760147Y-110045646D01*
X168885646Y-109920147D01*
X169033216Y-109821544D01*
X169197188Y-109753624D01*
X169346488Y-109723927D01*
X169371258Y-109719000D01*
X169548742Y-109719000D01*
X169573512Y-109723927D01*
G37*
G36*
X172113512Y-109723927D02*
G01*
X172262812Y-109753624D01*
X172426784Y-109821544D01*
X172574354Y-109920147D01*
X172699853Y-110045646D01*
X172798456Y-110193216D01*
X172866376Y-110357188D01*
X172901000Y-110531259D01*
X172901000Y-110708741D01*
X172866376Y-110882812D01*
X172798456Y-111046784D01*
X172699853Y-111194354D01*
X172574354Y-111319853D01*
X172426784Y-111418456D01*
X172262812Y-111486376D01*
X172113512Y-111516073D01*
X172088742Y-111521000D01*
X171911258Y-111521000D01*
X171886488Y-111516073D01*
X171737188Y-111486376D01*
X171573216Y-111418456D01*
X171425646Y-111319853D01*
X171300147Y-111194354D01*
X171201544Y-111046784D01*
X171133624Y-110882812D01*
X171099000Y-110708741D01*
X171099000Y-110531259D01*
X171133624Y-110357188D01*
X171201544Y-110193216D01*
X171300147Y-110045646D01*
X171425646Y-109920147D01*
X171573216Y-109821544D01*
X171737188Y-109753624D01*
X171886488Y-109723927D01*
X171911258Y-109719000D01*
X172088742Y-109719000D01*
X172113512Y-109723927D01*
G37*
G36*
X134313000Y-109313000D02*
G01*
X132687000Y-109313000D01*
X132687000Y-107687000D01*
X134313000Y-107687000D01*
X134313000Y-109313000D01*
G37*
G36*
X136277142Y-107718242D02*
G01*
X136425101Y-107779529D01*
X136558255Y-107868499D01*
X136671501Y-107981745D01*
X136760471Y-108114899D01*
X136821758Y-108262858D01*
X136853000Y-108419925D01*
X136853000Y-108580075D01*
X136821758Y-108737142D01*
X136760471Y-108885101D01*
X136671501Y-109018255D01*
X136558255Y-109131501D01*
X136425101Y-109220471D01*
X136277142Y-109281758D01*
X136120075Y-109313000D01*
X135959925Y-109313000D01*
X135802858Y-109281758D01*
X135654899Y-109220471D01*
X135521745Y-109131501D01*
X135408499Y-109018255D01*
X135319529Y-108885101D01*
X135258242Y-108737142D01*
X135227000Y-108580075D01*
X135227000Y-108419925D01*
X135258242Y-108262858D01*
X135319529Y-108114899D01*
X135408499Y-107981745D01*
X135521745Y-107868499D01*
X135654899Y-107779529D01*
X135802858Y-107718242D01*
X135959925Y-107687000D01*
X136120075Y-107687000D01*
X136277142Y-107718242D01*
G37*
G36*
X172113512Y-107183927D02*
G01*
X172262812Y-107213624D01*
X172426784Y-107281544D01*
X172574354Y-107380147D01*
X172699853Y-107505646D01*
X172798456Y-107653216D01*
X172866376Y-107817188D01*
X172901000Y-107991259D01*
X172901000Y-108168741D01*
X172866376Y-108342812D01*
X172798456Y-108506784D01*
X172699853Y-108654354D01*
X172574354Y-108779853D01*
X172426784Y-108878456D01*
X172262812Y-108946376D01*
X172113512Y-108976073D01*
X172088742Y-108981000D01*
X171911258Y-108981000D01*
X171886488Y-108976073D01*
X171737188Y-108946376D01*
X171573216Y-108878456D01*
X171425646Y-108779853D01*
X171300147Y-108654354D01*
X171201544Y-108506784D01*
X171133624Y-108342812D01*
X171099000Y-108168741D01*
X171099000Y-107991259D01*
X171133624Y-107817188D01*
X171201544Y-107653216D01*
X171300147Y-107505646D01*
X171425646Y-107380147D01*
X171573216Y-107281544D01*
X171737188Y-107213624D01*
X171886488Y-107183927D01*
X171911258Y-107179000D01*
X172088742Y-107179000D01*
X172113512Y-107183927D01*
G37*
G36*
X169573512Y-107183927D02*
G01*
X169722812Y-107213624D01*
X169886784Y-107281544D01*
X170034354Y-107380147D01*
X170159853Y-107505646D01*
X170258456Y-107653216D01*
X170326376Y-107817188D01*
X170361000Y-107991259D01*
X170361000Y-108168741D01*
X170326376Y-108342812D01*
X170258456Y-108506784D01*
X170159853Y-108654354D01*
X170034354Y-108779853D01*
X169886784Y-108878456D01*
X169722812Y-108946376D01*
X169573512Y-108976073D01*
X169548742Y-108981000D01*
X169371258Y-108981000D01*
X169346488Y-108976073D01*
X169197188Y-108946376D01*
X169033216Y-108878456D01*
X168885646Y-108779853D01*
X168760147Y-108654354D01*
X168661544Y-108506784D01*
X168593624Y-108342812D01*
X168559000Y-108168741D01*
X168559000Y-107991259D01*
X168593624Y-107817188D01*
X168661544Y-107653216D01*
X168760147Y-107505646D01*
X168885646Y-107380147D01*
X169033216Y-107281544D01*
X169197188Y-107213624D01*
X169346488Y-107183927D01*
X169371258Y-107179000D01*
X169548742Y-107179000D01*
X169573512Y-107183927D01*
G37*
G36*
X136277142Y-105178242D02*
G01*
X136425101Y-105239529D01*
X136558255Y-105328499D01*
X136671501Y-105441745D01*
X136760471Y-105574899D01*
X136821758Y-105722858D01*
X136853000Y-105879925D01*
X136853000Y-106040075D01*
X136821758Y-106197142D01*
X136760471Y-106345101D01*
X136671501Y-106478255D01*
X136558255Y-106591501D01*
X136425101Y-106680471D01*
X136277142Y-106741758D01*
X136120075Y-106773000D01*
X135959925Y-106773000D01*
X135802858Y-106741758D01*
X135654899Y-106680471D01*
X135521745Y-106591501D01*
X135408499Y-106478255D01*
X135319529Y-106345101D01*
X135258242Y-106197142D01*
X135227000Y-106040075D01*
X135227000Y-105879925D01*
X135258242Y-105722858D01*
X135319529Y-105574899D01*
X135408499Y-105441745D01*
X135521745Y-105328499D01*
X135654899Y-105239529D01*
X135802858Y-105178242D01*
X135959925Y-105147000D01*
X136120075Y-105147000D01*
X136277142Y-105178242D01*
G37*
G36*
X133737142Y-105178242D02*
G01*
X133885101Y-105239529D01*
X134018255Y-105328499D01*
X134131501Y-105441745D01*
X134220471Y-105574899D01*
X134281758Y-105722858D01*
X134313000Y-105879925D01*
X134313000Y-106040075D01*
X134281758Y-106197142D01*
X134220471Y-106345101D01*
X134131501Y-106478255D01*
X134018255Y-106591501D01*
X133885101Y-106680471D01*
X133737142Y-106741758D01*
X133580075Y-106773000D01*
X133419925Y-106773000D01*
X133262858Y-106741758D01*
X133114899Y-106680471D01*
X132981745Y-106591501D01*
X132868499Y-106478255D01*
X132779529Y-106345101D01*
X132718242Y-106197142D01*
X132687000Y-106040075D01*
X132687000Y-105879925D01*
X132718242Y-105722858D01*
X132779529Y-105574899D01*
X132868499Y-105441745D01*
X132981745Y-105328499D01*
X133114899Y-105239529D01*
X133262858Y-105178242D01*
X133419925Y-105147000D01*
X133580075Y-105147000D01*
X133737142Y-105178242D01*
G37*
G36*
X169573512Y-104643927D02*
G01*
X169722812Y-104673624D01*
X169886784Y-104741544D01*
X170034354Y-104840147D01*
X170159853Y-104965646D01*
X170258456Y-105113216D01*
X170326376Y-105277188D01*
X170361000Y-105451259D01*
X170361000Y-105628741D01*
X170326376Y-105802812D01*
X170258456Y-105966784D01*
X170159853Y-106114354D01*
X170034354Y-106239853D01*
X169886784Y-106338456D01*
X169722812Y-106406376D01*
X169573512Y-106436073D01*
X169548742Y-106441000D01*
X169371258Y-106441000D01*
X169346488Y-106436073D01*
X169197188Y-106406376D01*
X169033216Y-106338456D01*
X168885646Y-106239853D01*
X168760147Y-106114354D01*
X168661544Y-105966784D01*
X168593624Y-105802812D01*
X168559000Y-105628741D01*
X168559000Y-105451259D01*
X168593624Y-105277188D01*
X168661544Y-105113216D01*
X168760147Y-104965646D01*
X168885646Y-104840147D01*
X169033216Y-104741544D01*
X169197188Y-104673624D01*
X169346488Y-104643927D01*
X169371258Y-104639000D01*
X169548742Y-104639000D01*
X169573512Y-104643927D01*
G37*
G36*
X172113512Y-104643927D02*
G01*
X172262812Y-104673624D01*
X172426784Y-104741544D01*
X172574354Y-104840147D01*
X172699853Y-104965646D01*
X172798456Y-105113216D01*
X172866376Y-105277188D01*
X172901000Y-105451259D01*
X172901000Y-105628741D01*
X172866376Y-105802812D01*
X172798456Y-105966784D01*
X172699853Y-106114354D01*
X172574354Y-106239853D01*
X172426784Y-106338456D01*
X172262812Y-106406376D01*
X172113512Y-106436073D01*
X172088742Y-106441000D01*
X171911258Y-106441000D01*
X171886488Y-106436073D01*
X171737188Y-106406376D01*
X171573216Y-106338456D01*
X171425646Y-106239853D01*
X171300147Y-106114354D01*
X171201544Y-105966784D01*
X171133624Y-105802812D01*
X171099000Y-105628741D01*
X171099000Y-105451259D01*
X171133624Y-105277188D01*
X171201544Y-105113216D01*
X171300147Y-104965646D01*
X171425646Y-104840147D01*
X171573216Y-104741544D01*
X171737188Y-104673624D01*
X171886488Y-104643927D01*
X171911258Y-104639000D01*
X172088742Y-104639000D01*
X172113512Y-104643927D01*
G37*
G36*
X163197878Y-103702296D02*
G01*
X163276385Y-103710028D01*
X163427482Y-103755863D01*
X163566733Y-103830294D01*
X163688788Y-103930462D01*
X163788956Y-104052517D01*
X163863387Y-104191768D01*
X163909222Y-104342865D01*
X163924698Y-104500000D01*
X163909222Y-104657135D01*
X163863387Y-104808232D01*
X163788956Y-104947483D01*
X163688788Y-105069538D01*
X163566733Y-105169706D01*
X163427482Y-105244137D01*
X163276385Y-105289972D01*
X163197878Y-105297704D01*
X163158626Y-105301570D01*
X162381374Y-105301570D01*
X162342122Y-105297704D01*
X162263615Y-105289972D01*
X162112518Y-105244137D01*
X161973267Y-105169706D01*
X161851212Y-105069538D01*
X161751044Y-104947483D01*
X161676613Y-104808232D01*
X161630778Y-104657135D01*
X161615302Y-104500000D01*
X161630778Y-104342865D01*
X161676613Y-104191768D01*
X161751044Y-104052517D01*
X161851212Y-103930462D01*
X161973267Y-103830294D01*
X162112518Y-103755863D01*
X162263615Y-103710028D01*
X162342122Y-103702296D01*
X162381374Y-103698430D01*
X163158626Y-103698430D01*
X163197878Y-103702296D01*
G37*
G36*
X136277142Y-102638242D02*
G01*
X136425101Y-102699529D01*
X136558255Y-102788499D01*
X136671501Y-102901745D01*
X136760471Y-103034899D01*
X136821758Y-103182858D01*
X136853000Y-103339925D01*
X136853000Y-103500075D01*
X136821758Y-103657142D01*
X136760471Y-103805101D01*
X136671501Y-103938255D01*
X136558255Y-104051501D01*
X136425101Y-104140471D01*
X136277142Y-104201758D01*
X136120075Y-104233000D01*
X135959925Y-104233000D01*
X135802858Y-104201758D01*
X135654899Y-104140471D01*
X135521745Y-104051501D01*
X135408499Y-103938255D01*
X135319529Y-103805101D01*
X135258242Y-103657142D01*
X135227000Y-103500075D01*
X135227000Y-103339925D01*
X135258242Y-103182858D01*
X135319529Y-103034899D01*
X135408499Y-102901745D01*
X135521745Y-102788499D01*
X135654899Y-102699529D01*
X135802858Y-102638242D01*
X135959925Y-102607000D01*
X136120075Y-102607000D01*
X136277142Y-102638242D01*
G37*
G36*
X133737142Y-102638242D02*
G01*
X133885101Y-102699529D01*
X134018255Y-102788499D01*
X134131501Y-102901745D01*
X134220471Y-103034899D01*
X134281758Y-103182858D01*
X134313000Y-103339925D01*
X134313000Y-103500075D01*
X134281758Y-103657142D01*
X134220471Y-103805101D01*
X134131501Y-103938255D01*
X134018255Y-104051501D01*
X133885101Y-104140471D01*
X133737142Y-104201758D01*
X133580075Y-104233000D01*
X133419925Y-104233000D01*
X133262858Y-104201758D01*
X133114899Y-104140471D01*
X132981745Y-104051501D01*
X132868499Y-103938255D01*
X132779529Y-103805101D01*
X132718242Y-103657142D01*
X132687000Y-103500075D01*
X132687000Y-103339925D01*
X132718242Y-103182858D01*
X132779529Y-103034899D01*
X132868499Y-102901745D01*
X132981745Y-102788499D01*
X133114899Y-102699529D01*
X133262858Y-102638242D01*
X133419925Y-102607000D01*
X133580075Y-102607000D01*
X133737142Y-102638242D01*
G37*
G36*
X169573512Y-102103927D02*
G01*
X169722812Y-102133624D01*
X169886784Y-102201544D01*
X170034354Y-102300147D01*
X170159853Y-102425646D01*
X170258456Y-102573216D01*
X170326376Y-102737188D01*
X170356073Y-102886488D01*
X170359586Y-102904147D01*
X170361000Y-102911259D01*
X170361000Y-103088741D01*
X170326376Y-103262812D01*
X170258456Y-103426784D01*
X170159853Y-103574354D01*
X170034354Y-103699853D01*
X169886784Y-103798456D01*
X169722812Y-103866376D01*
X169573512Y-103896073D01*
X169548742Y-103901000D01*
X169371258Y-103901000D01*
X169346488Y-103896073D01*
X169197188Y-103866376D01*
X169033216Y-103798456D01*
X168885646Y-103699853D01*
X168760147Y-103574354D01*
X168661544Y-103426784D01*
X168593624Y-103262812D01*
X168559000Y-103088741D01*
X168559000Y-102911259D01*
X168560415Y-102904147D01*
X168563927Y-102886488D01*
X168593624Y-102737188D01*
X168661544Y-102573216D01*
X168760147Y-102425646D01*
X168885646Y-102300147D01*
X169033216Y-102201544D01*
X169197188Y-102133624D01*
X169346488Y-102103927D01*
X169371258Y-102099000D01*
X169548742Y-102099000D01*
X169573512Y-102103927D01*
G37*
G36*
X172901000Y-103901000D02*
G01*
X171099000Y-103901000D01*
X171099000Y-102099000D01*
X172901000Y-102099000D01*
X172901000Y-103901000D01*
G37*
G36*
X166028228Y-101331703D02*
G01*
X166183100Y-101395853D01*
X166322481Y-101488985D01*
X166441015Y-101607519D01*
X166534147Y-101746900D01*
X166598297Y-101901772D01*
X166631000Y-102066184D01*
X166631000Y-102233816D01*
X166598297Y-102398228D01*
X166534147Y-102553100D01*
X166441015Y-102692481D01*
X166322481Y-102811015D01*
X166183100Y-102904147D01*
X166028228Y-102968297D01*
X165863816Y-103001000D01*
X165696184Y-103001000D01*
X165531772Y-102968297D01*
X165376900Y-102904147D01*
X165237519Y-102811015D01*
X165118985Y-102692481D01*
X165025853Y-102553100D01*
X164961703Y-102398228D01*
X164929000Y-102233816D01*
X164929000Y-102066184D01*
X164961703Y-101901772D01*
X165025853Y-101746900D01*
X165118985Y-101607519D01*
X165237519Y-101488985D01*
X165376900Y-101395853D01*
X165531772Y-101331703D01*
X165696184Y-101299000D01*
X165863816Y-101299000D01*
X166028228Y-101331703D01*
G37*
G36*
X163197878Y-101162296D02*
G01*
X163276385Y-101170028D01*
X163427482Y-101215863D01*
X163566733Y-101290294D01*
X163688788Y-101390462D01*
X163788956Y-101512517D01*
X163863387Y-101651768D01*
X163909222Y-101802865D01*
X163924698Y-101960000D01*
X163909222Y-102117135D01*
X163863387Y-102268232D01*
X163788956Y-102407483D01*
X163688788Y-102529538D01*
X163566733Y-102629706D01*
X163427482Y-102704137D01*
X163276385Y-102749972D01*
X163197878Y-102757704D01*
X163158626Y-102761570D01*
X162381374Y-102761570D01*
X162342122Y-102757704D01*
X162263615Y-102749972D01*
X162112518Y-102704137D01*
X161973267Y-102629706D01*
X161851212Y-102529538D01*
X161751044Y-102407483D01*
X161676613Y-102268232D01*
X161630778Y-102117135D01*
X161615302Y-101960000D01*
X161630778Y-101802865D01*
X161676613Y-101651768D01*
X161751044Y-101512517D01*
X161851212Y-101390462D01*
X161973267Y-101290294D01*
X162112518Y-101215863D01*
X162263615Y-101170028D01*
X162342122Y-101162296D01*
X162381374Y-101158430D01*
X163158626Y-101158430D01*
X163197878Y-101162296D01*
G37*
G36*
X133737142Y-100098242D02*
G01*
X133885101Y-100159529D01*
X134018255Y-100248499D01*
X134131501Y-100361745D01*
X134220471Y-100494899D01*
X134281758Y-100642858D01*
X134313000Y-100799925D01*
X134313000Y-100960075D01*
X134281758Y-101117142D01*
X134220471Y-101265101D01*
X134131501Y-101398255D01*
X134018255Y-101511501D01*
X133885101Y-101600471D01*
X133737142Y-101661758D01*
X133580075Y-101693000D01*
X133419925Y-101693000D01*
X133262858Y-101661758D01*
X133114899Y-101600471D01*
X132981745Y-101511501D01*
X132868499Y-101398255D01*
X132779529Y-101265101D01*
X132718242Y-101117142D01*
X132687000Y-100960075D01*
X132687000Y-100799925D01*
X132718242Y-100642858D01*
X132779529Y-100494899D01*
X132868499Y-100361745D01*
X132981745Y-100248499D01*
X133114899Y-100159529D01*
X133262858Y-100098242D01*
X133419925Y-100067000D01*
X133580075Y-100067000D01*
X133737142Y-100098242D01*
G37*
G36*
X136277142Y-100098242D02*
G01*
X136425101Y-100159529D01*
X136558255Y-100248499D01*
X136671501Y-100361745D01*
X136760471Y-100494899D01*
X136821758Y-100642858D01*
X136853000Y-100799925D01*
X136853000Y-100960075D01*
X136821758Y-101117142D01*
X136760471Y-101265101D01*
X136671501Y-101398255D01*
X136558255Y-101511501D01*
X136425101Y-101600471D01*
X136277142Y-101661758D01*
X136120075Y-101693000D01*
X135959925Y-101693000D01*
X135802858Y-101661758D01*
X135654899Y-101600471D01*
X135521745Y-101511501D01*
X135408499Y-101398255D01*
X135319529Y-101265101D01*
X135258242Y-101117142D01*
X135227000Y-100960075D01*
X135227000Y-100799925D01*
X135258242Y-100642858D01*
X135319529Y-100494899D01*
X135408499Y-100361745D01*
X135521745Y-100248499D01*
X135654899Y-100159529D01*
X135802858Y-100098242D01*
X135959925Y-100067000D01*
X136120075Y-100067000D01*
X136277142Y-100098242D01*
G37*
G36*
X154037134Y-98280778D02*
G01*
X154188231Y-98326613D01*
X154327482Y-98401044D01*
X154449538Y-98501212D01*
X154549706Y-98623267D01*
X154624137Y-98762518D01*
X154669972Y-98913615D01*
X154681570Y-99031375D01*
X154681570Y-99808625D01*
X154669972Y-99926385D01*
X154624137Y-100077482D01*
X154549706Y-100216733D01*
X154449538Y-100338788D01*
X154327483Y-100438956D01*
X154188232Y-100513387D01*
X154037135Y-100559222D01*
X153880000Y-100574698D01*
X153722866Y-100559222D01*
X153571769Y-100513387D01*
X153432518Y-100438956D01*
X153310463Y-100338788D01*
X153210295Y-100216733D01*
X153142399Y-100089708D01*
X153135863Y-100077481D01*
X153090028Y-99926386D01*
X153078430Y-99808626D01*
X153078430Y-99031375D01*
X153090028Y-98913618D01*
X153090028Y-98913616D01*
X153135863Y-98762519D01*
X153210294Y-98623268D01*
X153310462Y-98501212D01*
X153432517Y-98401044D01*
X153571768Y-98326613D01*
X153722865Y-98280778D01*
X153880000Y-98265302D01*
X154037134Y-98280778D01*
G37*
G36*
X143877134Y-98280778D02*
G01*
X144028231Y-98326613D01*
X144167482Y-98401044D01*
X144289538Y-98501212D01*
X144389706Y-98623267D01*
X144464137Y-98762518D01*
X144509972Y-98913615D01*
X144521570Y-99031375D01*
X144521570Y-99808625D01*
X144509972Y-99926385D01*
X144464137Y-100077482D01*
X144389706Y-100216733D01*
X144289538Y-100338788D01*
X144167483Y-100438956D01*
X144028232Y-100513387D01*
X143877135Y-100559222D01*
X143720000Y-100574698D01*
X143562866Y-100559222D01*
X143411769Y-100513387D01*
X143272518Y-100438956D01*
X143150463Y-100338788D01*
X143050295Y-100216733D01*
X142982399Y-100089708D01*
X142975863Y-100077481D01*
X142930028Y-99926386D01*
X142918430Y-99808626D01*
X142918430Y-99031375D01*
X142930028Y-98913618D01*
X142930028Y-98913616D01*
X142975863Y-98762519D01*
X143050294Y-98623268D01*
X143150462Y-98501212D01*
X143272517Y-98401044D01*
X143411768Y-98326613D01*
X143562865Y-98280778D01*
X143720000Y-98265302D01*
X143877134Y-98280778D01*
G37*
G36*
X146417134Y-98280778D02*
G01*
X146568231Y-98326613D01*
X146707482Y-98401044D01*
X146829538Y-98501212D01*
X146929706Y-98623267D01*
X147004137Y-98762518D01*
X147049972Y-98913615D01*
X147061570Y-99031375D01*
X147061570Y-99808625D01*
X147049972Y-99926385D01*
X147004137Y-100077482D01*
X146929706Y-100216733D01*
X146829538Y-100338788D01*
X146707483Y-100438956D01*
X146568232Y-100513387D01*
X146417135Y-100559222D01*
X146260000Y-100574698D01*
X146102866Y-100559222D01*
X145951769Y-100513387D01*
X145812518Y-100438956D01*
X145690463Y-100338788D01*
X145590295Y-100216733D01*
X145522399Y-100089708D01*
X145515863Y-100077481D01*
X145470028Y-99926386D01*
X145458430Y-99808626D01*
X145458430Y-99031375D01*
X145470028Y-98913618D01*
X145470028Y-98913616D01*
X145515863Y-98762519D01*
X145590294Y-98623268D01*
X145690462Y-98501212D01*
X145812517Y-98401044D01*
X145951768Y-98326613D01*
X146102865Y-98280778D01*
X146260000Y-98265302D01*
X146417134Y-98280778D01*
G37*
G36*
X156577134Y-98280778D02*
G01*
X156728231Y-98326613D01*
X156867482Y-98401044D01*
X156989538Y-98501212D01*
X157089706Y-98623267D01*
X157164137Y-98762518D01*
X157209972Y-98913615D01*
X157221570Y-99031375D01*
X157221570Y-99808625D01*
X157209972Y-99926385D01*
X157164137Y-100077482D01*
X157089706Y-100216733D01*
X156989538Y-100338788D01*
X156867483Y-100438956D01*
X156728232Y-100513387D01*
X156577135Y-100559222D01*
X156420000Y-100574698D01*
X156262866Y-100559222D01*
X156111769Y-100513387D01*
X155972518Y-100438956D01*
X155850463Y-100338788D01*
X155750295Y-100216733D01*
X155682399Y-100089708D01*
X155675863Y-100077481D01*
X155630028Y-99926386D01*
X155618430Y-99808626D01*
X155618430Y-99031375D01*
X155630028Y-98913618D01*
X155630028Y-98913616D01*
X155675863Y-98762519D01*
X155750294Y-98623268D01*
X155850462Y-98501212D01*
X155972517Y-98401044D01*
X156111768Y-98326613D01*
X156262865Y-98280778D01*
X156420000Y-98265302D01*
X156577134Y-98280778D01*
G37*
G36*
X163197878Y-98622296D02*
G01*
X163276385Y-98630028D01*
X163427482Y-98675863D01*
X163566733Y-98750294D01*
X163688788Y-98850462D01*
X163788956Y-98972517D01*
X163863387Y-99111768D01*
X163909222Y-99262865D01*
X163924698Y-99420000D01*
X163909222Y-99577135D01*
X163863387Y-99728232D01*
X163788956Y-99867483D01*
X163688788Y-99989538D01*
X163566733Y-100089706D01*
X163427482Y-100164137D01*
X163276385Y-100209972D01*
X163207778Y-100216729D01*
X163158626Y-100221570D01*
X162381374Y-100221570D01*
X162332222Y-100216729D01*
X162263615Y-100209972D01*
X162112518Y-100164137D01*
X161973267Y-100089706D01*
X161851212Y-99989538D01*
X161751044Y-99867483D01*
X161676613Y-99728232D01*
X161630778Y-99577135D01*
X161615302Y-99420000D01*
X161630778Y-99262865D01*
X161676613Y-99111768D01*
X161751044Y-98972517D01*
X161851212Y-98850462D01*
X161973267Y-98750294D01*
X162112518Y-98675863D01*
X162263615Y-98630028D01*
X162342122Y-98622296D01*
X162381374Y-98618430D01*
X163158626Y-98618430D01*
X163197878Y-98622296D01*
G37*
G36*
X134987134Y-95740778D02*
G01*
X135138231Y-95786613D01*
X135277482Y-95861044D01*
X135399538Y-95961212D01*
X135499706Y-96083267D01*
X135574137Y-96222518D01*
X135619972Y-96373615D01*
X135631570Y-96491375D01*
X135631570Y-97268625D01*
X135619972Y-97386385D01*
X135574137Y-97537482D01*
X135499706Y-97676733D01*
X135399538Y-97798788D01*
X135277483Y-97898956D01*
X135138232Y-97973387D01*
X134987135Y-98019222D01*
X134830000Y-98034698D01*
X134672866Y-98019222D01*
X134521769Y-97973387D01*
X134382518Y-97898956D01*
X134260463Y-97798788D01*
X134160295Y-97676733D01*
X134085864Y-97537482D01*
X134085863Y-97537481D01*
X134040028Y-97386386D01*
X134028430Y-97268626D01*
X134028430Y-96491375D01*
X134040028Y-96373618D01*
X134040028Y-96373616D01*
X134085863Y-96222519D01*
X134160294Y-96083268D01*
X134260462Y-95961212D01*
X134382517Y-95861044D01*
X134521768Y-95786613D01*
X134672865Y-95740778D01*
X134830000Y-95725302D01*
X134987134Y-95740778D01*
G37*
G36*
X160387134Y-95740778D02*
G01*
X160538231Y-95786613D01*
X160677482Y-95861044D01*
X160799538Y-95961212D01*
X160899706Y-96083267D01*
X160974137Y-96222518D01*
X161019972Y-96373615D01*
X161031570Y-96491375D01*
X161031570Y-97268625D01*
X161019972Y-97386385D01*
X160974137Y-97537482D01*
X160899706Y-97676733D01*
X160799538Y-97798788D01*
X160677483Y-97898956D01*
X160538232Y-97973387D01*
X160387135Y-98019222D01*
X160230000Y-98034698D01*
X160072866Y-98019222D01*
X159921769Y-97973387D01*
X159782518Y-97898956D01*
X159660463Y-97798788D01*
X159560295Y-97676733D01*
X159485864Y-97537482D01*
X159485863Y-97537481D01*
X159440028Y-97386386D01*
X159428430Y-97268626D01*
X159428430Y-96491375D01*
X159440028Y-96373618D01*
X159440028Y-96373616D01*
X159485863Y-96222519D01*
X159560294Y-96083268D01*
X159660462Y-95961212D01*
X159782517Y-95861044D01*
X159921768Y-95786613D01*
X160072865Y-95740778D01*
X160230000Y-95725302D01*
X160387134Y-95740778D01*
G37*
G36*
X157847134Y-95740778D02*
G01*
X157998231Y-95786613D01*
X158137482Y-95861044D01*
X158259538Y-95961212D01*
X158359706Y-96083267D01*
X158434137Y-96222518D01*
X158479972Y-96373615D01*
X158491570Y-96491375D01*
X158491570Y-97268625D01*
X158479972Y-97386385D01*
X158434137Y-97537482D01*
X158359706Y-97676733D01*
X158259538Y-97798788D01*
X158137483Y-97898956D01*
X157998232Y-97973387D01*
X157847135Y-98019222D01*
X157690000Y-98034698D01*
X157532866Y-98019222D01*
X157381769Y-97973387D01*
X157242518Y-97898956D01*
X157120463Y-97798788D01*
X157020295Y-97676733D01*
X156945864Y-97537482D01*
X156945863Y-97537481D01*
X156900028Y-97386386D01*
X156888430Y-97268626D01*
X156888430Y-96491375D01*
X156900028Y-96373618D01*
X156900028Y-96373616D01*
X156945863Y-96222519D01*
X157020294Y-96083268D01*
X157120462Y-95961212D01*
X157242517Y-95861044D01*
X157381768Y-95786613D01*
X157532865Y-95740778D01*
X157690000Y-95725302D01*
X157847134Y-95740778D01*
G37*
G36*
X152767134Y-95740778D02*
G01*
X152918231Y-95786613D01*
X153057482Y-95861044D01*
X153179538Y-95961212D01*
X153279706Y-96083267D01*
X153354137Y-96222518D01*
X153399972Y-96373615D01*
X153411570Y-96491375D01*
X153411570Y-97268625D01*
X153399972Y-97386385D01*
X153354137Y-97537482D01*
X153279706Y-97676733D01*
X153179538Y-97798788D01*
X153057483Y-97898956D01*
X152918232Y-97973387D01*
X152767135Y-98019222D01*
X152610000Y-98034698D01*
X152452866Y-98019222D01*
X152301769Y-97973387D01*
X152162518Y-97898956D01*
X152040463Y-97798788D01*
X151940295Y-97676733D01*
X151865864Y-97537482D01*
X151865863Y-97537481D01*
X151820028Y-97386386D01*
X151808430Y-97268626D01*
X151808430Y-96491375D01*
X151820028Y-96373618D01*
X151820028Y-96373616D01*
X151865863Y-96222519D01*
X151940294Y-96083268D01*
X152040462Y-95961212D01*
X152162517Y-95861044D01*
X152301768Y-95786613D01*
X152452865Y-95740778D01*
X152610000Y-95725302D01*
X152767134Y-95740778D01*
G37*
G36*
X150227134Y-95740778D02*
G01*
X150378231Y-95786613D01*
X150517482Y-95861044D01*
X150639538Y-95961212D01*
X150739706Y-96083267D01*
X150814137Y-96222518D01*
X150859972Y-96373615D01*
X150871570Y-96491375D01*
X150871570Y-97268625D01*
X150859972Y-97386385D01*
X150814137Y-97537482D01*
X150739706Y-97676733D01*
X150639538Y-97798788D01*
X150517483Y-97898956D01*
X150378232Y-97973387D01*
X150227135Y-98019222D01*
X150070000Y-98034698D01*
X149912866Y-98019222D01*
X149761769Y-97973387D01*
X149622518Y-97898956D01*
X149500463Y-97798788D01*
X149400295Y-97676733D01*
X149325864Y-97537482D01*
X149325863Y-97537481D01*
X149280028Y-97386386D01*
X149268430Y-97268626D01*
X149268430Y-96491375D01*
X149280028Y-96373618D01*
X149280028Y-96373616D01*
X149325863Y-96222519D01*
X149400294Y-96083268D01*
X149500462Y-95961212D01*
X149622517Y-95861044D01*
X149761768Y-95786613D01*
X149912865Y-95740778D01*
X150070000Y-95725302D01*
X150227134Y-95740778D01*
G37*
G36*
X147687134Y-95740778D02*
G01*
X147838231Y-95786613D01*
X147977482Y-95861044D01*
X148099538Y-95961212D01*
X148199706Y-96083267D01*
X148274137Y-96222518D01*
X148319972Y-96373615D01*
X148331570Y-96491375D01*
X148331570Y-97268625D01*
X148319972Y-97386385D01*
X148274137Y-97537482D01*
X148199706Y-97676733D01*
X148099538Y-97798788D01*
X147977483Y-97898956D01*
X147838232Y-97973387D01*
X147687135Y-98019222D01*
X147530000Y-98034698D01*
X147372866Y-98019222D01*
X147221769Y-97973387D01*
X147082518Y-97898956D01*
X146960463Y-97798788D01*
X146860295Y-97676733D01*
X146785864Y-97537482D01*
X146785863Y-97537481D01*
X146740028Y-97386386D01*
X146728430Y-97268626D01*
X146728430Y-96491375D01*
X146740028Y-96373618D01*
X146740028Y-96373616D01*
X146785863Y-96222519D01*
X146860294Y-96083268D01*
X146960462Y-95961212D01*
X147082517Y-95861044D01*
X147221768Y-95786613D01*
X147372865Y-95740778D01*
X147530000Y-95725302D01*
X147687134Y-95740778D01*
G37*
G36*
X145147134Y-95740778D02*
G01*
X145298231Y-95786613D01*
X145437482Y-95861044D01*
X145559538Y-95961212D01*
X145659706Y-96083267D01*
X145734137Y-96222518D01*
X145779972Y-96373615D01*
X145791570Y-96491375D01*
X145791570Y-97268625D01*
X145779972Y-97386385D01*
X145734137Y-97537482D01*
X145659706Y-97676733D01*
X145559538Y-97798788D01*
X145437483Y-97898956D01*
X145298232Y-97973387D01*
X145147135Y-98019222D01*
X144990000Y-98034698D01*
X144832866Y-98019222D01*
X144681769Y-97973387D01*
X144542518Y-97898956D01*
X144420463Y-97798788D01*
X144320295Y-97676733D01*
X144245864Y-97537482D01*
X144245863Y-97537481D01*
X144200028Y-97386386D01*
X144188430Y-97268626D01*
X144188430Y-96491375D01*
X144200028Y-96373618D01*
X144200028Y-96373616D01*
X144245863Y-96222519D01*
X144320294Y-96083268D01*
X144420462Y-95961212D01*
X144542517Y-95861044D01*
X144681768Y-95786613D01*
X144832865Y-95740778D01*
X144990000Y-95725302D01*
X145147134Y-95740778D01*
G37*
G36*
X142607134Y-95740778D02*
G01*
X142758231Y-95786613D01*
X142897482Y-95861044D01*
X143019538Y-95961212D01*
X143119706Y-96083267D01*
X143194137Y-96222518D01*
X143239972Y-96373615D01*
X143251570Y-96491375D01*
X143251570Y-97268625D01*
X143239972Y-97386385D01*
X143194137Y-97537482D01*
X143119706Y-97676733D01*
X143019538Y-97798788D01*
X142897483Y-97898956D01*
X142758232Y-97973387D01*
X142607135Y-98019222D01*
X142450000Y-98034698D01*
X142292866Y-98019222D01*
X142141769Y-97973387D01*
X142002518Y-97898956D01*
X141880463Y-97798788D01*
X141780295Y-97676733D01*
X141705864Y-97537482D01*
X141705863Y-97537481D01*
X141660028Y-97386386D01*
X141648430Y-97268626D01*
X141648430Y-96491375D01*
X141660028Y-96373618D01*
X141660028Y-96373616D01*
X141705863Y-96222519D01*
X141780294Y-96083268D01*
X141880462Y-95961212D01*
X142002517Y-95861044D01*
X142141768Y-95786613D01*
X142292865Y-95740778D01*
X142450000Y-95725302D01*
X142607134Y-95740778D01*
G37*
G36*
X140067134Y-95740778D02*
G01*
X140218231Y-95786613D01*
X140357482Y-95861044D01*
X140479538Y-95961212D01*
X140579706Y-96083267D01*
X140654137Y-96222518D01*
X140699972Y-96373615D01*
X140711570Y-96491375D01*
X140711570Y-97268625D01*
X140699972Y-97386385D01*
X140654137Y-97537482D01*
X140579706Y-97676733D01*
X140479538Y-97798788D01*
X140357483Y-97898956D01*
X140218232Y-97973387D01*
X140067135Y-98019222D01*
X139910000Y-98034698D01*
X139752866Y-98019222D01*
X139601769Y-97973387D01*
X139462518Y-97898956D01*
X139340463Y-97798788D01*
X139240295Y-97676733D01*
X139165864Y-97537482D01*
X139165863Y-97537481D01*
X139120028Y-97386386D01*
X139108430Y-97268626D01*
X139108430Y-96491375D01*
X139120028Y-96373618D01*
X139120028Y-96373616D01*
X139165863Y-96222519D01*
X139240294Y-96083268D01*
X139340462Y-95961212D01*
X139462517Y-95861044D01*
X139601768Y-95786613D01*
X139752865Y-95740778D01*
X139910000Y-95725302D01*
X140067134Y-95740778D01*
G37*
G36*
X137527134Y-95740778D02*
G01*
X137678231Y-95786613D01*
X137817482Y-95861044D01*
X137939538Y-95961212D01*
X138039706Y-96083267D01*
X138114137Y-96222518D01*
X138159972Y-96373615D01*
X138171570Y-96491375D01*
X138171570Y-97268625D01*
X138159972Y-97386385D01*
X138114137Y-97537482D01*
X138039706Y-97676733D01*
X137939538Y-97798788D01*
X137817483Y-97898956D01*
X137678232Y-97973387D01*
X137527135Y-98019222D01*
X137370000Y-98034698D01*
X137212866Y-98019222D01*
X137061769Y-97973387D01*
X136922518Y-97898956D01*
X136800463Y-97798788D01*
X136700295Y-97676733D01*
X136625864Y-97537482D01*
X136625863Y-97537481D01*
X136580028Y-97386386D01*
X136568430Y-97268626D01*
X136568430Y-96491375D01*
X136580028Y-96373618D01*
X136580028Y-96373616D01*
X136625863Y-96222519D01*
X136700294Y-96083268D01*
X136800462Y-95961212D01*
X136922517Y-95861044D01*
X137061768Y-95786613D01*
X137212865Y-95740778D01*
X137370000Y-95725302D01*
X137527134Y-95740778D01*
G37*
G36*
X162927134Y-95740778D02*
G01*
X163078231Y-95786613D01*
X163217482Y-95861044D01*
X163339538Y-95961212D01*
X163439706Y-96083267D01*
X163514137Y-96222518D01*
X163559972Y-96373615D01*
X163571570Y-96491375D01*
X163571570Y-97268625D01*
X163559972Y-97386385D01*
X163514137Y-97537482D01*
X163439706Y-97676733D01*
X163339538Y-97798788D01*
X163217483Y-97898956D01*
X163078232Y-97973387D01*
X162927135Y-98019222D01*
X162770000Y-98034698D01*
X162612866Y-98019222D01*
X162461769Y-97973387D01*
X162322518Y-97898956D01*
X162200463Y-97798788D01*
X162100295Y-97676733D01*
X162025864Y-97537482D01*
X162025863Y-97537481D01*
X161980028Y-97386386D01*
X161968430Y-97268626D01*
X161968430Y-96491375D01*
X161980028Y-96373618D01*
X161980028Y-96373616D01*
X162025863Y-96222519D01*
X162100294Y-96083268D01*
X162200462Y-95961212D01*
X162322517Y-95861044D01*
X162461768Y-95786613D01*
X162612865Y-95740778D01*
X162770000Y-95725302D01*
X162927134Y-95740778D01*
G37*
G36*
X155307134Y-95740778D02*
G01*
X155458231Y-95786613D01*
X155597482Y-95861044D01*
X155719538Y-95961212D01*
X155819706Y-96083267D01*
X155894137Y-96222518D01*
X155939972Y-96373615D01*
X155951570Y-96491375D01*
X155951570Y-97268625D01*
X155939972Y-97386385D01*
X155894137Y-97537482D01*
X155819706Y-97676733D01*
X155719538Y-97798788D01*
X155597483Y-97898956D01*
X155458232Y-97973387D01*
X155307135Y-98019222D01*
X155150000Y-98034698D01*
X154992866Y-98019222D01*
X154841769Y-97973387D01*
X154702518Y-97898956D01*
X154580463Y-97798788D01*
X154480295Y-97676733D01*
X154405864Y-97537482D01*
X154405863Y-97537481D01*
X154360028Y-97386386D01*
X154348430Y-97268626D01*
X154348430Y-96491375D01*
X154360028Y-96373618D01*
X154360028Y-96373616D01*
X154405863Y-96222519D01*
X154480294Y-96083268D01*
X154580462Y-95961212D01*
X154702517Y-95861044D01*
X154841768Y-95786613D01*
X154992865Y-95740778D01*
X155150000Y-95725302D01*
X155307134Y-95740778D01*
G37*
G36*
X172817395Y-95085546D02*
G01*
X172990466Y-95157234D01*
X172990467Y-95157235D01*
X173146227Y-95261310D01*
X173278690Y-95393773D01*
X173278691Y-95393775D01*
X173382766Y-95549534D01*
X173454454Y-95722605D01*
X173491000Y-95906333D01*
X173491000Y-96093667D01*
X173454454Y-96277395D01*
X173382766Y-96450466D01*
X173382765Y-96450467D01*
X173278690Y-96606227D01*
X173146227Y-96738690D01*
X173067818Y-96791081D01*
X172990466Y-96842766D01*
X172817395Y-96914454D01*
X172633667Y-96951000D01*
X172446333Y-96951000D01*
X172262605Y-96914454D01*
X172089534Y-96842766D01*
X172012182Y-96791081D01*
X171933773Y-96738690D01*
X171801310Y-96606227D01*
X171697235Y-96450467D01*
X171697234Y-96450466D01*
X171625546Y-96277395D01*
X171589000Y-96093667D01*
X171589000Y-95906333D01*
X171625546Y-95722605D01*
X171697234Y-95549534D01*
X171801309Y-95393775D01*
X171801310Y-95393773D01*
X171933773Y-95261310D01*
X172089533Y-95157235D01*
X172089534Y-95157234D01*
X172262605Y-95085546D01*
X172446333Y-95049000D01*
X172633667Y-95049000D01*
X172817395Y-95085546D01*
G37*
G36*
X170951000Y-96951000D02*
G01*
X169049000Y-96951000D01*
X169049000Y-95049000D01*
X170951000Y-95049000D01*
X170951000Y-96951000D01*
G37*
G36*
X166028228Y-93711703D02*
G01*
X166183100Y-93775853D01*
X166322481Y-93868985D01*
X166441015Y-93987519D01*
X166534147Y-94126900D01*
X166598297Y-94281772D01*
X166631000Y-94446184D01*
X166631000Y-94613816D01*
X166598297Y-94778228D01*
X166534147Y-94933100D01*
X166441015Y-95072481D01*
X166322481Y-95191015D01*
X166183100Y-95284147D01*
X166028228Y-95348297D01*
X165863816Y-95381000D01*
X165696184Y-95381000D01*
X165531772Y-95348297D01*
X165376900Y-95284147D01*
X165237519Y-95191015D01*
X165118985Y-95072481D01*
X165025853Y-94933100D01*
X164961703Y-94778228D01*
X164929000Y-94613816D01*
X164929000Y-94446184D01*
X164961703Y-94281772D01*
X165025853Y-94126900D01*
X165118985Y-93987519D01*
X165237519Y-93868985D01*
X165376900Y-93775853D01*
X165531772Y-93711703D01*
X165696184Y-93679000D01*
X165863816Y-93679000D01*
X166028228Y-93711703D01*
G37*
M02*
