G04 #@! TF.GenerationSoftware,KiCad,Pcbnew,5.1.6*
G04 #@! TF.CreationDate,2020-07-08T06:17:30-04:00*
G04 #@! TF.ProjectId,VS_robot_receiver,56535f72-6f62-46f7-945f-726563656976,rev?*
G04 #@! TF.SameCoordinates,Original*
G04 #@! TF.FileFunction,Copper,L2,Bot*
G04 #@! TF.FilePolarity,Positive*
%FSLAX46Y46*%
G04 Gerber Fmt 4.6, Leading zero omitted, Abs format (unit mm)*
G04 Created by KiCad (PCBNEW 5.1.6) date 2020-07-08 06:17:30*
%MOMM*%
%LPD*%
G01*
G04 APERTURE LIST*
G04 #@! TA.AperFunction,ComponentPad*
%ADD10R,1.524000X1.524000*%
G04 #@! TD*
G04 #@! TA.AperFunction,ComponentPad*
%ADD11C,1.524000*%
G04 #@! TD*
G04 #@! TA.AperFunction,ComponentPad*
%ADD12R,1.800000X1.800000*%
G04 #@! TD*
G04 #@! TA.AperFunction,ComponentPad*
%ADD13C,1.800000*%
G04 #@! TD*
G04 #@! TA.AperFunction,ComponentPad*
%ADD14R,1.700000X1.700000*%
G04 #@! TD*
G04 #@! TA.AperFunction,ComponentPad*
%ADD15O,1.700000X1.700000*%
G04 #@! TD*
G04 #@! TA.AperFunction,ComponentPad*
%ADD16O,1.501140X2.199640*%
G04 #@! TD*
G04 #@! TA.AperFunction,ComponentPad*
%ADD17O,2.199640X1.501140*%
G04 #@! TD*
G04 #@! TA.AperFunction,ComponentPad*
%ADD18C,1.600000*%
G04 #@! TD*
G04 #@! TA.AperFunction,ComponentPad*
%ADD19O,1.600000X1.600000*%
G04 #@! TD*
G04 #@! TA.AperFunction,ViaPad*
%ADD20C,0.800000*%
G04 #@! TD*
G04 #@! TA.AperFunction,Conductor*
%ADD21C,0.250000*%
G04 #@! TD*
G04 APERTURE END LIST*
D10*
X133500000Y-108500000D03*
D11*
X136040000Y-108500000D03*
X133500000Y-105960000D03*
X136040000Y-105960000D03*
X133500000Y-103420000D03*
X136040000Y-103420000D03*
X133500000Y-100880000D03*
X136040000Y-100880000D03*
D12*
X170000000Y-96000000D03*
D13*
X172540000Y-96000000D03*
D14*
X172000000Y-103000000D03*
D15*
X169460000Y-103000000D03*
X172000000Y-105540000D03*
X169460000Y-105540000D03*
X172000000Y-108080000D03*
X169460000Y-108080000D03*
X172000000Y-110620000D03*
X169460000Y-110620000D03*
D16*
X153880000Y-99420000D03*
X156420000Y-99420000D03*
X134830000Y-112120000D03*
X137370000Y-112120000D03*
X139910000Y-112120000D03*
X142450000Y-112120000D03*
X144990000Y-112120000D03*
X147530000Y-112120000D03*
X150070000Y-112120000D03*
X152610000Y-112120000D03*
X155150000Y-112120000D03*
X157690000Y-112120000D03*
X160230000Y-112120000D03*
X162770000Y-112120000D03*
X162770000Y-96880000D03*
X160230000Y-96880000D03*
X157690000Y-96880000D03*
X155150000Y-96880000D03*
X152610000Y-96880000D03*
X150070000Y-96880000D03*
X147530000Y-96880000D03*
X144990000Y-96880000D03*
X142450000Y-96880000D03*
X139910000Y-96880000D03*
X137370000Y-96880000D03*
X134830000Y-96880000D03*
X146260000Y-99420000D03*
X143720000Y-99420000D03*
D17*
X162770000Y-99420000D03*
X162770000Y-101960000D03*
X162770000Y-104500000D03*
D18*
X165780000Y-94530000D03*
D19*
X165780000Y-102150000D03*
D20*
X133000000Y-95000000D03*
D21*
X173175001Y-99175001D02*
X170000000Y-96000000D01*
X172564001Y-106715001D02*
X173175001Y-106104001D01*
X173175001Y-106104001D02*
X173175001Y-99175001D01*
X171461409Y-106715001D02*
X172564001Y-106715001D01*
X170635001Y-107541409D02*
X171461409Y-106715001D01*
X170635001Y-109444999D02*
X170635001Y-107541409D01*
X169460000Y-110620000D02*
X170635001Y-109444999D01*
X139917001Y-109587001D02*
X142450000Y-112120000D01*
X134587001Y-109587001D02*
X139917001Y-109587001D01*
X133500000Y-108500000D02*
X134587001Y-109587001D01*
X169460000Y-110620000D02*
X172000000Y-110620000D01*
X132412999Y-107412999D02*
X133500000Y-108500000D01*
X132412999Y-97426652D02*
X132412999Y-107412999D01*
X135339651Y-94500000D02*
X132412999Y-97426652D01*
X161500000Y-94500000D02*
X135339651Y-94500000D01*
X162455170Y-95455170D02*
X161500000Y-94500000D01*
X163215519Y-95455170D02*
X162455170Y-95455170D01*
X163760349Y-96000000D02*
X163215519Y-95455170D01*
X170000000Y-96000000D02*
X163760349Y-96000000D01*
X171070000Y-94530000D02*
X172540000Y-96000000D01*
X165780000Y-94530000D02*
X171070000Y-94530000D01*
X153685580Y-103424420D02*
X144990000Y-112120000D01*
X169035580Y-103424420D02*
X153685580Y-103424420D01*
X169460000Y-103000000D02*
X169035580Y-103424420D01*
X149059990Y-113649990D02*
X147530000Y-112120000D01*
X155490359Y-113649990D02*
X149059990Y-113649990D01*
X156225580Y-112914769D02*
X155490359Y-113649990D01*
X156225580Y-111714071D02*
X156225580Y-112914769D01*
X161034652Y-106904999D02*
X156225580Y-111714071D01*
X170635001Y-106904999D02*
X161034652Y-106904999D01*
X172000000Y-105540000D02*
X170635001Y-106904999D01*
X160880001Y-106389999D02*
X155150000Y-112120000D01*
X168610001Y-106389999D02*
X160880001Y-106389999D01*
X169460000Y-105540000D02*
X168610001Y-106389999D01*
X171758001Y-93404999D02*
X134595001Y-93404999D01*
X173765001Y-95411999D02*
X171758001Y-93404999D01*
X173765001Y-111734999D02*
X173765001Y-95411999D01*
X173380000Y-112120000D02*
X173765001Y-111734999D01*
X162770000Y-112120000D02*
X173380000Y-112120000D01*
X134595001Y-93404999D02*
X133000000Y-95000000D01*
X133000000Y-95000000D02*
X133000000Y-95000000D01*
X158805170Y-100844830D02*
X162770000Y-96880000D01*
X157150000Y-102500000D02*
X158805170Y-100844830D01*
X153500000Y-102500000D02*
X157150000Y-102500000D01*
X150040000Y-105960000D02*
X153500000Y-102500000D01*
X136040000Y-105960000D02*
X150040000Y-105960000D01*
X160230000Y-98229820D02*
X160230000Y-96880000D01*
X156409830Y-102049990D02*
X160230000Y-98229820D01*
X137410010Y-102049990D02*
X156409830Y-102049990D01*
X136040000Y-103420000D02*
X137410010Y-102049990D01*
X156265170Y-95455170D02*
X157690000Y-96880000D01*
X151534420Y-96085231D02*
X152164481Y-95455170D01*
X152164481Y-95455170D02*
X156265170Y-95455170D01*
X151534420Y-97285929D02*
X151534420Y-96085231D01*
X150515519Y-98304830D02*
X151534420Y-97285929D01*
X147015179Y-98304830D02*
X150515519Y-98304830D01*
X146705519Y-97995170D02*
X147015179Y-98304830D01*
X145814481Y-97995170D02*
X146705519Y-97995170D01*
X145184420Y-98625231D02*
X145814481Y-97995170D01*
X144795580Y-98625231D02*
X145184420Y-98625231D01*
X144165519Y-97995170D02*
X144795580Y-98625231D01*
X143274481Y-97995170D02*
X144165519Y-97995170D01*
X141476652Y-99792999D02*
X143274481Y-97995170D01*
X134587001Y-99792999D02*
X141476652Y-99792999D01*
X133500000Y-100880000D02*
X134587001Y-99792999D01*
X154549651Y-96880000D02*
X155150000Y-96880000D01*
X137978760Y-100844830D02*
X150584821Y-100844830D01*
X150584821Y-100844830D02*
X154549651Y-96880000D01*
X136856589Y-101967001D02*
X137978760Y-100844830D01*
X134952999Y-101967001D02*
X136856589Y-101967001D01*
X133500000Y-103420000D02*
X134952999Y-101967001D01*
M02*
