G04 #@! TF.GenerationSoftware,KiCad,Pcbnew,5.1.6*
G04 #@! TF.CreationDate,2020-07-08T06:17:30-04:00*
G04 #@! TF.ProjectId,VS_robot_receiver,56535f72-6f62-46f7-945f-726563656976,rev?*
G04 #@! TF.SameCoordinates,Original*
G04 #@! TF.FileFunction,Legend,Bot*
G04 #@! TF.FilePolarity,Positive*
%FSLAX46Y46*%
G04 Gerber Fmt 4.6, Leading zero omitted, Abs format (unit mm)*
G04 Created by KiCad (PCBNEW 5.1.6) date 2020-07-08 06:17:30*
%MOMM*%
%LPD*%
G01*
G04 APERTURE LIST*
%ADD10C,0.250000*%
%ADD11C,0.010000*%
%ADD12C,0.120000*%
%ADD13C,0.100000*%
G04 APERTURE END LIST*
D10*
X158547619Y-94357142D02*
X158595238Y-94404761D01*
X158738095Y-94452380D01*
X158833333Y-94452380D01*
X158976190Y-94404761D01*
X159071428Y-94309523D01*
X159119047Y-94214285D01*
X159166666Y-94023809D01*
X159166666Y-93880952D01*
X159119047Y-93690476D01*
X159071428Y-93595238D01*
X158976190Y-93500000D01*
X158833333Y-93452380D01*
X158738095Y-93452380D01*
X158595238Y-93500000D01*
X158547619Y-93547619D01*
X157976190Y-94452380D02*
X158071428Y-94404761D01*
X158119047Y-94357142D01*
X158166666Y-94261904D01*
X158166666Y-93976190D01*
X158119047Y-93880952D01*
X158071428Y-93833333D01*
X157976190Y-93785714D01*
X157833333Y-93785714D01*
X157738095Y-93833333D01*
X157690476Y-93880952D01*
X157642857Y-93976190D01*
X157642857Y-94261904D01*
X157690476Y-94357142D01*
X157738095Y-94404761D01*
X157833333Y-94452380D01*
X157976190Y-94452380D01*
X157214285Y-94452380D02*
X157214285Y-93785714D01*
X157214285Y-93880952D02*
X157166666Y-93833333D01*
X157071428Y-93785714D01*
X156928571Y-93785714D01*
X156833333Y-93833333D01*
X156785714Y-93928571D01*
X156785714Y-94452380D01*
X156785714Y-93928571D02*
X156738095Y-93833333D01*
X156642857Y-93785714D01*
X156500000Y-93785714D01*
X156404761Y-93833333D01*
X156357142Y-93928571D01*
X156357142Y-94452380D01*
X155880952Y-94452380D02*
X155880952Y-93452380D01*
X155880952Y-93833333D02*
X155785714Y-93785714D01*
X155595238Y-93785714D01*
X155500000Y-93833333D01*
X155452380Y-93880952D01*
X155404761Y-93976190D01*
X155404761Y-94261904D01*
X155452380Y-94357142D01*
X155500000Y-94404761D01*
X155595238Y-94452380D01*
X155785714Y-94452380D01*
X155880952Y-94404761D01*
X154547619Y-94452380D02*
X154547619Y-93928571D01*
X154595238Y-93833333D01*
X154690476Y-93785714D01*
X154880952Y-93785714D01*
X154976190Y-93833333D01*
X154547619Y-94404761D02*
X154642857Y-94452380D01*
X154880952Y-94452380D01*
X154976190Y-94404761D01*
X155023809Y-94309523D01*
X155023809Y-94214285D01*
X154976190Y-94119047D01*
X154880952Y-94071428D01*
X154642857Y-94071428D01*
X154547619Y-94023809D01*
X154214285Y-93785714D02*
X153833333Y-93785714D01*
X154071428Y-93452380D02*
X154071428Y-94309523D01*
X154023809Y-94404761D01*
X153928571Y-94452380D01*
X153833333Y-94452380D01*
X152166666Y-94452380D02*
X152500000Y-93976190D01*
X152738095Y-94452380D02*
X152738095Y-93452380D01*
X152357142Y-93452380D01*
X152261904Y-93500000D01*
X152214285Y-93547619D01*
X152166666Y-93642857D01*
X152166666Y-93785714D01*
X152214285Y-93880952D01*
X152261904Y-93928571D01*
X152357142Y-93976190D01*
X152738095Y-93976190D01*
X151595238Y-94452380D02*
X151690476Y-94404761D01*
X151738095Y-94357142D01*
X151785714Y-94261904D01*
X151785714Y-93976190D01*
X151738095Y-93880952D01*
X151690476Y-93833333D01*
X151595238Y-93785714D01*
X151452380Y-93785714D01*
X151357142Y-93833333D01*
X151309523Y-93880952D01*
X151261904Y-93976190D01*
X151261904Y-94261904D01*
X151309523Y-94357142D01*
X151357142Y-94404761D01*
X151452380Y-94452380D01*
X151595238Y-94452380D01*
X150833333Y-94452380D02*
X150833333Y-93452380D01*
X150833333Y-93833333D02*
X150738095Y-93785714D01*
X150547619Y-93785714D01*
X150452380Y-93833333D01*
X150404761Y-93880952D01*
X150357142Y-93976190D01*
X150357142Y-94261904D01*
X150404761Y-94357142D01*
X150452380Y-94404761D01*
X150547619Y-94452380D01*
X150738095Y-94452380D01*
X150833333Y-94404761D01*
X149785714Y-94452380D02*
X149880952Y-94404761D01*
X149928571Y-94357142D01*
X149976190Y-94261904D01*
X149976190Y-93976190D01*
X149928571Y-93880952D01*
X149880952Y-93833333D01*
X149785714Y-93785714D01*
X149642857Y-93785714D01*
X149547619Y-93833333D01*
X149500000Y-93880952D01*
X149452380Y-93976190D01*
X149452380Y-94261904D01*
X149500000Y-94357142D01*
X149547619Y-94404761D01*
X149642857Y-94452380D01*
X149785714Y-94452380D01*
X149166666Y-93785714D02*
X148785714Y-93785714D01*
X149023809Y-93452380D02*
X149023809Y-94309523D01*
X148976190Y-94404761D01*
X148880952Y-94452380D01*
X148785714Y-94452380D01*
X147119047Y-94452380D02*
X147452380Y-93976190D01*
X147690476Y-94452380D02*
X147690476Y-93452380D01*
X147309523Y-93452380D01*
X147214285Y-93500000D01*
X147166666Y-93547619D01*
X147119047Y-93642857D01*
X147119047Y-93785714D01*
X147166666Y-93880952D01*
X147214285Y-93928571D01*
X147309523Y-93976190D01*
X147690476Y-93976190D01*
X146309523Y-94404761D02*
X146404761Y-94452380D01*
X146595238Y-94452380D01*
X146690476Y-94404761D01*
X146738095Y-94309523D01*
X146738095Y-93928571D01*
X146690476Y-93833333D01*
X146595238Y-93785714D01*
X146404761Y-93785714D01*
X146309523Y-93833333D01*
X146261904Y-93928571D01*
X146261904Y-94023809D01*
X146738095Y-94119047D01*
X145404761Y-94404761D02*
X145500000Y-94452380D01*
X145690476Y-94452380D01*
X145785714Y-94404761D01*
X145833333Y-94357142D01*
X145880952Y-94261904D01*
X145880952Y-93976190D01*
X145833333Y-93880952D01*
X145785714Y-93833333D01*
X145690476Y-93785714D01*
X145500000Y-93785714D01*
X145404761Y-93833333D01*
X144595238Y-94404761D02*
X144690476Y-94452380D01*
X144880952Y-94452380D01*
X144976190Y-94404761D01*
X145023809Y-94309523D01*
X145023809Y-93928571D01*
X144976190Y-93833333D01*
X144880952Y-93785714D01*
X144690476Y-93785714D01*
X144595238Y-93833333D01*
X144547619Y-93928571D01*
X144547619Y-94023809D01*
X145023809Y-94119047D01*
X144119047Y-94452380D02*
X144119047Y-93785714D01*
X144119047Y-93452380D02*
X144166666Y-93500000D01*
X144119047Y-93547619D01*
X144071428Y-93500000D01*
X144119047Y-93452380D01*
X144119047Y-93547619D01*
X143738095Y-93785714D02*
X143500000Y-94452380D01*
X143261904Y-93785714D01*
X142500000Y-94404761D02*
X142595238Y-94452380D01*
X142785714Y-94452380D01*
X142880952Y-94404761D01*
X142928571Y-94309523D01*
X142928571Y-93928571D01*
X142880952Y-93833333D01*
X142785714Y-93785714D01*
X142595238Y-93785714D01*
X142500000Y-93833333D01*
X142452380Y-93928571D01*
X142452380Y-94023809D01*
X142928571Y-94119047D01*
X142023809Y-94452380D02*
X142023809Y-93785714D01*
X142023809Y-93976190D02*
X141976190Y-93880952D01*
X141928571Y-93833333D01*
X141833333Y-93785714D01*
X141738095Y-93785714D01*
X140785714Y-93452380D02*
X140452380Y-94452380D01*
X140119047Y-93452380D01*
X139261904Y-94452380D02*
X139833333Y-94452380D01*
X139547619Y-94452380D02*
X139547619Y-93452380D01*
X139642857Y-93595238D01*
X139738095Y-93690476D01*
X139833333Y-93738095D01*
X138833333Y-94357142D02*
X138785714Y-94404761D01*
X138833333Y-94452380D01*
X138880952Y-94404761D01*
X138833333Y-94357142D01*
X138833333Y-94452380D01*
X137833333Y-94452380D02*
X138404761Y-94452380D01*
X138119047Y-94452380D02*
X138119047Y-93452380D01*
X138214285Y-93595238D01*
X138309523Y-93690476D01*
X138404761Y-93738095D01*
D11*
G36*
X158362277Y-105959759D02*
G01*
X158531432Y-105961632D01*
X158622721Y-105964566D01*
X158692161Y-105971996D01*
X158744373Y-105985311D01*
X158783977Y-106005899D01*
X158815595Y-106035148D01*
X158827839Y-106050668D01*
X158834531Y-106060716D01*
X158840085Y-106072557D01*
X158844642Y-106088705D01*
X158848344Y-106111677D01*
X158851332Y-106143988D01*
X158853749Y-106188151D01*
X158855736Y-106246684D01*
X158857436Y-106322100D01*
X158858989Y-106416915D01*
X158860537Y-106533644D01*
X158862015Y-106657017D01*
X158863666Y-106799652D01*
X158865228Y-106918223D01*
X158867080Y-107015314D01*
X158869602Y-107093510D01*
X158873172Y-107155396D01*
X158878169Y-107203555D01*
X158884974Y-107240572D01*
X158893964Y-107269033D01*
X158905520Y-107291520D01*
X158920020Y-107310619D01*
X158937843Y-107328915D01*
X158959369Y-107348991D01*
X158964196Y-107353487D01*
X158999134Y-107384454D01*
X159045443Y-107423331D01*
X159094298Y-107462913D01*
X159136871Y-107495992D01*
X159154390Y-107508788D01*
X159149152Y-107518240D01*
X159128342Y-107535239D01*
X159128191Y-107535344D01*
X159081369Y-107570865D01*
X159030033Y-107614136D01*
X158979682Y-107660021D01*
X158935813Y-107703381D01*
X158903923Y-107739076D01*
X158892034Y-107756076D01*
X158886537Y-107768133D01*
X158881900Y-107784078D01*
X158878017Y-107806287D01*
X158874781Y-107837136D01*
X158872085Y-107879001D01*
X158869823Y-107934258D01*
X158867887Y-108005284D01*
X158866173Y-108094455D01*
X158864572Y-108204146D01*
X158862978Y-108336735D01*
X158862015Y-108425131D01*
X158860377Y-108577220D01*
X158858778Y-108704964D01*
X158856926Y-108810668D01*
X158854525Y-108896637D01*
X158851283Y-108965177D01*
X158846906Y-109018593D01*
X158841100Y-109059191D01*
X158833571Y-109089276D01*
X158824027Y-109111153D01*
X158812172Y-109127127D01*
X158797713Y-109139505D01*
X158780358Y-109150591D01*
X158768730Y-109157406D01*
X158744642Y-109169124D01*
X158715297Y-109177579D01*
X158675347Y-109183573D01*
X158619445Y-109187910D01*
X158542243Y-109191392D01*
X158542183Y-109191394D01*
X158362277Y-109198059D01*
X158358463Y-109327990D01*
X158354649Y-109457922D01*
X158605000Y-109456870D01*
X158689679Y-109455767D01*
X158765988Y-109453358D01*
X158829172Y-109449893D01*
X158874479Y-109445623D01*
X158895331Y-109441567D01*
X158981865Y-109397035D01*
X159056306Y-109331248D01*
X159114672Y-109248343D01*
X159143159Y-109184262D01*
X159149111Y-109165818D01*
X159154056Y-109145711D01*
X159158087Y-109121413D01*
X159161296Y-109090396D01*
X159163776Y-109050133D01*
X159165619Y-108998095D01*
X159166918Y-108931754D01*
X159167765Y-108848584D01*
X159168253Y-108746057D01*
X159168474Y-108621643D01*
X159168521Y-108491114D01*
X159168521Y-107870125D01*
X159245147Y-107801322D01*
X159330767Y-107723617D01*
X159397623Y-107660893D01*
X159447533Y-107611196D01*
X159482314Y-107572572D01*
X159503783Y-107543067D01*
X159513758Y-107520727D01*
X159515005Y-107511202D01*
X159511556Y-107494226D01*
X159499534Y-107473090D01*
X159476428Y-107444920D01*
X159439728Y-107406847D01*
X159386923Y-107355999D01*
X159345095Y-107316890D01*
X159175184Y-107159129D01*
X159168521Y-106572770D01*
X159166898Y-106432468D01*
X159165416Y-106316268D01*
X159163925Y-106221619D01*
X159162278Y-106145971D01*
X159160328Y-106086774D01*
X159157928Y-106041479D01*
X159154929Y-106007536D01*
X159151185Y-105982394D01*
X159146547Y-105963504D01*
X159140869Y-105948316D01*
X159134004Y-105934280D01*
X159131296Y-105929174D01*
X159069213Y-105838450D01*
X158990961Y-105766485D01*
X158930786Y-105730276D01*
X158903422Y-105717241D01*
X158879109Y-105707690D01*
X158853139Y-105701081D01*
X158820809Y-105696873D01*
X158777410Y-105694524D01*
X158718239Y-105693493D01*
X158638589Y-105693238D01*
X158608814Y-105693232D01*
X158362277Y-105693232D01*
X158362277Y-105959759D01*
G37*
X158362277Y-105959759D02*
X158531432Y-105961632D01*
X158622721Y-105964566D01*
X158692161Y-105971996D01*
X158744373Y-105985311D01*
X158783977Y-106005899D01*
X158815595Y-106035148D01*
X158827839Y-106050668D01*
X158834531Y-106060716D01*
X158840085Y-106072557D01*
X158844642Y-106088705D01*
X158848344Y-106111677D01*
X158851332Y-106143988D01*
X158853749Y-106188151D01*
X158855736Y-106246684D01*
X158857436Y-106322100D01*
X158858989Y-106416915D01*
X158860537Y-106533644D01*
X158862015Y-106657017D01*
X158863666Y-106799652D01*
X158865228Y-106918223D01*
X158867080Y-107015314D01*
X158869602Y-107093510D01*
X158873172Y-107155396D01*
X158878169Y-107203555D01*
X158884974Y-107240572D01*
X158893964Y-107269033D01*
X158905520Y-107291520D01*
X158920020Y-107310619D01*
X158937843Y-107328915D01*
X158959369Y-107348991D01*
X158964196Y-107353487D01*
X158999134Y-107384454D01*
X159045443Y-107423331D01*
X159094298Y-107462913D01*
X159136871Y-107495992D01*
X159154390Y-107508788D01*
X159149152Y-107518240D01*
X159128342Y-107535239D01*
X159128191Y-107535344D01*
X159081369Y-107570865D01*
X159030033Y-107614136D01*
X158979682Y-107660021D01*
X158935813Y-107703381D01*
X158903923Y-107739076D01*
X158892034Y-107756076D01*
X158886537Y-107768133D01*
X158881900Y-107784078D01*
X158878017Y-107806287D01*
X158874781Y-107837136D01*
X158872085Y-107879001D01*
X158869823Y-107934258D01*
X158867887Y-108005284D01*
X158866173Y-108094455D01*
X158864572Y-108204146D01*
X158862978Y-108336735D01*
X158862015Y-108425131D01*
X158860377Y-108577220D01*
X158858778Y-108704964D01*
X158856926Y-108810668D01*
X158854525Y-108896637D01*
X158851283Y-108965177D01*
X158846906Y-109018593D01*
X158841100Y-109059191D01*
X158833571Y-109089276D01*
X158824027Y-109111153D01*
X158812172Y-109127127D01*
X158797713Y-109139505D01*
X158780358Y-109150591D01*
X158768730Y-109157406D01*
X158744642Y-109169124D01*
X158715297Y-109177579D01*
X158675347Y-109183573D01*
X158619445Y-109187910D01*
X158542243Y-109191392D01*
X158542183Y-109191394D01*
X158362277Y-109198059D01*
X158358463Y-109327990D01*
X158354649Y-109457922D01*
X158605000Y-109456870D01*
X158689679Y-109455767D01*
X158765988Y-109453358D01*
X158829172Y-109449893D01*
X158874479Y-109445623D01*
X158895331Y-109441567D01*
X158981865Y-109397035D01*
X159056306Y-109331248D01*
X159114672Y-109248343D01*
X159143159Y-109184262D01*
X159149111Y-109165818D01*
X159154056Y-109145711D01*
X159158087Y-109121413D01*
X159161296Y-109090396D01*
X159163776Y-109050133D01*
X159165619Y-108998095D01*
X159166918Y-108931754D01*
X159167765Y-108848584D01*
X159168253Y-108746057D01*
X159168474Y-108621643D01*
X159168521Y-108491114D01*
X159168521Y-107870125D01*
X159245147Y-107801322D01*
X159330767Y-107723617D01*
X159397623Y-107660893D01*
X159447533Y-107611196D01*
X159482314Y-107572572D01*
X159503783Y-107543067D01*
X159513758Y-107520727D01*
X159515005Y-107511202D01*
X159511556Y-107494226D01*
X159499534Y-107473090D01*
X159476428Y-107444920D01*
X159439728Y-107406847D01*
X159386923Y-107355999D01*
X159345095Y-107316890D01*
X159175184Y-107159129D01*
X159168521Y-106572770D01*
X159166898Y-106432468D01*
X159165416Y-106316268D01*
X159163925Y-106221619D01*
X159162278Y-106145971D01*
X159160328Y-106086774D01*
X159157928Y-106041479D01*
X159154929Y-106007536D01*
X159151185Y-105982394D01*
X159146547Y-105963504D01*
X159140869Y-105948316D01*
X159134004Y-105934280D01*
X159131296Y-105929174D01*
X159069213Y-105838450D01*
X158990961Y-105766485D01*
X158930786Y-105730276D01*
X158903422Y-105717241D01*
X158879109Y-105707690D01*
X158853139Y-105701081D01*
X158820809Y-105696873D01*
X158777410Y-105694524D01*
X158718239Y-105693493D01*
X158638589Y-105693238D01*
X158608814Y-105693232D01*
X158362277Y-105693232D01*
X158362277Y-105959759D01*
G36*
X141491752Y-105687874D02*
G01*
X141436223Y-105688903D01*
X141347922Y-105691087D01*
X141281551Y-105693769D01*
X141232386Y-105697476D01*
X141195706Y-105702732D01*
X141166787Y-105710063D01*
X141140907Y-105719996D01*
X141135644Y-105722357D01*
X141059894Y-105768165D01*
X140990360Y-105830641D01*
X140935916Y-105901395D01*
X140924239Y-105922221D01*
X140891448Y-105986411D01*
X140887718Y-106567269D01*
X140883988Y-107148126D01*
X140707813Y-107313072D01*
X140651002Y-107367298D01*
X140601337Y-107416675D01*
X140562034Y-107457844D01*
X140536311Y-107487445D01*
X140527429Y-107501427D01*
X140526141Y-107514916D01*
X140529078Y-107528536D01*
X140538694Y-107545124D01*
X140557439Y-107567519D01*
X140587766Y-107598558D01*
X140632128Y-107641080D01*
X140692977Y-107697923D01*
X140714396Y-107717806D01*
X140883829Y-107874984D01*
X140887639Y-108523195D01*
X140891448Y-109171406D01*
X140931003Y-109242819D01*
X140990939Y-109325867D01*
X141068450Y-109394543D01*
X141122730Y-109427085D01*
X141144047Y-109435832D01*
X141170800Y-109442440D01*
X141207128Y-109447295D01*
X141257171Y-109450779D01*
X141325070Y-109453276D01*
X141414963Y-109455170D01*
X141427947Y-109455384D01*
X141519461Y-109456536D01*
X141587599Y-109456521D01*
X141635623Y-109455161D01*
X141666792Y-109452277D01*
X141684366Y-109447691D01*
X141691604Y-109441224D01*
X141691717Y-109440943D01*
X141694561Y-109419642D01*
X141695865Y-109379290D01*
X141695445Y-109327455D01*
X141694935Y-109310219D01*
X141691028Y-109198059D01*
X141503857Y-109191396D01*
X141418129Y-109187398D01*
X141354372Y-109181414D01*
X141307909Y-109171960D01*
X141274064Y-109157554D01*
X141248160Y-109136714D01*
X141225520Y-109107957D01*
X141221461Y-109101872D01*
X141215944Y-109091622D01*
X141211295Y-109077557D01*
X141207405Y-109057325D01*
X141204168Y-109028572D01*
X141201477Y-108988947D01*
X141199224Y-108936095D01*
X141197302Y-108867666D01*
X141195604Y-108781306D01*
X141194024Y-108674661D01*
X141192453Y-108545380D01*
X141191291Y-108439073D01*
X141189718Y-108293564D01*
X141188280Y-108172258D01*
X141186846Y-108072707D01*
X141185283Y-107992464D01*
X141183460Y-107929079D01*
X141181246Y-107880104D01*
X141178509Y-107843092D01*
X141175118Y-107815595D01*
X141170942Y-107795164D01*
X141165848Y-107779351D01*
X141159706Y-107765708D01*
X141154603Y-107755935D01*
X141122691Y-107711352D01*
X141070965Y-107657699D01*
X141003109Y-107598484D01*
X140931378Y-107543396D01*
X140891631Y-107514547D01*
X140931519Y-107483479D01*
X141023524Y-107408543D01*
X141093064Y-107344614D01*
X141139669Y-107292148D01*
X141156753Y-107265740D01*
X141163580Y-107251670D01*
X141169240Y-107236254D01*
X141173880Y-107216887D01*
X141177646Y-107190966D01*
X141180683Y-107155890D01*
X141183139Y-107109054D01*
X141185158Y-107047856D01*
X141186888Y-106969693D01*
X141188474Y-106871962D01*
X141190062Y-106752060D01*
X141191291Y-106650348D01*
X141192963Y-106513040D01*
X141194515Y-106399852D01*
X141196090Y-106308252D01*
X141197834Y-106235707D01*
X141199890Y-106179685D01*
X141202403Y-106137656D01*
X141205517Y-106107086D01*
X141209375Y-106085444D01*
X141214124Y-106070198D01*
X141219906Y-106058815D01*
X141225467Y-106050663D01*
X141258822Y-106013935D01*
X141299660Y-105987993D01*
X141352698Y-105971336D01*
X141422654Y-105962466D01*
X141511123Y-105959883D01*
X141573527Y-105958937D01*
X141626780Y-105956463D01*
X141664834Y-105952849D01*
X141681034Y-105948977D01*
X141688718Y-105931307D01*
X141694154Y-105894769D01*
X141697189Y-105847066D01*
X141697672Y-105795899D01*
X141695453Y-105748970D01*
X141690379Y-105713982D01*
X141685887Y-105701902D01*
X141676444Y-105695311D01*
X141655631Y-105690787D01*
X141620127Y-105688154D01*
X141566609Y-105687241D01*
X141491752Y-105687874D01*
G37*
X141491752Y-105687874D02*
X141436223Y-105688903D01*
X141347922Y-105691087D01*
X141281551Y-105693769D01*
X141232386Y-105697476D01*
X141195706Y-105702732D01*
X141166787Y-105710063D01*
X141140907Y-105719996D01*
X141135644Y-105722357D01*
X141059894Y-105768165D01*
X140990360Y-105830641D01*
X140935916Y-105901395D01*
X140924239Y-105922221D01*
X140891448Y-105986411D01*
X140887718Y-106567269D01*
X140883988Y-107148126D01*
X140707813Y-107313072D01*
X140651002Y-107367298D01*
X140601337Y-107416675D01*
X140562034Y-107457844D01*
X140536311Y-107487445D01*
X140527429Y-107501427D01*
X140526141Y-107514916D01*
X140529078Y-107528536D01*
X140538694Y-107545124D01*
X140557439Y-107567519D01*
X140587766Y-107598558D01*
X140632128Y-107641080D01*
X140692977Y-107697923D01*
X140714396Y-107717806D01*
X140883829Y-107874984D01*
X140887639Y-108523195D01*
X140891448Y-109171406D01*
X140931003Y-109242819D01*
X140990939Y-109325867D01*
X141068450Y-109394543D01*
X141122730Y-109427085D01*
X141144047Y-109435832D01*
X141170800Y-109442440D01*
X141207128Y-109447295D01*
X141257171Y-109450779D01*
X141325070Y-109453276D01*
X141414963Y-109455170D01*
X141427947Y-109455384D01*
X141519461Y-109456536D01*
X141587599Y-109456521D01*
X141635623Y-109455161D01*
X141666792Y-109452277D01*
X141684366Y-109447691D01*
X141691604Y-109441224D01*
X141691717Y-109440943D01*
X141694561Y-109419642D01*
X141695865Y-109379290D01*
X141695445Y-109327455D01*
X141694935Y-109310219D01*
X141691028Y-109198059D01*
X141503857Y-109191396D01*
X141418129Y-109187398D01*
X141354372Y-109181414D01*
X141307909Y-109171960D01*
X141274064Y-109157554D01*
X141248160Y-109136714D01*
X141225520Y-109107957D01*
X141221461Y-109101872D01*
X141215944Y-109091622D01*
X141211295Y-109077557D01*
X141207405Y-109057325D01*
X141204168Y-109028572D01*
X141201477Y-108988947D01*
X141199224Y-108936095D01*
X141197302Y-108867666D01*
X141195604Y-108781306D01*
X141194024Y-108674661D01*
X141192453Y-108545380D01*
X141191291Y-108439073D01*
X141189718Y-108293564D01*
X141188280Y-108172258D01*
X141186846Y-108072707D01*
X141185283Y-107992464D01*
X141183460Y-107929079D01*
X141181246Y-107880104D01*
X141178509Y-107843092D01*
X141175118Y-107815595D01*
X141170942Y-107795164D01*
X141165848Y-107779351D01*
X141159706Y-107765708D01*
X141154603Y-107755935D01*
X141122691Y-107711352D01*
X141070965Y-107657699D01*
X141003109Y-107598484D01*
X140931378Y-107543396D01*
X140891631Y-107514547D01*
X140931519Y-107483479D01*
X141023524Y-107408543D01*
X141093064Y-107344614D01*
X141139669Y-107292148D01*
X141156753Y-107265740D01*
X141163580Y-107251670D01*
X141169240Y-107236254D01*
X141173880Y-107216887D01*
X141177646Y-107190966D01*
X141180683Y-107155890D01*
X141183139Y-107109054D01*
X141185158Y-107047856D01*
X141186888Y-106969693D01*
X141188474Y-106871962D01*
X141190062Y-106752060D01*
X141191291Y-106650348D01*
X141192963Y-106513040D01*
X141194515Y-106399852D01*
X141196090Y-106308252D01*
X141197834Y-106235707D01*
X141199890Y-106179685D01*
X141202403Y-106137656D01*
X141205517Y-106107086D01*
X141209375Y-106085444D01*
X141214124Y-106070198D01*
X141219906Y-106058815D01*
X141225467Y-106050663D01*
X141258822Y-106013935D01*
X141299660Y-105987993D01*
X141352698Y-105971336D01*
X141422654Y-105962466D01*
X141511123Y-105959883D01*
X141573527Y-105958937D01*
X141626780Y-105956463D01*
X141664834Y-105952849D01*
X141681034Y-105948977D01*
X141688718Y-105931307D01*
X141694154Y-105894769D01*
X141697189Y-105847066D01*
X141697672Y-105795899D01*
X141695453Y-105748970D01*
X141690379Y-105713982D01*
X141685887Y-105701902D01*
X141676444Y-105695311D01*
X141655631Y-105690787D01*
X141620127Y-105688154D01*
X141566609Y-105687241D01*
X141491752Y-105687874D01*
G36*
X155261266Y-108818880D02*
G01*
X155208096Y-108820576D01*
X155170476Y-108823089D01*
X155153849Y-108826164D01*
X155153702Y-108826291D01*
X155152118Y-108843168D01*
X155159212Y-108869602D01*
X155166907Y-108892194D01*
X155180749Y-108935238D01*
X155199173Y-108993675D01*
X155220616Y-109062445D01*
X155243513Y-109136486D01*
X155266301Y-109210740D01*
X155287414Y-109280145D01*
X155305289Y-109339643D01*
X155318362Y-109384171D01*
X155319445Y-109387959D01*
X155331788Y-109431270D01*
X155556573Y-109431270D01*
X155550028Y-109374633D01*
X155546587Y-109342007D01*
X155541351Y-109288832D01*
X155534897Y-109221106D01*
X155527798Y-109144829D01*
X155523528Y-109098111D01*
X155516324Y-109022230D01*
X155509246Y-108953899D01*
X155502878Y-108898317D01*
X155497803Y-108860682D01*
X155495458Y-108848242D01*
X155490864Y-108835686D01*
X155482054Y-108827236D01*
X155464401Y-108822079D01*
X155433279Y-108819405D01*
X155384064Y-108818403D01*
X155324539Y-108818258D01*
X155261266Y-108818880D01*
G37*
X155261266Y-108818880D02*
X155208096Y-108820576D01*
X155170476Y-108823089D01*
X155153849Y-108826164D01*
X155153702Y-108826291D01*
X155152118Y-108843168D01*
X155159212Y-108869602D01*
X155166907Y-108892194D01*
X155180749Y-108935238D01*
X155199173Y-108993675D01*
X155220616Y-109062445D01*
X155243513Y-109136486D01*
X155266301Y-109210740D01*
X155287414Y-109280145D01*
X155305289Y-109339643D01*
X155318362Y-109384171D01*
X155319445Y-109387959D01*
X155331788Y-109431270D01*
X155556573Y-109431270D01*
X155550028Y-109374633D01*
X155546587Y-109342007D01*
X155541351Y-109288832D01*
X155534897Y-109221106D01*
X155527798Y-109144829D01*
X155523528Y-109098111D01*
X155516324Y-109022230D01*
X155509246Y-108953899D01*
X155502878Y-108898317D01*
X155497803Y-108860682D01*
X155495458Y-108848242D01*
X155490864Y-108835686D01*
X155482054Y-108827236D01*
X155464401Y-108822079D01*
X155433279Y-108819405D01*
X155384064Y-108818403D01*
X155324539Y-108818258D01*
X155261266Y-108818880D01*
G36*
X150205236Y-108819083D02*
G01*
X150153153Y-108821330D01*
X150116835Y-108824655D01*
X150101721Y-108828715D01*
X150101718Y-108828720D01*
X150102704Y-108845071D01*
X150110467Y-108880978D01*
X150123625Y-108930628D01*
X150135772Y-108971979D01*
X150157160Y-109042088D01*
X150179773Y-109116242D01*
X150199895Y-109182247D01*
X150206744Y-109204722D01*
X150224451Y-109262720D01*
X150241922Y-109319742D01*
X150255451Y-109363699D01*
X150255742Y-109364638D01*
X150274288Y-109424606D01*
X150383682Y-109428477D01*
X150437801Y-109429806D01*
X150470545Y-109428448D01*
X150487134Y-109423450D01*
X150492789Y-109413859D01*
X150493159Y-109408487D01*
X150491929Y-109376629D01*
X150488424Y-109325883D01*
X150483141Y-109261316D01*
X150476578Y-109187995D01*
X150469231Y-109110989D01*
X150461597Y-109035364D01*
X150454172Y-108966187D01*
X150447455Y-108908526D01*
X150441942Y-108867447D01*
X150438216Y-108848242D01*
X150432205Y-108835568D01*
X150422149Y-108827081D01*
X150403281Y-108821946D01*
X150370835Y-108819323D01*
X150320044Y-108818374D01*
X150267643Y-108818258D01*
X150205236Y-108819083D01*
G37*
X150205236Y-108819083D02*
X150153153Y-108821330D01*
X150116835Y-108824655D01*
X150101721Y-108828715D01*
X150101718Y-108828720D01*
X150102704Y-108845071D01*
X150110467Y-108880978D01*
X150123625Y-108930628D01*
X150135772Y-108971979D01*
X150157160Y-109042088D01*
X150179773Y-109116242D01*
X150199895Y-109182247D01*
X150206744Y-109204722D01*
X150224451Y-109262720D01*
X150241922Y-109319742D01*
X150255451Y-109363699D01*
X150255742Y-109364638D01*
X150274288Y-109424606D01*
X150383682Y-109428477D01*
X150437801Y-109429806D01*
X150470545Y-109428448D01*
X150487134Y-109423450D01*
X150492789Y-109413859D01*
X150493159Y-109408487D01*
X150491929Y-109376629D01*
X150488424Y-109325883D01*
X150483141Y-109261316D01*
X150476578Y-109187995D01*
X150469231Y-109110989D01*
X150461597Y-109035364D01*
X150454172Y-108966187D01*
X150447455Y-108908526D01*
X150441942Y-108867447D01*
X150438216Y-108848242D01*
X150432205Y-108835568D01*
X150422149Y-108827081D01*
X150403281Y-108821946D01*
X150370835Y-108819323D01*
X150320044Y-108818374D01*
X150267643Y-108818258D01*
X150205236Y-108819083D01*
G36*
X145484695Y-108821199D02*
G01*
X145315792Y-108824921D01*
X145320324Y-108858237D01*
X145326954Y-108889535D01*
X145339109Y-108934096D01*
X145348580Y-108964848D01*
X145361754Y-109006668D01*
X145380003Y-109066092D01*
X145400899Y-109135150D01*
X145421671Y-109204722D01*
X145445416Y-109285684D01*
X145463325Y-109344801D01*
X145478106Y-109385476D01*
X145492466Y-109411110D01*
X145509114Y-109425105D01*
X145530757Y-109430863D01*
X145560104Y-109431784D01*
X145599863Y-109431272D01*
X145602023Y-109431270D01*
X145708919Y-109431270D01*
X145709035Y-109374633D01*
X145707550Y-109339542D01*
X145703417Y-109285270D01*
X145697259Y-109219085D01*
X145689700Y-109148257D01*
X145689300Y-109144753D01*
X145680947Y-109071229D01*
X145672915Y-108999444D01*
X145666124Y-108937672D01*
X145661524Y-108894494D01*
X145653599Y-108817477D01*
X145484695Y-108821199D01*
G37*
X145484695Y-108821199D02*
X145315792Y-108824921D01*
X145320324Y-108858237D01*
X145326954Y-108889535D01*
X145339109Y-108934096D01*
X145348580Y-108964848D01*
X145361754Y-109006668D01*
X145380003Y-109066092D01*
X145400899Y-109135150D01*
X145421671Y-109204722D01*
X145445416Y-109285684D01*
X145463325Y-109344801D01*
X145478106Y-109385476D01*
X145492466Y-109411110D01*
X145509114Y-109425105D01*
X145530757Y-109430863D01*
X145560104Y-109431784D01*
X145599863Y-109431272D01*
X145602023Y-109431270D01*
X145708919Y-109431270D01*
X145709035Y-109374633D01*
X145707550Y-109339542D01*
X145703417Y-109285270D01*
X145697259Y-109219085D01*
X145689700Y-109148257D01*
X145689300Y-109144753D01*
X145680947Y-109071229D01*
X145672915Y-108999444D01*
X145666124Y-108937672D01*
X145661524Y-108894494D01*
X145653599Y-108817477D01*
X145484695Y-108821199D01*
G36*
X156553245Y-108658342D02*
G01*
X156555460Y-108705868D01*
X156556093Y-108754809D01*
X156556092Y-108754958D01*
X156556358Y-108875664D01*
X156557435Y-108941527D01*
X156555488Y-108986041D01*
X156549574Y-109032909D01*
X156549466Y-109033505D01*
X156549230Y-109078754D01*
X156568801Y-109111198D01*
X156610114Y-109132590D01*
X156672068Y-109144358D01*
X156735256Y-109152046D01*
X156778635Y-109160354D01*
X156808984Y-109171758D01*
X156833083Y-109188733D01*
X156855499Y-109211329D01*
X156909592Y-109256697D01*
X156966771Y-109280517D01*
X157022454Y-109281475D01*
X157056296Y-109268870D01*
X157082099Y-109251104D01*
X157116636Y-109223459D01*
X157132586Y-109209645D01*
X157161573Y-109185488D01*
X157188288Y-109169391D01*
X157220194Y-109158752D01*
X157264757Y-109150965D01*
X157319255Y-109144525D01*
X157368681Y-109136474D01*
X157400418Y-109123173D01*
X157422534Y-109102048D01*
X157444078Y-109067630D01*
X157446976Y-109036077D01*
X157431907Y-108996356D01*
X157429345Y-108991329D01*
X157417740Y-108963792D01*
X157417321Y-108939113D01*
X157428341Y-108904914D01*
X157431258Y-108897542D01*
X157444201Y-108861009D01*
X157445898Y-108835378D01*
X157436354Y-108807391D01*
X157431294Y-108796543D01*
X157417863Y-108763593D01*
X157417606Y-108739459D01*
X157430190Y-108710184D01*
X157443612Y-108673527D01*
X157446963Y-108641246D01*
X157446900Y-108640782D01*
X157442760Y-108611700D01*
X156549895Y-108611700D01*
X156553245Y-108658342D01*
G37*
X156553245Y-108658342D02*
X156555460Y-108705868D01*
X156556093Y-108754809D01*
X156556092Y-108754958D01*
X156556358Y-108875664D01*
X156557435Y-108941527D01*
X156555488Y-108986041D01*
X156549574Y-109032909D01*
X156549466Y-109033505D01*
X156549230Y-109078754D01*
X156568801Y-109111198D01*
X156610114Y-109132590D01*
X156672068Y-109144358D01*
X156735256Y-109152046D01*
X156778635Y-109160354D01*
X156808984Y-109171758D01*
X156833083Y-109188733D01*
X156855499Y-109211329D01*
X156909592Y-109256697D01*
X156966771Y-109280517D01*
X157022454Y-109281475D01*
X157056296Y-109268870D01*
X157082099Y-109251104D01*
X157116636Y-109223459D01*
X157132586Y-109209645D01*
X157161573Y-109185488D01*
X157188288Y-109169391D01*
X157220194Y-109158752D01*
X157264757Y-109150965D01*
X157319255Y-109144525D01*
X157368681Y-109136474D01*
X157400418Y-109123173D01*
X157422534Y-109102048D01*
X157444078Y-109067630D01*
X157446976Y-109036077D01*
X157431907Y-108996356D01*
X157429345Y-108991329D01*
X157417740Y-108963792D01*
X157417321Y-108939113D01*
X157428341Y-108904914D01*
X157431258Y-108897542D01*
X157444201Y-108861009D01*
X157445898Y-108835378D01*
X157436354Y-108807391D01*
X157431294Y-108796543D01*
X157417863Y-108763593D01*
X157417606Y-108739459D01*
X157430190Y-108710184D01*
X157443612Y-108673527D01*
X157446963Y-108641246D01*
X157446900Y-108640782D01*
X157442760Y-108611700D01*
X156549895Y-108611700D01*
X156553245Y-108658342D01*
G36*
X153050546Y-107534703D02*
G01*
X153023097Y-107559515D01*
X152984748Y-107596307D01*
X152939163Y-107641345D01*
X152890006Y-107690898D01*
X152840941Y-107741233D01*
X152795634Y-107788618D01*
X152757747Y-107829320D01*
X152730945Y-107859607D01*
X152718893Y-107875746D01*
X152718573Y-107876880D01*
X152727657Y-107889776D01*
X152753341Y-107918931D01*
X152793273Y-107961861D01*
X152845101Y-108016086D01*
X152906473Y-108079123D01*
X152975036Y-108148490D01*
X152994251Y-108167757D01*
X153269928Y-108443669D01*
X153270862Y-108574327D01*
X153272170Y-108638439D01*
X153276189Y-108685008D01*
X153284688Y-108723130D01*
X153299438Y-108761897D01*
X153313146Y-108791605D01*
X153374522Y-108891243D01*
X153452926Y-108971817D01*
X153545465Y-109031974D01*
X153649250Y-109070359D01*
X153761387Y-109085618D01*
X153878987Y-109076398D01*
X153908156Y-109070285D01*
X154003535Y-109034689D01*
X154090614Y-108977005D01*
X154166002Y-108901342D01*
X154226306Y-108811808D01*
X154268137Y-108712512D01*
X154276855Y-108667386D01*
X154144447Y-108667386D01*
X154134970Y-108676487D01*
X154108700Y-108700183D01*
X154068927Y-108735545D01*
X154018941Y-108779644D01*
X153976940Y-108816506D01*
X153809388Y-108963244D01*
X153707081Y-108902739D01*
X153645718Y-108866531D01*
X153578991Y-108827285D01*
X153520284Y-108792872D01*
X153514729Y-108789625D01*
X153468693Y-108761461D01*
X153442280Y-108741107D01*
X153431285Y-108724427D01*
X153431414Y-108707674D01*
X153436694Y-108684165D01*
X153446419Y-108640417D01*
X153459306Y-108582220D01*
X153474072Y-108515365D01*
X153477522Y-108499719D01*
X153492796Y-108433511D01*
X153507218Y-108376512D01*
X153519387Y-108333893D01*
X153527899Y-108310825D01*
X153529367Y-108308640D01*
X153545493Y-108303834D01*
X153582396Y-108297607D01*
X153634582Y-108290527D01*
X153696554Y-108283164D01*
X153762816Y-108276087D01*
X153827873Y-108269865D01*
X153886228Y-108265068D01*
X153932387Y-108262263D01*
X153960853Y-108262021D01*
X153967120Y-108263308D01*
X153973477Y-108276138D01*
X153988202Y-108308415D01*
X154009103Y-108355143D01*
X154033987Y-108411325D01*
X154060661Y-108471965D01*
X154086934Y-108532066D01*
X154110612Y-108586631D01*
X154129502Y-108630666D01*
X154141412Y-108659172D01*
X154144447Y-108667386D01*
X154276855Y-108667386D01*
X154287893Y-108610253D01*
X154283368Y-108507073D01*
X154255135Y-108404303D01*
X154205667Y-108307341D01*
X154137437Y-108221583D01*
X154090278Y-108179132D01*
X154010604Y-108125745D01*
X153928521Y-108091988D01*
X153836715Y-108075611D01*
X153747618Y-108073610D01*
X153623575Y-108077220D01*
X153347532Y-107801412D01*
X153277199Y-107731403D01*
X153212929Y-107667936D01*
X153157136Y-107613353D01*
X153112230Y-107569994D01*
X153080624Y-107540203D01*
X153064731Y-107526321D01*
X153063431Y-107525603D01*
X153050546Y-107534703D01*
G37*
X153050546Y-107534703D02*
X153023097Y-107559515D01*
X152984748Y-107596307D01*
X152939163Y-107641345D01*
X152890006Y-107690898D01*
X152840941Y-107741233D01*
X152795634Y-107788618D01*
X152757747Y-107829320D01*
X152730945Y-107859607D01*
X152718893Y-107875746D01*
X152718573Y-107876880D01*
X152727657Y-107889776D01*
X152753341Y-107918931D01*
X152793273Y-107961861D01*
X152845101Y-108016086D01*
X152906473Y-108079123D01*
X152975036Y-108148490D01*
X152994251Y-108167757D01*
X153269928Y-108443669D01*
X153270862Y-108574327D01*
X153272170Y-108638439D01*
X153276189Y-108685008D01*
X153284688Y-108723130D01*
X153299438Y-108761897D01*
X153313146Y-108791605D01*
X153374522Y-108891243D01*
X153452926Y-108971817D01*
X153545465Y-109031974D01*
X153649250Y-109070359D01*
X153761387Y-109085618D01*
X153878987Y-109076398D01*
X153908156Y-109070285D01*
X154003535Y-109034689D01*
X154090614Y-108977005D01*
X154166002Y-108901342D01*
X154226306Y-108811808D01*
X154268137Y-108712512D01*
X154276855Y-108667386D01*
X154144447Y-108667386D01*
X154134970Y-108676487D01*
X154108700Y-108700183D01*
X154068927Y-108735545D01*
X154018941Y-108779644D01*
X153976940Y-108816506D01*
X153809388Y-108963244D01*
X153707081Y-108902739D01*
X153645718Y-108866531D01*
X153578991Y-108827285D01*
X153520284Y-108792872D01*
X153514729Y-108789625D01*
X153468693Y-108761461D01*
X153442280Y-108741107D01*
X153431285Y-108724427D01*
X153431414Y-108707674D01*
X153436694Y-108684165D01*
X153446419Y-108640417D01*
X153459306Y-108582220D01*
X153474072Y-108515365D01*
X153477522Y-108499719D01*
X153492796Y-108433511D01*
X153507218Y-108376512D01*
X153519387Y-108333893D01*
X153527899Y-108310825D01*
X153529367Y-108308640D01*
X153545493Y-108303834D01*
X153582396Y-108297607D01*
X153634582Y-108290527D01*
X153696554Y-108283164D01*
X153762816Y-108276087D01*
X153827873Y-108269865D01*
X153886228Y-108265068D01*
X153932387Y-108262263D01*
X153960853Y-108262021D01*
X153967120Y-108263308D01*
X153973477Y-108276138D01*
X153988202Y-108308415D01*
X154009103Y-108355143D01*
X154033987Y-108411325D01*
X154060661Y-108471965D01*
X154086934Y-108532066D01*
X154110612Y-108586631D01*
X154129502Y-108630666D01*
X154141412Y-108659172D01*
X154144447Y-108667386D01*
X154276855Y-108667386D01*
X154287893Y-108610253D01*
X154283368Y-108507073D01*
X154255135Y-108404303D01*
X154205667Y-108307341D01*
X154137437Y-108221583D01*
X154090278Y-108179132D01*
X154010604Y-108125745D01*
X153928521Y-108091988D01*
X153836715Y-108075611D01*
X153747618Y-108073610D01*
X153623575Y-108077220D01*
X153347532Y-107801412D01*
X153277199Y-107731403D01*
X153212929Y-107667936D01*
X153157136Y-107613353D01*
X153112230Y-107569994D01*
X153080624Y-107540203D01*
X153064731Y-107526321D01*
X153063431Y-107525603D01*
X153050546Y-107534703D01*
G36*
X148044262Y-108617686D02*
G01*
X147981224Y-108641976D01*
X147925162Y-108686978D01*
X147886586Y-108740970D01*
X147870364Y-108793759D01*
X147867616Y-108855920D01*
X147877709Y-108916199D01*
X147899036Y-108962047D01*
X147943267Y-109014378D01*
X147986893Y-109046006D01*
X148038290Y-109061322D01*
X148095045Y-109064795D01*
X148146792Y-109063145D01*
X148182481Y-109056265D01*
X148212608Y-109041261D01*
X148232878Y-109026774D01*
X148266586Y-108996639D01*
X148291926Y-108966202D01*
X148297279Y-108956811D01*
X148311833Y-108924869D01*
X149009573Y-108924869D01*
X149024127Y-108956811D01*
X149058811Y-109003760D01*
X149111757Y-109040784D01*
X149175069Y-109063065D01*
X149204713Y-109066991D01*
X149251720Y-109066794D01*
X149292814Y-109061497D01*
X149307031Y-109057279D01*
X149355817Y-109026571D01*
X149400746Y-108980913D01*
X149433116Y-108929985D01*
X149441260Y-108907956D01*
X149447896Y-108861661D01*
X149447834Y-108851135D01*
X149330893Y-108851135D01*
X149318500Y-108891262D01*
X149290047Y-108924953D01*
X149245453Y-108946604D01*
X149224608Y-108950469D01*
X149206747Y-108946918D01*
X149178237Y-108937361D01*
X149144549Y-108920081D01*
X149127089Y-108895744D01*
X149121003Y-108856076D01*
X149120666Y-108839297D01*
X149123407Y-108820903D01*
X148200994Y-108820903D01*
X148198235Y-108866128D01*
X148181049Y-108907156D01*
X148150135Y-108935619D01*
X148144856Y-108938081D01*
X148101149Y-108945741D01*
X148053949Y-108938843D01*
X148016773Y-108919532D01*
X148014554Y-108917432D01*
X147999038Y-108887002D01*
X147993643Y-108844393D01*
X147997984Y-108800501D01*
X148011672Y-108766225D01*
X148020254Y-108757215D01*
X148057266Y-108742665D01*
X148104978Y-108738923D01*
X148149477Y-108746572D01*
X148160440Y-108751345D01*
X148188629Y-108779852D01*
X148200994Y-108820903D01*
X149123407Y-108820903D01*
X149128482Y-108786853D01*
X149153647Y-108754218D01*
X149198000Y-108739549D01*
X149221508Y-108738300D01*
X149272534Y-108748153D01*
X149307828Y-108773978D01*
X149327309Y-108810173D01*
X149330893Y-108851135D01*
X149447834Y-108851135D01*
X149447582Y-108808837D01*
X149445955Y-108794214D01*
X149428204Y-108740694D01*
X149394365Y-108689697D01*
X149350651Y-108647772D01*
X149303279Y-108621471D01*
X149276812Y-108615968D01*
X149185232Y-108618674D01*
X149112971Y-108638498D01*
X149058444Y-108676024D01*
X149034912Y-108705219D01*
X149013237Y-108738300D01*
X148661363Y-108738300D01*
X148555505Y-108738247D01*
X148473092Y-108737918D01*
X148410917Y-108737057D01*
X148365772Y-108735409D01*
X148334450Y-108732719D01*
X148313742Y-108728731D01*
X148300443Y-108723189D01*
X148291344Y-108715839D01*
X148284793Y-108708316D01*
X148225408Y-108651395D01*
X148160451Y-108619830D01*
X148086771Y-108612432D01*
X148044262Y-108617686D01*
G37*
X148044262Y-108617686D02*
X147981224Y-108641976D01*
X147925162Y-108686978D01*
X147886586Y-108740970D01*
X147870364Y-108793759D01*
X147867616Y-108855920D01*
X147877709Y-108916199D01*
X147899036Y-108962047D01*
X147943267Y-109014378D01*
X147986893Y-109046006D01*
X148038290Y-109061322D01*
X148095045Y-109064795D01*
X148146792Y-109063145D01*
X148182481Y-109056265D01*
X148212608Y-109041261D01*
X148232878Y-109026774D01*
X148266586Y-108996639D01*
X148291926Y-108966202D01*
X148297279Y-108956811D01*
X148311833Y-108924869D01*
X149009573Y-108924869D01*
X149024127Y-108956811D01*
X149058811Y-109003760D01*
X149111757Y-109040784D01*
X149175069Y-109063065D01*
X149204713Y-109066991D01*
X149251720Y-109066794D01*
X149292814Y-109061497D01*
X149307031Y-109057279D01*
X149355817Y-109026571D01*
X149400746Y-108980913D01*
X149433116Y-108929985D01*
X149441260Y-108907956D01*
X149447896Y-108861661D01*
X149447834Y-108851135D01*
X149330893Y-108851135D01*
X149318500Y-108891262D01*
X149290047Y-108924953D01*
X149245453Y-108946604D01*
X149224608Y-108950469D01*
X149206747Y-108946918D01*
X149178237Y-108937361D01*
X149144549Y-108920081D01*
X149127089Y-108895744D01*
X149121003Y-108856076D01*
X149120666Y-108839297D01*
X149123407Y-108820903D01*
X148200994Y-108820903D01*
X148198235Y-108866128D01*
X148181049Y-108907156D01*
X148150135Y-108935619D01*
X148144856Y-108938081D01*
X148101149Y-108945741D01*
X148053949Y-108938843D01*
X148016773Y-108919532D01*
X148014554Y-108917432D01*
X147999038Y-108887002D01*
X147993643Y-108844393D01*
X147997984Y-108800501D01*
X148011672Y-108766225D01*
X148020254Y-108757215D01*
X148057266Y-108742665D01*
X148104978Y-108738923D01*
X148149477Y-108746572D01*
X148160440Y-108751345D01*
X148188629Y-108779852D01*
X148200994Y-108820903D01*
X149123407Y-108820903D01*
X149128482Y-108786853D01*
X149153647Y-108754218D01*
X149198000Y-108739549D01*
X149221508Y-108738300D01*
X149272534Y-108748153D01*
X149307828Y-108773978D01*
X149327309Y-108810173D01*
X149330893Y-108851135D01*
X149447834Y-108851135D01*
X149447582Y-108808837D01*
X149445955Y-108794214D01*
X149428204Y-108740694D01*
X149394365Y-108689697D01*
X149350651Y-108647772D01*
X149303279Y-108621471D01*
X149276812Y-108615968D01*
X149185232Y-108618674D01*
X149112971Y-108638498D01*
X149058444Y-108676024D01*
X149034912Y-108705219D01*
X149013237Y-108738300D01*
X148661363Y-108738300D01*
X148555505Y-108738247D01*
X148473092Y-108737918D01*
X148410917Y-108737057D01*
X148365772Y-108735409D01*
X148334450Y-108732719D01*
X148313742Y-108728731D01*
X148300443Y-108723189D01*
X148291344Y-108715839D01*
X148284793Y-108708316D01*
X148225408Y-108651395D01*
X148160451Y-108619830D01*
X148086771Y-108612432D01*
X148044262Y-108617686D01*
G36*
X147469595Y-105841604D02*
G01*
X147409313Y-105872620D01*
X147364310Y-105917864D01*
X147358540Y-105927099D01*
X147335972Y-105966422D01*
X146910975Y-105966422D01*
X146792812Y-105966511D01*
X146698444Y-105966884D01*
X146625016Y-105967694D01*
X146569670Y-105969100D01*
X146529551Y-105971255D01*
X146501800Y-105974316D01*
X146483562Y-105978438D01*
X146471981Y-105983777D01*
X146464198Y-105990490D01*
X146463923Y-105990792D01*
X146460416Y-105996233D01*
X146457299Y-106005355D01*
X146454549Y-106019652D01*
X146452143Y-106040620D01*
X146450059Y-106069755D01*
X146448274Y-106108552D01*
X146446766Y-106158505D01*
X146445511Y-106221110D01*
X146444486Y-106297862D01*
X146443670Y-106390257D01*
X146443039Y-106499789D01*
X146442571Y-106627954D01*
X146442243Y-106776247D01*
X146442032Y-106946163D01*
X146441915Y-107139198D01*
X146441871Y-107356847D01*
X146441868Y-107442396D01*
X146441868Y-108869629D01*
X146476981Y-108897249D01*
X146487790Y-108904972D01*
X146500399Y-108911103D01*
X146517801Y-108915828D01*
X146542990Y-108919327D01*
X146578958Y-108921785D01*
X146628699Y-108923385D01*
X146695207Y-108924309D01*
X146781474Y-108924741D01*
X146890494Y-108924865D01*
X146928460Y-108924869D01*
X147344825Y-108924869D01*
X147360043Y-108961516D01*
X147391484Y-109005245D01*
X147441296Y-109039362D01*
X147502218Y-109061549D01*
X147566986Y-109069487D01*
X147628337Y-109060859D01*
X147647901Y-109053385D01*
X147706937Y-109012579D01*
X147751610Y-108954930D01*
X147778088Y-108887403D01*
X147782540Y-108816963D01*
X147781655Y-108810221D01*
X147758385Y-108734747D01*
X147715360Y-108675456D01*
X147655555Y-108634932D01*
X147581942Y-108615760D01*
X147556477Y-108614555D01*
X147476706Y-108625467D01*
X147412109Y-108658045D01*
X147372442Y-108698541D01*
X147343047Y-108738300D01*
X146628437Y-108738300D01*
X146628437Y-106152990D01*
X147343781Y-106152990D01*
X147358507Y-106185312D01*
X147378354Y-106210629D01*
X147412579Y-106239244D01*
X147434515Y-106253546D01*
X147478295Y-106275771D01*
X147517248Y-106284642D01*
X147566596Y-106283587D01*
X147567556Y-106283508D01*
X147645178Y-106265597D01*
X147706483Y-106227497D01*
X147749358Y-106171490D01*
X147771694Y-106099859D01*
X147774502Y-106059706D01*
X147762685Y-105981239D01*
X147728852Y-105915291D01*
X147675424Y-105865089D01*
X147605090Y-105833935D01*
X147537430Y-105827735D01*
X147469595Y-105841604D01*
G37*
X147469595Y-105841604D02*
X147409313Y-105872620D01*
X147364310Y-105917864D01*
X147358540Y-105927099D01*
X147335972Y-105966422D01*
X146910975Y-105966422D01*
X146792812Y-105966511D01*
X146698444Y-105966884D01*
X146625016Y-105967694D01*
X146569670Y-105969100D01*
X146529551Y-105971255D01*
X146501800Y-105974316D01*
X146483562Y-105978438D01*
X146471981Y-105983777D01*
X146464198Y-105990490D01*
X146463923Y-105990792D01*
X146460416Y-105996233D01*
X146457299Y-106005355D01*
X146454549Y-106019652D01*
X146452143Y-106040620D01*
X146450059Y-106069755D01*
X146448274Y-106108552D01*
X146446766Y-106158505D01*
X146445511Y-106221110D01*
X146444486Y-106297862D01*
X146443670Y-106390257D01*
X146443039Y-106499789D01*
X146442571Y-106627954D01*
X146442243Y-106776247D01*
X146442032Y-106946163D01*
X146441915Y-107139198D01*
X146441871Y-107356847D01*
X146441868Y-107442396D01*
X146441868Y-108869629D01*
X146476981Y-108897249D01*
X146487790Y-108904972D01*
X146500399Y-108911103D01*
X146517801Y-108915828D01*
X146542990Y-108919327D01*
X146578958Y-108921785D01*
X146628699Y-108923385D01*
X146695207Y-108924309D01*
X146781474Y-108924741D01*
X146890494Y-108924865D01*
X146928460Y-108924869D01*
X147344825Y-108924869D01*
X147360043Y-108961516D01*
X147391484Y-109005245D01*
X147441296Y-109039362D01*
X147502218Y-109061549D01*
X147566986Y-109069487D01*
X147628337Y-109060859D01*
X147647901Y-109053385D01*
X147706937Y-109012579D01*
X147751610Y-108954930D01*
X147778088Y-108887403D01*
X147782540Y-108816963D01*
X147781655Y-108810221D01*
X147758385Y-108734747D01*
X147715360Y-108675456D01*
X147655555Y-108634932D01*
X147581942Y-108615760D01*
X147556477Y-108614555D01*
X147476706Y-108625467D01*
X147412109Y-108658045D01*
X147372442Y-108698541D01*
X147343047Y-108738300D01*
X146628437Y-108738300D01*
X146628437Y-106152990D01*
X147343781Y-106152990D01*
X147358507Y-106185312D01*
X147378354Y-106210629D01*
X147412579Y-106239244D01*
X147434515Y-106253546D01*
X147478295Y-106275771D01*
X147517248Y-106284642D01*
X147566596Y-106283587D01*
X147567556Y-106283508D01*
X147645178Y-106265597D01*
X147706483Y-106227497D01*
X147749358Y-106171490D01*
X147771694Y-106099859D01*
X147774502Y-106059706D01*
X147762685Y-105981239D01*
X147728852Y-105915291D01*
X147675424Y-105865089D01*
X147605090Y-105833935D01*
X147537430Y-105827735D01*
X147469595Y-105841604D01*
G36*
X143176855Y-105831893D02*
G01*
X143148429Y-105862670D01*
X143105253Y-105908820D01*
X143050993Y-105966451D01*
X142989318Y-106031671D01*
X142923895Y-106100589D01*
X142894277Y-106131701D01*
X142825004Y-106204471D01*
X142754675Y-106278477D01*
X142687787Y-106348978D01*
X142628836Y-106411232D01*
X142582321Y-106460499D01*
X142570567Y-106472991D01*
X142530892Y-106515086D01*
X142476889Y-106572203D01*
X142412609Y-106640065D01*
X142342107Y-106714394D01*
X142269435Y-106790913D01*
X142223267Y-106839471D01*
X142092704Y-106976829D01*
X141979556Y-107096107D01*
X141882768Y-107198440D01*
X141801288Y-107284968D01*
X141734063Y-107356826D01*
X141680040Y-107415151D01*
X141638166Y-107461081D01*
X141607387Y-107495754D01*
X141586651Y-107520305D01*
X141574904Y-107535873D01*
X141571094Y-107543595D01*
X141571091Y-107543709D01*
X141581739Y-107550428D01*
X141614595Y-107555658D01*
X141671032Y-107559526D01*
X141752419Y-107562162D01*
X141774318Y-107562598D01*
X141977545Y-107566277D01*
X141977545Y-109018153D01*
X144509549Y-109018153D01*
X144509549Y-108434130D01*
X143976573Y-108434130D01*
X143966006Y-108467640D01*
X143947941Y-108477248D01*
X143912429Y-108484838D01*
X143884269Y-108487629D01*
X143838391Y-108492663D01*
X143809598Y-108503637D01*
X143788410Y-108524325D01*
X143786835Y-108526412D01*
X143772349Y-108548621D01*
X143767738Y-108569173D01*
X143772468Y-108597989D01*
X143781292Y-108629207D01*
X143801529Y-108697354D01*
X143766156Y-108723122D01*
X143730782Y-108748889D01*
X143673272Y-108709321D01*
X143617498Y-108681365D01*
X143569568Y-108678690D01*
X143530754Y-108700746D01*
X143502330Y-108746983D01*
X143490333Y-108788274D01*
X143480963Y-108817852D01*
X143463352Y-108829661D01*
X143435390Y-108831584D01*
X143401767Y-108827613D01*
X143383719Y-108811351D01*
X143376692Y-108794937D01*
X143352948Y-108738111D01*
X143327278Y-108702574D01*
X143295569Y-108683051D01*
X143287331Y-108680370D01*
X143258944Y-108675224D01*
X143234305Y-108681169D01*
X143203423Y-108701375D01*
X143191227Y-108710867D01*
X143155274Y-108736298D01*
X143128996Y-108743359D01*
X143103140Y-108732444D01*
X143081762Y-108715542D01*
X143069614Y-108702206D01*
X143066716Y-108685393D01*
X143072992Y-108656771D01*
X143080991Y-108630893D01*
X143092692Y-108591164D01*
X143095017Y-108566370D01*
X143087353Y-108546275D01*
X143074848Y-108528356D01*
X143053608Y-108505787D01*
X143026801Y-108493731D01*
X142984689Y-108488178D01*
X142975962Y-108487629D01*
X142920449Y-108478291D01*
X142889111Y-108459289D01*
X142882563Y-108432478D01*
X142901419Y-108399713D01*
X142936756Y-108369358D01*
X142969962Y-108342708D01*
X142985668Y-108318331D01*
X142990016Y-108286194D01*
X142990062Y-108282271D01*
X142987369Y-108249518D01*
X142974467Y-108227634D01*
X142944833Y-108206765D01*
X142937144Y-108202313D01*
X142898048Y-108173519D01*
X142883936Y-108145499D01*
X142883838Y-108143036D01*
X142887110Y-108105275D01*
X142900919Y-108083639D01*
X142930757Y-108073830D01*
X142975114Y-108071564D01*
X143020426Y-108069650D01*
X143048217Y-108062434D01*
X143067531Y-108046760D01*
X143075608Y-108036460D01*
X143089743Y-108014592D01*
X143094196Y-107994823D01*
X143089274Y-107967410D01*
X143078846Y-107933599D01*
X143066672Y-107893762D01*
X143063560Y-107870667D01*
X143070086Y-107855791D01*
X143085014Y-107842104D01*
X143110850Y-107824533D01*
X143134043Y-107821877D01*
X143162626Y-107835260D01*
X143193490Y-107857300D01*
X143236994Y-107883560D01*
X143273047Y-107889210D01*
X143278070Y-107888445D01*
X143311813Y-107869953D01*
X143342741Y-107831945D01*
X143365689Y-107781458D01*
X143370921Y-107761952D01*
X143379449Y-107736867D01*
X143395974Y-107727520D01*
X143427441Y-107728098D01*
X143459110Y-107733395D01*
X143476303Y-107747621D01*
X143487761Y-107778858D01*
X143489522Y-107785494D01*
X143503198Y-107831015D01*
X143518224Y-107858019D01*
X143540407Y-107874265D01*
X143562651Y-107883164D01*
X143589742Y-107889400D01*
X143614259Y-107884139D01*
X143646317Y-107864631D01*
X143655844Y-107857823D01*
X143697177Y-107830709D01*
X143726727Y-107820530D01*
X143752077Y-107825907D01*
X143769917Y-107837110D01*
X143783720Y-107849819D01*
X143788594Y-107866222D01*
X143785200Y-107894286D01*
X143777487Y-107928360D01*
X143768227Y-107972256D01*
X143767185Y-108000502D01*
X143774878Y-108022962D01*
X143783156Y-108036633D01*
X143799511Y-108056959D01*
X143819998Y-108067582D01*
X143853228Y-108071541D01*
X143883318Y-108071983D01*
X143931065Y-108074077D01*
X143957829Y-108081252D01*
X143968406Y-108093063D01*
X143975756Y-108132216D01*
X143961743Y-108164107D01*
X143926522Y-108193049D01*
X143893539Y-108218322D01*
X143877868Y-108245012D01*
X143872600Y-108278835D01*
X143872179Y-108312873D01*
X143881182Y-108334816D01*
X143905398Y-108354767D01*
X143922215Y-108365426D01*
X143962662Y-108399148D01*
X143976573Y-108434130D01*
X144509549Y-108434130D01*
X144509549Y-107565582D01*
X144708657Y-107565582D01*
X144790554Y-107564665D01*
X144854187Y-107562033D01*
X144896850Y-107557867D01*
X144915837Y-107552345D01*
X144916292Y-107551787D01*
X144909971Y-107538587D01*
X144887570Y-107509169D01*
X144851575Y-107466439D01*
X144804471Y-107413302D01*
X144748744Y-107352661D01*
X144717183Y-107319126D01*
X144624257Y-107221173D01*
X144077597Y-107221173D01*
X144061097Y-107238846D01*
X144020773Y-107245724D01*
X144017372Y-107245750D01*
X143968964Y-107254707D01*
X143938000Y-107277486D01*
X143919312Y-107300312D01*
X143915561Y-107320263D01*
X143925156Y-107349780D01*
X143927895Y-107356392D01*
X143939572Y-107388485D01*
X143938753Y-107407507D01*
X143924630Y-107424339D01*
X143922720Y-107426081D01*
X143904062Y-107439949D01*
X143887559Y-107438420D01*
X143862074Y-107420470D01*
X143830624Y-107400979D01*
X143803523Y-107392362D01*
X143802546Y-107392340D01*
X143768358Y-107397151D01*
X143743342Y-107408831D01*
X143736621Y-107419551D01*
X143732271Y-107439129D01*
X143723288Y-107465652D01*
X143702541Y-107492649D01*
X143674359Y-107499097D01*
X143646926Y-107486046D01*
X143628425Y-107454544D01*
X143628125Y-107453444D01*
X143607521Y-107411757D01*
X143575246Y-107393473D01*
X143533216Y-107399067D01*
X143494757Y-107420410D01*
X143467265Y-107437994D01*
X143449951Y-107440006D01*
X143432169Y-107427512D01*
X143431335Y-107426759D01*
X143416592Y-107408416D01*
X143415008Y-107392271D01*
X143323505Y-107392271D01*
X143321737Y-107423703D01*
X143311697Y-107440835D01*
X143286277Y-107451597D01*
X143265398Y-107457113D01*
X143218646Y-107472734D01*
X143191101Y-107494413D01*
X143175326Y-107528819D01*
X143172246Y-107540626D01*
X143171687Y-107570454D01*
X143187085Y-107603140D01*
X143203724Y-107625748D01*
X143230059Y-107660334D01*
X143240795Y-107682682D01*
X143237228Y-107701166D01*
X143220656Y-107724160D01*
X143219238Y-107725913D01*
X143203094Y-107743056D01*
X143185770Y-107749536D01*
X143158241Y-107746700D01*
X143127095Y-107739661D01*
X143084285Y-107731002D01*
X143056321Y-107731238D01*
X143032702Y-107741015D01*
X143024804Y-107745965D01*
X143004937Y-107762182D01*
X142994572Y-107782983D01*
X142990742Y-107816933D01*
X142990346Y-107845414D01*
X142989194Y-107889510D01*
X142984085Y-107914017D01*
X142972539Y-107925958D01*
X142960362Y-107930320D01*
X142921670Y-107937089D01*
X142893316Y-107929712D01*
X142866177Y-107904375D01*
X142850726Y-107884475D01*
X142824076Y-107851941D01*
X142801698Y-107836960D01*
X142774266Y-107834159D01*
X142764512Y-107834817D01*
X142731973Y-107841983D01*
X142706051Y-107861166D01*
X142680036Y-107895409D01*
X142653849Y-107931170D01*
X142632201Y-107947816D01*
X142606622Y-107949495D01*
X142581185Y-107943810D01*
X142563889Y-107935436D01*
X142554184Y-107917450D01*
X142549230Y-107882828D01*
X142547869Y-107861380D01*
X142544021Y-107817174D01*
X142535741Y-107790722D01*
X142519002Y-107773130D01*
X142503463Y-107763267D01*
X142476628Y-107749870D01*
X142452491Y-107746569D01*
X142419848Y-107752944D01*
X142397943Y-107759295D01*
X142358087Y-107770105D01*
X142334162Y-107771737D01*
X142316981Y-107763933D01*
X142308462Y-107756786D01*
X142288893Y-107732334D01*
X142287489Y-107706277D01*
X142305111Y-107672552D01*
X142323955Y-107647627D01*
X142347700Y-107615653D01*
X142356296Y-107592836D01*
X142352446Y-107568545D01*
X142347571Y-107554821D01*
X142329840Y-107523341D01*
X142300747Y-107505038D01*
X142277683Y-107497989D01*
X142239772Y-107488006D01*
X142211810Y-107480107D01*
X142207424Y-107478721D01*
X142196289Y-107462990D01*
X142190868Y-107431776D01*
X142190766Y-107426609D01*
X142192959Y-107396975D01*
X142204316Y-107380396D01*
X142232007Y-107369035D01*
X142247403Y-107364700D01*
X142285590Y-107354326D01*
X142313570Y-107346721D01*
X142319015Y-107345240D01*
X142330976Y-107330687D01*
X142341545Y-107299886D01*
X142343248Y-107291815D01*
X142346524Y-107258119D01*
X142338716Y-107230429D01*
X142316165Y-107197316D01*
X142310897Y-107190692D01*
X142285837Y-107155475D01*
X142279469Y-107129462D01*
X142291431Y-107103221D01*
X142306809Y-107083965D01*
X142320366Y-107071719D01*
X142337548Y-107068957D01*
X142366841Y-107075547D01*
X142389817Y-107082670D01*
X142428986Y-107094122D01*
X142454039Y-107095871D01*
X142476057Y-107086900D01*
X142496786Y-107072854D01*
X142522153Y-107052413D01*
X142533996Y-107031895D01*
X142536350Y-107001001D01*
X142535019Y-106975223D01*
X142533467Y-106934995D01*
X142538294Y-106912614D01*
X142553438Y-106899385D01*
X142573402Y-106890457D01*
X142599494Y-106881293D01*
X142617756Y-106883079D01*
X142636772Y-106899392D01*
X142658922Y-106926082D01*
X142687934Y-106958559D01*
X142713209Y-106974224D01*
X142745258Y-106978791D01*
X142756034Y-106978865D01*
X142791554Y-106976043D01*
X142814904Y-106963847D01*
X142836678Y-106935792D01*
X142843104Y-106925560D01*
X142873783Y-106887118D01*
X142905655Y-106873347D01*
X142943520Y-106882510D01*
X142951243Y-106886408D01*
X142967808Y-106901967D01*
X142975533Y-106930371D01*
X142977020Y-106965459D01*
X142979145Y-107007197D01*
X142988654Y-107033190D01*
X143010244Y-107054211D01*
X143018312Y-107060116D01*
X143047180Y-107078572D01*
X143068915Y-107081941D01*
X143097450Y-107071435D01*
X143105385Y-107067687D01*
X143154159Y-107049418D01*
X143189003Y-107049918D01*
X143215464Y-107069764D01*
X143222790Y-107079871D01*
X143235232Y-107101669D01*
X143235466Y-107118807D01*
X143221313Y-107140494D01*
X143203568Y-107161165D01*
X143177695Y-107194697D01*
X143168324Y-107221721D01*
X143171025Y-107250417D01*
X143183962Y-107292110D01*
X143205274Y-107316203D01*
X143242501Y-107329367D01*
X143264626Y-107333231D01*
X143300938Y-107339951D01*
X143318047Y-107350444D01*
X143323175Y-107371954D01*
X143323505Y-107392271D01*
X143415008Y-107392271D01*
X143414306Y-107385129D01*
X143421321Y-107352634D01*
X143425550Y-107302526D01*
X143408028Y-107267666D01*
X143369440Y-107248913D01*
X143336192Y-107245750D01*
X143294211Y-107239654D01*
X143276051Y-107222660D01*
X143282174Y-107196705D01*
X143313042Y-107163729D01*
X143316031Y-107161296D01*
X143350929Y-107126654D01*
X143360694Y-107095892D01*
X143345289Y-107064548D01*
X143315071Y-107036255D01*
X143285931Y-107010492D01*
X143275341Y-106991997D01*
X143279527Y-106973481D01*
X143281044Y-106970534D01*
X143299252Y-106951450D01*
X143329831Y-106948820D01*
X143336646Y-106949701D01*
X143382139Y-106945641D01*
X143405056Y-106931139D01*
X143422127Y-106908352D01*
X143426095Y-106878336D01*
X143417296Y-106834177D01*
X143410800Y-106812644D01*
X143412391Y-106785384D01*
X143430149Y-106768843D01*
X143453075Y-106759375D01*
X143474912Y-106766178D01*
X143492487Y-106778837D01*
X143537948Y-106803817D01*
X143577090Y-106804469D01*
X143606807Y-106781656D01*
X143622732Y-106742681D01*
X143633089Y-106712377D01*
X143651703Y-106700729D01*
X143670667Y-106699370D01*
X143698958Y-106703917D01*
X143714190Y-106722819D01*
X143720358Y-106742405D01*
X143741590Y-106781607D01*
X143776440Y-106800615D01*
X143819594Y-106797992D01*
X143856675Y-106779245D01*
X143885435Y-106760816D01*
X143902999Y-106757930D01*
X143918711Y-106769139D01*
X143919150Y-106769577D01*
X143931407Y-106787632D01*
X143931171Y-106811404D01*
X143923307Y-106838943D01*
X143914317Y-106873058D01*
X143918130Y-106895698D01*
X143937152Y-106919927D01*
X143938475Y-106921340D01*
X143970242Y-106945660D01*
X144007470Y-106950199D01*
X144014046Y-106949547D01*
X144049359Y-106950336D01*
X144069324Y-106965492D01*
X144071941Y-106969936D01*
X144077020Y-106988786D01*
X144067204Y-107007824D01*
X144038792Y-107034081D01*
X144037719Y-107034967D01*
X144002572Y-107070644D01*
X143992565Y-107101986D01*
X144007681Y-107133467D01*
X144037275Y-107161296D01*
X144069810Y-107194669D01*
X144077597Y-107221173D01*
X144624257Y-107221173D01*
X144509549Y-107100260D01*
X144509549Y-106073032D01*
X143816579Y-106073032D01*
X143816207Y-106216291D01*
X143815834Y-106359549D01*
X143659622Y-106199038D01*
X143593761Y-106131008D01*
X143521468Y-106055747D01*
X143450375Y-105981236D01*
X143388117Y-105915457D01*
X143372871Y-105899224D01*
X143242332Y-105759921D01*
X143176855Y-105831893D01*
G37*
X143176855Y-105831893D02*
X143148429Y-105862670D01*
X143105253Y-105908820D01*
X143050993Y-105966451D01*
X142989318Y-106031671D01*
X142923895Y-106100589D01*
X142894277Y-106131701D01*
X142825004Y-106204471D01*
X142754675Y-106278477D01*
X142687787Y-106348978D01*
X142628836Y-106411232D01*
X142582321Y-106460499D01*
X142570567Y-106472991D01*
X142530892Y-106515086D01*
X142476889Y-106572203D01*
X142412609Y-106640065D01*
X142342107Y-106714394D01*
X142269435Y-106790913D01*
X142223267Y-106839471D01*
X142092704Y-106976829D01*
X141979556Y-107096107D01*
X141882768Y-107198440D01*
X141801288Y-107284968D01*
X141734063Y-107356826D01*
X141680040Y-107415151D01*
X141638166Y-107461081D01*
X141607387Y-107495754D01*
X141586651Y-107520305D01*
X141574904Y-107535873D01*
X141571094Y-107543595D01*
X141571091Y-107543709D01*
X141581739Y-107550428D01*
X141614595Y-107555658D01*
X141671032Y-107559526D01*
X141752419Y-107562162D01*
X141774318Y-107562598D01*
X141977545Y-107566277D01*
X141977545Y-109018153D01*
X144509549Y-109018153D01*
X144509549Y-108434130D01*
X143976573Y-108434130D01*
X143966006Y-108467640D01*
X143947941Y-108477248D01*
X143912429Y-108484838D01*
X143884269Y-108487629D01*
X143838391Y-108492663D01*
X143809598Y-108503637D01*
X143788410Y-108524325D01*
X143786835Y-108526412D01*
X143772349Y-108548621D01*
X143767738Y-108569173D01*
X143772468Y-108597989D01*
X143781292Y-108629207D01*
X143801529Y-108697354D01*
X143766156Y-108723122D01*
X143730782Y-108748889D01*
X143673272Y-108709321D01*
X143617498Y-108681365D01*
X143569568Y-108678690D01*
X143530754Y-108700746D01*
X143502330Y-108746983D01*
X143490333Y-108788274D01*
X143480963Y-108817852D01*
X143463352Y-108829661D01*
X143435390Y-108831584D01*
X143401767Y-108827613D01*
X143383719Y-108811351D01*
X143376692Y-108794937D01*
X143352948Y-108738111D01*
X143327278Y-108702574D01*
X143295569Y-108683051D01*
X143287331Y-108680370D01*
X143258944Y-108675224D01*
X143234305Y-108681169D01*
X143203423Y-108701375D01*
X143191227Y-108710867D01*
X143155274Y-108736298D01*
X143128996Y-108743359D01*
X143103140Y-108732444D01*
X143081762Y-108715542D01*
X143069614Y-108702206D01*
X143066716Y-108685393D01*
X143072992Y-108656771D01*
X143080991Y-108630893D01*
X143092692Y-108591164D01*
X143095017Y-108566370D01*
X143087353Y-108546275D01*
X143074848Y-108528356D01*
X143053608Y-108505787D01*
X143026801Y-108493731D01*
X142984689Y-108488178D01*
X142975962Y-108487629D01*
X142920449Y-108478291D01*
X142889111Y-108459289D01*
X142882563Y-108432478D01*
X142901419Y-108399713D01*
X142936756Y-108369358D01*
X142969962Y-108342708D01*
X142985668Y-108318331D01*
X142990016Y-108286194D01*
X142990062Y-108282271D01*
X142987369Y-108249518D01*
X142974467Y-108227634D01*
X142944833Y-108206765D01*
X142937144Y-108202313D01*
X142898048Y-108173519D01*
X142883936Y-108145499D01*
X142883838Y-108143036D01*
X142887110Y-108105275D01*
X142900919Y-108083639D01*
X142930757Y-108073830D01*
X142975114Y-108071564D01*
X143020426Y-108069650D01*
X143048217Y-108062434D01*
X143067531Y-108046760D01*
X143075608Y-108036460D01*
X143089743Y-108014592D01*
X143094196Y-107994823D01*
X143089274Y-107967410D01*
X143078846Y-107933599D01*
X143066672Y-107893762D01*
X143063560Y-107870667D01*
X143070086Y-107855791D01*
X143085014Y-107842104D01*
X143110850Y-107824533D01*
X143134043Y-107821877D01*
X143162626Y-107835260D01*
X143193490Y-107857300D01*
X143236994Y-107883560D01*
X143273047Y-107889210D01*
X143278070Y-107888445D01*
X143311813Y-107869953D01*
X143342741Y-107831945D01*
X143365689Y-107781458D01*
X143370921Y-107761952D01*
X143379449Y-107736867D01*
X143395974Y-107727520D01*
X143427441Y-107728098D01*
X143459110Y-107733395D01*
X143476303Y-107747621D01*
X143487761Y-107778858D01*
X143489522Y-107785494D01*
X143503198Y-107831015D01*
X143518224Y-107858019D01*
X143540407Y-107874265D01*
X143562651Y-107883164D01*
X143589742Y-107889400D01*
X143614259Y-107884139D01*
X143646317Y-107864631D01*
X143655844Y-107857823D01*
X143697177Y-107830709D01*
X143726727Y-107820530D01*
X143752077Y-107825907D01*
X143769917Y-107837110D01*
X143783720Y-107849819D01*
X143788594Y-107866222D01*
X143785200Y-107894286D01*
X143777487Y-107928360D01*
X143768227Y-107972256D01*
X143767185Y-108000502D01*
X143774878Y-108022962D01*
X143783156Y-108036633D01*
X143799511Y-108056959D01*
X143819998Y-108067582D01*
X143853228Y-108071541D01*
X143883318Y-108071983D01*
X143931065Y-108074077D01*
X143957829Y-108081252D01*
X143968406Y-108093063D01*
X143975756Y-108132216D01*
X143961743Y-108164107D01*
X143926522Y-108193049D01*
X143893539Y-108218322D01*
X143877868Y-108245012D01*
X143872600Y-108278835D01*
X143872179Y-108312873D01*
X143881182Y-108334816D01*
X143905398Y-108354767D01*
X143922215Y-108365426D01*
X143962662Y-108399148D01*
X143976573Y-108434130D01*
X144509549Y-108434130D01*
X144509549Y-107565582D01*
X144708657Y-107565582D01*
X144790554Y-107564665D01*
X144854187Y-107562033D01*
X144896850Y-107557867D01*
X144915837Y-107552345D01*
X144916292Y-107551787D01*
X144909971Y-107538587D01*
X144887570Y-107509169D01*
X144851575Y-107466439D01*
X144804471Y-107413302D01*
X144748744Y-107352661D01*
X144717183Y-107319126D01*
X144624257Y-107221173D01*
X144077597Y-107221173D01*
X144061097Y-107238846D01*
X144020773Y-107245724D01*
X144017372Y-107245750D01*
X143968964Y-107254707D01*
X143938000Y-107277486D01*
X143919312Y-107300312D01*
X143915561Y-107320263D01*
X143925156Y-107349780D01*
X143927895Y-107356392D01*
X143939572Y-107388485D01*
X143938753Y-107407507D01*
X143924630Y-107424339D01*
X143922720Y-107426081D01*
X143904062Y-107439949D01*
X143887559Y-107438420D01*
X143862074Y-107420470D01*
X143830624Y-107400979D01*
X143803523Y-107392362D01*
X143802546Y-107392340D01*
X143768358Y-107397151D01*
X143743342Y-107408831D01*
X143736621Y-107419551D01*
X143732271Y-107439129D01*
X143723288Y-107465652D01*
X143702541Y-107492649D01*
X143674359Y-107499097D01*
X143646926Y-107486046D01*
X143628425Y-107454544D01*
X143628125Y-107453444D01*
X143607521Y-107411757D01*
X143575246Y-107393473D01*
X143533216Y-107399067D01*
X143494757Y-107420410D01*
X143467265Y-107437994D01*
X143449951Y-107440006D01*
X143432169Y-107427512D01*
X143431335Y-107426759D01*
X143416592Y-107408416D01*
X143415008Y-107392271D01*
X143323505Y-107392271D01*
X143321737Y-107423703D01*
X143311697Y-107440835D01*
X143286277Y-107451597D01*
X143265398Y-107457113D01*
X143218646Y-107472734D01*
X143191101Y-107494413D01*
X143175326Y-107528819D01*
X143172246Y-107540626D01*
X143171687Y-107570454D01*
X143187085Y-107603140D01*
X143203724Y-107625748D01*
X143230059Y-107660334D01*
X143240795Y-107682682D01*
X143237228Y-107701166D01*
X143220656Y-107724160D01*
X143219238Y-107725913D01*
X143203094Y-107743056D01*
X143185770Y-107749536D01*
X143158241Y-107746700D01*
X143127095Y-107739661D01*
X143084285Y-107731002D01*
X143056321Y-107731238D01*
X143032702Y-107741015D01*
X143024804Y-107745965D01*
X143004937Y-107762182D01*
X142994572Y-107782983D01*
X142990742Y-107816933D01*
X142990346Y-107845414D01*
X142989194Y-107889510D01*
X142984085Y-107914017D01*
X142972539Y-107925958D01*
X142960362Y-107930320D01*
X142921670Y-107937089D01*
X142893316Y-107929712D01*
X142866177Y-107904375D01*
X142850726Y-107884475D01*
X142824076Y-107851941D01*
X142801698Y-107836960D01*
X142774266Y-107834159D01*
X142764512Y-107834817D01*
X142731973Y-107841983D01*
X142706051Y-107861166D01*
X142680036Y-107895409D01*
X142653849Y-107931170D01*
X142632201Y-107947816D01*
X142606622Y-107949495D01*
X142581185Y-107943810D01*
X142563889Y-107935436D01*
X142554184Y-107917450D01*
X142549230Y-107882828D01*
X142547869Y-107861380D01*
X142544021Y-107817174D01*
X142535741Y-107790722D01*
X142519002Y-107773130D01*
X142503463Y-107763267D01*
X142476628Y-107749870D01*
X142452491Y-107746569D01*
X142419848Y-107752944D01*
X142397943Y-107759295D01*
X142358087Y-107770105D01*
X142334162Y-107771737D01*
X142316981Y-107763933D01*
X142308462Y-107756786D01*
X142288893Y-107732334D01*
X142287489Y-107706277D01*
X142305111Y-107672552D01*
X142323955Y-107647627D01*
X142347700Y-107615653D01*
X142356296Y-107592836D01*
X142352446Y-107568545D01*
X142347571Y-107554821D01*
X142329840Y-107523341D01*
X142300747Y-107505038D01*
X142277683Y-107497989D01*
X142239772Y-107488006D01*
X142211810Y-107480107D01*
X142207424Y-107478721D01*
X142196289Y-107462990D01*
X142190868Y-107431776D01*
X142190766Y-107426609D01*
X142192959Y-107396975D01*
X142204316Y-107380396D01*
X142232007Y-107369035D01*
X142247403Y-107364700D01*
X142285590Y-107354326D01*
X142313570Y-107346721D01*
X142319015Y-107345240D01*
X142330976Y-107330687D01*
X142341545Y-107299886D01*
X142343248Y-107291815D01*
X142346524Y-107258119D01*
X142338716Y-107230429D01*
X142316165Y-107197316D01*
X142310897Y-107190692D01*
X142285837Y-107155475D01*
X142279469Y-107129462D01*
X142291431Y-107103221D01*
X142306809Y-107083965D01*
X142320366Y-107071719D01*
X142337548Y-107068957D01*
X142366841Y-107075547D01*
X142389817Y-107082670D01*
X142428986Y-107094122D01*
X142454039Y-107095871D01*
X142476057Y-107086900D01*
X142496786Y-107072854D01*
X142522153Y-107052413D01*
X142533996Y-107031895D01*
X142536350Y-107001001D01*
X142535019Y-106975223D01*
X142533467Y-106934995D01*
X142538294Y-106912614D01*
X142553438Y-106899385D01*
X142573402Y-106890457D01*
X142599494Y-106881293D01*
X142617756Y-106883079D01*
X142636772Y-106899392D01*
X142658922Y-106926082D01*
X142687934Y-106958559D01*
X142713209Y-106974224D01*
X142745258Y-106978791D01*
X142756034Y-106978865D01*
X142791554Y-106976043D01*
X142814904Y-106963847D01*
X142836678Y-106935792D01*
X142843104Y-106925560D01*
X142873783Y-106887118D01*
X142905655Y-106873347D01*
X142943520Y-106882510D01*
X142951243Y-106886408D01*
X142967808Y-106901967D01*
X142975533Y-106930371D01*
X142977020Y-106965459D01*
X142979145Y-107007197D01*
X142988654Y-107033190D01*
X143010244Y-107054211D01*
X143018312Y-107060116D01*
X143047180Y-107078572D01*
X143068915Y-107081941D01*
X143097450Y-107071435D01*
X143105385Y-107067687D01*
X143154159Y-107049418D01*
X143189003Y-107049918D01*
X143215464Y-107069764D01*
X143222790Y-107079871D01*
X143235232Y-107101669D01*
X143235466Y-107118807D01*
X143221313Y-107140494D01*
X143203568Y-107161165D01*
X143177695Y-107194697D01*
X143168324Y-107221721D01*
X143171025Y-107250417D01*
X143183962Y-107292110D01*
X143205274Y-107316203D01*
X143242501Y-107329367D01*
X143264626Y-107333231D01*
X143300938Y-107339951D01*
X143318047Y-107350444D01*
X143323175Y-107371954D01*
X143323505Y-107392271D01*
X143415008Y-107392271D01*
X143414306Y-107385129D01*
X143421321Y-107352634D01*
X143425550Y-107302526D01*
X143408028Y-107267666D01*
X143369440Y-107248913D01*
X143336192Y-107245750D01*
X143294211Y-107239654D01*
X143276051Y-107222660D01*
X143282174Y-107196705D01*
X143313042Y-107163729D01*
X143316031Y-107161296D01*
X143350929Y-107126654D01*
X143360694Y-107095892D01*
X143345289Y-107064548D01*
X143315071Y-107036255D01*
X143285931Y-107010492D01*
X143275341Y-106991997D01*
X143279527Y-106973481D01*
X143281044Y-106970534D01*
X143299252Y-106951450D01*
X143329831Y-106948820D01*
X143336646Y-106949701D01*
X143382139Y-106945641D01*
X143405056Y-106931139D01*
X143422127Y-106908352D01*
X143426095Y-106878336D01*
X143417296Y-106834177D01*
X143410800Y-106812644D01*
X143412391Y-106785384D01*
X143430149Y-106768843D01*
X143453075Y-106759375D01*
X143474912Y-106766178D01*
X143492487Y-106778837D01*
X143537948Y-106803817D01*
X143577090Y-106804469D01*
X143606807Y-106781656D01*
X143622732Y-106742681D01*
X143633089Y-106712377D01*
X143651703Y-106700729D01*
X143670667Y-106699370D01*
X143698958Y-106703917D01*
X143714190Y-106722819D01*
X143720358Y-106742405D01*
X143741590Y-106781607D01*
X143776440Y-106800615D01*
X143819594Y-106797992D01*
X143856675Y-106779245D01*
X143885435Y-106760816D01*
X143902999Y-106757930D01*
X143918711Y-106769139D01*
X143919150Y-106769577D01*
X143931407Y-106787632D01*
X143931171Y-106811404D01*
X143923307Y-106838943D01*
X143914317Y-106873058D01*
X143918130Y-106895698D01*
X143937152Y-106919927D01*
X143938475Y-106921340D01*
X143970242Y-106945660D01*
X144007470Y-106950199D01*
X144014046Y-106949547D01*
X144049359Y-106950336D01*
X144069324Y-106965492D01*
X144071941Y-106969936D01*
X144077020Y-106988786D01*
X144067204Y-107007824D01*
X144038792Y-107034081D01*
X144037719Y-107034967D01*
X144002572Y-107070644D01*
X143992565Y-107101986D01*
X144007681Y-107133467D01*
X144037275Y-107161296D01*
X144069810Y-107194669D01*
X144077597Y-107221173D01*
X144624257Y-107221173D01*
X144509549Y-107100260D01*
X144509549Y-106073032D01*
X143816579Y-106073032D01*
X143816207Y-106216291D01*
X143815834Y-106359549D01*
X143659622Y-106199038D01*
X143593761Y-106131008D01*
X143521468Y-106055747D01*
X143450375Y-105981236D01*
X143388117Y-105915457D01*
X143372871Y-105899224D01*
X143242332Y-105759921D01*
X143176855Y-105831893D01*
G36*
X153196623Y-106726452D02*
G01*
X153166752Y-106754297D01*
X153121222Y-106797955D01*
X153061589Y-106855874D01*
X152989410Y-106926501D01*
X152906241Y-107008281D01*
X152813638Y-107099662D01*
X152713159Y-107199090D01*
X152606359Y-107305012D01*
X152494794Y-107415876D01*
X152380022Y-107530127D01*
X152263598Y-107646212D01*
X152147080Y-107762578D01*
X152032022Y-107877673D01*
X151919983Y-107989941D01*
X151812518Y-108097831D01*
X151711184Y-108199789D01*
X151617536Y-108294262D01*
X151533133Y-108379696D01*
X151459529Y-108454539D01*
X151398282Y-108517236D01*
X151350947Y-108566235D01*
X151319082Y-108599983D01*
X151304242Y-108616926D01*
X151303751Y-108617640D01*
X151272404Y-108688829D01*
X151265454Y-108761575D01*
X151282031Y-108831048D01*
X151321267Y-108892415D01*
X151359287Y-108926226D01*
X151403347Y-108946065D01*
X151460670Y-108956943D01*
X151518914Y-108957292D01*
X151552518Y-108950787D01*
X151569687Y-108938802D01*
X151605400Y-108907901D01*
X151659538Y-108858198D01*
X151731986Y-108789806D01*
X151822624Y-108702839D01*
X151931336Y-108597410D01*
X152058003Y-108473633D01*
X152202509Y-108331622D01*
X152364735Y-108171490D01*
X152544564Y-107993350D01*
X152558657Y-107979366D01*
X153524816Y-107020610D01*
X153371727Y-106866599D01*
X153319830Y-106815136D01*
X153274301Y-106771393D01*
X153238467Y-106738458D01*
X153215654Y-106719414D01*
X153209278Y-106715974D01*
X153196623Y-106726452D01*
G37*
X153196623Y-106726452D02*
X153166752Y-106754297D01*
X153121222Y-106797955D01*
X153061589Y-106855874D01*
X152989410Y-106926501D01*
X152906241Y-107008281D01*
X152813638Y-107099662D01*
X152713159Y-107199090D01*
X152606359Y-107305012D01*
X152494794Y-107415876D01*
X152380022Y-107530127D01*
X152263598Y-107646212D01*
X152147080Y-107762578D01*
X152032022Y-107877673D01*
X151919983Y-107989941D01*
X151812518Y-108097831D01*
X151711184Y-108199789D01*
X151617536Y-108294262D01*
X151533133Y-108379696D01*
X151459529Y-108454539D01*
X151398282Y-108517236D01*
X151350947Y-108566235D01*
X151319082Y-108599983D01*
X151304242Y-108616926D01*
X151303751Y-108617640D01*
X151272404Y-108688829D01*
X151265454Y-108761575D01*
X151282031Y-108831048D01*
X151321267Y-108892415D01*
X151359287Y-108926226D01*
X151403347Y-108946065D01*
X151460670Y-108956943D01*
X151518914Y-108957292D01*
X151552518Y-108950787D01*
X151569687Y-108938802D01*
X151605400Y-108907901D01*
X151659538Y-108858198D01*
X151731986Y-108789806D01*
X151822624Y-108702839D01*
X151931336Y-108597410D01*
X152058003Y-108473633D01*
X152202509Y-108331622D01*
X152364735Y-108171490D01*
X152544564Y-107993350D01*
X152558657Y-107979366D01*
X153524816Y-107020610D01*
X153371727Y-106866599D01*
X153319830Y-106815136D01*
X153274301Y-106771393D01*
X153238467Y-106738458D01*
X153215654Y-106719414D01*
X153209278Y-106715974D01*
X153196623Y-106726452D01*
G36*
X146991123Y-106237125D02*
G01*
X146927905Y-106262762D01*
X146874546Y-106307815D01*
X146844990Y-106352378D01*
X146819785Y-106428051D01*
X146819513Y-106500994D01*
X146842469Y-106567584D01*
X146886947Y-106624199D01*
X146951244Y-106667217D01*
X147001994Y-106685937D01*
X147069009Y-106690970D01*
X147135864Y-106669622D01*
X147201811Y-106622157D01*
X147213173Y-106611215D01*
X147271608Y-106552781D01*
X148773977Y-106552781D01*
X148773977Y-108187416D01*
X148742985Y-108204003D01*
X148717118Y-108225118D01*
X148687843Y-108259142D01*
X148676353Y-108275554D01*
X148648485Y-108339166D01*
X148640003Y-108408561D01*
X148651299Y-108474759D01*
X148666282Y-108506877D01*
X148712552Y-108562658D01*
X148770805Y-108602982D01*
X148835054Y-108625670D01*
X148899311Y-108628544D01*
X148953883Y-108611498D01*
X149012055Y-108569950D01*
X149060237Y-108516267D01*
X149093469Y-108457379D01*
X149106791Y-108400219D01*
X149106843Y-108397763D01*
X149098461Y-108357255D01*
X149076266Y-108307673D01*
X149045736Y-108258330D01*
X149012352Y-108218542D01*
X148991856Y-108202297D01*
X148947219Y-108175961D01*
X148947219Y-107298691D01*
X148947166Y-107122621D01*
X148946978Y-106971306D01*
X148946610Y-106842849D01*
X148946018Y-106735355D01*
X148945157Y-106646925D01*
X148943985Y-106575664D01*
X148942455Y-106519673D01*
X148940525Y-106477057D01*
X148938150Y-106445917D01*
X148935286Y-106424358D01*
X148931888Y-106410483D01*
X148927912Y-106402394D01*
X148926278Y-106400480D01*
X148919668Y-106396135D01*
X148907886Y-106392427D01*
X148888962Y-106389307D01*
X148860930Y-106386724D01*
X148821819Y-106384631D01*
X148769664Y-106382978D01*
X148702494Y-106381715D01*
X148618343Y-106380793D01*
X148515242Y-106380164D01*
X148391223Y-106379778D01*
X148244317Y-106379586D01*
X148088437Y-106379538D01*
X147271536Y-106379538D01*
X147240063Y-106333606D01*
X147188672Y-106279144D01*
X147126634Y-106245073D01*
X147059075Y-106231147D01*
X146991123Y-106237125D01*
G37*
X146991123Y-106237125D02*
X146927905Y-106262762D01*
X146874546Y-106307815D01*
X146844990Y-106352378D01*
X146819785Y-106428051D01*
X146819513Y-106500994D01*
X146842469Y-106567584D01*
X146886947Y-106624199D01*
X146951244Y-106667217D01*
X147001994Y-106685937D01*
X147069009Y-106690970D01*
X147135864Y-106669622D01*
X147201811Y-106622157D01*
X147213173Y-106611215D01*
X147271608Y-106552781D01*
X148773977Y-106552781D01*
X148773977Y-108187416D01*
X148742985Y-108204003D01*
X148717118Y-108225118D01*
X148687843Y-108259142D01*
X148676353Y-108275554D01*
X148648485Y-108339166D01*
X148640003Y-108408561D01*
X148651299Y-108474759D01*
X148666282Y-108506877D01*
X148712552Y-108562658D01*
X148770805Y-108602982D01*
X148835054Y-108625670D01*
X148899311Y-108628544D01*
X148953883Y-108611498D01*
X149012055Y-108569950D01*
X149060237Y-108516267D01*
X149093469Y-108457379D01*
X149106791Y-108400219D01*
X149106843Y-108397763D01*
X149098461Y-108357255D01*
X149076266Y-108307673D01*
X149045736Y-108258330D01*
X149012352Y-108218542D01*
X148991856Y-108202297D01*
X148947219Y-108175961D01*
X148947219Y-107298691D01*
X148947166Y-107122621D01*
X148946978Y-106971306D01*
X148946610Y-106842849D01*
X148946018Y-106735355D01*
X148945157Y-106646925D01*
X148943985Y-106575664D01*
X148942455Y-106519673D01*
X148940525Y-106477057D01*
X148938150Y-106445917D01*
X148935286Y-106424358D01*
X148931888Y-106410483D01*
X148927912Y-106402394D01*
X148926278Y-106400480D01*
X148919668Y-106396135D01*
X148907886Y-106392427D01*
X148888962Y-106389307D01*
X148860930Y-106386724D01*
X148821819Y-106384631D01*
X148769664Y-106382978D01*
X148702494Y-106381715D01*
X148618343Y-106380793D01*
X148515242Y-106380164D01*
X148391223Y-106379778D01*
X148244317Y-106379586D01*
X148088437Y-106379538D01*
X147271536Y-106379538D01*
X147240063Y-106333606D01*
X147188672Y-106279144D01*
X147126634Y-106245073D01*
X147059075Y-106231147D01*
X146991123Y-106237125D01*
G36*
X148331124Y-107441675D02*
G01*
X148271660Y-107482189D01*
X148225152Y-107544795D01*
X148208192Y-107582121D01*
X148193154Y-107651532D01*
X148203216Y-107717451D01*
X148238939Y-107781870D01*
X148276461Y-107824154D01*
X148334886Y-107881753D01*
X148331215Y-108100137D01*
X148327545Y-108318520D01*
X147802353Y-108322009D01*
X147277161Y-108325497D01*
X147215994Y-108257785D01*
X147170370Y-108213072D01*
X147129552Y-108187215D01*
X147101522Y-108178004D01*
X147023518Y-108171673D01*
X146950807Y-108187085D01*
X146889087Y-108222366D01*
X146854402Y-108259370D01*
X146819332Y-108329107D01*
X146808956Y-108401172D01*
X146822182Y-108471150D01*
X146857917Y-108534625D01*
X146915071Y-108587181D01*
X146939054Y-108601705D01*
X147010096Y-108627064D01*
X147079958Y-108625909D01*
X147134837Y-108605721D01*
X147175467Y-108579399D01*
X147211465Y-108548768D01*
X147213787Y-108546341D01*
X147246094Y-108511752D01*
X147833462Y-108511702D01*
X147974214Y-108511645D01*
X148090807Y-108511428D01*
X148185735Y-108510948D01*
X148261491Y-108510099D01*
X148320569Y-108508777D01*
X148365463Y-108506878D01*
X148398666Y-108504297D01*
X148422673Y-108500929D01*
X148439976Y-108496669D01*
X148453069Y-108491414D01*
X148464140Y-108485246D01*
X148507450Y-108458839D01*
X148507450Y-108406788D01*
X147148729Y-108406788D01*
X147136270Y-108450386D01*
X147102970Y-108485309D01*
X147080323Y-108496897D01*
X147029790Y-108503944D01*
X146982143Y-108488714D01*
X146958263Y-108468891D01*
X146936008Y-108425363D01*
X146935424Y-108377515D01*
X146954908Y-108333858D01*
X146989201Y-108304701D01*
X147029640Y-108288335D01*
X147061816Y-108289998D01*
X147096590Y-108311073D01*
X147107162Y-108319705D01*
X147139356Y-108361049D01*
X147148729Y-108406788D01*
X148507450Y-108406788D01*
X148507450Y-107874262D01*
X148553147Y-107846020D01*
X148603150Y-107800350D01*
X148636170Y-107739113D01*
X148650682Y-107668453D01*
X148650344Y-107663913D01*
X148533709Y-107663913D01*
X148515335Y-107712503D01*
X148501423Y-107730216D01*
X148458666Y-107759649D01*
X148411704Y-107764229D01*
X148366206Y-107743857D01*
X148353592Y-107732767D01*
X148325936Y-107689531D01*
X148319020Y-107641374D01*
X148332557Y-107596257D01*
X148359586Y-107566490D01*
X148409702Y-107542552D01*
X148456535Y-107544955D01*
X148498841Y-107571609D01*
X148528176Y-107614834D01*
X148533709Y-107663913D01*
X148650344Y-107663913D01*
X148645164Y-107594511D01*
X148628211Y-107543300D01*
X148599967Y-107495690D01*
X148562116Y-107462972D01*
X148507595Y-107439863D01*
X148479516Y-107432122D01*
X148401193Y-107424553D01*
X148331124Y-107441675D01*
G37*
X148331124Y-107441675D02*
X148271660Y-107482189D01*
X148225152Y-107544795D01*
X148208192Y-107582121D01*
X148193154Y-107651532D01*
X148203216Y-107717451D01*
X148238939Y-107781870D01*
X148276461Y-107824154D01*
X148334886Y-107881753D01*
X148331215Y-108100137D01*
X148327545Y-108318520D01*
X147802353Y-108322009D01*
X147277161Y-108325497D01*
X147215994Y-108257785D01*
X147170370Y-108213072D01*
X147129552Y-108187215D01*
X147101522Y-108178004D01*
X147023518Y-108171673D01*
X146950807Y-108187085D01*
X146889087Y-108222366D01*
X146854402Y-108259370D01*
X146819332Y-108329107D01*
X146808956Y-108401172D01*
X146822182Y-108471150D01*
X146857917Y-108534625D01*
X146915071Y-108587181D01*
X146939054Y-108601705D01*
X147010096Y-108627064D01*
X147079958Y-108625909D01*
X147134837Y-108605721D01*
X147175467Y-108579399D01*
X147211465Y-108548768D01*
X147213787Y-108546341D01*
X147246094Y-108511752D01*
X147833462Y-108511702D01*
X147974214Y-108511645D01*
X148090807Y-108511428D01*
X148185735Y-108510948D01*
X148261491Y-108510099D01*
X148320569Y-108508777D01*
X148365463Y-108506878D01*
X148398666Y-108504297D01*
X148422673Y-108500929D01*
X148439976Y-108496669D01*
X148453069Y-108491414D01*
X148464140Y-108485246D01*
X148507450Y-108458839D01*
X148507450Y-108406788D01*
X147148729Y-108406788D01*
X147136270Y-108450386D01*
X147102970Y-108485309D01*
X147080323Y-108496897D01*
X147029790Y-108503944D01*
X146982143Y-108488714D01*
X146958263Y-108468891D01*
X146936008Y-108425363D01*
X146935424Y-108377515D01*
X146954908Y-108333858D01*
X146989201Y-108304701D01*
X147029640Y-108288335D01*
X147061816Y-108289998D01*
X147096590Y-108311073D01*
X147107162Y-108319705D01*
X147139356Y-108361049D01*
X147148729Y-108406788D01*
X148507450Y-108406788D01*
X148507450Y-107874262D01*
X148553147Y-107846020D01*
X148603150Y-107800350D01*
X148636170Y-107739113D01*
X148650682Y-107668453D01*
X148650344Y-107663913D01*
X148533709Y-107663913D01*
X148515335Y-107712503D01*
X148501423Y-107730216D01*
X148458666Y-107759649D01*
X148411704Y-107764229D01*
X148366206Y-107743857D01*
X148353592Y-107732767D01*
X148325936Y-107689531D01*
X148319020Y-107641374D01*
X148332557Y-107596257D01*
X148359586Y-107566490D01*
X148409702Y-107542552D01*
X148456535Y-107544955D01*
X148498841Y-107571609D01*
X148528176Y-107614834D01*
X148533709Y-107663913D01*
X148650344Y-107663913D01*
X148645164Y-107594511D01*
X148628211Y-107543300D01*
X148599967Y-107495690D01*
X148562116Y-107462972D01*
X148507595Y-107439863D01*
X148479516Y-107432122D01*
X148401193Y-107424553D01*
X148331124Y-107441675D01*
G36*
X156897005Y-106161609D02*
G01*
X156816028Y-106168599D01*
X156745294Y-106182381D01*
X156676702Y-106204695D01*
X156602152Y-106237277D01*
X156576548Y-106249743D01*
X156454700Y-106324091D01*
X156345568Y-106418510D01*
X156252471Y-106528978D01*
X156178729Y-106651473D01*
X156127663Y-106781973D01*
X156122863Y-106799318D01*
X156098640Y-106932851D01*
X156096161Y-107069429D01*
X156115805Y-107211147D01*
X156157950Y-107360102D01*
X156222977Y-107518390D01*
X156270173Y-107613113D01*
X156346746Y-107767012D01*
X156407355Y-107909474D01*
X156454709Y-108048078D01*
X156491519Y-108190404D01*
X156510481Y-108285205D01*
X156526856Y-108367740D01*
X156544128Y-108427443D01*
X156566085Y-108467974D01*
X156596513Y-108492996D01*
X156639200Y-108506171D01*
X156697933Y-108511162D01*
X156744756Y-108511752D01*
X156851260Y-108511752D01*
X156847167Y-108135283D01*
X156843075Y-107758814D01*
X156750324Y-107552256D01*
X156716890Y-107480089D01*
X156684093Y-107413388D01*
X156654634Y-107357354D01*
X156631210Y-107317187D01*
X156620393Y-107301923D01*
X156594567Y-107259326D01*
X156583282Y-107214156D01*
X156587574Y-107174674D01*
X156601789Y-107153638D01*
X156624494Y-107147964D01*
X156646279Y-107165044D01*
X156663848Y-107201084D01*
X156671643Y-107234079D01*
X156679051Y-107268018D01*
X156690497Y-107282184D01*
X156711926Y-107283389D01*
X156714433Y-107283107D01*
X156745067Y-107269531D01*
X156756294Y-107246738D01*
X156769206Y-107216815D01*
X156785064Y-107211505D01*
X156799098Y-107231120D01*
X156802643Y-107243689D01*
X156818049Y-107275473D01*
X156841930Y-107291605D01*
X156866742Y-107291462D01*
X156884941Y-107274421D01*
X156889717Y-107250885D01*
X156897485Y-107224859D01*
X156915143Y-107207721D01*
X156934219Y-107206731D01*
X156937934Y-107209567D01*
X156946357Y-107228741D01*
X156953596Y-107262187D01*
X156955329Y-107275734D01*
X156967676Y-107282887D01*
X156994662Y-107285729D01*
X157023235Y-107281028D01*
X157037059Y-107261496D01*
X157040971Y-107245750D01*
X157053189Y-107215869D01*
X157069622Y-107205771D01*
X157087477Y-107217852D01*
X157098274Y-107245750D01*
X157108629Y-107274651D01*
X157129447Y-107284987D01*
X157143698Y-107285729D01*
X157171845Y-107280917D01*
X157183471Y-107261074D01*
X157185343Y-107249082D01*
X157196054Y-107220157D01*
X157213795Y-107213702D01*
X157230775Y-107230225D01*
X157236202Y-107245750D01*
X157250636Y-107272289D01*
X157276555Y-107279066D01*
X157298857Y-107274736D01*
X157311008Y-107256872D01*
X157317314Y-107228187D01*
X157328614Y-107188634D01*
X157345556Y-107157941D01*
X157348339Y-107154892D01*
X157366775Y-107140241D01*
X157380531Y-107146027D01*
X157391096Y-107159129D01*
X157404897Y-107199268D01*
X157394751Y-107250832D01*
X157363937Y-107308738D01*
X157347142Y-107338197D01*
X157322382Y-107386565D01*
X157292362Y-107448331D01*
X157259787Y-107517980D01*
X157241191Y-107558919D01*
X157151417Y-107758814D01*
X157140145Y-107935035D01*
X157136060Y-108019016D01*
X157133268Y-108117377D01*
X157132021Y-108217868D01*
X157132564Y-108308173D01*
X157136254Y-108505089D01*
X157249528Y-108508338D01*
X157312189Y-108508693D01*
X157355287Y-108504864D01*
X157385714Y-108495944D01*
X157399550Y-108488532D01*
X157415086Y-108478687D01*
X157426722Y-108468909D01*
X157435958Y-108454982D01*
X157444298Y-108432692D01*
X157453241Y-108397822D01*
X157464290Y-108346158D01*
X157478946Y-108273483D01*
X157482558Y-108255481D01*
X157510374Y-108131083D01*
X157542488Y-108017740D01*
X157581803Y-107907282D01*
X157631218Y-107791537D01*
X157692027Y-107665530D01*
X157729922Y-107587546D01*
X157767977Y-107504586D01*
X157802293Y-107425447D01*
X157828969Y-107358927D01*
X157833844Y-107345698D01*
X157852682Y-107292233D01*
X157865813Y-107249691D01*
X157874277Y-107211039D01*
X157879113Y-107169243D01*
X157881364Y-107117268D01*
X157882068Y-107048081D01*
X157882140Y-107019202D01*
X157882042Y-106942862D01*
X157880804Y-106886818D01*
X157877512Y-106844713D01*
X157871247Y-106810192D01*
X157861095Y-106776899D01*
X157846139Y-106738477D01*
X157839278Y-106721867D01*
X157767454Y-106579530D01*
X157678129Y-106457036D01*
X157570605Y-106353733D01*
X157444179Y-106268970D01*
X157298152Y-106202093D01*
X157269517Y-106191831D01*
X157226389Y-106178189D01*
X157185986Y-106168985D01*
X157141254Y-106163387D01*
X157085137Y-106160565D01*
X157010580Y-106159689D01*
X156996327Y-106159674D01*
X156897005Y-106161609D01*
G37*
X156897005Y-106161609D02*
X156816028Y-106168599D01*
X156745294Y-106182381D01*
X156676702Y-106204695D01*
X156602152Y-106237277D01*
X156576548Y-106249743D01*
X156454700Y-106324091D01*
X156345568Y-106418510D01*
X156252471Y-106528978D01*
X156178729Y-106651473D01*
X156127663Y-106781973D01*
X156122863Y-106799318D01*
X156098640Y-106932851D01*
X156096161Y-107069429D01*
X156115805Y-107211147D01*
X156157950Y-107360102D01*
X156222977Y-107518390D01*
X156270173Y-107613113D01*
X156346746Y-107767012D01*
X156407355Y-107909474D01*
X156454709Y-108048078D01*
X156491519Y-108190404D01*
X156510481Y-108285205D01*
X156526856Y-108367740D01*
X156544128Y-108427443D01*
X156566085Y-108467974D01*
X156596513Y-108492996D01*
X156639200Y-108506171D01*
X156697933Y-108511162D01*
X156744756Y-108511752D01*
X156851260Y-108511752D01*
X156847167Y-108135283D01*
X156843075Y-107758814D01*
X156750324Y-107552256D01*
X156716890Y-107480089D01*
X156684093Y-107413388D01*
X156654634Y-107357354D01*
X156631210Y-107317187D01*
X156620393Y-107301923D01*
X156594567Y-107259326D01*
X156583282Y-107214156D01*
X156587574Y-107174674D01*
X156601789Y-107153638D01*
X156624494Y-107147964D01*
X156646279Y-107165044D01*
X156663848Y-107201084D01*
X156671643Y-107234079D01*
X156679051Y-107268018D01*
X156690497Y-107282184D01*
X156711926Y-107283389D01*
X156714433Y-107283107D01*
X156745067Y-107269531D01*
X156756294Y-107246738D01*
X156769206Y-107216815D01*
X156785064Y-107211505D01*
X156799098Y-107231120D01*
X156802643Y-107243689D01*
X156818049Y-107275473D01*
X156841930Y-107291605D01*
X156866742Y-107291462D01*
X156884941Y-107274421D01*
X156889717Y-107250885D01*
X156897485Y-107224859D01*
X156915143Y-107207721D01*
X156934219Y-107206731D01*
X156937934Y-107209567D01*
X156946357Y-107228741D01*
X156953596Y-107262187D01*
X156955329Y-107275734D01*
X156967676Y-107282887D01*
X156994662Y-107285729D01*
X157023235Y-107281028D01*
X157037059Y-107261496D01*
X157040971Y-107245750D01*
X157053189Y-107215869D01*
X157069622Y-107205771D01*
X157087477Y-107217852D01*
X157098274Y-107245750D01*
X157108629Y-107274651D01*
X157129447Y-107284987D01*
X157143698Y-107285729D01*
X157171845Y-107280917D01*
X157183471Y-107261074D01*
X157185343Y-107249082D01*
X157196054Y-107220157D01*
X157213795Y-107213702D01*
X157230775Y-107230225D01*
X157236202Y-107245750D01*
X157250636Y-107272289D01*
X157276555Y-107279066D01*
X157298857Y-107274736D01*
X157311008Y-107256872D01*
X157317314Y-107228187D01*
X157328614Y-107188634D01*
X157345556Y-107157941D01*
X157348339Y-107154892D01*
X157366775Y-107140241D01*
X157380531Y-107146027D01*
X157391096Y-107159129D01*
X157404897Y-107199268D01*
X157394751Y-107250832D01*
X157363937Y-107308738D01*
X157347142Y-107338197D01*
X157322382Y-107386565D01*
X157292362Y-107448331D01*
X157259787Y-107517980D01*
X157241191Y-107558919D01*
X157151417Y-107758814D01*
X157140145Y-107935035D01*
X157136060Y-108019016D01*
X157133268Y-108117377D01*
X157132021Y-108217868D01*
X157132564Y-108308173D01*
X157136254Y-108505089D01*
X157249528Y-108508338D01*
X157312189Y-108508693D01*
X157355287Y-108504864D01*
X157385714Y-108495944D01*
X157399550Y-108488532D01*
X157415086Y-108478687D01*
X157426722Y-108468909D01*
X157435958Y-108454982D01*
X157444298Y-108432692D01*
X157453241Y-108397822D01*
X157464290Y-108346158D01*
X157478946Y-108273483D01*
X157482558Y-108255481D01*
X157510374Y-108131083D01*
X157542488Y-108017740D01*
X157581803Y-107907282D01*
X157631218Y-107791537D01*
X157692027Y-107665530D01*
X157729922Y-107587546D01*
X157767977Y-107504586D01*
X157802293Y-107425447D01*
X157828969Y-107358927D01*
X157833844Y-107345698D01*
X157852682Y-107292233D01*
X157865813Y-107249691D01*
X157874277Y-107211039D01*
X157879113Y-107169243D01*
X157881364Y-107117268D01*
X157882068Y-107048081D01*
X157882140Y-107019202D01*
X157882042Y-106942862D01*
X157880804Y-106886818D01*
X157877512Y-106844713D01*
X157871247Y-106810192D01*
X157861095Y-106776899D01*
X157846139Y-106738477D01*
X157839278Y-106721867D01*
X157767454Y-106579530D01*
X157678129Y-106457036D01*
X157570605Y-106353733D01*
X157444179Y-106268970D01*
X157298152Y-106202093D01*
X157269517Y-106191831D01*
X157226389Y-106178189D01*
X157185986Y-106168985D01*
X157141254Y-106163387D01*
X157085137Y-106160565D01*
X157010580Y-106159689D01*
X156996327Y-106159674D01*
X156897005Y-106161609D01*
G36*
X156747847Y-107320723D02*
G01*
X156732823Y-107325786D01*
X156723883Y-107334283D01*
X156721838Y-107349574D01*
X156727504Y-107375019D01*
X156741692Y-107413980D01*
X156765216Y-107469815D01*
X156798889Y-107545885D01*
X156806386Y-107562646D01*
X156882264Y-107732162D01*
X156893474Y-108105299D01*
X156896577Y-108202936D01*
X156899740Y-108292221D01*
X156902808Y-108369581D01*
X156905631Y-108431442D01*
X156908056Y-108474231D01*
X156909930Y-108494374D01*
X156910108Y-108495094D01*
X156924928Y-108503330D01*
X156957311Y-108509131D01*
X156998246Y-108512085D01*
X157038719Y-108511781D01*
X157069719Y-108507811D01*
X157080728Y-108502868D01*
X157083089Y-108487687D01*
X157085214Y-108449425D01*
X157087016Y-108391654D01*
X157088408Y-108317945D01*
X157089302Y-108231870D01*
X157089612Y-108138719D01*
X157089612Y-107783455D01*
X157177662Y-107584566D01*
X157215309Y-107499052D01*
X157242782Y-107434765D01*
X157260903Y-107388651D01*
X157270494Y-107357657D01*
X157272376Y-107338732D01*
X157267372Y-107328822D01*
X157256301Y-107324875D01*
X157247750Y-107324130D01*
X157218049Y-107323772D01*
X157204112Y-107324832D01*
X157183490Y-107326735D01*
X157146590Y-107327295D01*
X157089883Y-107326507D01*
X157016317Y-107324559D01*
X156962032Y-107324154D01*
X156915264Y-107325984D01*
X156884733Y-107329662D01*
X156881482Y-107330540D01*
X156848047Y-107332760D01*
X156817257Y-107326026D01*
X156778189Y-107318576D01*
X156747847Y-107320723D01*
G37*
X156747847Y-107320723D02*
X156732823Y-107325786D01*
X156723883Y-107334283D01*
X156721838Y-107349574D01*
X156727504Y-107375019D01*
X156741692Y-107413980D01*
X156765216Y-107469815D01*
X156798889Y-107545885D01*
X156806386Y-107562646D01*
X156882264Y-107732162D01*
X156893474Y-108105299D01*
X156896577Y-108202936D01*
X156899740Y-108292221D01*
X156902808Y-108369581D01*
X156905631Y-108431442D01*
X156908056Y-108474231D01*
X156909930Y-108494374D01*
X156910108Y-108495094D01*
X156924928Y-108503330D01*
X156957311Y-108509131D01*
X156998246Y-108512085D01*
X157038719Y-108511781D01*
X157069719Y-108507811D01*
X157080728Y-108502868D01*
X157083089Y-108487687D01*
X157085214Y-108449425D01*
X157087016Y-108391654D01*
X157088408Y-108317945D01*
X157089302Y-108231870D01*
X157089612Y-108138719D01*
X157089612Y-107783455D01*
X157177662Y-107584566D01*
X157215309Y-107499052D01*
X157242782Y-107434765D01*
X157260903Y-107388651D01*
X157270494Y-107357657D01*
X157272376Y-107338732D01*
X157267372Y-107328822D01*
X157256301Y-107324875D01*
X157247750Y-107324130D01*
X157218049Y-107323772D01*
X157204112Y-107324832D01*
X157183490Y-107326735D01*
X157146590Y-107327295D01*
X157089883Y-107326507D01*
X157016317Y-107324559D01*
X156962032Y-107324154D01*
X156915264Y-107325984D01*
X156884733Y-107329662D01*
X156881482Y-107330540D01*
X156848047Y-107332760D01*
X156817257Y-107326026D01*
X156778189Y-107318576D01*
X156747847Y-107320723D01*
G36*
X147327923Y-107026676D02*
G01*
X147262467Y-107051358D01*
X147205994Y-107095445D01*
X147163955Y-107156867D01*
X147163491Y-107157848D01*
X147140779Y-107220080D01*
X147137729Y-107274989D01*
X147154141Y-107333026D01*
X147159886Y-107346249D01*
X147202530Y-107411565D01*
X147260637Y-107457080D01*
X147329459Y-107479866D01*
X147408430Y-107480555D01*
X147477208Y-107456805D01*
X147537590Y-107407983D01*
X147539793Y-107405570D01*
X147587864Y-107352361D01*
X147921091Y-107352361D01*
X147921091Y-107788323D01*
X147856336Y-107853526D01*
X147807468Y-107912703D01*
X147782525Y-107970243D01*
X147779763Y-108031676D01*
X147787612Y-108071180D01*
X147819017Y-108141904D01*
X147868000Y-108195479D01*
X147930249Y-108229960D01*
X148001451Y-108243400D01*
X148077293Y-108233853D01*
X148116376Y-108219504D01*
X148170615Y-108181334D01*
X148212392Y-108125529D01*
X148236742Y-108060029D01*
X148240923Y-108020308D01*
X148229797Y-107953021D01*
X148199861Y-107888366D01*
X148156281Y-107836873D01*
X148147531Y-107829922D01*
X148107660Y-107800444D01*
X148107660Y-107217886D01*
X148074950Y-107185176D01*
X148062216Y-107173288D01*
X148048601Y-107164697D01*
X148029836Y-107158869D01*
X148001655Y-107155267D01*
X147959789Y-107153356D01*
X147899973Y-107152601D01*
X147817937Y-107152466D01*
X147586212Y-107152466D01*
X147552080Y-107111902D01*
X147517378Y-107079302D01*
X147474177Y-107049382D01*
X147463972Y-107043802D01*
X147396908Y-107023467D01*
X147327923Y-107026676D01*
G37*
X147327923Y-107026676D02*
X147262467Y-107051358D01*
X147205994Y-107095445D01*
X147163955Y-107156867D01*
X147163491Y-107157848D01*
X147140779Y-107220080D01*
X147137729Y-107274989D01*
X147154141Y-107333026D01*
X147159886Y-107346249D01*
X147202530Y-107411565D01*
X147260637Y-107457080D01*
X147329459Y-107479866D01*
X147408430Y-107480555D01*
X147477208Y-107456805D01*
X147537590Y-107407983D01*
X147539793Y-107405570D01*
X147587864Y-107352361D01*
X147921091Y-107352361D01*
X147921091Y-107788323D01*
X147856336Y-107853526D01*
X147807468Y-107912703D01*
X147782525Y-107970243D01*
X147779763Y-108031676D01*
X147787612Y-108071180D01*
X147819017Y-108141904D01*
X147868000Y-108195479D01*
X147930249Y-108229960D01*
X148001451Y-108243400D01*
X148077293Y-108233853D01*
X148116376Y-108219504D01*
X148170615Y-108181334D01*
X148212392Y-108125529D01*
X148236742Y-108060029D01*
X148240923Y-108020308D01*
X148229797Y-107953021D01*
X148199861Y-107888366D01*
X148156281Y-107836873D01*
X148147531Y-107829922D01*
X148107660Y-107800444D01*
X148107660Y-107217886D01*
X148074950Y-107185176D01*
X148062216Y-107173288D01*
X148048601Y-107164697D01*
X148029836Y-107158869D01*
X148001655Y-107155267D01*
X147959789Y-107153356D01*
X147899973Y-107152601D01*
X147817937Y-107152466D01*
X147586212Y-107152466D01*
X147552080Y-107111902D01*
X147517378Y-107079302D01*
X147474177Y-107049382D01*
X147463972Y-107043802D01*
X147396908Y-107023467D01*
X147327923Y-107026676D01*
G36*
X148001014Y-105849217D02*
G01*
X147940434Y-105888295D01*
X147894353Y-105941545D01*
X147887297Y-105954021D01*
X147869889Y-106010908D01*
X147867877Y-106076158D01*
X147880557Y-106138664D01*
X147901640Y-106180373D01*
X147957826Y-106237347D01*
X148023239Y-106272559D01*
X148093188Y-106285795D01*
X148162983Y-106276840D01*
X148227933Y-106245479D01*
X148278606Y-106197623D01*
X148314218Y-106152991D01*
X148724003Y-106152991D01*
X149133788Y-106152990D01*
X149133788Y-107710816D01*
X149085435Y-107747696D01*
X149044438Y-107790645D01*
X149011057Y-107846783D01*
X148990904Y-107905290D01*
X148987491Y-107936493D01*
X148998234Y-107991038D01*
X149025805Y-108048972D01*
X149064437Y-108099547D01*
X149084757Y-108117707D01*
X149139053Y-108145843D01*
X149204220Y-108160357D01*
X149269250Y-108159817D01*
X149313941Y-108147511D01*
X149363838Y-108113875D01*
X149407756Y-108065175D01*
X149438171Y-108010809D01*
X149446382Y-107982104D01*
X149446867Y-107950836D01*
X149329988Y-107950836D01*
X149311137Y-107995431D01*
X149298550Y-108010197D01*
X149253839Y-108039304D01*
X149205828Y-108042338D01*
X149157428Y-108019147D01*
X149155575Y-108017711D01*
X149131597Y-107992443D01*
X149121697Y-107960103D01*
X149120462Y-107933155D01*
X149129267Y-107879670D01*
X149156328Y-107845463D01*
X149202613Y-107829522D01*
X149221264Y-107828125D01*
X149270689Y-107837790D01*
X149307077Y-107865684D01*
X149327739Y-107905476D01*
X149329988Y-107950836D01*
X149446867Y-107950836D01*
X149447584Y-107904758D01*
X149426380Y-107832736D01*
X149384988Y-107772649D01*
X149371979Y-107760465D01*
X149320357Y-107716278D01*
X149320160Y-106877998D01*
X149320001Y-106698077D01*
X149319591Y-106543166D01*
X149318899Y-106411622D01*
X149317893Y-106301803D01*
X149316541Y-106212066D01*
X149314810Y-106140768D01*
X149312668Y-106086268D01*
X149311742Y-106072166D01*
X148203862Y-106072166D01*
X148194533Y-106099198D01*
X148159488Y-106143301D01*
X148114261Y-106164838D01*
X148063641Y-106162171D01*
X148039514Y-106152180D01*
X148010222Y-106122780D01*
X147993737Y-106077844D01*
X147993446Y-106026767D01*
X147993736Y-106025170D01*
X148011383Y-105986397D01*
X148046442Y-105959500D01*
X148080055Y-105944436D01*
X148106915Y-105943739D01*
X148134468Y-105953160D01*
X148177022Y-105982781D01*
X148201128Y-106024820D01*
X148203862Y-106072166D01*
X149311742Y-106072166D01*
X149310083Y-106046922D01*
X149307024Y-106021089D01*
X149303457Y-106007126D01*
X149303113Y-106006401D01*
X149286262Y-105973085D01*
X148799074Y-105969591D01*
X148311886Y-105966098D01*
X148293128Y-105931050D01*
X148261248Y-105892930D01*
X148212597Y-105858466D01*
X148156924Y-105834005D01*
X148135840Y-105828631D01*
X148068636Y-105828074D01*
X148001014Y-105849217D01*
G37*
X148001014Y-105849217D02*
X147940434Y-105888295D01*
X147894353Y-105941545D01*
X147887297Y-105954021D01*
X147869889Y-106010908D01*
X147867877Y-106076158D01*
X147880557Y-106138664D01*
X147901640Y-106180373D01*
X147957826Y-106237347D01*
X148023239Y-106272559D01*
X148093188Y-106285795D01*
X148162983Y-106276840D01*
X148227933Y-106245479D01*
X148278606Y-106197623D01*
X148314218Y-106152991D01*
X148724003Y-106152991D01*
X149133788Y-106152990D01*
X149133788Y-107710816D01*
X149085435Y-107747696D01*
X149044438Y-107790645D01*
X149011057Y-107846783D01*
X148990904Y-107905290D01*
X148987491Y-107936493D01*
X148998234Y-107991038D01*
X149025805Y-108048972D01*
X149064437Y-108099547D01*
X149084757Y-108117707D01*
X149139053Y-108145843D01*
X149204220Y-108160357D01*
X149269250Y-108159817D01*
X149313941Y-108147511D01*
X149363838Y-108113875D01*
X149407756Y-108065175D01*
X149438171Y-108010809D01*
X149446382Y-107982104D01*
X149446867Y-107950836D01*
X149329988Y-107950836D01*
X149311137Y-107995431D01*
X149298550Y-108010197D01*
X149253839Y-108039304D01*
X149205828Y-108042338D01*
X149157428Y-108019147D01*
X149155575Y-108017711D01*
X149131597Y-107992443D01*
X149121697Y-107960103D01*
X149120462Y-107933155D01*
X149129267Y-107879670D01*
X149156328Y-107845463D01*
X149202613Y-107829522D01*
X149221264Y-107828125D01*
X149270689Y-107837790D01*
X149307077Y-107865684D01*
X149327739Y-107905476D01*
X149329988Y-107950836D01*
X149446867Y-107950836D01*
X149447584Y-107904758D01*
X149426380Y-107832736D01*
X149384988Y-107772649D01*
X149371979Y-107760465D01*
X149320357Y-107716278D01*
X149320160Y-106877998D01*
X149320001Y-106698077D01*
X149319591Y-106543166D01*
X149318899Y-106411622D01*
X149317893Y-106301803D01*
X149316541Y-106212066D01*
X149314810Y-106140768D01*
X149312668Y-106086268D01*
X149311742Y-106072166D01*
X148203862Y-106072166D01*
X148194533Y-106099198D01*
X148159488Y-106143301D01*
X148114261Y-106164838D01*
X148063641Y-106162171D01*
X148039514Y-106152180D01*
X148010222Y-106122780D01*
X147993737Y-106077844D01*
X147993446Y-106026767D01*
X147993736Y-106025170D01*
X148011383Y-105986397D01*
X148046442Y-105959500D01*
X148080055Y-105944436D01*
X148106915Y-105943739D01*
X148134468Y-105953160D01*
X148177022Y-105982781D01*
X148201128Y-106024820D01*
X148203862Y-106072166D01*
X149311742Y-106072166D01*
X149310083Y-106046922D01*
X149307024Y-106021089D01*
X149303457Y-106007126D01*
X149303113Y-106006401D01*
X149286262Y-105973085D01*
X148799074Y-105969591D01*
X148311886Y-105966098D01*
X148293128Y-105931050D01*
X148261248Y-105892930D01*
X148212597Y-105858466D01*
X148156924Y-105834005D01*
X148135840Y-105828631D01*
X148068636Y-105828074D01*
X148001014Y-105849217D01*
G36*
X148337420Y-106670349D02*
G01*
X148293467Y-106687642D01*
X148234023Y-106722963D01*
X148200193Y-106760555D01*
X148172590Y-106805217D01*
X147555155Y-106808931D01*
X147410536Y-106809847D01*
X147290209Y-106810773D01*
X147191812Y-106811813D01*
X147112984Y-106813076D01*
X147051363Y-106814667D01*
X147004588Y-106816693D01*
X146970298Y-106819260D01*
X146946131Y-106822474D01*
X146929727Y-106826442D01*
X146918724Y-106831272D01*
X146910760Y-106837068D01*
X146909678Y-106838031D01*
X146902533Y-106845144D01*
X146896718Y-106854004D01*
X146892096Y-106867223D01*
X146888530Y-106887415D01*
X146885883Y-106917193D01*
X146884018Y-106959170D01*
X146882799Y-107015960D01*
X146882088Y-107090177D01*
X146881748Y-107184433D01*
X146881644Y-107301343D01*
X146881637Y-107373449D01*
X146881637Y-107883480D01*
X146916750Y-107911100D01*
X146934406Y-107922859D01*
X146955530Y-107930748D01*
X146985533Y-107935516D01*
X147029829Y-107937914D01*
X147093831Y-107938691D01*
X147116176Y-107938720D01*
X147185250Y-107939032D01*
X147232453Y-107940460D01*
X147262569Y-107943738D01*
X147280375Y-107949603D01*
X147290654Y-107958789D01*
X147295232Y-107966267D01*
X147314660Y-107988947D01*
X147348228Y-108016826D01*
X147371605Y-108032899D01*
X147442812Y-108065790D01*
X147512175Y-108072257D01*
X147581394Y-108052289D01*
X147617679Y-108031599D01*
X147672714Y-107980907D01*
X147707365Y-107918675D01*
X147721263Y-107850307D01*
X147719834Y-107836625D01*
X147600963Y-107836625D01*
X147589683Y-107888154D01*
X147560658Y-107925770D01*
X147519897Y-107946639D01*
X147473410Y-107947927D01*
X147427206Y-107926801D01*
X147420764Y-107921604D01*
X147391115Y-107880566D01*
X147383356Y-107832748D01*
X147397360Y-107786234D01*
X147423353Y-107756023D01*
X147467776Y-107730575D01*
X147509655Y-107730162D01*
X147554050Y-107754932D01*
X147560258Y-107759999D01*
X147590906Y-107794282D01*
X147600902Y-107831775D01*
X147600963Y-107836625D01*
X147719834Y-107836625D01*
X147714041Y-107781204D01*
X147685328Y-107716766D01*
X147642444Y-107668590D01*
X147586124Y-107633856D01*
X147521709Y-107613596D01*
X147460174Y-107611003D01*
X147450223Y-107612665D01*
X147400548Y-107630814D01*
X147350332Y-107661554D01*
X147309825Y-107697868D01*
X147294539Y-107719235D01*
X147283684Y-107735828D01*
X147268791Y-107745658D01*
X147243365Y-107750479D01*
X147200909Y-107752042D01*
X147172565Y-107752151D01*
X147068206Y-107752151D01*
X147068206Y-106992550D01*
X147617917Y-106992550D01*
X148167629Y-106992551D01*
X148203241Y-107037183D01*
X148257957Y-107087701D01*
X148320583Y-107116708D01*
X148386670Y-107125666D01*
X148451770Y-107116037D01*
X148511436Y-107089282D01*
X148561219Y-107046862D01*
X148596672Y-106990240D01*
X148613347Y-106920877D01*
X148613495Y-106916992D01*
X148492837Y-106916992D01*
X148471730Y-106961528D01*
X148461414Y-106973166D01*
X148422651Y-106997805D01*
X148378078Y-107006020D01*
X148337347Y-106997177D01*
X148317996Y-106982555D01*
X148284343Y-106933524D01*
X148275048Y-106890443D01*
X148279785Y-106868890D01*
X148308297Y-106821511D01*
X148349951Y-106796961D01*
X148384275Y-106792655D01*
X148435153Y-106803474D01*
X148471944Y-106831868D01*
X148492040Y-106871740D01*
X148492837Y-106916992D01*
X148613495Y-106916992D01*
X148614061Y-106902173D01*
X148603786Y-106823064D01*
X148572256Y-106759450D01*
X148518413Y-106709784D01*
X148462512Y-106680658D01*
X148416883Y-106664801D01*
X148378790Y-106661215D01*
X148337420Y-106670349D01*
G37*
X148337420Y-106670349D02*
X148293467Y-106687642D01*
X148234023Y-106722963D01*
X148200193Y-106760555D01*
X148172590Y-106805217D01*
X147555155Y-106808931D01*
X147410536Y-106809847D01*
X147290209Y-106810773D01*
X147191812Y-106811813D01*
X147112984Y-106813076D01*
X147051363Y-106814667D01*
X147004588Y-106816693D01*
X146970298Y-106819260D01*
X146946131Y-106822474D01*
X146929727Y-106826442D01*
X146918724Y-106831272D01*
X146910760Y-106837068D01*
X146909678Y-106838031D01*
X146902533Y-106845144D01*
X146896718Y-106854004D01*
X146892096Y-106867223D01*
X146888530Y-106887415D01*
X146885883Y-106917193D01*
X146884018Y-106959170D01*
X146882799Y-107015960D01*
X146882088Y-107090177D01*
X146881748Y-107184433D01*
X146881644Y-107301343D01*
X146881637Y-107373449D01*
X146881637Y-107883480D01*
X146916750Y-107911100D01*
X146934406Y-107922859D01*
X146955530Y-107930748D01*
X146985533Y-107935516D01*
X147029829Y-107937914D01*
X147093831Y-107938691D01*
X147116176Y-107938720D01*
X147185250Y-107939032D01*
X147232453Y-107940460D01*
X147262569Y-107943738D01*
X147280375Y-107949603D01*
X147290654Y-107958789D01*
X147295232Y-107966267D01*
X147314660Y-107988947D01*
X147348228Y-108016826D01*
X147371605Y-108032899D01*
X147442812Y-108065790D01*
X147512175Y-108072257D01*
X147581394Y-108052289D01*
X147617679Y-108031599D01*
X147672714Y-107980907D01*
X147707365Y-107918675D01*
X147721263Y-107850307D01*
X147719834Y-107836625D01*
X147600963Y-107836625D01*
X147589683Y-107888154D01*
X147560658Y-107925770D01*
X147519897Y-107946639D01*
X147473410Y-107947927D01*
X147427206Y-107926801D01*
X147420764Y-107921604D01*
X147391115Y-107880566D01*
X147383356Y-107832748D01*
X147397360Y-107786234D01*
X147423353Y-107756023D01*
X147467776Y-107730575D01*
X147509655Y-107730162D01*
X147554050Y-107754932D01*
X147560258Y-107759999D01*
X147590906Y-107794282D01*
X147600902Y-107831775D01*
X147600963Y-107836625D01*
X147719834Y-107836625D01*
X147714041Y-107781204D01*
X147685328Y-107716766D01*
X147642444Y-107668590D01*
X147586124Y-107633856D01*
X147521709Y-107613596D01*
X147460174Y-107611003D01*
X147450223Y-107612665D01*
X147400548Y-107630814D01*
X147350332Y-107661554D01*
X147309825Y-107697868D01*
X147294539Y-107719235D01*
X147283684Y-107735828D01*
X147268791Y-107745658D01*
X147243365Y-107750479D01*
X147200909Y-107752042D01*
X147172565Y-107752151D01*
X147068206Y-107752151D01*
X147068206Y-106992550D01*
X147617917Y-106992550D01*
X148167629Y-106992551D01*
X148203241Y-107037183D01*
X148257957Y-107087701D01*
X148320583Y-107116708D01*
X148386670Y-107125666D01*
X148451770Y-107116037D01*
X148511436Y-107089282D01*
X148561219Y-107046862D01*
X148596672Y-106990240D01*
X148613347Y-106920877D01*
X148613495Y-106916992D01*
X148492837Y-106916992D01*
X148471730Y-106961528D01*
X148461414Y-106973166D01*
X148422651Y-106997805D01*
X148378078Y-107006020D01*
X148337347Y-106997177D01*
X148317996Y-106982555D01*
X148284343Y-106933524D01*
X148275048Y-106890443D01*
X148279785Y-106868890D01*
X148308297Y-106821511D01*
X148349951Y-106796961D01*
X148384275Y-106792655D01*
X148435153Y-106803474D01*
X148471944Y-106831868D01*
X148492040Y-106871740D01*
X148492837Y-106916992D01*
X148613495Y-106916992D01*
X148614061Y-106902173D01*
X148603786Y-106823064D01*
X148572256Y-106759450D01*
X148518413Y-106709784D01*
X148462512Y-106680658D01*
X148416883Y-106664801D01*
X148378790Y-106661215D01*
X148337420Y-106670349D01*
G36*
X157921604Y-107407129D02*
G01*
X157918007Y-107415451D01*
X157920096Y-107423974D01*
X157930799Y-107434558D01*
X157953045Y-107449060D01*
X157989761Y-107469340D01*
X158043877Y-107497257D01*
X158118321Y-107534669D01*
X158138101Y-107544550D01*
X158219848Y-107585006D01*
X158280651Y-107614069D01*
X158323161Y-107632736D01*
X158350032Y-107642006D01*
X158363915Y-107642879D01*
X158367462Y-107636351D01*
X158366113Y-107630396D01*
X158352737Y-107618210D01*
X158320463Y-107597702D01*
X158273810Y-107571142D01*
X158217293Y-107540796D01*
X158155430Y-107508935D01*
X158092736Y-107477826D01*
X158033729Y-107449738D01*
X157982925Y-107426939D01*
X157944840Y-107411699D01*
X157923991Y-107406286D01*
X157921604Y-107407129D01*
G37*
X157921604Y-107407129D02*
X157918007Y-107415451D01*
X157920096Y-107423974D01*
X157930799Y-107434558D01*
X157953045Y-107449060D01*
X157989761Y-107469340D01*
X158043877Y-107497257D01*
X158118321Y-107534669D01*
X158138101Y-107544550D01*
X158219848Y-107585006D01*
X158280651Y-107614069D01*
X158323161Y-107632736D01*
X158350032Y-107642006D01*
X158363915Y-107642879D01*
X158367462Y-107636351D01*
X158366113Y-107630396D01*
X158352737Y-107618210D01*
X158320463Y-107597702D01*
X158273810Y-107571142D01*
X158217293Y-107540796D01*
X158155430Y-107508935D01*
X158092736Y-107477826D01*
X158033729Y-107449738D01*
X157982925Y-107426939D01*
X157944840Y-107411699D01*
X157923991Y-107406286D01*
X157921604Y-107407129D01*
G36*
X156051657Y-107404823D02*
G01*
X156017830Y-107418962D01*
X155969940Y-107441316D01*
X155912594Y-107469501D01*
X155850399Y-107501131D01*
X155787962Y-107533823D01*
X155729888Y-107565191D01*
X155680786Y-107592851D01*
X155645262Y-107614418D01*
X155627922Y-107627508D01*
X155627029Y-107628933D01*
X155626194Y-107639515D01*
X155634602Y-107642951D01*
X155654788Y-107638282D01*
X155689288Y-107624549D01*
X155740638Y-107600791D01*
X155811372Y-107566049D01*
X155866920Y-107538144D01*
X155947313Y-107497024D01*
X156005940Y-107465561D01*
X156045178Y-107442128D01*
X156067409Y-107425095D01*
X156075009Y-107412834D01*
X156070357Y-107403717D01*
X156066815Y-107401283D01*
X156051657Y-107404823D01*
G37*
X156051657Y-107404823D02*
X156017830Y-107418962D01*
X155969940Y-107441316D01*
X155912594Y-107469501D01*
X155850399Y-107501131D01*
X155787962Y-107533823D01*
X155729888Y-107565191D01*
X155680786Y-107592851D01*
X155645262Y-107614418D01*
X155627922Y-107627508D01*
X155627029Y-107628933D01*
X155626194Y-107639515D01*
X155634602Y-107642951D01*
X155654788Y-107638282D01*
X155689288Y-107624549D01*
X155740638Y-107600791D01*
X155811372Y-107566049D01*
X155866920Y-107538144D01*
X155947313Y-107497024D01*
X156005940Y-107465561D01*
X156045178Y-107442128D01*
X156067409Y-107425095D01*
X156075009Y-107412834D01*
X156070357Y-107403717D01*
X156066815Y-107401283D01*
X156051657Y-107404823D01*
G36*
X151648809Y-106023997D02*
G01*
X151628608Y-106033859D01*
X151628645Y-106053938D01*
X151648299Y-106086868D01*
X151686948Y-106135283D01*
X151717719Y-106171377D01*
X151827310Y-106298771D01*
X151813517Y-106446497D01*
X151807389Y-106506929D01*
X151801353Y-106557481D01*
X151796166Y-106592288D01*
X151793011Y-106605085D01*
X151777777Y-106610252D01*
X151741580Y-106615979D01*
X151690077Y-106621520D01*
X151637618Y-106625583D01*
X151488937Y-106635219D01*
X151377656Y-106524516D01*
X151325353Y-106473723D01*
X151288177Y-106442315D01*
X151263150Y-106430120D01*
X151247290Y-106436968D01*
X151237620Y-106462685D01*
X151231159Y-106507100D01*
X151230216Y-106516007D01*
X151231981Y-106623268D01*
X151258241Y-106725752D01*
X151306864Y-106819853D01*
X151375717Y-106901962D01*
X151462668Y-106968475D01*
X151513601Y-106995368D01*
X151552134Y-107010335D01*
X151594040Y-107020012D01*
X151647077Y-107025654D01*
X151718531Y-107028505D01*
X151857892Y-107031661D01*
X152098464Y-107271969D01*
X152164282Y-107337211D01*
X152224277Y-107395722D01*
X152275787Y-107444982D01*
X152316148Y-107482472D01*
X152342698Y-107505673D01*
X152352423Y-107512277D01*
X152365673Y-107503260D01*
X152394375Y-107478197D01*
X152435320Y-107440076D01*
X152485299Y-107391879D01*
X152538696Y-107339006D01*
X152711582Y-107165735D01*
X152467519Y-106921404D01*
X152223456Y-106677072D01*
X152232598Y-106584293D01*
X152231697Y-106467930D01*
X152206942Y-106359585D01*
X152160576Y-106261876D01*
X152094846Y-106177420D01*
X152011995Y-106108835D01*
X151914270Y-106058739D01*
X151803914Y-106029749D01*
X151752414Y-106024382D01*
X151689870Y-106021716D01*
X151648809Y-106023997D01*
G37*
X151648809Y-106023997D02*
X151628608Y-106033859D01*
X151628645Y-106053938D01*
X151648299Y-106086868D01*
X151686948Y-106135283D01*
X151717719Y-106171377D01*
X151827310Y-106298771D01*
X151813517Y-106446497D01*
X151807389Y-106506929D01*
X151801353Y-106557481D01*
X151796166Y-106592288D01*
X151793011Y-106605085D01*
X151777777Y-106610252D01*
X151741580Y-106615979D01*
X151690077Y-106621520D01*
X151637618Y-106625583D01*
X151488937Y-106635219D01*
X151377656Y-106524516D01*
X151325353Y-106473723D01*
X151288177Y-106442315D01*
X151263150Y-106430120D01*
X151247290Y-106436968D01*
X151237620Y-106462685D01*
X151231159Y-106507100D01*
X151230216Y-106516007D01*
X151231981Y-106623268D01*
X151258241Y-106725752D01*
X151306864Y-106819853D01*
X151375717Y-106901962D01*
X151462668Y-106968475D01*
X151513601Y-106995368D01*
X151552134Y-107010335D01*
X151594040Y-107020012D01*
X151647077Y-107025654D01*
X151718531Y-107028505D01*
X151857892Y-107031661D01*
X152098464Y-107271969D01*
X152164282Y-107337211D01*
X152224277Y-107395722D01*
X152275787Y-107444982D01*
X152316148Y-107482472D01*
X152342698Y-107505673D01*
X152352423Y-107512277D01*
X152365673Y-107503260D01*
X152394375Y-107478197D01*
X152435320Y-107440076D01*
X152485299Y-107391879D01*
X152538696Y-107339006D01*
X152711582Y-107165735D01*
X152467519Y-106921404D01*
X152223456Y-106677072D01*
X152232598Y-106584293D01*
X152231697Y-106467930D01*
X152206942Y-106359585D01*
X152160576Y-106261876D01*
X152094846Y-106177420D01*
X152011995Y-106108835D01*
X151914270Y-106058739D01*
X151803914Y-106029749D01*
X151752414Y-106024382D01*
X151689870Y-106021716D01*
X151648809Y-106023997D01*
G36*
X152910833Y-105908009D02*
G01*
X152866732Y-105913176D01*
X152829721Y-105924098D01*
X152790052Y-105942727D01*
X152789015Y-105943270D01*
X152733319Y-105978599D01*
X152703845Y-106011987D01*
X152700596Y-106042789D01*
X152723578Y-106070361D01*
X152772796Y-106094061D01*
X152787870Y-106098909D01*
X152873788Y-106133947D01*
X152956462Y-106184274D01*
X153025417Y-106243255D01*
X153038448Y-106257597D01*
X153073843Y-106304703D01*
X153111356Y-106364279D01*
X153147942Y-106430261D01*
X153180558Y-106496584D01*
X153206160Y-106557185D01*
X153221703Y-106606000D01*
X153224974Y-106629159D01*
X153226176Y-106645759D01*
X153231273Y-106662639D01*
X153242500Y-106682533D01*
X153262093Y-106708178D01*
X153292285Y-106742309D01*
X153335313Y-106787660D01*
X153393411Y-106846968D01*
X153447678Y-106901709D01*
X153522703Y-106976088D01*
X153586640Y-107037191D01*
X153637798Y-107083496D01*
X153674486Y-107113481D01*
X153695015Y-107125624D01*
X153696497Y-107125813D01*
X153726754Y-107117165D01*
X153746983Y-107103758D01*
X153766727Y-107089392D01*
X153783149Y-107093402D01*
X153798006Y-107105824D01*
X153818348Y-107134250D01*
X153824659Y-107158113D01*
X153834064Y-107178938D01*
X153859370Y-107212695D01*
X153896216Y-107255014D01*
X153940239Y-107301525D01*
X153987079Y-107347858D01*
X154032372Y-107389643D01*
X154071758Y-107422512D01*
X154100875Y-107442092D01*
X154111664Y-107445645D01*
X154132146Y-107436128D01*
X154167380Y-107409246D01*
X154214354Y-107367507D01*
X154268010Y-107315475D01*
X154321159Y-107260182D01*
X154362200Y-107213506D01*
X154388566Y-107178552D01*
X154397692Y-107158641D01*
X154388087Y-107136626D01*
X154362235Y-107102135D01*
X154324574Y-107059494D01*
X154279546Y-107013030D01*
X154231590Y-106967068D01*
X154185147Y-106925937D01*
X154144656Y-106893962D01*
X154114560Y-106875469D01*
X154104148Y-106872613D01*
X154069590Y-106861124D01*
X154053417Y-106844547D01*
X154043632Y-106821935D01*
X154050772Y-106802039D01*
X154064796Y-106785712D01*
X154085737Y-106751144D01*
X154085406Y-106728807D01*
X154072462Y-106709217D01*
X154042518Y-106674420D01*
X153998343Y-106627086D01*
X153942708Y-106569882D01*
X153878380Y-106505478D01*
X153808130Y-106436543D01*
X153734726Y-106365747D01*
X153660937Y-106295758D01*
X153589533Y-106229245D01*
X153523283Y-106168878D01*
X153464956Y-106117326D01*
X153417321Y-106077258D01*
X153383147Y-106051342D01*
X153381194Y-106050037D01*
X153274512Y-105986071D01*
X153177209Y-105942186D01*
X153083682Y-105916419D01*
X152988326Y-105906809D01*
X152971773Y-105906640D01*
X152910833Y-105908009D01*
G37*
X152910833Y-105908009D02*
X152866732Y-105913176D01*
X152829721Y-105924098D01*
X152790052Y-105942727D01*
X152789015Y-105943270D01*
X152733319Y-105978599D01*
X152703845Y-106011987D01*
X152700596Y-106042789D01*
X152723578Y-106070361D01*
X152772796Y-106094061D01*
X152787870Y-106098909D01*
X152873788Y-106133947D01*
X152956462Y-106184274D01*
X153025417Y-106243255D01*
X153038448Y-106257597D01*
X153073843Y-106304703D01*
X153111356Y-106364279D01*
X153147942Y-106430261D01*
X153180558Y-106496584D01*
X153206160Y-106557185D01*
X153221703Y-106606000D01*
X153224974Y-106629159D01*
X153226176Y-106645759D01*
X153231273Y-106662639D01*
X153242500Y-106682533D01*
X153262093Y-106708178D01*
X153292285Y-106742309D01*
X153335313Y-106787660D01*
X153393411Y-106846968D01*
X153447678Y-106901709D01*
X153522703Y-106976088D01*
X153586640Y-107037191D01*
X153637798Y-107083496D01*
X153674486Y-107113481D01*
X153695015Y-107125624D01*
X153696497Y-107125813D01*
X153726754Y-107117165D01*
X153746983Y-107103758D01*
X153766727Y-107089392D01*
X153783149Y-107093402D01*
X153798006Y-107105824D01*
X153818348Y-107134250D01*
X153824659Y-107158113D01*
X153834064Y-107178938D01*
X153859370Y-107212695D01*
X153896216Y-107255014D01*
X153940239Y-107301525D01*
X153987079Y-107347858D01*
X154032372Y-107389643D01*
X154071758Y-107422512D01*
X154100875Y-107442092D01*
X154111664Y-107445645D01*
X154132146Y-107436128D01*
X154167380Y-107409246D01*
X154214354Y-107367507D01*
X154268010Y-107315475D01*
X154321159Y-107260182D01*
X154362200Y-107213506D01*
X154388566Y-107178552D01*
X154397692Y-107158641D01*
X154388087Y-107136626D01*
X154362235Y-107102135D01*
X154324574Y-107059494D01*
X154279546Y-107013030D01*
X154231590Y-106967068D01*
X154185147Y-106925937D01*
X154144656Y-106893962D01*
X154114560Y-106875469D01*
X154104148Y-106872613D01*
X154069590Y-106861124D01*
X154053417Y-106844547D01*
X154043632Y-106821935D01*
X154050772Y-106802039D01*
X154064796Y-106785712D01*
X154085737Y-106751144D01*
X154085406Y-106728807D01*
X154072462Y-106709217D01*
X154042518Y-106674420D01*
X153998343Y-106627086D01*
X153942708Y-106569882D01*
X153878380Y-106505478D01*
X153808130Y-106436543D01*
X153734726Y-106365747D01*
X153660937Y-106295758D01*
X153589533Y-106229245D01*
X153523283Y-106168878D01*
X153464956Y-106117326D01*
X153417321Y-106077258D01*
X153383147Y-106051342D01*
X153381194Y-106050037D01*
X153274512Y-105986071D01*
X153177209Y-105942186D01*
X153083682Y-105916419D01*
X152988326Y-105906809D01*
X152971773Y-105906640D01*
X152910833Y-105908009D01*
G36*
X158118718Y-107032934D02*
G01*
X158053383Y-107034279D01*
X158009131Y-107036762D01*
X157983180Y-107040579D01*
X157972750Y-107045927D01*
X157972470Y-107049187D01*
X157982429Y-107055768D01*
X158009059Y-107060879D01*
X158054856Y-107064730D01*
X158122316Y-107067530D01*
X158213454Y-107069484D01*
X158298922Y-107070542D01*
X158361239Y-107070515D01*
X158403895Y-107069156D01*
X158430376Y-107066219D01*
X158444173Y-107061457D01*
X158448774Y-107054622D01*
X158448898Y-107052826D01*
X158445704Y-107045519D01*
X158433833Y-107040168D01*
X158409855Y-107036484D01*
X158370341Y-107034177D01*
X158311860Y-107032960D01*
X158230981Y-107032542D01*
X158207914Y-107032529D01*
X158118718Y-107032934D01*
G37*
X158118718Y-107032934D02*
X158053383Y-107034279D01*
X158009131Y-107036762D01*
X157983180Y-107040579D01*
X157972750Y-107045927D01*
X157972470Y-107049187D01*
X157982429Y-107055768D01*
X158009059Y-107060879D01*
X158054856Y-107064730D01*
X158122316Y-107067530D01*
X158213454Y-107069484D01*
X158298922Y-107070542D01*
X158361239Y-107070515D01*
X158403895Y-107069156D01*
X158430376Y-107066219D01*
X158444173Y-107061457D01*
X158448774Y-107054622D01*
X158448898Y-107052826D01*
X158445704Y-107045519D01*
X158433833Y-107040168D01*
X158409855Y-107036484D01*
X158370341Y-107034177D01*
X158311860Y-107032960D01*
X158230981Y-107032542D01*
X158207914Y-107032529D01*
X158118718Y-107032934D01*
G36*
X155815278Y-107035104D02*
G01*
X155783607Y-107035560D01*
X155683216Y-107038004D01*
X155609158Y-107041653D01*
X155561471Y-107046139D01*
X155540190Y-107051095D01*
X155545350Y-107056153D01*
X155576989Y-107060945D01*
X155635140Y-107065104D01*
X155719842Y-107068262D01*
X155780299Y-107069477D01*
X155867223Y-107070532D01*
X155930960Y-107070559D01*
X155974965Y-107069318D01*
X156002694Y-107066567D01*
X156017600Y-107062066D01*
X156023138Y-107055573D01*
X156023505Y-107052518D01*
X156020618Y-107045159D01*
X156009641Y-107039910D01*
X155987095Y-107036525D01*
X155949504Y-107034760D01*
X155893391Y-107034369D01*
X155815278Y-107035104D01*
G37*
X155815278Y-107035104D02*
X155783607Y-107035560D01*
X155683216Y-107038004D01*
X155609158Y-107041653D01*
X155561471Y-107046139D01*
X155540190Y-107051095D01*
X155545350Y-107056153D01*
X155576989Y-107060945D01*
X155635140Y-107065104D01*
X155719842Y-107068262D01*
X155780299Y-107069477D01*
X155867223Y-107070532D01*
X155930960Y-107070559D01*
X155974965Y-107069318D01*
X156002694Y-107066567D01*
X156017600Y-107062066D01*
X156023138Y-107055573D01*
X156023505Y-107052518D01*
X156020618Y-107045159D01*
X156009641Y-107039910D01*
X155987095Y-107036525D01*
X155949504Y-107034760D01*
X155893391Y-107034369D01*
X155815278Y-107035104D01*
G36*
X158338777Y-106436390D02*
G01*
X158297354Y-106452645D01*
X158267646Y-106467566D01*
X158227226Y-106488984D01*
X158171979Y-106518153D01*
X158110681Y-106550444D01*
X158075761Y-106568806D01*
X158022040Y-106597468D01*
X157976285Y-106622688D01*
X157944222Y-106641262D01*
X157932649Y-106648867D01*
X157922993Y-106667195D01*
X157929606Y-106682717D01*
X157939952Y-106685213D01*
X157954120Y-106678889D01*
X157987727Y-106661860D01*
X158036821Y-106636188D01*
X158097446Y-106603940D01*
X158155466Y-106572696D01*
X158222644Y-106535702D01*
X158281214Y-106502256D01*
X158327292Y-106474671D01*
X158356995Y-106455264D01*
X158366467Y-106446927D01*
X158362531Y-106434335D01*
X158338777Y-106436390D01*
G37*
X158338777Y-106436390D02*
X158297354Y-106452645D01*
X158267646Y-106467566D01*
X158227226Y-106488984D01*
X158171979Y-106518153D01*
X158110681Y-106550444D01*
X158075761Y-106568806D01*
X158022040Y-106597468D01*
X157976285Y-106622688D01*
X157944222Y-106641262D01*
X157932649Y-106648867D01*
X157922993Y-106667195D01*
X157929606Y-106682717D01*
X157939952Y-106685213D01*
X157954120Y-106678889D01*
X157987727Y-106661860D01*
X158036821Y-106636188D01*
X158097446Y-106603940D01*
X158155466Y-106572696D01*
X158222644Y-106535702D01*
X158281214Y-106502256D01*
X158327292Y-106474671D01*
X158356995Y-106455264D01*
X158366467Y-106446927D01*
X158362531Y-106434335D01*
X158338777Y-106436390D01*
G36*
X155624113Y-106441061D02*
G01*
X155623715Y-106445023D01*
X155629644Y-106453575D01*
X155648792Y-106467886D01*
X155683198Y-106489144D01*
X155734901Y-106518540D01*
X155805941Y-106557266D01*
X155898357Y-106606510D01*
X155919663Y-106617768D01*
X155978704Y-106648845D01*
X156018411Y-106669127D01*
X156043043Y-106680223D01*
X156056858Y-106683738D01*
X156064114Y-106681282D01*
X156069069Y-106674461D01*
X156069214Y-106674228D01*
X156071641Y-106667192D01*
X156068131Y-106659197D01*
X156055785Y-106648407D01*
X156031703Y-106632987D01*
X155992988Y-106611103D01*
X155936740Y-106580920D01*
X155860059Y-106540602D01*
X155848798Y-106534708D01*
X155769839Y-106493760D01*
X155711347Y-106464487D01*
X155670424Y-106445735D01*
X155644175Y-106436349D01*
X155629704Y-106435175D01*
X155624113Y-106441061D01*
G37*
X155624113Y-106441061D02*
X155623715Y-106445023D01*
X155629644Y-106453575D01*
X155648792Y-106467886D01*
X155683198Y-106489144D01*
X155734901Y-106518540D01*
X155805941Y-106557266D01*
X155898357Y-106606510D01*
X155919663Y-106617768D01*
X155978704Y-106648845D01*
X156018411Y-106669127D01*
X156043043Y-106680223D01*
X156056858Y-106683738D01*
X156064114Y-106681282D01*
X156069069Y-106674461D01*
X156069214Y-106674228D01*
X156071641Y-106667192D01*
X156068131Y-106659197D01*
X156055785Y-106648407D01*
X156031703Y-106632987D01*
X155992988Y-106611103D01*
X155936740Y-106580920D01*
X155860059Y-106540602D01*
X155848798Y-106534708D01*
X155769839Y-106493760D01*
X155711347Y-106464487D01*
X155670424Y-106445735D01*
X155644175Y-106436349D01*
X155629704Y-106435175D01*
X155624113Y-106441061D01*
G36*
X158102566Y-106045531D02*
G01*
X158072384Y-106064654D01*
X158030829Y-106094426D01*
X157982233Y-106131382D01*
X157930925Y-106172056D01*
X157881236Y-106212982D01*
X157837494Y-106250695D01*
X157804032Y-106281730D01*
X157785177Y-106302620D01*
X157782581Y-106308212D01*
X157783596Y-106322224D01*
X157791059Y-106323398D01*
X157811603Y-106310858D01*
X157823470Y-106302824D01*
X157849625Y-106283713D01*
X157888324Y-106253796D01*
X157934885Y-106216880D01*
X157984624Y-106176775D01*
X158032857Y-106137290D01*
X158074901Y-106102235D01*
X158106074Y-106075418D01*
X158121691Y-106060648D01*
X158122421Y-106059677D01*
X158120416Y-106043320D01*
X158117046Y-106040524D01*
X158102566Y-106045531D01*
G37*
X158102566Y-106045531D02*
X158072384Y-106064654D01*
X158030829Y-106094426D01*
X157982233Y-106131382D01*
X157930925Y-106172056D01*
X157881236Y-106212982D01*
X157837494Y-106250695D01*
X157804032Y-106281730D01*
X157785177Y-106302620D01*
X157782581Y-106308212D01*
X157783596Y-106322224D01*
X157791059Y-106323398D01*
X157811603Y-106310858D01*
X157823470Y-106302824D01*
X157849625Y-106283713D01*
X157888324Y-106253796D01*
X157934885Y-106216880D01*
X157984624Y-106176775D01*
X158032857Y-106137290D01*
X158074901Y-106102235D01*
X158106074Y-106075418D01*
X158121691Y-106060648D01*
X158122421Y-106059677D01*
X158120416Y-106043320D01*
X158117046Y-106040524D01*
X158102566Y-106045531D01*
G36*
X155863686Y-106037274D02*
G01*
X155865307Y-106048549D01*
X155865943Y-106051320D01*
X155876969Y-106064180D01*
X155904634Y-106089767D01*
X155944571Y-106124502D01*
X155992414Y-106164809D01*
X156043797Y-106207109D01*
X156094354Y-106247825D01*
X156139717Y-106283377D01*
X156175520Y-106310188D01*
X156197398Y-106324680D01*
X156201429Y-106326233D01*
X156214098Y-106316970D01*
X156215555Y-106314819D01*
X156210324Y-106300600D01*
X156189102Y-106277220D01*
X156173031Y-106263213D01*
X156083763Y-106190943D01*
X156013079Y-106134100D01*
X155958917Y-106091261D01*
X155919213Y-106061001D01*
X155891901Y-106041897D01*
X155874919Y-106032523D01*
X155866201Y-106031457D01*
X155863686Y-106037274D01*
G37*
X155863686Y-106037274D02*
X155865307Y-106048549D01*
X155865943Y-106051320D01*
X155876969Y-106064180D01*
X155904634Y-106089767D01*
X155944571Y-106124502D01*
X155992414Y-106164809D01*
X156043797Y-106207109D01*
X156094354Y-106247825D01*
X156139717Y-106283377D01*
X156175520Y-106310188D01*
X156197398Y-106324680D01*
X156201429Y-106326233D01*
X156214098Y-106316970D01*
X156215555Y-106314819D01*
X156210324Y-106300600D01*
X156189102Y-106277220D01*
X156173031Y-106263213D01*
X156083763Y-106190943D01*
X156013079Y-106134100D01*
X155958917Y-106091261D01*
X155919213Y-106061001D01*
X155891901Y-106041897D01*
X155874919Y-106032523D01*
X155866201Y-106031457D01*
X155863686Y-106037274D01*
G36*
X157617823Y-105740762D02*
G01*
X157605772Y-105757461D01*
X157583699Y-105791131D01*
X157554555Y-105836980D01*
X157521293Y-105890215D01*
X157486862Y-105946042D01*
X157454217Y-105999668D01*
X157426308Y-106046299D01*
X157406087Y-106081144D01*
X157396506Y-106099408D01*
X157396118Y-106100776D01*
X157401935Y-106115299D01*
X157419370Y-106105878D01*
X157448397Y-106072542D01*
X157488989Y-106015320D01*
X157539392Y-105937017D01*
X157585750Y-105860494D01*
X157617619Y-105802935D01*
X157634572Y-105765178D01*
X157636179Y-105748059D01*
X157636127Y-105748005D01*
X157621231Y-105739548D01*
X157617823Y-105740762D01*
G37*
X157617823Y-105740762D02*
X157605772Y-105757461D01*
X157583699Y-105791131D01*
X157554555Y-105836980D01*
X157521293Y-105890215D01*
X157486862Y-105946042D01*
X157454217Y-105999668D01*
X157426308Y-106046299D01*
X157406087Y-106081144D01*
X157396506Y-106099408D01*
X157396118Y-106100776D01*
X157401935Y-106115299D01*
X157419370Y-106105878D01*
X157448397Y-106072542D01*
X157488989Y-106015320D01*
X157539392Y-105937017D01*
X157585750Y-105860494D01*
X157617619Y-105802935D01*
X157634572Y-105765178D01*
X157636179Y-105748059D01*
X157636127Y-105748005D01*
X157621231Y-105739548D01*
X157617823Y-105740762D01*
G36*
X156354513Y-105746117D02*
G01*
X156355768Y-105766354D01*
X156372958Y-105802849D01*
X156399893Y-105847252D01*
X156436557Y-105904477D01*
X156478146Y-105969317D01*
X156512652Y-106023059D01*
X156548610Y-106075282D01*
X156575079Y-106105591D01*
X156591303Y-106113303D01*
X156596537Y-106098948D01*
X156589801Y-106082233D01*
X156571695Y-106048812D01*
X156545376Y-106004328D01*
X156527589Y-105975679D01*
X156491971Y-105919255D01*
X156456470Y-105862999D01*
X156427025Y-105816323D01*
X156418734Y-105803174D01*
X156395229Y-105768566D01*
X156376382Y-105745574D01*
X156368532Y-105739874D01*
X156354513Y-105746117D01*
G37*
X156354513Y-105746117D02*
X156355768Y-105766354D01*
X156372958Y-105802849D01*
X156399893Y-105847252D01*
X156436557Y-105904477D01*
X156478146Y-105969317D01*
X156512652Y-106023059D01*
X156548610Y-106075282D01*
X156575079Y-106105591D01*
X156591303Y-106113303D01*
X156596537Y-106098948D01*
X156589801Y-106082233D01*
X156571695Y-106048812D01*
X156545376Y-106004328D01*
X156527589Y-105975679D01*
X156491971Y-105919255D01*
X156456470Y-105862999D01*
X156427025Y-105816323D01*
X156418734Y-105803174D01*
X156395229Y-105768566D01*
X156376382Y-105745574D01*
X156368532Y-105739874D01*
X156354513Y-105746117D01*
G36*
X156981841Y-105650215D02*
G01*
X156976311Y-105663563D01*
X156972706Y-105690336D01*
X156970653Y-105734240D01*
X156969783Y-105798979D01*
X156969675Y-105846485D01*
X156970037Y-105924720D01*
X156971372Y-105980014D01*
X156974049Y-106016071D01*
X156978440Y-106036596D01*
X156984914Y-106045294D01*
X156989664Y-106046380D01*
X156997488Y-106042754D01*
X157003017Y-106029407D01*
X157006623Y-106002633D01*
X157008675Y-105958729D01*
X157009545Y-105893990D01*
X157009654Y-105846485D01*
X157009291Y-105768250D01*
X157007957Y-105712956D01*
X157005279Y-105676898D01*
X157000889Y-105656373D01*
X156994415Y-105647675D01*
X156989664Y-105646590D01*
X156981841Y-105650215D01*
G37*
X156981841Y-105650215D02*
X156976311Y-105663563D01*
X156972706Y-105690336D01*
X156970653Y-105734240D01*
X156969783Y-105798979D01*
X156969675Y-105846485D01*
X156970037Y-105924720D01*
X156971372Y-105980014D01*
X156974049Y-106016071D01*
X156978440Y-106036596D01*
X156984914Y-106045294D01*
X156989664Y-106046380D01*
X156997488Y-106042754D01*
X157003017Y-106029407D01*
X157006623Y-106002633D01*
X157008675Y-105958729D01*
X157009545Y-105893990D01*
X157009654Y-105846485D01*
X157009291Y-105768250D01*
X157007957Y-105712956D01*
X157005279Y-105676898D01*
X157000889Y-105656373D01*
X156994415Y-105647675D01*
X156989664Y-105646590D01*
X156981841Y-105650215D01*
G36*
X158254282Y-101849080D02*
G01*
X158228016Y-101855413D01*
X158214408Y-101870879D01*
X158211329Y-101899286D01*
X158216648Y-101944443D01*
X158228234Y-102010158D01*
X158236630Y-102057149D01*
X158269479Y-102245960D01*
X158303296Y-102442208D01*
X158339552Y-102654441D01*
X158347550Y-102701469D01*
X158362991Y-102791815D01*
X158380879Y-102895682D01*
X158399017Y-103000347D01*
X158415205Y-103093085D01*
X158415470Y-103094596D01*
X158429635Y-103176116D01*
X158443855Y-103259349D01*
X158456672Y-103335668D01*
X158466627Y-103396446D01*
X158468429Y-103407765D01*
X158480114Y-103478683D01*
X158493757Y-103556951D01*
X158506460Y-103625954D01*
X158506786Y-103627649D01*
X158518595Y-103691036D01*
X158532284Y-103767372D01*
X158545471Y-103843301D01*
X158549562Y-103867524D01*
X158562296Y-103943470D01*
X158576952Y-104030660D01*
X158591004Y-104114058D01*
X158595504Y-104140713D01*
X158607803Y-104213688D01*
X158622395Y-104300551D01*
X158637200Y-104388902D01*
X158646947Y-104447219D01*
X158658880Y-104517223D01*
X158670627Y-104583539D01*
X158680811Y-104638541D01*
X158687869Y-104673767D01*
X158695538Y-104712942D01*
X158705482Y-104769496D01*
X158716155Y-104834430D01*
X158722263Y-104873662D01*
X158732701Y-104938806D01*
X158743516Y-105000467D01*
X158753124Y-105049868D01*
X158757714Y-105070226D01*
X158771894Y-105126862D01*
X158910657Y-105126862D01*
X158979845Y-105125736D01*
X159025131Y-105122151D01*
X159049176Y-105115799D01*
X159054628Y-105110205D01*
X159064536Y-105071466D01*
X159077358Y-105010317D01*
X159092323Y-104930742D01*
X159108658Y-104836729D01*
X159114683Y-104800367D01*
X159124723Y-104739370D01*
X159134952Y-104677982D01*
X159146035Y-104612332D01*
X159158634Y-104538549D01*
X159173414Y-104452760D01*
X159191037Y-104351093D01*
X159212167Y-104229677D01*
X159228844Y-104134050D01*
X159244698Y-104042631D01*
X159262339Y-103939997D01*
X159279655Y-103838483D01*
X159294534Y-103750427D01*
X159295011Y-103747587D01*
X159309783Y-103660282D01*
X159327116Y-103559068D01*
X159344887Y-103456273D01*
X159360975Y-103364224D01*
X159361522Y-103361123D01*
X159376600Y-103275311D01*
X159392631Y-103183662D01*
X159407838Y-103096363D01*
X159420442Y-103023605D01*
X159421987Y-103014638D01*
X159434003Y-102944887D01*
X159448796Y-102859071D01*
X159464606Y-102767390D01*
X159479676Y-102680043D01*
X159481728Y-102668153D01*
X159496646Y-102581417D01*
X159512629Y-102487981D01*
X159527880Y-102398377D01*
X159540603Y-102323139D01*
X159541970Y-102315005D01*
X159555999Y-102232174D01*
X159572112Y-102138088D01*
X159587737Y-102047735D01*
X159594587Y-102008499D01*
X159605124Y-101948183D01*
X159613735Y-101898446D01*
X159619510Y-101864581D01*
X159621539Y-101851915D01*
X159609125Y-101850598D01*
X159575340Y-101849527D01*
X159525463Y-101848817D01*
X159469692Y-101848583D01*
X159317769Y-101848583D01*
X159303794Y-101911883D01*
X159295542Y-101955102D01*
X159285976Y-102013951D01*
X159276828Y-102077582D01*
X159274534Y-102095121D01*
X159265984Y-102157516D01*
X159256732Y-102217647D01*
X159248426Y-102264976D01*
X159246381Y-102275026D01*
X159239494Y-102311457D01*
X159230135Y-102366882D01*
X159219510Y-102433898D01*
X159208828Y-102505101D01*
X159208372Y-102508237D01*
X159196889Y-102585934D01*
X159182719Y-102679660D01*
X159167433Y-102779138D01*
X159152602Y-102874086D01*
X159148284Y-102901364D01*
X159133949Y-102991934D01*
X159118611Y-103089458D01*
X159103835Y-103183948D01*
X159091187Y-103265417D01*
X159087734Y-103287828D01*
X159076015Y-103363934D01*
X159061808Y-103455987D01*
X159046719Y-103553601D01*
X159032351Y-103646387D01*
X159029058Y-103667628D01*
X159015699Y-103754200D01*
X159001811Y-103844962D01*
X158988793Y-103930725D01*
X158978043Y-104002298D01*
X158975301Y-104020776D01*
X158964073Y-104093659D01*
X158951496Y-104170537D01*
X158939616Y-104239045D01*
X158934968Y-104264253D01*
X158925381Y-104317673D01*
X158918028Y-104364071D01*
X158914291Y-104394617D01*
X158914118Y-104397516D01*
X158911363Y-104412303D01*
X158905572Y-104402188D01*
X158897089Y-104368708D01*
X158886258Y-104313398D01*
X158873424Y-104237794D01*
X158862400Y-104166761D01*
X158850060Y-104085277D01*
X158835232Y-103988462D01*
X158819609Y-103887306D01*
X158804883Y-103792801D01*
X158801970Y-103774239D01*
X158787878Y-103684305D01*
X158772692Y-103586944D01*
X158758027Y-103492539D01*
X158745500Y-103411471D01*
X158742881Y-103394439D01*
X158731301Y-103319482D01*
X158717091Y-103228193D01*
X158701812Y-103130562D01*
X158687024Y-103036578D01*
X158682503Y-103007975D01*
X158656240Y-102840928D01*
X158627677Y-102657297D01*
X158598327Y-102466877D01*
X158569702Y-102279463D01*
X158555902Y-102188405D01*
X158544531Y-102115173D01*
X158532552Y-102041363D01*
X158521562Y-101976653D01*
X158514668Y-101938536D01*
X158497597Y-101848583D01*
X158353310Y-101848583D01*
X158295336Y-101848073D01*
X158254282Y-101849080D01*
G37*
X158254282Y-101849080D02*
X158228016Y-101855413D01*
X158214408Y-101870879D01*
X158211329Y-101899286D01*
X158216648Y-101944443D01*
X158228234Y-102010158D01*
X158236630Y-102057149D01*
X158269479Y-102245960D01*
X158303296Y-102442208D01*
X158339552Y-102654441D01*
X158347550Y-102701469D01*
X158362991Y-102791815D01*
X158380879Y-102895682D01*
X158399017Y-103000347D01*
X158415205Y-103093085D01*
X158415470Y-103094596D01*
X158429635Y-103176116D01*
X158443855Y-103259349D01*
X158456672Y-103335668D01*
X158466627Y-103396446D01*
X158468429Y-103407765D01*
X158480114Y-103478683D01*
X158493757Y-103556951D01*
X158506460Y-103625954D01*
X158506786Y-103627649D01*
X158518595Y-103691036D01*
X158532284Y-103767372D01*
X158545471Y-103843301D01*
X158549562Y-103867524D01*
X158562296Y-103943470D01*
X158576952Y-104030660D01*
X158591004Y-104114058D01*
X158595504Y-104140713D01*
X158607803Y-104213688D01*
X158622395Y-104300551D01*
X158637200Y-104388902D01*
X158646947Y-104447219D01*
X158658880Y-104517223D01*
X158670627Y-104583539D01*
X158680811Y-104638541D01*
X158687869Y-104673767D01*
X158695538Y-104712942D01*
X158705482Y-104769496D01*
X158716155Y-104834430D01*
X158722263Y-104873662D01*
X158732701Y-104938806D01*
X158743516Y-105000467D01*
X158753124Y-105049868D01*
X158757714Y-105070226D01*
X158771894Y-105126862D01*
X158910657Y-105126862D01*
X158979845Y-105125736D01*
X159025131Y-105122151D01*
X159049176Y-105115799D01*
X159054628Y-105110205D01*
X159064536Y-105071466D01*
X159077358Y-105010317D01*
X159092323Y-104930742D01*
X159108658Y-104836729D01*
X159114683Y-104800367D01*
X159124723Y-104739370D01*
X159134952Y-104677982D01*
X159146035Y-104612332D01*
X159158634Y-104538549D01*
X159173414Y-104452760D01*
X159191037Y-104351093D01*
X159212167Y-104229677D01*
X159228844Y-104134050D01*
X159244698Y-104042631D01*
X159262339Y-103939997D01*
X159279655Y-103838483D01*
X159294534Y-103750427D01*
X159295011Y-103747587D01*
X159309783Y-103660282D01*
X159327116Y-103559068D01*
X159344887Y-103456273D01*
X159360975Y-103364224D01*
X159361522Y-103361123D01*
X159376600Y-103275311D01*
X159392631Y-103183662D01*
X159407838Y-103096363D01*
X159420442Y-103023605D01*
X159421987Y-103014638D01*
X159434003Y-102944887D01*
X159448796Y-102859071D01*
X159464606Y-102767390D01*
X159479676Y-102680043D01*
X159481728Y-102668153D01*
X159496646Y-102581417D01*
X159512629Y-102487981D01*
X159527880Y-102398377D01*
X159540603Y-102323139D01*
X159541970Y-102315005D01*
X159555999Y-102232174D01*
X159572112Y-102138088D01*
X159587737Y-102047735D01*
X159594587Y-102008499D01*
X159605124Y-101948183D01*
X159613735Y-101898446D01*
X159619510Y-101864581D01*
X159621539Y-101851915D01*
X159609125Y-101850598D01*
X159575340Y-101849527D01*
X159525463Y-101848817D01*
X159469692Y-101848583D01*
X159317769Y-101848583D01*
X159303794Y-101911883D01*
X159295542Y-101955102D01*
X159285976Y-102013951D01*
X159276828Y-102077582D01*
X159274534Y-102095121D01*
X159265984Y-102157516D01*
X159256732Y-102217647D01*
X159248426Y-102264976D01*
X159246381Y-102275026D01*
X159239494Y-102311457D01*
X159230135Y-102366882D01*
X159219510Y-102433898D01*
X159208828Y-102505101D01*
X159208372Y-102508237D01*
X159196889Y-102585934D01*
X159182719Y-102679660D01*
X159167433Y-102779138D01*
X159152602Y-102874086D01*
X159148284Y-102901364D01*
X159133949Y-102991934D01*
X159118611Y-103089458D01*
X159103835Y-103183948D01*
X159091187Y-103265417D01*
X159087734Y-103287828D01*
X159076015Y-103363934D01*
X159061808Y-103455987D01*
X159046719Y-103553601D01*
X159032351Y-103646387D01*
X159029058Y-103667628D01*
X159015699Y-103754200D01*
X159001811Y-103844962D01*
X158988793Y-103930725D01*
X158978043Y-104002298D01*
X158975301Y-104020776D01*
X158964073Y-104093659D01*
X158951496Y-104170537D01*
X158939616Y-104239045D01*
X158934968Y-104264253D01*
X158925381Y-104317673D01*
X158918028Y-104364071D01*
X158914291Y-104394617D01*
X158914118Y-104397516D01*
X158911363Y-104412303D01*
X158905572Y-104402188D01*
X158897089Y-104368708D01*
X158886258Y-104313398D01*
X158873424Y-104237794D01*
X158862400Y-104166761D01*
X158850060Y-104085277D01*
X158835232Y-103988462D01*
X158819609Y-103887306D01*
X158804883Y-103792801D01*
X158801970Y-103774239D01*
X158787878Y-103684305D01*
X158772692Y-103586944D01*
X158758027Y-103492539D01*
X158745500Y-103411471D01*
X158742881Y-103394439D01*
X158731301Y-103319482D01*
X158717091Y-103228193D01*
X158701812Y-103130562D01*
X158687024Y-103036578D01*
X158682503Y-103007975D01*
X158656240Y-102840928D01*
X158627677Y-102657297D01*
X158598327Y-102466877D01*
X158569702Y-102279463D01*
X158555902Y-102188405D01*
X158544531Y-102115173D01*
X158532552Y-102041363D01*
X158521562Y-101976653D01*
X158514668Y-101938536D01*
X158497597Y-101848583D01*
X158353310Y-101848583D01*
X158295336Y-101848073D01*
X158254282Y-101849080D01*
G36*
X156759317Y-101985027D02*
G01*
X156763117Y-102121773D01*
X157146387Y-102125309D01*
X157529658Y-102128846D01*
X157526188Y-102718331D01*
X157522718Y-103307817D01*
X156822158Y-103314925D01*
X156825953Y-103451298D01*
X156829748Y-103587670D01*
X157176233Y-103594334D01*
X157522718Y-103600997D01*
X157522718Y-104827020D01*
X157132922Y-104830553D01*
X156743127Y-104834086D01*
X156743127Y-105113536D01*
X157283262Y-105113536D01*
X157424003Y-105113360D01*
X157540073Y-105112792D01*
X157633449Y-105111772D01*
X157706112Y-105110240D01*
X157760038Y-105108134D01*
X157797209Y-105105395D01*
X157819601Y-105101963D01*
X157829195Y-105097777D01*
X157829739Y-105096878D01*
X157830518Y-105081673D01*
X157831214Y-105041460D01*
X157831824Y-104977882D01*
X157832346Y-104892586D01*
X157832775Y-104787214D01*
X157833109Y-104663411D01*
X157833345Y-104522822D01*
X157833481Y-104367090D01*
X157833513Y-104197861D01*
X157833439Y-104016779D01*
X157833254Y-103825488D01*
X157832958Y-103625631D01*
X157832653Y-103467733D01*
X157829224Y-101855247D01*
X157292371Y-101851763D01*
X156755518Y-101848280D01*
X156759317Y-101985027D01*
G37*
X156759317Y-101985027D02*
X156763117Y-102121773D01*
X157146387Y-102125309D01*
X157529658Y-102128846D01*
X157526188Y-102718331D01*
X157522718Y-103307817D01*
X156822158Y-103314925D01*
X156825953Y-103451298D01*
X156829748Y-103587670D01*
X157176233Y-103594334D01*
X157522718Y-103600997D01*
X157522718Y-104827020D01*
X157132922Y-104830553D01*
X156743127Y-104834086D01*
X156743127Y-105113536D01*
X157283262Y-105113536D01*
X157424003Y-105113360D01*
X157540073Y-105112792D01*
X157633449Y-105111772D01*
X157706112Y-105110240D01*
X157760038Y-105108134D01*
X157797209Y-105105395D01*
X157819601Y-105101963D01*
X157829195Y-105097777D01*
X157829739Y-105096878D01*
X157830518Y-105081673D01*
X157831214Y-105041460D01*
X157831824Y-104977882D01*
X157832346Y-104892586D01*
X157832775Y-104787214D01*
X157833109Y-104663411D01*
X157833345Y-104522822D01*
X157833481Y-104367090D01*
X157833513Y-104197861D01*
X157833439Y-104016779D01*
X157833254Y-103825488D01*
X157832958Y-103625631D01*
X157832653Y-103467733D01*
X157829224Y-101855247D01*
X157292371Y-101851763D01*
X156755518Y-101848280D01*
X156759317Y-101985027D01*
G36*
X155536686Y-101848690D02*
G01*
X155438551Y-101849571D01*
X155348871Y-101851090D01*
X155271545Y-101853257D01*
X155210474Y-101856077D01*
X155169557Y-101859558D01*
X155156702Y-101861854D01*
X155108277Y-101885792D01*
X155060817Y-101926306D01*
X155023568Y-101974639D01*
X155011520Y-101999372D01*
X155007180Y-102024807D01*
X155003559Y-102075069D01*
X155000716Y-102148340D01*
X154998708Y-102242803D01*
X154997594Y-102356640D01*
X154997377Y-102442473D01*
X154997377Y-102848059D01*
X155303883Y-102848059D01*
X155303883Y-102128436D01*
X156010178Y-102128436D01*
X156010178Y-104833683D01*
X155303883Y-104833683D01*
X155303883Y-104034103D01*
X154997377Y-104034103D01*
X154997398Y-104483867D01*
X154997480Y-104612936D01*
X154998036Y-104718243D01*
X154999553Y-104802675D01*
X155002516Y-104869124D01*
X155007411Y-104920477D01*
X155014722Y-104959625D01*
X155024936Y-104989456D01*
X155038538Y-105012861D01*
X155056013Y-105032729D01*
X155077848Y-105051949D01*
X155095213Y-105065946D01*
X155146406Y-105106873D01*
X155641592Y-105110376D01*
X155772054Y-105111178D01*
X155878535Y-105111497D01*
X155963704Y-105111246D01*
X156030230Y-105110337D01*
X156080782Y-105108681D01*
X156118029Y-105106192D01*
X156144640Y-105102782D01*
X156163284Y-105098363D01*
X156176630Y-105092847D01*
X156176728Y-105092796D01*
X156232843Y-105055988D01*
X156272819Y-105009980D01*
X156291450Y-104977472D01*
X156295422Y-104968912D01*
X156298954Y-104958673D01*
X156302072Y-104945230D01*
X156304803Y-104927055D01*
X156307170Y-104902621D01*
X156309201Y-104870403D01*
X156310921Y-104828872D01*
X156312356Y-104776502D01*
X156313531Y-104711767D01*
X156314473Y-104633139D01*
X156315207Y-104539092D01*
X156315758Y-104428099D01*
X156316153Y-104298634D01*
X156316417Y-104149169D01*
X156316576Y-103978177D01*
X156316656Y-103784133D01*
X156316683Y-103565509D01*
X156316684Y-103481060D01*
X156316671Y-103253299D01*
X156316614Y-103050664D01*
X156316488Y-102871628D01*
X156316267Y-102714664D01*
X156315924Y-102578244D01*
X156315434Y-102460842D01*
X156314772Y-102360931D01*
X156313910Y-102276984D01*
X156312824Y-102207474D01*
X156311488Y-102150874D01*
X156309875Y-102105657D01*
X156307959Y-102070295D01*
X156305716Y-102043263D01*
X156303118Y-102023033D01*
X156300141Y-102008078D01*
X156296757Y-101996872D01*
X156292942Y-101987886D01*
X156291328Y-101984647D01*
X156245311Y-101918645D01*
X156185968Y-101875165D01*
X156158111Y-101863756D01*
X156132745Y-101859792D01*
X156084632Y-101856407D01*
X156017673Y-101853610D01*
X155935767Y-101851407D01*
X155842816Y-101849807D01*
X155742719Y-101848815D01*
X155639375Y-101848440D01*
X155536686Y-101848690D01*
G37*
X155536686Y-101848690D02*
X155438551Y-101849571D01*
X155348871Y-101851090D01*
X155271545Y-101853257D01*
X155210474Y-101856077D01*
X155169557Y-101859558D01*
X155156702Y-101861854D01*
X155108277Y-101885792D01*
X155060817Y-101926306D01*
X155023568Y-101974639D01*
X155011520Y-101999372D01*
X155007180Y-102024807D01*
X155003559Y-102075069D01*
X155000716Y-102148340D01*
X154998708Y-102242803D01*
X154997594Y-102356640D01*
X154997377Y-102442473D01*
X154997377Y-102848059D01*
X155303883Y-102848059D01*
X155303883Y-102128436D01*
X156010178Y-102128436D01*
X156010178Y-104833683D01*
X155303883Y-104833683D01*
X155303883Y-104034103D01*
X154997377Y-104034103D01*
X154997398Y-104483867D01*
X154997480Y-104612936D01*
X154998036Y-104718243D01*
X154999553Y-104802675D01*
X155002516Y-104869124D01*
X155007411Y-104920477D01*
X155014722Y-104959625D01*
X155024936Y-104989456D01*
X155038538Y-105012861D01*
X155056013Y-105032729D01*
X155077848Y-105051949D01*
X155095213Y-105065946D01*
X155146406Y-105106873D01*
X155641592Y-105110376D01*
X155772054Y-105111178D01*
X155878535Y-105111497D01*
X155963704Y-105111246D01*
X156030230Y-105110337D01*
X156080782Y-105108681D01*
X156118029Y-105106192D01*
X156144640Y-105102782D01*
X156163284Y-105098363D01*
X156176630Y-105092847D01*
X156176728Y-105092796D01*
X156232843Y-105055988D01*
X156272819Y-105009980D01*
X156291450Y-104977472D01*
X156295422Y-104968912D01*
X156298954Y-104958673D01*
X156302072Y-104945230D01*
X156304803Y-104927055D01*
X156307170Y-104902621D01*
X156309201Y-104870403D01*
X156310921Y-104828872D01*
X156312356Y-104776502D01*
X156313531Y-104711767D01*
X156314473Y-104633139D01*
X156315207Y-104539092D01*
X156315758Y-104428099D01*
X156316153Y-104298634D01*
X156316417Y-104149169D01*
X156316576Y-103978177D01*
X156316656Y-103784133D01*
X156316683Y-103565509D01*
X156316684Y-103481060D01*
X156316671Y-103253299D01*
X156316614Y-103050664D01*
X156316488Y-102871628D01*
X156316267Y-102714664D01*
X156315924Y-102578244D01*
X156315434Y-102460842D01*
X156314772Y-102360931D01*
X156313910Y-102276984D01*
X156312824Y-102207474D01*
X156311488Y-102150874D01*
X156309875Y-102105657D01*
X156307959Y-102070295D01*
X156305716Y-102043263D01*
X156303118Y-102023033D01*
X156300141Y-102008078D01*
X156296757Y-101996872D01*
X156292942Y-101987886D01*
X156291328Y-101984647D01*
X156245311Y-101918645D01*
X156185968Y-101875165D01*
X156158111Y-101863756D01*
X156132745Y-101859792D01*
X156084632Y-101856407D01*
X156017673Y-101853610D01*
X155935767Y-101851407D01*
X155842816Y-101849807D01*
X155742719Y-101848815D01*
X155639375Y-101848440D01*
X155536686Y-101848690D01*
G36*
X154035016Y-101851789D02*
G01*
X153378227Y-101855247D01*
X153378227Y-102121773D01*
X153628096Y-102125399D01*
X153877964Y-102129025D01*
X153877964Y-105113536D01*
X154184470Y-105113536D01*
X154184470Y-102129025D01*
X154684208Y-102121773D01*
X154688007Y-101985052D01*
X154691806Y-101848332D01*
X154035016Y-101851789D01*
G37*
X154035016Y-101851789D02*
X153378227Y-101855247D01*
X153378227Y-102121773D01*
X153628096Y-102125399D01*
X153877964Y-102129025D01*
X153877964Y-105113536D01*
X154184470Y-105113536D01*
X154184470Y-102129025D01*
X154684208Y-102121773D01*
X154688007Y-101985052D01*
X154691806Y-101848332D01*
X154035016Y-101851789D01*
G36*
X152257921Y-101849057D02*
G01*
X152155141Y-101849831D01*
X152059686Y-101851125D01*
X151975331Y-101852937D01*
X151905851Y-101855268D01*
X151855020Y-101858115D01*
X151826614Y-101861479D01*
X151825117Y-101861854D01*
X151776692Y-101885792D01*
X151729232Y-101926306D01*
X151691983Y-101974639D01*
X151679936Y-101999372D01*
X151677668Y-102018611D01*
X151675587Y-102062380D01*
X151673695Y-102128558D01*
X151671992Y-102215025D01*
X151670476Y-102319660D01*
X151669149Y-102440342D01*
X151668009Y-102574951D01*
X151667058Y-102721365D01*
X151666295Y-102877464D01*
X151665720Y-103041128D01*
X151665334Y-103210235D01*
X151665135Y-103382664D01*
X151665124Y-103556296D01*
X151665301Y-103729008D01*
X151665666Y-103898681D01*
X151666219Y-104063194D01*
X151666960Y-104220426D01*
X151667889Y-104368256D01*
X151669006Y-104504563D01*
X151670311Y-104627227D01*
X151671803Y-104734127D01*
X151673484Y-104823142D01*
X151675352Y-104892152D01*
X151677408Y-104939035D01*
X151679652Y-104961671D01*
X151679966Y-104962747D01*
X151710828Y-105015432D01*
X151757670Y-105063290D01*
X151808622Y-105095188D01*
X151825421Y-105100113D01*
X151852126Y-105104126D01*
X151891110Y-105107306D01*
X151944747Y-105109732D01*
X152015409Y-105111481D01*
X152105469Y-105112633D01*
X152217301Y-105113264D01*
X152353277Y-105113455D01*
X152361665Y-105113454D01*
X152494859Y-105113304D01*
X152603995Y-105112833D01*
X152691668Y-105111945D01*
X152760474Y-105110540D01*
X152813006Y-105108520D01*
X152851860Y-105105787D01*
X152879630Y-105102241D01*
X152898910Y-105097786D01*
X152911805Y-105092579D01*
X152976508Y-105047898D01*
X153024673Y-104992068D01*
X153033008Y-104977603D01*
X153036210Y-104958223D01*
X153039146Y-104914304D01*
X153041818Y-104847958D01*
X153044226Y-104761296D01*
X153046369Y-104656428D01*
X153048247Y-104535466D01*
X153049861Y-104400521D01*
X153051210Y-104253704D01*
X153052296Y-104097125D01*
X153053117Y-103932896D01*
X153053673Y-103763128D01*
X153053966Y-103589932D01*
X153053994Y-103415419D01*
X153053759Y-103241699D01*
X153053259Y-103070884D01*
X153052495Y-102905085D01*
X153051468Y-102746413D01*
X153050176Y-102596979D01*
X153048621Y-102458893D01*
X153046802Y-102334268D01*
X153044720Y-102225213D01*
X153042373Y-102133841D01*
X153042176Y-102128436D01*
X152745226Y-102128436D01*
X152745226Y-104833683D01*
X151972298Y-104833683D01*
X151972298Y-102128436D01*
X152745226Y-102128436D01*
X153042176Y-102128436D01*
X153039763Y-102062261D01*
X153036890Y-102012586D01*
X153033753Y-101986925D01*
X153032932Y-101984517D01*
X152995584Y-101932612D01*
X152945700Y-101889052D01*
X152893048Y-101862284D01*
X152890900Y-101861647D01*
X152865409Y-101858240D01*
X152817046Y-101855358D01*
X152749584Y-101853001D01*
X152666799Y-101851167D01*
X152572465Y-101849857D01*
X152470358Y-101849069D01*
X152364252Y-101848802D01*
X152257921Y-101849057D01*
G37*
X152257921Y-101849057D02*
X152155141Y-101849831D01*
X152059686Y-101851125D01*
X151975331Y-101852937D01*
X151905851Y-101855268D01*
X151855020Y-101858115D01*
X151826614Y-101861479D01*
X151825117Y-101861854D01*
X151776692Y-101885792D01*
X151729232Y-101926306D01*
X151691983Y-101974639D01*
X151679936Y-101999372D01*
X151677668Y-102018611D01*
X151675587Y-102062380D01*
X151673695Y-102128558D01*
X151671992Y-102215025D01*
X151670476Y-102319660D01*
X151669149Y-102440342D01*
X151668009Y-102574951D01*
X151667058Y-102721365D01*
X151666295Y-102877464D01*
X151665720Y-103041128D01*
X151665334Y-103210235D01*
X151665135Y-103382664D01*
X151665124Y-103556296D01*
X151665301Y-103729008D01*
X151665666Y-103898681D01*
X151666219Y-104063194D01*
X151666960Y-104220426D01*
X151667889Y-104368256D01*
X151669006Y-104504563D01*
X151670311Y-104627227D01*
X151671803Y-104734127D01*
X151673484Y-104823142D01*
X151675352Y-104892152D01*
X151677408Y-104939035D01*
X151679652Y-104961671D01*
X151679966Y-104962747D01*
X151710828Y-105015432D01*
X151757670Y-105063290D01*
X151808622Y-105095188D01*
X151825421Y-105100113D01*
X151852126Y-105104126D01*
X151891110Y-105107306D01*
X151944747Y-105109732D01*
X152015409Y-105111481D01*
X152105469Y-105112633D01*
X152217301Y-105113264D01*
X152353277Y-105113455D01*
X152361665Y-105113454D01*
X152494859Y-105113304D01*
X152603995Y-105112833D01*
X152691668Y-105111945D01*
X152760474Y-105110540D01*
X152813006Y-105108520D01*
X152851860Y-105105787D01*
X152879630Y-105102241D01*
X152898910Y-105097786D01*
X152911805Y-105092579D01*
X152976508Y-105047898D01*
X153024673Y-104992068D01*
X153033008Y-104977603D01*
X153036210Y-104958223D01*
X153039146Y-104914304D01*
X153041818Y-104847958D01*
X153044226Y-104761296D01*
X153046369Y-104656428D01*
X153048247Y-104535466D01*
X153049861Y-104400521D01*
X153051210Y-104253704D01*
X153052296Y-104097125D01*
X153053117Y-103932896D01*
X153053673Y-103763128D01*
X153053966Y-103589932D01*
X153053994Y-103415419D01*
X153053759Y-103241699D01*
X153053259Y-103070884D01*
X153052495Y-102905085D01*
X153051468Y-102746413D01*
X153050176Y-102596979D01*
X153048621Y-102458893D01*
X153046802Y-102334268D01*
X153044720Y-102225213D01*
X153042373Y-102133841D01*
X153042176Y-102128436D01*
X152745226Y-102128436D01*
X152745226Y-104833683D01*
X151972298Y-104833683D01*
X151972298Y-102128436D01*
X152745226Y-102128436D01*
X153042176Y-102128436D01*
X153039763Y-102062261D01*
X153036890Y-102012586D01*
X153033753Y-101986925D01*
X153032932Y-101984517D01*
X152995584Y-101932612D01*
X152945700Y-101889052D01*
X152893048Y-101862284D01*
X152890900Y-101861647D01*
X152865409Y-101858240D01*
X152817046Y-101855358D01*
X152749584Y-101853001D01*
X152666799Y-101851167D01*
X152572465Y-101849857D01*
X152470358Y-101849069D01*
X152364252Y-101848802D01*
X152257921Y-101849057D01*
G36*
X150596354Y-101848658D02*
G01*
X150463247Y-101848987D01*
X150341356Y-101849904D01*
X150233192Y-101851353D01*
X150141266Y-101853281D01*
X150068092Y-101855632D01*
X150016180Y-101858353D01*
X149988043Y-101861390D01*
X149986083Y-101861854D01*
X149937657Y-101885792D01*
X149890198Y-101926306D01*
X149852948Y-101974639D01*
X149840901Y-101999372D01*
X149837198Y-102023180D01*
X149834043Y-102073268D01*
X149831444Y-102149271D01*
X149829409Y-102250823D01*
X149827945Y-102377557D01*
X149827059Y-102529107D01*
X149826758Y-102705107D01*
X149826758Y-103376920D01*
X149857644Y-103435326D01*
X149891837Y-103483702D01*
X149940223Y-103519991D01*
X149953889Y-103527375D01*
X149986667Y-103542745D01*
X150017949Y-103552613D01*
X150055069Y-103558158D01*
X150105359Y-103560562D01*
X150162847Y-103561018D01*
X150221105Y-103561342D01*
X150268010Y-103562221D01*
X150298124Y-103563513D01*
X150306476Y-103564770D01*
X150302236Y-103579722D01*
X150290651Y-103614606D01*
X150273498Y-103664311D01*
X150252557Y-103723727D01*
X150229606Y-103787745D01*
X150212692Y-103834208D01*
X150161219Y-103976171D01*
X150112712Y-104112985D01*
X150080034Y-104207345D01*
X150061818Y-104259199D01*
X150039261Y-104321449D01*
X150019756Y-104373924D01*
X149997841Y-104433222D01*
X149975740Y-104495026D01*
X149960084Y-104540504D01*
X149946897Y-104579096D01*
X149926689Y-104637091D01*
X149901470Y-104708812D01*
X149873249Y-104788586D01*
X149844036Y-104870738D01*
X149815840Y-104949593D01*
X149790672Y-105019478D01*
X149781723Y-105044141D01*
X149770067Y-105081088D01*
X149769688Y-105100461D01*
X149778031Y-105107917D01*
X149797753Y-105110263D01*
X149837842Y-105111515D01*
X149892032Y-105111565D01*
X149940888Y-105110681D01*
X150086621Y-105106873D01*
X150108717Y-105040241D01*
X150118860Y-105010443D01*
X150136516Y-104959431D01*
X150160317Y-104891122D01*
X150188894Y-104809431D01*
X150220881Y-104718275D01*
X150254909Y-104621570D01*
X150259996Y-104607135D01*
X150294342Y-104509519D01*
X150326955Y-104416488D01*
X150356441Y-104332043D01*
X150381407Y-104260186D01*
X150400460Y-104204917D01*
X150412205Y-104170237D01*
X150413150Y-104167366D01*
X150424833Y-104132622D01*
X150443668Y-104077769D01*
X150467915Y-104007823D01*
X150495832Y-103927800D01*
X150525679Y-103842716D01*
X150533366Y-103820881D01*
X150574821Y-103702947D01*
X150608043Y-103607430D01*
X150633754Y-103531644D01*
X150652677Y-103472905D01*
X150665535Y-103428527D01*
X150673052Y-103395824D01*
X150675949Y-103372111D01*
X150674950Y-103354703D01*
X150670778Y-103340913D01*
X150665424Y-103330295D01*
X150645351Y-103294491D01*
X150139927Y-103281165D01*
X150136453Y-102704801D01*
X150132980Y-102128436D01*
X150852770Y-102128436D01*
X150856160Y-103617655D01*
X150859549Y-105106873D01*
X151159391Y-105114409D01*
X151159391Y-101848583D01*
X150596354Y-101848658D01*
G37*
X150596354Y-101848658D02*
X150463247Y-101848987D01*
X150341356Y-101849904D01*
X150233192Y-101851353D01*
X150141266Y-101853281D01*
X150068092Y-101855632D01*
X150016180Y-101858353D01*
X149988043Y-101861390D01*
X149986083Y-101861854D01*
X149937657Y-101885792D01*
X149890198Y-101926306D01*
X149852948Y-101974639D01*
X149840901Y-101999372D01*
X149837198Y-102023180D01*
X149834043Y-102073268D01*
X149831444Y-102149271D01*
X149829409Y-102250823D01*
X149827945Y-102377557D01*
X149827059Y-102529107D01*
X149826758Y-102705107D01*
X149826758Y-103376920D01*
X149857644Y-103435326D01*
X149891837Y-103483702D01*
X149940223Y-103519991D01*
X149953889Y-103527375D01*
X149986667Y-103542745D01*
X150017949Y-103552613D01*
X150055069Y-103558158D01*
X150105359Y-103560562D01*
X150162847Y-103561018D01*
X150221105Y-103561342D01*
X150268010Y-103562221D01*
X150298124Y-103563513D01*
X150306476Y-103564770D01*
X150302236Y-103579722D01*
X150290651Y-103614606D01*
X150273498Y-103664311D01*
X150252557Y-103723727D01*
X150229606Y-103787745D01*
X150212692Y-103834208D01*
X150161219Y-103976171D01*
X150112712Y-104112985D01*
X150080034Y-104207345D01*
X150061818Y-104259199D01*
X150039261Y-104321449D01*
X150019756Y-104373924D01*
X149997841Y-104433222D01*
X149975740Y-104495026D01*
X149960084Y-104540504D01*
X149946897Y-104579096D01*
X149926689Y-104637091D01*
X149901470Y-104708812D01*
X149873249Y-104788586D01*
X149844036Y-104870738D01*
X149815840Y-104949593D01*
X149790672Y-105019478D01*
X149781723Y-105044141D01*
X149770067Y-105081088D01*
X149769688Y-105100461D01*
X149778031Y-105107917D01*
X149797753Y-105110263D01*
X149837842Y-105111515D01*
X149892032Y-105111565D01*
X149940888Y-105110681D01*
X150086621Y-105106873D01*
X150108717Y-105040241D01*
X150118860Y-105010443D01*
X150136516Y-104959431D01*
X150160317Y-104891122D01*
X150188894Y-104809431D01*
X150220881Y-104718275D01*
X150254909Y-104621570D01*
X150259996Y-104607135D01*
X150294342Y-104509519D01*
X150326955Y-104416488D01*
X150356441Y-104332043D01*
X150381407Y-104260186D01*
X150400460Y-104204917D01*
X150412205Y-104170237D01*
X150413150Y-104167366D01*
X150424833Y-104132622D01*
X150443668Y-104077769D01*
X150467915Y-104007823D01*
X150495832Y-103927800D01*
X150525679Y-103842716D01*
X150533366Y-103820881D01*
X150574821Y-103702947D01*
X150608043Y-103607430D01*
X150633754Y-103531644D01*
X150652677Y-103472905D01*
X150665535Y-103428527D01*
X150673052Y-103395824D01*
X150675949Y-103372111D01*
X150674950Y-103354703D01*
X150670778Y-103340913D01*
X150665424Y-103330295D01*
X150645351Y-103294491D01*
X150139927Y-103281165D01*
X150136453Y-102704801D01*
X150132980Y-102128436D01*
X150852770Y-102128436D01*
X150856160Y-103617655D01*
X150859549Y-105106873D01*
X151159391Y-105114409D01*
X151159391Y-101848583D01*
X150596354Y-101848658D01*
G36*
X147756859Y-101849270D02*
G01*
X147656320Y-101849668D01*
X147576557Y-101850504D01*
X147514634Y-101851919D01*
X147467611Y-101854054D01*
X147432552Y-101857050D01*
X147406519Y-101861048D01*
X147386573Y-101866189D01*
X147369777Y-101872614D01*
X147367001Y-101873855D01*
X147302700Y-101916523D01*
X147258401Y-101976759D01*
X147241287Y-102022424D01*
X147237372Y-102051295D01*
X147234295Y-102104002D01*
X147232122Y-102177742D01*
X147230917Y-102269710D01*
X147230745Y-102377100D01*
X147231247Y-102457122D01*
X147234785Y-102841396D01*
X147541291Y-102841396D01*
X147548389Y-102128436D01*
X148227597Y-102128436D01*
X148227155Y-102458263D01*
X148226712Y-102788090D01*
X147993009Y-103067640D01*
X147928460Y-103144818D01*
X147866842Y-103218426D01*
X147811030Y-103285039D01*
X147763895Y-103341228D01*
X147728310Y-103383567D01*
X147708140Y-103407462D01*
X147600427Y-103535163D01*
X147506050Y-103648753D01*
X147425783Y-103747256D01*
X147360400Y-103829699D01*
X147310676Y-103895108D01*
X147277387Y-103942508D01*
X147262794Y-103967471D01*
X147255023Y-103985450D01*
X147248787Y-104004608D01*
X147243882Y-104028059D01*
X147240104Y-104058918D01*
X147237250Y-104100297D01*
X147235116Y-104155313D01*
X147233497Y-104227078D01*
X147232191Y-104318707D01*
X147230992Y-104433315D01*
X147230773Y-104456594D01*
X147230003Y-104591076D01*
X147230357Y-104706213D01*
X147231803Y-104800445D01*
X147234308Y-104872217D01*
X147237840Y-104919970D01*
X147240813Y-104937934D01*
X147272305Y-105009396D01*
X147324217Y-105063896D01*
X147362114Y-105087255D01*
X147377156Y-105094236D01*
X147393989Y-105099862D01*
X147415501Y-105104275D01*
X147444579Y-105107623D01*
X147484111Y-105110050D01*
X147536982Y-105111700D01*
X147606081Y-105112719D01*
X147694294Y-105113252D01*
X147804508Y-105113443D01*
X147883913Y-105113454D01*
X148011599Y-105113286D01*
X148115348Y-105112755D01*
X148197874Y-105111751D01*
X148261893Y-105110164D01*
X148310117Y-105107881D01*
X148345263Y-105104792D01*
X148370045Y-105100786D01*
X148387176Y-105095751D01*
X148394176Y-105092579D01*
X148457563Y-105048838D01*
X148500368Y-104992323D01*
X148514130Y-104961607D01*
X148519951Y-104942586D01*
X148524513Y-104917824D01*
X148527919Y-104884363D01*
X148530270Y-104839246D01*
X148531671Y-104779514D01*
X148532224Y-104702209D01*
X148532033Y-104604374D01*
X148531200Y-104483051D01*
X148531123Y-104473872D01*
X148527440Y-104040766D01*
X148377518Y-104036998D01*
X148227597Y-104033230D01*
X148227597Y-104833683D01*
X147547954Y-104833683D01*
X147547954Y-104450415D01*
X147548003Y-104339367D01*
X147548302Y-104251851D01*
X147549074Y-104184744D01*
X147550546Y-104134925D01*
X147552943Y-104099271D01*
X147556490Y-104074661D01*
X147561412Y-104057973D01*
X147567935Y-104046086D01*
X147576284Y-104035877D01*
X147578007Y-104033967D01*
X147596523Y-104012629D01*
X147629834Y-103973314D01*
X147675788Y-103918615D01*
X147732233Y-103851128D01*
X147797017Y-103773447D01*
X147867990Y-103688166D01*
X147943000Y-103597880D01*
X148019895Y-103505183D01*
X148096523Y-103412669D01*
X148170734Y-103322934D01*
X148240376Y-103238570D01*
X148303296Y-103162173D01*
X148357344Y-103096338D01*
X148400369Y-103043658D01*
X148430217Y-103006729D01*
X148437859Y-102997109D01*
X148464104Y-102962214D01*
X148485111Y-102929067D01*
X148501451Y-102894234D01*
X148513699Y-102854275D01*
X148522424Y-102805755D01*
X148528200Y-102745235D01*
X148531599Y-102669280D01*
X148533194Y-102574450D01*
X148533556Y-102457310D01*
X148533518Y-102422529D01*
X148532893Y-102295011D01*
X148530972Y-102191238D01*
X148527019Y-102108306D01*
X148520298Y-102043311D01*
X148510070Y-101993353D01*
X148495600Y-101955526D01*
X148476150Y-101926930D01*
X148450983Y-101904660D01*
X148419362Y-101885814D01*
X148394176Y-101873647D01*
X148377850Y-101867040D01*
X148358720Y-101861732D01*
X148333858Y-101857581D01*
X148300334Y-101854449D01*
X148255219Y-101852195D01*
X148195583Y-101850680D01*
X148118498Y-101849764D01*
X148021034Y-101849308D01*
X147900261Y-101849170D01*
X147881112Y-101849169D01*
X147756859Y-101849270D01*
G37*
X147756859Y-101849270D02*
X147656320Y-101849668D01*
X147576557Y-101850504D01*
X147514634Y-101851919D01*
X147467611Y-101854054D01*
X147432552Y-101857050D01*
X147406519Y-101861048D01*
X147386573Y-101866189D01*
X147369777Y-101872614D01*
X147367001Y-101873855D01*
X147302700Y-101916523D01*
X147258401Y-101976759D01*
X147241287Y-102022424D01*
X147237372Y-102051295D01*
X147234295Y-102104002D01*
X147232122Y-102177742D01*
X147230917Y-102269710D01*
X147230745Y-102377100D01*
X147231247Y-102457122D01*
X147234785Y-102841396D01*
X147541291Y-102841396D01*
X147548389Y-102128436D01*
X148227597Y-102128436D01*
X148227155Y-102458263D01*
X148226712Y-102788090D01*
X147993009Y-103067640D01*
X147928460Y-103144818D01*
X147866842Y-103218426D01*
X147811030Y-103285039D01*
X147763895Y-103341228D01*
X147728310Y-103383567D01*
X147708140Y-103407462D01*
X147600427Y-103535163D01*
X147506050Y-103648753D01*
X147425783Y-103747256D01*
X147360400Y-103829699D01*
X147310676Y-103895108D01*
X147277387Y-103942508D01*
X147262794Y-103967471D01*
X147255023Y-103985450D01*
X147248787Y-104004608D01*
X147243882Y-104028059D01*
X147240104Y-104058918D01*
X147237250Y-104100297D01*
X147235116Y-104155313D01*
X147233497Y-104227078D01*
X147232191Y-104318707D01*
X147230992Y-104433315D01*
X147230773Y-104456594D01*
X147230003Y-104591076D01*
X147230357Y-104706213D01*
X147231803Y-104800445D01*
X147234308Y-104872217D01*
X147237840Y-104919970D01*
X147240813Y-104937934D01*
X147272305Y-105009396D01*
X147324217Y-105063896D01*
X147362114Y-105087255D01*
X147377156Y-105094236D01*
X147393989Y-105099862D01*
X147415501Y-105104275D01*
X147444579Y-105107623D01*
X147484111Y-105110050D01*
X147536982Y-105111700D01*
X147606081Y-105112719D01*
X147694294Y-105113252D01*
X147804508Y-105113443D01*
X147883913Y-105113454D01*
X148011599Y-105113286D01*
X148115348Y-105112755D01*
X148197874Y-105111751D01*
X148261893Y-105110164D01*
X148310117Y-105107881D01*
X148345263Y-105104792D01*
X148370045Y-105100786D01*
X148387176Y-105095751D01*
X148394176Y-105092579D01*
X148457563Y-105048838D01*
X148500368Y-104992323D01*
X148514130Y-104961607D01*
X148519951Y-104942586D01*
X148524513Y-104917824D01*
X148527919Y-104884363D01*
X148530270Y-104839246D01*
X148531671Y-104779514D01*
X148532224Y-104702209D01*
X148532033Y-104604374D01*
X148531200Y-104483051D01*
X148531123Y-104473872D01*
X148527440Y-104040766D01*
X148377518Y-104036998D01*
X148227597Y-104033230D01*
X148227597Y-104833683D01*
X147547954Y-104833683D01*
X147547954Y-104450415D01*
X147548003Y-104339367D01*
X147548302Y-104251851D01*
X147549074Y-104184744D01*
X147550546Y-104134925D01*
X147552943Y-104099271D01*
X147556490Y-104074661D01*
X147561412Y-104057973D01*
X147567935Y-104046086D01*
X147576284Y-104035877D01*
X147578007Y-104033967D01*
X147596523Y-104012629D01*
X147629834Y-103973314D01*
X147675788Y-103918615D01*
X147732233Y-103851128D01*
X147797017Y-103773447D01*
X147867990Y-103688166D01*
X147943000Y-103597880D01*
X148019895Y-103505183D01*
X148096523Y-103412669D01*
X148170734Y-103322934D01*
X148240376Y-103238570D01*
X148303296Y-103162173D01*
X148357344Y-103096338D01*
X148400369Y-103043658D01*
X148430217Y-103006729D01*
X148437859Y-102997109D01*
X148464104Y-102962214D01*
X148485111Y-102929067D01*
X148501451Y-102894234D01*
X148513699Y-102854275D01*
X148522424Y-102805755D01*
X148528200Y-102745235D01*
X148531599Y-102669280D01*
X148533194Y-102574450D01*
X148533556Y-102457310D01*
X148533518Y-102422529D01*
X148532893Y-102295011D01*
X148530972Y-102191238D01*
X148527019Y-102108306D01*
X148520298Y-102043311D01*
X148510070Y-101993353D01*
X148495600Y-101955526D01*
X148476150Y-101926930D01*
X148450983Y-101904660D01*
X148419362Y-101885814D01*
X148394176Y-101873647D01*
X148377850Y-101867040D01*
X148358720Y-101861732D01*
X148333858Y-101857581D01*
X148300334Y-101854449D01*
X148255219Y-101852195D01*
X148195583Y-101850680D01*
X148118498Y-101849764D01*
X148021034Y-101849308D01*
X147900261Y-101849170D01*
X147881112Y-101849169D01*
X147756859Y-101849270D01*
G36*
X146023694Y-101855266D02*
G01*
X145902893Y-101855537D01*
X145803804Y-101856384D01*
X145723958Y-101858127D01*
X145660885Y-101861089D01*
X145612114Y-101865591D01*
X145575176Y-101871956D01*
X145547600Y-101880505D01*
X145526917Y-101891561D01*
X145510657Y-101905445D01*
X145496350Y-101922479D01*
X145481525Y-101942985D01*
X145480091Y-101944998D01*
X145449056Y-101988510D01*
X145445437Y-102829004D01*
X145441819Y-103669499D01*
X145472407Y-103714889D01*
X145505150Y-103753759D01*
X145544142Y-103787923D01*
X145547960Y-103790580D01*
X145561127Y-103799027D01*
X145574819Y-103805738D01*
X145592086Y-103810912D01*
X145615978Y-103814749D01*
X145649545Y-103817449D01*
X145695836Y-103819211D01*
X145757904Y-103820236D01*
X145838796Y-103820723D01*
X145941565Y-103820871D01*
X146010605Y-103820881D01*
X146428286Y-103820881D01*
X146431745Y-104463877D01*
X146435205Y-105106873D01*
X146585376Y-105110643D01*
X146655584Y-105111566D01*
X146702720Y-105109972D01*
X146730275Y-105105566D01*
X146741736Y-105098051D01*
X146742058Y-105097317D01*
X146742858Y-105082055D01*
X146743575Y-105041786D01*
X146744205Y-104978153D01*
X146744744Y-104892804D01*
X146745191Y-104787381D01*
X146745541Y-104663530D01*
X146745791Y-104522897D01*
X146745939Y-104367126D01*
X146745982Y-104197861D01*
X146745915Y-104016749D01*
X146745737Y-103825433D01*
X146745444Y-103625560D01*
X146745139Y-103467733D01*
X146742291Y-102128436D01*
X146428542Y-102128436D01*
X146428542Y-103541028D01*
X145748898Y-103541028D01*
X145748898Y-102128436D01*
X146428542Y-102128436D01*
X146742291Y-102128436D01*
X146741710Y-101855247D01*
X146168678Y-101855247D01*
X146023694Y-101855266D01*
G37*
X146023694Y-101855266D02*
X145902893Y-101855537D01*
X145803804Y-101856384D01*
X145723958Y-101858127D01*
X145660885Y-101861089D01*
X145612114Y-101865591D01*
X145575176Y-101871956D01*
X145547600Y-101880505D01*
X145526917Y-101891561D01*
X145510657Y-101905445D01*
X145496350Y-101922479D01*
X145481525Y-101942985D01*
X145480091Y-101944998D01*
X145449056Y-101988510D01*
X145445437Y-102829004D01*
X145441819Y-103669499D01*
X145472407Y-103714889D01*
X145505150Y-103753759D01*
X145544142Y-103787923D01*
X145547960Y-103790580D01*
X145561127Y-103799027D01*
X145574819Y-103805738D01*
X145592086Y-103810912D01*
X145615978Y-103814749D01*
X145649545Y-103817449D01*
X145695836Y-103819211D01*
X145757904Y-103820236D01*
X145838796Y-103820723D01*
X145941565Y-103820871D01*
X146010605Y-103820881D01*
X146428286Y-103820881D01*
X146431745Y-104463877D01*
X146435205Y-105106873D01*
X146585376Y-105110643D01*
X146655584Y-105111566D01*
X146702720Y-105109972D01*
X146730275Y-105105566D01*
X146741736Y-105098051D01*
X146742058Y-105097317D01*
X146742858Y-105082055D01*
X146743575Y-105041786D01*
X146744205Y-104978153D01*
X146744744Y-104892804D01*
X146745191Y-104787381D01*
X146745541Y-104663530D01*
X146745791Y-104522897D01*
X146745939Y-104367126D01*
X146745982Y-104197861D01*
X146745915Y-104016749D01*
X146745737Y-103825433D01*
X146745444Y-103625560D01*
X146745139Y-103467733D01*
X146742291Y-102128436D01*
X146428542Y-102128436D01*
X146428542Y-103541028D01*
X145748898Y-103541028D01*
X145748898Y-102128436D01*
X146428542Y-102128436D01*
X146742291Y-102128436D01*
X146741710Y-101855247D01*
X146168678Y-101855247D01*
X146023694Y-101855266D01*
G36*
X144293777Y-101837621D02*
G01*
X144263961Y-101846518D01*
X144244673Y-101865838D01*
X144231856Y-101899543D01*
X144221451Y-101951592D01*
X144210075Y-102021826D01*
X144199540Y-102084991D01*
X144185953Y-102164396D01*
X144171039Y-102250062D01*
X144156522Y-102332007D01*
X144155987Y-102334995D01*
X144140747Y-102420388D01*
X144124231Y-102513536D01*
X144108468Y-102602966D01*
X144095901Y-102674816D01*
X144082566Y-102751203D01*
X144066668Y-102841794D01*
X144050321Y-102934558D01*
X144037327Y-103007975D01*
X144022694Y-103090513D01*
X144008025Y-103173449D01*
X143992512Y-103261378D01*
X143975345Y-103358899D01*
X143955714Y-103470607D01*
X143932810Y-103601099D01*
X143916466Y-103694281D01*
X143900403Y-103785713D01*
X143882324Y-103888360D01*
X143864404Y-103989883D01*
X143848819Y-104077942D01*
X143848322Y-104080745D01*
X143824199Y-104216885D01*
X143803942Y-104331505D01*
X143786727Y-104429321D01*
X143771725Y-104515049D01*
X143758111Y-104593407D01*
X143745059Y-104669110D01*
X143737405Y-104713746D01*
X143724328Y-104788662D01*
X143710626Y-104864691D01*
X143698046Y-104932257D01*
X143689441Y-104976379D01*
X143677474Y-105034368D01*
X143671893Y-105073273D01*
X143676384Y-105096874D01*
X143694635Y-105108952D01*
X143730335Y-105113286D01*
X143787170Y-105113656D01*
X143823242Y-105113536D01*
X143883655Y-105113265D01*
X143932956Y-105112529D01*
X143965857Y-105111442D01*
X143977105Y-105110205D01*
X143980918Y-105087302D01*
X143987953Y-105043209D01*
X143997407Y-104983083D01*
X144008482Y-104912083D01*
X144020375Y-104835364D01*
X144032287Y-104758086D01*
X144043417Y-104685404D01*
X144052964Y-104622478D01*
X144057231Y-104594021D01*
X144067775Y-104527457D01*
X144077978Y-104470450D01*
X144086827Y-104428169D01*
X144093310Y-104405783D01*
X144094478Y-104403864D01*
X144110270Y-104401020D01*
X144148807Y-104398782D01*
X144206186Y-104397235D01*
X144278505Y-104396465D01*
X144361859Y-104396557D01*
X144409639Y-104396989D01*
X144714338Y-104400577D01*
X144731771Y-104500525D01*
X144741880Y-104560493D01*
X144753776Y-104634060D01*
X144765405Y-104708448D01*
X144769247Y-104733736D01*
X144781023Y-104809686D01*
X144794624Y-104893869D01*
X144807596Y-104971181D01*
X144810909Y-104990268D01*
X144832528Y-105113536D01*
X144977544Y-105113536D01*
X145041139Y-105113347D01*
X145082745Y-105112094D01*
X145107028Y-105108750D01*
X145118651Y-105102289D01*
X145122279Y-105091681D01*
X145122560Y-105081595D01*
X145120032Y-105056434D01*
X145112469Y-105005306D01*
X145099906Y-104928412D01*
X145082378Y-104825949D01*
X145059920Y-104698118D01*
X145032566Y-104545118D01*
X145000351Y-104367148D01*
X144963309Y-104164409D01*
X144961407Y-104154040D01*
X144954150Y-104114061D01*
X144671808Y-104114061D01*
X144133495Y-104114061D01*
X144139888Y-104070750D01*
X144153327Y-103980909D01*
X144166790Y-103893074D01*
X144179598Y-103811473D01*
X144191072Y-103740329D01*
X144200534Y-103683871D01*
X144207303Y-103646322D01*
X144210240Y-103632994D01*
X144214675Y-103612269D01*
X144222029Y-103570904D01*
X144231331Y-103514630D01*
X144241607Y-103449173D01*
X144243044Y-103439762D01*
X144255281Y-103360212D01*
X144270069Y-103265421D01*
X144285672Y-103166455D01*
X144300352Y-103074379D01*
X144302458Y-103061280D01*
X144316831Y-102972001D01*
X144332478Y-102874791D01*
X144347660Y-102780451D01*
X144360640Y-102699779D01*
X144362512Y-102688143D01*
X144372733Y-102623250D01*
X144381181Y-102567016D01*
X144387028Y-102525162D01*
X144389441Y-102503409D01*
X144389460Y-102502684D01*
X144394684Y-102491246D01*
X144399434Y-102493628D01*
X144405774Y-102509437D01*
X144414915Y-102547358D01*
X144426978Y-102608068D01*
X144442083Y-102692243D01*
X144460348Y-102800562D01*
X144481895Y-102933701D01*
X144506843Y-103092337D01*
X144516486Y-103154564D01*
X144527447Y-103223792D01*
X144540949Y-103306540D01*
X144554902Y-103390080D01*
X144562469Y-103434418D01*
X144574976Y-103508297D01*
X144590352Y-103601219D01*
X144607418Y-103705884D01*
X144624993Y-103814991D01*
X144641899Y-103921239D01*
X144656955Y-104017329D01*
X144663136Y-104057424D01*
X144671808Y-104114061D01*
X144954150Y-104114061D01*
X144947900Y-104079635D01*
X144932213Y-103992031D01*
X144916679Y-103904295D01*
X144907909Y-103854197D01*
X144876160Y-103672340D01*
X144846801Y-103505538D01*
X144817848Y-103342555D01*
X144796127Y-103221196D01*
X144780907Y-103136102D01*
X144764646Y-103044697D01*
X144749227Y-102957592D01*
X144736532Y-102885398D01*
X144735828Y-102881375D01*
X144723369Y-102810559D01*
X144708037Y-102724128D01*
X144691720Y-102632689D01*
X144676305Y-102546848D01*
X144675350Y-102541553D01*
X144659312Y-102452639D01*
X144641479Y-102353744D01*
X144624034Y-102256975D01*
X144609275Y-102175079D01*
X144595885Y-102101063D01*
X144582561Y-102027930D01*
X144570852Y-101964158D01*
X144562370Y-101918547D01*
X144546680Y-101835257D01*
X144401229Y-101835257D01*
X144338181Y-101835188D01*
X144293777Y-101837621D01*
G37*
X144293777Y-101837621D02*
X144263961Y-101846518D01*
X144244673Y-101865838D01*
X144231856Y-101899543D01*
X144221451Y-101951592D01*
X144210075Y-102021826D01*
X144199540Y-102084991D01*
X144185953Y-102164396D01*
X144171039Y-102250062D01*
X144156522Y-102332007D01*
X144155987Y-102334995D01*
X144140747Y-102420388D01*
X144124231Y-102513536D01*
X144108468Y-102602966D01*
X144095901Y-102674816D01*
X144082566Y-102751203D01*
X144066668Y-102841794D01*
X144050321Y-102934558D01*
X144037327Y-103007975D01*
X144022694Y-103090513D01*
X144008025Y-103173449D01*
X143992512Y-103261378D01*
X143975345Y-103358899D01*
X143955714Y-103470607D01*
X143932810Y-103601099D01*
X143916466Y-103694281D01*
X143900403Y-103785713D01*
X143882324Y-103888360D01*
X143864404Y-103989883D01*
X143848819Y-104077942D01*
X143848322Y-104080745D01*
X143824199Y-104216885D01*
X143803942Y-104331505D01*
X143786727Y-104429321D01*
X143771725Y-104515049D01*
X143758111Y-104593407D01*
X143745059Y-104669110D01*
X143737405Y-104713746D01*
X143724328Y-104788662D01*
X143710626Y-104864691D01*
X143698046Y-104932257D01*
X143689441Y-104976379D01*
X143677474Y-105034368D01*
X143671893Y-105073273D01*
X143676384Y-105096874D01*
X143694635Y-105108952D01*
X143730335Y-105113286D01*
X143787170Y-105113656D01*
X143823242Y-105113536D01*
X143883655Y-105113265D01*
X143932956Y-105112529D01*
X143965857Y-105111442D01*
X143977105Y-105110205D01*
X143980918Y-105087302D01*
X143987953Y-105043209D01*
X143997407Y-104983083D01*
X144008482Y-104912083D01*
X144020375Y-104835364D01*
X144032287Y-104758086D01*
X144043417Y-104685404D01*
X144052964Y-104622478D01*
X144057231Y-104594021D01*
X144067775Y-104527457D01*
X144077978Y-104470450D01*
X144086827Y-104428169D01*
X144093310Y-104405783D01*
X144094478Y-104403864D01*
X144110270Y-104401020D01*
X144148807Y-104398782D01*
X144206186Y-104397235D01*
X144278505Y-104396465D01*
X144361859Y-104396557D01*
X144409639Y-104396989D01*
X144714338Y-104400577D01*
X144731771Y-104500525D01*
X144741880Y-104560493D01*
X144753776Y-104634060D01*
X144765405Y-104708448D01*
X144769247Y-104733736D01*
X144781023Y-104809686D01*
X144794624Y-104893869D01*
X144807596Y-104971181D01*
X144810909Y-104990268D01*
X144832528Y-105113536D01*
X144977544Y-105113536D01*
X145041139Y-105113347D01*
X145082745Y-105112094D01*
X145107028Y-105108750D01*
X145118651Y-105102289D01*
X145122279Y-105091681D01*
X145122560Y-105081595D01*
X145120032Y-105056434D01*
X145112469Y-105005306D01*
X145099906Y-104928412D01*
X145082378Y-104825949D01*
X145059920Y-104698118D01*
X145032566Y-104545118D01*
X145000351Y-104367148D01*
X144963309Y-104164409D01*
X144961407Y-104154040D01*
X144954150Y-104114061D01*
X144671808Y-104114061D01*
X144133495Y-104114061D01*
X144139888Y-104070750D01*
X144153327Y-103980909D01*
X144166790Y-103893074D01*
X144179598Y-103811473D01*
X144191072Y-103740329D01*
X144200534Y-103683871D01*
X144207303Y-103646322D01*
X144210240Y-103632994D01*
X144214675Y-103612269D01*
X144222029Y-103570904D01*
X144231331Y-103514630D01*
X144241607Y-103449173D01*
X144243044Y-103439762D01*
X144255281Y-103360212D01*
X144270069Y-103265421D01*
X144285672Y-103166455D01*
X144300352Y-103074379D01*
X144302458Y-103061280D01*
X144316831Y-102972001D01*
X144332478Y-102874791D01*
X144347660Y-102780451D01*
X144360640Y-102699779D01*
X144362512Y-102688143D01*
X144372733Y-102623250D01*
X144381181Y-102567016D01*
X144387028Y-102525162D01*
X144389441Y-102503409D01*
X144389460Y-102502684D01*
X144394684Y-102491246D01*
X144399434Y-102493628D01*
X144405774Y-102509437D01*
X144414915Y-102547358D01*
X144426978Y-102608068D01*
X144442083Y-102692243D01*
X144460348Y-102800562D01*
X144481895Y-102933701D01*
X144506843Y-103092337D01*
X144516486Y-103154564D01*
X144527447Y-103223792D01*
X144540949Y-103306540D01*
X144554902Y-103390080D01*
X144562469Y-103434418D01*
X144574976Y-103508297D01*
X144590352Y-103601219D01*
X144607418Y-103705884D01*
X144624993Y-103814991D01*
X144641899Y-103921239D01*
X144656955Y-104017329D01*
X144663136Y-104057424D01*
X144671808Y-104114061D01*
X144954150Y-104114061D01*
X144947900Y-104079635D01*
X144932213Y-103992031D01*
X144916679Y-103904295D01*
X144907909Y-103854197D01*
X144876160Y-103672340D01*
X144846801Y-103505538D01*
X144817848Y-103342555D01*
X144796127Y-103221196D01*
X144780907Y-103136102D01*
X144764646Y-103044697D01*
X144749227Y-102957592D01*
X144736532Y-102885398D01*
X144735828Y-102881375D01*
X144723369Y-102810559D01*
X144708037Y-102724128D01*
X144691720Y-102632689D01*
X144676305Y-102546848D01*
X144675350Y-102541553D01*
X144659312Y-102452639D01*
X144641479Y-102353744D01*
X144624034Y-102256975D01*
X144609275Y-102175079D01*
X144595885Y-102101063D01*
X144582561Y-102027930D01*
X144570852Y-101964158D01*
X144562370Y-101918547D01*
X144546680Y-101835257D01*
X144401229Y-101835257D01*
X144338181Y-101835188D01*
X144293777Y-101837621D01*
G36*
X142346594Y-101850177D02*
G01*
X142280832Y-101851135D01*
X142230390Y-101852910D01*
X142192434Y-101855596D01*
X142164134Y-101859285D01*
X142142655Y-101864070D01*
X142128112Y-101868890D01*
X142062932Y-101907401D01*
X142014587Y-101964620D01*
X141991457Y-102018908D01*
X141987591Y-102046367D01*
X141984213Y-102097231D01*
X141981425Y-102168254D01*
X141979329Y-102256190D01*
X141978027Y-102357795D01*
X141977619Y-102458263D01*
X141977545Y-102848059D01*
X142284050Y-102848059D01*
X142284050Y-102128436D01*
X142990346Y-102128436D01*
X142990346Y-104834126D01*
X142290714Y-104827020D01*
X142287183Y-104430127D01*
X142283653Y-104033234D01*
X142133930Y-104037000D01*
X141984208Y-104040766D01*
X141984208Y-104493861D01*
X141984268Y-104622714D01*
X141984765Y-104727778D01*
X141986175Y-104811916D01*
X141988972Y-104877993D01*
X141993632Y-104928871D01*
X142000630Y-104967414D01*
X142010441Y-104996485D01*
X142023541Y-105018950D01*
X142040405Y-105037669D01*
X142061509Y-105055509D01*
X142079754Y-105069537D01*
X142128686Y-105106873D01*
X142622816Y-105109928D01*
X142757281Y-105110571D01*
X142867531Y-105110632D01*
X142955998Y-105110041D01*
X143025115Y-105108730D01*
X143077314Y-105106630D01*
X143115028Y-105103672D01*
X143140689Y-105099787D01*
X143156730Y-105094908D01*
X143156926Y-105094819D01*
X143223579Y-105050125D01*
X143275833Y-104984035D01*
X143280052Y-104976555D01*
X143283746Y-104968597D01*
X143287031Y-104958006D01*
X143289933Y-104943270D01*
X143292475Y-104922878D01*
X143294680Y-104895319D01*
X143296572Y-104859083D01*
X143298175Y-104812657D01*
X143299513Y-104754532D01*
X143300608Y-104683195D01*
X143301486Y-104597136D01*
X143302169Y-104494843D01*
X143302682Y-104374806D01*
X143303048Y-104235513D01*
X143303290Y-104075453D01*
X143303433Y-103893116D01*
X143303500Y-103686990D01*
X143303515Y-103481060D01*
X143303515Y-102028489D01*
X143270707Y-101971194D01*
X143240396Y-101929603D01*
X143203539Y-101893695D01*
X143190749Y-101884572D01*
X143177600Y-101876875D01*
X143163543Y-101870627D01*
X143145753Y-101865651D01*
X143121404Y-101861767D01*
X143087671Y-101858797D01*
X143041727Y-101856562D01*
X142980746Y-101854884D01*
X142901904Y-101853583D01*
X142802375Y-101852482D01*
X142679333Y-101851401D01*
X142664118Y-101851275D01*
X142535404Y-101850340D01*
X142430507Y-101849943D01*
X142346594Y-101850177D01*
G37*
X142346594Y-101850177D02*
X142280832Y-101851135D01*
X142230390Y-101852910D01*
X142192434Y-101855596D01*
X142164134Y-101859285D01*
X142142655Y-101864070D01*
X142128112Y-101868890D01*
X142062932Y-101907401D01*
X142014587Y-101964620D01*
X141991457Y-102018908D01*
X141987591Y-102046367D01*
X141984213Y-102097231D01*
X141981425Y-102168254D01*
X141979329Y-102256190D01*
X141978027Y-102357795D01*
X141977619Y-102458263D01*
X141977545Y-102848059D01*
X142284050Y-102848059D01*
X142284050Y-102128436D01*
X142990346Y-102128436D01*
X142990346Y-104834126D01*
X142290714Y-104827020D01*
X142287183Y-104430127D01*
X142283653Y-104033234D01*
X142133930Y-104037000D01*
X141984208Y-104040766D01*
X141984208Y-104493861D01*
X141984268Y-104622714D01*
X141984765Y-104727778D01*
X141986175Y-104811916D01*
X141988972Y-104877993D01*
X141993632Y-104928871D01*
X142000630Y-104967414D01*
X142010441Y-104996485D01*
X142023541Y-105018950D01*
X142040405Y-105037669D01*
X142061509Y-105055509D01*
X142079754Y-105069537D01*
X142128686Y-105106873D01*
X142622816Y-105109928D01*
X142757281Y-105110571D01*
X142867531Y-105110632D01*
X142955998Y-105110041D01*
X143025115Y-105108730D01*
X143077314Y-105106630D01*
X143115028Y-105103672D01*
X143140689Y-105099787D01*
X143156730Y-105094908D01*
X143156926Y-105094819D01*
X143223579Y-105050125D01*
X143275833Y-104984035D01*
X143280052Y-104976555D01*
X143283746Y-104968597D01*
X143287031Y-104958006D01*
X143289933Y-104943270D01*
X143292475Y-104922878D01*
X143294680Y-104895319D01*
X143296572Y-104859083D01*
X143298175Y-104812657D01*
X143299513Y-104754532D01*
X143300608Y-104683195D01*
X143301486Y-104597136D01*
X143302169Y-104494843D01*
X143302682Y-104374806D01*
X143303048Y-104235513D01*
X143303290Y-104075453D01*
X143303433Y-103893116D01*
X143303500Y-103686990D01*
X143303515Y-103481060D01*
X143303515Y-102028489D01*
X143270707Y-101971194D01*
X143240396Y-101929603D01*
X143203539Y-101893695D01*
X143190749Y-101884572D01*
X143177600Y-101876875D01*
X143163543Y-101870627D01*
X143145753Y-101865651D01*
X143121404Y-101861767D01*
X143087671Y-101858797D01*
X143041727Y-101856562D01*
X142980746Y-101854884D01*
X142901904Y-101853583D01*
X142802375Y-101852482D01*
X142679333Y-101851401D01*
X142664118Y-101851275D01*
X142535404Y-101850340D01*
X142430507Y-101849943D01*
X142346594Y-101850177D01*
G36*
X140961411Y-101851764D02*
G01*
X140425026Y-101855247D01*
X140425026Y-102121773D01*
X140808297Y-102125309D01*
X141191568Y-102128846D01*
X141188098Y-102718331D01*
X141184628Y-103307817D01*
X140838143Y-103314481D01*
X140491658Y-103321144D01*
X140487707Y-103427710D01*
X140486741Y-103482304D01*
X140487783Y-103529700D01*
X140490600Y-103561007D01*
X140491292Y-103564305D01*
X140498829Y-103594334D01*
X141191291Y-103594334D01*
X141191291Y-104833280D01*
X140801495Y-104836813D01*
X140411700Y-104840346D01*
X140411700Y-105106873D01*
X140945715Y-105110354D01*
X141062509Y-105110895D01*
X141170928Y-105110975D01*
X141268091Y-105110622D01*
X141351116Y-105109867D01*
X141417119Y-105108738D01*
X141463220Y-105107265D01*
X141486535Y-105105478D01*
X141488763Y-105104801D01*
X141489908Y-105090583D01*
X141491011Y-105051341D01*
X141492063Y-104988703D01*
X141493055Y-104904297D01*
X141493977Y-104799752D01*
X141494822Y-104676696D01*
X141495580Y-104536757D01*
X141496242Y-104381563D01*
X141496798Y-104212744D01*
X141497241Y-104031927D01*
X141497560Y-103840740D01*
X141497748Y-103640813D01*
X141497797Y-103472024D01*
X141497797Y-101848281D01*
X140961411Y-101851764D01*
G37*
X140961411Y-101851764D02*
X140425026Y-101855247D01*
X140425026Y-102121773D01*
X140808297Y-102125309D01*
X141191568Y-102128846D01*
X141188098Y-102718331D01*
X141184628Y-103307817D01*
X140838143Y-103314481D01*
X140491658Y-103321144D01*
X140487707Y-103427710D01*
X140486741Y-103482304D01*
X140487783Y-103529700D01*
X140490600Y-103561007D01*
X140491292Y-103564305D01*
X140498829Y-103594334D01*
X141191291Y-103594334D01*
X141191291Y-104833280D01*
X140801495Y-104836813D01*
X140411700Y-104840346D01*
X140411700Y-105106873D01*
X140945715Y-105110354D01*
X141062509Y-105110895D01*
X141170928Y-105110975D01*
X141268091Y-105110622D01*
X141351116Y-105109867D01*
X141417119Y-105108738D01*
X141463220Y-105107265D01*
X141486535Y-105105478D01*
X141488763Y-105104801D01*
X141489908Y-105090583D01*
X141491011Y-105051341D01*
X141492063Y-104988703D01*
X141493055Y-104904297D01*
X141493977Y-104799752D01*
X141494822Y-104676696D01*
X141495580Y-104536757D01*
X141496242Y-104381563D01*
X141496798Y-104212744D01*
X141497241Y-104031927D01*
X141497560Y-103840740D01*
X141497748Y-103640813D01*
X141497797Y-103472024D01*
X141497797Y-101848281D01*
X140961411Y-101851764D01*
G36*
X143332479Y-108021671D02*
G01*
X143274027Y-108053831D01*
X143208519Y-108119148D01*
X143168787Y-108189748D01*
X143154184Y-108267389D01*
X143164067Y-108353830D01*
X143164089Y-108353923D01*
X143193916Y-108425211D01*
X143243287Y-108482562D01*
X143307838Y-108523824D01*
X143383208Y-108546847D01*
X143465035Y-108549477D01*
X143532166Y-108535469D01*
X143565210Y-108518242D01*
X143604758Y-108488591D01*
X143628923Y-108466218D01*
X143677331Y-108399851D01*
X143702387Y-108326690D01*
X143704927Y-108251134D01*
X143685790Y-108177578D01*
X143645814Y-108110417D01*
X143585835Y-108054048D01*
X143545749Y-108029809D01*
X143478164Y-108008354D01*
X143404001Y-108005913D01*
X143332479Y-108021671D01*
G37*
X143332479Y-108021671D02*
X143274027Y-108053831D01*
X143208519Y-108119148D01*
X143168787Y-108189748D01*
X143154184Y-108267389D01*
X143164067Y-108353830D01*
X143164089Y-108353923D01*
X143193916Y-108425211D01*
X143243287Y-108482562D01*
X143307838Y-108523824D01*
X143383208Y-108546847D01*
X143465035Y-108549477D01*
X143532166Y-108535469D01*
X143565210Y-108518242D01*
X143604758Y-108488591D01*
X143628923Y-108466218D01*
X143677331Y-108399851D01*
X143702387Y-108326690D01*
X143704927Y-108251134D01*
X143685790Y-108177578D01*
X143645814Y-108110417D01*
X143585835Y-108054048D01*
X143545749Y-108029809D01*
X143478164Y-108008354D01*
X143404001Y-108005913D01*
X143332479Y-108021671D01*
G36*
X142656869Y-107152617D02*
G01*
X142588294Y-107195445D01*
X142570072Y-107212228D01*
X142518789Y-107276526D01*
X142491510Y-107345597D01*
X142485878Y-107425915D01*
X142486866Y-107440704D01*
X142505461Y-107518271D01*
X142544672Y-107583915D01*
X142600219Y-107635227D01*
X142667823Y-107669802D01*
X142743203Y-107685233D01*
X142822081Y-107679112D01*
X142877624Y-107660470D01*
X142944472Y-107615889D01*
X142994752Y-107550668D01*
X143024493Y-107478075D01*
X143036117Y-107432548D01*
X143038627Y-107398149D01*
X143032073Y-107360980D01*
X143025031Y-107335703D01*
X142990397Y-107258656D01*
X142939320Y-107198662D01*
X142876114Y-107156889D01*
X142805094Y-107134510D01*
X142730574Y-107132696D01*
X142656869Y-107152617D01*
G37*
X142656869Y-107152617D02*
X142588294Y-107195445D01*
X142570072Y-107212228D01*
X142518789Y-107276526D01*
X142491510Y-107345597D01*
X142485878Y-107425915D01*
X142486866Y-107440704D01*
X142505461Y-107518271D01*
X142544672Y-107583915D01*
X142600219Y-107635227D01*
X142667823Y-107669802D01*
X142743203Y-107685233D01*
X142822081Y-107679112D01*
X142877624Y-107660470D01*
X142944472Y-107615889D01*
X142994752Y-107550668D01*
X143024493Y-107478075D01*
X143036117Y-107432548D01*
X143038627Y-107398149D01*
X143032073Y-107360980D01*
X143025031Y-107335703D01*
X142990397Y-107258656D01*
X142939320Y-107198662D01*
X142876114Y-107156889D01*
X142805094Y-107134510D01*
X142730574Y-107132696D01*
X142656869Y-107152617D01*
G36*
X143602963Y-106905181D02*
G01*
X143543353Y-106938436D01*
X143500451Y-106990879D01*
X143476883Y-107060073D01*
X143474159Y-107081510D01*
X143479581Y-107155509D01*
X143508892Y-107218370D01*
X143561243Y-107268286D01*
X143562018Y-107268806D01*
X143620216Y-107293463D01*
X143686826Y-107299885D01*
X143751527Y-107288061D01*
X143789933Y-107269071D01*
X143842442Y-107219046D01*
X143872910Y-107158928D01*
X143881398Y-107093518D01*
X143867970Y-107027618D01*
X143832687Y-106966027D01*
X143785432Y-106920554D01*
X143746841Y-106901401D01*
X143694088Y-106893873D01*
X143676653Y-106893554D01*
X143602963Y-106905181D01*
G37*
X143602963Y-106905181D02*
X143543353Y-106938436D01*
X143500451Y-106990879D01*
X143476883Y-107060073D01*
X143474159Y-107081510D01*
X143479581Y-107155509D01*
X143508892Y-107218370D01*
X143561243Y-107268286D01*
X143562018Y-107268806D01*
X143620216Y-107293463D01*
X143686826Y-107299885D01*
X143751527Y-107288061D01*
X143789933Y-107269071D01*
X143842442Y-107219046D01*
X143872910Y-107158928D01*
X143881398Y-107093518D01*
X143867970Y-107027618D01*
X143832687Y-106966027D01*
X143785432Y-106920554D01*
X143746841Y-106901401D01*
X143694088Y-106893873D01*
X143676653Y-106893554D01*
X143602963Y-106905181D01*
D12*
X132230000Y-110024000D02*
X132230000Y-110024000D01*
X132230000Y-99356000D02*
X132230000Y-110024000D01*
X131900000Y-110600000D02*
X131900000Y-110600000D01*
X131900000Y-95150000D02*
X131900000Y-110600000D01*
X161100000Y-95150000D02*
X131900000Y-95150000D01*
X161100000Y-110600000D02*
X161100000Y-95150000D01*
X131900000Y-110600000D02*
X161100000Y-110600000D01*
X132484000Y-107230000D02*
X132484000Y-107230000D01*
X134770000Y-107230000D02*
X132484000Y-107230000D01*
X134770000Y-109516000D02*
X134770000Y-107230000D01*
X132230000Y-99356000D02*
X132230000Y-99356000D01*
X137564000Y-99356000D02*
X132230000Y-99356000D01*
X137564000Y-110024000D02*
X137564000Y-99356000D01*
X132230000Y-110024000D02*
X137564000Y-110024000D01*
D13*
X131226190Y-101738095D02*
X130726190Y-101738095D01*
X131226190Y-102023809D01*
X130726190Y-102023809D01*
X131226190Y-102547619D02*
X130988095Y-102380952D01*
X131226190Y-102261904D02*
X130726190Y-102261904D01*
X130726190Y-102452380D01*
X130750000Y-102500000D01*
X130773809Y-102523809D01*
X130821428Y-102547619D01*
X130892857Y-102547619D01*
X130940476Y-102523809D01*
X130964285Y-102500000D01*
X130988095Y-102452380D01*
X130988095Y-102261904D01*
X130964285Y-102928571D02*
X130964285Y-102761904D01*
X131226190Y-102761904D02*
X130726190Y-102761904D01*
X130726190Y-103000000D01*
X130773809Y-103166666D02*
X130750000Y-103190476D01*
X130726190Y-103238095D01*
X130726190Y-103357142D01*
X130750000Y-103404761D01*
X130773809Y-103428571D01*
X130821428Y-103452380D01*
X130869047Y-103452380D01*
X130940476Y-103428571D01*
X131226190Y-103142857D01*
X131226190Y-103452380D01*
X130892857Y-103880952D02*
X131226190Y-103880952D01*
X130702380Y-103761904D02*
X131059523Y-103642857D01*
X131059523Y-103952380D01*
X131226190Y-104380952D02*
X131226190Y-104142857D01*
X130726190Y-104142857D01*
X130726190Y-104642857D02*
X130726190Y-104690476D01*
X130750000Y-104738095D01*
X130773809Y-104761904D01*
X130821428Y-104785714D01*
X130916666Y-104809523D01*
X131035714Y-104809523D01*
X131130952Y-104785714D01*
X131178571Y-104761904D01*
X131202380Y-104738095D01*
X131226190Y-104690476D01*
X131226190Y-104642857D01*
X131202380Y-104595238D01*
X131178571Y-104571428D01*
X131130952Y-104547619D01*
X131035714Y-104523809D01*
X130916666Y-104523809D01*
X130821428Y-104547619D01*
X130773809Y-104571428D01*
X130750000Y-104595238D01*
X130726190Y-104642857D01*
X131226190Y-105285714D02*
X131226190Y-105000000D01*
X131226190Y-105142857D02*
X130726190Y-105142857D01*
X130797619Y-105095238D01*
X130845238Y-105047619D01*
X130869047Y-105000000D01*
M02*
