M48
; DRILL file {KiCad 5.1.6} date Wed Jul  8 06:17:32 2020
; FORMAT={-:-/ absolute / inch / decimal}
; #@! TF.CreationDate,2020-07-08T06:17:32-04:00
; #@! TF.GenerationSoftware,Kicad,Pcbnew,5.1.6
; #@! TF.FileFunction,Plated,1,2,PTH
FMAT,2
INCH
T1C0.0157
T2C0.0300
T3C0.0315
T4C0.0315
T5C0.0354
T6C0.0394
%
G90
G05
T1
X5.2362Y-3.7402
T2
X5.2559Y-3.9717
X5.2559Y-4.0717
X5.2559Y-4.1717
X5.2559Y-4.2717
X5.3559Y-3.9717
X5.3559Y-4.0717
X5.3559Y-4.1717
X5.3559Y-4.2717
T3
X6.5268Y-3.7217
X6.5268Y-4.0217
T4
X5.3083Y-3.8142
X5.3083Y-4.4142
X5.4083Y-3.8142
X5.4083Y-4.4142
X5.5083Y-3.8142
X5.5083Y-4.4142
X5.6083Y-3.8142
X5.6083Y-4.4142
X5.6583Y-3.9142
X5.7083Y-3.8142
X5.7083Y-4.4142
X5.7583Y-3.9142
X5.8083Y-3.8142
X5.8083Y-4.4142
X5.9083Y-3.8142
X5.9083Y-4.4142
X6.0083Y-3.8142
X6.0083Y-4.4142
X6.0583Y-3.9142
X6.1083Y-3.8142
X6.1083Y-4.4142
X6.1583Y-3.9142
X6.2083Y-3.8142
X6.2083Y-4.4142
X6.3083Y-3.8142
X6.3083Y-4.4142
X6.4083Y-3.8142
X6.4083Y-3.9142
X6.4083Y-4.0142
X6.4083Y-4.1142
X6.4083Y-4.4142
T5
X6.6929Y-3.7795
X6.7929Y-3.7795
T6
X6.6717Y-4.0551
X6.6717Y-4.1551
X6.6717Y-4.2551
X6.6717Y-4.3551
X6.7717Y-4.0551
X6.7717Y-4.1551
X6.7717Y-4.2551
X6.7717Y-4.3551
T0
M30
