#define Battery_width 12
#define Battery_height 22
static unsigned char Battery_bits[] = {
   0xf0, 0x00, 0xf0, 0x00, 0xff, 0x0f, 0x01, 0x08, 0x01, 0x08, 0x01, 0x08,
   0x01, 0x08, 0x01, 0x08, 0x01, 0x08, 0x01, 0x08, 0x01, 0x08, 0x01, 0x08,
   0x01, 0x08, 0x01, 0x08, 0x01, 0x08, 0x01, 0x08, 0x01, 0x08, 0x01, 0x08,
   0x01, 0x08, 0x01, 0x08, 0x01, 0x08, 0xff, 0x0f };
