#define Robot_width 12
#define Robot_height 7
static unsigned char Robot_bits[] = {
   0xf8, 0x01, 0x08, 0x01, 0xfb, 0x0d, 0xfb, 0x0d, 0xff, 0x0f, 0xfb, 0x0d,
   0x03, 0x0c };
