#define Warning_width 12
#define Warning_height 12
static unsigned char Warning_bits[] = {
   0xf0, 0x00, 0x90, 0x00, 0x98, 0x01, 0x08, 0x01, 0x6c, 0x03, 0x64, 0x02,
   0x66, 0x06, 0x62, 0x04, 0x03, 0x0c, 0x61, 0x08, 0x01, 0x08, 0xff, 0x0f };
