#define Wifi3_width 14
#define Wifi3_height 11
static unsigned char Wifi3_bits[] = {
   0x00, 0x00, 0x00, 0x00, 0x00, 0x00, 0xe0, 0x01, 0x3c, 0x0f, 0x06, 0x18,
   0xe0, 0x01, 0x38, 0x07, 0x00, 0x00, 0xe0, 0x01, 0xc0, 0x00 };
