#define Wifi2_width 14
#define Wifi2_height 11
static unsigned char Wifi2_bits[] = {
   0x00, 0x00, 0x00, 0x00, 0x00, 0x00, 0x00, 0x00, 0x00, 0x00, 0x00, 0x00,
   0xe0, 0x01, 0x38, 0x07, 0x00, 0x00, 0xe0, 0x01, 0xc0, 0x00 };
