ISO-10303-21;
HEADER;
FILE_DESCRIPTION(('FreeCAD Model'),'2;1');
FILE_NAME('Open CASCADE Shape Model','2024-10-31T19:47:37',(''),(''),
  'Open CASCADE STEP processor 7.7','Ondsel','Unknown');
FILE_SCHEMA(('AUTOMOTIVE_DESIGN { 1 0 10303 214 1 1 1 1 }'));
ENDSEC;
DATA;
#1 = APPLICATION_PROTOCOL_DEFINITION('international standard',
  'automotive_design',2000,#2);
#2 = APPLICATION_CONTEXT(
  'core data for automotive mechanical design processes');
#3 = SHAPE_DEFINITION_REPRESENTATION(#4,#10);
#4 = PRODUCT_DEFINITION_SHAPE('','',#5);
#5 = PRODUCT_DEFINITION('design','',#6,#9);
#6 = PRODUCT_DEFINITION_FORMATION('','',#7);
#7 = PRODUCT('beater-bar','beater-bar','',(#8));
#8 = PRODUCT_CONTEXT('',#2,'mechanical');
#9 = PRODUCT_DEFINITION_CONTEXT('part definition',#2,'design');
#10 = ADVANCED_BREP_SHAPE_REPRESENTATION('',(#11,#15),#961);
#11 = AXIS2_PLACEMENT_3D('',#12,#13,#14);
#12 = CARTESIAN_POINT('',(0.,0.,0.));
#13 = DIRECTION('',(0.,0.,1.));
#14 = DIRECTION('',(1.,0.,-0.));
#15 = MANIFOLD_SOLID_BREP('',#16);
#16 = CLOSED_SHELL('',(#17,#90,#121,#211,#301,#318,#343,#368,#393,#443,
    #493,#510,#538,#550,#583,#600,#628,#640,#649,#669,#678,#703,#728,
    #753,#778,#803,#828,#853,#870,#895,#904,#913,#922,#931,#940,#949));
#17 = ADVANCED_FACE('',(#18,#52,#63,#74),#85,.F.);
#18 = FACE_BOUND('',#19,.F.);
#19 = EDGE_LOOP('',(#20,#30,#38,#46));
#20 = ORIENTED_EDGE('',*,*,#21,.T.);
#21 = EDGE_CURVE('',#22,#24,#26,.T.);
#22 = VERTEX_POINT('',#23);
#23 = CARTESIAN_POINT('',(-2.25,0.558058261758,0.));
#24 = VERTEX_POINT('',#25);
#25 = CARTESIAN_POINT('',(-2.25,0.558058261758,0.75));
#26 = LINE('',#27,#28);
#27 = CARTESIAN_POINT('',(-2.25,0.558058261758,0.));
#28 = VECTOR('',#29,3.937007874016E-02);
#29 = DIRECTION('',(0.,0.,1.));
#30 = ORIENTED_EDGE('',*,*,#31,.T.);
#31 = EDGE_CURVE('',#24,#32,#34,.T.);
#32 = VERTEX_POINT('',#33);
#33 = CARTESIAN_POINT('',(-2.25,-0.558058261758,0.75));
#34 = LINE('',#35,#36);
#35 = CARTESIAN_POINT('',(-2.25,0.558058261758,0.75));
#36 = VECTOR('',#37,3.937007874016E-02);
#37 = DIRECTION('',(0.,-1.,0.));
#38 = ORIENTED_EDGE('',*,*,#39,.F.);
#39 = EDGE_CURVE('',#40,#32,#42,.T.);
#40 = VERTEX_POINT('',#41);
#41 = CARTESIAN_POINT('',(-2.25,-0.558058261758,0.));
#42 = LINE('',#43,#44);
#43 = CARTESIAN_POINT('',(-2.25,-0.558058261758,0.));
#44 = VECTOR('',#45,3.937007874016E-02);
#45 = DIRECTION('',(0.,0.,1.));
#46 = ORIENTED_EDGE('',*,*,#47,.F.);
#47 = EDGE_CURVE('',#22,#40,#48,.T.);
#48 = LINE('',#49,#50);
#49 = CARTESIAN_POINT('',(-2.25,0.558058261758,0.));
#50 = VECTOR('',#51,3.937007874016E-02);
#51 = DIRECTION('',(0.,-1.,0.));
#52 = FACE_BOUND('',#53,.F.);
#53 = EDGE_LOOP('',(#54));
#54 = ORIENTED_EDGE('',*,*,#55,.T.);
#55 = EDGE_CURVE('',#56,#56,#58,.T.);
#56 = VERTEX_POINT('',#57);
#57 = CARTESIAN_POINT('',(-2.25,0.31,0.375));
#58 = CIRCLE('',#59,9.E-02);
#59 = AXIS2_PLACEMENT_3D('',#60,#61,#62);
#60 = CARTESIAN_POINT('',(-2.25,0.4,0.375));
#61 = DIRECTION('',(-1.,0.,0.));
#62 = DIRECTION('',(0.,-1.,0.));
#63 = FACE_BOUND('',#64,.F.);
#64 = EDGE_LOOP('',(#65));
#65 = ORIENTED_EDGE('',*,*,#66,.T.);
#66 = EDGE_CURVE('',#67,#67,#69,.T.);
#67 = VERTEX_POINT('',#68);
#68 = CARTESIAN_POINT('',(-2.25,-0.28125,0.375));
#69 = CIRCLE('',#70,0.28125);
#70 = AXIS2_PLACEMENT_3D('',#71,#72,#73);
#71 = CARTESIAN_POINT('',(-2.25,0.,0.375));
#72 = DIRECTION('',(-1.,0.,0.));
#73 = DIRECTION('',(0.,-1.,0.));
#74 = FACE_BOUND('',#75,.F.);
#75 = EDGE_LOOP('',(#76));
#76 = ORIENTED_EDGE('',*,*,#77,.T.);
#77 = EDGE_CURVE('',#78,#78,#80,.T.);
#78 = VERTEX_POINT('',#79);
#79 = CARTESIAN_POINT('',(-2.25,-0.49,0.375));
#80 = CIRCLE('',#81,9.E-02);
#81 = AXIS2_PLACEMENT_3D('',#82,#83,#84);
#82 = CARTESIAN_POINT('',(-2.25,-0.4,0.375));
#83 = DIRECTION('',(-1.,0.,0.));
#84 = DIRECTION('',(0.,-1.,0.));
#85 = PLANE('',#86);
#86 = AXIS2_PLACEMENT_3D('',#87,#88,#89);
#87 = CARTESIAN_POINT('',(-2.25,0.558058261758,0.));
#88 = DIRECTION('',(1.,0.,0.));
#89 = DIRECTION('',(0.,-1.,0.));
#90 = ADVANCED_FACE('',(#91),#116,.F.);
#91 = FACE_BOUND('',#92,.F.);
#92 = EDGE_LOOP('',(#93,#103,#109,#110));
#93 = ORIENTED_EDGE('',*,*,#94,.T.);
#94 = EDGE_CURVE('',#95,#97,#99,.T.);
#95 = VERTEX_POINT('',#96);
#96 = CARTESIAN_POINT('',(-1.808058261758,1.,0.));
#97 = VERTEX_POINT('',#98);
#98 = CARTESIAN_POINT('',(-1.808058261758,1.,0.75));
#99 = LINE('',#100,#101);
#100 = CARTESIAN_POINT('',(-1.808058261758,1.,0.));
#101 = VECTOR('',#102,3.937007874016E-02);
#102 = DIRECTION('',(0.,0.,1.));
#103 = ORIENTED_EDGE('',*,*,#104,.T.);
#104 = EDGE_CURVE('',#97,#24,#105,.T.);
#105 = LINE('',#106,#107);
#106 = CARTESIAN_POINT('',(-1.808058261758,1.,0.75));
#107 = VECTOR('',#108,3.937007874016E-02);
#108 = DIRECTION('',(-0.707106781187,-0.707106781187,0.));
#109 = ORIENTED_EDGE('',*,*,#21,.F.);
#110 = ORIENTED_EDGE('',*,*,#111,.F.);
#111 = EDGE_CURVE('',#95,#22,#112,.T.);
#112 = LINE('',#113,#114);
#113 = CARTESIAN_POINT('',(-1.808058261758,1.,0.));
#114 = VECTOR('',#115,3.937007874016E-02);
#115 = DIRECTION('',(-0.707106781187,-0.707106781187,0.));
#116 = PLANE('',#117);
#117 = AXIS2_PLACEMENT_3D('',#118,#119,#120);
#118 = CARTESIAN_POINT('',(-1.808058261758,1.,0.));
#119 = DIRECTION('',(0.707106781187,-0.707106781187,0.));
#120 = DIRECTION('',(-0.707106781187,-0.707106781187,0.));
#121 = ADVANCED_FACE('',(#122,#172),#206,.F.);
#122 = FACE_BOUND('',#123,.F.);
#123 = EDGE_LOOP('',(#124,#125,#133,#141,#149,#157,#165,#171));
#124 = ORIENTED_EDGE('',*,*,#47,.T.);
#125 = ORIENTED_EDGE('',*,*,#126,.T.);
#126 = EDGE_CURVE('',#40,#127,#129,.T.);
#127 = VERTEX_POINT('',#128);
#128 = CARTESIAN_POINT('',(-1.808058261758,-1.,0.));
#129 = LINE('',#130,#131);
#130 = CARTESIAN_POINT('',(-2.25,-0.558058261758,0.));
#131 = VECTOR('',#132,3.937007874016E-02);
#132 = DIRECTION('',(0.707106781187,-0.707106781187,0.));
#133 = ORIENTED_EDGE('',*,*,#134,.T.);
#134 = EDGE_CURVE('',#127,#135,#137,.T.);
#135 = VERTEX_POINT('',#136);
#136 = CARTESIAN_POINT('',(1.808058261758,-1.,0.));
#137 = LINE('',#138,#139);
#138 = CARTESIAN_POINT('',(-1.808058261758,-1.,0.));
#139 = VECTOR('',#140,3.937007874016E-02);
#140 = DIRECTION('',(1.,0.,0.));
#141 = ORIENTED_EDGE('',*,*,#142,.T.);
#142 = EDGE_CURVE('',#135,#143,#145,.T.);
#143 = VERTEX_POINT('',#144);
#144 = CARTESIAN_POINT('',(2.25,-0.558058261758,0.));
#145 = LINE('',#146,#147);
#146 = CARTESIAN_POINT('',(1.808058261758,-1.,0.));
#147 = VECTOR('',#148,3.937007874016E-02);
#148 = DIRECTION('',(0.707106781187,0.707106781187,0.));
#149 = ORIENTED_EDGE('',*,*,#150,.T.);
#150 = EDGE_CURVE('',#143,#151,#153,.T.);
#151 = VERTEX_POINT('',#152);
#152 = CARTESIAN_POINT('',(2.25,0.558058261758,0.));
#153 = LINE('',#154,#155);
#154 = CARTESIAN_POINT('',(2.25,-0.558058261758,0.));
#155 = VECTOR('',#156,3.937007874016E-02);
#156 = DIRECTION('',(0.,1.,0.));
#157 = ORIENTED_EDGE('',*,*,#158,.T.);
#158 = EDGE_CURVE('',#151,#159,#161,.T.);
#159 = VERTEX_POINT('',#160);
#160 = CARTESIAN_POINT('',(1.808058261758,1.,0.));
#161 = LINE('',#162,#163);
#162 = CARTESIAN_POINT('',(2.25,0.558058261758,0.));
#163 = VECTOR('',#164,3.937007874016E-02);
#164 = DIRECTION('',(-0.707106781187,0.707106781187,0.));
#165 = ORIENTED_EDGE('',*,*,#166,.T.);
#166 = EDGE_CURVE('',#159,#95,#167,.T.);
#167 = LINE('',#168,#169);
#168 = CARTESIAN_POINT('',(1.808058261758,1.,0.));
#169 = VECTOR('',#170,3.937007874016E-02);
#170 = DIRECTION('',(-1.,0.,0.));
#171 = ORIENTED_EDGE('',*,*,#111,.T.);
#172 = FACE_BOUND('',#173,.T.);
#173 = EDGE_LOOP('',(#174,#184,#192,#200));
#174 = ORIENTED_EDGE('',*,*,#175,.T.);
#175 = EDGE_CURVE('',#176,#178,#180,.T.);
#176 = VERTEX_POINT('',#177);
#177 = CARTESIAN_POINT('',(-1.625,0.625,0.));
#178 = VERTEX_POINT('',#179);
#179 = CARTESIAN_POINT('',(-1.625,-0.625,0.));
#180 = LINE('',#181,#182);
#181 = CARTESIAN_POINT('',(-1.625,0.625,0.));
#182 = VECTOR('',#183,3.937007874016E-02);
#183 = DIRECTION('',(0.,-1.,0.));
#184 = ORIENTED_EDGE('',*,*,#185,.T.);
#185 = EDGE_CURVE('',#178,#186,#188,.T.);
#186 = VERTEX_POINT('',#187);
#187 = CARTESIAN_POINT('',(1.625,-0.625,0.));
#188 = LINE('',#189,#190);
#189 = CARTESIAN_POINT('',(-1.625,-0.625,0.));
#190 = VECTOR('',#191,3.937007874016E-02);
#191 = DIRECTION('',(1.,0.,0.));
#192 = ORIENTED_EDGE('',*,*,#193,.T.);
#193 = EDGE_CURVE('',#186,#194,#196,.T.);
#194 = VERTEX_POINT('',#195);
#195 = CARTESIAN_POINT('',(1.625,0.625,0.));
#196 = LINE('',#197,#198);
#197 = CARTESIAN_POINT('',(1.625,-0.625,0.));
#198 = VECTOR('',#199,3.937007874016E-02);
#199 = DIRECTION('',(0.,1.,0.));
#200 = ORIENTED_EDGE('',*,*,#201,.T.);
#201 = EDGE_CURVE('',#194,#176,#202,.T.);
#202 = LINE('',#203,#204);
#203 = CARTESIAN_POINT('',(1.625,0.625,0.));
#204 = VECTOR('',#205,3.937007874016E-02);
#205 = DIRECTION('',(-1.,0.,0.));
#206 = PLANE('',#207);
#207 = AXIS2_PLACEMENT_3D('',#208,#209,#210);
#208 = CARTESIAN_POINT('',(3.362164342421E-17,1.849190388331E-16,0.));
#209 = DIRECTION('',(0.,0.,1.));
#210 = DIRECTION('',(1.,0.,0.));
#211 = ADVANCED_FACE('',(#212,#262),#296,.T.);
#212 = FACE_BOUND('',#213,.T.);
#213 = EDGE_LOOP('',(#214,#215,#223,#231,#239,#247,#255,#261));
#214 = ORIENTED_EDGE('',*,*,#31,.T.);
#215 = ORIENTED_EDGE('',*,*,#216,.T.);
#216 = EDGE_CURVE('',#32,#217,#219,.T.);
#217 = VERTEX_POINT('',#218);
#218 = CARTESIAN_POINT('',(-1.808058261758,-1.,0.75));
#219 = LINE('',#220,#221);
#220 = CARTESIAN_POINT('',(-2.25,-0.558058261758,0.75));
#221 = VECTOR('',#222,3.937007874016E-02);
#222 = DIRECTION('',(0.707106781187,-0.707106781187,0.));
#223 = ORIENTED_EDGE('',*,*,#224,.T.);
#224 = EDGE_CURVE('',#217,#225,#227,.T.);
#225 = VERTEX_POINT('',#226);
#226 = CARTESIAN_POINT('',(1.808058261758,-1.,0.75));
#227 = LINE('',#228,#229);
#228 = CARTESIAN_POINT('',(-1.808058261758,-1.,0.75));
#229 = VECTOR('',#230,3.937007874016E-02);
#230 = DIRECTION('',(1.,0.,0.));
#231 = ORIENTED_EDGE('',*,*,#232,.T.);
#232 = EDGE_CURVE('',#225,#233,#235,.T.);
#233 = VERTEX_POINT('',#234);
#234 = CARTESIAN_POINT('',(2.25,-0.558058261758,0.75));
#235 = LINE('',#236,#237);
#236 = CARTESIAN_POINT('',(1.808058261758,-1.,0.75));
#237 = VECTOR('',#238,3.937007874016E-02);
#238 = DIRECTION('',(0.707106781187,0.707106781187,0.));
#239 = ORIENTED_EDGE('',*,*,#240,.T.);
#240 = EDGE_CURVE('',#233,#241,#243,.T.);
#241 = VERTEX_POINT('',#242);
#242 = CARTESIAN_POINT('',(2.25,0.558058261758,0.75));
#243 = LINE('',#244,#245);
#244 = CARTESIAN_POINT('',(2.25,-0.558058261758,0.75));
#245 = VECTOR('',#246,3.937007874016E-02);
#246 = DIRECTION('',(0.,1.,0.));
#247 = ORIENTED_EDGE('',*,*,#248,.T.);
#248 = EDGE_CURVE('',#241,#249,#251,.T.);
#249 = VERTEX_POINT('',#250);
#250 = CARTESIAN_POINT('',(1.808058261758,1.,0.75));
#251 = LINE('',#252,#253);
#252 = CARTESIAN_POINT('',(2.25,0.558058261758,0.75));
#253 = VECTOR('',#254,3.937007874016E-02);
#254 = DIRECTION('',(-0.707106781187,0.707106781187,0.));
#255 = ORIENTED_EDGE('',*,*,#256,.T.);
#256 = EDGE_CURVE('',#249,#97,#257,.T.);
#257 = LINE('',#258,#259);
#258 = CARTESIAN_POINT('',(1.808058261758,1.,0.75));
#259 = VECTOR('',#260,3.937007874016E-02);
#260 = DIRECTION('',(-1.,0.,0.));
#261 = ORIENTED_EDGE('',*,*,#104,.T.);
#262 = FACE_BOUND('',#263,.F.);
#263 = EDGE_LOOP('',(#264,#274,#282,#290));
#264 = ORIENTED_EDGE('',*,*,#265,.T.);
#265 = EDGE_CURVE('',#266,#268,#270,.T.);
#266 = VERTEX_POINT('',#267);
#267 = CARTESIAN_POINT('',(-1.625,0.625,0.75));
#268 = VERTEX_POINT('',#269);
#269 = CARTESIAN_POINT('',(-1.625,-0.625,0.75));
#270 = LINE('',#271,#272);
#271 = CARTESIAN_POINT('',(-1.625,0.625,0.75));
#272 = VECTOR('',#273,3.937007874016E-02);
#273 = DIRECTION('',(0.,-1.,0.));
#274 = ORIENTED_EDGE('',*,*,#275,.T.);
#275 = EDGE_CURVE('',#268,#276,#278,.T.);
#276 = VERTEX_POINT('',#277);
#277 = CARTESIAN_POINT('',(1.625,-0.625,0.75));
#278 = LINE('',#279,#280);
#279 = CARTESIAN_POINT('',(-1.625,-0.625,0.75));
#280 = VECTOR('',#281,3.937007874016E-02);
#281 = DIRECTION('',(1.,0.,0.));
#282 = ORIENTED_EDGE('',*,*,#283,.T.);
#283 = EDGE_CURVE('',#276,#284,#286,.T.);
#284 = VERTEX_POINT('',#285);
#285 = CARTESIAN_POINT('',(1.625,0.625,0.75));
#286 = LINE('',#287,#288);
#287 = CARTESIAN_POINT('',(1.625,-0.625,0.75));
#288 = VECTOR('',#289,3.937007874016E-02);
#289 = DIRECTION('',(0.,1.,0.));
#290 = ORIENTED_EDGE('',*,*,#291,.T.);
#291 = EDGE_CURVE('',#284,#266,#292,.T.);
#292 = LINE('',#293,#294);
#293 = CARTESIAN_POINT('',(1.625,0.625,0.75));
#294 = VECTOR('',#295,3.937007874016E-02);
#295 = DIRECTION('',(-1.,0.,0.));
#296 = PLANE('',#297);
#297 = AXIS2_PLACEMENT_3D('',#298,#299,#300);
#298 = CARTESIAN_POINT('',(3.362164342421E-17,1.849190388331E-16,0.75));
#299 = DIRECTION('',(0.,0.,1.));
#300 = DIRECTION('',(1.,0.,0.));
#301 = ADVANCED_FACE('',(#302),#313,.F.);
#302 = FACE_BOUND('',#303,.F.);
#303 = EDGE_LOOP('',(#304,#305,#306,#312));
#304 = ORIENTED_EDGE('',*,*,#39,.T.);
#305 = ORIENTED_EDGE('',*,*,#216,.T.);
#306 = ORIENTED_EDGE('',*,*,#307,.F.);
#307 = EDGE_CURVE('',#127,#217,#308,.T.);
#308 = LINE('',#309,#310);
#309 = CARTESIAN_POINT('',(-1.808058261758,-1.,0.));
#310 = VECTOR('',#311,3.937007874016E-02);
#311 = DIRECTION('',(0.,0.,1.));
#312 = ORIENTED_EDGE('',*,*,#126,.F.);
#313 = PLANE('',#314);
#314 = AXIS2_PLACEMENT_3D('',#315,#316,#317);
#315 = CARTESIAN_POINT('',(-2.25,-0.558058261758,0.));
#316 = DIRECTION('',(0.707106781187,0.707106781187,0.));
#317 = DIRECTION('',(0.707106781187,-0.707106781187,0.));
#318 = ADVANCED_FACE('',(#319),#338,.F.);
#319 = FACE_BOUND('',#320,.F.);
#320 = EDGE_LOOP('',(#321,#329,#336,#337));
#321 = ORIENTED_EDGE('',*,*,#322,.T.);
#322 = EDGE_CURVE('',#56,#323,#325,.T.);
#323 = VERTEX_POINT('',#324);
#324 = CARTESIAN_POINT('',(-2.005,0.31,0.375));
#325 = LINE('',#326,#327);
#326 = CARTESIAN_POINT('',(-2.25,0.31,0.375));
#327 = VECTOR('',#328,3.937007874016E-02);
#328 = DIRECTION('',(1.,0.,0.));
#329 = ORIENTED_EDGE('',*,*,#330,.T.);
#330 = EDGE_CURVE('',#323,#323,#331,.T.);
#331 = CIRCLE('',#332,9.E-02);
#332 = AXIS2_PLACEMENT_3D('',#333,#334,#335);
#333 = CARTESIAN_POINT('',(-2.005,0.4,0.375));
#334 = DIRECTION('',(-1.,0.,0.));
#335 = DIRECTION('',(0.,-1.,0.));
#336 = ORIENTED_EDGE('',*,*,#322,.F.);
#337 = ORIENTED_EDGE('',*,*,#55,.F.);
#338 = CYLINDRICAL_SURFACE('',#339,9.E-02);
#339 = AXIS2_PLACEMENT_3D('',#340,#341,#342);
#340 = CARTESIAN_POINT('',(-2.25,0.4,0.375));
#341 = DIRECTION('',(-1.,0.,0.));
#342 = DIRECTION('',(0.,-1.,0.));
#343 = ADVANCED_FACE('',(#344),#363,.F.);
#344 = FACE_BOUND('',#345,.F.);
#345 = EDGE_LOOP('',(#346,#354,#361,#362));
#346 = ORIENTED_EDGE('',*,*,#347,.T.);
#347 = EDGE_CURVE('',#67,#348,#350,.T.);
#348 = VERTEX_POINT('',#349);
#349 = CARTESIAN_POINT('',(-1.75,-0.28125,0.375));
#350 = LINE('',#351,#352);
#351 = CARTESIAN_POINT('',(-2.25,-0.28125,0.375));
#352 = VECTOR('',#353,3.937007874016E-02);
#353 = DIRECTION('',(1.,0.,0.));
#354 = ORIENTED_EDGE('',*,*,#355,.T.);
#355 = EDGE_CURVE('',#348,#348,#356,.T.);
#356 = CIRCLE('',#357,0.28125);
#357 = AXIS2_PLACEMENT_3D('',#358,#359,#360);
#358 = CARTESIAN_POINT('',(-1.75,0.,0.375));
#359 = DIRECTION('',(-1.,0.,0.));
#360 = DIRECTION('',(0.,-1.,0.));
#361 = ORIENTED_EDGE('',*,*,#347,.F.);
#362 = ORIENTED_EDGE('',*,*,#66,.F.);
#363 = CYLINDRICAL_SURFACE('',#364,0.28125);
#364 = AXIS2_PLACEMENT_3D('',#365,#366,#367);
#365 = CARTESIAN_POINT('',(-2.25,0.,0.375));
#366 = DIRECTION('',(-1.,0.,0.));
#367 = DIRECTION('',(0.,-1.,0.));
#368 = ADVANCED_FACE('',(#369),#388,.F.);
#369 = FACE_BOUND('',#370,.F.);
#370 = EDGE_LOOP('',(#371,#379,#386,#387));
#371 = ORIENTED_EDGE('',*,*,#372,.T.);
#372 = EDGE_CURVE('',#78,#373,#375,.T.);
#373 = VERTEX_POINT('',#374);
#374 = CARTESIAN_POINT('',(-2.005,-0.49,0.375));
#375 = LINE('',#376,#377);
#376 = CARTESIAN_POINT('',(-2.25,-0.49,0.375));
#377 = VECTOR('',#378,3.937007874016E-02);
#378 = DIRECTION('',(1.,0.,0.));
#379 = ORIENTED_EDGE('',*,*,#380,.T.);
#380 = EDGE_CURVE('',#373,#373,#381,.T.);
#381 = CIRCLE('',#382,9.E-02);
#382 = AXIS2_PLACEMENT_3D('',#383,#384,#385);
#383 = CARTESIAN_POINT('',(-2.005,-0.4,0.375));
#384 = DIRECTION('',(-1.,0.,0.));
#385 = DIRECTION('',(0.,-1.,0.));
#386 = ORIENTED_EDGE('',*,*,#372,.F.);
#387 = ORIENTED_EDGE('',*,*,#77,.F.);
#388 = CYLINDRICAL_SURFACE('',#389,9.E-02);
#389 = AXIS2_PLACEMENT_3D('',#390,#391,#392);
#390 = CARTESIAN_POINT('',(-2.25,-0.4,0.375));
#391 = DIRECTION('',(-1.,0.,0.));
#392 = DIRECTION('',(0.,-1.,0.));
#393 = ADVANCED_FACE('',(#394,#405,#416,#427),#438,.F.);
#394 = FACE_BOUND('',#395,.F.);
#395 = EDGE_LOOP('',(#396,#402,#403,#404));
#396 = ORIENTED_EDGE('',*,*,#397,.T.);
#397 = EDGE_CURVE('',#159,#249,#398,.T.);
#398 = LINE('',#399,#400);
#399 = CARTESIAN_POINT('',(1.808058261758,1.,0.));
#400 = VECTOR('',#401,3.937007874016E-02);
#401 = DIRECTION('',(0.,0.,1.));
#402 = ORIENTED_EDGE('',*,*,#256,.T.);
#403 = ORIENTED_EDGE('',*,*,#94,.F.);
#404 = ORIENTED_EDGE('',*,*,#166,.F.);
#405 = FACE_BOUND('',#406,.F.);
#406 = EDGE_LOOP('',(#407));
#407 = ORIENTED_EDGE('',*,*,#408,.F.);
#408 = EDGE_CURVE('',#409,#409,#411,.T.);
#409 = VERTEX_POINT('',#410);
#410 = CARTESIAN_POINT('',(1.6125,1.,0.375));
#411 = CIRCLE('',#412,0.1125);
#412 = AXIS2_PLACEMENT_3D('',#413,#414,#415);
#413 = CARTESIAN_POINT('',(1.5,1.,0.375));
#414 = DIRECTION('',(0.,-1.,-6.661338147751E-16));
#415 = DIRECTION('',(1.,0.,0.));
#416 = FACE_BOUND('',#417,.F.);
#417 = EDGE_LOOP('',(#418));
#418 = ORIENTED_EDGE('',*,*,#419,.F.);
#419 = EDGE_CURVE('',#420,#420,#422,.T.);
#420 = VERTEX_POINT('',#421);
#421 = CARTESIAN_POINT('',(0.1125,1.,0.375));
#422 = CIRCLE('',#423,0.1125);
#423 = AXIS2_PLACEMENT_3D('',#424,#425,#426);
#424 = CARTESIAN_POINT('',(0.,1.,0.375));
#425 = DIRECTION('',(0.,-1.,-6.661338147751E-16));
#426 = DIRECTION('',(1.,0.,0.));
#427 = FACE_BOUND('',#428,.F.);
#428 = EDGE_LOOP('',(#429));
#429 = ORIENTED_EDGE('',*,*,#430,.F.);
#430 = EDGE_CURVE('',#431,#431,#433,.T.);
#431 = VERTEX_POINT('',#432);
#432 = CARTESIAN_POINT('',(-1.3875,1.,0.375));
#433 = CIRCLE('',#434,0.1125);
#434 = AXIS2_PLACEMENT_3D('',#435,#436,#437);
#435 = CARTESIAN_POINT('',(-1.5,1.,0.375));
#436 = DIRECTION('',(0.,-1.,-6.661338147751E-16));
#437 = DIRECTION('',(1.,0.,0.));
#438 = PLANE('',#439);
#439 = AXIS2_PLACEMENT_3D('',#440,#441,#442);
#440 = CARTESIAN_POINT('',(1.808058261758,1.,0.));
#441 = DIRECTION('',(0.,-1.,0.));
#442 = DIRECTION('',(-1.,0.,0.));
#443 = ADVANCED_FACE('',(#444,#455,#466,#477),#488,.F.);
#444 = FACE_BOUND('',#445,.F.);
#445 = EDGE_LOOP('',(#446,#447,#448,#454));
#446 = ORIENTED_EDGE('',*,*,#307,.T.);
#447 = ORIENTED_EDGE('',*,*,#224,.T.);
#448 = ORIENTED_EDGE('',*,*,#449,.F.);
#449 = EDGE_CURVE('',#135,#225,#450,.T.);
#450 = LINE('',#451,#452);
#451 = CARTESIAN_POINT('',(1.808058261758,-1.,0.));
#452 = VECTOR('',#453,3.937007874016E-02);
#453 = DIRECTION('',(0.,0.,1.));
#454 = ORIENTED_EDGE('',*,*,#134,.F.);
#455 = FACE_BOUND('',#456,.F.);
#456 = EDGE_LOOP('',(#457));
#457 = ORIENTED_EDGE('',*,*,#458,.T.);
#458 = EDGE_CURVE('',#459,#459,#461,.T.);
#459 = VERTEX_POINT('',#460);
#460 = CARTESIAN_POINT('',(-1.3875,-1.,0.375));
#461 = CIRCLE('',#462,0.1125);
#462 = AXIS2_PLACEMENT_3D('',#463,#464,#465);
#463 = CARTESIAN_POINT('',(-1.5,-1.,0.375));
#464 = DIRECTION('',(0.,-1.,2.22044604925E-16));
#465 = DIRECTION('',(1.,0.,0.));
#466 = FACE_BOUND('',#467,.F.);
#467 = EDGE_LOOP('',(#468));
#468 = ORIENTED_EDGE('',*,*,#469,.T.);
#469 = EDGE_CURVE('',#470,#470,#472,.T.);
#470 = VERTEX_POINT('',#471);
#471 = CARTESIAN_POINT('',(0.1125,-1.,0.375));
#472 = CIRCLE('',#473,0.1125);
#473 = AXIS2_PLACEMENT_3D('',#474,#475,#476);
#474 = CARTESIAN_POINT('',(0.,-1.,0.375));
#475 = DIRECTION('',(0.,-1.,2.22044604925E-16));
#476 = DIRECTION('',(1.,0.,0.));
#477 = FACE_BOUND('',#478,.F.);
#478 = EDGE_LOOP('',(#479));
#479 = ORIENTED_EDGE('',*,*,#480,.T.);
#480 = EDGE_CURVE('',#481,#481,#483,.T.);
#481 = VERTEX_POINT('',#482);
#482 = CARTESIAN_POINT('',(1.6125,-1.,0.375));
#483 = CIRCLE('',#484,0.1125);
#484 = AXIS2_PLACEMENT_3D('',#485,#486,#487);
#485 = CARTESIAN_POINT('',(1.5,-1.,0.375));
#486 = DIRECTION('',(0.,-1.,2.22044604925E-16));
#487 = DIRECTION('',(1.,0.,0.));
#488 = PLANE('',#489);
#489 = AXIS2_PLACEMENT_3D('',#490,#491,#492);
#490 = CARTESIAN_POINT('',(-1.808058261758,-1.,0.));
#491 = DIRECTION('',(0.,1.,0.));
#492 = DIRECTION('',(1.,0.,0.));
#493 = ADVANCED_FACE('',(#494),#505,.F.);
#494 = FACE_BOUND('',#495,.F.);
#495 = EDGE_LOOP('',(#496,#497,#498,#504));
#496 = ORIENTED_EDGE('',*,*,#449,.T.);
#497 = ORIENTED_EDGE('',*,*,#232,.T.);
#498 = ORIENTED_EDGE('',*,*,#499,.F.);
#499 = EDGE_CURVE('',#143,#233,#500,.T.);
#500 = LINE('',#501,#502);
#501 = CARTESIAN_POINT('',(2.25,-0.558058261758,0.));
#502 = VECTOR('',#503,3.937007874016E-02);
#503 = DIRECTION('',(0.,0.,1.));
#504 = ORIENTED_EDGE('',*,*,#142,.F.);
#505 = PLANE('',#506);
#506 = AXIS2_PLACEMENT_3D('',#507,#508,#509);
#507 = CARTESIAN_POINT('',(1.808058261758,-1.,0.));
#508 = DIRECTION('',(-0.707106781187,0.707106781187,0.));
#509 = DIRECTION('',(0.707106781187,0.707106781187,0.));
#510 = ADVANCED_FACE('',(#511,#522),#533,.F.);
#511 = FACE_BOUND('',#512,.F.);
#512 = EDGE_LOOP('',(#513,#514,#515,#521));
#513 = ORIENTED_EDGE('',*,*,#499,.T.);
#514 = ORIENTED_EDGE('',*,*,#240,.T.);
#515 = ORIENTED_EDGE('',*,*,#516,.F.);
#516 = EDGE_CURVE('',#151,#241,#517,.T.);
#517 = LINE('',#518,#519);
#518 = CARTESIAN_POINT('',(2.25,0.558058261758,0.));
#519 = VECTOR('',#520,3.937007874016E-02);
#520 = DIRECTION('',(0.,0.,1.));
#521 = ORIENTED_EDGE('',*,*,#150,.F.);
#522 = FACE_BOUND('',#523,.F.);
#523 = EDGE_LOOP('',(#524));
#524 = ORIENTED_EDGE('',*,*,#525,.F.);
#525 = EDGE_CURVE('',#526,#526,#528,.T.);
#526 = VERTEX_POINT('',#527);
#527 = CARTESIAN_POINT('',(2.25,-0.28125,0.375));
#528 = CIRCLE('',#529,0.28125);
#529 = AXIS2_PLACEMENT_3D('',#530,#531,#532);
#530 = CARTESIAN_POINT('',(2.25,-4.996003610813E-16,0.375));
#531 = DIRECTION('',(-1.,2.22044604925E-16,-2.22044604925E-16));
#532 = DIRECTION('',(-2.22044604925E-16,-1.,-2.465190328816E-32));
#533 = PLANE('',#534);
#534 = AXIS2_PLACEMENT_3D('',#535,#536,#537);
#535 = CARTESIAN_POINT('',(2.25,-0.558058261758,0.));
#536 = DIRECTION('',(-1.,0.,0.));
#537 = DIRECTION('',(0.,1.,0.));
#538 = ADVANCED_FACE('',(#539),#545,.F.);
#539 = FACE_BOUND('',#540,.F.);
#540 = EDGE_LOOP('',(#541,#542,#543,#544));
#541 = ORIENTED_EDGE('',*,*,#516,.T.);
#542 = ORIENTED_EDGE('',*,*,#248,.T.);
#543 = ORIENTED_EDGE('',*,*,#397,.F.);
#544 = ORIENTED_EDGE('',*,*,#158,.F.);
#545 = PLANE('',#546);
#546 = AXIS2_PLACEMENT_3D('',#547,#548,#549);
#547 = CARTESIAN_POINT('',(2.25,0.558058261758,0.));
#548 = DIRECTION('',(-0.707106781187,-0.707106781187,0.));
#549 = DIRECTION('',(-0.707106781187,0.707106781187,0.));
#550 = ADVANCED_FACE('',(#551,#567),#578,.T.);
#551 = FACE_BOUND('',#552,.T.);
#552 = EDGE_LOOP('',(#553,#559,#560,#566));
#553 = ORIENTED_EDGE('',*,*,#554,.T.);
#554 = EDGE_CURVE('',#176,#266,#555,.T.);
#555 = LINE('',#556,#557);
#556 = CARTESIAN_POINT('',(-1.625,0.625,0.));
#557 = VECTOR('',#558,3.937007874016E-02);
#558 = DIRECTION('',(0.,0.,1.));
#559 = ORIENTED_EDGE('',*,*,#265,.T.);
#560 = ORIENTED_EDGE('',*,*,#561,.F.);
#561 = EDGE_CURVE('',#178,#268,#562,.T.);
#562 = LINE('',#563,#564);
#563 = CARTESIAN_POINT('',(-1.625,-0.625,0.));
#564 = VECTOR('',#565,3.937007874016E-02);
#565 = DIRECTION('',(0.,0.,1.));
#566 = ORIENTED_EDGE('',*,*,#175,.F.);
#567 = FACE_BOUND('',#568,.T.);
#568 = EDGE_LOOP('',(#569));
#569 = ORIENTED_EDGE('',*,*,#570,.T.);
#570 = EDGE_CURVE('',#571,#571,#573,.T.);
#571 = VERTEX_POINT('',#572);
#572 = CARTESIAN_POINT('',(-1.625,-0.2,0.375));
#573 = CIRCLE('',#574,0.2);
#574 = AXIS2_PLACEMENT_3D('',#575,#576,#577);
#575 = CARTESIAN_POINT('',(-1.625,0.,0.375));
#576 = DIRECTION('',(-1.,0.,0.));
#577 = DIRECTION('',(0.,-1.,0.));
#578 = PLANE('',#579);
#579 = AXIS2_PLACEMENT_3D('',#580,#581,#582);
#580 = CARTESIAN_POINT('',(-1.625,0.625,0.));
#581 = DIRECTION('',(1.,0.,0.));
#582 = DIRECTION('',(0.,-1.,0.));
#583 = ADVANCED_FACE('',(#584),#595,.T.);
#584 = FACE_BOUND('',#585,.T.);
#585 = EDGE_LOOP('',(#586,#587,#588,#594));
#586 = ORIENTED_EDGE('',*,*,#561,.T.);
#587 = ORIENTED_EDGE('',*,*,#275,.T.);
#588 = ORIENTED_EDGE('',*,*,#589,.F.);
#589 = EDGE_CURVE('',#186,#276,#590,.T.);
#590 = LINE('',#591,#592);
#591 = CARTESIAN_POINT('',(1.625,-0.625,0.));
#592 = VECTOR('',#593,3.937007874016E-02);
#593 = DIRECTION('',(0.,0.,1.));
#594 = ORIENTED_EDGE('',*,*,#185,.F.);
#595 = PLANE('',#596);
#596 = AXIS2_PLACEMENT_3D('',#597,#598,#599);
#597 = CARTESIAN_POINT('',(-1.625,-0.625,0.));
#598 = DIRECTION('',(0.,1.,0.));
#599 = DIRECTION('',(1.,0.,0.));
#600 = ADVANCED_FACE('',(#601,#612),#623,.T.);
#601 = FACE_BOUND('',#602,.T.);
#602 = EDGE_LOOP('',(#603,#604,#605,#611));
#603 = ORIENTED_EDGE('',*,*,#589,.T.);
#604 = ORIENTED_EDGE('',*,*,#283,.T.);
#605 = ORIENTED_EDGE('',*,*,#606,.F.);
#606 = EDGE_CURVE('',#194,#284,#607,.T.);
#607 = LINE('',#608,#609);
#608 = CARTESIAN_POINT('',(1.625,0.625,0.));
#609 = VECTOR('',#610,3.937007874016E-02);
#610 = DIRECTION('',(0.,0.,1.));
#611 = ORIENTED_EDGE('',*,*,#193,.F.);
#612 = FACE_BOUND('',#613,.T.);
#613 = EDGE_LOOP('',(#614));
#614 = ORIENTED_EDGE('',*,*,#615,.F.);
#615 = EDGE_CURVE('',#616,#616,#618,.T.);
#616 = VERTEX_POINT('',#617);
#617 = CARTESIAN_POINT('',(1.625,-0.2,0.375));
#618 = CIRCLE('',#619,0.2);
#619 = AXIS2_PLACEMENT_3D('',#620,#621,#622);
#620 = CARTESIAN_POINT('',(1.625,0.,0.375));
#621 = DIRECTION('',(-1.,0.,0.));
#622 = DIRECTION('',(0.,-1.,0.));
#623 = PLANE('',#624);
#624 = AXIS2_PLACEMENT_3D('',#625,#626,#627);
#625 = CARTESIAN_POINT('',(1.625,-0.625,0.));
#626 = DIRECTION('',(-1.,0.,0.));
#627 = DIRECTION('',(0.,1.,0.));
#628 = ADVANCED_FACE('',(#629),#635,.T.);
#629 = FACE_BOUND('',#630,.T.);
#630 = EDGE_LOOP('',(#631,#632,#633,#634));
#631 = ORIENTED_EDGE('',*,*,#606,.T.);
#632 = ORIENTED_EDGE('',*,*,#291,.T.);
#633 = ORIENTED_EDGE('',*,*,#554,.F.);
#634 = ORIENTED_EDGE('',*,*,#201,.F.);
#635 = PLANE('',#636);
#636 = AXIS2_PLACEMENT_3D('',#637,#638,#639);
#637 = CARTESIAN_POINT('',(1.625,0.625,0.));
#638 = DIRECTION('',(0.,-1.,0.));
#639 = DIRECTION('',(-1.,0.,0.));
#640 = ADVANCED_FACE('',(#641),#644,.F.);
#641 = FACE_BOUND('',#642,.T.);
#642 = EDGE_LOOP('',(#643));
#643 = ORIENTED_EDGE('',*,*,#330,.T.);
#644 = PLANE('',#645);
#645 = AXIS2_PLACEMENT_3D('',#646,#647,#648);
#646 = CARTESIAN_POINT('',(-2.005,5.887601234747E-18,0.375));
#647 = DIRECTION('',(1.,0.,0.));
#648 = DIRECTION('',(0.,0.,1.));
#649 = ADVANCED_FACE('',(#650,#653),#664,.F.);
#650 = FACE_BOUND('',#651,.F.);
#651 = EDGE_LOOP('',(#652));
#652 = ORIENTED_EDGE('',*,*,#355,.F.);
#653 = FACE_BOUND('',#654,.F.);
#654 = EDGE_LOOP('',(#655));
#655 = ORIENTED_EDGE('',*,*,#656,.T.);
#656 = EDGE_CURVE('',#657,#657,#659,.T.);
#657 = VERTEX_POINT('',#658);
#658 = CARTESIAN_POINT('',(-1.75,-0.2,0.375));
#659 = CIRCLE('',#660,0.2);
#660 = AXIS2_PLACEMENT_3D('',#661,#662,#663);
#661 = CARTESIAN_POINT('',(-1.75,0.,0.375));
#662 = DIRECTION('',(-1.,0.,0.));
#663 = DIRECTION('',(0.,-1.,0.));
#664 = PLANE('',#665);
#665 = AXIS2_PLACEMENT_3D('',#666,#667,#668);
#666 = CARTESIAN_POINT('',(-1.75,7.536129580476E-18,0.375));
#667 = DIRECTION('',(1.,0.,0.));
#668 = DIRECTION('',(0.,0.,1.));
#669 = ADVANCED_FACE('',(#670),#673,.F.);
#670 = FACE_BOUND('',#671,.T.);
#671 = EDGE_LOOP('',(#672));
#672 = ORIENTED_EDGE('',*,*,#380,.T.);
#673 = PLANE('',#674);
#674 = AXIS2_PLACEMENT_3D('',#675,#676,#677);
#675 = CARTESIAN_POINT('',(-2.005,5.887601234747E-18,0.375));
#676 = DIRECTION('',(1.,0.,0.));
#677 = DIRECTION('',(0.,0.,1.));
#678 = ADVANCED_FACE('',(#679),#698,.F.);
#679 = FACE_BOUND('',#680,.T.);
#680 = EDGE_LOOP('',(#681,#689,#696,#697));
#681 = ORIENTED_EDGE('',*,*,#682,.T.);
#682 = EDGE_CURVE('',#409,#683,#685,.T.);
#683 = VERTEX_POINT('',#684);
#684 = CARTESIAN_POINT('',(1.6125,0.76,0.375));
#685 = LINE('',#686,#687);
#686 = CARTESIAN_POINT('',(1.6125,1.,0.375));
#687 = VECTOR('',#688,3.937007874016E-02);
#688 = DIRECTION('',(-0.,-1.,-6.661338147751E-16));
#689 = ORIENTED_EDGE('',*,*,#690,.T.);
#690 = EDGE_CURVE('',#683,#683,#691,.T.);
#691 = CIRCLE('',#692,0.1125);
#692 = AXIS2_PLACEMENT_3D('',#693,#694,#695);
#693 = CARTESIAN_POINT('',(1.5,0.76,0.375));
#694 = DIRECTION('',(0.,-1.,-6.661338147751E-16));
#695 = DIRECTION('',(1.,0.,0.));
#696 = ORIENTED_EDGE('',*,*,#682,.F.);
#697 = ORIENTED_EDGE('',*,*,#408,.F.);
#698 = CYLINDRICAL_SURFACE('',#699,0.1125);
#699 = AXIS2_PLACEMENT_3D('',#700,#701,#702);
#700 = CARTESIAN_POINT('',(1.5,1.,0.375));
#701 = DIRECTION('',(0.,1.,6.661338147751E-16));
#702 = DIRECTION('',(1.,0.,0.));
#703 = ADVANCED_FACE('',(#704),#723,.F.);
#704 = FACE_BOUND('',#705,.T.);
#705 = EDGE_LOOP('',(#706,#714,#721,#722));
#706 = ORIENTED_EDGE('',*,*,#707,.T.);
#707 = EDGE_CURVE('',#420,#708,#710,.T.);
#708 = VERTEX_POINT('',#709);
#709 = CARTESIAN_POINT('',(0.1125,0.76,0.375));
#710 = LINE('',#711,#712);
#711 = CARTESIAN_POINT('',(0.1125,1.,0.375));
#712 = VECTOR('',#713,3.937007874016E-02);
#713 = DIRECTION('',(-0.,-1.,-6.661338147751E-16));
#714 = ORIENTED_EDGE('',*,*,#715,.T.);
#715 = EDGE_CURVE('',#708,#708,#716,.T.);
#716 = CIRCLE('',#717,0.1125);
#717 = AXIS2_PLACEMENT_3D('',#718,#719,#720);
#718 = CARTESIAN_POINT('',(0.,0.76,0.375));
#719 = DIRECTION('',(0.,-1.,-6.661338147751E-16));
#720 = DIRECTION('',(1.,0.,0.));
#721 = ORIENTED_EDGE('',*,*,#707,.F.);
#722 = ORIENTED_EDGE('',*,*,#419,.F.);
#723 = CYLINDRICAL_SURFACE('',#724,0.1125);
#724 = AXIS2_PLACEMENT_3D('',#725,#726,#727);
#725 = CARTESIAN_POINT('',(0.,1.,0.375));
#726 = DIRECTION('',(0.,1.,6.661338147751E-16));
#727 = DIRECTION('',(1.,0.,0.));
#728 = ADVANCED_FACE('',(#729),#748,.F.);
#729 = FACE_BOUND('',#730,.T.);
#730 = EDGE_LOOP('',(#731,#739,#746,#747));
#731 = ORIENTED_EDGE('',*,*,#732,.T.);
#732 = EDGE_CURVE('',#431,#733,#735,.T.);
#733 = VERTEX_POINT('',#734);
#734 = CARTESIAN_POINT('',(-1.3875,0.76,0.375));
#735 = LINE('',#736,#737);
#736 = CARTESIAN_POINT('',(-1.3875,1.,0.375));
#737 = VECTOR('',#738,3.937007874016E-02);
#738 = DIRECTION('',(-0.,-1.,-6.661338147751E-16));
#739 = ORIENTED_EDGE('',*,*,#740,.T.);
#740 = EDGE_CURVE('',#733,#733,#741,.T.);
#741 = CIRCLE('',#742,0.1125);
#742 = AXIS2_PLACEMENT_3D('',#743,#744,#745);
#743 = CARTESIAN_POINT('',(-1.5,0.76,0.375));
#744 = DIRECTION('',(0.,-1.,-6.661338147751E-16));
#745 = DIRECTION('',(1.,0.,0.));
#746 = ORIENTED_EDGE('',*,*,#732,.F.);
#747 = ORIENTED_EDGE('',*,*,#430,.F.);
#748 = CYLINDRICAL_SURFACE('',#749,0.1125);
#749 = AXIS2_PLACEMENT_3D('',#750,#751,#752);
#750 = CARTESIAN_POINT('',(-1.5,1.,0.375));
#751 = DIRECTION('',(0.,1.,6.661338147751E-16));
#752 = DIRECTION('',(1.,0.,0.));
#753 = ADVANCED_FACE('',(#754),#773,.F.);
#754 = FACE_BOUND('',#755,.F.);
#755 = EDGE_LOOP('',(#756,#764,#771,#772));
#756 = ORIENTED_EDGE('',*,*,#757,.T.);
#757 = EDGE_CURVE('',#459,#758,#760,.T.);
#758 = VERTEX_POINT('',#759);
#759 = CARTESIAN_POINT('',(-1.3875,-0.76,0.375));
#760 = LINE('',#761,#762);
#761 = CARTESIAN_POINT('',(-1.3875,-1.,0.375));
#762 = VECTOR('',#763,3.937007874016E-02);
#763 = DIRECTION('',(0.,1.,-2.22044604925E-16));
#764 = ORIENTED_EDGE('',*,*,#765,.T.);
#765 = EDGE_CURVE('',#758,#758,#766,.T.);
#766 = CIRCLE('',#767,0.1125);
#767 = AXIS2_PLACEMENT_3D('',#768,#769,#770);
#768 = CARTESIAN_POINT('',(-1.5,-0.76,0.375));
#769 = DIRECTION('',(0.,-1.,2.22044604925E-16));
#770 = DIRECTION('',(1.,0.,0.));
#771 = ORIENTED_EDGE('',*,*,#757,.F.);
#772 = ORIENTED_EDGE('',*,*,#458,.F.);
#773 = CYLINDRICAL_SURFACE('',#774,0.1125);
#774 = AXIS2_PLACEMENT_3D('',#775,#776,#777);
#775 = CARTESIAN_POINT('',(-1.5,-1.,0.375));
#776 = DIRECTION('',(0.,-1.,2.22044604925E-16));
#777 = DIRECTION('',(1.,0.,0.));
#778 = ADVANCED_FACE('',(#779),#798,.F.);
#779 = FACE_BOUND('',#780,.F.);
#780 = EDGE_LOOP('',(#781,#789,#796,#797));
#781 = ORIENTED_EDGE('',*,*,#782,.T.);
#782 = EDGE_CURVE('',#470,#783,#785,.T.);
#783 = VERTEX_POINT('',#784);
#784 = CARTESIAN_POINT('',(0.1125,-0.76,0.375));
#785 = LINE('',#786,#787);
#786 = CARTESIAN_POINT('',(0.1125,-1.,0.375));
#787 = VECTOR('',#788,3.937007874016E-02);
#788 = DIRECTION('',(0.,1.,-2.22044604925E-16));
#789 = ORIENTED_EDGE('',*,*,#790,.T.);
#790 = EDGE_CURVE('',#783,#783,#791,.T.);
#791 = CIRCLE('',#792,0.1125);
#792 = AXIS2_PLACEMENT_3D('',#793,#794,#795);
#793 = CARTESIAN_POINT('',(0.,-0.76,0.375));
#794 = DIRECTION('',(0.,-1.,2.22044604925E-16));
#795 = DIRECTION('',(1.,0.,0.));
#796 = ORIENTED_EDGE('',*,*,#782,.F.);
#797 = ORIENTED_EDGE('',*,*,#469,.F.);
#798 = CYLINDRICAL_SURFACE('',#799,0.1125);
#799 = AXIS2_PLACEMENT_3D('',#800,#801,#802);
#800 = CARTESIAN_POINT('',(0.,-1.,0.375));
#801 = DIRECTION('',(0.,-1.,2.22044604925E-16));
#802 = DIRECTION('',(1.,0.,0.));
#803 = ADVANCED_FACE('',(#804),#823,.F.);
#804 = FACE_BOUND('',#805,.F.);
#805 = EDGE_LOOP('',(#806,#814,#821,#822));
#806 = ORIENTED_EDGE('',*,*,#807,.T.);
#807 = EDGE_CURVE('',#481,#808,#810,.T.);
#808 = VERTEX_POINT('',#809);
#809 = CARTESIAN_POINT('',(1.6125,-0.76,0.375));
#810 = LINE('',#811,#812);
#811 = CARTESIAN_POINT('',(1.6125,-1.,0.375));
#812 = VECTOR('',#813,3.937007874016E-02);
#813 = DIRECTION('',(0.,1.,-2.22044604925E-16));
#814 = ORIENTED_EDGE('',*,*,#815,.T.);
#815 = EDGE_CURVE('',#808,#808,#816,.T.);
#816 = CIRCLE('',#817,0.1125);
#817 = AXIS2_PLACEMENT_3D('',#818,#819,#820);
#818 = CARTESIAN_POINT('',(1.5,-0.76,0.375));
#819 = DIRECTION('',(0.,-1.,2.22044604925E-16));
#820 = DIRECTION('',(1.,0.,0.));
#821 = ORIENTED_EDGE('',*,*,#807,.F.);
#822 = ORIENTED_EDGE('',*,*,#480,.F.);
#823 = CYLINDRICAL_SURFACE('',#824,0.1125);
#824 = AXIS2_PLACEMENT_3D('',#825,#826,#827);
#825 = CARTESIAN_POINT('',(1.5,-1.,0.375));
#826 = DIRECTION('',(0.,-1.,2.22044604925E-16));
#827 = DIRECTION('',(1.,0.,0.));
#828 = ADVANCED_FACE('',(#829),#848,.F.);
#829 = FACE_BOUND('',#830,.T.);
#830 = EDGE_LOOP('',(#831,#839,#846,#847));
#831 = ORIENTED_EDGE('',*,*,#832,.T.);
#832 = EDGE_CURVE('',#526,#833,#835,.T.);
#833 = VERTEX_POINT('',#834);
#834 = CARTESIAN_POINT('',(1.75,-0.28125,0.375));
#835 = LINE('',#836,#837);
#836 = CARTESIAN_POINT('',(2.25,-0.28125,0.375));
#837 = VECTOR('',#838,3.937007874016E-02);
#838 = DIRECTION('',(-1.,2.22044604925E-16,-2.22044604925E-16));
#839 = ORIENTED_EDGE('',*,*,#840,.T.);
#840 = EDGE_CURVE('',#833,#833,#841,.T.);
#841 = CIRCLE('',#842,0.28125);
#842 = AXIS2_PLACEMENT_3D('',#843,#844,#845);
#843 = CARTESIAN_POINT('',(1.75,-3.885780586188E-16,0.375));
#844 = DIRECTION('',(-1.,2.22044604925E-16,-2.22044604925E-16));
#845 = DIRECTION('',(-2.22044604925E-16,-1.,-2.465190328816E-32));
#846 = ORIENTED_EDGE('',*,*,#832,.F.);
#847 = ORIENTED_EDGE('',*,*,#525,.F.);
#848 = CYLINDRICAL_SURFACE('',#849,0.28125);
#849 = AXIS2_PLACEMENT_3D('',#850,#851,#852);
#850 = CARTESIAN_POINT('',(2.25,-4.996003610813E-16,0.375));
#851 = DIRECTION('',(1.,-2.22044604925E-16,2.22044604925E-16));
#852 = DIRECTION('',(-2.22044604925E-16,-1.,-2.465190328816E-32));
#853 = ADVANCED_FACE('',(#854),#865,.F.);
#854 = FACE_BOUND('',#855,.F.);
#855 = EDGE_LOOP('',(#856,#857,#863,#864));
#856 = ORIENTED_EDGE('',*,*,#656,.F.);
#857 = ORIENTED_EDGE('',*,*,#858,.T.);
#858 = EDGE_CURVE('',#657,#571,#859,.T.);
#859 = LINE('',#860,#861);
#860 = CARTESIAN_POINT('',(-2.25,-0.2,0.375));
#861 = VECTOR('',#862,3.937007874016E-02);
#862 = DIRECTION('',(1.,0.,0.));
#863 = ORIENTED_EDGE('',*,*,#570,.T.);
#864 = ORIENTED_EDGE('',*,*,#858,.F.);
#865 = CYLINDRICAL_SURFACE('',#866,0.2);
#866 = AXIS2_PLACEMENT_3D('',#867,#868,#869);
#867 = CARTESIAN_POINT('',(-2.25,0.,0.375));
#868 = DIRECTION('',(-1.,0.,0.));
#869 = DIRECTION('',(0.,-1.,0.));
#870 = ADVANCED_FACE('',(#871),#890,.F.);
#871 = FACE_BOUND('',#872,.F.);
#872 = EDGE_LOOP('',(#873,#881,#882,#883));
#873 = ORIENTED_EDGE('',*,*,#874,.F.);
#874 = EDGE_CURVE('',#616,#875,#877,.T.);
#875 = VERTEX_POINT('',#876);
#876 = CARTESIAN_POINT('',(1.75,-0.2,0.375));
#877 = LINE('',#878,#879);
#878 = CARTESIAN_POINT('',(-2.25,-0.2,0.375));
#879 = VECTOR('',#880,3.937007874016E-02);
#880 = DIRECTION('',(1.,0.,0.));
#881 = ORIENTED_EDGE('',*,*,#615,.F.);
#882 = ORIENTED_EDGE('',*,*,#874,.T.);
#883 = ORIENTED_EDGE('',*,*,#884,.T.);
#884 = EDGE_CURVE('',#875,#875,#885,.T.);
#885 = CIRCLE('',#886,0.2);
#886 = AXIS2_PLACEMENT_3D('',#887,#888,#889);
#887 = CARTESIAN_POINT('',(1.75,0.,0.375));
#888 = DIRECTION('',(-1.,0.,0.));
#889 = DIRECTION('',(0.,-1.,0.));
#890 = CYLINDRICAL_SURFACE('',#891,0.2);
#891 = AXIS2_PLACEMENT_3D('',#892,#893,#894);
#892 = CARTESIAN_POINT('',(-2.25,0.,0.375));
#893 = DIRECTION('',(-1.,0.,0.));
#894 = DIRECTION('',(0.,-1.,0.));
#895 = ADVANCED_FACE('',(#896),#899,.F.);
#896 = FACE_BOUND('',#897,.F.);
#897 = EDGE_LOOP('',(#898));
#898 = ORIENTED_EDGE('',*,*,#690,.T.);
#899 = PLANE('',#900);
#900 = AXIS2_PLACEMENT_3D('',#901,#902,#903);
#901 = CARTESIAN_POINT('',(1.256021596746E-17,0.76,0.375));
#902 = DIRECTION('',(-0.,-1.,-1.16190555239E-15));
#903 = DIRECTION('',(0.,1.16190555239E-15,-1.));
#904 = ADVANCED_FACE('',(#905),#908,.F.);
#905 = FACE_BOUND('',#906,.F.);
#906 = EDGE_LOOP('',(#907));
#907 = ORIENTED_EDGE('',*,*,#715,.T.);
#908 = PLANE('',#909);
#909 = AXIS2_PLACEMENT_3D('',#910,#911,#912);
#910 = CARTESIAN_POINT('',(1.256021596746E-17,0.76,0.375));
#911 = DIRECTION('',(-0.,-1.,-1.16190555239E-15));
#912 = DIRECTION('',(0.,1.16190555239E-15,-1.));
#913 = ADVANCED_FACE('',(#914),#917,.F.);
#914 = FACE_BOUND('',#915,.F.);
#915 = EDGE_LOOP('',(#916));
#916 = ORIENTED_EDGE('',*,*,#740,.T.);
#917 = PLANE('',#918);
#918 = AXIS2_PLACEMENT_3D('',#919,#920,#921);
#919 = CARTESIAN_POINT('',(1.256021596746E-17,0.76,0.375));
#920 = DIRECTION('',(-0.,-1.,-1.16190555239E-15));
#921 = DIRECTION('',(0.,1.16190555239E-15,-1.));
#922 = ADVANCED_FACE('',(#923),#926,.F.);
#923 = FACE_BOUND('',#924,.T.);
#924 = EDGE_LOOP('',(#925));
#925 = ORIENTED_EDGE('',*,*,#765,.T.);
#926 = PLANE('',#927);
#927 = AXIS2_PLACEMENT_3D('',#928,#929,#930);
#928 = CARTESIAN_POINT('',(1.256021596746E-17,-0.76,0.375));
#929 = DIRECTION('',(0.,1.,-7.178163425404E-16));
#930 = DIRECTION('',(0.,7.178163425404E-16,1.));
#931 = ADVANCED_FACE('',(#932),#935,.F.);
#932 = FACE_BOUND('',#933,.T.);
#933 = EDGE_LOOP('',(#934));
#934 = ORIENTED_EDGE('',*,*,#790,.T.);
#935 = PLANE('',#936);
#936 = AXIS2_PLACEMENT_3D('',#937,#938,#939);
#937 = CARTESIAN_POINT('',(1.256021596746E-17,-0.76,0.375));
#938 = DIRECTION('',(0.,1.,-7.178163425404E-16));
#939 = DIRECTION('',(0.,7.178163425404E-16,1.));
#940 = ADVANCED_FACE('',(#941),#944,.F.);
#941 = FACE_BOUND('',#942,.T.);
#942 = EDGE_LOOP('',(#943));
#943 = ORIENTED_EDGE('',*,*,#815,.T.);
#944 = PLANE('',#945);
#945 = AXIS2_PLACEMENT_3D('',#946,#947,#948);
#946 = CARTESIAN_POINT('',(1.256021596746E-17,-0.76,0.375));
#947 = DIRECTION('',(0.,1.,-7.178163425404E-16));
#948 = DIRECTION('',(0.,7.178163425404E-16,1.));
#949 = ADVANCED_FACE('',(#950,#953),#956,.F.);
#950 = FACE_BOUND('',#951,.T.);
#951 = EDGE_LOOP('',(#952));
#952 = ORIENTED_EDGE('',*,*,#840,.F.);
#953 = FACE_BOUND('',#954,.T.);
#954 = EDGE_LOOP('',(#955));
#955 = ORIENTED_EDGE('',*,*,#884,.T.);
#956 = PLANE('',#957);
#957 = AXIS2_PLACEMENT_3D('',#958,#959,#960);
#958 = CARTESIAN_POINT('',(1.75,-3.810419290383E-16,0.375));
#959 = DIRECTION('',(-1.,2.22044604925E-16,-2.22044604925E-16));
#960 = DIRECTION('',(2.22044604925E-16,-2.465190328816E-32,-1.));
#961 = ( GEOMETRIC_REPRESENTATION_CONTEXT(3) 
GLOBAL_UNCERTAINTY_ASSIGNED_CONTEXT((#968)) GLOBAL_UNIT_ASSIGNED_CONTEXT
((#962,#966,#967)) REPRESENTATION_CONTEXT('Context #1',
  '3D Context with UNIT and UNCERTAINTY') );
#962 = ( CONVERSION_BASED_UNIT('INCH',#964) LENGTH_UNIT() NAMED_UNIT(
  #963) );
#963 = DIMENSIONAL_EXPONENTS(1.,0.,0.,0.,0.,0.,0.);
#964 = LENGTH_MEASURE_WITH_UNIT(25.4,#965);
#965 = ( LENGTH_UNIT() NAMED_UNIT(*) SI_UNIT(.MILLI.,.METRE.) );
#966 = ( NAMED_UNIT(*) PLANE_ANGLE_UNIT() SI_UNIT($,.RADIAN.) );
#967 = ( NAMED_UNIT(*) SI_UNIT($,.STERADIAN.) SOLID_ANGLE_UNIT() );
#968 = UNCERTAINTY_MEASURE_WITH_UNIT(LENGTH_MEASURE(3.937007874016E-09),
  #962,'distance_accuracy_value','confusion accuracy');
#969 = PRODUCT_RELATED_PRODUCT_CATEGORY('part',$,(#7));
#970 = MECHANICAL_DESIGN_GEOMETRIC_PRESENTATION_REPRESENTATION('',(#971)
  ,#961);
#971 = STYLED_ITEM('color',(#972),#15);
#972 = PRESENTATION_STYLE_ASSIGNMENT((#973,#979));
#973 = SURFACE_STYLE_USAGE(.BOTH.,#974);
#974 = SURFACE_SIDE_STYLE('',(#975));
#975 = SURFACE_STYLE_FILL_AREA(#976);
#976 = FILL_AREA_STYLE('',(#977));
#977 = FILL_AREA_STYLE_COLOUR('',#978);
#978 = COLOUR_RGB('',0.678431390124,0.709803936702,0.741176476869);
#979 = CURVE_STYLE('',#980,POSITIVE_LENGTH_MEASURE(0.1),#981);
#980 = DRAUGHTING_PRE_DEFINED_CURVE_FONT('continuous');
#981 = COLOUR_RGB('',9.803921802644E-02,9.803921802644E-02,
  9.803921802644E-02);
ENDSEC;
END-ISO-10303-21;
