ISO-10303-21;
HEADER;
FILE_DESCRIPTION(('FreeCAD Model'),'2;1');
FILE_NAME('Open CASCADE Shape Model','2024-10-31T14:07:51',(''),(''),
  'Open CASCADE STEP processor 7.7','Ondsel','Unknown');
FILE_SCHEMA(('AUTOMOTIVE_DESIGN { 1 0 10303 214 1 1 1 1 }'));
ENDSEC;
DATA;
#1 = APPLICATION_PROTOCOL_DEFINITION('international standard',
  'automotive_design',2000,#2);
#2 = APPLICATION_CONTEXT(
  'core data for automotive mechanical design processes');
#3 = SHAPE_DEFINITION_REPRESENTATION(#4,#10);
#4 = PRODUCT_DEFINITION_SHAPE('','',#5);
#5 = PRODUCT_DEFINITION('design','',#6,#9);
#6 = PRODUCT_DEFINITION_FORMATION('','',#7);
#7 = PRODUCT('rear-plate-thin','rear-plate-thin','',(#8));
#8 = PRODUCT_CONTEXT('',#2,'mechanical');
#9 = PRODUCT_DEFINITION_CONTEXT('part definition',#2,'design');
#10 = ADVANCED_BREP_SHAPE_REPRESENTATION('',(#11,#15),#1733);
#11 = AXIS2_PLACEMENT_3D('',#12,#13,#14);
#12 = CARTESIAN_POINT('',(0.,0.,0.));
#13 = DIRECTION('',(0.,0.,1.));
#14 = DIRECTION('',(1.,0.,-0.));
#15 = MANIFOLD_SOLID_BREP('',#16);
#16 = CLOSED_SHELL('',(#17,#79,#132,#408,#476,#515,#540,#565,#599,#624,
    #649,#674,#705,#729,#746,#777,#801,#818,#843,#874,#898,#915,#946,
    #970,#987,#1012,#1043,#1067,#1084,#1115,#1139,#1156,#1187,#1211,
    #1228,#1259,#1283,#1300,#1325,#1350,#1375,#1400,#1425,#1450,#1475,
    #1484,#1493,#1518,#1543,#1552,#1561,#1573,#1584,#1595,#1607,#1618,
    #1629,#1641,#1652,#1663,#1674,#1685,#1697,#1706,#1715,#1724));
#17 = ADVANCED_FACE('',(#18,#52,#63),#74,.F.);
#18 = FACE_BOUND('',#19,.F.);
#19 = EDGE_LOOP('',(#20,#30,#38,#46));
#20 = ORIENTED_EDGE('',*,*,#21,.T.);
#21 = EDGE_CURVE('',#22,#24,#26,.T.);
#22 = VERTEX_POINT('',#23);
#23 = CARTESIAN_POINT('',(-4.5,3.330669073875E-16,0.75));
#24 = VERTEX_POINT('',#25);
#25 = CARTESIAN_POINT('',(-4.5,-0.375,0.75));
#26 = LINE('',#27,#28);
#27 = CARTESIAN_POINT('',(-4.5,6.661377735293E-16,0.75));
#28 = VECTOR('',#29,3.937007874016E-02);
#29 = DIRECTION('',(0.,-1.,8.840892098501E-16));
#30 = ORIENTED_EDGE('',*,*,#31,.T.);
#31 = EDGE_CURVE('',#24,#32,#34,.T.);
#32 = VERTEX_POINT('',#33);
#33 = CARTESIAN_POINT('',(-4.5,-0.375,-0.75));
#34 = LINE('',#35,#36);
#35 = CARTESIAN_POINT('',(-4.5,-0.375,0.75));
#36 = VECTOR('',#37,3.937007874016E-02);
#37 = DIRECTION('',(0.,-4.440892098501E-16,-1.));
#38 = ORIENTED_EDGE('',*,*,#39,.F.);
#39 = EDGE_CURVE('',#40,#32,#42,.T.);
#40 = VERTEX_POINT('',#41);
#41 = CARTESIAN_POINT('',(-4.5,-3.330669073875E-16,-0.75));
#42 = LINE('',#43,#44);
#43 = CARTESIAN_POINT('',(-4.5,-6.661377735293E-16,-0.75));
#44 = VECTOR('',#45,3.937007874016E-02);
#45 = DIRECTION('',(0.,-1.,8.840892098501E-16));
#46 = ORIENTED_EDGE('',*,*,#47,.F.);
#47 = EDGE_CURVE('',#22,#40,#48,.T.);
#48 = LINE('',#49,#50);
#49 = CARTESIAN_POINT('',(-4.5,3.330669073875E-16,0.75));
#50 = VECTOR('',#51,3.937007874016E-02);
#51 = DIRECTION('',(0.,-4.440892098501E-16,-1.));
#52 = FACE_BOUND('',#53,.F.);
#53 = EDGE_LOOP('',(#54));
#54 = ORIENTED_EDGE('',*,*,#55,.T.);
#55 = EDGE_CURVE('',#56,#56,#58,.T.);
#56 = VERTEX_POINT('',#57);
#57 = CARTESIAN_POINT('',(-4.5,-0.1875,0.3875));
#58 = CIRCLE('',#59,0.1125);
#59 = AXIS2_PLACEMENT_3D('',#60,#61,#62);
#60 = CARTESIAN_POINT('',(-4.5,-0.1875,0.5));
#61 = DIRECTION('',(-1.,-0.,0.));
#62 = DIRECTION('',(0.,-4.440892098501E-16,-1.));
#63 = FACE_BOUND('',#64,.F.);
#64 = EDGE_LOOP('',(#65));
#65 = ORIENTED_EDGE('',*,*,#66,.T.);
#66 = EDGE_CURVE('',#67,#67,#69,.T.);
#67 = VERTEX_POINT('',#68);
#68 = CARTESIAN_POINT('',(-4.5,-0.1875,-0.6125));
#69 = CIRCLE('',#70,0.1125);
#70 = AXIS2_PLACEMENT_3D('',#71,#72,#73);
#71 = CARTESIAN_POINT('',(-4.5,-0.1875,-0.5));
#72 = DIRECTION('',(-1.,-0.,0.));
#73 = DIRECTION('',(0.,-4.440892098501E-16,-1.));
#74 = PLANE('',#75);
#75 = AXIS2_PLACEMENT_3D('',#76,#77,#78);
#76 = CARTESIAN_POINT('',(-4.5,6.661377735293E-16,0.75));
#77 = DIRECTION('',(1.,0.,0.));
#78 = DIRECTION('',(0.,-8.840892098501E-16,-1.));
#79 = ADVANCED_FACE('',(#80,#105,#116),#127,.F.);
#80 = FACE_BOUND('',#81,.F.);
#81 = EDGE_LOOP('',(#82,#92,#98,#99));
#82 = ORIENTED_EDGE('',*,*,#83,.T.);
#83 = EDGE_CURVE('',#84,#86,#88,.T.);
#84 = VERTEX_POINT('',#85);
#85 = CARTESIAN_POINT('',(4.5,3.330669073875E-16,0.75));
#86 = VERTEX_POINT('',#87);
#87 = CARTESIAN_POINT('',(4.5,-0.375,0.75));
#88 = LINE('',#89,#90);
#89 = CARTESIAN_POINT('',(4.5,6.661377735293E-16,0.75));
#90 = VECTOR('',#91,3.937007874016E-02);
#91 = DIRECTION('',(0.,-1.,8.840892098501E-16));
#92 = ORIENTED_EDGE('',*,*,#93,.T.);
#93 = EDGE_CURVE('',#86,#24,#94,.T.);
#94 = LINE('',#95,#96);
#95 = CARTESIAN_POINT('',(4.5,-0.375,0.75));
#96 = VECTOR('',#97,3.937007874016E-02);
#97 = DIRECTION('',(-1.,0.,0.));
#98 = ORIENTED_EDGE('',*,*,#21,.F.);
#99 = ORIENTED_EDGE('',*,*,#100,.F.);
#100 = EDGE_CURVE('',#84,#22,#101,.T.);
#101 = LINE('',#102,#103);
#102 = CARTESIAN_POINT('',(4.5,3.330669073875E-16,0.75));
#103 = VECTOR('',#104,3.937007874016E-02);
#104 = DIRECTION('',(-1.,0.,0.));
#105 = FACE_BOUND('',#106,.F.);
#106 = EDGE_LOOP('',(#107));
#107 = ORIENTED_EDGE('',*,*,#108,.T.);
#108 = EDGE_CURVE('',#109,#109,#111,.T.);
#109 = VERTEX_POINT('',#110);
#110 = CARTESIAN_POINT('',(1.3875,-0.1875,0.75));
#111 = CIRCLE('',#112,0.1125);
#112 = AXIS2_PLACEMENT_3D('',#113,#114,#115);
#113 = CARTESIAN_POINT('',(1.5,-0.1875,0.75));
#114 = DIRECTION('',(0.,4.440892098501E-16,1.));
#115 = DIRECTION('',(-1.,0.,0.));
#116 = FACE_BOUND('',#117,.F.);
#117 = EDGE_LOOP('',(#118));
#118 = ORIENTED_EDGE('',*,*,#119,.T.);
#119 = EDGE_CURVE('',#120,#120,#122,.T.);
#120 = VERTEX_POINT('',#121);
#121 = CARTESIAN_POINT('',(-1.6125,-0.1875,0.75));
#122 = CIRCLE('',#123,0.1125);
#123 = AXIS2_PLACEMENT_3D('',#124,#125,#126);
#124 = CARTESIAN_POINT('',(-1.5,-0.1875,0.75));
#125 = DIRECTION('',(0.,4.440892098501E-16,1.));
#126 = DIRECTION('',(-1.,0.,0.));
#127 = PLANE('',#128);
#128 = AXIS2_PLACEMENT_3D('',#129,#130,#131);
#129 = CARTESIAN_POINT('',(4.5,6.661377735293E-16,0.75));
#130 = DIRECTION('',(0.,-8.840892098501E-16,-1.));
#131 = DIRECTION('',(-1.,0.,0.));
#132 = ADVANCED_FACE('',(#133,#151,#162,#188,#214,#225,#251,#277,#288,
    #314,#340,#366,#392),#403,.T.);
#133 = FACE_BOUND('',#134,.T.);
#134 = EDGE_LOOP('',(#135,#136,#137,#145));
#135 = ORIENTED_EDGE('',*,*,#47,.F.);
#136 = ORIENTED_EDGE('',*,*,#100,.F.);
#137 = ORIENTED_EDGE('',*,*,#138,.F.);
#138 = EDGE_CURVE('',#139,#84,#141,.T.);
#139 = VERTEX_POINT('',#140);
#140 = CARTESIAN_POINT('',(4.5,-3.330669073875E-16,-0.75));
#141 = LINE('',#142,#143);
#142 = CARTESIAN_POINT('',(4.5,-3.330669073875E-16,-0.75));
#143 = VECTOR('',#144,3.937007874016E-02);
#144 = DIRECTION('',(0.,4.440892098501E-16,1.));
#145 = ORIENTED_EDGE('',*,*,#146,.F.);
#146 = EDGE_CURVE('',#40,#139,#147,.T.);
#147 = LINE('',#148,#149);
#148 = CARTESIAN_POINT('',(-4.5,-3.330669073875E-16,-0.75));
#149 = VECTOR('',#150,3.937007874016E-02);
#150 = DIRECTION('',(1.,0.,0.));
#151 = FACE_BOUND('',#152,.T.);
#152 = EDGE_LOOP('',(#153));
#153 = ORIENTED_EDGE('',*,*,#154,.F.);
#154 = EDGE_CURVE('',#155,#155,#157,.T.);
#155 = VERTEX_POINT('',#156);
#156 = CARTESIAN_POINT('',(-2.6675,-2.22044604925E-16,-0.5));
#157 = CIRCLE('',#158,0.145);
#158 = AXIS2_PLACEMENT_3D('',#159,#160,#161);
#159 = CARTESIAN_POINT('',(-2.8125,-2.22044604925E-16,-0.5));
#160 = DIRECTION('',(0.,1.,-4.440892098501E-16));
#161 = DIRECTION('',(1.,0.,0.));
#162 = FACE_BOUND('',#163,.T.);
#163 = EDGE_LOOP('',(#164,#174,#182));
#164 = ORIENTED_EDGE('',*,*,#165,.T.);
#165 = EDGE_CURVE('',#166,#168,#170,.T.);
#166 = VERTEX_POINT('',#167);
#167 = CARTESIAN_POINT('',(-4.361721614173,9.684967526121E-16,
    -9.684967526121E-16));
#168 = VERTEX_POINT('',#169);
#169 = CARTESIAN_POINT('',(-3.029464370079,8.114540972667E-16,-0.625));
#170 = LINE('',#171,#172);
#171 = CARTESIAN_POINT('',(-4.361721614173,9.684967526121E-16,
    -9.684967526121E-16));
#172 = VECTOR('',#173,3.937007874016E-02);
#173 = DIRECTION('',(0.905327162004,-1.067173641634E-16,-0.424714880524)
  );
#174 = ORIENTED_EDGE('',*,*,#175,.T.);
#175 = EDGE_CURVE('',#168,#176,#178,.T.);
#176 = VERTEX_POINT('',#177);
#177 = CARTESIAN_POINT('',(-3.029464370079,5.338983411104E-16,0.625));
#178 = LINE('',#179,#180);
#179 = CARTESIAN_POINT('',(-3.029464370079,8.114540972667E-16,-0.625));
#180 = VECTOR('',#181,3.937007874016E-02);
#181 = DIRECTION('',(-2.22044604925E-16,-2.22044604925E-16,1.));
#182 = ORIENTED_EDGE('',*,*,#183,.T.);
#183 = EDGE_CURVE('',#176,#166,#184,.T.);
#184 = LINE('',#185,#186);
#185 = CARTESIAN_POINT('',(-3.029464370079,5.338983411104E-16,0.625));
#186 = VECTOR('',#187,3.937007874016E-02);
#187 = DIRECTION('',(-0.905327162004,2.953286598667E-16,-0.424714880524)
  );
#188 = FACE_BOUND('',#189,.T.);
#189 = EDGE_LOOP('',(#190,#200,#208));
#190 = ORIENTED_EDGE('',*,*,#191,.T.);
#191 = EDGE_CURVE('',#192,#194,#196,.T.);
#192 = VERTEX_POINT('',#193);
#193 = CARTESIAN_POINT('',(-2.560938818898,0.,0.6875));
#194 = VERTEX_POINT('',#195);
#195 = CARTESIAN_POINT('',(-2.560938818898,0.,-0.637237755906));
#196 = LINE('',#197,#198);
#197 = CARTESIAN_POINT('',(-2.560938818898,0.,0.6875));
#198 = VECTOR('',#199,3.937007874016E-02);
#199 = DIRECTION('',(0.,0.,-1.));
#200 = ORIENTED_EDGE('',*,*,#201,.T.);
#201 = EDGE_CURVE('',#194,#202,#204,.T.);
#202 = VERTEX_POINT('',#203);
#203 = CARTESIAN_POINT('',(-1.849267048271,0.,0.6875));
#204 = LINE('',#205,#206);
#205 = CARTESIAN_POINT('',(-2.560938818898,0.,-0.637237755906));
#206 = VECTOR('',#207,3.937007874016E-02);
#207 = DIRECTION('',(0.473249745917,0.,0.880928304682));
#208 = ORIENTED_EDGE('',*,*,#209,.T.);
#209 = EDGE_CURVE('',#202,#192,#210,.T.);
#210 = LINE('',#211,#212);
#211 = CARTESIAN_POINT('',(-1.849267048271,0.,0.6875));
#212 = VECTOR('',#213,3.937007874016E-02);
#213 = DIRECTION('',(-1.,0.,-0.));
#214 = FACE_BOUND('',#215,.T.);
#215 = EDGE_LOOP('',(#216));
#216 = ORIENTED_EDGE('',*,*,#217,.F.);
#217 = EDGE_CURVE('',#218,#218,#220,.T.);
#218 = VERTEX_POINT('',#219);
#219 = CARTESIAN_POINT('',(-2.6675,2.22044604925E-16,0.5));
#220 = CIRCLE('',#221,0.145);
#221 = AXIS2_PLACEMENT_3D('',#222,#223,#224);
#222 = CARTESIAN_POINT('',(-2.8125,2.22044604925E-16,0.5));
#223 = DIRECTION('',(0.,1.,-4.440892098501E-16));
#224 = DIRECTION('',(1.,0.,0.));
#225 = FACE_BOUND('',#226,.T.);
#226 = EDGE_LOOP('',(#227,#237,#245));
#227 = ORIENTED_EDGE('',*,*,#228,.T.);
#228 = EDGE_CURVE('',#229,#231,#233,.T.);
#229 = VERTEX_POINT('',#230);
#230 = CARTESIAN_POINT('',(-2.419850655841,0.,-0.6875));
#231 = VERTEX_POINT('',#232);
#232 = CARTESIAN_POINT('',(-1.7,0.,-0.6875));
#233 = LINE('',#234,#235);
#234 = CARTESIAN_POINT('',(-2.419850655841,0.,-0.6875));
#235 = VECTOR('',#236,3.937007874016E-02);
#236 = DIRECTION('',(1.,0.,0.));
#237 = ORIENTED_EDGE('',*,*,#238,.T.);
#238 = EDGE_CURVE('',#231,#239,#241,.T.);
#239 = VERTEX_POINT('',#240);
#240 = CARTESIAN_POINT('',(-1.7,0.,0.6875));
#241 = LINE('',#242,#243);
#242 = CARTESIAN_POINT('',(-1.7,0.,-0.6875));
#243 = VECTOR('',#244,3.937007874016E-02);
#244 = DIRECTION('',(0.,0.,1.));
#245 = ORIENTED_EDGE('',*,*,#246,.T.);
#246 = EDGE_CURVE('',#239,#229,#247,.T.);
#247 = LINE('',#248,#249);
#248 = CARTESIAN_POINT('',(-1.7,0.,0.6875));
#249 = VECTOR('',#250,3.937007874016E-02);
#250 = DIRECTION('',(-0.4638110967,0.,-0.885934120902));
#251 = FACE_BOUND('',#252,.T.);
#252 = EDGE_LOOP('',(#253,#263,#271));
#253 = ORIENTED_EDGE('',*,*,#254,.F.);
#254 = EDGE_CURVE('',#255,#257,#259,.T.);
#255 = VERTEX_POINT('',#256);
#256 = CARTESIAN_POINT('',(-1.28,0.,-0.6875));
#257 = VERTEX_POINT('',#258);
#258 = CARTESIAN_POINT('',(-1.28,0.,0.6875));
#259 = LINE('',#260,#261);
#260 = CARTESIAN_POINT('',(-1.28,0.,-0.6875));
#261 = VECTOR('',#262,3.937007874016E-02);
#262 = DIRECTION('',(0.,0.,1.));
#263 = ORIENTED_EDGE('',*,*,#264,.F.);
#264 = EDGE_CURVE('',#265,#255,#267,.T.);
#265 = VERTEX_POINT('',#266);
#266 = CARTESIAN_POINT('',(1.03,0.,-0.6875));
#267 = LINE('',#268,#269);
#268 = CARTESIAN_POINT('',(1.03,0.,-0.6875));
#269 = VECTOR('',#270,3.937007874016E-02);
#270 = DIRECTION('',(-1.,0.,-0.));
#271 = ORIENTED_EDGE('',*,*,#272,.F.);
#272 = EDGE_CURVE('',#257,#265,#273,.T.);
#273 = LINE('',#274,#275);
#274 = CARTESIAN_POINT('',(-1.28,0.,0.6875));
#275 = VECTOR('',#276,3.937007874016E-02);
#276 = DIRECTION('',(0.85929288441,0.,-0.511483859768));
#277 = FACE_BOUND('',#278,.T.);
#278 = EDGE_LOOP('',(#279));
#279 = ORIENTED_EDGE('',*,*,#280,.F.);
#280 = EDGE_CURVE('',#281,#281,#283,.T.);
#281 = VERTEX_POINT('',#282);
#282 = CARTESIAN_POINT('',(2.9575,-2.22044604925E-16,-0.5));
#283 = CIRCLE('',#284,0.145);
#284 = AXIS2_PLACEMENT_3D('',#285,#286,#287);
#285 = CARTESIAN_POINT('',(2.8125,-2.22044604925E-16,-0.5));
#286 = DIRECTION('',(0.,1.,-4.440892098501E-16));
#287 = DIRECTION('',(1.,0.,0.));
#288 = FACE_BOUND('',#289,.T.);
#289 = EDGE_LOOP('',(#290,#300,#308));
#290 = ORIENTED_EDGE('',*,*,#291,.T.);
#291 = EDGE_CURVE('',#292,#294,#296,.T.);
#292 = VERTEX_POINT('',#293);
#293 = CARTESIAN_POINT('',(-1.03,0.,0.6875));
#294 = VERTEX_POINT('',#295);
#295 = CARTESIAN_POINT('',(1.28,0.,-0.6875));
#296 = LINE('',#297,#298);
#297 = CARTESIAN_POINT('',(-1.03,0.,0.6875));
#298 = VECTOR('',#299,3.937007874016E-02);
#299 = DIRECTION('',(0.85929288441,0.,-0.511483859768));
#300 = ORIENTED_EDGE('',*,*,#301,.T.);
#301 = EDGE_CURVE('',#294,#302,#304,.T.);
#302 = VERTEX_POINT('',#303);
#303 = CARTESIAN_POINT('',(1.28,0.,0.6875));
#304 = LINE('',#305,#306);
#305 = CARTESIAN_POINT('',(1.28,0.,-0.6875));
#306 = VECTOR('',#307,3.937007874016E-02);
#307 = DIRECTION('',(0.,0.,1.));
#308 = ORIENTED_EDGE('',*,*,#309,.T.);
#309 = EDGE_CURVE('',#302,#292,#310,.T.);
#310 = LINE('',#311,#312);
#311 = CARTESIAN_POINT('',(1.28,0.,0.6875));
#312 = VECTOR('',#313,3.937007874016E-02);
#313 = DIRECTION('',(-1.,0.,-0.));
#314 = FACE_BOUND('',#315,.T.);
#315 = EDGE_LOOP('',(#316,#326,#334));
#316 = ORIENTED_EDGE('',*,*,#317,.F.);
#317 = EDGE_CURVE('',#318,#320,#322,.T.);
#318 = VERTEX_POINT('',#319);
#319 = CARTESIAN_POINT('',(1.7,0.,-0.6875));
#320 = VERTEX_POINT('',#321);
#321 = CARTESIAN_POINT('',(1.7,0.,0.6875));
#322 = LINE('',#323,#324);
#323 = CARTESIAN_POINT('',(1.7,0.,-0.6875));
#324 = VECTOR('',#325,3.937007874016E-02);
#325 = DIRECTION('',(0.,0.,1.));
#326 = ORIENTED_EDGE('',*,*,#327,.F.);
#327 = EDGE_CURVE('',#328,#318,#330,.T.);
#328 = VERTEX_POINT('',#329);
#329 = CARTESIAN_POINT('',(2.419850655841,0.,-0.6875));
#330 = LINE('',#331,#332);
#331 = CARTESIAN_POINT('',(2.419850655841,0.,-0.6875));
#332 = VECTOR('',#333,3.937007874016E-02);
#333 = DIRECTION('',(-1.,0.,-0.));
#334 = ORIENTED_EDGE('',*,*,#335,.F.);
#335 = EDGE_CURVE('',#320,#328,#336,.T.);
#336 = LINE('',#337,#338);
#337 = CARTESIAN_POINT('',(1.7,0.,0.6875));
#338 = VECTOR('',#339,3.937007874016E-02);
#339 = DIRECTION('',(0.4638110967,0.,-0.885934120902));
#340 = FACE_BOUND('',#341,.T.);
#341 = EDGE_LOOP('',(#342,#352,#360));
#342 = ORIENTED_EDGE('',*,*,#343,.T.);
#343 = EDGE_CURVE('',#344,#346,#348,.T.);
#344 = VERTEX_POINT('',#345);
#345 = CARTESIAN_POINT('',(1.849267048271,0.,0.6875));
#346 = VERTEX_POINT('',#347);
#347 = CARTESIAN_POINT('',(2.560938818898,0.,-0.637237755906));
#348 = LINE('',#349,#350);
#349 = CARTESIAN_POINT('',(1.849267048271,0.,0.6875));
#350 = VECTOR('',#351,3.937007874016E-02);
#351 = DIRECTION('',(0.473249745917,0.,-0.880928304682));
#352 = ORIENTED_EDGE('',*,*,#353,.T.);
#353 = EDGE_CURVE('',#346,#354,#356,.T.);
#354 = VERTEX_POINT('',#355);
#355 = CARTESIAN_POINT('',(2.560938818898,0.,0.6875));
#356 = LINE('',#357,#358);
#357 = CARTESIAN_POINT('',(2.560938818898,0.,-0.637237755906));
#358 = VECTOR('',#359,3.937007874016E-02);
#359 = DIRECTION('',(0.,0.,1.));
#360 = ORIENTED_EDGE('',*,*,#361,.T.);
#361 = EDGE_CURVE('',#354,#344,#362,.T.);
#362 = LINE('',#363,#364);
#363 = CARTESIAN_POINT('',(2.560938818898,0.,0.6875));
#364 = VECTOR('',#365,3.937007874016E-02);
#365 = DIRECTION('',(-1.,0.,-0.));
#366 = FACE_BOUND('',#367,.T.);
#367 = EDGE_LOOP('',(#368,#378,#386));
#368 = ORIENTED_EDGE('',*,*,#369,.F.);
#369 = EDGE_CURVE('',#370,#372,#374,.T.);
#370 = VERTEX_POINT('',#371);
#371 = CARTESIAN_POINT('',(3.029464370079,6.938893903907E-17,-0.625));
#372 = VERTEX_POINT('',#373);
#373 = CARTESIAN_POINT('',(3.029464370079,-6.938893903907E-17,0.625));
#374 = LINE('',#375,#376);
#375 = CARTESIAN_POINT('',(3.029464370079,6.938893903907E-17,-0.625));
#376 = VECTOR('',#377,3.937007874016E-02);
#377 = DIRECTION('',(0.,-1.110223024625E-16,1.));
#378 = ORIENTED_EDGE('',*,*,#379,.F.);
#379 = EDGE_CURVE('',#380,#370,#382,.T.);
#380 = VERTEX_POINT('',#381);
#381 = CARTESIAN_POINT('',(4.361721614173,0.,0.));
#382 = LINE('',#383,#384);
#383 = CARTESIAN_POINT('',(4.361721614173,0.,0.));
#384 = VECTOR('',#385,3.937007874016E-02);
#385 = DIRECTION('',(-0.905327162004,4.715282392583E-17,-0.424714880524)
  );
#386 = ORIENTED_EDGE('',*,*,#387,.F.);
#387 = EDGE_CURVE('',#372,#380,#388,.T.);
#388 = LINE('',#389,#390);
#389 = CARTESIAN_POINT('',(3.029464370079,-6.938893903907E-17,0.625));
#390 = VECTOR('',#391,3.937007874016E-02);
#391 = DIRECTION('',(0.905327162004,4.715282392583E-17,-0.424714880524)
  );
#392 = FACE_BOUND('',#393,.T.);
#393 = EDGE_LOOP('',(#394));
#394 = ORIENTED_EDGE('',*,*,#395,.F.);
#395 = EDGE_CURVE('',#396,#396,#398,.T.);
#396 = VERTEX_POINT('',#397);
#397 = CARTESIAN_POINT('',(2.9575,2.22044604925E-16,0.5));
#398 = CIRCLE('',#399,0.145);
#399 = AXIS2_PLACEMENT_3D('',#400,#401,#402);
#400 = CARTESIAN_POINT('',(2.8125,2.22044604925E-16,0.5));
#401 = DIRECTION('',(0.,1.,-4.440892098501E-16));
#402 = DIRECTION('',(1.,0.,0.));
#403 = PLANE('',#404);
#404 = AXIS2_PLACEMENT_3D('',#405,#406,#407);
#405 = CARTESIAN_POINT('',(-9.803149606299E-17,-5.367534937952E-32,
    -1.208661417323E-16));
#406 = DIRECTION('',(0.,1.,-4.440892098501E-16));
#407 = DIRECTION('',(0.,4.440892098501E-16,1.));
#408 = ADVANCED_FACE('',(#409,#427,#438,#449,#460),#471,.F.);
#409 = FACE_BOUND('',#410,.T.);
#410 = EDGE_LOOP('',(#411,#412,#420,#426));
#411 = ORIENTED_EDGE('',*,*,#31,.T.);
#412 = ORIENTED_EDGE('',*,*,#413,.T.);
#413 = EDGE_CURVE('',#32,#414,#416,.T.);
#414 = VERTEX_POINT('',#415);
#415 = CARTESIAN_POINT('',(4.5,-0.375,-0.75));
#416 = LINE('',#417,#418);
#417 = CARTESIAN_POINT('',(-4.5,-0.375,-0.75));
#418 = VECTOR('',#419,3.937007874016E-02);
#419 = DIRECTION('',(1.,0.,0.));
#420 = ORIENTED_EDGE('',*,*,#421,.T.);
#421 = EDGE_CURVE('',#414,#86,#422,.T.);
#422 = LINE('',#423,#424);
#423 = CARTESIAN_POINT('',(4.5,-0.375,-0.75));
#424 = VECTOR('',#425,3.937007874016E-02);
#425 = DIRECTION('',(0.,4.440892098501E-16,1.));
#426 = ORIENTED_EDGE('',*,*,#93,.T.);
#427 = FACE_BOUND('',#428,.F.);
#428 = EDGE_LOOP('',(#429));
#429 = ORIENTED_EDGE('',*,*,#430,.T.);
#430 = EDGE_CURVE('',#431,#431,#433,.T.);
#431 = VERTEX_POINT('',#432);
#432 = CARTESIAN_POINT('',(2.925,-0.375,0.5));
#433 = CIRCLE('',#434,0.1125);
#434 = AXIS2_PLACEMENT_3D('',#435,#436,#437);
#435 = CARTESIAN_POINT('',(2.8125,-0.375,0.5));
#436 = DIRECTION('',(0.,-1.,4.440892098501E-16));
#437 = DIRECTION('',(1.,0.,0.));
#438 = FACE_BOUND('',#439,.F.);
#439 = EDGE_LOOP('',(#440));
#440 = ORIENTED_EDGE('',*,*,#441,.T.);
#441 = EDGE_CURVE('',#442,#442,#444,.T.);
#442 = VERTEX_POINT('',#443);
#443 = CARTESIAN_POINT('',(2.925,-0.375,-0.5));
#444 = CIRCLE('',#445,0.1125);
#445 = AXIS2_PLACEMENT_3D('',#446,#447,#448);
#446 = CARTESIAN_POINT('',(2.8125,-0.375,-0.5));
#447 = DIRECTION('',(0.,-1.,4.440892098501E-16));
#448 = DIRECTION('',(1.,0.,0.));
#449 = FACE_BOUND('',#450,.F.);
#450 = EDGE_LOOP('',(#451));
#451 = ORIENTED_EDGE('',*,*,#452,.T.);
#452 = EDGE_CURVE('',#453,#453,#455,.T.);
#453 = VERTEX_POINT('',#454);
#454 = CARTESIAN_POINT('',(-2.7,-0.375,-0.5));
#455 = CIRCLE('',#456,0.1125);
#456 = AXIS2_PLACEMENT_3D('',#457,#458,#459);
#457 = CARTESIAN_POINT('',(-2.8125,-0.375,-0.5));
#458 = DIRECTION('',(0.,-1.,4.440892098501E-16));
#459 = DIRECTION('',(1.,0.,0.));
#460 = FACE_BOUND('',#461,.F.);
#461 = EDGE_LOOP('',(#462));
#462 = ORIENTED_EDGE('',*,*,#463,.T.);
#463 = EDGE_CURVE('',#464,#464,#466,.T.);
#464 = VERTEX_POINT('',#465);
#465 = CARTESIAN_POINT('',(-2.7,-0.375,0.5));
#466 = CIRCLE('',#467,0.1125);
#467 = AXIS2_PLACEMENT_3D('',#468,#469,#470);
#468 = CARTESIAN_POINT('',(-2.8125,-0.375,0.5));
#469 = DIRECTION('',(0.,-1.,4.440892098501E-16));
#470 = DIRECTION('',(1.,0.,0.));
#471 = PLANE('',#472);
#472 = AXIS2_PLACEMENT_3D('',#473,#474,#475);
#473 = CARTESIAN_POINT('',(-9.803149606299E-17,-0.375,1.398706172756E-16
    ));
#474 = DIRECTION('',(0.,1.,-4.440892098501E-16));
#475 = DIRECTION('',(0.,4.440892098501E-16,1.));
#476 = ADVANCED_FACE('',(#477,#488,#499),#510,.F.);
#477 = FACE_BOUND('',#478,.F.);
#478 = EDGE_LOOP('',(#479,#480,#481,#487));
#479 = ORIENTED_EDGE('',*,*,#39,.T.);
#480 = ORIENTED_EDGE('',*,*,#413,.T.);
#481 = ORIENTED_EDGE('',*,*,#482,.F.);
#482 = EDGE_CURVE('',#139,#414,#483,.T.);
#483 = LINE('',#484,#485);
#484 = CARTESIAN_POINT('',(4.5,-6.661377735293E-16,-0.75));
#485 = VECTOR('',#486,3.937007874016E-02);
#486 = DIRECTION('',(0.,-1.,8.840892098501E-16));
#487 = ORIENTED_EDGE('',*,*,#146,.F.);
#488 = FACE_BOUND('',#489,.F.);
#489 = EDGE_LOOP('',(#490));
#490 = ORIENTED_EDGE('',*,*,#491,.T.);
#491 = EDGE_CURVE('',#492,#492,#494,.T.);
#492 = VERTEX_POINT('',#493);
#493 = CARTESIAN_POINT('',(-1.3875,-0.1875,-0.75));
#494 = CIRCLE('',#495,0.1125);
#495 = AXIS2_PLACEMENT_3D('',#496,#497,#498);
#496 = CARTESIAN_POINT('',(-1.5,-0.1875,-0.75));
#497 = DIRECTION('',(0.,-4.440892098501E-16,-1.));
#498 = DIRECTION('',(1.,0.,0.));
#499 = FACE_BOUND('',#500,.F.);
#500 = EDGE_LOOP('',(#501));
#501 = ORIENTED_EDGE('',*,*,#502,.T.);
#502 = EDGE_CURVE('',#503,#503,#505,.T.);
#503 = VERTEX_POINT('',#504);
#504 = CARTESIAN_POINT('',(1.6125,-0.1875,-0.75));
#505 = CIRCLE('',#506,0.1125);
#506 = AXIS2_PLACEMENT_3D('',#507,#508,#509);
#507 = CARTESIAN_POINT('',(1.5,-0.1875,-0.75));
#508 = DIRECTION('',(0.,-4.440892098501E-16,-1.));
#509 = DIRECTION('',(1.,0.,0.));
#510 = PLANE('',#511);
#511 = AXIS2_PLACEMENT_3D('',#512,#513,#514);
#512 = CARTESIAN_POINT('',(-4.5,-6.661377735293E-16,-0.75));
#513 = DIRECTION('',(0.,8.840892098501E-16,1.));
#514 = DIRECTION('',(1.,0.,0.));
#515 = ADVANCED_FACE('',(#516),#535,.F.);
#516 = FACE_BOUND('',#517,.F.);
#517 = EDGE_LOOP('',(#518,#526,#533,#534));
#518 = ORIENTED_EDGE('',*,*,#519,.T.);
#519 = EDGE_CURVE('',#56,#520,#522,.T.);
#520 = VERTEX_POINT('',#521);
#521 = CARTESIAN_POINT('',(-4.26,-0.1875,0.3875));
#522 = LINE('',#523,#524);
#523 = CARTESIAN_POINT('',(-4.5,-0.1875,0.3875));
#524 = VECTOR('',#525,3.937007874016E-02);
#525 = DIRECTION('',(1.,9.769962616701E-32,2.2E-16));
#526 = ORIENTED_EDGE('',*,*,#527,.T.);
#527 = EDGE_CURVE('',#520,#520,#528,.T.);
#528 = CIRCLE('',#529,0.1125);
#529 = AXIS2_PLACEMENT_3D('',#530,#531,#532);
#530 = CARTESIAN_POINT('',(-4.26,-0.1875,0.5));
#531 = DIRECTION('',(-1.,-0.,0.));
#532 = DIRECTION('',(0.,-4.440892098501E-16,-1.));
#533 = ORIENTED_EDGE('',*,*,#519,.F.);
#534 = ORIENTED_EDGE('',*,*,#55,.F.);
#535 = CYLINDRICAL_SURFACE('',#536,0.1125);
#536 = AXIS2_PLACEMENT_3D('',#537,#538,#539);
#537 = CARTESIAN_POINT('',(-4.5,-0.1875,0.5));
#538 = DIRECTION('',(-1.,-9.769962616701E-32,-2.2E-16));
#539 = DIRECTION('',(2.2E-16,-6.640892098501E-16,-1.));
#540 = ADVANCED_FACE('',(#541),#560,.F.);
#541 = FACE_BOUND('',#542,.F.);
#542 = EDGE_LOOP('',(#543,#551,#558,#559));
#543 = ORIENTED_EDGE('',*,*,#544,.T.);
#544 = EDGE_CURVE('',#67,#545,#547,.T.);
#545 = VERTEX_POINT('',#546);
#546 = CARTESIAN_POINT('',(-4.26,-0.1875,-0.6125));
#547 = LINE('',#548,#549);
#548 = CARTESIAN_POINT('',(-4.5,-0.1875,-0.6125));
#549 = VECTOR('',#550,3.937007874016E-02);
#550 = DIRECTION('',(1.,9.769962616701E-32,2.2E-16));
#551 = ORIENTED_EDGE('',*,*,#552,.T.);
#552 = EDGE_CURVE('',#545,#545,#553,.T.);
#553 = CIRCLE('',#554,0.1125);
#554 = AXIS2_PLACEMENT_3D('',#555,#556,#557);
#555 = CARTESIAN_POINT('',(-4.26,-0.1875,-0.5));
#556 = DIRECTION('',(-1.,-0.,0.));
#557 = DIRECTION('',(0.,-4.440892098501E-16,-1.));
#558 = ORIENTED_EDGE('',*,*,#544,.F.);
#559 = ORIENTED_EDGE('',*,*,#66,.F.);
#560 = CYLINDRICAL_SURFACE('',#561,0.1125);
#561 = AXIS2_PLACEMENT_3D('',#562,#563,#564);
#562 = CARTESIAN_POINT('',(-4.5,-0.1875,-0.5));
#563 = DIRECTION('',(-1.,-9.769962616701E-32,-2.2E-16));
#564 = DIRECTION('',(2.2E-16,-6.640892098501E-16,-1.));
#565 = ADVANCED_FACE('',(#566,#572,#583),#594,.F.);
#566 = FACE_BOUND('',#567,.F.);
#567 = EDGE_LOOP('',(#568,#569,#570,#571));
#568 = ORIENTED_EDGE('',*,*,#482,.T.);
#569 = ORIENTED_EDGE('',*,*,#421,.T.);
#570 = ORIENTED_EDGE('',*,*,#83,.F.);
#571 = ORIENTED_EDGE('',*,*,#138,.F.);
#572 = FACE_BOUND('',#573,.F.);
#573 = EDGE_LOOP('',(#574));
#574 = ORIENTED_EDGE('',*,*,#575,.T.);
#575 = EDGE_CURVE('',#576,#576,#578,.T.);
#576 = VERTEX_POINT('',#577);
#577 = CARTESIAN_POINT('',(4.5,-0.1875,0.6125));
#578 = CIRCLE('',#579,0.1125);
#579 = AXIS2_PLACEMENT_3D('',#580,#581,#582);
#580 = CARTESIAN_POINT('',(4.5,-0.1875,0.5));
#581 = DIRECTION('',(1.,0.,-0.));
#582 = DIRECTION('',(0.,4.440892098501E-16,1.));
#583 = FACE_BOUND('',#584,.F.);
#584 = EDGE_LOOP('',(#585));
#585 = ORIENTED_EDGE('',*,*,#586,.T.);
#586 = EDGE_CURVE('',#587,#587,#589,.T.);
#587 = VERTEX_POINT('',#588);
#588 = CARTESIAN_POINT('',(4.5,-0.1875,-0.3875));
#589 = CIRCLE('',#590,0.1125);
#590 = AXIS2_PLACEMENT_3D('',#591,#592,#593);
#591 = CARTESIAN_POINT('',(4.5,-0.1875,-0.5));
#592 = DIRECTION('',(1.,0.,-0.));
#593 = DIRECTION('',(0.,4.440892098501E-16,1.));
#594 = PLANE('',#595);
#595 = AXIS2_PLACEMENT_3D('',#596,#597,#598);
#596 = CARTESIAN_POINT('',(4.5,-6.661377735293E-16,-0.75));
#597 = DIRECTION('',(-1.,0.,0.));
#598 = DIRECTION('',(0.,8.840892098501E-16,1.));
#599 = ADVANCED_FACE('',(#600),#619,.F.);
#600 = FACE_BOUND('',#601,.F.);
#601 = EDGE_LOOP('',(#602,#610,#617,#618));
#602 = ORIENTED_EDGE('',*,*,#603,.T.);
#603 = EDGE_CURVE('',#109,#604,#606,.T.);
#604 = VERTEX_POINT('',#605);
#605 = CARTESIAN_POINT('',(1.3875,-0.1875,0.51));
#606 = LINE('',#607,#608);
#607 = CARTESIAN_POINT('',(1.3875,-0.1875,0.75));
#608 = VECTOR('',#609,3.937007874016E-02);
#609 = DIRECTION('',(0.,-6.640892098501E-16,-1.));
#610 = ORIENTED_EDGE('',*,*,#611,.T.);
#611 = EDGE_CURVE('',#604,#604,#612,.T.);
#612 = CIRCLE('',#613,0.1125);
#613 = AXIS2_PLACEMENT_3D('',#614,#615,#616);
#614 = CARTESIAN_POINT('',(1.5,-0.1875,0.51));
#615 = DIRECTION('',(0.,4.440892098501E-16,1.));
#616 = DIRECTION('',(-1.,0.,0.));
#617 = ORIENTED_EDGE('',*,*,#603,.F.);
#618 = ORIENTED_EDGE('',*,*,#108,.F.);
#619 = CYLINDRICAL_SURFACE('',#620,0.1125);
#620 = AXIS2_PLACEMENT_3D('',#621,#622,#623);
#621 = CARTESIAN_POINT('',(1.5,-0.1875,0.75));
#622 = DIRECTION('',(0.,6.640892098501E-16,1.));
#623 = DIRECTION('',(-1.,0.,0.));
#624 = ADVANCED_FACE('',(#625),#644,.F.);
#625 = FACE_BOUND('',#626,.F.);
#626 = EDGE_LOOP('',(#627,#635,#642,#643));
#627 = ORIENTED_EDGE('',*,*,#628,.T.);
#628 = EDGE_CURVE('',#120,#629,#631,.T.);
#629 = VERTEX_POINT('',#630);
#630 = CARTESIAN_POINT('',(-1.6125,-0.1875,0.51));
#631 = LINE('',#632,#633);
#632 = CARTESIAN_POINT('',(-1.6125,-0.1875,0.75));
#633 = VECTOR('',#634,3.937007874016E-02);
#634 = DIRECTION('',(0.,-6.640892098501E-16,-1.));
#635 = ORIENTED_EDGE('',*,*,#636,.T.);
#636 = EDGE_CURVE('',#629,#629,#637,.T.);
#637 = CIRCLE('',#638,0.1125);
#638 = AXIS2_PLACEMENT_3D('',#639,#640,#641);
#639 = CARTESIAN_POINT('',(-1.5,-0.1875,0.51));
#640 = DIRECTION('',(0.,4.440892098501E-16,1.));
#641 = DIRECTION('',(-1.,0.,0.));
#642 = ORIENTED_EDGE('',*,*,#628,.F.);
#643 = ORIENTED_EDGE('',*,*,#119,.F.);
#644 = CYLINDRICAL_SURFACE('',#645,0.1125);
#645 = AXIS2_PLACEMENT_3D('',#646,#647,#648);
#646 = CARTESIAN_POINT('',(-1.5,-0.1875,0.75));
#647 = DIRECTION('',(0.,6.640892098501E-16,1.));
#648 = DIRECTION('',(-1.,0.,0.));
#649 = ADVANCED_FACE('',(#650),#669,.F.);
#650 = FACE_BOUND('',#651,.F.);
#651 = EDGE_LOOP('',(#652,#660,#667,#668));
#652 = ORIENTED_EDGE('',*,*,#653,.T.);
#653 = EDGE_CURVE('',#155,#654,#656,.T.);
#654 = VERTEX_POINT('',#655);
#655 = CARTESIAN_POINT('',(-2.6675,-0.17,-0.5));
#656 = LINE('',#657,#658);
#657 = CARTESIAN_POINT('',(-2.6675,-2.22044604925E-16,-0.5));
#658 = VECTOR('',#659,3.937007874016E-02);
#659 = DIRECTION('',(0.,-1.,4.440892098501E-16));
#660 = ORIENTED_EDGE('',*,*,#661,.T.);
#661 = EDGE_CURVE('',#654,#654,#662,.T.);
#662 = CIRCLE('',#663,0.145);
#663 = AXIS2_PLACEMENT_3D('',#664,#665,#666);
#664 = CARTESIAN_POINT('',(-2.8125,-0.17,-0.5));
#665 = DIRECTION('',(0.,1.,-4.440892098501E-16));
#666 = DIRECTION('',(1.,0.,0.));
#667 = ORIENTED_EDGE('',*,*,#653,.F.);
#668 = ORIENTED_EDGE('',*,*,#154,.F.);
#669 = CYLINDRICAL_SURFACE('',#670,0.145);
#670 = AXIS2_PLACEMENT_3D('',#671,#672,#673);
#671 = CARTESIAN_POINT('',(-2.8125,-2.22044604925E-16,-0.5));
#672 = DIRECTION('',(0.,1.,-4.440892098501E-16));
#673 = DIRECTION('',(1.,0.,0.));
#674 = ADVANCED_FACE('',(#675),#700,.F.);
#675 = FACE_BOUND('',#676,.T.);
#676 = EDGE_LOOP('',(#677,#685,#693,#699));
#677 = ORIENTED_EDGE('',*,*,#678,.T.);
#678 = EDGE_CURVE('',#166,#679,#681,.T.);
#679 = VERTEX_POINT('',#680);
#680 = CARTESIAN_POINT('',(-4.361721614173,-0.25,-1.024007903843E-15));
#681 = LINE('',#682,#683);
#682 = CARTESIAN_POINT('',(-4.361721614173,9.684967526121E-16,
    -9.684967526121E-16));
#683 = VECTOR('',#684,3.937007874016E-02);
#684 = DIRECTION('',(-2.22044604925E-16,-1.,-2.22044604925E-16));
#685 = ORIENTED_EDGE('',*,*,#686,.T.);
#686 = EDGE_CURVE('',#679,#687,#689,.T.);
#687 = VERTEX_POINT('',#688);
#688 = CARTESIAN_POINT('',(-3.029464370079,-0.25,-0.625));
#689 = LINE('',#690,#691);
#690 = CARTESIAN_POINT('',(-4.361721614173,-0.25,-1.014061975248E-15));
#691 = VECTOR('',#692,3.937007874016E-02);
#692 = DIRECTION('',(0.905327162004,-1.067173641634E-16,-0.424714880524)
  );
#693 = ORIENTED_EDGE('',*,*,#694,.F.);
#694 = EDGE_CURVE('',#168,#687,#695,.T.);
#695 = LINE('',#696,#697);
#696 = CARTESIAN_POINT('',(-3.029464370079,8.114540972667E-16,-0.625));
#697 = VECTOR('',#698,3.937007874016E-02);
#698 = DIRECTION('',(-2.22044604925E-16,-1.,-2.22044604925E-16));
#699 = ORIENTED_EDGE('',*,*,#165,.F.);
#700 = PLANE('',#701);
#701 = AXIS2_PLACEMENT_3D('',#702,#703,#704);
#702 = CARTESIAN_POINT('',(-4.361721614173,9.684967526121E-16,
    -9.684967526121E-16));
#703 = DIRECTION('',(-0.424714880524,2.953286598667E-16,-0.905327162004)
  );
#704 = DIRECTION('',(-0.905327162004,1.067173641634E-16,0.424714880524)
  );
#705 = ADVANCED_FACE('',(#706),#724,.F.);
#706 = FACE_BOUND('',#707,.T.);
#707 = EDGE_LOOP('',(#708,#716,#722,#723));
#708 = ORIENTED_EDGE('',*,*,#709,.T.);
#709 = EDGE_CURVE('',#176,#710,#712,.T.);
#710 = VERTEX_POINT('',#711);
#711 = CARTESIAN_POINT('',(-3.029464370079,-0.25,0.625));
#712 = LINE('',#713,#714);
#713 = CARTESIAN_POINT('',(-3.029464370079,5.338983411104E-16,0.625));
#714 = VECTOR('',#715,3.937007874016E-02);
#715 = DIRECTION('',(-2.22044604925E-16,-1.,-2.22044604925E-16));
#716 = ORIENTED_EDGE('',*,*,#717,.T.);
#717 = EDGE_CURVE('',#710,#679,#718,.T.);
#718 = LINE('',#719,#720);
#719 = CARTESIAN_POINT('',(-3.029464370079,-0.25,0.625));
#720 = VECTOR('',#721,3.937007874016E-02);
#721 = DIRECTION('',(-0.905327162004,2.953286598667E-16,-0.424714880524)
  );
#722 = ORIENTED_EDGE('',*,*,#678,.F.);
#723 = ORIENTED_EDGE('',*,*,#183,.F.);
#724 = PLANE('',#725);
#725 = AXIS2_PLACEMENT_3D('',#726,#727,#728);
#726 = CARTESIAN_POINT('',(-3.029464370079,5.338983411104E-16,0.625));
#727 = DIRECTION('',(-0.424714880524,-1.067173641634E-16,0.905327162004)
  );
#728 = DIRECTION('',(0.905327162004,-2.953286598667E-16,0.424714880524)
  );
#729 = ADVANCED_FACE('',(#730),#741,.F.);
#730 = FACE_BOUND('',#731,.T.);
#731 = EDGE_LOOP('',(#732,#733,#739,#740));
#732 = ORIENTED_EDGE('',*,*,#694,.T.);
#733 = ORIENTED_EDGE('',*,*,#734,.T.);
#734 = EDGE_CURVE('',#687,#710,#735,.T.);
#735 = LINE('',#736,#737);
#736 = CARTESIAN_POINT('',(-3.029464370079,-0.25,-0.625));
#737 = VECTOR('',#738,3.937007874016E-02);
#738 = DIRECTION('',(-2.22044604925E-16,-2.22044604925E-16,1.));
#739 = ORIENTED_EDGE('',*,*,#709,.F.);
#740 = ORIENTED_EDGE('',*,*,#175,.F.);
#741 = PLANE('',#742);
#742 = AXIS2_PLACEMENT_3D('',#743,#744,#745);
#743 = CARTESIAN_POINT('',(-3.029464370079,8.114540972667E-16,-0.625));
#744 = DIRECTION('',(1.,-2.22044604925E-16,2.22044604925E-16));
#745 = DIRECTION('',(2.22044604925E-16,2.22044604925E-16,-1.));
#746 = ADVANCED_FACE('',(#747),#772,.T.);
#747 = FACE_BOUND('',#748,.T.);
#748 = EDGE_LOOP('',(#749,#757,#765,#771));
#749 = ORIENTED_EDGE('',*,*,#750,.T.);
#750 = EDGE_CURVE('',#192,#751,#753,.T.);
#751 = VERTEX_POINT('',#752);
#752 = CARTESIAN_POINT('',(-2.560938818898,-0.25,0.6875));
#753 = LINE('',#754,#755);
#754 = CARTESIAN_POINT('',(-2.560938818898,0.,0.6875));
#755 = VECTOR('',#756,3.937007874016E-02);
#756 = DIRECTION('',(0.,-1.,4.930380657631E-32));
#757 = ORIENTED_EDGE('',*,*,#758,.T.);
#758 = EDGE_CURVE('',#751,#759,#761,.T.);
#759 = VERTEX_POINT('',#760);
#760 = CARTESIAN_POINT('',(-2.560938818898,-0.25,-0.637237755906));
#761 = LINE('',#762,#763);
#762 = CARTESIAN_POINT('',(-2.560938818898,-0.25,0.6875));
#763 = VECTOR('',#764,3.937007874016E-02);
#764 = DIRECTION('',(0.,0.,-1.));
#765 = ORIENTED_EDGE('',*,*,#766,.F.);
#766 = EDGE_CURVE('',#194,#759,#767,.T.);
#767 = LINE('',#768,#769);
#768 = CARTESIAN_POINT('',(-2.560938818898,0.,-0.637237755906));
#769 = VECTOR('',#770,3.937007874016E-02);
#770 = DIRECTION('',(0.,-1.,4.930380657631E-32));
#771 = ORIENTED_EDGE('',*,*,#191,.F.);
#772 = PLANE('',#773);
#773 = AXIS2_PLACEMENT_3D('',#774,#775,#776);
#774 = CARTESIAN_POINT('',(-2.560938818898,0.,0.6875));
#775 = DIRECTION('',(1.,0.,0.));
#776 = DIRECTION('',(0.,0.,-1.));
#777 = ADVANCED_FACE('',(#778),#796,.T.);
#778 = FACE_BOUND('',#779,.T.);
#779 = EDGE_LOOP('',(#780,#788,#794,#795));
#780 = ORIENTED_EDGE('',*,*,#781,.T.);
#781 = EDGE_CURVE('',#202,#782,#784,.T.);
#782 = VERTEX_POINT('',#783);
#783 = CARTESIAN_POINT('',(-1.849267048271,-0.25,0.6875));
#784 = LINE('',#785,#786);
#785 = CARTESIAN_POINT('',(-1.849267048271,0.,0.6875));
#786 = VECTOR('',#787,3.937007874016E-02);
#787 = DIRECTION('',(0.,-1.,4.930380657631E-32));
#788 = ORIENTED_EDGE('',*,*,#789,.T.);
#789 = EDGE_CURVE('',#782,#751,#790,.T.);
#790 = LINE('',#791,#792);
#791 = CARTESIAN_POINT('',(-1.849267048271,-0.25,0.6875));
#792 = VECTOR('',#793,3.937007874016E-02);
#793 = DIRECTION('',(-1.,0.,-0.));
#794 = ORIENTED_EDGE('',*,*,#750,.F.);
#795 = ORIENTED_EDGE('',*,*,#209,.F.);
#796 = PLANE('',#797);
#797 = AXIS2_PLACEMENT_3D('',#798,#799,#800);
#798 = CARTESIAN_POINT('',(-1.849267048271,0.,0.6875));
#799 = DIRECTION('',(0.,-4.930380657631E-32,-1.));
#800 = DIRECTION('',(-1.,0.,0.));
#801 = ADVANCED_FACE('',(#802),#813,.T.);
#802 = FACE_BOUND('',#803,.T.);
#803 = EDGE_LOOP('',(#804,#805,#811,#812));
#804 = ORIENTED_EDGE('',*,*,#766,.T.);
#805 = ORIENTED_EDGE('',*,*,#806,.T.);
#806 = EDGE_CURVE('',#759,#782,#807,.T.);
#807 = LINE('',#808,#809);
#808 = CARTESIAN_POINT('',(-2.560938818898,-0.25,-0.637237755906));
#809 = VECTOR('',#810,3.937007874016E-02);
#810 = DIRECTION('',(0.473249745917,0.,0.880928304682));
#811 = ORIENTED_EDGE('',*,*,#781,.F.);
#812 = ORIENTED_EDGE('',*,*,#201,.F.);
#813 = PLANE('',#814);
#814 = AXIS2_PLACEMENT_3D('',#815,#816,#817);
#815 = CARTESIAN_POINT('',(-2.560938818898,0.,-0.637237755906));
#816 = DIRECTION('',(-0.880928304682,3.08148791102E-32,0.473249745917));
#817 = DIRECTION('',(0.473249745917,-3.697785493223E-32,0.880928304682)
  );
#818 = ADVANCED_FACE('',(#819),#838,.F.);
#819 = FACE_BOUND('',#820,.F.);
#820 = EDGE_LOOP('',(#821,#829,#836,#837));
#821 = ORIENTED_EDGE('',*,*,#822,.T.);
#822 = EDGE_CURVE('',#218,#823,#825,.T.);
#823 = VERTEX_POINT('',#824);
#824 = CARTESIAN_POINT('',(-2.6675,-0.17,0.5));
#825 = LINE('',#826,#827);
#826 = CARTESIAN_POINT('',(-2.6675,2.22044604925E-16,0.5));
#827 = VECTOR('',#828,3.937007874016E-02);
#828 = DIRECTION('',(0.,-1.,4.440892098501E-16));
#829 = ORIENTED_EDGE('',*,*,#830,.T.);
#830 = EDGE_CURVE('',#823,#823,#831,.T.);
#831 = CIRCLE('',#832,0.145);
#832 = AXIS2_PLACEMENT_3D('',#833,#834,#835);
#833 = CARTESIAN_POINT('',(-2.8125,-0.17,0.5));
#834 = DIRECTION('',(0.,1.,-4.440892098501E-16));
#835 = DIRECTION('',(1.,0.,0.));
#836 = ORIENTED_EDGE('',*,*,#822,.F.);
#837 = ORIENTED_EDGE('',*,*,#217,.F.);
#838 = CYLINDRICAL_SURFACE('',#839,0.145);
#839 = AXIS2_PLACEMENT_3D('',#840,#841,#842);
#840 = CARTESIAN_POINT('',(-2.8125,2.22044604925E-16,0.5));
#841 = DIRECTION('',(0.,1.,-4.440892098501E-16));
#842 = DIRECTION('',(1.,0.,0.));
#843 = ADVANCED_FACE('',(#844),#869,.T.);
#844 = FACE_BOUND('',#845,.T.);
#845 = EDGE_LOOP('',(#846,#854,#862,#868));
#846 = ORIENTED_EDGE('',*,*,#847,.T.);
#847 = EDGE_CURVE('',#229,#848,#850,.T.);
#848 = VERTEX_POINT('',#849);
#849 = CARTESIAN_POINT('',(-2.419850655841,-0.25,-0.6875));
#850 = LINE('',#851,#852);
#851 = CARTESIAN_POINT('',(-2.419850655841,0.,-0.6875));
#852 = VECTOR('',#853,3.937007874016E-02);
#853 = DIRECTION('',(0.,-1.,4.930380657631E-32));
#854 = ORIENTED_EDGE('',*,*,#855,.T.);
#855 = EDGE_CURVE('',#848,#856,#858,.T.);
#856 = VERTEX_POINT('',#857);
#857 = CARTESIAN_POINT('',(-1.7,-0.25,-0.6875));
#858 = LINE('',#859,#860);
#859 = CARTESIAN_POINT('',(-2.419850655841,-0.25,-0.6875));
#860 = VECTOR('',#861,3.937007874016E-02);
#861 = DIRECTION('',(1.,0.,0.));
#862 = ORIENTED_EDGE('',*,*,#863,.F.);
#863 = EDGE_CURVE('',#231,#856,#864,.T.);
#864 = LINE('',#865,#866);
#865 = CARTESIAN_POINT('',(-1.7,0.,-0.6875));
#866 = VECTOR('',#867,3.937007874016E-02);
#867 = DIRECTION('',(0.,-1.,4.930380657631E-32));
#868 = ORIENTED_EDGE('',*,*,#228,.F.);
#869 = PLANE('',#870);
#870 = AXIS2_PLACEMENT_3D('',#871,#872,#873);
#871 = CARTESIAN_POINT('',(-2.419850655841,0.,-0.6875));
#872 = DIRECTION('',(0.,4.930380657631E-32,1.));
#873 = DIRECTION('',(1.,0.,0.));
#874 = ADVANCED_FACE('',(#875),#893,.T.);
#875 = FACE_BOUND('',#876,.T.);
#876 = EDGE_LOOP('',(#877,#885,#891,#892));
#877 = ORIENTED_EDGE('',*,*,#878,.T.);
#878 = EDGE_CURVE('',#239,#879,#881,.T.);
#879 = VERTEX_POINT('',#880);
#880 = CARTESIAN_POINT('',(-1.7,-0.25,0.6875));
#881 = LINE('',#882,#883);
#882 = CARTESIAN_POINT('',(-1.7,0.,0.6875));
#883 = VECTOR('',#884,3.937007874016E-02);
#884 = DIRECTION('',(0.,-1.,4.930380657631E-32));
#885 = ORIENTED_EDGE('',*,*,#886,.T.);
#886 = EDGE_CURVE('',#879,#848,#887,.T.);
#887 = LINE('',#888,#889);
#888 = CARTESIAN_POINT('',(-1.7,-0.25,0.6875));
#889 = VECTOR('',#890,3.937007874016E-02);
#890 = DIRECTION('',(-0.4638110967,0.,-0.885934120902));
#891 = ORIENTED_EDGE('',*,*,#847,.F.);
#892 = ORIENTED_EDGE('',*,*,#246,.F.);
#893 = PLANE('',#894);
#894 = AXIS2_PLACEMENT_3D('',#895,#896,#897);
#895 = CARTESIAN_POINT('',(-1.7,0.,0.6875));
#896 = DIRECTION('',(0.885934120902,-3.08148791102E-32,-0.4638110967));
#897 = DIRECTION('',(-0.4638110967,-1.232595164408E-32,-0.885934120902)
  );
#898 = ADVANCED_FACE('',(#899),#910,.T.);
#899 = FACE_BOUND('',#900,.T.);
#900 = EDGE_LOOP('',(#901,#902,#908,#909));
#901 = ORIENTED_EDGE('',*,*,#863,.T.);
#902 = ORIENTED_EDGE('',*,*,#903,.T.);
#903 = EDGE_CURVE('',#856,#879,#904,.T.);
#904 = LINE('',#905,#906);
#905 = CARTESIAN_POINT('',(-1.7,-0.25,-0.6875));
#906 = VECTOR('',#907,3.937007874016E-02);
#907 = DIRECTION('',(0.,0.,1.));
#908 = ORIENTED_EDGE('',*,*,#878,.F.);
#909 = ORIENTED_EDGE('',*,*,#238,.F.);
#910 = PLANE('',#911);
#911 = AXIS2_PLACEMENT_3D('',#912,#913,#914);
#912 = CARTESIAN_POINT('',(-1.7,0.,-0.6875));
#913 = DIRECTION('',(-1.,0.,0.));
#914 = DIRECTION('',(0.,0.,1.));
#915 = ADVANCED_FACE('',(#916),#941,.F.);
#916 = FACE_BOUND('',#917,.F.);
#917 = EDGE_LOOP('',(#918,#926,#934,#940));
#918 = ORIENTED_EDGE('',*,*,#919,.T.);
#919 = EDGE_CURVE('',#255,#920,#922,.T.);
#920 = VERTEX_POINT('',#921);
#921 = CARTESIAN_POINT('',(-1.28,-0.25,-0.6875));
#922 = LINE('',#923,#924);
#923 = CARTESIAN_POINT('',(-1.28,0.,-0.6875));
#924 = VECTOR('',#925,3.937007874016E-02);
#925 = DIRECTION('',(0.,-1.,4.930380657631E-32));
#926 = ORIENTED_EDGE('',*,*,#927,.T.);
#927 = EDGE_CURVE('',#920,#928,#930,.T.);
#928 = VERTEX_POINT('',#929);
#929 = CARTESIAN_POINT('',(-1.28,-0.25,0.6875));
#930 = LINE('',#931,#932);
#931 = CARTESIAN_POINT('',(-1.28,-0.25,-0.6875));
#932 = VECTOR('',#933,3.937007874016E-02);
#933 = DIRECTION('',(0.,0.,1.));
#934 = ORIENTED_EDGE('',*,*,#935,.F.);
#935 = EDGE_CURVE('',#257,#928,#936,.T.);
#936 = LINE('',#937,#938);
#937 = CARTESIAN_POINT('',(-1.28,0.,0.6875));
#938 = VECTOR('',#939,3.937007874016E-02);
#939 = DIRECTION('',(0.,-1.,4.930380657631E-32));
#940 = ORIENTED_EDGE('',*,*,#254,.F.);
#941 = PLANE('',#942);
#942 = AXIS2_PLACEMENT_3D('',#943,#944,#945);
#943 = CARTESIAN_POINT('',(-1.28,0.,-0.6875));
#944 = DIRECTION('',(-1.,0.,0.));
#945 = DIRECTION('',(0.,0.,1.));
#946 = ADVANCED_FACE('',(#947),#965,.F.);
#947 = FACE_BOUND('',#948,.F.);
#948 = EDGE_LOOP('',(#949,#957,#963,#964));
#949 = ORIENTED_EDGE('',*,*,#950,.T.);
#950 = EDGE_CURVE('',#265,#951,#953,.T.);
#951 = VERTEX_POINT('',#952);
#952 = CARTESIAN_POINT('',(1.03,-0.25,-0.6875));
#953 = LINE('',#954,#955);
#954 = CARTESIAN_POINT('',(1.03,0.,-0.6875));
#955 = VECTOR('',#956,3.937007874016E-02);
#956 = DIRECTION('',(0.,-1.,4.930380657631E-32));
#957 = ORIENTED_EDGE('',*,*,#958,.T.);
#958 = EDGE_CURVE('',#951,#920,#959,.T.);
#959 = LINE('',#960,#961);
#960 = CARTESIAN_POINT('',(1.03,-0.25,-0.6875));
#961 = VECTOR('',#962,3.937007874016E-02);
#962 = DIRECTION('',(-1.,0.,-0.));
#963 = ORIENTED_EDGE('',*,*,#919,.F.);
#964 = ORIENTED_EDGE('',*,*,#264,.F.);
#965 = PLANE('',#966);
#966 = AXIS2_PLACEMENT_3D('',#967,#968,#969);
#967 = CARTESIAN_POINT('',(1.03,0.,-0.6875));
#968 = DIRECTION('',(0.,-4.930380657631E-32,-1.));
#969 = DIRECTION('',(-1.,0.,0.));
#970 = ADVANCED_FACE('',(#971),#982,.F.);
#971 = FACE_BOUND('',#972,.F.);
#972 = EDGE_LOOP('',(#973,#974,#980,#981));
#973 = ORIENTED_EDGE('',*,*,#935,.T.);
#974 = ORIENTED_EDGE('',*,*,#975,.T.);
#975 = EDGE_CURVE('',#928,#951,#976,.T.);
#976 = LINE('',#977,#978);
#977 = CARTESIAN_POINT('',(-1.28,-0.25,0.6875));
#978 = VECTOR('',#979,3.937007874016E-02);
#979 = DIRECTION('',(0.85929288441,0.,-0.511483859768));
#980 = ORIENTED_EDGE('',*,*,#950,.F.);
#981 = ORIENTED_EDGE('',*,*,#272,.F.);
#982 = PLANE('',#983);
#983 = AXIS2_PLACEMENT_3D('',#984,#985,#986);
#984 = CARTESIAN_POINT('',(-1.28,0.,0.6875));
#985 = DIRECTION('',(0.511483859768,4.930380657631E-32,0.85929288441));
#986 = DIRECTION('',(0.85929288441,-2.465190328816E-32,-0.511483859768)
  );
#987 = ADVANCED_FACE('',(#988),#1007,.F.);
#988 = FACE_BOUND('',#989,.F.);
#989 = EDGE_LOOP('',(#990,#998,#1005,#1006));
#990 = ORIENTED_EDGE('',*,*,#991,.T.);
#991 = EDGE_CURVE('',#281,#992,#994,.T.);
#992 = VERTEX_POINT('',#993);
#993 = CARTESIAN_POINT('',(2.9575,-0.17,-0.5));
#994 = LINE('',#995,#996);
#995 = CARTESIAN_POINT('',(2.9575,-2.22044604925E-16,-0.5));
#996 = VECTOR('',#997,3.937007874016E-02);
#997 = DIRECTION('',(0.,-1.,4.440892098501E-16));
#998 = ORIENTED_EDGE('',*,*,#999,.T.);
#999 = EDGE_CURVE('',#992,#992,#1000,.T.);
#1000 = CIRCLE('',#1001,0.145);
#1001 = AXIS2_PLACEMENT_3D('',#1002,#1003,#1004);
#1002 = CARTESIAN_POINT('',(2.8125,-0.17,-0.5));
#1003 = DIRECTION('',(0.,1.,-4.440892098501E-16));
#1004 = DIRECTION('',(1.,0.,0.));
#1005 = ORIENTED_EDGE('',*,*,#991,.F.);
#1006 = ORIENTED_EDGE('',*,*,#280,.F.);
#1007 = CYLINDRICAL_SURFACE('',#1008,0.145);
#1008 = AXIS2_PLACEMENT_3D('',#1009,#1010,#1011);
#1009 = CARTESIAN_POINT('',(2.8125,-2.22044604925E-16,-0.5));
#1010 = DIRECTION('',(0.,1.,-4.440892098501E-16));
#1011 = DIRECTION('',(1.,0.,0.));
#1012 = ADVANCED_FACE('',(#1013),#1038,.T.);
#1013 = FACE_BOUND('',#1014,.T.);
#1014 = EDGE_LOOP('',(#1015,#1023,#1031,#1037));
#1015 = ORIENTED_EDGE('',*,*,#1016,.T.);
#1016 = EDGE_CURVE('',#292,#1017,#1019,.T.);
#1017 = VERTEX_POINT('',#1018);
#1018 = CARTESIAN_POINT('',(-1.03,-0.25,0.6875));
#1019 = LINE('',#1020,#1021);
#1020 = CARTESIAN_POINT('',(-1.03,0.,0.6875));
#1021 = VECTOR('',#1022,3.937007874016E-02);
#1022 = DIRECTION('',(0.,-1.,4.930380657631E-32));
#1023 = ORIENTED_EDGE('',*,*,#1024,.T.);
#1024 = EDGE_CURVE('',#1017,#1025,#1027,.T.);
#1025 = VERTEX_POINT('',#1026);
#1026 = CARTESIAN_POINT('',(1.28,-0.25,-0.6875));
#1027 = LINE('',#1028,#1029);
#1028 = CARTESIAN_POINT('',(-1.03,-0.25,0.6875));
#1029 = VECTOR('',#1030,3.937007874016E-02);
#1030 = DIRECTION('',(0.85929288441,0.,-0.511483859768));
#1031 = ORIENTED_EDGE('',*,*,#1032,.F.);
#1032 = EDGE_CURVE('',#294,#1025,#1033,.T.);
#1033 = LINE('',#1034,#1035);
#1034 = CARTESIAN_POINT('',(1.28,0.,-0.6875));
#1035 = VECTOR('',#1036,3.937007874016E-02);
#1036 = DIRECTION('',(0.,-1.,4.930380657631E-32));
#1037 = ORIENTED_EDGE('',*,*,#291,.F.);
#1038 = PLANE('',#1039);
#1039 = AXIS2_PLACEMENT_3D('',#1040,#1041,#1042);
#1040 = CARTESIAN_POINT('',(-1.03,0.,0.6875));
#1041 = DIRECTION('',(0.511483859768,4.930380657631E-32,0.85929288441));
#1042 = DIRECTION('',(0.85929288441,-2.465190328816E-32,-0.511483859768)
  );
#1043 = ADVANCED_FACE('',(#1044),#1062,.T.);
#1044 = FACE_BOUND('',#1045,.T.);
#1045 = EDGE_LOOP('',(#1046,#1054,#1060,#1061));
#1046 = ORIENTED_EDGE('',*,*,#1047,.T.);
#1047 = EDGE_CURVE('',#302,#1048,#1050,.T.);
#1048 = VERTEX_POINT('',#1049);
#1049 = CARTESIAN_POINT('',(1.28,-0.25,0.6875));
#1050 = LINE('',#1051,#1052);
#1051 = CARTESIAN_POINT('',(1.28,0.,0.6875));
#1052 = VECTOR('',#1053,3.937007874016E-02);
#1053 = DIRECTION('',(0.,-1.,4.930380657631E-32));
#1054 = ORIENTED_EDGE('',*,*,#1055,.T.);
#1055 = EDGE_CURVE('',#1048,#1017,#1056,.T.);
#1056 = LINE('',#1057,#1058);
#1057 = CARTESIAN_POINT('',(1.28,-0.25,0.6875));
#1058 = VECTOR('',#1059,3.937007874016E-02);
#1059 = DIRECTION('',(-1.,0.,-0.));
#1060 = ORIENTED_EDGE('',*,*,#1016,.F.);
#1061 = ORIENTED_EDGE('',*,*,#309,.F.);
#1062 = PLANE('',#1063);
#1063 = AXIS2_PLACEMENT_3D('',#1064,#1065,#1066);
#1064 = CARTESIAN_POINT('',(1.28,0.,0.6875));
#1065 = DIRECTION('',(0.,-4.930380657631E-32,-1.));
#1066 = DIRECTION('',(-1.,0.,0.));
#1067 = ADVANCED_FACE('',(#1068),#1079,.T.);
#1068 = FACE_BOUND('',#1069,.T.);
#1069 = EDGE_LOOP('',(#1070,#1071,#1077,#1078));
#1070 = ORIENTED_EDGE('',*,*,#1032,.T.);
#1071 = ORIENTED_EDGE('',*,*,#1072,.T.);
#1072 = EDGE_CURVE('',#1025,#1048,#1073,.T.);
#1073 = LINE('',#1074,#1075);
#1074 = CARTESIAN_POINT('',(1.28,-0.25,-0.6875));
#1075 = VECTOR('',#1076,3.937007874016E-02);
#1076 = DIRECTION('',(0.,0.,1.));
#1077 = ORIENTED_EDGE('',*,*,#1047,.F.);
#1078 = ORIENTED_EDGE('',*,*,#301,.F.);
#1079 = PLANE('',#1080);
#1080 = AXIS2_PLACEMENT_3D('',#1081,#1082,#1083);
#1081 = CARTESIAN_POINT('',(1.28,-1.552875797679E-32,-0.6875));
#1082 = DIRECTION('',(-1.,0.,0.));
#1083 = DIRECTION('',(0.,0.,1.));
#1084 = ADVANCED_FACE('',(#1085),#1110,.F.);
#1085 = FACE_BOUND('',#1086,.F.);
#1086 = EDGE_LOOP('',(#1087,#1095,#1103,#1109));
#1087 = ORIENTED_EDGE('',*,*,#1088,.T.);
#1088 = EDGE_CURVE('',#318,#1089,#1091,.T.);
#1089 = VERTEX_POINT('',#1090);
#1090 = CARTESIAN_POINT('',(1.7,-0.25,-0.6875));
#1091 = LINE('',#1092,#1093);
#1092 = CARTESIAN_POINT('',(1.7,-1.552875797679E-32,-0.6875));
#1093 = VECTOR('',#1094,3.937007874016E-02);
#1094 = DIRECTION('',(0.,-1.,4.930380657631E-32));
#1095 = ORIENTED_EDGE('',*,*,#1096,.T.);
#1096 = EDGE_CURVE('',#1089,#1097,#1099,.T.);
#1097 = VERTEX_POINT('',#1098);
#1098 = CARTESIAN_POINT('',(1.7,-0.25,0.6875));
#1099 = LINE('',#1100,#1101);
#1100 = CARTESIAN_POINT('',(1.7,-0.25,-0.6875));
#1101 = VECTOR('',#1102,3.937007874016E-02);
#1102 = DIRECTION('',(0.,0.,1.));
#1103 = ORIENTED_EDGE('',*,*,#1104,.F.);
#1104 = EDGE_CURVE('',#320,#1097,#1105,.T.);
#1105 = LINE('',#1106,#1107);
#1106 = CARTESIAN_POINT('',(1.7,-1.552875797679E-32,0.6875));
#1107 = VECTOR('',#1108,3.937007874016E-02);
#1108 = DIRECTION('',(0.,-1.,4.930380657631E-32));
#1109 = ORIENTED_EDGE('',*,*,#317,.F.);
#1110 = PLANE('',#1111);
#1111 = AXIS2_PLACEMENT_3D('',#1112,#1113,#1114);
#1112 = CARTESIAN_POINT('',(1.7,-1.552875797679E-32,-0.6875));
#1113 = DIRECTION('',(-1.,0.,0.));
#1114 = DIRECTION('',(0.,0.,1.));
#1115 = ADVANCED_FACE('',(#1116),#1134,.F.);
#1116 = FACE_BOUND('',#1117,.F.);
#1117 = EDGE_LOOP('',(#1118,#1126,#1132,#1133));
#1118 = ORIENTED_EDGE('',*,*,#1119,.T.);
#1119 = EDGE_CURVE('',#328,#1120,#1122,.T.);
#1120 = VERTEX_POINT('',#1121);
#1121 = CARTESIAN_POINT('',(2.419850655841,-0.25,-0.6875));
#1122 = LINE('',#1123,#1124);
#1123 = CARTESIAN_POINT('',(2.419850655841,-1.552875797679E-32,-0.6875)
  );
#1124 = VECTOR('',#1125,3.937007874016E-02);
#1125 = DIRECTION('',(0.,-1.,4.930380657631E-32));
#1126 = ORIENTED_EDGE('',*,*,#1127,.T.);
#1127 = EDGE_CURVE('',#1120,#1089,#1128,.T.);
#1128 = LINE('',#1129,#1130);
#1129 = CARTESIAN_POINT('',(2.419850655841,-0.25,-0.6875));
#1130 = VECTOR('',#1131,3.937007874016E-02);
#1131 = DIRECTION('',(-1.,0.,-0.));
#1132 = ORIENTED_EDGE('',*,*,#1088,.F.);
#1133 = ORIENTED_EDGE('',*,*,#327,.F.);
#1134 = PLANE('',#1135);
#1135 = AXIS2_PLACEMENT_3D('',#1136,#1137,#1138);
#1136 = CARTESIAN_POINT('',(2.419850655841,-1.552875797679E-32,-0.6875)
  );
#1137 = DIRECTION('',(0.,-4.930380657631E-32,-1.));
#1138 = DIRECTION('',(-1.,0.,0.));
#1139 = ADVANCED_FACE('',(#1140),#1151,.F.);
#1140 = FACE_BOUND('',#1141,.F.);
#1141 = EDGE_LOOP('',(#1142,#1143,#1149,#1150));
#1142 = ORIENTED_EDGE('',*,*,#1104,.T.);
#1143 = ORIENTED_EDGE('',*,*,#1144,.T.);
#1144 = EDGE_CURVE('',#1097,#1120,#1145,.T.);
#1145 = LINE('',#1146,#1147);
#1146 = CARTESIAN_POINT('',(1.7,-0.25,0.6875));
#1147 = VECTOR('',#1148,3.937007874016E-02);
#1148 = DIRECTION('',(0.4638110967,0.,-0.885934120902));
#1149 = ORIENTED_EDGE('',*,*,#1119,.F.);
#1150 = ORIENTED_EDGE('',*,*,#335,.F.);
#1151 = PLANE('',#1152);
#1152 = AXIS2_PLACEMENT_3D('',#1153,#1154,#1155);
#1153 = CARTESIAN_POINT('',(1.7,-1.552875797679E-32,0.6875));
#1154 = DIRECTION('',(0.885934120902,3.08148791102E-32,0.4638110967));
#1155 = DIRECTION('',(0.4638110967,-1.232595164408E-32,-0.885934120902)
  );
#1156 = ADVANCED_FACE('',(#1157),#1182,.T.);
#1157 = FACE_BOUND('',#1158,.T.);
#1158 = EDGE_LOOP('',(#1159,#1167,#1175,#1181));
#1159 = ORIENTED_EDGE('',*,*,#1160,.T.);
#1160 = EDGE_CURVE('',#344,#1161,#1163,.T.);
#1161 = VERTEX_POINT('',#1162);
#1162 = CARTESIAN_POINT('',(1.849267048271,-0.25,0.6875));
#1163 = LINE('',#1164,#1165);
#1164 = CARTESIAN_POINT('',(1.849267048271,-1.552875797679E-32,0.6875));
#1165 = VECTOR('',#1166,3.937007874016E-02);
#1166 = DIRECTION('',(0.,-1.,4.930380657631E-32));
#1167 = ORIENTED_EDGE('',*,*,#1168,.T.);
#1168 = EDGE_CURVE('',#1161,#1169,#1171,.T.);
#1169 = VERTEX_POINT('',#1170);
#1170 = CARTESIAN_POINT('',(2.560938818898,-0.25,-0.637237755906));
#1171 = LINE('',#1172,#1173);
#1172 = CARTESIAN_POINT('',(1.849267048271,-0.25,0.6875));
#1173 = VECTOR('',#1174,3.937007874016E-02);
#1174 = DIRECTION('',(0.473249745917,0.,-0.880928304682));
#1175 = ORIENTED_EDGE('',*,*,#1176,.F.);
#1176 = EDGE_CURVE('',#346,#1169,#1177,.T.);
#1177 = LINE('',#1178,#1179);
#1178 = CARTESIAN_POINT('',(2.560938818898,0.,-0.637237755906));
#1179 = VECTOR('',#1180,3.937007874016E-02);
#1180 = DIRECTION('',(0.,-1.,4.930380657631E-32));
#1181 = ORIENTED_EDGE('',*,*,#343,.F.);
#1182 = PLANE('',#1183);
#1183 = AXIS2_PLACEMENT_3D('',#1184,#1185,#1186);
#1184 = CARTESIAN_POINT('',(1.849267048271,-1.552875797679E-32,0.6875));
#1185 = DIRECTION('',(0.880928304682,3.08148791102E-32,0.473249745917));
#1186 = DIRECTION('',(0.473249745917,3.697785493223E-32,-0.880928304682)
  );
#1187 = ADVANCED_FACE('',(#1188),#1206,.T.);
#1188 = FACE_BOUND('',#1189,.T.);
#1189 = EDGE_LOOP('',(#1190,#1198,#1204,#1205));
#1190 = ORIENTED_EDGE('',*,*,#1191,.T.);
#1191 = EDGE_CURVE('',#354,#1192,#1194,.T.);
#1192 = VERTEX_POINT('',#1193);
#1193 = CARTESIAN_POINT('',(2.560938818898,-0.25,0.6875));
#1194 = LINE('',#1195,#1196);
#1195 = CARTESIAN_POINT('',(2.560938818898,0.,0.6875));
#1196 = VECTOR('',#1197,3.937007874016E-02);
#1197 = DIRECTION('',(0.,-1.,4.930380657631E-32));
#1198 = ORIENTED_EDGE('',*,*,#1199,.T.);
#1199 = EDGE_CURVE('',#1192,#1161,#1200,.T.);
#1200 = LINE('',#1201,#1202);
#1201 = CARTESIAN_POINT('',(2.560938818898,-0.25,0.6875));
#1202 = VECTOR('',#1203,3.937007874016E-02);
#1203 = DIRECTION('',(-1.,0.,-0.));
#1204 = ORIENTED_EDGE('',*,*,#1160,.F.);
#1205 = ORIENTED_EDGE('',*,*,#361,.F.);
#1206 = PLANE('',#1207);
#1207 = AXIS2_PLACEMENT_3D('',#1208,#1209,#1210);
#1208 = CARTESIAN_POINT('',(2.560938818898,-1.552875797679E-32,0.6875));
#1209 = DIRECTION('',(0.,-4.930380657631E-32,-1.));
#1210 = DIRECTION('',(-1.,0.,0.));
#1211 = ADVANCED_FACE('',(#1212),#1223,.T.);
#1212 = FACE_BOUND('',#1213,.T.);
#1213 = EDGE_LOOP('',(#1214,#1215,#1221,#1222));
#1214 = ORIENTED_EDGE('',*,*,#1176,.T.);
#1215 = ORIENTED_EDGE('',*,*,#1216,.T.);
#1216 = EDGE_CURVE('',#1169,#1192,#1217,.T.);
#1217 = LINE('',#1218,#1219);
#1218 = CARTESIAN_POINT('',(2.560938818898,-0.25,-0.637237755906));
#1219 = VECTOR('',#1220,3.937007874016E-02);
#1220 = DIRECTION('',(0.,0.,1.));
#1221 = ORIENTED_EDGE('',*,*,#1191,.F.);
#1222 = ORIENTED_EDGE('',*,*,#353,.F.);
#1223 = PLANE('',#1224);
#1224 = AXIS2_PLACEMENT_3D('',#1225,#1226,#1227);
#1225 = CARTESIAN_POINT('',(2.560938818898,0.,-0.637237755906));
#1226 = DIRECTION('',(-1.,0.,0.));
#1227 = DIRECTION('',(0.,0.,1.));
#1228 = ADVANCED_FACE('',(#1229),#1254,.F.);
#1229 = FACE_BOUND('',#1230,.F.);
#1230 = EDGE_LOOP('',(#1231,#1239,#1247,#1253));
#1231 = ORIENTED_EDGE('',*,*,#1232,.T.);
#1232 = EDGE_CURVE('',#370,#1233,#1235,.T.);
#1233 = VERTEX_POINT('',#1234);
#1234 = CARTESIAN_POINT('',(3.029464370079,-0.25,-0.625));
#1235 = LINE('',#1236,#1237);
#1236 = CARTESIAN_POINT('',(3.029464370079,6.938893903907E-17,-0.625));
#1237 = VECTOR('',#1238,3.937007874016E-02);
#1238 = DIRECTION('',(0.,-1.,-1.110223024625E-16));
#1239 = ORIENTED_EDGE('',*,*,#1240,.T.);
#1240 = EDGE_CURVE('',#1233,#1241,#1243,.T.);
#1241 = VERTEX_POINT('',#1242);
#1242 = CARTESIAN_POINT('',(3.029464370079,-0.25,0.625));
#1243 = LINE('',#1244,#1245);
#1244 = CARTESIAN_POINT('',(3.029464370079,-0.25,-0.625));
#1245 = VECTOR('',#1246,3.937007874016E-02);
#1246 = DIRECTION('',(0.,-1.110223024625E-16,1.));
#1247 = ORIENTED_EDGE('',*,*,#1248,.F.);
#1248 = EDGE_CURVE('',#372,#1241,#1249,.T.);
#1249 = LINE('',#1250,#1251);
#1250 = CARTESIAN_POINT('',(3.029464370079,-6.938893903907E-17,0.625));
#1251 = VECTOR('',#1252,3.937007874016E-02);
#1252 = DIRECTION('',(0.,-1.,-1.110223024625E-16));
#1253 = ORIENTED_EDGE('',*,*,#369,.F.);
#1254 = PLANE('',#1255);
#1255 = AXIS2_PLACEMENT_3D('',#1256,#1257,#1258);
#1256 = CARTESIAN_POINT('',(3.029464370079,6.938893903907E-17,-0.625));
#1257 = DIRECTION('',(-1.,0.,0.));
#1258 = DIRECTION('',(0.,-1.110223024625E-16,1.));
#1259 = ADVANCED_FACE('',(#1260),#1278,.F.);
#1260 = FACE_BOUND('',#1261,.F.);
#1261 = EDGE_LOOP('',(#1262,#1270,#1276,#1277));
#1262 = ORIENTED_EDGE('',*,*,#1263,.T.);
#1263 = EDGE_CURVE('',#380,#1264,#1266,.T.);
#1264 = VERTEX_POINT('',#1265);
#1265 = CARTESIAN_POINT('',(4.361721614173,-0.25,-2.775557561563E-17));
#1266 = LINE('',#1267,#1268);
#1267 = CARTESIAN_POINT('',(4.361721614173,0.,0.));
#1268 = VECTOR('',#1269,3.937007874016E-02);
#1269 = DIRECTION('',(0.,-1.,-1.110223024625E-16));
#1270 = ORIENTED_EDGE('',*,*,#1271,.T.);
#1271 = EDGE_CURVE('',#1264,#1233,#1272,.T.);
#1272 = LINE('',#1273,#1274);
#1273 = CARTESIAN_POINT('',(4.361721614173,-0.25,0.));
#1274 = VECTOR('',#1275,3.937007874016E-02);
#1275 = DIRECTION('',(-0.905327162004,4.715282392583E-17,-0.424714880524
    ));
#1276 = ORIENTED_EDGE('',*,*,#1232,.F.);
#1277 = ORIENTED_EDGE('',*,*,#379,.F.);
#1278 = PLANE('',#1279);
#1279 = AXIS2_PLACEMENT_3D('',#1280,#1281,#1282);
#1280 = CARTESIAN_POINT('',(4.361721614173,0.,0.));
#1281 = DIRECTION('',(0.424714880524,1.005115060075E-16,-0.905327162004)
  );
#1282 = DIRECTION('',(-0.905327162004,4.715282392583E-17,-0.424714880524
    ));
#1283 = ADVANCED_FACE('',(#1284),#1295,.F.);
#1284 = FACE_BOUND('',#1285,.F.);
#1285 = EDGE_LOOP('',(#1286,#1287,#1293,#1294));
#1286 = ORIENTED_EDGE('',*,*,#1248,.T.);
#1287 = ORIENTED_EDGE('',*,*,#1288,.T.);
#1288 = EDGE_CURVE('',#1241,#1264,#1289,.T.);
#1289 = LINE('',#1290,#1291);
#1290 = CARTESIAN_POINT('',(3.029464370079,-0.25,0.625));
#1291 = VECTOR('',#1292,3.937007874016E-02);
#1292 = DIRECTION('',(0.905327162004,4.715282392583E-17,-0.424714880524)
  );
#1293 = ORIENTED_EDGE('',*,*,#1263,.F.);
#1294 = ORIENTED_EDGE('',*,*,#387,.F.);
#1295 = PLANE('',#1296);
#1296 = AXIS2_PLACEMENT_3D('',#1297,#1298,#1299);
#1297 = CARTESIAN_POINT('',(3.029464370079,-6.938893903907E-17,0.625));
#1298 = DIRECTION('',(0.424714880524,-1.005115060075E-16,0.905327162004)
  );
#1299 = DIRECTION('',(0.905327162004,4.715282392583E-17,-0.424714880524)
  );
#1300 = ADVANCED_FACE('',(#1301),#1320,.F.);
#1301 = FACE_BOUND('',#1302,.F.);
#1302 = EDGE_LOOP('',(#1303,#1311,#1318,#1319));
#1303 = ORIENTED_EDGE('',*,*,#1304,.T.);
#1304 = EDGE_CURVE('',#396,#1305,#1307,.T.);
#1305 = VERTEX_POINT('',#1306);
#1306 = CARTESIAN_POINT('',(2.9575,-0.17,0.5));
#1307 = LINE('',#1308,#1309);
#1308 = CARTESIAN_POINT('',(2.9575,2.22044604925E-16,0.5));
#1309 = VECTOR('',#1310,3.937007874016E-02);
#1310 = DIRECTION('',(0.,-1.,4.440892098501E-16));
#1311 = ORIENTED_EDGE('',*,*,#1312,.T.);
#1312 = EDGE_CURVE('',#1305,#1305,#1313,.T.);
#1313 = CIRCLE('',#1314,0.145);
#1314 = AXIS2_PLACEMENT_3D('',#1315,#1316,#1317);
#1315 = CARTESIAN_POINT('',(2.8125,-0.17,0.5));
#1316 = DIRECTION('',(0.,1.,-4.440892098501E-16));
#1317 = DIRECTION('',(1.,0.,0.));
#1318 = ORIENTED_EDGE('',*,*,#1304,.F.);
#1319 = ORIENTED_EDGE('',*,*,#395,.F.);
#1320 = CYLINDRICAL_SURFACE('',#1321,0.145);
#1321 = AXIS2_PLACEMENT_3D('',#1322,#1323,#1324);
#1322 = CARTESIAN_POINT('',(2.8125,2.22044604925E-16,0.5));
#1323 = DIRECTION('',(0.,1.,-4.440892098501E-16));
#1324 = DIRECTION('',(1.,0.,0.));
#1325 = ADVANCED_FACE('',(#1326),#1345,.F.);
#1326 = FACE_BOUND('',#1327,.T.);
#1327 = EDGE_LOOP('',(#1328,#1337,#1343,#1344));
#1328 = ORIENTED_EDGE('',*,*,#1329,.T.);
#1329 = EDGE_CURVE('',#1330,#1330,#1332,.T.);
#1330 = VERTEX_POINT('',#1331);
#1331 = CARTESIAN_POINT('',(2.925,-0.17,0.5));
#1332 = CIRCLE('',#1333,0.1125);
#1333 = AXIS2_PLACEMENT_3D('',#1334,#1335,#1336);
#1334 = CARTESIAN_POINT('',(2.8125,-0.17,0.5));
#1335 = DIRECTION('',(0.,1.,-8.840892098501E-16));
#1336 = DIRECTION('',(1.,0.,0.));
#1337 = ORIENTED_EDGE('',*,*,#1338,.T.);
#1338 = EDGE_CURVE('',#1330,#431,#1339,.T.);
#1339 = LINE('',#1340,#1341);
#1340 = CARTESIAN_POINT('',(2.925,4.440918490195E-16,0.5));
#1341 = VECTOR('',#1342,3.937007874016E-02);
#1342 = DIRECTION('',(0.,-1.,8.840892098501E-16));
#1343 = ORIENTED_EDGE('',*,*,#430,.T.);
#1344 = ORIENTED_EDGE('',*,*,#1338,.F.);
#1345 = CYLINDRICAL_SURFACE('',#1346,0.1125);
#1346 = AXIS2_PLACEMENT_3D('',#1347,#1348,#1349);
#1347 = CARTESIAN_POINT('',(2.8125,4.440918490195E-16,0.5));
#1348 = DIRECTION('',(0.,1.,-8.840892098501E-16));
#1349 = DIRECTION('',(1.,0.,0.));
#1350 = ADVANCED_FACE('',(#1351),#1370,.F.);
#1351 = FACE_BOUND('',#1352,.T.);
#1352 = EDGE_LOOP('',(#1353,#1362,#1368,#1369));
#1353 = ORIENTED_EDGE('',*,*,#1354,.T.);
#1354 = EDGE_CURVE('',#1355,#1355,#1357,.T.);
#1355 = VERTEX_POINT('',#1356);
#1356 = CARTESIAN_POINT('',(2.925,-0.17,-0.5));
#1357 = CIRCLE('',#1358,0.1125);
#1358 = AXIS2_PLACEMENT_3D('',#1359,#1360,#1361);
#1359 = CARTESIAN_POINT('',(2.8125,-0.17,-0.5));
#1360 = DIRECTION('',(0.,1.,-8.840892098501E-16));
#1361 = DIRECTION('',(1.,0.,0.));
#1362 = ORIENTED_EDGE('',*,*,#1363,.T.);
#1363 = EDGE_CURVE('',#1355,#442,#1364,.T.);
#1364 = LINE('',#1365,#1366);
#1365 = CARTESIAN_POINT('',(2.925,-4.440918490195E-16,-0.5));
#1366 = VECTOR('',#1367,3.937007874016E-02);
#1367 = DIRECTION('',(0.,-1.,8.840892098501E-16));
#1368 = ORIENTED_EDGE('',*,*,#441,.T.);
#1369 = ORIENTED_EDGE('',*,*,#1363,.F.);
#1370 = CYLINDRICAL_SURFACE('',#1371,0.1125);
#1371 = AXIS2_PLACEMENT_3D('',#1372,#1373,#1374);
#1372 = CARTESIAN_POINT('',(2.8125,-4.440918490195E-16,-0.5));
#1373 = DIRECTION('',(0.,1.,-8.840892098501E-16));
#1374 = DIRECTION('',(1.,0.,0.));
#1375 = ADVANCED_FACE('',(#1376),#1395,.F.);
#1376 = FACE_BOUND('',#1377,.T.);
#1377 = EDGE_LOOP('',(#1378,#1387,#1393,#1394));
#1378 = ORIENTED_EDGE('',*,*,#1379,.T.);
#1379 = EDGE_CURVE('',#1380,#1380,#1382,.T.);
#1380 = VERTEX_POINT('',#1381);
#1381 = CARTESIAN_POINT('',(-2.7,-0.17,-0.5));
#1382 = CIRCLE('',#1383,0.1125);
#1383 = AXIS2_PLACEMENT_3D('',#1384,#1385,#1386);
#1384 = CARTESIAN_POINT('',(-2.8125,-0.17,-0.5));
#1385 = DIRECTION('',(0.,1.,-8.840892098501E-16));
#1386 = DIRECTION('',(1.,0.,0.));
#1387 = ORIENTED_EDGE('',*,*,#1388,.T.);
#1388 = EDGE_CURVE('',#1380,#453,#1389,.T.);
#1389 = LINE('',#1390,#1391);
#1390 = CARTESIAN_POINT('',(-2.7,-4.440918490195E-16,-0.5));
#1391 = VECTOR('',#1392,3.937007874016E-02);
#1392 = DIRECTION('',(0.,-1.,8.840892098501E-16));
#1393 = ORIENTED_EDGE('',*,*,#452,.T.);
#1394 = ORIENTED_EDGE('',*,*,#1388,.F.);
#1395 = CYLINDRICAL_SURFACE('',#1396,0.1125);
#1396 = AXIS2_PLACEMENT_3D('',#1397,#1398,#1399);
#1397 = CARTESIAN_POINT('',(-2.8125,-4.440918490195E-16,-0.5));
#1398 = DIRECTION('',(0.,1.,-8.840892098501E-16));
#1399 = DIRECTION('',(1.,0.,0.));
#1400 = ADVANCED_FACE('',(#1401),#1420,.F.);
#1401 = FACE_BOUND('',#1402,.T.);
#1402 = EDGE_LOOP('',(#1403,#1412,#1418,#1419));
#1403 = ORIENTED_EDGE('',*,*,#1404,.T.);
#1404 = EDGE_CURVE('',#1405,#1405,#1407,.T.);
#1405 = VERTEX_POINT('',#1406);
#1406 = CARTESIAN_POINT('',(-2.7,-0.17,0.5));
#1407 = CIRCLE('',#1408,0.1125);
#1408 = AXIS2_PLACEMENT_3D('',#1409,#1410,#1411);
#1409 = CARTESIAN_POINT('',(-2.8125,-0.17,0.5));
#1410 = DIRECTION('',(0.,1.,-8.840892098501E-16));
#1411 = DIRECTION('',(1.,0.,0.));
#1412 = ORIENTED_EDGE('',*,*,#1413,.T.);
#1413 = EDGE_CURVE('',#1405,#464,#1414,.T.);
#1414 = LINE('',#1415,#1416);
#1415 = CARTESIAN_POINT('',(-2.7,4.440918490195E-16,0.5));
#1416 = VECTOR('',#1417,3.937007874016E-02);
#1417 = DIRECTION('',(0.,-1.,8.840892098501E-16));
#1418 = ORIENTED_EDGE('',*,*,#463,.T.);
#1419 = ORIENTED_EDGE('',*,*,#1413,.F.);
#1420 = CYLINDRICAL_SURFACE('',#1421,0.1125);
#1421 = AXIS2_PLACEMENT_3D('',#1422,#1423,#1424);
#1422 = CARTESIAN_POINT('',(-2.8125,4.440918490195E-16,0.5));
#1423 = DIRECTION('',(0.,1.,-8.840892098501E-16));
#1424 = DIRECTION('',(1.,0.,0.));
#1425 = ADVANCED_FACE('',(#1426),#1445,.F.);
#1426 = FACE_BOUND('',#1427,.F.);
#1427 = EDGE_LOOP('',(#1428,#1436,#1443,#1444));
#1428 = ORIENTED_EDGE('',*,*,#1429,.T.);
#1429 = EDGE_CURVE('',#492,#1430,#1432,.T.);
#1430 = VERTEX_POINT('',#1431);
#1431 = CARTESIAN_POINT('',(-1.3875,-0.1875,-0.51));
#1432 = LINE('',#1433,#1434);
#1433 = CARTESIAN_POINT('',(-1.3875,-0.1875,-0.75));
#1434 = VECTOR('',#1435,3.937007874016E-02);
#1435 = DIRECTION('',(0.,6.640892098501E-16,1.));
#1436 = ORIENTED_EDGE('',*,*,#1437,.T.);
#1437 = EDGE_CURVE('',#1430,#1430,#1438,.T.);
#1438 = CIRCLE('',#1439,0.1125);
#1439 = AXIS2_PLACEMENT_3D('',#1440,#1441,#1442);
#1440 = CARTESIAN_POINT('',(-1.5,-0.1875,-0.51));
#1441 = DIRECTION('',(0.,-4.440892098501E-16,-1.));
#1442 = DIRECTION('',(1.,0.,0.));
#1443 = ORIENTED_EDGE('',*,*,#1429,.F.);
#1444 = ORIENTED_EDGE('',*,*,#491,.F.);
#1445 = CYLINDRICAL_SURFACE('',#1446,0.1125);
#1446 = AXIS2_PLACEMENT_3D('',#1447,#1448,#1449);
#1447 = CARTESIAN_POINT('',(-1.5,-0.1875,-0.75));
#1448 = DIRECTION('',(0.,-6.640892098501E-16,-1.));
#1449 = DIRECTION('',(1.,0.,0.));
#1450 = ADVANCED_FACE('',(#1451),#1470,.F.);
#1451 = FACE_BOUND('',#1452,.F.);
#1452 = EDGE_LOOP('',(#1453,#1461,#1468,#1469));
#1453 = ORIENTED_EDGE('',*,*,#1454,.T.);
#1454 = EDGE_CURVE('',#503,#1455,#1457,.T.);
#1455 = VERTEX_POINT('',#1456);
#1456 = CARTESIAN_POINT('',(1.6125,-0.1875,-0.51));
#1457 = LINE('',#1458,#1459);
#1458 = CARTESIAN_POINT('',(1.6125,-0.1875,-0.75));
#1459 = VECTOR('',#1460,3.937007874016E-02);
#1460 = DIRECTION('',(0.,6.640892098501E-16,1.));
#1461 = ORIENTED_EDGE('',*,*,#1462,.T.);
#1462 = EDGE_CURVE('',#1455,#1455,#1463,.T.);
#1463 = CIRCLE('',#1464,0.1125);
#1464 = AXIS2_PLACEMENT_3D('',#1465,#1466,#1467);
#1465 = CARTESIAN_POINT('',(1.5,-0.1875,-0.51));
#1466 = DIRECTION('',(0.,-4.440892098501E-16,-1.));
#1467 = DIRECTION('',(1.,0.,0.));
#1468 = ORIENTED_EDGE('',*,*,#1454,.F.);
#1469 = ORIENTED_EDGE('',*,*,#502,.F.);
#1470 = CYLINDRICAL_SURFACE('',#1471,0.1125);
#1471 = AXIS2_PLACEMENT_3D('',#1472,#1473,#1474);
#1472 = CARTESIAN_POINT('',(1.5,-0.1875,-0.75));
#1473 = DIRECTION('',(0.,-6.640892098501E-16,-1.));
#1474 = DIRECTION('',(1.,0.,0.));
#1475 = ADVANCED_FACE('',(#1476),#1479,.F.);
#1476 = FACE_BOUND('',#1477,.T.);
#1477 = EDGE_LOOP('',(#1478));
#1478 = ORIENTED_EDGE('',*,*,#527,.T.);
#1479 = PLANE('',#1480);
#1480 = AXIS2_PLACEMENT_3D('',#1481,#1482,#1483);
#1481 = CARTESIAN_POINT('',(-4.26,-0.1875,1.22636805587E-16));
#1482 = DIRECTION('',(1.,0.,0.));
#1483 = DIRECTION('',(0.,4.440892098501E-16,1.));
#1484 = ADVANCED_FACE('',(#1485),#1488,.F.);
#1485 = FACE_BOUND('',#1486,.T.);
#1486 = EDGE_LOOP('',(#1487));
#1487 = ORIENTED_EDGE('',*,*,#552,.T.);
#1488 = PLANE('',#1489);
#1489 = AXIS2_PLACEMENT_3D('',#1490,#1491,#1492);
#1490 = CARTESIAN_POINT('',(-4.26,-0.1875,1.22636805587E-16));
#1491 = DIRECTION('',(1.,0.,0.));
#1492 = DIRECTION('',(0.,4.440892098501E-16,1.));
#1493 = ADVANCED_FACE('',(#1494),#1513,.F.);
#1494 = FACE_BOUND('',#1495,.F.);
#1495 = EDGE_LOOP('',(#1496,#1504,#1511,#1512));
#1496 = ORIENTED_EDGE('',*,*,#1497,.T.);
#1497 = EDGE_CURVE('',#576,#1498,#1500,.T.);
#1498 = VERTEX_POINT('',#1499);
#1499 = CARTESIAN_POINT('',(4.26,-0.1875,0.6125));
#1500 = LINE('',#1501,#1502);
#1501 = CARTESIAN_POINT('',(4.5,-0.1875,0.6125));
#1502 = VECTOR('',#1503,3.937007874016E-02);
#1503 = DIRECTION('',(-1.,9.769962616701E-32,2.2E-16));
#1504 = ORIENTED_EDGE('',*,*,#1505,.T.);
#1505 = EDGE_CURVE('',#1498,#1498,#1506,.T.);
#1506 = CIRCLE('',#1507,0.1125);
#1507 = AXIS2_PLACEMENT_3D('',#1508,#1509,#1510);
#1508 = CARTESIAN_POINT('',(4.26,-0.1875,0.5));
#1509 = DIRECTION('',(1.,0.,-0.));
#1510 = DIRECTION('',(0.,4.440892098501E-16,1.));
#1511 = ORIENTED_EDGE('',*,*,#1497,.F.);
#1512 = ORIENTED_EDGE('',*,*,#575,.F.);
#1513 = CYLINDRICAL_SURFACE('',#1514,0.1125);
#1514 = AXIS2_PLACEMENT_3D('',#1515,#1516,#1517);
#1515 = CARTESIAN_POINT('',(4.5,-0.1875,0.5));
#1516 = DIRECTION('',(1.,-9.769962616701E-32,-2.2E-16));
#1517 = DIRECTION('',(2.2E-16,6.640892098501E-16,1.));
#1518 = ADVANCED_FACE('',(#1519),#1538,.F.);
#1519 = FACE_BOUND('',#1520,.F.);
#1520 = EDGE_LOOP('',(#1521,#1529,#1536,#1537));
#1521 = ORIENTED_EDGE('',*,*,#1522,.T.);
#1522 = EDGE_CURVE('',#587,#1523,#1525,.T.);
#1523 = VERTEX_POINT('',#1524);
#1524 = CARTESIAN_POINT('',(4.26,-0.1875,-0.3875));
#1525 = LINE('',#1526,#1527);
#1526 = CARTESIAN_POINT('',(4.5,-0.1875,-0.3875));
#1527 = VECTOR('',#1528,3.937007874016E-02);
#1528 = DIRECTION('',(-1.,9.769962616701E-32,2.2E-16));
#1529 = ORIENTED_EDGE('',*,*,#1530,.T.);
#1530 = EDGE_CURVE('',#1523,#1523,#1531,.T.);
#1531 = CIRCLE('',#1532,0.1125);
#1532 = AXIS2_PLACEMENT_3D('',#1533,#1534,#1535);
#1533 = CARTESIAN_POINT('',(4.26,-0.1875,-0.5));
#1534 = DIRECTION('',(1.,0.,-0.));
#1535 = DIRECTION('',(0.,4.440892098501E-16,1.));
#1536 = ORIENTED_EDGE('',*,*,#1522,.F.);
#1537 = ORIENTED_EDGE('',*,*,#586,.F.);
#1538 = CYLINDRICAL_SURFACE('',#1539,0.1125);
#1539 = AXIS2_PLACEMENT_3D('',#1540,#1541,#1542);
#1540 = CARTESIAN_POINT('',(4.5,-0.1875,-0.5));
#1541 = DIRECTION('',(1.,-9.769962616701E-32,-2.2E-16));
#1542 = DIRECTION('',(2.2E-16,6.640892098501E-16,1.));
#1543 = ADVANCED_FACE('',(#1544),#1547,.T.);
#1544 = FACE_BOUND('',#1545,.T.);
#1545 = EDGE_LOOP('',(#1546));
#1546 = ORIENTED_EDGE('',*,*,#611,.T.);
#1547 = PLANE('',#1548);
#1548 = AXIS2_PLACEMENT_3D('',#1549,#1550,#1551);
#1549 = CARTESIAN_POINT('',(0.,-0.1875,0.51));
#1550 = DIRECTION('',(0.,4.440892098501E-16,1.));
#1551 = DIRECTION('',(1.,0.,0.));
#1552 = ADVANCED_FACE('',(#1553),#1556,.T.);
#1553 = FACE_BOUND('',#1554,.T.);
#1554 = EDGE_LOOP('',(#1555));
#1555 = ORIENTED_EDGE('',*,*,#636,.T.);
#1556 = PLANE('',#1557);
#1557 = AXIS2_PLACEMENT_3D('',#1558,#1559,#1560);
#1558 = CARTESIAN_POINT('',(0.,-0.1875,0.51));
#1559 = DIRECTION('',(0.,4.440892098501E-16,1.));
#1560 = DIRECTION('',(1.,0.,0.));
#1561 = ADVANCED_FACE('',(#1562,#1565),#1568,.T.);
#1562 = FACE_BOUND('',#1563,.T.);
#1563 = EDGE_LOOP('',(#1564));
#1564 = ORIENTED_EDGE('',*,*,#661,.T.);
#1565 = FACE_BOUND('',#1566,.T.);
#1566 = EDGE_LOOP('',(#1567));
#1567 = ORIENTED_EDGE('',*,*,#1379,.F.);
#1568 = PLANE('',#1569);
#1569 = AXIS2_PLACEMENT_3D('',#1570,#1571,#1572);
#1570 = CARTESIAN_POINT('',(3.070866141732E-16,-0.17,3.49676543189E-17)
  );
#1571 = DIRECTION('',(0.,1.,-2.240892098501E-16));
#1572 = DIRECTION('',(0.,2.240892098501E-16,1.));
#1573 = ADVANCED_FACE('',(#1574),#1579,.T.);
#1574 = FACE_BOUND('',#1575,.F.);
#1575 = EDGE_LOOP('',(#1576,#1577,#1578));
#1576 = ORIENTED_EDGE('',*,*,#734,.T.);
#1577 = ORIENTED_EDGE('',*,*,#717,.T.);
#1578 = ORIENTED_EDGE('',*,*,#686,.T.);
#1579 = PLANE('',#1580);
#1580 = AXIS2_PLACEMENT_3D('',#1581,#1582,#1583);
#1581 = CARTESIAN_POINT('',(-3.497016601865,-0.25,-8.392237036537E-16));
#1582 = DIRECTION('',(2.22044604925E-16,1.,2.465190328816E-32));
#1583 = DIRECTION('',(2.22044604925E-16,0.,-1.));
#1584 = ADVANCED_FACE('',(#1585),#1590,.T.);
#1585 = FACE_BOUND('',#1586,.F.);
#1586 = EDGE_LOOP('',(#1587,#1588,#1589));
#1587 = ORIENTED_EDGE('',*,*,#806,.T.);
#1588 = ORIENTED_EDGE('',*,*,#789,.T.);
#1589 = ORIENTED_EDGE('',*,*,#758,.T.);
#1590 = PLANE('',#1591);
#1591 = AXIS2_PLACEMENT_3D('',#1592,#1593,#1594);
#1592 = CARTESIAN_POINT('',(5.197947495409E-17,-0.25,4.827403928257E-03)
  );
#1593 = DIRECTION('',(0.,1.,-2.22044604925E-16));
#1594 = DIRECTION('',(0.,2.22044604925E-16,1.));
#1595 = ADVANCED_FACE('',(#1596,#1599),#1602,.T.);
#1596 = FACE_BOUND('',#1597,.T.);
#1597 = EDGE_LOOP('',(#1598));
#1598 = ORIENTED_EDGE('',*,*,#830,.T.);
#1599 = FACE_BOUND('',#1600,.T.);
#1600 = EDGE_LOOP('',(#1601));
#1601 = ORIENTED_EDGE('',*,*,#1404,.F.);
#1602 = PLANE('',#1603);
#1603 = AXIS2_PLACEMENT_3D('',#1604,#1605,#1606);
#1604 = CARTESIAN_POINT('',(3.070866141732E-16,-0.17,3.49676543189E-17)
  );
#1605 = DIRECTION('',(0.,1.,-2.240892098501E-16));
#1606 = DIRECTION('',(0.,2.240892098501E-16,1.));
#1607 = ADVANCED_FACE('',(#1608),#1613,.T.);
#1608 = FACE_BOUND('',#1609,.F.);
#1609 = EDGE_LOOP('',(#1610,#1611,#1612));
#1610 = ORIENTED_EDGE('',*,*,#903,.T.);
#1611 = ORIENTED_EDGE('',*,*,#886,.T.);
#1612 = ORIENTED_EDGE('',*,*,#855,.T.);
#1613 = PLANE('',#1614);
#1614 = AXIS2_PLACEMENT_3D('',#1615,#1616,#1617);
#1615 = CARTESIAN_POINT('',(5.197947495409E-17,-0.25,4.827403928257E-03)
  );
#1616 = DIRECTION('',(0.,1.,-2.22044604925E-16));
#1617 = DIRECTION('',(0.,2.22044604925E-16,1.));
#1618 = ADVANCED_FACE('',(#1619),#1624,.T.);
#1619 = FACE_BOUND('',#1620,.T.);
#1620 = EDGE_LOOP('',(#1621,#1622,#1623));
#1621 = ORIENTED_EDGE('',*,*,#927,.T.);
#1622 = ORIENTED_EDGE('',*,*,#975,.T.);
#1623 = ORIENTED_EDGE('',*,*,#958,.T.);
#1624 = PLANE('',#1625);
#1625 = AXIS2_PLACEMENT_3D('',#1626,#1627,#1628);
#1626 = CARTESIAN_POINT('',(5.197947495409E-17,-0.25,4.827403928257E-03)
  );
#1627 = DIRECTION('',(0.,1.,-2.22044604925E-16));
#1628 = DIRECTION('',(0.,2.22044604925E-16,1.));
#1629 = ADVANCED_FACE('',(#1630,#1633),#1636,.T.);
#1630 = FACE_BOUND('',#1631,.T.);
#1631 = EDGE_LOOP('',(#1632));
#1632 = ORIENTED_EDGE('',*,*,#999,.T.);
#1633 = FACE_BOUND('',#1634,.T.);
#1634 = EDGE_LOOP('',(#1635));
#1635 = ORIENTED_EDGE('',*,*,#1354,.F.);
#1636 = PLANE('',#1637);
#1637 = AXIS2_PLACEMENT_3D('',#1638,#1639,#1640);
#1638 = CARTESIAN_POINT('',(3.070866141732E-16,-0.17,3.49676543189E-17)
  );
#1639 = DIRECTION('',(0.,1.,-2.240892098501E-16));
#1640 = DIRECTION('',(0.,2.240892098501E-16,1.));
#1641 = ADVANCED_FACE('',(#1642),#1647,.T.);
#1642 = FACE_BOUND('',#1643,.F.);
#1643 = EDGE_LOOP('',(#1644,#1645,#1646));
#1644 = ORIENTED_EDGE('',*,*,#1072,.T.);
#1645 = ORIENTED_EDGE('',*,*,#1055,.T.);
#1646 = ORIENTED_EDGE('',*,*,#1024,.T.);
#1647 = PLANE('',#1648);
#1648 = AXIS2_PLACEMENT_3D('',#1649,#1650,#1651);
#1649 = CARTESIAN_POINT('',(5.197947495409E-17,-0.25,4.827403928257E-03)
  );
#1650 = DIRECTION('',(0.,1.,-2.22044604925E-16));
#1651 = DIRECTION('',(0.,2.22044604925E-16,1.));
#1652 = ADVANCED_FACE('',(#1653),#1658,.T.);
#1653 = FACE_BOUND('',#1654,.T.);
#1654 = EDGE_LOOP('',(#1655,#1656,#1657));
#1655 = ORIENTED_EDGE('',*,*,#1096,.T.);
#1656 = ORIENTED_EDGE('',*,*,#1144,.T.);
#1657 = ORIENTED_EDGE('',*,*,#1127,.T.);
#1658 = PLANE('',#1659);
#1659 = AXIS2_PLACEMENT_3D('',#1660,#1661,#1662);
#1660 = CARTESIAN_POINT('',(5.197947495409E-17,-0.25,4.827403928257E-03)
  );
#1661 = DIRECTION('',(0.,1.,-2.22044604925E-16));
#1662 = DIRECTION('',(0.,2.22044604925E-16,1.));
#1663 = ADVANCED_FACE('',(#1664),#1669,.T.);
#1664 = FACE_BOUND('',#1665,.F.);
#1665 = EDGE_LOOP('',(#1666,#1667,#1668));
#1666 = ORIENTED_EDGE('',*,*,#1216,.T.);
#1667 = ORIENTED_EDGE('',*,*,#1199,.T.);
#1668 = ORIENTED_EDGE('',*,*,#1168,.T.);
#1669 = PLANE('',#1670);
#1670 = AXIS2_PLACEMENT_3D('',#1671,#1672,#1673);
#1671 = CARTESIAN_POINT('',(5.197947495409E-17,-0.25,4.827403928257E-03)
  );
#1672 = DIRECTION('',(0.,1.,-2.22044604925E-16));
#1673 = DIRECTION('',(0.,2.22044604925E-16,1.));
#1674 = ADVANCED_FACE('',(#1675),#1680,.T.);
#1675 = FACE_BOUND('',#1676,.T.);
#1676 = EDGE_LOOP('',(#1677,#1678,#1679));
#1677 = ORIENTED_EDGE('',*,*,#1240,.T.);
#1678 = ORIENTED_EDGE('',*,*,#1288,.T.);
#1679 = ORIENTED_EDGE('',*,*,#1271,.T.);
#1680 = PLANE('',#1681);
#1681 = AXIS2_PLACEMENT_3D('',#1682,#1683,#1684);
#1682 = CARTESIAN_POINT('',(3.497016601865,-0.25,-3.49676543189E-17));
#1683 = DIRECTION('',(0.,1.,-1.110223024625E-16));
#1684 = DIRECTION('',(0.,1.110223024625E-16,1.));
#1685 = ADVANCED_FACE('',(#1686,#1689),#1692,.T.);
#1686 = FACE_BOUND('',#1687,.T.);
#1687 = EDGE_LOOP('',(#1688));
#1688 = ORIENTED_EDGE('',*,*,#1312,.T.);
#1689 = FACE_BOUND('',#1690,.T.);
#1690 = EDGE_LOOP('',(#1691));
#1691 = ORIENTED_EDGE('',*,*,#1329,.F.);
#1692 = PLANE('',#1693);
#1693 = AXIS2_PLACEMENT_3D('',#1694,#1695,#1696);
#1694 = CARTESIAN_POINT('',(3.070866141732E-16,-0.17,3.49676543189E-17)
  );
#1695 = DIRECTION('',(0.,1.,-2.240892098501E-16));
#1696 = DIRECTION('',(0.,2.240892098501E-16,1.));
#1697 = ADVANCED_FACE('',(#1698),#1701,.F.);
#1698 = FACE_BOUND('',#1699,.T.);
#1699 = EDGE_LOOP('',(#1700));
#1700 = ORIENTED_EDGE('',*,*,#1437,.T.);
#1701 = PLANE('',#1702);
#1702 = AXIS2_PLACEMENT_3D('',#1703,#1704,#1705);
#1703 = CARTESIAN_POINT('',(1.889763779528E-17,-0.1875,-0.51));
#1704 = DIRECTION('',(0.,4.440892098501E-16,1.));
#1705 = DIRECTION('',(1.,0.,0.));
#1706 = ADVANCED_FACE('',(#1707),#1710,.F.);
#1707 = FACE_BOUND('',#1708,.T.);
#1708 = EDGE_LOOP('',(#1709));
#1709 = ORIENTED_EDGE('',*,*,#1462,.T.);
#1710 = PLANE('',#1711);
#1711 = AXIS2_PLACEMENT_3D('',#1712,#1713,#1714);
#1712 = CARTESIAN_POINT('',(1.889763779528E-17,-0.1875,-0.51));
#1713 = DIRECTION('',(0.,4.440892098501E-16,1.));
#1714 = DIRECTION('',(1.,0.,0.));
#1715 = ADVANCED_FACE('',(#1716),#1719,.T.);
#1716 = FACE_BOUND('',#1717,.T.);
#1717 = EDGE_LOOP('',(#1718));
#1718 = ORIENTED_EDGE('',*,*,#1505,.T.);
#1719 = PLANE('',#1720);
#1720 = AXIS2_PLACEMENT_3D('',#1721,#1722,#1723);
#1721 = CARTESIAN_POINT('',(4.26,-0.1875,1.22636805587E-16));
#1722 = DIRECTION('',(1.,0.,0.));
#1723 = DIRECTION('',(0.,4.440892098501E-16,1.));
#1724 = ADVANCED_FACE('',(#1725),#1728,.T.);
#1725 = FACE_BOUND('',#1726,.T.);
#1726 = EDGE_LOOP('',(#1727));
#1727 = ORIENTED_EDGE('',*,*,#1530,.T.);
#1728 = PLANE('',#1729);
#1729 = AXIS2_PLACEMENT_3D('',#1730,#1731,#1732);
#1730 = CARTESIAN_POINT('',(4.26,-0.1875,1.22636805587E-16));
#1731 = DIRECTION('',(1.,0.,0.));
#1732 = DIRECTION('',(0.,4.440892098501E-16,1.));
#1733 = ( GEOMETRIC_REPRESENTATION_CONTEXT(3) 
GLOBAL_UNCERTAINTY_ASSIGNED_CONTEXT((#1740)) 
GLOBAL_UNIT_ASSIGNED_CONTEXT((#1734,#1738,#1739)) REPRESENTATION_CONTEXT
('Context #1','3D Context with UNIT and UNCERTAINTY') );
#1734 = ( CONVERSION_BASED_UNIT('INCH',#1736) LENGTH_UNIT() NAMED_UNIT(
  #1735) );
#1735 = DIMENSIONAL_EXPONENTS(1.,0.,0.,0.,0.,0.,0.);
#1736 = LENGTH_MEASURE_WITH_UNIT(25.4,#1737);
#1737 = ( LENGTH_UNIT() NAMED_UNIT(*) SI_UNIT(.MILLI.,.METRE.) );
#1738 = ( NAMED_UNIT(*) PLANE_ANGLE_UNIT() SI_UNIT($,.RADIAN.) );
#1739 = ( NAMED_UNIT(*) SI_UNIT($,.STERADIAN.) SOLID_ANGLE_UNIT() );
#1740 = UNCERTAINTY_MEASURE_WITH_UNIT(LENGTH_MEASURE(3.937007874016E-09)
  ,#1734,'distance_accuracy_value','confusion accuracy');
#1741 = PRODUCT_RELATED_PRODUCT_CATEGORY('part',$,(#7));
#1742 = MECHANICAL_DESIGN_GEOMETRIC_PRESENTATION_REPRESENTATION('',(
    #1743),#1733);
#1743 = STYLED_ITEM('color',(#1744),#15);
#1744 = PRESENTATION_STYLE_ASSIGNMENT((#1745,#1751));
#1745 = SURFACE_STYLE_USAGE(.BOTH.,#1746);
#1746 = SURFACE_SIDE_STYLE('',(#1747));
#1747 = SURFACE_STYLE_FILL_AREA(#1748);
#1748 = FILL_AREA_STYLE('',(#1749));
#1749 = FILL_AREA_STYLE_COLOUR('',#1750);
#1750 = COLOUR_RGB('',0.678431390124,0.709803936702,0.741176476869);
#1751 = CURVE_STYLE('',#1752,POSITIVE_LENGTH_MEASURE(0.1),#1753);
#1752 = DRAUGHTING_PRE_DEFINED_CURVE_FONT('continuous');
#1753 = COLOUR_RGB('',9.803921802644E-02,9.803921802644E-02,
  9.803921802644E-02);
ENDSEC;
END-ISO-10303-21;
