ISO-10303-21;
HEADER;
FILE_DESCRIPTION(('FreeCAD Model'),'2;1');
FILE_NAME('Open CASCADE Shape Model','2024-10-28T10:58:16',(''),(''),
  'Open CASCADE STEP processor 7.7','Ondsel','Unknown');
FILE_SCHEMA(('AUTOMOTIVE_DESIGN { 1 0 10303 214 1 1 1 1 }'));
ENDSEC;
DATA;
#1 = APPLICATION_PROTOCOL_DEFINITION('international standard',
  'automotive_design',2000,#2);
#2 = APPLICATION_CONTEXT(
  'core data for automotive mechanical design processes');
#3 = SHAPE_DEFINITION_REPRESENTATION(#4,#10);
#4 = PRODUCT_DEFINITION_SHAPE('','',#5);
#5 = PRODUCT_DEFINITION('design','',#6,#9);
#6 = PRODUCT_DEFINITION_FORMATION('','',#7);
#7 = PRODUCT('front-plate','front-plate','',(#8));
#8 = PRODUCT_CONTEXT('',#2,'mechanical');
#9 = PRODUCT_DEFINITION_CONTEXT('part definition',#2,'design');
#10 = ADVANCED_BREP_SHAPE_REPRESENTATION('',(#11,#15),#780);
#11 = AXIS2_PLACEMENT_3D('',#12,#13,#14);
#12 = CARTESIAN_POINT('',(0.,0.,0.));
#13 = DIRECTION('',(0.,0.,1.));
#14 = DIRECTION('',(1.,0.,-0.));
#15 = MANIFOLD_SOLID_BREP('',#16);
#16 = CLOSED_SHELL('',(#17,#68,#99,#177,#255,#272,#297,#314,#331,#370,
    #409,#443,#468,#493,#518,#543,#552,#577,#602,#627,#652,#677,#702,
    #714,#726,#735,#744,#753,#762,#771));
#17 = ADVANCED_FACE('',(#18,#52),#63,.F.);
#18 = FACE_BOUND('',#19,.F.);
#19 = EDGE_LOOP('',(#20,#30,#38,#46));
#20 = ORIENTED_EDGE('',*,*,#21,.T.);
#21 = EDGE_CURVE('',#22,#24,#26,.T.);
#22 = VERTEX_POINT('',#23);
#23 = CARTESIAN_POINT('',(-2.625,0.,0.25));
#24 = VERTEX_POINT('',#25);
#25 = CARTESIAN_POINT('',(-2.625,-0.375,0.25));
#26 = LINE('',#27,#28);
#27 = CARTESIAN_POINT('',(-2.625,5.551181102362E-17,0.25));
#28 = VECTOR('',#29,3.937007874016E-02);
#29 = DIRECTION('',(0.,-1.,2.2E-16));
#30 = ORIENTED_EDGE('',*,*,#31,.T.);
#31 = EDGE_CURVE('',#24,#32,#34,.T.);
#32 = VERTEX_POINT('',#33);
#33 = CARTESIAN_POINT('',(-2.625,-0.375,-0.25));
#34 = LINE('',#35,#36);
#35 = CARTESIAN_POINT('',(-2.625,-0.375,0.25));
#36 = VECTOR('',#37,3.937007874016E-02);
#37 = DIRECTION('',(0.,2.2E-16,-1.));
#38 = ORIENTED_EDGE('',*,*,#39,.F.);
#39 = EDGE_CURVE('',#40,#32,#42,.T.);
#40 = VERTEX_POINT('',#41);
#41 = CARTESIAN_POINT('',(-2.625,0.,-0.25));
#42 = LINE('',#43,#44);
#43 = CARTESIAN_POINT('',(-2.625,-5.551181102362E-17,-0.25));
#44 = VECTOR('',#45,3.937007874016E-02);
#45 = DIRECTION('',(0.,-1.,2.2E-16));
#46 = ORIENTED_EDGE('',*,*,#47,.F.);
#47 = EDGE_CURVE('',#22,#40,#48,.T.);
#48 = LINE('',#49,#50);
#49 = CARTESIAN_POINT('',(-2.625,-5.551181102362E-17,0.25));
#50 = VECTOR('',#51,3.937007874016E-02);
#51 = DIRECTION('',(0.,2.2E-16,-1.));
#52 = FACE_BOUND('',#53,.F.);
#53 = EDGE_LOOP('',(#54));
#54 = ORIENTED_EDGE('',*,*,#55,.T.);
#55 = EDGE_CURVE('',#56,#56,#58,.T.);
#56 = VERTEX_POINT('',#57);
#57 = CARTESIAN_POINT('',(-2.625,-0.1875,-0.1125));
#58 = CIRCLE('',#59,0.1125);
#59 = AXIS2_PLACEMENT_3D('',#60,#61,#62);
#60 = CARTESIAN_POINT('',(-2.625,-0.1875,-4.173228346457E-17));
#61 = DIRECTION('',(-1.,2.2E-16,-2.2E-16));
#62 = DIRECTION('',(2.2E-16,2.2E-16,-1.));
#63 = PLANE('',#64);
#64 = AXIS2_PLACEMENT_3D('',#65,#66,#67);
#65 = CARTESIAN_POINT('',(-2.625,5.551181102362E-17,0.25));
#66 = DIRECTION('',(1.,0.,0.));
#67 = DIRECTION('',(0.,-2.2E-16,-1.));
#68 = ADVANCED_FACE('',(#69),#94,.T.);
#69 = FACE_BOUND('',#70,.T.);
#70 = EDGE_LOOP('',(#71,#72,#80,#88));
#71 = ORIENTED_EDGE('',*,*,#21,.T.);
#72 = ORIENTED_EDGE('',*,*,#73,.T.);
#73 = EDGE_CURVE('',#24,#74,#76,.T.);
#74 = VERTEX_POINT('',#75);
#75 = CARTESIAN_POINT('',(-2.125,-0.375,0.25));
#76 = LINE('',#77,#78);
#77 = CARTESIAN_POINT('',(-2.625,-0.375,0.25));
#78 = VECTOR('',#79,3.937007874016E-02);
#79 = DIRECTION('',(1.,0.,0.));
#80 = ORIENTED_EDGE('',*,*,#81,.F.);
#81 = EDGE_CURVE('',#82,#74,#84,.T.);
#82 = VERTEX_POINT('',#83);
#83 = CARTESIAN_POINT('',(-2.125,0.,0.25));
#84 = LINE('',#85,#86);
#85 = CARTESIAN_POINT('',(-2.125,5.551181102362E-17,0.25));
#86 = VECTOR('',#87,3.937007874016E-02);
#87 = DIRECTION('',(0.,-1.,2.2E-16));
#88 = ORIENTED_EDGE('',*,*,#89,.F.);
#89 = EDGE_CURVE('',#22,#82,#90,.T.);
#90 = LINE('',#91,#92);
#91 = CARTESIAN_POINT('',(-2.625,-5.551181102362E-17,0.25));
#92 = VECTOR('',#93,3.937007874016E-02);
#93 = DIRECTION('',(1.,0.,0.));
#94 = PLANE('',#95);
#95 = AXIS2_PLACEMENT_3D('',#96,#97,#98);
#96 = CARTESIAN_POINT('',(-2.625,5.551181102362E-17,0.25));
#97 = DIRECTION('',(0.,2.2E-16,1.));
#98 = DIRECTION('',(1.,0.,0.));
#99 = ADVANCED_FACE('',(#100,#150,#161),#172,.T.);
#100 = FACE_BOUND('',#101,.T.);
#101 = EDGE_LOOP('',(#102,#103,#104,#112,#120,#128,#136,#144));
#102 = ORIENTED_EDGE('',*,*,#47,.F.);
#103 = ORIENTED_EDGE('',*,*,#89,.T.);
#104 = ORIENTED_EDGE('',*,*,#105,.T.);
#105 = EDGE_CURVE('',#82,#106,#108,.T.);
#106 = VERTEX_POINT('',#107);
#107 = CARTESIAN_POINT('',(-2.125,0.,0.75));
#108 = LINE('',#109,#110);
#109 = CARTESIAN_POINT('',(-2.125,-5.551181102362E-17,0.25));
#110 = VECTOR('',#111,3.937007874016E-02);
#111 = DIRECTION('',(0.,-2.2E-16,1.));
#112 = ORIENTED_EDGE('',*,*,#113,.F.);
#113 = EDGE_CURVE('',#114,#106,#116,.T.);
#114 = VERTEX_POINT('',#115);
#115 = CARTESIAN_POINT('',(2.625,0.,0.75));
#116 = LINE('',#117,#118);
#117 = CARTESIAN_POINT('',(2.625,-1.665354330709E-16,0.75));
#118 = VECTOR('',#119,3.937007874016E-02);
#119 = DIRECTION('',(-1.,0.,0.));
#120 = ORIENTED_EDGE('',*,*,#121,.F.);
#121 = EDGE_CURVE('',#122,#114,#124,.T.);
#122 = VERTEX_POINT('',#123);
#123 = CARTESIAN_POINT('',(2.625,0.,-0.75));
#124 = LINE('',#125,#126);
#125 = CARTESIAN_POINT('',(2.625,1.665354330709E-16,-0.75));
#126 = VECTOR('',#127,3.937007874016E-02);
#127 = DIRECTION('',(0.,-2.2E-16,1.));
#128 = ORIENTED_EDGE('',*,*,#129,.F.);
#129 = EDGE_CURVE('',#130,#122,#132,.T.);
#130 = VERTEX_POINT('',#131);
#131 = CARTESIAN_POINT('',(-2.125,0.,-0.75));
#132 = LINE('',#133,#134);
#133 = CARTESIAN_POINT('',(-2.125,1.665354330709E-16,-0.75));
#134 = VECTOR('',#135,3.937007874016E-02);
#135 = DIRECTION('',(1.,0.,0.));
#136 = ORIENTED_EDGE('',*,*,#137,.F.);
#137 = EDGE_CURVE('',#138,#130,#140,.T.);
#138 = VERTEX_POINT('',#139);
#139 = CARTESIAN_POINT('',(-2.125,0.,-0.25));
#140 = LINE('',#141,#142);
#141 = CARTESIAN_POINT('',(-2.125,5.551181102362E-17,-0.25));
#142 = VECTOR('',#143,3.937007874016E-02);
#143 = DIRECTION('',(0.,2.2E-16,-1.));
#144 = ORIENTED_EDGE('',*,*,#145,.F.);
#145 = EDGE_CURVE('',#40,#138,#146,.T.);
#146 = LINE('',#147,#148);
#147 = CARTESIAN_POINT('',(-2.625,5.551181102362E-17,-0.25));
#148 = VECTOR('',#149,3.937007874016E-02);
#149 = DIRECTION('',(1.,0.,0.));
#150 = FACE_BOUND('',#151,.T.);
#151 = EDGE_LOOP('',(#152));
#152 = ORIENTED_EDGE('',*,*,#153,.T.);
#153 = EDGE_CURVE('',#154,#154,#156,.T.);
#154 = VERTEX_POINT('',#155);
#155 = CARTESIAN_POINT('',(-0.75,7.874015748031E-17,-0.3125));
#156 = CIRCLE('',#157,7.E-02);
#157 = AXIS2_PLACEMENT_3D('',#158,#159,#160);
#158 = CARTESIAN_POINT('',(-0.82,-3.937007874016E-19,-0.3125));
#159 = DIRECTION('',(0.,-1.,2.2E-16));
#160 = DIRECTION('',(1.,0.,0.));
#161 = FACE_BOUND('',#162,.T.);
#162 = EDGE_LOOP('',(#163));
#163 = ORIENTED_EDGE('',*,*,#164,.T.);
#164 = EDGE_CURVE('',#165,#165,#167,.T.);
#165 = VERTEX_POINT('',#166);
#166 = CARTESIAN_POINT('',(-0.75,-7.874015748031E-17,0.3125));
#167 = CIRCLE('',#168,7.E-02);
#168 = AXIS2_PLACEMENT_3D('',#169,#170,#171);
#169 = CARTESIAN_POINT('',(-0.82,3.937007874016E-19,0.3125));
#170 = DIRECTION('',(0.,-1.,2.2E-16));
#171 = DIRECTION('',(1.,0.,0.));
#172 = PLANE('',#173);
#173 = AXIS2_PLACEMENT_3D('',#174,#175,#176);
#174 = CARTESIAN_POINT('',(3.703703703704E-02,0.,1.05905511811E-16));
#175 = DIRECTION('',(0.,1.,2.2E-16));
#176 = DIRECTION('',(0.,-2.2E-16,1.));
#177 = ADVANCED_FACE('',(#178,#228,#239),#250,.F.);
#178 = FACE_BOUND('',#179,.F.);
#179 = EDGE_LOOP('',(#180,#181,#182,#190,#198,#206,#214,#222));
#180 = ORIENTED_EDGE('',*,*,#31,.F.);
#181 = ORIENTED_EDGE('',*,*,#73,.T.);
#182 = ORIENTED_EDGE('',*,*,#183,.T.);
#183 = EDGE_CURVE('',#74,#184,#186,.T.);
#184 = VERTEX_POINT('',#185);
#185 = CARTESIAN_POINT('',(-2.125,-0.375,0.75));
#186 = LINE('',#187,#188);
#187 = CARTESIAN_POINT('',(-2.125,-0.375,0.25));
#188 = VECTOR('',#189,3.937007874016E-02);
#189 = DIRECTION('',(0.,-2.2E-16,1.));
#190 = ORIENTED_EDGE('',*,*,#191,.F.);
#191 = EDGE_CURVE('',#192,#184,#194,.T.);
#192 = VERTEX_POINT('',#193);
#193 = CARTESIAN_POINT('',(2.625,-0.375,0.75));
#194 = LINE('',#195,#196);
#195 = CARTESIAN_POINT('',(2.625,-0.375,0.75));
#196 = VECTOR('',#197,3.937007874016E-02);
#197 = DIRECTION('',(-1.,0.,0.));
#198 = ORIENTED_EDGE('',*,*,#199,.F.);
#199 = EDGE_CURVE('',#200,#192,#202,.T.);
#200 = VERTEX_POINT('',#201);
#201 = CARTESIAN_POINT('',(2.625,-0.375,-0.75));
#202 = LINE('',#203,#204);
#203 = CARTESIAN_POINT('',(2.625,-0.375,-0.75));
#204 = VECTOR('',#205,3.937007874016E-02);
#205 = DIRECTION('',(0.,-2.2E-16,1.));
#206 = ORIENTED_EDGE('',*,*,#207,.F.);
#207 = EDGE_CURVE('',#208,#200,#210,.T.);
#208 = VERTEX_POINT('',#209);
#209 = CARTESIAN_POINT('',(-2.125,-0.375,-0.75));
#210 = LINE('',#211,#212);
#211 = CARTESIAN_POINT('',(-2.125,-0.375,-0.75));
#212 = VECTOR('',#213,3.937007874016E-02);
#213 = DIRECTION('',(1.,0.,0.));
#214 = ORIENTED_EDGE('',*,*,#215,.F.);
#215 = EDGE_CURVE('',#216,#208,#218,.T.);
#216 = VERTEX_POINT('',#217);
#217 = CARTESIAN_POINT('',(-2.125,-0.375,-0.25));
#218 = LINE('',#219,#220);
#219 = CARTESIAN_POINT('',(-2.125,-0.375,-0.25));
#220 = VECTOR('',#221,3.937007874016E-02);
#221 = DIRECTION('',(0.,2.2E-16,-1.));
#222 = ORIENTED_EDGE('',*,*,#223,.F.);
#223 = EDGE_CURVE('',#32,#216,#224,.T.);
#224 = LINE('',#225,#226);
#225 = CARTESIAN_POINT('',(-2.625,-0.375,-0.25));
#226 = VECTOR('',#227,3.937007874016E-02);
#227 = DIRECTION('',(1.,0.,0.));
#228 = FACE_BOUND('',#229,.F.);
#229 = EDGE_LOOP('',(#230));
#230 = ORIENTED_EDGE('',*,*,#231,.T.);
#231 = EDGE_CURVE('',#232,#232,#234,.T.);
#232 = VERTEX_POINT('',#233);
#233 = CARTESIAN_POINT('',(-0.71,-0.375,-0.3125));
#234 = CIRCLE('',#235,0.11);
#235 = AXIS2_PLACEMENT_3D('',#236,#237,#238);
#236 = CARTESIAN_POINT('',(-0.82,-0.375,-0.3125));
#237 = DIRECTION('',(0.,-1.,-2.2E-16));
#238 = DIRECTION('',(1.,0.,0.));
#239 = FACE_BOUND('',#240,.F.);
#240 = EDGE_LOOP('',(#241));
#241 = ORIENTED_EDGE('',*,*,#242,.T.);
#242 = EDGE_CURVE('',#243,#243,#245,.T.);
#243 = VERTEX_POINT('',#244);
#244 = CARTESIAN_POINT('',(-0.71,-0.375,0.3125));
#245 = CIRCLE('',#246,0.11);
#246 = AXIS2_PLACEMENT_3D('',#247,#248,#249);
#247 = CARTESIAN_POINT('',(-0.82,-0.375,0.3125));
#248 = DIRECTION('',(0.,-1.,-2.2E-16));
#249 = DIRECTION('',(1.,0.,0.));
#250 = PLANE('',#251);
#251 = AXIS2_PLACEMENT_3D('',#252,#253,#254);
#252 = CARTESIAN_POINT('',(3.703703703704E-02,-0.375,1.398706172756E-16)
  );
#253 = DIRECTION('',(0.,1.,2.2E-16));
#254 = DIRECTION('',(0.,-2.2E-16,1.));
#255 = ADVANCED_FACE('',(#256),#267,.F.);
#256 = FACE_BOUND('',#257,.F.);
#257 = EDGE_LOOP('',(#258,#259,#260,#266));
#258 = ORIENTED_EDGE('',*,*,#39,.T.);
#259 = ORIENTED_EDGE('',*,*,#223,.T.);
#260 = ORIENTED_EDGE('',*,*,#261,.F.);
#261 = EDGE_CURVE('',#138,#216,#262,.T.);
#262 = LINE('',#263,#264);
#263 = CARTESIAN_POINT('',(-2.125,-5.551181102362E-17,-0.25));
#264 = VECTOR('',#265,3.937007874016E-02);
#265 = DIRECTION('',(0.,-1.,2.2E-16));
#266 = ORIENTED_EDGE('',*,*,#145,.F.);
#267 = PLANE('',#268);
#268 = AXIS2_PLACEMENT_3D('',#269,#270,#271);
#269 = CARTESIAN_POINT('',(-2.625,-5.551181102362E-17,-0.25));
#270 = DIRECTION('',(0.,2.2E-16,1.));
#271 = DIRECTION('',(1.,0.,0.));
#272 = ADVANCED_FACE('',(#273),#292,.F.);
#273 = FACE_BOUND('',#274,.F.);
#274 = EDGE_LOOP('',(#275,#283,#290,#291));
#275 = ORIENTED_EDGE('',*,*,#276,.T.);
#276 = EDGE_CURVE('',#56,#277,#279,.T.);
#277 = VERTEX_POINT('',#278);
#278 = CARTESIAN_POINT('',(-2.385,-0.1875,-0.1125));
#279 = LINE('',#280,#281);
#280 = CARTESIAN_POINT('',(-2.625,-0.1875,-0.1125));
#281 = VECTOR('',#282,3.937007874016E-02);
#282 = DIRECTION('',(1.,0.,2.2E-16));
#283 = ORIENTED_EDGE('',*,*,#284,.T.);
#284 = EDGE_CURVE('',#277,#277,#285,.T.);
#285 = CIRCLE('',#286,0.1125);
#286 = AXIS2_PLACEMENT_3D('',#287,#288,#289);
#287 = CARTESIAN_POINT('',(-2.385,-0.1875,1.181102362205E-17));
#288 = DIRECTION('',(-1.,2.2E-16,-2.2E-16));
#289 = DIRECTION('',(2.2E-16,2.2E-16,-1.));
#290 = ORIENTED_EDGE('',*,*,#276,.F.);
#291 = ORIENTED_EDGE('',*,*,#55,.F.);
#292 = CYLINDRICAL_SURFACE('',#293,0.1125);
#293 = AXIS2_PLACEMENT_3D('',#294,#295,#296);
#294 = CARTESIAN_POINT('',(-2.625,-0.1875,0.));
#295 = DIRECTION('',(-1.,0.,-2.2E-16));
#296 = DIRECTION('',(2.2E-16,0.,-1.));
#297 = ADVANCED_FACE('',(#298),#309,.T.);
#298 = FACE_BOUND('',#299,.T.);
#299 = EDGE_LOOP('',(#300,#301,#302,#308));
#300 = ORIENTED_EDGE('',*,*,#81,.T.);
#301 = ORIENTED_EDGE('',*,*,#183,.T.);
#302 = ORIENTED_EDGE('',*,*,#303,.F.);
#303 = EDGE_CURVE('',#106,#184,#304,.T.);
#304 = LINE('',#305,#306);
#305 = CARTESIAN_POINT('',(-2.125,1.665354330709E-16,0.75));
#306 = VECTOR('',#307,3.937007874016E-02);
#307 = DIRECTION('',(0.,-1.,2.2E-16));
#308 = ORIENTED_EDGE('',*,*,#105,.F.);
#309 = PLANE('',#310);
#310 = AXIS2_PLACEMENT_3D('',#311,#312,#313);
#311 = CARTESIAN_POINT('',(-2.125,5.551181102362E-17,0.25));
#312 = DIRECTION('',(-1.,0.,0.));
#313 = DIRECTION('',(0.,2.2E-16,1.));
#314 = ADVANCED_FACE('',(#315),#326,.F.);
#315 = FACE_BOUND('',#316,.F.);
#316 = EDGE_LOOP('',(#317,#318,#319,#325));
#317 = ORIENTED_EDGE('',*,*,#261,.T.);
#318 = ORIENTED_EDGE('',*,*,#215,.T.);
#319 = ORIENTED_EDGE('',*,*,#320,.F.);
#320 = EDGE_CURVE('',#130,#208,#321,.T.);
#321 = LINE('',#322,#323);
#322 = CARTESIAN_POINT('',(-2.125,-1.665354330709E-16,-0.75));
#323 = VECTOR('',#324,3.937007874016E-02);
#324 = DIRECTION('',(0.,-1.,2.2E-16));
#325 = ORIENTED_EDGE('',*,*,#137,.F.);
#326 = PLANE('',#327);
#327 = AXIS2_PLACEMENT_3D('',#328,#329,#330);
#328 = CARTESIAN_POINT('',(-2.125,-5.551181102362E-17,-0.25));
#329 = DIRECTION('',(1.,0.,0.));
#330 = DIRECTION('',(0.,-2.2E-16,-1.));
#331 = ADVANCED_FACE('',(#332,#343,#354),#365,.F.);
#332 = FACE_BOUND('',#333,.F.);
#333 = EDGE_LOOP('',(#334,#340,#341,#342));
#334 = ORIENTED_EDGE('',*,*,#335,.T.);
#335 = EDGE_CURVE('',#114,#192,#336,.T.);
#336 = LINE('',#337,#338);
#337 = CARTESIAN_POINT('',(2.625,1.665354330709E-16,0.75));
#338 = VECTOR('',#339,3.937007874016E-02);
#339 = DIRECTION('',(0.,-1.,2.2E-16));
#340 = ORIENTED_EDGE('',*,*,#191,.T.);
#341 = ORIENTED_EDGE('',*,*,#303,.F.);
#342 = ORIENTED_EDGE('',*,*,#113,.F.);
#343 = FACE_BOUND('',#344,.F.);
#344 = EDGE_LOOP('',(#345));
#345 = ORIENTED_EDGE('',*,*,#346,.T.);
#346 = EDGE_CURVE('',#347,#347,#349,.T.);
#347 = VERTEX_POINT('',#348);
#348 = CARTESIAN_POINT('',(1.3875,-0.1875,0.75));
#349 = CIRCLE('',#350,0.1125);
#350 = AXIS2_PLACEMENT_3D('',#351,#352,#353);
#351 = CARTESIAN_POINT('',(1.5,-0.1875,0.75));
#352 = DIRECTION('',(0.,-2.2E-16,1.));
#353 = DIRECTION('',(-1.,0.,0.));
#354 = FACE_BOUND('',#355,.F.);
#355 = EDGE_LOOP('',(#356));
#356 = ORIENTED_EDGE('',*,*,#357,.T.);
#357 = EDGE_CURVE('',#358,#358,#360,.T.);
#358 = VERTEX_POINT('',#359);
#359 = CARTESIAN_POINT('',(-1.6125,-0.1875,0.75));
#360 = CIRCLE('',#361,0.1125);
#361 = AXIS2_PLACEMENT_3D('',#362,#363,#364);
#362 = CARTESIAN_POINT('',(-1.5,-0.1875,0.75));
#363 = DIRECTION('',(0.,-2.2E-16,1.));
#364 = DIRECTION('',(-1.,0.,0.));
#365 = PLANE('',#366);
#366 = AXIS2_PLACEMENT_3D('',#367,#368,#369);
#367 = CARTESIAN_POINT('',(2.625,1.665354330709E-16,0.75));
#368 = DIRECTION('',(0.,-2.2E-16,-1.));
#369 = DIRECTION('',(-1.,0.,0.));
#370 = ADVANCED_FACE('',(#371,#382,#393),#404,.F.);
#371 = FACE_BOUND('',#372,.F.);
#372 = EDGE_LOOP('',(#373,#374,#375,#381));
#373 = ORIENTED_EDGE('',*,*,#320,.T.);
#374 = ORIENTED_EDGE('',*,*,#207,.T.);
#375 = ORIENTED_EDGE('',*,*,#376,.F.);
#376 = EDGE_CURVE('',#122,#200,#377,.T.);
#377 = LINE('',#378,#379);
#378 = CARTESIAN_POINT('',(2.625,-1.665354330709E-16,-0.75));
#379 = VECTOR('',#380,3.937007874016E-02);
#380 = DIRECTION('',(0.,-1.,2.2E-16));
#381 = ORIENTED_EDGE('',*,*,#129,.F.);
#382 = FACE_BOUND('',#383,.F.);
#383 = EDGE_LOOP('',(#384));
#384 = ORIENTED_EDGE('',*,*,#385,.T.);
#385 = EDGE_CURVE('',#386,#386,#388,.T.);
#386 = VERTEX_POINT('',#387);
#387 = CARTESIAN_POINT('',(-1.3875,-0.1875,-0.75));
#388 = CIRCLE('',#389,0.1125);
#389 = AXIS2_PLACEMENT_3D('',#390,#391,#392);
#390 = CARTESIAN_POINT('',(-1.5,-0.1875,-0.75));
#391 = DIRECTION('',(0.,2.2E-16,-1.));
#392 = DIRECTION('',(1.,0.,0.));
#393 = FACE_BOUND('',#394,.F.);
#394 = EDGE_LOOP('',(#395));
#395 = ORIENTED_EDGE('',*,*,#396,.T.);
#396 = EDGE_CURVE('',#397,#397,#399,.T.);
#397 = VERTEX_POINT('',#398);
#398 = CARTESIAN_POINT('',(1.6125,-0.1875,-0.75));
#399 = CIRCLE('',#400,0.1125);
#400 = AXIS2_PLACEMENT_3D('',#401,#402,#403);
#401 = CARTESIAN_POINT('',(1.5,-0.1875,-0.75));
#402 = DIRECTION('',(0.,2.2E-16,-1.));
#403 = DIRECTION('',(1.,0.,0.));
#404 = PLANE('',#405);
#405 = AXIS2_PLACEMENT_3D('',#406,#407,#408);
#406 = CARTESIAN_POINT('',(-2.125,-1.665354330709E-16,-0.75));
#407 = DIRECTION('',(0.,2.2E-16,1.));
#408 = DIRECTION('',(1.,0.,0.));
#409 = ADVANCED_FACE('',(#410,#416,#427),#438,.F.);
#410 = FACE_BOUND('',#411,.F.);
#411 = EDGE_LOOP('',(#412,#413,#414,#415));
#412 = ORIENTED_EDGE('',*,*,#376,.T.);
#413 = ORIENTED_EDGE('',*,*,#199,.T.);
#414 = ORIENTED_EDGE('',*,*,#335,.F.);
#415 = ORIENTED_EDGE('',*,*,#121,.F.);
#416 = FACE_BOUND('',#417,.F.);
#417 = EDGE_LOOP('',(#418));
#418 = ORIENTED_EDGE('',*,*,#419,.T.);
#419 = EDGE_CURVE('',#420,#420,#422,.T.);
#420 = VERTEX_POINT('',#421);
#421 = CARTESIAN_POINT('',(2.625,-0.1875,0.6125));
#422 = CIRCLE('',#423,0.1125);
#423 = AXIS2_PLACEMENT_3D('',#424,#425,#426);
#424 = CARTESIAN_POINT('',(2.625,-0.1875,0.5));
#425 = DIRECTION('',(1.,2.2E-16,-2.2E-16));
#426 = DIRECTION('',(2.2E-16,-2.2E-16,1.));
#427 = FACE_BOUND('',#428,.F.);
#428 = EDGE_LOOP('',(#429));
#429 = ORIENTED_EDGE('',*,*,#430,.T.);
#430 = EDGE_CURVE('',#431,#431,#433,.T.);
#431 = VERTEX_POINT('',#432);
#432 = CARTESIAN_POINT('',(2.625,-0.1875,-0.3875));
#433 = CIRCLE('',#434,0.1125);
#434 = AXIS2_PLACEMENT_3D('',#435,#436,#437);
#435 = CARTESIAN_POINT('',(2.625,-0.1875,-0.5));
#436 = DIRECTION('',(1.,2.2E-16,-2.2E-16));
#437 = DIRECTION('',(2.2E-16,-2.2E-16,1.));
#438 = PLANE('',#439);
#439 = AXIS2_PLACEMENT_3D('',#440,#441,#442);
#440 = CARTESIAN_POINT('',(2.625,-1.665354330709E-16,-0.75));
#441 = DIRECTION('',(-1.,0.,0.));
#442 = DIRECTION('',(0.,2.2E-16,1.));
#443 = ADVANCED_FACE('',(#444),#463,.F.);
#444 = FACE_BOUND('',#445,.F.);
#445 = EDGE_LOOP('',(#446,#455,#461,#462));
#446 = ORIENTED_EDGE('',*,*,#447,.F.);
#447 = EDGE_CURVE('',#448,#448,#450,.T.);
#448 = VERTEX_POINT('',#449);
#449 = CARTESIAN_POINT('',(-0.75,-0.255,-0.3125));
#450 = CIRCLE('',#451,7.E-02);
#451 = AXIS2_PLACEMENT_3D('',#452,#453,#454);
#452 = CARTESIAN_POINT('',(-0.82,-0.255,-0.3125));
#453 = DIRECTION('',(0.,-1.,2.2E-16));
#454 = DIRECTION('',(1.,0.,0.));
#455 = ORIENTED_EDGE('',*,*,#456,.T.);
#456 = EDGE_CURVE('',#448,#154,#457,.T.);
#457 = LINE('',#458,#459);
#458 = CARTESIAN_POINT('',(-0.75,-0.375,-0.3125));
#459 = VECTOR('',#460,3.937007874016E-02);
#460 = DIRECTION('',(0.,1.,-2.2E-16));
#461 = ORIENTED_EDGE('',*,*,#153,.T.);
#462 = ORIENTED_EDGE('',*,*,#456,.F.);
#463 = CYLINDRICAL_SURFACE('',#464,7.E-02);
#464 = AXIS2_PLACEMENT_3D('',#465,#466,#467);
#465 = CARTESIAN_POINT('',(-0.82,-0.375,-0.3125));
#466 = DIRECTION('',(0.,-1.,2.2E-16));
#467 = DIRECTION('',(1.,0.,0.));
#468 = ADVANCED_FACE('',(#469),#488,.F.);
#469 = FACE_BOUND('',#470,.F.);
#470 = EDGE_LOOP('',(#471,#480,#486,#487));
#471 = ORIENTED_EDGE('',*,*,#472,.F.);
#472 = EDGE_CURVE('',#473,#473,#475,.T.);
#473 = VERTEX_POINT('',#474);
#474 = CARTESIAN_POINT('',(-0.75,-0.255,0.3125));
#475 = CIRCLE('',#476,7.E-02);
#476 = AXIS2_PLACEMENT_3D('',#477,#478,#479);
#477 = CARTESIAN_POINT('',(-0.82,-0.255,0.3125));
#478 = DIRECTION('',(0.,-1.,2.2E-16));
#479 = DIRECTION('',(1.,0.,0.));
#480 = ORIENTED_EDGE('',*,*,#481,.T.);
#481 = EDGE_CURVE('',#473,#165,#482,.T.);
#482 = LINE('',#483,#484);
#483 = CARTESIAN_POINT('',(-0.75,-0.375,0.3125));
#484 = VECTOR('',#485,3.937007874016E-02);
#485 = DIRECTION('',(0.,1.,-2.2E-16));
#486 = ORIENTED_EDGE('',*,*,#164,.T.);
#487 = ORIENTED_EDGE('',*,*,#481,.F.);
#488 = CYLINDRICAL_SURFACE('',#489,7.E-02);
#489 = AXIS2_PLACEMENT_3D('',#490,#491,#492);
#490 = CARTESIAN_POINT('',(-0.82,-0.375,0.3125));
#491 = DIRECTION('',(0.,-1.,2.2E-16));
#492 = DIRECTION('',(1.,0.,0.));
#493 = ADVANCED_FACE('',(#494),#513,.F.);
#494 = FACE_BOUND('',#495,.F.);
#495 = EDGE_LOOP('',(#496,#504,#511,#512));
#496 = ORIENTED_EDGE('',*,*,#497,.T.);
#497 = EDGE_CURVE('',#232,#498,#500,.T.);
#498 = VERTEX_POINT('',#499);
#499 = CARTESIAN_POINT('',(-0.71,-0.255,-0.3125));
#500 = LINE('',#501,#502);
#501 = CARTESIAN_POINT('',(-0.71,-0.375,-0.3125));
#502 = VECTOR('',#503,3.937007874016E-02);
#503 = DIRECTION('',(0.,1.,-2.2E-16));
#504 = ORIENTED_EDGE('',*,*,#505,.T.);
#505 = EDGE_CURVE('',#498,#498,#506,.T.);
#506 = CIRCLE('',#507,0.11);
#507 = AXIS2_PLACEMENT_3D('',#508,#509,#510);
#508 = CARTESIAN_POINT('',(-0.82,-0.255,-0.3125));
#509 = DIRECTION('',(0.,-1.,-2.2E-16));
#510 = DIRECTION('',(1.,0.,0.));
#511 = ORIENTED_EDGE('',*,*,#497,.F.);
#512 = ORIENTED_EDGE('',*,*,#231,.F.);
#513 = CYLINDRICAL_SURFACE('',#514,0.11);
#514 = AXIS2_PLACEMENT_3D('',#515,#516,#517);
#515 = CARTESIAN_POINT('',(-0.82,-0.375,-0.3125));
#516 = DIRECTION('',(0.,-1.,2.2E-16));
#517 = DIRECTION('',(1.,0.,0.));
#518 = ADVANCED_FACE('',(#519),#538,.F.);
#519 = FACE_BOUND('',#520,.F.);
#520 = EDGE_LOOP('',(#521,#529,#536,#537));
#521 = ORIENTED_EDGE('',*,*,#522,.T.);
#522 = EDGE_CURVE('',#243,#523,#525,.T.);
#523 = VERTEX_POINT('',#524);
#524 = CARTESIAN_POINT('',(-0.71,-0.255,0.3125));
#525 = LINE('',#526,#527);
#526 = CARTESIAN_POINT('',(-0.71,-0.375,0.3125));
#527 = VECTOR('',#528,3.937007874016E-02);
#528 = DIRECTION('',(0.,1.,-2.2E-16));
#529 = ORIENTED_EDGE('',*,*,#530,.T.);
#530 = EDGE_CURVE('',#523,#523,#531,.T.);
#531 = CIRCLE('',#532,0.11);
#532 = AXIS2_PLACEMENT_3D('',#533,#534,#535);
#533 = CARTESIAN_POINT('',(-0.82,-0.255,0.3125));
#534 = DIRECTION('',(0.,-1.,-2.2E-16));
#535 = DIRECTION('',(1.,0.,0.));
#536 = ORIENTED_EDGE('',*,*,#522,.F.);
#537 = ORIENTED_EDGE('',*,*,#242,.F.);
#538 = CYLINDRICAL_SURFACE('',#539,0.11);
#539 = AXIS2_PLACEMENT_3D('',#540,#541,#542);
#540 = CARTESIAN_POINT('',(-0.82,-0.375,0.3125));
#541 = DIRECTION('',(0.,-1.,2.2E-16));
#542 = DIRECTION('',(1.,0.,0.));
#543 = ADVANCED_FACE('',(#544),#547,.F.);
#544 = FACE_BOUND('',#545,.T.);
#545 = EDGE_LOOP('',(#546));
#546 = ORIENTED_EDGE('',*,*,#284,.T.);
#547 = PLANE('',#548);
#548 = AXIS2_PLACEMENT_3D('',#549,#550,#551);
#549 = CARTESIAN_POINT('',(-2.385,-0.1875,2.125984251969E-17));
#550 = DIRECTION('',(1.,0.,0.));
#551 = DIRECTION('',(0.,-2.2E-16,1.));
#552 = ADVANCED_FACE('',(#553),#572,.F.);
#553 = FACE_BOUND('',#554,.F.);
#554 = EDGE_LOOP('',(#555,#563,#570,#571));
#555 = ORIENTED_EDGE('',*,*,#556,.T.);
#556 = EDGE_CURVE('',#347,#557,#559,.T.);
#557 = VERTEX_POINT('',#558);
#558 = CARTESIAN_POINT('',(1.3875,-0.1875,0.51));
#559 = LINE('',#560,#561);
#560 = CARTESIAN_POINT('',(1.3875,-0.1875,0.75));
#561 = VECTOR('',#562,3.937007874016E-02);
#562 = DIRECTION('',(0.,0.,-1.));
#563 = ORIENTED_EDGE('',*,*,#564,.T.);
#564 = EDGE_CURVE('',#557,#557,#565,.T.);
#565 = CIRCLE('',#566,0.1125);
#566 = AXIS2_PLACEMENT_3D('',#567,#568,#569);
#567 = CARTESIAN_POINT('',(1.5,-0.1875,0.51));
#568 = DIRECTION('',(0.,-2.2E-16,1.));
#569 = DIRECTION('',(-1.,0.,0.));
#570 = ORIENTED_EDGE('',*,*,#556,.F.);
#571 = ORIENTED_EDGE('',*,*,#346,.F.);
#572 = CYLINDRICAL_SURFACE('',#573,0.1125);
#573 = AXIS2_PLACEMENT_3D('',#574,#575,#576);
#574 = CARTESIAN_POINT('',(1.5,-0.1875,0.75));
#575 = DIRECTION('',(0.,0.,1.));
#576 = DIRECTION('',(-1.,0.,0.));
#577 = ADVANCED_FACE('',(#578),#597,.F.);
#578 = FACE_BOUND('',#579,.F.);
#579 = EDGE_LOOP('',(#580,#588,#595,#596));
#580 = ORIENTED_EDGE('',*,*,#581,.T.);
#581 = EDGE_CURVE('',#358,#582,#584,.T.);
#582 = VERTEX_POINT('',#583);
#583 = CARTESIAN_POINT('',(-1.6125,-0.1875,0.51));
#584 = LINE('',#585,#586);
#585 = CARTESIAN_POINT('',(-1.6125,-0.1875,0.75));
#586 = VECTOR('',#587,3.937007874016E-02);
#587 = DIRECTION('',(0.,0.,-1.));
#588 = ORIENTED_EDGE('',*,*,#589,.T.);
#589 = EDGE_CURVE('',#582,#582,#590,.T.);
#590 = CIRCLE('',#591,0.1125);
#591 = AXIS2_PLACEMENT_3D('',#592,#593,#594);
#592 = CARTESIAN_POINT('',(-1.5,-0.1875,0.51));
#593 = DIRECTION('',(0.,-2.2E-16,1.));
#594 = DIRECTION('',(-1.,0.,0.));
#595 = ORIENTED_EDGE('',*,*,#581,.F.);
#596 = ORIENTED_EDGE('',*,*,#357,.F.);
#597 = CYLINDRICAL_SURFACE('',#598,0.1125);
#598 = AXIS2_PLACEMENT_3D('',#599,#600,#601);
#599 = CARTESIAN_POINT('',(-1.5,-0.1875,0.75));
#600 = DIRECTION('',(0.,0.,1.));
#601 = DIRECTION('',(-1.,0.,0.));
#602 = ADVANCED_FACE('',(#603),#622,.F.);
#603 = FACE_BOUND('',#604,.F.);
#604 = EDGE_LOOP('',(#605,#613,#620,#621));
#605 = ORIENTED_EDGE('',*,*,#606,.T.);
#606 = EDGE_CURVE('',#386,#607,#609,.T.);
#607 = VERTEX_POINT('',#608);
#608 = CARTESIAN_POINT('',(-1.3875,-0.1875,-0.51));
#609 = LINE('',#610,#611);
#610 = CARTESIAN_POINT('',(-1.3875,-0.1875,-0.75));
#611 = VECTOR('',#612,3.937007874016E-02);
#612 = DIRECTION('',(0.,0.,1.));
#613 = ORIENTED_EDGE('',*,*,#614,.T.);
#614 = EDGE_CURVE('',#607,#607,#615,.T.);
#615 = CIRCLE('',#616,0.1125);
#616 = AXIS2_PLACEMENT_3D('',#617,#618,#619);
#617 = CARTESIAN_POINT('',(-1.5,-0.1875,-0.51));
#618 = DIRECTION('',(0.,2.2E-16,-1.));
#619 = DIRECTION('',(1.,0.,0.));
#620 = ORIENTED_EDGE('',*,*,#606,.F.);
#621 = ORIENTED_EDGE('',*,*,#385,.F.);
#622 = CYLINDRICAL_SURFACE('',#623,0.1125);
#623 = AXIS2_PLACEMENT_3D('',#624,#625,#626);
#624 = CARTESIAN_POINT('',(-1.5,-0.1875,-0.75));
#625 = DIRECTION('',(0.,0.,-1.));
#626 = DIRECTION('',(1.,0.,0.));
#627 = ADVANCED_FACE('',(#628),#647,.F.);
#628 = FACE_BOUND('',#629,.F.);
#629 = EDGE_LOOP('',(#630,#638,#645,#646));
#630 = ORIENTED_EDGE('',*,*,#631,.T.);
#631 = EDGE_CURVE('',#397,#632,#634,.T.);
#632 = VERTEX_POINT('',#633);
#633 = CARTESIAN_POINT('',(1.6125,-0.1875,-0.51));
#634 = LINE('',#635,#636);
#635 = CARTESIAN_POINT('',(1.6125,-0.1875,-0.75));
#636 = VECTOR('',#637,3.937007874016E-02);
#637 = DIRECTION('',(0.,0.,1.));
#638 = ORIENTED_EDGE('',*,*,#639,.T.);
#639 = EDGE_CURVE('',#632,#632,#640,.T.);
#640 = CIRCLE('',#641,0.1125);
#641 = AXIS2_PLACEMENT_3D('',#642,#643,#644);
#642 = CARTESIAN_POINT('',(1.5,-0.1875,-0.51));
#643 = DIRECTION('',(0.,2.2E-16,-1.));
#644 = DIRECTION('',(1.,0.,0.));
#645 = ORIENTED_EDGE('',*,*,#631,.F.);
#646 = ORIENTED_EDGE('',*,*,#396,.F.);
#647 = CYLINDRICAL_SURFACE('',#648,0.1125);
#648 = AXIS2_PLACEMENT_3D('',#649,#650,#651);
#649 = CARTESIAN_POINT('',(1.5,-0.1875,-0.75));
#650 = DIRECTION('',(0.,0.,-1.));
#651 = DIRECTION('',(1.,0.,0.));
#652 = ADVANCED_FACE('',(#653),#672,.F.);
#653 = FACE_BOUND('',#654,.F.);
#654 = EDGE_LOOP('',(#655,#663,#670,#671));
#655 = ORIENTED_EDGE('',*,*,#656,.T.);
#656 = EDGE_CURVE('',#420,#657,#659,.T.);
#657 = VERTEX_POINT('',#658);
#658 = CARTESIAN_POINT('',(2.385,-0.1875,0.6125));
#659 = LINE('',#660,#661);
#660 = CARTESIAN_POINT('',(2.625,-0.1875,0.6125));
#661 = VECTOR('',#662,3.937007874016E-02);
#662 = DIRECTION('',(-1.,0.,2.2E-16));
#663 = ORIENTED_EDGE('',*,*,#664,.T.);
#664 = EDGE_CURVE('',#657,#657,#665,.T.);
#665 = CIRCLE('',#666,0.1125);
#666 = AXIS2_PLACEMENT_3D('',#667,#668,#669);
#667 = CARTESIAN_POINT('',(2.385,-0.1875,0.5));
#668 = DIRECTION('',(1.,2.2E-16,-2.2E-16));
#669 = DIRECTION('',(2.2E-16,-2.2E-16,1.));
#670 = ORIENTED_EDGE('',*,*,#656,.F.);
#671 = ORIENTED_EDGE('',*,*,#419,.F.);
#672 = CYLINDRICAL_SURFACE('',#673,0.1125);
#673 = AXIS2_PLACEMENT_3D('',#674,#675,#676);
#674 = CARTESIAN_POINT('',(2.625,-0.1875,0.5));
#675 = DIRECTION('',(1.,0.,-2.2E-16));
#676 = DIRECTION('',(2.2E-16,0.,1.));
#677 = ADVANCED_FACE('',(#678),#697,.F.);
#678 = FACE_BOUND('',#679,.F.);
#679 = EDGE_LOOP('',(#680,#688,#695,#696));
#680 = ORIENTED_EDGE('',*,*,#681,.T.);
#681 = EDGE_CURVE('',#431,#682,#684,.T.);
#682 = VERTEX_POINT('',#683);
#683 = CARTESIAN_POINT('',(2.385,-0.1875,-0.3875));
#684 = LINE('',#685,#686);
#685 = CARTESIAN_POINT('',(2.625,-0.1875,-0.3875));
#686 = VECTOR('',#687,3.937007874016E-02);
#687 = DIRECTION('',(-1.,0.,2.2E-16));
#688 = ORIENTED_EDGE('',*,*,#689,.T.);
#689 = EDGE_CURVE('',#682,#682,#690,.T.);
#690 = CIRCLE('',#691,0.1125);
#691 = AXIS2_PLACEMENT_3D('',#692,#693,#694);
#692 = CARTESIAN_POINT('',(2.385,-0.1875,-0.5));
#693 = DIRECTION('',(1.,2.2E-16,-2.2E-16));
#694 = DIRECTION('',(2.2E-16,-2.2E-16,1.));
#695 = ORIENTED_EDGE('',*,*,#681,.F.);
#696 = ORIENTED_EDGE('',*,*,#430,.F.);
#697 = CYLINDRICAL_SURFACE('',#698,0.1125);
#698 = AXIS2_PLACEMENT_3D('',#699,#700,#701);
#699 = CARTESIAN_POINT('',(2.625,-0.1875,-0.5));
#700 = DIRECTION('',(1.,0.,-2.2E-16));
#701 = DIRECTION('',(2.2E-16,0.,1.));
#702 = ADVANCED_FACE('',(#703,#706),#709,.F.);
#703 = FACE_BOUND('',#704,.F.);
#704 = EDGE_LOOP('',(#705));
#705 = ORIENTED_EDGE('',*,*,#505,.F.);
#706 = FACE_BOUND('',#707,.F.);
#707 = EDGE_LOOP('',(#708));
#708 = ORIENTED_EDGE('',*,*,#447,.T.);
#709 = PLANE('',#710);
#710 = AXIS2_PLACEMENT_3D('',#711,#712,#713);
#711 = CARTESIAN_POINT('',(-0.82,-0.255,-8.741913579726E-17));
#712 = DIRECTION('',(0.,1.,2.2E-16));
#713 = DIRECTION('',(0.,-2.2E-16,1.));
#714 = ADVANCED_FACE('',(#715,#718),#721,.F.);
#715 = FACE_BOUND('',#716,.F.);
#716 = EDGE_LOOP('',(#717));
#717 = ORIENTED_EDGE('',*,*,#530,.F.);
#718 = FACE_BOUND('',#719,.F.);
#719 = EDGE_LOOP('',(#720));
#720 = ORIENTED_EDGE('',*,*,#472,.T.);
#721 = PLANE('',#722);
#722 = AXIS2_PLACEMENT_3D('',#723,#724,#725);
#723 = CARTESIAN_POINT('',(-0.82,-0.255,-8.741913579726E-17));
#724 = DIRECTION('',(0.,1.,2.2E-16));
#725 = DIRECTION('',(0.,-2.2E-16,1.));
#726 = ADVANCED_FACE('',(#727),#730,.T.);
#727 = FACE_BOUND('',#728,.T.);
#728 = EDGE_LOOP('',(#729));
#729 = ORIENTED_EDGE('',*,*,#564,.T.);
#730 = PLANE('',#731);
#731 = AXIS2_PLACEMENT_3D('',#732,#733,#734);
#732 = CARTESIAN_POINT('',(-1.889763779528E-17,-0.1875,0.51));
#733 = DIRECTION('',(0.,-2.2E-16,1.));
#734 = DIRECTION('',(1.,0.,0.));
#735 = ADVANCED_FACE('',(#736),#739,.T.);
#736 = FACE_BOUND('',#737,.T.);
#737 = EDGE_LOOP('',(#738));
#738 = ORIENTED_EDGE('',*,*,#589,.T.);
#739 = PLANE('',#740);
#740 = AXIS2_PLACEMENT_3D('',#741,#742,#743);
#741 = CARTESIAN_POINT('',(-1.889763779528E-17,-0.1875,0.51));
#742 = DIRECTION('',(0.,-2.2E-16,1.));
#743 = DIRECTION('',(1.,0.,0.));
#744 = ADVANCED_FACE('',(#745),#748,.F.);
#745 = FACE_BOUND('',#746,.T.);
#746 = EDGE_LOOP('',(#747));
#747 = ORIENTED_EDGE('',*,*,#614,.T.);
#748 = PLANE('',#749);
#749 = AXIS2_PLACEMENT_3D('',#750,#751,#752);
#750 = CARTESIAN_POINT('',(1.889763779528E-17,-0.1875,-0.51));
#751 = DIRECTION('',(0.,-2.2E-16,1.));
#752 = DIRECTION('',(1.,0.,0.));
#753 = ADVANCED_FACE('',(#754),#757,.F.);
#754 = FACE_BOUND('',#755,.T.);
#755 = EDGE_LOOP('',(#756));
#756 = ORIENTED_EDGE('',*,*,#639,.T.);
#757 = PLANE('',#758);
#758 = AXIS2_PLACEMENT_3D('',#759,#760,#761);
#759 = CARTESIAN_POINT('',(1.889763779528E-17,-0.1875,-0.51));
#760 = DIRECTION('',(0.,-2.2E-16,1.));
#761 = DIRECTION('',(1.,0.,0.));
#762 = ADVANCED_FACE('',(#763),#766,.T.);
#763 = FACE_BOUND('',#764,.T.);
#764 = EDGE_LOOP('',(#765));
#765 = ORIENTED_EDGE('',*,*,#664,.T.);
#766 = PLANE('',#767);
#767 = AXIS2_PLACEMENT_3D('',#768,#769,#770);
#768 = CARTESIAN_POINT('',(2.385,-0.1875,7.086614173228E-18));
#769 = DIRECTION('',(1.,0.,0.));
#770 = DIRECTION('',(0.,-2.2E-16,1.));
#771 = ADVANCED_FACE('',(#772),#775,.T.);
#772 = FACE_BOUND('',#773,.T.);
#773 = EDGE_LOOP('',(#774));
#774 = ORIENTED_EDGE('',*,*,#689,.T.);
#775 = PLANE('',#776);
#776 = AXIS2_PLACEMENT_3D('',#777,#778,#779);
#777 = CARTESIAN_POINT('',(2.385,-0.1875,7.086614173228E-18));
#778 = DIRECTION('',(1.,0.,0.));
#779 = DIRECTION('',(0.,-2.2E-16,1.));
#780 = ( GEOMETRIC_REPRESENTATION_CONTEXT(3) 
GLOBAL_UNCERTAINTY_ASSIGNED_CONTEXT((#787)) GLOBAL_UNIT_ASSIGNED_CONTEXT
((#781,#785,#786)) REPRESENTATION_CONTEXT('Context #1',
  '3D Context with UNIT and UNCERTAINTY') );
#781 = ( CONVERSION_BASED_UNIT('INCH',#783) LENGTH_UNIT() NAMED_UNIT(
  #782) );
#782 = DIMENSIONAL_EXPONENTS(1.,0.,0.,0.,0.,0.,0.);
#783 = LENGTH_MEASURE_WITH_UNIT(25.4,#784);
#784 = ( LENGTH_UNIT() NAMED_UNIT(*) SI_UNIT(.MILLI.,.METRE.) );
#785 = ( NAMED_UNIT(*) PLANE_ANGLE_UNIT() SI_UNIT($,.RADIAN.) );
#786 = ( NAMED_UNIT(*) SI_UNIT($,.STERADIAN.) SOLID_ANGLE_UNIT() );
#787 = UNCERTAINTY_MEASURE_WITH_UNIT(LENGTH_MEASURE(3.937007874016E-09),
  #781,'distance_accuracy_value','confusion accuracy');
#788 = PRODUCT_RELATED_PRODUCT_CATEGORY('part',$,(#7));
#789 = MECHANICAL_DESIGN_GEOMETRIC_PRESENTATION_REPRESENTATION('',(#790)
  ,#780);
#790 = STYLED_ITEM('color',(#791),#15);
#791 = PRESENTATION_STYLE_ASSIGNMENT((#792,#798));
#792 = SURFACE_STYLE_USAGE(.BOTH.,#793);
#793 = SURFACE_SIDE_STYLE('',(#794));
#794 = SURFACE_STYLE_FILL_AREA(#795);
#795 = FILL_AREA_STYLE('',(#796));
#796 = FILL_AREA_STYLE_COLOUR('',#797);
#797 = COLOUR_RGB('',0.678431390124,0.709803936702,0.741176476869);
#798 = CURVE_STYLE('',#799,POSITIVE_LENGTH_MEASURE(0.1),#800);
#799 = DRAUGHTING_PRE_DEFINED_CURVE_FONT('continuous');
#800 = COLOUR_RGB('',9.803921802644E-02,9.803921802644E-02,
  9.803921802644E-02);
ENDSEC;
END-ISO-10303-21;
