ISO-10303-21;
HEADER;
FILE_DESCRIPTION(('FreeCAD Model'),'2;1');
FILE_NAME('Open CASCADE Shape Model','2024-10-28T10:58:32',(''),(''),
  'Open CASCADE STEP processor 7.7','Ondsel','Unknown');
FILE_SCHEMA(('AUTOMOTIVE_DESIGN { 1 0 10303 214 1 1 1 1 }'));
ENDSEC;
DATA;
#1 = APPLICATION_PROTOCOL_DEFINITION('international standard',
  'automotive_design',2000,#2);
#2 = APPLICATION_CONTEXT(
  'core data for automotive mechanical design processes');
#3 = SHAPE_DEFINITION_REPRESENTATION(#4,#10);
#4 = PRODUCT_DEFINITION_SHAPE('','',#5);
#5 = PRODUCT_DEFINITION('design','',#6,#9);
#6 = PRODUCT_DEFINITION_FORMATION('','',#7);
#7 = PRODUCT('rear-plate','rear-plate','',(#8));
#8 = PRODUCT_CONTEXT('',#2,'mechanical');
#9 = PRODUCT_DEFINITION_CONTEXT('part definition',#2,'design');
#10 = ADVANCED_BREP_SHAPE_REPRESENTATION('',(#11,#15),#861);
#11 = AXIS2_PLACEMENT_3D('',#12,#13,#14);
#12 = CARTESIAN_POINT('',(0.,0.,0.));
#13 = DIRECTION('',(0.,0.,1.));
#14 = DIRECTION('',(1.,0.,-0.));
#15 = MANIFOLD_SOLID_BREP('',#16);
#16 = CLOSED_SHELL('',(#17,#79,#132,#200,#268,#307,#332,#357,#391,#416,
    #441,#466,#491,#516,#541,#566,#591,#616,#641,#666,#691,#700,#709,
    #734,#759,#768,#777,#789,#801,#813,#825,#834,#843,#852));
#17 = ADVANCED_FACE('',(#18,#52,#63),#74,.F.);
#18 = FACE_BOUND('',#19,.F.);
#19 = EDGE_LOOP('',(#20,#30,#38,#46));
#20 = ORIENTED_EDGE('',*,*,#21,.T.);
#21 = EDGE_CURVE('',#22,#24,#26,.T.);
#22 = VERTEX_POINT('',#23);
#23 = CARTESIAN_POINT('',(-4.5,0.,0.75));
#24 = VERTEX_POINT('',#25);
#25 = CARTESIAN_POINT('',(-4.5,-0.375,0.75));
#26 = LINE('',#27,#28);
#27 = CARTESIAN_POINT('',(-4.5,1.665354330709E-16,0.75));
#28 = VECTOR('',#29,3.937007874016E-02);
#29 = DIRECTION('',(0.,-1.,2.2E-16));
#30 = ORIENTED_EDGE('',*,*,#31,.T.);
#31 = EDGE_CURVE('',#24,#32,#34,.T.);
#32 = VERTEX_POINT('',#33);
#33 = CARTESIAN_POINT('',(-4.5,-0.375,-0.75));
#34 = LINE('',#35,#36);
#35 = CARTESIAN_POINT('',(-4.5,-0.375,0.75));
#36 = VECTOR('',#37,3.937007874016E-02);
#37 = DIRECTION('',(0.,2.2E-16,-1.));
#38 = ORIENTED_EDGE('',*,*,#39,.F.);
#39 = EDGE_CURVE('',#40,#32,#42,.T.);
#40 = VERTEX_POINT('',#41);
#41 = CARTESIAN_POINT('',(-4.5,0.,-0.75));
#42 = LINE('',#43,#44);
#43 = CARTESIAN_POINT('',(-4.5,-1.665354330709E-16,-0.75));
#44 = VECTOR('',#45,3.937007874016E-02);
#45 = DIRECTION('',(0.,-1.,2.2E-16));
#46 = ORIENTED_EDGE('',*,*,#47,.F.);
#47 = EDGE_CURVE('',#22,#40,#48,.T.);
#48 = LINE('',#49,#50);
#49 = CARTESIAN_POINT('',(-4.5,-1.665354330709E-16,0.75));
#50 = VECTOR('',#51,3.937007874016E-02);
#51 = DIRECTION('',(0.,2.2E-16,-1.));
#52 = FACE_BOUND('',#53,.F.);
#53 = EDGE_LOOP('',(#54));
#54 = ORIENTED_EDGE('',*,*,#55,.T.);
#55 = EDGE_CURVE('',#56,#56,#58,.T.);
#56 = VERTEX_POINT('',#57);
#57 = CARTESIAN_POINT('',(-4.5,-0.1875,0.3875));
#58 = CIRCLE('',#59,0.1125);
#59 = AXIS2_PLACEMENT_3D('',#60,#61,#62);
#60 = CARTESIAN_POINT('',(-4.5,-0.1875,0.5));
#61 = DIRECTION('',(-1.,2.2E-16,-2.2E-16));
#62 = DIRECTION('',(2.2E-16,2.2E-16,-1.));
#63 = FACE_BOUND('',#64,.F.);
#64 = EDGE_LOOP('',(#65));
#65 = ORIENTED_EDGE('',*,*,#66,.T.);
#66 = EDGE_CURVE('',#67,#67,#69,.T.);
#67 = VERTEX_POINT('',#68);
#68 = CARTESIAN_POINT('',(-4.5,-0.1875,-0.6125));
#69 = CIRCLE('',#70,0.1125);
#70 = AXIS2_PLACEMENT_3D('',#71,#72,#73);
#71 = CARTESIAN_POINT('',(-4.5,-0.1875,-0.5));
#72 = DIRECTION('',(-1.,2.2E-16,-2.2E-16));
#73 = DIRECTION('',(2.2E-16,2.2E-16,-1.));
#74 = PLANE('',#75);
#75 = AXIS2_PLACEMENT_3D('',#76,#77,#78);
#76 = CARTESIAN_POINT('',(-4.5,1.665354330709E-16,0.75));
#77 = DIRECTION('',(1.,0.,0.));
#78 = DIRECTION('',(0.,-2.2E-16,-1.));
#79 = ADVANCED_FACE('',(#80,#105,#116),#127,.F.);
#80 = FACE_BOUND('',#81,.F.);
#81 = EDGE_LOOP('',(#82,#92,#98,#99));
#82 = ORIENTED_EDGE('',*,*,#83,.T.);
#83 = EDGE_CURVE('',#84,#86,#88,.T.);
#84 = VERTEX_POINT('',#85);
#85 = CARTESIAN_POINT('',(4.5,0.,0.75));
#86 = VERTEX_POINT('',#87);
#87 = CARTESIAN_POINT('',(4.5,-0.375,0.75));
#88 = LINE('',#89,#90);
#89 = CARTESIAN_POINT('',(4.5,1.665354330709E-16,0.75));
#90 = VECTOR('',#91,3.937007874016E-02);
#91 = DIRECTION('',(0.,-1.,2.2E-16));
#92 = ORIENTED_EDGE('',*,*,#93,.T.);
#93 = EDGE_CURVE('',#86,#24,#94,.T.);
#94 = LINE('',#95,#96);
#95 = CARTESIAN_POINT('',(4.5,-0.375,0.75));
#96 = VECTOR('',#97,3.937007874016E-02);
#97 = DIRECTION('',(-1.,0.,0.));
#98 = ORIENTED_EDGE('',*,*,#21,.F.);
#99 = ORIENTED_EDGE('',*,*,#100,.F.);
#100 = EDGE_CURVE('',#84,#22,#101,.T.);
#101 = LINE('',#102,#103);
#102 = CARTESIAN_POINT('',(4.5,-1.665354330709E-16,0.75));
#103 = VECTOR('',#104,3.937007874016E-02);
#104 = DIRECTION('',(-1.,0.,0.));
#105 = FACE_BOUND('',#106,.F.);
#106 = EDGE_LOOP('',(#107));
#107 = ORIENTED_EDGE('',*,*,#108,.T.);
#108 = EDGE_CURVE('',#109,#109,#111,.T.);
#109 = VERTEX_POINT('',#110);
#110 = CARTESIAN_POINT('',(1.3875,-0.1875,0.75));
#111 = CIRCLE('',#112,0.1125);
#112 = AXIS2_PLACEMENT_3D('',#113,#114,#115);
#113 = CARTESIAN_POINT('',(1.5,-0.1875,0.75));
#114 = DIRECTION('',(0.,-2.2E-16,1.));
#115 = DIRECTION('',(-1.,0.,0.));
#116 = FACE_BOUND('',#117,.F.);
#117 = EDGE_LOOP('',(#118));
#118 = ORIENTED_EDGE('',*,*,#119,.T.);
#119 = EDGE_CURVE('',#120,#120,#122,.T.);
#120 = VERTEX_POINT('',#121);
#121 = CARTESIAN_POINT('',(-1.6125,-0.1875,0.75));
#122 = CIRCLE('',#123,0.1125);
#123 = AXIS2_PLACEMENT_3D('',#124,#125,#126);
#124 = CARTESIAN_POINT('',(-1.5,-0.1875,0.75));
#125 = DIRECTION('',(0.,-2.2E-16,1.));
#126 = DIRECTION('',(-1.,0.,0.));
#127 = PLANE('',#128);
#128 = AXIS2_PLACEMENT_3D('',#129,#130,#131);
#129 = CARTESIAN_POINT('',(4.5,1.665354330709E-16,0.75));
#130 = DIRECTION('',(0.,-2.2E-16,-1.));
#131 = DIRECTION('',(-1.,0.,0.));
#132 = ADVANCED_FACE('',(#133,#151,#162,#173,#184),#195,.T.);
#133 = FACE_BOUND('',#134,.T.);
#134 = EDGE_LOOP('',(#135,#136,#137,#145));
#135 = ORIENTED_EDGE('',*,*,#47,.F.);
#136 = ORIENTED_EDGE('',*,*,#100,.F.);
#137 = ORIENTED_EDGE('',*,*,#138,.F.);
#138 = EDGE_CURVE('',#139,#84,#141,.T.);
#139 = VERTEX_POINT('',#140);
#140 = CARTESIAN_POINT('',(4.5,0.,-0.75));
#141 = LINE('',#142,#143);
#142 = CARTESIAN_POINT('',(4.5,1.665354330709E-16,-0.75));
#143 = VECTOR('',#144,3.937007874016E-02);
#144 = DIRECTION('',(0.,-2.2E-16,1.));
#145 = ORIENTED_EDGE('',*,*,#146,.F.);
#146 = EDGE_CURVE('',#40,#139,#147,.T.);
#147 = LINE('',#148,#149);
#148 = CARTESIAN_POINT('',(-4.5,1.665354330709E-16,-0.75));
#149 = VECTOR('',#150,3.937007874016E-02);
#150 = DIRECTION('',(1.,0.,0.));
#151 = FACE_BOUND('',#152,.T.);
#152 = EDGE_LOOP('',(#153));
#153 = ORIENTED_EDGE('',*,*,#154,.F.);
#154 = EDGE_CURVE('',#155,#155,#157,.T.);
#155 = VERTEX_POINT('',#156);
#156 = CARTESIAN_POINT('',(-2.6675,2.362204724409E-16,-0.5));
#157 = CIRCLE('',#158,0.145);
#158 = AXIS2_PLACEMENT_3D('',#159,#160,#161);
#159 = CARTESIAN_POINT('',(-2.8125,1.110236220472E-16,-0.5));
#160 = DIRECTION('',(-0.,1.,2.2E-16));
#161 = DIRECTION('',(1.,0.,0.));
#162 = FACE_BOUND('',#163,.T.);
#163 = EDGE_LOOP('',(#164));
#164 = ORIENTED_EDGE('',*,*,#165,.F.);
#165 = EDGE_CURVE('',#166,#166,#168,.T.);
#166 = VERTEX_POINT('',#167);
#167 = CARTESIAN_POINT('',(-2.6675,-2.362204724409E-16,0.5));
#168 = CIRCLE('',#169,0.145);
#169 = AXIS2_PLACEMENT_3D('',#170,#171,#172);
#170 = CARTESIAN_POINT('',(-2.8125,-1.110236220472E-16,0.5));
#171 = DIRECTION('',(-0.,1.,2.2E-16));
#172 = DIRECTION('',(1.,0.,0.));
#173 = FACE_BOUND('',#174,.T.);
#174 = EDGE_LOOP('',(#175));
#175 = ORIENTED_EDGE('',*,*,#176,.F.);
#176 = EDGE_CURVE('',#177,#177,#179,.T.);
#177 = VERTEX_POINT('',#178);
#178 = CARTESIAN_POINT('',(2.9575,2.362204724409E-16,-0.5));
#179 = CIRCLE('',#180,0.145);
#180 = AXIS2_PLACEMENT_3D('',#181,#182,#183);
#181 = CARTESIAN_POINT('',(2.8125,1.110236220472E-16,-0.5));
#182 = DIRECTION('',(-0.,1.,2.2E-16));
#183 = DIRECTION('',(1.,0.,0.));
#184 = FACE_BOUND('',#185,.T.);
#185 = EDGE_LOOP('',(#186));
#186 = ORIENTED_EDGE('',*,*,#187,.F.);
#187 = EDGE_CURVE('',#188,#188,#190,.T.);
#188 = VERTEX_POINT('',#189);
#189 = CARTESIAN_POINT('',(2.9575,-2.362204724409E-16,0.5));
#190 = CIRCLE('',#191,0.145);
#191 = AXIS2_PLACEMENT_3D('',#192,#193,#194);
#192 = CARTESIAN_POINT('',(2.8125,-1.110236220472E-16,0.5));
#193 = DIRECTION('',(-0.,1.,2.2E-16));
#194 = DIRECTION('',(1.,0.,0.));
#195 = PLANE('',#196);
#196 = AXIS2_PLACEMENT_3D('',#197,#198,#199);
#197 = CARTESIAN_POINT('',(-9.803149606299E-17,0.,-1.208661417323E-16));
#198 = DIRECTION('',(0.,1.,2.2E-16));
#199 = DIRECTION('',(0.,-2.2E-16,1.));
#200 = ADVANCED_FACE('',(#201,#219,#230,#241,#252),#263,.F.);
#201 = FACE_BOUND('',#202,.T.);
#202 = EDGE_LOOP('',(#203,#204,#212,#218));
#203 = ORIENTED_EDGE('',*,*,#31,.T.);
#204 = ORIENTED_EDGE('',*,*,#205,.T.);
#205 = EDGE_CURVE('',#32,#206,#208,.T.);
#206 = VERTEX_POINT('',#207);
#207 = CARTESIAN_POINT('',(4.5,-0.375,-0.75));
#208 = LINE('',#209,#210);
#209 = CARTESIAN_POINT('',(-4.5,-0.375,-0.75));
#210 = VECTOR('',#211,3.937007874016E-02);
#211 = DIRECTION('',(1.,0.,0.));
#212 = ORIENTED_EDGE('',*,*,#213,.T.);
#213 = EDGE_CURVE('',#206,#86,#214,.T.);
#214 = LINE('',#215,#216);
#215 = CARTESIAN_POINT('',(4.5,-0.375,-0.75));
#216 = VECTOR('',#217,3.937007874016E-02);
#217 = DIRECTION('',(0.,-2.2E-16,1.));
#218 = ORIENTED_EDGE('',*,*,#93,.T.);
#219 = FACE_BOUND('',#220,.F.);
#220 = EDGE_LOOP('',(#221));
#221 = ORIENTED_EDGE('',*,*,#222,.T.);
#222 = EDGE_CURVE('',#223,#223,#225,.T.);
#223 = VERTEX_POINT('',#224);
#224 = CARTESIAN_POINT('',(2.925,-0.375,0.5));
#225 = CIRCLE('',#226,0.1125);
#226 = AXIS2_PLACEMENT_3D('',#227,#228,#229);
#227 = CARTESIAN_POINT('',(2.8125,-0.375,0.5));
#228 = DIRECTION('',(0.,-1.,-2.2E-16));
#229 = DIRECTION('',(1.,0.,0.));
#230 = FACE_BOUND('',#231,.F.);
#231 = EDGE_LOOP('',(#232));
#232 = ORIENTED_EDGE('',*,*,#233,.T.);
#233 = EDGE_CURVE('',#234,#234,#236,.T.);
#234 = VERTEX_POINT('',#235);
#235 = CARTESIAN_POINT('',(2.925,-0.375,-0.5));
#236 = CIRCLE('',#237,0.1125);
#237 = AXIS2_PLACEMENT_3D('',#238,#239,#240);
#238 = CARTESIAN_POINT('',(2.8125,-0.375,-0.5));
#239 = DIRECTION('',(0.,-1.,-2.2E-16));
#240 = DIRECTION('',(1.,0.,0.));
#241 = FACE_BOUND('',#242,.F.);
#242 = EDGE_LOOP('',(#243));
#243 = ORIENTED_EDGE('',*,*,#244,.T.);
#244 = EDGE_CURVE('',#245,#245,#247,.T.);
#245 = VERTEX_POINT('',#246);
#246 = CARTESIAN_POINT('',(-2.7,-0.375,-0.5));
#247 = CIRCLE('',#248,0.1125);
#248 = AXIS2_PLACEMENT_3D('',#249,#250,#251);
#249 = CARTESIAN_POINT('',(-2.8125,-0.375,-0.5));
#250 = DIRECTION('',(0.,-1.,-2.2E-16));
#251 = DIRECTION('',(1.,0.,0.));
#252 = FACE_BOUND('',#253,.F.);
#253 = EDGE_LOOP('',(#254));
#254 = ORIENTED_EDGE('',*,*,#255,.T.);
#255 = EDGE_CURVE('',#256,#256,#258,.T.);
#256 = VERTEX_POINT('',#257);
#257 = CARTESIAN_POINT('',(-2.7,-0.375,0.5));
#258 = CIRCLE('',#259,0.1125);
#259 = AXIS2_PLACEMENT_3D('',#260,#261,#262);
#260 = CARTESIAN_POINT('',(-2.8125,-0.375,0.5));
#261 = DIRECTION('',(0.,-1.,-2.2E-16));
#262 = DIRECTION('',(1.,0.,0.));
#263 = PLANE('',#264);
#264 = AXIS2_PLACEMENT_3D('',#265,#266,#267);
#265 = CARTESIAN_POINT('',(-9.803149606299E-17,-0.375,
    -1.398706172756E-16));
#266 = DIRECTION('',(0.,1.,2.2E-16));
#267 = DIRECTION('',(0.,-2.2E-16,1.));
#268 = ADVANCED_FACE('',(#269,#280,#291),#302,.F.);
#269 = FACE_BOUND('',#270,.F.);
#270 = EDGE_LOOP('',(#271,#272,#273,#279));
#271 = ORIENTED_EDGE('',*,*,#39,.T.);
#272 = ORIENTED_EDGE('',*,*,#205,.T.);
#273 = ORIENTED_EDGE('',*,*,#274,.F.);
#274 = EDGE_CURVE('',#139,#206,#275,.T.);
#275 = LINE('',#276,#277);
#276 = CARTESIAN_POINT('',(4.5,-1.665354330709E-16,-0.75));
#277 = VECTOR('',#278,3.937007874016E-02);
#278 = DIRECTION('',(0.,-1.,2.2E-16));
#279 = ORIENTED_EDGE('',*,*,#146,.F.);
#280 = FACE_BOUND('',#281,.F.);
#281 = EDGE_LOOP('',(#282));
#282 = ORIENTED_EDGE('',*,*,#283,.T.);
#283 = EDGE_CURVE('',#284,#284,#286,.T.);
#284 = VERTEX_POINT('',#285);
#285 = CARTESIAN_POINT('',(-1.3875,-0.1875,-0.75));
#286 = CIRCLE('',#287,0.1125);
#287 = AXIS2_PLACEMENT_3D('',#288,#289,#290);
#288 = CARTESIAN_POINT('',(-1.5,-0.1875,-0.75));
#289 = DIRECTION('',(0.,2.2E-16,-1.));
#290 = DIRECTION('',(1.,0.,0.));
#291 = FACE_BOUND('',#292,.F.);
#292 = EDGE_LOOP('',(#293));
#293 = ORIENTED_EDGE('',*,*,#294,.T.);
#294 = EDGE_CURVE('',#295,#295,#297,.T.);
#295 = VERTEX_POINT('',#296);
#296 = CARTESIAN_POINT('',(1.6125,-0.1875,-0.75));
#297 = CIRCLE('',#298,0.1125);
#298 = AXIS2_PLACEMENT_3D('',#299,#300,#301);
#299 = CARTESIAN_POINT('',(1.5,-0.1875,-0.75));
#300 = DIRECTION('',(0.,2.2E-16,-1.));
#301 = DIRECTION('',(1.,0.,0.));
#302 = PLANE('',#303);
#303 = AXIS2_PLACEMENT_3D('',#304,#305,#306);
#304 = CARTESIAN_POINT('',(-4.5,-1.665354330709E-16,-0.75));
#305 = DIRECTION('',(0.,2.2E-16,1.));
#306 = DIRECTION('',(1.,0.,0.));
#307 = ADVANCED_FACE('',(#308),#327,.F.);
#308 = FACE_BOUND('',#309,.F.);
#309 = EDGE_LOOP('',(#310,#318,#325,#326));
#310 = ORIENTED_EDGE('',*,*,#311,.T.);
#311 = EDGE_CURVE('',#56,#312,#314,.T.);
#312 = VERTEX_POINT('',#313);
#313 = CARTESIAN_POINT('',(-4.26,-0.1875,0.3875));
#314 = LINE('',#315,#316);
#315 = CARTESIAN_POINT('',(-4.5,-0.1875,0.3875));
#316 = VECTOR('',#317,3.937007874016E-02);
#317 = DIRECTION('',(1.,0.,2.2E-16));
#318 = ORIENTED_EDGE('',*,*,#319,.T.);
#319 = EDGE_CURVE('',#312,#312,#320,.T.);
#320 = CIRCLE('',#321,0.1125);
#321 = AXIS2_PLACEMENT_3D('',#322,#323,#324);
#322 = CARTESIAN_POINT('',(-4.26,-0.1875,0.5));
#323 = DIRECTION('',(-1.,2.2E-16,-2.2E-16));
#324 = DIRECTION('',(2.2E-16,2.2E-16,-1.));
#325 = ORIENTED_EDGE('',*,*,#311,.F.);
#326 = ORIENTED_EDGE('',*,*,#55,.F.);
#327 = CYLINDRICAL_SURFACE('',#328,0.1125);
#328 = AXIS2_PLACEMENT_3D('',#329,#330,#331);
#329 = CARTESIAN_POINT('',(-4.5,-0.1875,0.5));
#330 = DIRECTION('',(-1.,0.,-2.2E-16));
#331 = DIRECTION('',(2.2E-16,0.,-1.));
#332 = ADVANCED_FACE('',(#333),#352,.F.);
#333 = FACE_BOUND('',#334,.F.);
#334 = EDGE_LOOP('',(#335,#343,#350,#351));
#335 = ORIENTED_EDGE('',*,*,#336,.T.);
#336 = EDGE_CURVE('',#67,#337,#339,.T.);
#337 = VERTEX_POINT('',#338);
#338 = CARTESIAN_POINT('',(-4.26,-0.1875,-0.6125));
#339 = LINE('',#340,#341);
#340 = CARTESIAN_POINT('',(-4.5,-0.1875,-0.6125));
#341 = VECTOR('',#342,3.937007874016E-02);
#342 = DIRECTION('',(1.,0.,2.2E-16));
#343 = ORIENTED_EDGE('',*,*,#344,.T.);
#344 = EDGE_CURVE('',#337,#337,#345,.T.);
#345 = CIRCLE('',#346,0.1125);
#346 = AXIS2_PLACEMENT_3D('',#347,#348,#349);
#347 = CARTESIAN_POINT('',(-4.26,-0.1875,-0.5));
#348 = DIRECTION('',(-1.,2.2E-16,-2.2E-16));
#349 = DIRECTION('',(2.2E-16,2.2E-16,-1.));
#350 = ORIENTED_EDGE('',*,*,#336,.F.);
#351 = ORIENTED_EDGE('',*,*,#66,.F.);
#352 = CYLINDRICAL_SURFACE('',#353,0.1125);
#353 = AXIS2_PLACEMENT_3D('',#354,#355,#356);
#354 = CARTESIAN_POINT('',(-4.5,-0.1875,-0.5));
#355 = DIRECTION('',(-1.,0.,-2.2E-16));
#356 = DIRECTION('',(2.2E-16,0.,-1.));
#357 = ADVANCED_FACE('',(#358,#364,#375),#386,.F.);
#358 = FACE_BOUND('',#359,.F.);
#359 = EDGE_LOOP('',(#360,#361,#362,#363));
#360 = ORIENTED_EDGE('',*,*,#274,.T.);
#361 = ORIENTED_EDGE('',*,*,#213,.T.);
#362 = ORIENTED_EDGE('',*,*,#83,.F.);
#363 = ORIENTED_EDGE('',*,*,#138,.F.);
#364 = FACE_BOUND('',#365,.F.);
#365 = EDGE_LOOP('',(#366));
#366 = ORIENTED_EDGE('',*,*,#367,.T.);
#367 = EDGE_CURVE('',#368,#368,#370,.T.);
#368 = VERTEX_POINT('',#369);
#369 = CARTESIAN_POINT('',(4.5,-0.1875,0.6125));
#370 = CIRCLE('',#371,0.1125);
#371 = AXIS2_PLACEMENT_3D('',#372,#373,#374);
#372 = CARTESIAN_POINT('',(4.5,-0.1875,0.5));
#373 = DIRECTION('',(1.,2.2E-16,-2.2E-16));
#374 = DIRECTION('',(2.2E-16,-2.2E-16,1.));
#375 = FACE_BOUND('',#376,.F.);
#376 = EDGE_LOOP('',(#377));
#377 = ORIENTED_EDGE('',*,*,#378,.T.);
#378 = EDGE_CURVE('',#379,#379,#381,.T.);
#379 = VERTEX_POINT('',#380);
#380 = CARTESIAN_POINT('',(4.5,-0.1875,-0.3875));
#381 = CIRCLE('',#382,0.1125);
#382 = AXIS2_PLACEMENT_3D('',#383,#384,#385);
#383 = CARTESIAN_POINT('',(4.5,-0.1875,-0.5));
#384 = DIRECTION('',(1.,2.2E-16,-2.2E-16));
#385 = DIRECTION('',(2.2E-16,-2.2E-16,1.));
#386 = PLANE('',#387);
#387 = AXIS2_PLACEMENT_3D('',#388,#389,#390);
#388 = CARTESIAN_POINT('',(4.5,-1.665354330709E-16,-0.75));
#389 = DIRECTION('',(-1.,0.,0.));
#390 = DIRECTION('',(0.,2.2E-16,1.));
#391 = ADVANCED_FACE('',(#392),#411,.F.);
#392 = FACE_BOUND('',#393,.F.);
#393 = EDGE_LOOP('',(#394,#402,#409,#410));
#394 = ORIENTED_EDGE('',*,*,#395,.T.);
#395 = EDGE_CURVE('',#109,#396,#398,.T.);
#396 = VERTEX_POINT('',#397);
#397 = CARTESIAN_POINT('',(1.3875,-0.1875,0.51));
#398 = LINE('',#399,#400);
#399 = CARTESIAN_POINT('',(1.3875,-0.1875,0.75));
#400 = VECTOR('',#401,3.937007874016E-02);
#401 = DIRECTION('',(0.,0.,-1.));
#402 = ORIENTED_EDGE('',*,*,#403,.T.);
#403 = EDGE_CURVE('',#396,#396,#404,.T.);
#404 = CIRCLE('',#405,0.1125);
#405 = AXIS2_PLACEMENT_3D('',#406,#407,#408);
#406 = CARTESIAN_POINT('',(1.5,-0.1875,0.51));
#407 = DIRECTION('',(0.,-2.2E-16,1.));
#408 = DIRECTION('',(-1.,0.,0.));
#409 = ORIENTED_EDGE('',*,*,#395,.F.);
#410 = ORIENTED_EDGE('',*,*,#108,.F.);
#411 = CYLINDRICAL_SURFACE('',#412,0.1125);
#412 = AXIS2_PLACEMENT_3D('',#413,#414,#415);
#413 = CARTESIAN_POINT('',(1.5,-0.1875,0.75));
#414 = DIRECTION('',(0.,0.,1.));
#415 = DIRECTION('',(-1.,0.,0.));
#416 = ADVANCED_FACE('',(#417),#436,.F.);
#417 = FACE_BOUND('',#418,.F.);
#418 = EDGE_LOOP('',(#419,#427,#434,#435));
#419 = ORIENTED_EDGE('',*,*,#420,.T.);
#420 = EDGE_CURVE('',#120,#421,#423,.T.);
#421 = VERTEX_POINT('',#422);
#422 = CARTESIAN_POINT('',(-1.6125,-0.1875,0.51));
#423 = LINE('',#424,#425);
#424 = CARTESIAN_POINT('',(-1.6125,-0.1875,0.75));
#425 = VECTOR('',#426,3.937007874016E-02);
#426 = DIRECTION('',(0.,0.,-1.));
#427 = ORIENTED_EDGE('',*,*,#428,.T.);
#428 = EDGE_CURVE('',#421,#421,#429,.T.);
#429 = CIRCLE('',#430,0.1125);
#430 = AXIS2_PLACEMENT_3D('',#431,#432,#433);
#431 = CARTESIAN_POINT('',(-1.5,-0.1875,0.51));
#432 = DIRECTION('',(0.,-2.2E-16,1.));
#433 = DIRECTION('',(-1.,0.,0.));
#434 = ORIENTED_EDGE('',*,*,#420,.F.);
#435 = ORIENTED_EDGE('',*,*,#119,.F.);
#436 = CYLINDRICAL_SURFACE('',#437,0.1125);
#437 = AXIS2_PLACEMENT_3D('',#438,#439,#440);
#438 = CARTESIAN_POINT('',(-1.5,-0.1875,0.75));
#439 = DIRECTION('',(0.,0.,1.));
#440 = DIRECTION('',(-1.,0.,0.));
#441 = ADVANCED_FACE('',(#442),#461,.F.);
#442 = FACE_BOUND('',#443,.F.);
#443 = EDGE_LOOP('',(#444,#452,#459,#460));
#444 = ORIENTED_EDGE('',*,*,#445,.T.);
#445 = EDGE_CURVE('',#155,#446,#448,.T.);
#446 = VERTEX_POINT('',#447);
#447 = CARTESIAN_POINT('',(-2.6675,-0.17,-0.5));
#448 = LINE('',#449,#450);
#449 = CARTESIAN_POINT('',(-2.6675,1.110236220472E-16,-0.5));
#450 = VECTOR('',#451,3.937007874016E-02);
#451 = DIRECTION('',(0.,-1.,-2.2E-16));
#452 = ORIENTED_EDGE('',*,*,#453,.T.);
#453 = EDGE_CURVE('',#446,#446,#454,.T.);
#454 = CIRCLE('',#455,0.145);
#455 = AXIS2_PLACEMENT_3D('',#456,#457,#458);
#456 = CARTESIAN_POINT('',(-2.8125,-0.17,-0.5));
#457 = DIRECTION('',(-0.,1.,2.2E-16));
#458 = DIRECTION('',(1.,0.,0.));
#459 = ORIENTED_EDGE('',*,*,#445,.F.);
#460 = ORIENTED_EDGE('',*,*,#154,.F.);
#461 = CYLINDRICAL_SURFACE('',#462,0.145);
#462 = AXIS2_PLACEMENT_3D('',#463,#464,#465);
#463 = CARTESIAN_POINT('',(-2.8125,1.110236220472E-16,-0.5));
#464 = DIRECTION('',(0.,1.,2.2E-16));
#465 = DIRECTION('',(1.,0.,0.));
#466 = ADVANCED_FACE('',(#467),#486,.F.);
#467 = FACE_BOUND('',#468,.F.);
#468 = EDGE_LOOP('',(#469,#477,#484,#485));
#469 = ORIENTED_EDGE('',*,*,#470,.T.);
#470 = EDGE_CURVE('',#166,#471,#473,.T.);
#471 = VERTEX_POINT('',#472);
#472 = CARTESIAN_POINT('',(-2.6675,-0.17,0.5));
#473 = LINE('',#474,#475);
#474 = CARTESIAN_POINT('',(-2.6675,-1.110236220472E-16,0.5));
#475 = VECTOR('',#476,3.937007874016E-02);
#476 = DIRECTION('',(0.,-1.,-2.2E-16));
#477 = ORIENTED_EDGE('',*,*,#478,.T.);
#478 = EDGE_CURVE('',#471,#471,#479,.T.);
#479 = CIRCLE('',#480,0.145);
#480 = AXIS2_PLACEMENT_3D('',#481,#482,#483);
#481 = CARTESIAN_POINT('',(-2.8125,-0.17,0.5));
#482 = DIRECTION('',(-0.,1.,2.2E-16));
#483 = DIRECTION('',(1.,0.,0.));
#484 = ORIENTED_EDGE('',*,*,#470,.F.);
#485 = ORIENTED_EDGE('',*,*,#165,.F.);
#486 = CYLINDRICAL_SURFACE('',#487,0.145);
#487 = AXIS2_PLACEMENT_3D('',#488,#489,#490);
#488 = CARTESIAN_POINT('',(-2.8125,-1.110236220472E-16,0.5));
#489 = DIRECTION('',(0.,1.,2.2E-16));
#490 = DIRECTION('',(1.,0.,0.));
#491 = ADVANCED_FACE('',(#492),#511,.F.);
#492 = FACE_BOUND('',#493,.F.);
#493 = EDGE_LOOP('',(#494,#502,#509,#510));
#494 = ORIENTED_EDGE('',*,*,#495,.T.);
#495 = EDGE_CURVE('',#177,#496,#498,.T.);
#496 = VERTEX_POINT('',#497);
#497 = CARTESIAN_POINT('',(2.9575,-0.17,-0.5));
#498 = LINE('',#499,#500);
#499 = CARTESIAN_POINT('',(2.9575,1.110236220472E-16,-0.5));
#500 = VECTOR('',#501,3.937007874016E-02);
#501 = DIRECTION('',(0.,-1.,-2.2E-16));
#502 = ORIENTED_EDGE('',*,*,#503,.T.);
#503 = EDGE_CURVE('',#496,#496,#504,.T.);
#504 = CIRCLE('',#505,0.145);
#505 = AXIS2_PLACEMENT_3D('',#506,#507,#508);
#506 = CARTESIAN_POINT('',(2.8125,-0.17,-0.5));
#507 = DIRECTION('',(-0.,1.,2.2E-16));
#508 = DIRECTION('',(1.,0.,0.));
#509 = ORIENTED_EDGE('',*,*,#495,.F.);
#510 = ORIENTED_EDGE('',*,*,#176,.F.);
#511 = CYLINDRICAL_SURFACE('',#512,0.145);
#512 = AXIS2_PLACEMENT_3D('',#513,#514,#515);
#513 = CARTESIAN_POINT('',(2.8125,1.110236220472E-16,-0.5));
#514 = DIRECTION('',(0.,1.,2.2E-16));
#515 = DIRECTION('',(1.,0.,0.));
#516 = ADVANCED_FACE('',(#517),#536,.F.);
#517 = FACE_BOUND('',#518,.F.);
#518 = EDGE_LOOP('',(#519,#527,#534,#535));
#519 = ORIENTED_EDGE('',*,*,#520,.T.);
#520 = EDGE_CURVE('',#188,#521,#523,.T.);
#521 = VERTEX_POINT('',#522);
#522 = CARTESIAN_POINT('',(2.9575,-0.17,0.5));
#523 = LINE('',#524,#525);
#524 = CARTESIAN_POINT('',(2.9575,-1.110236220472E-16,0.5));
#525 = VECTOR('',#526,3.937007874016E-02);
#526 = DIRECTION('',(0.,-1.,-2.2E-16));
#527 = ORIENTED_EDGE('',*,*,#528,.T.);
#528 = EDGE_CURVE('',#521,#521,#529,.T.);
#529 = CIRCLE('',#530,0.145);
#530 = AXIS2_PLACEMENT_3D('',#531,#532,#533);
#531 = CARTESIAN_POINT('',(2.8125,-0.17,0.5));
#532 = DIRECTION('',(-0.,1.,2.2E-16));
#533 = DIRECTION('',(1.,0.,0.));
#534 = ORIENTED_EDGE('',*,*,#520,.F.);
#535 = ORIENTED_EDGE('',*,*,#187,.F.);
#536 = CYLINDRICAL_SURFACE('',#537,0.145);
#537 = AXIS2_PLACEMENT_3D('',#538,#539,#540);
#538 = CARTESIAN_POINT('',(2.8125,-1.110236220472E-16,0.5));
#539 = DIRECTION('',(0.,1.,2.2E-16));
#540 = DIRECTION('',(1.,0.,0.));
#541 = ADVANCED_FACE('',(#542),#561,.F.);
#542 = FACE_BOUND('',#543,.T.);
#543 = EDGE_LOOP('',(#544,#553,#559,#560));
#544 = ORIENTED_EDGE('',*,*,#545,.T.);
#545 = EDGE_CURVE('',#546,#546,#548,.T.);
#546 = VERTEX_POINT('',#547);
#547 = CARTESIAN_POINT('',(2.925,-0.17,0.5));
#548 = CIRCLE('',#549,0.1125);
#549 = AXIS2_PLACEMENT_3D('',#550,#551,#552);
#550 = CARTESIAN_POINT('',(2.8125,-0.17,0.5));
#551 = DIRECTION('',(0.,1.,-2.2E-16));
#552 = DIRECTION('',(1.,0.,0.));
#553 = ORIENTED_EDGE('',*,*,#554,.T.);
#554 = EDGE_CURVE('',#546,#223,#555,.T.);
#555 = LINE('',#556,#557);
#556 = CARTESIAN_POINT('',(2.925,1.110236220472E-16,0.5));
#557 = VECTOR('',#558,3.937007874016E-02);
#558 = DIRECTION('',(0.,-1.,2.2E-16));
#559 = ORIENTED_EDGE('',*,*,#222,.T.);
#560 = ORIENTED_EDGE('',*,*,#554,.F.);
#561 = CYLINDRICAL_SURFACE('',#562,0.1125);
#562 = AXIS2_PLACEMENT_3D('',#563,#564,#565);
#563 = CARTESIAN_POINT('',(2.8125,1.110236220472E-16,0.5));
#564 = DIRECTION('',(0.,1.,-2.2E-16));
#565 = DIRECTION('',(1.,0.,0.));
#566 = ADVANCED_FACE('',(#567),#586,.F.);
#567 = FACE_BOUND('',#568,.T.);
#568 = EDGE_LOOP('',(#569,#578,#584,#585));
#569 = ORIENTED_EDGE('',*,*,#570,.T.);
#570 = EDGE_CURVE('',#571,#571,#573,.T.);
#571 = VERTEX_POINT('',#572);
#572 = CARTESIAN_POINT('',(2.925,-0.17,-0.5));
#573 = CIRCLE('',#574,0.1125);
#574 = AXIS2_PLACEMENT_3D('',#575,#576,#577);
#575 = CARTESIAN_POINT('',(2.8125,-0.17,-0.5));
#576 = DIRECTION('',(0.,1.,-2.2E-16));
#577 = DIRECTION('',(1.,0.,0.));
#578 = ORIENTED_EDGE('',*,*,#579,.T.);
#579 = EDGE_CURVE('',#571,#234,#580,.T.);
#580 = LINE('',#581,#582);
#581 = CARTESIAN_POINT('',(2.925,-1.110236220472E-16,-0.5));
#582 = VECTOR('',#583,3.937007874016E-02);
#583 = DIRECTION('',(0.,-1.,2.2E-16));
#584 = ORIENTED_EDGE('',*,*,#233,.T.);
#585 = ORIENTED_EDGE('',*,*,#579,.F.);
#586 = CYLINDRICAL_SURFACE('',#587,0.1125);
#587 = AXIS2_PLACEMENT_3D('',#588,#589,#590);
#588 = CARTESIAN_POINT('',(2.8125,-1.110236220472E-16,-0.5));
#589 = DIRECTION('',(0.,1.,-2.2E-16));
#590 = DIRECTION('',(1.,0.,0.));
#591 = ADVANCED_FACE('',(#592),#611,.F.);
#592 = FACE_BOUND('',#593,.T.);
#593 = EDGE_LOOP('',(#594,#603,#609,#610));
#594 = ORIENTED_EDGE('',*,*,#595,.T.);
#595 = EDGE_CURVE('',#596,#596,#598,.T.);
#596 = VERTEX_POINT('',#597);
#597 = CARTESIAN_POINT('',(-2.7,-0.17,-0.5));
#598 = CIRCLE('',#599,0.1125);
#599 = AXIS2_PLACEMENT_3D('',#600,#601,#602);
#600 = CARTESIAN_POINT('',(-2.8125,-0.17,-0.5));
#601 = DIRECTION('',(0.,1.,-2.2E-16));
#602 = DIRECTION('',(1.,0.,0.));
#603 = ORIENTED_EDGE('',*,*,#604,.T.);
#604 = EDGE_CURVE('',#596,#245,#605,.T.);
#605 = LINE('',#606,#607);
#606 = CARTESIAN_POINT('',(-2.7,-1.110236220472E-16,-0.5));
#607 = VECTOR('',#608,3.937007874016E-02);
#608 = DIRECTION('',(0.,-1.,2.2E-16));
#609 = ORIENTED_EDGE('',*,*,#244,.T.);
#610 = ORIENTED_EDGE('',*,*,#604,.F.);
#611 = CYLINDRICAL_SURFACE('',#612,0.1125);
#612 = AXIS2_PLACEMENT_3D('',#613,#614,#615);
#613 = CARTESIAN_POINT('',(-2.8125,-1.110236220472E-16,-0.5));
#614 = DIRECTION('',(0.,1.,-2.2E-16));
#615 = DIRECTION('',(1.,0.,0.));
#616 = ADVANCED_FACE('',(#617),#636,.F.);
#617 = FACE_BOUND('',#618,.T.);
#618 = EDGE_LOOP('',(#619,#628,#634,#635));
#619 = ORIENTED_EDGE('',*,*,#620,.T.);
#620 = EDGE_CURVE('',#621,#621,#623,.T.);
#621 = VERTEX_POINT('',#622);
#622 = CARTESIAN_POINT('',(-2.7,-0.17,0.5));
#623 = CIRCLE('',#624,0.1125);
#624 = AXIS2_PLACEMENT_3D('',#625,#626,#627);
#625 = CARTESIAN_POINT('',(-2.8125,-0.17,0.5));
#626 = DIRECTION('',(0.,1.,-2.2E-16));
#627 = DIRECTION('',(1.,0.,0.));
#628 = ORIENTED_EDGE('',*,*,#629,.T.);
#629 = EDGE_CURVE('',#621,#256,#630,.T.);
#630 = LINE('',#631,#632);
#631 = CARTESIAN_POINT('',(-2.7,1.110236220472E-16,0.5));
#632 = VECTOR('',#633,3.937007874016E-02);
#633 = DIRECTION('',(0.,-1.,2.2E-16));
#634 = ORIENTED_EDGE('',*,*,#255,.T.);
#635 = ORIENTED_EDGE('',*,*,#629,.F.);
#636 = CYLINDRICAL_SURFACE('',#637,0.1125);
#637 = AXIS2_PLACEMENT_3D('',#638,#639,#640);
#638 = CARTESIAN_POINT('',(-2.8125,1.110236220472E-16,0.5));
#639 = DIRECTION('',(0.,1.,-2.2E-16));
#640 = DIRECTION('',(1.,0.,0.));
#641 = ADVANCED_FACE('',(#642),#661,.F.);
#642 = FACE_BOUND('',#643,.F.);
#643 = EDGE_LOOP('',(#644,#652,#659,#660));
#644 = ORIENTED_EDGE('',*,*,#645,.T.);
#645 = EDGE_CURVE('',#284,#646,#648,.T.);
#646 = VERTEX_POINT('',#647);
#647 = CARTESIAN_POINT('',(-1.3875,-0.1875,-0.51));
#648 = LINE('',#649,#650);
#649 = CARTESIAN_POINT('',(-1.3875,-0.1875,-0.75));
#650 = VECTOR('',#651,3.937007874016E-02);
#651 = DIRECTION('',(0.,0.,1.));
#652 = ORIENTED_EDGE('',*,*,#653,.T.);
#653 = EDGE_CURVE('',#646,#646,#654,.T.);
#654 = CIRCLE('',#655,0.1125);
#655 = AXIS2_PLACEMENT_3D('',#656,#657,#658);
#656 = CARTESIAN_POINT('',(-1.5,-0.1875,-0.51));
#657 = DIRECTION('',(0.,2.2E-16,-1.));
#658 = DIRECTION('',(1.,0.,0.));
#659 = ORIENTED_EDGE('',*,*,#645,.F.);
#660 = ORIENTED_EDGE('',*,*,#283,.F.);
#661 = CYLINDRICAL_SURFACE('',#662,0.1125);
#662 = AXIS2_PLACEMENT_3D('',#663,#664,#665);
#663 = CARTESIAN_POINT('',(-1.5,-0.1875,-0.75));
#664 = DIRECTION('',(0.,0.,-1.));
#665 = DIRECTION('',(1.,0.,0.));
#666 = ADVANCED_FACE('',(#667),#686,.F.);
#667 = FACE_BOUND('',#668,.F.);
#668 = EDGE_LOOP('',(#669,#677,#684,#685));
#669 = ORIENTED_EDGE('',*,*,#670,.T.);
#670 = EDGE_CURVE('',#295,#671,#673,.T.);
#671 = VERTEX_POINT('',#672);
#672 = CARTESIAN_POINT('',(1.6125,-0.1875,-0.51));
#673 = LINE('',#674,#675);
#674 = CARTESIAN_POINT('',(1.6125,-0.1875,-0.75));
#675 = VECTOR('',#676,3.937007874016E-02);
#676 = DIRECTION('',(0.,0.,1.));
#677 = ORIENTED_EDGE('',*,*,#678,.T.);
#678 = EDGE_CURVE('',#671,#671,#679,.T.);
#679 = CIRCLE('',#680,0.1125);
#680 = AXIS2_PLACEMENT_3D('',#681,#682,#683);
#681 = CARTESIAN_POINT('',(1.5,-0.1875,-0.51));
#682 = DIRECTION('',(0.,2.2E-16,-1.));
#683 = DIRECTION('',(1.,0.,0.));
#684 = ORIENTED_EDGE('',*,*,#670,.F.);
#685 = ORIENTED_EDGE('',*,*,#294,.F.);
#686 = CYLINDRICAL_SURFACE('',#687,0.1125);
#687 = AXIS2_PLACEMENT_3D('',#688,#689,#690);
#688 = CARTESIAN_POINT('',(1.5,-0.1875,-0.75));
#689 = DIRECTION('',(0.,0.,-1.));
#690 = DIRECTION('',(1.,0.,0.));
#691 = ADVANCED_FACE('',(#692),#695,.F.);
#692 = FACE_BOUND('',#693,.T.);
#693 = EDGE_LOOP('',(#694));
#694 = ORIENTED_EDGE('',*,*,#319,.T.);
#695 = PLANE('',#696);
#696 = AXIS2_PLACEMENT_3D('',#697,#698,#699);
#697 = CARTESIAN_POINT('',(-4.26,-0.1875,1.181102362205E-17));
#698 = DIRECTION('',(1.,0.,0.));
#699 = DIRECTION('',(0.,-2.2E-16,1.));
#700 = ADVANCED_FACE('',(#701),#704,.F.);
#701 = FACE_BOUND('',#702,.T.);
#702 = EDGE_LOOP('',(#703));
#703 = ORIENTED_EDGE('',*,*,#344,.T.);
#704 = PLANE('',#705);
#705 = AXIS2_PLACEMENT_3D('',#706,#707,#708);
#706 = CARTESIAN_POINT('',(-4.26,-0.1875,1.181102362205E-17));
#707 = DIRECTION('',(1.,0.,0.));
#708 = DIRECTION('',(0.,-2.2E-16,1.));
#709 = ADVANCED_FACE('',(#710),#729,.F.);
#710 = FACE_BOUND('',#711,.F.);
#711 = EDGE_LOOP('',(#712,#720,#727,#728));
#712 = ORIENTED_EDGE('',*,*,#713,.T.);
#713 = EDGE_CURVE('',#368,#714,#716,.T.);
#714 = VERTEX_POINT('',#715);
#715 = CARTESIAN_POINT('',(4.26,-0.1875,0.6125));
#716 = LINE('',#717,#718);
#717 = CARTESIAN_POINT('',(4.5,-0.1875,0.6125));
#718 = VECTOR('',#719,3.937007874016E-02);
#719 = DIRECTION('',(-1.,0.,2.2E-16));
#720 = ORIENTED_EDGE('',*,*,#721,.T.);
#721 = EDGE_CURVE('',#714,#714,#722,.T.);
#722 = CIRCLE('',#723,0.1125);
#723 = AXIS2_PLACEMENT_3D('',#724,#725,#726);
#724 = CARTESIAN_POINT('',(4.26,-0.1875,0.5));
#725 = DIRECTION('',(1.,2.2E-16,-2.2E-16));
#726 = DIRECTION('',(2.2E-16,-2.2E-16,1.));
#727 = ORIENTED_EDGE('',*,*,#713,.F.);
#728 = ORIENTED_EDGE('',*,*,#367,.F.);
#729 = CYLINDRICAL_SURFACE('',#730,0.1125);
#730 = AXIS2_PLACEMENT_3D('',#731,#732,#733);
#731 = CARTESIAN_POINT('',(4.5,-0.1875,0.5));
#732 = DIRECTION('',(1.,0.,-2.2E-16));
#733 = DIRECTION('',(2.2E-16,0.,1.));
#734 = ADVANCED_FACE('',(#735),#754,.F.);
#735 = FACE_BOUND('',#736,.F.);
#736 = EDGE_LOOP('',(#737,#745,#752,#753));
#737 = ORIENTED_EDGE('',*,*,#738,.T.);
#738 = EDGE_CURVE('',#379,#739,#741,.T.);
#739 = VERTEX_POINT('',#740);
#740 = CARTESIAN_POINT('',(4.26,-0.1875,-0.3875));
#741 = LINE('',#742,#743);
#742 = CARTESIAN_POINT('',(4.5,-0.1875,-0.3875));
#743 = VECTOR('',#744,3.937007874016E-02);
#744 = DIRECTION('',(-1.,0.,2.2E-16));
#745 = ORIENTED_EDGE('',*,*,#746,.T.);
#746 = EDGE_CURVE('',#739,#739,#747,.T.);
#747 = CIRCLE('',#748,0.1125);
#748 = AXIS2_PLACEMENT_3D('',#749,#750,#751);
#749 = CARTESIAN_POINT('',(4.26,-0.1875,-0.5));
#750 = DIRECTION('',(1.,2.2E-16,-2.2E-16));
#751 = DIRECTION('',(2.2E-16,-2.2E-16,1.));
#752 = ORIENTED_EDGE('',*,*,#738,.F.);
#753 = ORIENTED_EDGE('',*,*,#378,.F.);
#754 = CYLINDRICAL_SURFACE('',#755,0.1125);
#755 = AXIS2_PLACEMENT_3D('',#756,#757,#758);
#756 = CARTESIAN_POINT('',(4.5,-0.1875,-0.5));
#757 = DIRECTION('',(1.,0.,-2.2E-16));
#758 = DIRECTION('',(2.2E-16,0.,1.));
#759 = ADVANCED_FACE('',(#760),#763,.T.);
#760 = FACE_BOUND('',#761,.T.);
#761 = EDGE_LOOP('',(#762));
#762 = ORIENTED_EDGE('',*,*,#403,.T.);
#763 = PLANE('',#764);
#764 = AXIS2_PLACEMENT_3D('',#765,#766,#767);
#765 = CARTESIAN_POINT('',(0.,-0.1875,0.51));
#766 = DIRECTION('',(0.,-2.2E-16,1.));
#767 = DIRECTION('',(1.,0.,0.));
#768 = ADVANCED_FACE('',(#769),#772,.T.);
#769 = FACE_BOUND('',#770,.T.);
#770 = EDGE_LOOP('',(#771));
#771 = ORIENTED_EDGE('',*,*,#428,.T.);
#772 = PLANE('',#773);
#773 = AXIS2_PLACEMENT_3D('',#774,#775,#776);
#774 = CARTESIAN_POINT('',(0.,-0.1875,0.51));
#775 = DIRECTION('',(0.,-2.2E-16,1.));
#776 = DIRECTION('',(1.,0.,0.));
#777 = ADVANCED_FACE('',(#778,#781),#784,.T.);
#778 = FACE_BOUND('',#779,.T.);
#779 = EDGE_LOOP('',(#780));
#780 = ORIENTED_EDGE('',*,*,#453,.T.);
#781 = FACE_BOUND('',#782,.T.);
#782 = EDGE_LOOP('',(#783));
#783 = ORIENTED_EDGE('',*,*,#595,.F.);
#784 = PLANE('',#785);
#785 = AXIS2_PLACEMENT_3D('',#786,#787,#788);
#786 = CARTESIAN_POINT('',(3.070866141732E-16,-0.17,-6.993530863781E-17)
  );
#787 = DIRECTION('',(0.,1.,4.4E-16));
#788 = DIRECTION('',(0.,-4.4E-16,1.));
#789 = ADVANCED_FACE('',(#790,#793),#796,.T.);
#790 = FACE_BOUND('',#791,.T.);
#791 = EDGE_LOOP('',(#792));
#792 = ORIENTED_EDGE('',*,*,#478,.T.);
#793 = FACE_BOUND('',#794,.T.);
#794 = EDGE_LOOP('',(#795));
#795 = ORIENTED_EDGE('',*,*,#620,.F.);
#796 = PLANE('',#797);
#797 = AXIS2_PLACEMENT_3D('',#798,#799,#800);
#798 = CARTESIAN_POINT('',(3.070866141732E-16,-0.17,-6.993530863781E-17)
  );
#799 = DIRECTION('',(0.,1.,4.4E-16));
#800 = DIRECTION('',(0.,-4.4E-16,1.));
#801 = ADVANCED_FACE('',(#802,#805),#808,.T.);
#802 = FACE_BOUND('',#803,.T.);
#803 = EDGE_LOOP('',(#804));
#804 = ORIENTED_EDGE('',*,*,#503,.T.);
#805 = FACE_BOUND('',#806,.T.);
#806 = EDGE_LOOP('',(#807));
#807 = ORIENTED_EDGE('',*,*,#570,.F.);
#808 = PLANE('',#809);
#809 = AXIS2_PLACEMENT_3D('',#810,#811,#812);
#810 = CARTESIAN_POINT('',(3.070866141732E-16,-0.17,-6.993530863781E-17)
  );
#811 = DIRECTION('',(0.,1.,4.4E-16));
#812 = DIRECTION('',(0.,-4.4E-16,1.));
#813 = ADVANCED_FACE('',(#814,#817),#820,.T.);
#814 = FACE_BOUND('',#815,.T.);
#815 = EDGE_LOOP('',(#816));
#816 = ORIENTED_EDGE('',*,*,#528,.T.);
#817 = FACE_BOUND('',#818,.T.);
#818 = EDGE_LOOP('',(#819));
#819 = ORIENTED_EDGE('',*,*,#545,.F.);
#820 = PLANE('',#821);
#821 = AXIS2_PLACEMENT_3D('',#822,#823,#824);
#822 = CARTESIAN_POINT('',(3.070866141732E-16,-0.17,-6.993530863781E-17)
  );
#823 = DIRECTION('',(0.,1.,4.4E-16));
#824 = DIRECTION('',(0.,-4.4E-16,1.));
#825 = ADVANCED_FACE('',(#826),#829,.F.);
#826 = FACE_BOUND('',#827,.T.);
#827 = EDGE_LOOP('',(#828));
#828 = ORIENTED_EDGE('',*,*,#653,.T.);
#829 = PLANE('',#830);
#830 = AXIS2_PLACEMENT_3D('',#831,#832,#833);
#831 = CARTESIAN_POINT('',(1.889763779528E-17,-0.1875,-0.51));
#832 = DIRECTION('',(0.,-2.2E-16,1.));
#833 = DIRECTION('',(1.,0.,0.));
#834 = ADVANCED_FACE('',(#835),#838,.F.);
#835 = FACE_BOUND('',#836,.T.);
#836 = EDGE_LOOP('',(#837));
#837 = ORIENTED_EDGE('',*,*,#678,.T.);
#838 = PLANE('',#839);
#839 = AXIS2_PLACEMENT_3D('',#840,#841,#842);
#840 = CARTESIAN_POINT('',(1.889763779528E-17,-0.1875,-0.51));
#841 = DIRECTION('',(0.,-2.2E-16,1.));
#842 = DIRECTION('',(1.,0.,0.));
#843 = ADVANCED_FACE('',(#844),#847,.T.);
#844 = FACE_BOUND('',#845,.T.);
#845 = EDGE_LOOP('',(#846));
#846 = ORIENTED_EDGE('',*,*,#721,.T.);
#847 = PLANE('',#848);
#848 = AXIS2_PLACEMENT_3D('',#849,#850,#851);
#849 = CARTESIAN_POINT('',(4.26,-0.1875,1.181102362205E-17));
#850 = DIRECTION('',(1.,0.,0.));
#851 = DIRECTION('',(0.,-2.2E-16,1.));
#852 = ADVANCED_FACE('',(#853),#856,.T.);
#853 = FACE_BOUND('',#854,.T.);
#854 = EDGE_LOOP('',(#855));
#855 = ORIENTED_EDGE('',*,*,#746,.T.);
#856 = PLANE('',#857);
#857 = AXIS2_PLACEMENT_3D('',#858,#859,#860);
#858 = CARTESIAN_POINT('',(4.26,-0.1875,1.181102362205E-17));
#859 = DIRECTION('',(1.,0.,0.));
#860 = DIRECTION('',(0.,-2.2E-16,1.));
#861 = ( GEOMETRIC_REPRESENTATION_CONTEXT(3) 
GLOBAL_UNCERTAINTY_ASSIGNED_CONTEXT((#868)) GLOBAL_UNIT_ASSIGNED_CONTEXT
((#862,#866,#867)) REPRESENTATION_CONTEXT('Context #1',
  '3D Context with UNIT and UNCERTAINTY') );
#862 = ( CONVERSION_BASED_UNIT('INCH',#864) LENGTH_UNIT() NAMED_UNIT(
  #863) );
#863 = DIMENSIONAL_EXPONENTS(1.,0.,0.,0.,0.,0.,0.);
#864 = LENGTH_MEASURE_WITH_UNIT(25.4,#865);
#865 = ( LENGTH_UNIT() NAMED_UNIT(*) SI_UNIT(.MILLI.,.METRE.) );
#866 = ( NAMED_UNIT(*) PLANE_ANGLE_UNIT() SI_UNIT($,.RADIAN.) );
#867 = ( NAMED_UNIT(*) SI_UNIT($,.STERADIAN.) SOLID_ANGLE_UNIT() );
#868 = UNCERTAINTY_MEASURE_WITH_UNIT(LENGTH_MEASURE(3.937007874016E-09),
  #862,'distance_accuracy_value','confusion accuracy');
#869 = PRODUCT_RELATED_PRODUCT_CATEGORY('part',$,(#7));
#870 = MECHANICAL_DESIGN_GEOMETRIC_PRESENTATION_REPRESENTATION('',(#871)
  ,#861);
#871 = STYLED_ITEM('color',(#872),#15);
#872 = PRESENTATION_STYLE_ASSIGNMENT((#873,#879));
#873 = SURFACE_STYLE_USAGE(.BOTH.,#874);
#874 = SURFACE_SIDE_STYLE('',(#875));
#875 = SURFACE_STYLE_FILL_AREA(#876);
#876 = FILL_AREA_STYLE('',(#877));
#877 = FILL_AREA_STYLE_COLOUR('',#878);
#878 = COLOUR_RGB('',0.678431390124,0.709803936702,0.741176476869);
#879 = CURVE_STYLE('',#880,POSITIVE_LENGTH_MEASURE(0.1),#881);
#880 = DRAUGHTING_PRE_DEFINED_CURVE_FONT('continuous');
#881 = COLOUR_RGB('',9.803921802644E-02,9.803921802644E-02,
  9.803921802644E-02);
ENDSEC;
END-ISO-10303-21;
