ISO-10303-21;
HEADER;
FILE_DESCRIPTION(('FreeCAD Model'),'2;1');
FILE_NAME('Open CASCADE Shape Model','2024-10-31T10:38:15',(''),(''),
  'Open CASCADE STEP processor 7.7','Ondsel','Unknown');
FILE_SCHEMA(('AUTOMOTIVE_DESIGN { 1 0 10303 214 1 1 1 1 }'));
ENDSEC;
DATA;
#1 = APPLICATION_PROTOCOL_DEFINITION('international standard',
  'automotive_design',2000,#2);
#2 = APPLICATION_CONTEXT(
  'core data for automotive mechanical design processes');
#3 = SHAPE_DEFINITION_REPRESENTATION(#4,#10);
#4 = PRODUCT_DEFINITION_SHAPE('','',#5);
#5 = PRODUCT_DEFINITION('design','',#6,#9);
#6 = PRODUCT_DEFINITION_FORMATION('','',#7);
#7 = PRODUCT('left-wall','left-wall','',(#8));
#8 = PRODUCT_CONTEXT('',#2,'mechanical');
#9 = PRODUCT_DEFINITION_CONTEXT('part definition',#2,'design');
#10 = ADVANCED_BREP_SHAPE_REPRESENTATION('',(#11,#15),#1475);
#11 = AXIS2_PLACEMENT_3D('',#12,#13,#14);
#12 = CARTESIAN_POINT('',(0.,0.,0.));
#13 = DIRECTION('',(0.,0.,1.));
#14 = DIRECTION('',(1.,0.,-0.));
#15 = MANIFOLD_SOLID_BREP('',#16);
#16 = CLOSED_SHELL('',(#17,#57,#110,#163,#301,#546,#580,#605,#630,#655,
    #680,#753,#770,#787,#804,#821,#838,#855,#872,#897,#922,#947,#971,
    #995,#1019,#1043,#1060,#1084,#1108,#1125,#1150,#1181,#1205,#1229,
    #1246,#1271,#1296,#1321,#1346,#1355,#1364,#1373,#1382,#1395,#1409,
    #1421,#1433,#1445,#1457,#1466));
#17 = ADVANCED_FACE('',(#18),#52,.F.);
#18 = FACE_BOUND('',#19,.F.);
#19 = EDGE_LOOP('',(#20,#30,#38,#46));
#20 = ORIENTED_EDGE('',*,*,#21,.T.);
#21 = EDGE_CURVE('',#22,#24,#26,.T.);
#22 = VERTEX_POINT('',#23);
#23 = CARTESIAN_POINT('',(-1.498801083244E-15,-3.375,0.75));
#24 = VERTEX_POINT('',#25);
#25 = CARTESIAN_POINT('',(0.375,-3.375,0.75));
#26 = LINE('',#27,#28);
#27 = CARTESIAN_POINT('',(1.415534356397E-15,-3.375,0.75));
#28 = VECTOR('',#29,3.937007874016E-02);
#29 = DIRECTION('',(1.,-2.442490654175E-15,-4.440892098501E-16));
#30 = ORIENTED_EDGE('',*,*,#31,.T.);
#31 = EDGE_CURVE('',#24,#32,#34,.T.);
#32 = VERTEX_POINT('',#33);
#33 = CARTESIAN_POINT('',(0.375,-3.375,-0.75));
#34 = LINE('',#35,#36);
#35 = CARTESIAN_POINT('',(0.375,-3.375,0.75));
#36 = VECTOR('',#37,3.937007874016E-02);
#37 = DIRECTION('',(3.330669073875E-15,6.661338147751E-16,-1.));
#38 = ORIENTED_EDGE('',*,*,#39,.F.);
#39 = EDGE_CURVE('',#40,#32,#42,.T.);
#40 = VERTEX_POINT('',#41);
#41 = CARTESIAN_POINT('',(1.498801083244E-15,-3.375,-0.75));
#42 = LINE('',#43,#44);
#43 = CARTESIAN_POINT('',(6.078471059823E-15,-3.375,-0.75));
#44 = VECTOR('',#45,3.937007874016E-02);
#45 = DIRECTION('',(1.,-2.442490654175E-15,-4.440892098501E-16));
#46 = ORIENTED_EDGE('',*,*,#47,.F.);
#47 = EDGE_CURVE('',#22,#40,#48,.T.);
#48 = LINE('',#49,#50);
#49 = CARTESIAN_POINT('',(1.998401444325E-15,-3.375,0.75));
#50 = VECTOR('',#51,3.937007874016E-02);
#51 = DIRECTION('',(3.330669073875E-15,6.661338147751E-16,-1.));
#52 = PLANE('',#53);
#53 = AXIS2_PLACEMENT_3D('',#54,#55,#56);
#54 = CARTESIAN_POINT('',(1.415534356397E-15,-3.375,0.75));
#55 = DIRECTION('',(-8.881784197001E-16,1.,-2.886579864025E-15));
#56 = DIRECTION('',(3.10862446895E-15,4.440892098501E-16,-1.));
#57 = ADVANCED_FACE('',(#58,#83,#94),#105,.F.);
#58 = FACE_BOUND('',#59,.F.);
#59 = EDGE_LOOP('',(#60,#70,#76,#77));
#60 = ORIENTED_EDGE('',*,*,#61,.T.);
#61 = EDGE_CURVE('',#62,#64,#66,.T.);
#62 = VERTEX_POINT('',#63);
#63 = CARTESIAN_POINT('',(-1.498801083244E-15,3.375,0.75));
#64 = VERTEX_POINT('',#65);
#65 = CARTESIAN_POINT('',(0.375,3.375,0.75));
#66 = LINE('',#67,#68);
#67 = CARTESIAN_POINT('',(-6.078471059823E-15,3.375,0.75));
#68 = VECTOR('',#69,3.937007874016E-02);
#69 = DIRECTION('',(1.,-2.442490654175E-15,-4.440892098501E-16));
#70 = ORIENTED_EDGE('',*,*,#71,.T.);
#71 = EDGE_CURVE('',#64,#24,#72,.T.);
#72 = LINE('',#73,#74);
#73 = CARTESIAN_POINT('',(0.375,3.375,0.75));
#74 = VECTOR('',#75,3.937007874016E-02);
#75 = DIRECTION('',(1.33226762955E-15,-1.,3.330669073875E-15));
#76 = ORIENTED_EDGE('',*,*,#21,.F.);
#77 = ORIENTED_EDGE('',*,*,#78,.F.);
#78 = EDGE_CURVE('',#62,#22,#79,.T.);
#79 = LINE('',#80,#81);
#80 = CARTESIAN_POINT('',(-6.994405055138E-15,3.375,0.75));
#81 = VECTOR('',#82,3.937007874016E-02);
#82 = DIRECTION('',(1.33226762955E-15,-1.,3.330669073875E-15));
#83 = FACE_BOUND('',#84,.F.);
#84 = EDGE_LOOP('',(#85));
#85 = ORIENTED_EDGE('',*,*,#86,.T.);
#86 = EDGE_CURVE('',#87,#87,#89,.T.);
#87 = VERTEX_POINT('',#88);
#88 = CARTESIAN_POINT('',(0.1875,-0.3625,0.75));
#89 = CIRCLE('',#90,0.1125);
#90 = AXIS2_PLACEMENT_3D('',#91,#92,#93);
#91 = CARTESIAN_POINT('',(0.1875,-0.25,0.75));
#92 = DIRECTION('',(4.440892098501E-16,2.22044604925E-15,1.));
#93 = DIRECTION('',(1.110223024625E-15,-1.,2.22044604925E-15));
#94 = FACE_BOUND('',#95,.F.);
#95 = EDGE_LOOP('',(#96));
#96 = ORIENTED_EDGE('',*,*,#97,.T.);
#97 = EDGE_CURVE('',#98,#98,#100,.T.);
#98 = VERTEX_POINT('',#99);
#99 = CARTESIAN_POINT('',(0.1875,2.6375,0.75));
#100 = CIRCLE('',#101,0.1125);
#101 = AXIS2_PLACEMENT_3D('',#102,#103,#104);
#102 = CARTESIAN_POINT('',(0.1875,2.75,0.75));
#103 = DIRECTION('',(4.440892098501E-16,2.22044604925E-15,1.));
#104 = DIRECTION('',(1.110223024625E-15,-1.,2.22044604925E-15));
#105 = PLANE('',#106);
#106 = AXIS2_PLACEMENT_3D('',#107,#108,#109);
#107 = CARTESIAN_POINT('',(-6.078471059823E-15,3.375,0.75));
#108 = DIRECTION('',(2.886579864025E-15,2.22044604925E-16,-1.));
#109 = DIRECTION('',(1.110223024625E-15,-1.,3.10862446895E-15));
#110 = ADVANCED_FACE('',(#111,#136,#147),#158,.F.);
#111 = FACE_BOUND('',#112,.F.);
#112 = EDGE_LOOP('',(#113,#114,#122,#130));
#113 = ORIENTED_EDGE('',*,*,#39,.T.);
#114 = ORIENTED_EDGE('',*,*,#115,.T.);
#115 = EDGE_CURVE('',#32,#116,#118,.T.);
#116 = VERTEX_POINT('',#117);
#117 = CARTESIAN_POINT('',(0.375,3.375,-0.75));
#118 = LINE('',#119,#120);
#119 = CARTESIAN_POINT('',(0.375,-3.375,-0.75));
#120 = VECTOR('',#121,3.937007874016E-02);
#121 = DIRECTION('',(-1.33226762955E-15,1.,-3.330669073875E-15));
#122 = ORIENTED_EDGE('',*,*,#123,.F.);
#123 = EDGE_CURVE('',#124,#116,#126,.T.);
#124 = VERTEX_POINT('',#125);
#125 = CARTESIAN_POINT('',(1.498801083244E-15,3.375,-0.75));
#126 = LINE('',#127,#128);
#127 = CARTESIAN_POINT('',(-1.415534356397E-15,3.375,-0.75));
#128 = VECTOR('',#129,3.937007874016E-02);
#129 = DIRECTION('',(1.,-2.442490654175E-15,-4.440892098501E-16));
#130 = ORIENTED_EDGE('',*,*,#131,.F.);
#131 = EDGE_CURVE('',#40,#124,#132,.T.);
#132 = LINE('',#133,#134);
#133 = CARTESIAN_POINT('',(6.994405055138E-15,-3.375,-0.75));
#134 = VECTOR('',#135,3.937007874016E-02);
#135 = DIRECTION('',(-1.33226762955E-15,1.,-3.330669073875E-15));
#136 = FACE_BOUND('',#137,.F.);
#137 = EDGE_LOOP('',(#138));
#138 = ORIENTED_EDGE('',*,*,#139,.T.);
#139 = EDGE_CURVE('',#140,#140,#142,.T.);
#140 = VERTEX_POINT('',#141);
#141 = CARTESIAN_POINT('',(0.1875,-0.1375,-0.75));
#142 = CIRCLE('',#143,0.1125);
#143 = AXIS2_PLACEMENT_3D('',#144,#145,#146);
#144 = CARTESIAN_POINT('',(0.1875,-0.25,-0.75));
#145 = DIRECTION('',(-3.330669073875E-16,-1.665334536938E-15,-1.));
#146 = DIRECTION('',(-4.440892098501E-16,1.,-1.665334536938E-15));
#147 = FACE_BOUND('',#148,.F.);
#148 = EDGE_LOOP('',(#149));
#149 = ORIENTED_EDGE('',*,*,#150,.T.);
#150 = EDGE_CURVE('',#151,#151,#153,.T.);
#151 = VERTEX_POINT('',#152);
#152 = CARTESIAN_POINT('',(0.1875,2.8625,-0.75));
#153 = CIRCLE('',#154,0.1125);
#154 = AXIS2_PLACEMENT_3D('',#155,#156,#157);
#155 = CARTESIAN_POINT('',(0.1875,2.75,-0.75));
#156 = DIRECTION('',(-3.330669073875E-16,-1.665334536938E-15,-1.));
#157 = DIRECTION('',(-4.440892098501E-16,1.,-1.665334536938E-15));
#158 = PLANE('',#159);
#159 = AXIS2_PLACEMENT_3D('',#160,#161,#162);
#160 = CARTESIAN_POINT('',(6.078471059823E-15,-3.375,-0.75));
#161 = DIRECTION('',(-2.886579864025E-15,-2.22044604925E-16,1.));
#162 = DIRECTION('',(-1.110223024625E-15,1.,-3.10862446895E-15));
#163 = ADVANCED_FACE('',(#164,#175,#186,#197,#208,#219,#230,#241,#252,
    #263,#274,#285),#296,.F.);
#164 = FACE_BOUND('',#165,.F.);
#165 = EDGE_LOOP('',(#166,#167,#168,#174));
#166 = ORIENTED_EDGE('',*,*,#47,.T.);
#167 = ORIENTED_EDGE('',*,*,#131,.T.);
#168 = ORIENTED_EDGE('',*,*,#169,.T.);
#169 = EDGE_CURVE('',#124,#62,#170,.T.);
#170 = LINE('',#171,#172);
#171 = CARTESIAN_POINT('',(-1.998401444325E-15,3.375,-0.75));
#172 = VECTOR('',#173,3.937007874016E-02);
#173 = DIRECTION('',(-3.330669073875E-15,-6.661338147751E-16,1.));
#174 = ORIENTED_EDGE('',*,*,#78,.T.);
#175 = FACE_BOUND('',#176,.T.);
#176 = EDGE_LOOP('',(#177));
#177 = ORIENTED_EDGE('',*,*,#178,.T.);
#178 = EDGE_CURVE('',#179,#179,#181,.T.);
#179 = VERTEX_POINT('',#180);
#180 = CARTESIAN_POINT('',(4.316994717548E-30,2.375,-4.746203430273E-15)
  );
#181 = CIRCLE('',#182,0.5);
#182 = AXIS2_PLACEMENT_3D('',#183,#184,#185);
#183 = CARTESIAN_POINT('',(-2.498001805407E-15,1.875,-6.245004513517E-15
    ));
#184 = DIRECTION('',(1.,1.33226762955E-15,3.330669073875E-15));
#185 = DIRECTION('',(-1.33226762955E-15,1.,-3.330669073875E-15));
#186 = FACE_BOUND('',#187,.T.);
#187 = EDGE_LOOP('',(#188));
#188 = ORIENTED_EDGE('',*,*,#189,.T.);
#189 = EDGE_CURVE('',#190,#190,#192,.T.);
#190 = VERTEX_POINT('',#191);
#191 = CARTESIAN_POINT('',(-4.844972488759E-30,-2.685,5.365707878013E-15
    ));
#192 = CIRCLE('',#193,0.19);
#193 = AXIS2_PLACEMENT_3D('',#194,#195,#196);
#194 = CARTESIAN_POINT('',(3.830269434957E-15,-2.875,9.575673587392E-15)
  );
#195 = DIRECTION('',(1.,1.33226762955E-15,3.330669073875E-15));
#196 = DIRECTION('',(-1.33226762955E-15,1.,-3.330669073875E-15));
#197 = FACE_BOUND('',#198,.T.);
#198 = EDGE_LOOP('',(#199));
#199 = ORIENTED_EDGE('',*,*,#200,.T.);
#200 = EDGE_CURVE('',#201,#201,#203,.T.);
#201 = VERTEX_POINT('',#202);
#202 = CARTESIAN_POINT('',(9.992007221626E-16,-1.7625,-0.5));
#203 = CIRCLE('',#204,0.1125);
#204 = AXIS2_PLACEMENT_3D('',#205,#206,#207);
#205 = CARTESIAN_POINT('',(4.163336342344E-15,-1.875,-0.5));
#206 = DIRECTION('',(1.,1.33226762955E-15,3.330669073875E-15));
#207 = DIRECTION('',(-1.33226762955E-15,1.,-3.330669073875E-15));
#208 = FACE_BOUND('',#209,.T.);
#209 = EDGE_LOOP('',(#210));
#210 = ORIENTED_EDGE('',*,*,#211,.T.);
#211 = EDGE_CURVE('',#212,#212,#214,.T.);
#212 = VERTEX_POINT('',#213);
#213 = CARTESIAN_POINT('',(-9.992007221626E-16,-1.7625,0.5));
#214 = CIRCLE('',#215,0.1125);
#215 = AXIS2_PLACEMENT_3D('',#216,#217,#218);
#216 = CARTESIAN_POINT('',(8.326672684689E-16,-1.875,0.5));
#217 = DIRECTION('',(1.,1.33226762955E-15,3.330669073875E-15));
#218 = DIRECTION('',(-1.33226762955E-15,1.,-3.330669073875E-15));
#219 = FACE_BOUND('',#220,.T.);
#220 = EDGE_LOOP('',(#221));
#221 = ORIENTED_EDGE('',*,*,#222,.T.);
#222 = EDGE_CURVE('',#223,#223,#225,.T.);
#223 = VERTEX_POINT('',#224);
#224 = CARTESIAN_POINT('',(-9.992007221626E-16,-2.535,0.5));
#225 = CIRCLE('',#226,9.E-02);
#226 = AXIS2_PLACEMENT_3D('',#227,#228,#229);
#227 = CARTESIAN_POINT('',(1.831867990632E-15,-2.625,0.5));
#228 = DIRECTION('',(1.,1.33226762955E-15,3.330669073875E-15));
#229 = DIRECTION('',(-1.33226762955E-15,1.,-3.330669073875E-15));
#230 = FACE_BOUND('',#231,.T.);
#231 = EDGE_LOOP('',(#232));
#232 = ORIENTED_EDGE('',*,*,#233,.T.);
#233 = EDGE_CURVE('',#234,#234,#236,.T.);
#234 = VERTEX_POINT('',#235);
#235 = CARTESIAN_POINT('',(-9.992007221626E-16,-3.035,0.5));
#236 = CIRCLE('',#237,9.E-02);
#237 = AXIS2_PLACEMENT_3D('',#238,#239,#240);
#238 = CARTESIAN_POINT('',(2.498001805407E-15,-3.125,0.5));
#239 = DIRECTION('',(1.,1.33226762955E-15,3.330669073875E-15));
#240 = DIRECTION('',(-1.33226762955E-15,1.,-3.330669073875E-15));
#241 = FACE_BOUND('',#242,.T.);
#242 = EDGE_LOOP('',(#243));
#243 = ORIENTED_EDGE('',*,*,#244,.T.);
#244 = EDGE_CURVE('',#245,#245,#247,.T.);
#245 = VERTEX_POINT('',#246);
#246 = CARTESIAN_POINT('',(9.992007221626E-16,-2.535,-0.5));
#247 = CIRCLE('',#248,9.E-02);
#248 = AXIS2_PLACEMENT_3D('',#249,#250,#251);
#249 = CARTESIAN_POINT('',(5.162537064507E-15,-2.625,-0.5));
#250 = DIRECTION('',(1.,1.33226762955E-15,3.330669073875E-15));
#251 = DIRECTION('',(-1.33226762955E-15,1.,-3.330669073875E-15));
#252 = FACE_BOUND('',#253,.T.);
#253 = EDGE_LOOP('',(#254));
#254 = ORIENTED_EDGE('',*,*,#255,.T.);
#255 = EDGE_CURVE('',#256,#256,#258,.T.);
#256 = VERTEX_POINT('',#257);
#257 = CARTESIAN_POINT('',(9.992007221626E-16,-3.035,-0.5));
#258 = CIRCLE('',#259,9.E-02);
#259 = AXIS2_PLACEMENT_3D('',#260,#261,#262);
#260 = CARTESIAN_POINT('',(5.828670879282E-15,-3.125,-0.5));
#261 = DIRECTION('',(1.,1.33226762955E-15,3.330669073875E-15));
#262 = DIRECTION('',(-1.33226762955E-15,1.,-3.330669073875E-15));
#263 = FACE_BOUND('',#264,.T.);
#264 = EDGE_LOOP('',(#265));
#265 = ORIENTED_EDGE('',*,*,#266,.T.);
#266 = EDGE_CURVE('',#267,#267,#269,.T.);
#267 = VERTEX_POINT('',#268);
#268 = CARTESIAN_POINT('',(-1.754749651377E-30,-0.9725,
    1.943445404606E-15));
#269 = CIRCLE('',#270,9.E-02);
#270 = AXIS2_PLACEMENT_3D('',#271,#272,#273);
#271 = CARTESIAN_POINT('',(1.415534356397E-15,-1.0625,3.538835890993E-15
    ));
#272 = DIRECTION('',(1.,1.33226762955E-15,3.330669073875E-15));
#273 = DIRECTION('',(-1.33226762955E-15,1.,-3.330669073875E-15));
#274 = FACE_BOUND('',#275,.T.);
#275 = EDGE_LOOP('',(#276));
#276 = ORIENTED_EDGE('',*,*,#277,.T.);
#277 = EDGE_CURVE('',#278,#278,#280,.T.);
#278 = VERTEX_POINT('',#279);
#279 = CARTESIAN_POINT('',(9.992007221626E-16,-0.9725,-0.5));
#280 = CIRCLE('',#281,9.E-02);
#281 = AXIS2_PLACEMENT_3D('',#282,#283,#284);
#282 = CARTESIAN_POINT('',(3.080868893335E-15,-1.0625,-0.5));
#283 = DIRECTION('',(1.,1.33226762955E-15,3.330669073875E-15));
#284 = DIRECTION('',(-1.33226762955E-15,1.,-3.330669073875E-15));
#285 = FACE_BOUND('',#286,.T.);
#286 = EDGE_LOOP('',(#287));
#287 = ORIENTED_EDGE('',*,*,#288,.T.);
#288 = EDGE_CURVE('',#289,#289,#291,.T.);
#289 = VERTEX_POINT('',#290);
#290 = CARTESIAN_POINT('',(-9.992007221626E-16,-0.9725,0.5));
#291 = CIRCLE('',#292,9.E-02);
#292 = AXIS2_PLACEMENT_3D('',#293,#294,#295);
#293 = CARTESIAN_POINT('',(-2.498001805407E-16,-1.0625,0.5));
#294 = DIRECTION('',(1.,1.33226762955E-15,3.330669073875E-15));
#295 = DIRECTION('',(-1.33226762955E-15,1.,-3.330669073875E-15));
#296 = PLANE('',#297);
#297 = AXIS2_PLACEMENT_3D('',#298,#299,#300);
#298 = CARTESIAN_POINT('',(3.817222821696E-16,-0.28652072129,
    9.6193893935E-16));
#299 = DIRECTION('',(1.,-2.6645352591E-15,-6.661338147751E-16));
#300 = DIRECTION('',(-3.330669073875E-15,-6.661338147751E-16,1.));
#301 = ADVANCED_FACE('',(#302,#313,#397,#408,#419,#430,#441,#475,#486,
    #497,#508,#519,#530),#541,.T.);
#302 = FACE_BOUND('',#303,.T.);
#303 = EDGE_LOOP('',(#304,#305,#306,#312));
#304 = ORIENTED_EDGE('',*,*,#31,.T.);
#305 = ORIENTED_EDGE('',*,*,#115,.T.);
#306 = ORIENTED_EDGE('',*,*,#307,.T.);
#307 = EDGE_CURVE('',#116,#64,#308,.T.);
#308 = LINE('',#309,#310);
#309 = CARTESIAN_POINT('',(0.375,3.375,-0.75));
#310 = VECTOR('',#311,3.937007874016E-02);
#311 = DIRECTION('',(-3.330669073875E-15,-6.661338147751E-16,1.));
#312 = ORIENTED_EDGE('',*,*,#71,.T.);
#313 = FACE_BOUND('',#314,.T.);
#314 = EDGE_LOOP('',(#315,#326,#334,#342,#350,#359,#367,#375,#383,#391)
  );
#315 = ORIENTED_EDGE('',*,*,#316,.F.);
#316 = EDGE_CURVE('',#317,#319,#321,.T.);
#317 = VERTEX_POINT('',#318);
#318 = CARTESIAN_POINT('',(0.375,2.308012701892,0.25));
#319 = VERTEX_POINT('',#320);
#320 = CARTESIAN_POINT('',(0.375,1.5,0.330718913883));
#321 = CIRCLE('',#322,0.5);
#322 = AXIS2_PLACEMENT_3D('',#323,#324,#325);
#323 = CARTESIAN_POINT('',(0.375,1.875,-7.553013332883E-15));
#324 = DIRECTION('',(1.,1.33226762955E-15,3.330669073875E-15));
#325 = DIRECTION('',(-1.33226762955E-15,1.,-3.330669073875E-15));
#326 = ORIENTED_EDGE('',*,*,#327,.F.);
#327 = EDGE_CURVE('',#328,#317,#330,.T.);
#328 = VERTEX_POINT('',#329);
#329 = CARTESIAN_POINT('',(0.375,3.284093730622,0.25));
#330 = LINE('',#331,#332);
#331 = CARTESIAN_POINT('',(0.375,3.284093730622,0.25));
#332 = VECTOR('',#333,3.937007874016E-02);
#333 = DIRECTION('',(-6.661338147751E-16,-1.,4.440892098501E-16));
#334 = ORIENTED_EDGE('',*,*,#335,.F.);
#335 = EDGE_CURVE('',#336,#328,#338,.T.);
#336 = VERTEX_POINT('',#337);
#337 = CARTESIAN_POINT('',(0.375,3.284093730622,-0.25));
#338 = LINE('',#339,#340);
#339 = CARTESIAN_POINT('',(0.375,3.284093730622,-0.25));
#340 = VECTOR('',#341,3.937007874016E-02);
#341 = DIRECTION('',(-4.440892098501E-16,-2.22044604925E-16,1.));
#342 = ORIENTED_EDGE('',*,*,#343,.F.);
#343 = EDGE_CURVE('',#344,#336,#346,.T.);
#344 = VERTEX_POINT('',#345);
#345 = CARTESIAN_POINT('',(0.375,2.308012701892,-0.25));
#346 = LINE('',#347,#348);
#347 = CARTESIAN_POINT('',(0.375,2.284093730622,-0.25));
#348 = VECTOR('',#349,3.937007874016E-02);
#349 = DIRECTION('',(6.661338147751E-16,1.,-4.440892098501E-16));
#350 = ORIENTED_EDGE('',*,*,#351,.F.);
#351 = EDGE_CURVE('',#352,#344,#354,.T.);
#352 = VERTEX_POINT('',#353);
#353 = CARTESIAN_POINT('',(0.375,1.5,-0.330718913883));
#354 = CIRCLE('',#355,0.5);
#355 = AXIS2_PLACEMENT_3D('',#356,#357,#358);
#356 = CARTESIAN_POINT('',(0.375,1.875,-7.553013332883E-15));
#357 = DIRECTION('',(1.,1.33226762955E-15,3.330669073875E-15));
#358 = DIRECTION('',(-1.33226762955E-15,1.,-3.330669073875E-15));
#359 = ORIENTED_EDGE('',*,*,#360,.F.);
#360 = EDGE_CURVE('',#361,#352,#363,.T.);
#361 = VERTEX_POINT('',#362);
#362 = CARTESIAN_POINT('',(0.375,1.5,-0.5));
#363 = LINE('',#364,#365);
#364 = CARTESIAN_POINT('',(0.375,1.5,-0.5));
#365 = VECTOR('',#366,3.937007874016E-02);
#366 = DIRECTION('',(-4.440892098501E-16,-2.22044604925E-16,1.));
#367 = ORIENTED_EDGE('',*,*,#368,.F.);
#368 = EDGE_CURVE('',#369,#361,#371,.T.);
#369 = VERTEX_POINT('',#370);
#370 = CARTESIAN_POINT('',(0.375,-4.996003610813E-16,-0.5));
#371 = LINE('',#372,#373);
#372 = CARTESIAN_POINT('',(0.375,-3.885780586188E-16,-0.5));
#373 = VECTOR('',#374,3.937007874016E-02);
#374 = DIRECTION('',(6.661338147751E-16,1.,-4.440892098501E-16));
#375 = ORIENTED_EDGE('',*,*,#376,.F.);
#376 = EDGE_CURVE('',#377,#369,#379,.T.);
#377 = VERTEX_POINT('',#378);
#378 = CARTESIAN_POINT('',(0.375,-4.996003610813E-16,0.5));
#379 = LINE('',#380,#381);
#380 = CARTESIAN_POINT('',(0.375,-6.106226635438E-16,0.5));
#381 = VECTOR('',#382,3.937007874016E-02);
#382 = DIRECTION('',(4.440892098501E-16,2.22044604925E-16,-1.));
#383 = ORIENTED_EDGE('',*,*,#384,.F.);
#384 = EDGE_CURVE('',#385,#377,#387,.T.);
#385 = VERTEX_POINT('',#386);
#386 = CARTESIAN_POINT('',(0.375,1.5,0.5));
#387 = LINE('',#388,#389);
#388 = CARTESIAN_POINT('',(0.375,1.5,0.5));
#389 = VECTOR('',#390,3.937007874016E-02);
#390 = DIRECTION('',(-6.661338147751E-16,-1.,4.440892098501E-16));
#391 = ORIENTED_EDGE('',*,*,#392,.F.);
#392 = EDGE_CURVE('',#319,#385,#393,.T.);
#393 = LINE('',#394,#395);
#394 = CARTESIAN_POINT('',(0.375,1.5,-0.5));
#395 = VECTOR('',#396,3.937007874016E-02);
#396 = DIRECTION('',(-4.440892098501E-16,-2.22044604925E-16,1.));
#397 = FACE_BOUND('',#398,.T.);
#398 = EDGE_LOOP('',(#399));
#399 = ORIENTED_EDGE('',*,*,#400,.F.);
#400 = EDGE_CURVE('',#401,#401,#403,.T.);
#401 = VERTEX_POINT('',#402);
#402 = CARTESIAN_POINT('',(0.375,-0.92,-0.5));
#403 = CIRCLE('',#404,0.145);
#404 = AXIS2_PLACEMENT_3D('',#405,#406,#407);
#405 = CARTESIAN_POINT('',(0.375,-1.065,-0.5));
#406 = DIRECTION('',(1.,4.440892098501E-16,1.110223024625E-15));
#407 = DIRECTION('',(-4.440892098501E-16,1.,-1.110223024625E-15));
#408 = FACE_BOUND('',#409,.T.);
#409 = EDGE_LOOP('',(#410));
#410 = ORIENTED_EDGE('',*,*,#411,.F.);
#411 = EDGE_CURVE('',#412,#412,#414,.T.);
#412 = VERTEX_POINT('',#413);
#413 = CARTESIAN_POINT('',(0.375,-1.7625,-0.5));
#414 = CIRCLE('',#415,0.1125);
#415 = AXIS2_PLACEMENT_3D('',#416,#417,#418);
#416 = CARTESIAN_POINT('',(0.375,-1.875,-0.5));
#417 = DIRECTION('',(1.,1.33226762955E-15,3.330669073875E-15));
#418 = DIRECTION('',(-1.33226762955E-15,1.,-3.330669073875E-15));
#419 = FACE_BOUND('',#420,.T.);
#420 = EDGE_LOOP('',(#421));
#421 = ORIENTED_EDGE('',*,*,#422,.F.);
#422 = EDGE_CURVE('',#423,#423,#425,.T.);
#423 = VERTEX_POINT('',#424);
#424 = CARTESIAN_POINT('',(0.375,-2.535,-0.5));
#425 = CIRCLE('',#426,9.E-02);
#426 = AXIS2_PLACEMENT_3D('',#427,#428,#429);
#427 = CARTESIAN_POINT('',(0.375,-2.625,-0.5));
#428 = DIRECTION('',(1.,1.33226762955E-15,3.330669073875E-15));
#429 = DIRECTION('',(-1.33226762955E-15,1.,-3.330669073875E-15));
#430 = FACE_BOUND('',#431,.T.);
#431 = EDGE_LOOP('',(#432));
#432 = ORIENTED_EDGE('',*,*,#433,.F.);
#433 = EDGE_CURVE('',#434,#434,#436,.T.);
#434 = VERTEX_POINT('',#435);
#435 = CARTESIAN_POINT('',(0.375,-3.035,-0.5));
#436 = CIRCLE('',#437,9.E-02);
#437 = AXIS2_PLACEMENT_3D('',#438,#439,#440);
#438 = CARTESIAN_POINT('',(0.375,-3.125,-0.5));
#439 = DIRECTION('',(1.,1.33226762955E-15,3.330669073875E-15));
#440 = DIRECTION('',(-1.33226762955E-15,1.,-3.330669073875E-15));
#441 = FACE_BOUND('',#442,.T.);
#442 = EDGE_LOOP('',(#443,#453,#461,#469));
#443 = ORIENTED_EDGE('',*,*,#444,.F.);
#444 = EDGE_CURVE('',#445,#447,#449,.T.);
#445 = VERTEX_POINT('',#446);
#446 = CARTESIAN_POINT('',(0.375,-2.390866507383,0.25));
#447 = VERTEX_POINT('',#448);
#448 = CARTESIAN_POINT('',(0.375,-2.390866507383,-0.25));
#449 = LINE('',#450,#451);
#450 = CARTESIAN_POINT('',(0.375,-2.390866507383,0.25));
#451 = VECTOR('',#452,3.937007874016E-02);
#452 = DIRECTION('',(4.440892098501E-16,2.22044604925E-16,-1.));
#453 = ORIENTED_EDGE('',*,*,#454,.F.);
#454 = EDGE_CURVE('',#455,#445,#457,.T.);
#455 = VERTEX_POINT('',#456);
#456 = CARTESIAN_POINT('',(0.375,-1.390866507383,0.25));
#457 = LINE('',#458,#459);
#458 = CARTESIAN_POINT('',(0.375,-1.390866507383,0.25));
#459 = VECTOR('',#460,3.937007874016E-02);
#460 = DIRECTION('',(-6.661338147751E-16,-1.,4.440892098501E-16));
#461 = ORIENTED_EDGE('',*,*,#462,.F.);
#462 = EDGE_CURVE('',#463,#455,#465,.T.);
#463 = VERTEX_POINT('',#464);
#464 = CARTESIAN_POINT('',(0.375,-1.390866507383,-0.25));
#465 = LINE('',#466,#467);
#466 = CARTESIAN_POINT('',(0.375,-1.390866507383,-0.25));
#467 = VECTOR('',#468,3.937007874016E-02);
#468 = DIRECTION('',(-4.440892098501E-16,-2.22044604925E-16,1.));
#469 = ORIENTED_EDGE('',*,*,#470,.F.);
#470 = EDGE_CURVE('',#447,#463,#471,.T.);
#471 = LINE('',#472,#473);
#472 = CARTESIAN_POINT('',(0.375,-2.390866507383,-0.25));
#473 = VECTOR('',#474,3.937007874016E-02);
#474 = DIRECTION('',(6.661338147751E-16,1.,-4.440892098501E-16));
#475 = FACE_BOUND('',#476,.T.);
#476 = EDGE_LOOP('',(#477));
#477 = ORIENTED_EDGE('',*,*,#478,.F.);
#478 = EDGE_CURVE('',#479,#479,#481,.T.);
#479 = VERTEX_POINT('',#480);
#480 = CARTESIAN_POINT('',(0.375,-0.92,8.626432901337E-16));
#481 = CIRCLE('',#482,0.145);
#482 = AXIS2_PLACEMENT_3D('',#483,#484,#485);
#483 = CARTESIAN_POINT('',(0.375,-1.065,9.091590122915E-16));
#484 = DIRECTION('',(1.,4.440892098501E-16,1.110223024625E-15));
#485 = DIRECTION('',(-4.440892098501E-16,1.,-1.110223024625E-15));
#486 = FACE_BOUND('',#487,.T.);
#487 = EDGE_LOOP('',(#488));
#488 = ORIENTED_EDGE('',*,*,#489,.F.);
#489 = EDGE_CURVE('',#490,#490,#492,.T.);
#490 = VERTEX_POINT('',#491);
#491 = CARTESIAN_POINT('',(0.375,-0.92,0.5));
#492 = CIRCLE('',#493,0.145);
#493 = AXIS2_PLACEMENT_3D('',#494,#495,#496);
#494 = CARTESIAN_POINT('',(0.375,-1.065,0.5));
#495 = DIRECTION('',(1.,4.440892098501E-16,1.110223024625E-15));
#496 = DIRECTION('',(-4.440892098501E-16,1.,-1.110223024625E-15));
#497 = FACE_BOUND('',#498,.T.);
#498 = EDGE_LOOP('',(#499));
#499 = ORIENTED_EDGE('',*,*,#500,.F.);
#500 = EDGE_CURVE('',#501,#501,#503,.T.);
#501 = VERTEX_POINT('',#502);
#502 = CARTESIAN_POINT('',(0.375,-2.685,5.615508058554E-15));
#503 = CIRCLE('',#504,0.19);
#504 = AXIS2_PLACEMENT_3D('',#505,#506,#507);
#505 = CARTESIAN_POINT('',(0.375,-2.875,8.322301727899E-15));
#506 = DIRECTION('',(1.,1.33226762955E-15,3.330669073875E-15));
#507 = DIRECTION('',(-1.33226762955E-15,1.,-3.330669073875E-15));
#508 = FACE_BOUND('',#509,.T.);
#509 = EDGE_LOOP('',(#510));
#510 = ORIENTED_EDGE('',*,*,#511,.F.);
#511 = EDGE_CURVE('',#512,#512,#514,.T.);
#512 = VERTEX_POINT('',#513);
#513 = CARTESIAN_POINT('',(0.375,-1.7625,0.5));
#514 = CIRCLE('',#515,0.1125);
#515 = AXIS2_PLACEMENT_3D('',#516,#517,#518);
#516 = CARTESIAN_POINT('',(0.375,-1.875,0.5));
#517 = DIRECTION('',(1.,1.33226762955E-15,3.330669073875E-15));
#518 = DIRECTION('',(-1.33226762955E-15,1.,-3.330669073875E-15));
#519 = FACE_BOUND('',#520,.T.);
#520 = EDGE_LOOP('',(#521));
#521 = ORIENTED_EDGE('',*,*,#522,.F.);
#522 = EDGE_CURVE('',#523,#523,#525,.T.);
#523 = VERTEX_POINT('',#524);
#524 = CARTESIAN_POINT('',(0.375,-2.535,0.5));
#525 = CIRCLE('',#526,9.E-02);
#526 = AXIS2_PLACEMENT_3D('',#527,#528,#529);
#527 = CARTESIAN_POINT('',(0.375,-2.625,0.5));
#528 = DIRECTION('',(1.,1.33226762955E-15,3.330669073875E-15));
#529 = DIRECTION('',(-1.33226762955E-15,1.,-3.330669073875E-15));
#530 = FACE_BOUND('',#531,.T.);
#531 = EDGE_LOOP('',(#532));
#532 = ORIENTED_EDGE('',*,*,#533,.F.);
#533 = EDGE_CURVE('',#534,#534,#536,.T.);
#534 = VERTEX_POINT('',#535);
#535 = CARTESIAN_POINT('',(0.375,-3.035,0.5));
#536 = CIRCLE('',#537,9.E-02);
#537 = AXIS2_PLACEMENT_3D('',#538,#539,#540);
#538 = CARTESIAN_POINT('',(0.375,-3.125,0.5));
#539 = DIRECTION('',(1.,1.33226762955E-15,3.330669073875E-15));
#540 = DIRECTION('',(-1.33226762955E-15,1.,-3.330669073875E-15));
#541 = PLANE('',#542);
#542 = AXIS2_PLACEMENT_3D('',#543,#544,#545);
#543 = CARTESIAN_POINT('',(0.375,-0.28652072129,-2.797412345512E-16));
#544 = DIRECTION('',(1.,-2.6645352591E-15,-6.661338147751E-16));
#545 = DIRECTION('',(-3.330669073875E-15,-6.661338147751E-16,1.));
#546 = ADVANCED_FACE('',(#547,#553,#564),#575,.F.);
#547 = FACE_BOUND('',#548,.F.);
#548 = EDGE_LOOP('',(#549,#550,#551,#552));
#549 = ORIENTED_EDGE('',*,*,#123,.T.);
#550 = ORIENTED_EDGE('',*,*,#307,.T.);
#551 = ORIENTED_EDGE('',*,*,#61,.F.);
#552 = ORIENTED_EDGE('',*,*,#169,.F.);
#553 = FACE_BOUND('',#554,.F.);
#554 = EDGE_LOOP('',(#555));
#555 = ORIENTED_EDGE('',*,*,#556,.T.);
#556 = EDGE_CURVE('',#557,#557,#559,.T.);
#557 = VERTEX_POINT('',#558);
#558 = CARTESIAN_POINT('',(0.186924409449,3.375,0.6125));
#559 = CIRCLE('',#560,0.1125);
#560 = AXIS2_PLACEMENT_3D('',#561,#562,#563);
#561 = CARTESIAN_POINT('',(0.186924409449,3.375,0.5));
#562 = DIRECTION('',(2.22044604925E-15,1.,5.551115123126E-16));
#563 = DIRECTION('',(-2.775557561563E-15,-5.551115123126E-16,1.));
#564 = FACE_BOUND('',#565,.F.);
#565 = EDGE_LOOP('',(#566));
#566 = ORIENTED_EDGE('',*,*,#567,.T.);
#567 = EDGE_CURVE('',#568,#568,#570,.T.);
#568 = VERTEX_POINT('',#569);
#569 = CARTESIAN_POINT('',(0.186924409449,3.375,-0.3875));
#570 = CIRCLE('',#571,0.1125);
#571 = AXIS2_PLACEMENT_3D('',#572,#573,#574);
#572 = CARTESIAN_POINT('',(0.186924409449,3.375,-0.5));
#573 = DIRECTION('',(2.22044604925E-15,1.,5.551115123126E-16));
#574 = DIRECTION('',(-2.775557561563E-15,-5.551115123126E-16,1.));
#575 = PLANE('',#576);
#576 = AXIS2_PLACEMENT_3D('',#577,#578,#579);
#577 = CARTESIAN_POINT('',(-1.415534356397E-15,3.375,-0.75));
#578 = DIRECTION('',(8.881784197001E-16,-1.,2.886579864025E-15));
#579 = DIRECTION('',(-3.10862446895E-15,-4.440892098501E-16,1.));
#580 = ADVANCED_FACE('',(#581),#600,.F.);
#581 = FACE_BOUND('',#582,.F.);
#582 = EDGE_LOOP('',(#583,#591,#598,#599));
#583 = ORIENTED_EDGE('',*,*,#584,.T.);
#584 = EDGE_CURVE('',#87,#585,#587,.T.);
#585 = VERTEX_POINT('',#586);
#586 = CARTESIAN_POINT('',(0.1875,-0.3625,0.51));
#587 = LINE('',#588,#589);
#588 = CARTESIAN_POINT('',(0.1875,-0.3625,0.75));
#589 = VECTOR('',#590,3.937007874016E-02);
#590 = DIRECTION('',(1.998401444325E-15,2.22044604925E-16,-1.));
#591 = ORIENTED_EDGE('',*,*,#592,.T.);
#592 = EDGE_CURVE('',#585,#585,#593,.T.);
#593 = CIRCLE('',#594,0.1125);
#594 = AXIS2_PLACEMENT_3D('',#595,#596,#597);
#595 = CARTESIAN_POINT('',(0.1875,-0.25,0.51));
#596 = DIRECTION('',(4.440892098501E-16,2.22044604925E-15,1.));
#597 = DIRECTION('',(1.110223024625E-15,-1.,2.22044604925E-15));
#598 = ORIENTED_EDGE('',*,*,#584,.F.);
#599 = ORIENTED_EDGE('',*,*,#86,.F.);
#600 = CYLINDRICAL_SURFACE('',#601,0.1125);
#601 = AXIS2_PLACEMENT_3D('',#602,#603,#604);
#602 = CARTESIAN_POINT('',(0.1875,-0.25,0.75));
#603 = DIRECTION('',(-1.7763568394E-15,1.627025617018E-30,1.));
#604 = DIRECTION('',(8.881784197001E-16,-1.,1.998401444325E-15));
#605 = ADVANCED_FACE('',(#606),#625,.F.);
#606 = FACE_BOUND('',#607,.F.);
#607 = EDGE_LOOP('',(#608,#616,#623,#624));
#608 = ORIENTED_EDGE('',*,*,#609,.T.);
#609 = EDGE_CURVE('',#98,#610,#612,.T.);
#610 = VERTEX_POINT('',#611);
#611 = CARTESIAN_POINT('',(0.1875,2.6375,0.51));
#612 = LINE('',#613,#614);
#613 = CARTESIAN_POINT('',(0.1875,2.6375,0.75));
#614 = VECTOR('',#615,3.937007874016E-02);
#615 = DIRECTION('',(1.998401444325E-15,2.22044604925E-16,-1.));
#616 = ORIENTED_EDGE('',*,*,#617,.T.);
#617 = EDGE_CURVE('',#610,#610,#618,.T.);
#618 = CIRCLE('',#619,0.1125);
#619 = AXIS2_PLACEMENT_3D('',#620,#621,#622);
#620 = CARTESIAN_POINT('',(0.1875,2.75,0.51));
#621 = DIRECTION('',(4.440892098501E-16,2.22044604925E-15,1.));
#622 = DIRECTION('',(1.110223024625E-15,-1.,2.22044604925E-15));
#623 = ORIENTED_EDGE('',*,*,#609,.F.);
#624 = ORIENTED_EDGE('',*,*,#97,.F.);
#625 = CYLINDRICAL_SURFACE('',#626,0.1125);
#626 = AXIS2_PLACEMENT_3D('',#627,#628,#629);
#627 = CARTESIAN_POINT('',(0.1875,2.75,0.75));
#628 = DIRECTION('',(-1.7763568394E-15,1.627025617018E-30,1.));
#629 = DIRECTION('',(8.881784197001E-16,-1.,1.998401444325E-15));
#630 = ADVANCED_FACE('',(#631),#650,.F.);
#631 = FACE_BOUND('',#632,.F.);
#632 = EDGE_LOOP('',(#633,#641,#648,#649));
#633 = ORIENTED_EDGE('',*,*,#634,.T.);
#634 = EDGE_CURVE('',#140,#635,#637,.T.);
#635 = VERTEX_POINT('',#636);
#636 = CARTESIAN_POINT('',(0.1875,-0.1375,-0.51));
#637 = LINE('',#638,#639);
#638 = CARTESIAN_POINT('',(0.1875,-0.1375,-0.75));
#639 = VECTOR('',#640,3.937007874016E-02);
#640 = DIRECTION('',(-1.443289932013E-15,-1.110223024625E-16,1.));
#641 = ORIENTED_EDGE('',*,*,#642,.T.);
#642 = EDGE_CURVE('',#635,#635,#643,.T.);
#643 = CIRCLE('',#644,0.1125);
#644 = AXIS2_PLACEMENT_3D('',#645,#646,#647);
#645 = CARTESIAN_POINT('',(0.1875,-0.25,-0.51));
#646 = DIRECTION('',(-3.330669073875E-16,-1.665334536938E-15,-1.));
#647 = DIRECTION('',(-4.440892098501E-16,1.,-1.665334536938E-15));
#648 = ORIENTED_EDGE('',*,*,#634,.F.);
#649 = ORIENTED_EDGE('',*,*,#139,.F.);
#650 = CYLINDRICAL_SURFACE('',#651,0.1125);
#651 = AXIS2_PLACEMENT_3D('',#652,#653,#654);
#652 = CARTESIAN_POINT('',(0.1875,-0.25,-0.75));
#653 = DIRECTION('',(1.221245327088E-15,-1.110223024625E-16,-1.));
#654 = DIRECTION('',(-2.22044604925E-16,1.,-1.443289932013E-15));
#655 = ADVANCED_FACE('',(#656),#675,.F.);
#656 = FACE_BOUND('',#657,.F.);
#657 = EDGE_LOOP('',(#658,#666,#673,#674));
#658 = ORIENTED_EDGE('',*,*,#659,.T.);
#659 = EDGE_CURVE('',#151,#660,#662,.T.);
#660 = VERTEX_POINT('',#661);
#661 = CARTESIAN_POINT('',(0.1875,2.8625,-0.51));
#662 = LINE('',#663,#664);
#663 = CARTESIAN_POINT('',(0.1875,2.8625,-0.75));
#664 = VECTOR('',#665,3.937007874016E-02);
#665 = DIRECTION('',(-1.443289932013E-15,-1.110223024625E-16,1.));
#666 = ORIENTED_EDGE('',*,*,#667,.T.);
#667 = EDGE_CURVE('',#660,#660,#668,.T.);
#668 = CIRCLE('',#669,0.1125);
#669 = AXIS2_PLACEMENT_3D('',#670,#671,#672);
#670 = CARTESIAN_POINT('',(0.1875,2.75,-0.51));
#671 = DIRECTION('',(-3.330669073875E-16,-1.665334536938E-15,-1.));
#672 = DIRECTION('',(-4.440892098501E-16,1.,-1.665334536938E-15));
#673 = ORIENTED_EDGE('',*,*,#659,.F.);
#674 = ORIENTED_EDGE('',*,*,#150,.F.);
#675 = CYLINDRICAL_SURFACE('',#676,0.1125);
#676 = AXIS2_PLACEMENT_3D('',#677,#678,#679);
#677 = CARTESIAN_POINT('',(0.1875,2.75,-0.75));
#678 = DIRECTION('',(1.221245327088E-15,-1.110223024625E-16,-1.));
#679 = DIRECTION('',(-2.22044604925E-16,1.,-1.443289932013E-15));
#680 = ADVANCED_FACE('',(#681),#748,.F.);
#681 = FACE_BOUND('',#682,.T.);
#682 = EDGE_LOOP('',(#683,#684,#692,#701,#707,#708,#716,#725,#731,#732,
    #740,#747));
#683 = ORIENTED_EDGE('',*,*,#178,.F.);
#684 = ORIENTED_EDGE('',*,*,#685,.T.);
#685 = EDGE_CURVE('',#179,#686,#688,.T.);
#686 = VERTEX_POINT('',#687);
#687 = CARTESIAN_POINT('',(0.125,2.375,-4.662936703426E-15));
#688 = LINE('',#689,#690);
#689 = CARTESIAN_POINT('',(-2.636779683485E-15,2.375,-7.382983113757E-15
    ));
#690 = VECTOR('',#691,3.937007874016E-02);
#691 = DIRECTION('',(1.,-2.442490654175E-15,-4.440892098501E-16));
#692 = ORIENTED_EDGE('',*,*,#693,.F.);
#693 = EDGE_CURVE('',#694,#686,#696,.T.);
#694 = VERTEX_POINT('',#695);
#695 = CARTESIAN_POINT('',(0.125,2.308012701892,0.25));
#696 = CIRCLE('',#697,0.5);
#697 = AXIS2_PLACEMENT_3D('',#698,#699,#700);
#698 = CARTESIAN_POINT('',(0.125,1.875,-3.635980405647E-15));
#699 = DIRECTION('',(-1.,1.110223024625E-15,-8.881784197001E-16));
#700 = DIRECTION('',(1.110223024625E-15,1.,-1.998401444325E-15));
#701 = ORIENTED_EDGE('',*,*,#702,.F.);
#702 = EDGE_CURVE('',#317,#694,#703,.T.);
#703 = LINE('',#704,#705);
#704 = CARTESIAN_POINT('',(4.807406715959E-16,2.308012701892,0.25));
#705 = VECTOR('',#706,3.937007874016E-02);
#706 = DIRECTION('',(-1.,1.110223024625E-15,-8.881784197001E-16));
#707 = ORIENTED_EDGE('',*,*,#316,.T.);
#708 = ORIENTED_EDGE('',*,*,#709,.T.);
#709 = EDGE_CURVE('',#319,#710,#712,.T.);
#710 = VERTEX_POINT('',#711);
#711 = CARTESIAN_POINT('',(0.125,1.5,0.330718913883));
#712 = LINE('',#713,#714);
#713 = CARTESIAN_POINT('',(-7.517043999555E-16,1.5,0.330718913883));
#714 = VECTOR('',#715,3.937007874016E-02);
#715 = DIRECTION('',(-1.,1.110223024625E-15,-8.881784197001E-16));
#716 = ORIENTED_EDGE('',*,*,#717,.F.);
#717 = EDGE_CURVE('',#718,#710,#720,.T.);
#718 = VERTEX_POINT('',#719);
#719 = CARTESIAN_POINT('',(0.125,1.5,-0.330718913883));
#720 = CIRCLE('',#721,0.5);
#721 = AXIS2_PLACEMENT_3D('',#722,#723,#724);
#722 = CARTESIAN_POINT('',(0.125,1.875,-3.635980405647E-15));
#723 = DIRECTION('',(-1.,1.110223024625E-15,-8.881784197001E-16));
#724 = DIRECTION('',(1.110223024625E-15,1.,-1.998401444325E-15));
#725 = ORIENTED_EDGE('',*,*,#726,.F.);
#726 = EDGE_CURVE('',#352,#718,#727,.T.);
#727 = LINE('',#728,#729);
#728 = CARTESIAN_POINT('',(-1.642295953603E-16,1.5,-0.330718913883));
#729 = VECTOR('',#730,3.937007874016E-02);
#730 = DIRECTION('',(-1.,1.110223024625E-15,-8.881784197001E-16));
#731 = ORIENTED_EDGE('',*,*,#351,.T.);
#732 = ORIENTED_EDGE('',*,*,#733,.T.);
#733 = EDGE_CURVE('',#344,#734,#736,.T.);
#734 = VERTEX_POINT('',#735);
#735 = CARTESIAN_POINT('',(0.125,2.308012701892,-0.25));
#736 = LINE('',#737,#738);
#737 = CARTESIAN_POINT('',(4.807406715959E-16,2.308012701892,-0.25));
#738 = VECTOR('',#739,3.937007874016E-02);
#739 = DIRECTION('',(-1.,1.110223024625E-15,-8.881784197001E-16));
#740 = ORIENTED_EDGE('',*,*,#741,.F.);
#741 = EDGE_CURVE('',#686,#734,#742,.T.);
#742 = CIRCLE('',#743,0.5);
#743 = AXIS2_PLACEMENT_3D('',#744,#745,#746);
#744 = CARTESIAN_POINT('',(0.125,1.875,-3.635980405647E-15));
#745 = DIRECTION('',(-1.,1.110223024625E-15,-8.881784197001E-16));
#746 = DIRECTION('',(1.110223024625E-15,1.,-1.998401444325E-15));
#747 = ORIENTED_EDGE('',*,*,#685,.F.);
#748 = CYLINDRICAL_SURFACE('',#749,0.5);
#749 = AXIS2_PLACEMENT_3D('',#750,#751,#752);
#750 = CARTESIAN_POINT('',(-2.081668171172E-15,1.875,-5.828670879282E-15
    ));
#751 = DIRECTION('',(-1.,2.22044604925E-15,2.22044604925E-16));
#752 = DIRECTION('',(-1.110223024625E-15,1.,-3.10862446895E-15));
#753 = ADVANCED_FACE('',(#754),#765,.F.);
#754 = FACE_BOUND('',#755,.T.);
#755 = EDGE_LOOP('',(#756,#762,#763,#764));
#756 = ORIENTED_EDGE('',*,*,#757,.T.);
#757 = EDGE_CURVE('',#190,#501,#758,.T.);
#758 = LINE('',#759,#760);
#759 = CARTESIAN_POINT('',(2.980948821119E-15,-2.685,8.346656699132E-15)
  );
#760 = VECTOR('',#761,3.937007874016E-02);
#761 = DIRECTION('',(1.,-2.442490654175E-15,-4.440892098501E-16));
#762 = ORIENTED_EDGE('',*,*,#500,.T.);
#763 = ORIENTED_EDGE('',*,*,#757,.F.);
#764 = ORIENTED_EDGE('',*,*,#189,.F.);
#765 = CYLINDRICAL_SURFACE('',#766,0.19);
#766 = AXIS2_PLACEMENT_3D('',#767,#768,#769);
#767 = CARTESIAN_POINT('',(3.191891195797E-15,-2.875,8.937295348233E-15)
  );
#768 = DIRECTION('',(-1.,2.22044604925E-15,2.22044604925E-16));
#769 = DIRECTION('',(-1.110223024625E-15,1.,-3.10862446895E-15));
#770 = ADVANCED_FACE('',(#771),#782,.F.);
#771 = FACE_BOUND('',#772,.T.);
#772 = EDGE_LOOP('',(#773,#779,#780,#781));
#773 = ORIENTED_EDGE('',*,*,#774,.T.);
#774 = EDGE_CURVE('',#201,#412,#775,.T.);
#775 = LINE('',#776,#777);
#776 = CARTESIAN_POINT('',(3.511080315377E-15,-1.7625,-0.5));
#777 = VECTOR('',#778,3.937007874016E-02);
#778 = DIRECTION('',(1.,-2.442490654175E-15,-4.440892098501E-16));
#779 = ORIENTED_EDGE('',*,*,#411,.T.);
#780 = ORIENTED_EDGE('',*,*,#774,.F.);
#781 = ORIENTED_EDGE('',*,*,#200,.F.);
#782 = CYLINDRICAL_SURFACE('',#783,0.1125);
#783 = AXIS2_PLACEMENT_3D('',#784,#785,#786);
#784 = CARTESIAN_POINT('',(3.635980405647E-15,-1.875,-0.5));
#785 = DIRECTION('',(-1.,2.22044604925E-15,2.22044604925E-16));
#786 = DIRECTION('',(-1.110223024625E-15,1.,-3.10862446895E-15));
#787 = ADVANCED_FACE('',(#788),#799,.F.);
#788 = FACE_BOUND('',#789,.T.);
#789 = EDGE_LOOP('',(#790,#796,#797,#798));
#790 = ORIENTED_EDGE('',*,*,#791,.T.);
#791 = EDGE_CURVE('',#212,#512,#792,.T.);
#792 = LINE('',#793,#794);
#793 = CARTESIAN_POINT('',(4.024558464266E-16,-1.7625,0.5));
#794 = VECTOR('',#795,3.937007874016E-02);
#795 = DIRECTION('',(1.,-2.442490654175E-15,-4.440892098501E-16));
#796 = ORIENTED_EDGE('',*,*,#511,.T.);
#797 = ORIENTED_EDGE('',*,*,#791,.F.);
#798 = ORIENTED_EDGE('',*,*,#211,.F.);
#799 = CYLINDRICAL_SURFACE('',#800,0.1125);
#800 = AXIS2_PLACEMENT_3D('',#801,#802,#803);
#801 = CARTESIAN_POINT('',(5.273559366969E-16,-1.875,0.5));
#802 = DIRECTION('',(-1.,2.22044604925E-15,2.22044604925E-16));
#803 = DIRECTION('',(-1.110223024625E-15,1.,-3.10862446895E-15));
#804 = ADVANCED_FACE('',(#805),#816,.F.);
#805 = FACE_BOUND('',#806,.T.);
#806 = EDGE_LOOP('',(#807,#813,#814,#815));
#807 = ORIENTED_EDGE('',*,*,#808,.T.);
#808 = EDGE_CURVE('',#223,#523,#809,.T.);
#809 = LINE('',#810,#811);
#810 = CARTESIAN_POINT('',(1.26010313295E-15,-2.535,0.5));
#811 = VECTOR('',#812,3.937007874016E-02);
#812 = DIRECTION('',(1.,-2.442490654175E-15,-4.440892098501E-16));
#813 = ORIENTED_EDGE('',*,*,#522,.T.);
#814 = ORIENTED_EDGE('',*,*,#808,.F.);
#815 = ORIENTED_EDGE('',*,*,#222,.F.);
#816 = CYLINDRICAL_SURFACE('',#817,9.E-02);
#817 = AXIS2_PLACEMENT_3D('',#818,#819,#820);
#818 = CARTESIAN_POINT('',(1.360023205166E-15,-2.625,0.5));
#819 = DIRECTION('',(-1.,2.22044604925E-15,2.22044604925E-16));
#820 = DIRECTION('',(-1.110223024625E-15,1.,-3.10862446895E-15));
#821 = ADVANCED_FACE('',(#822),#833,.F.);
#822 = FACE_BOUND('',#823,.T.);
#823 = EDGE_LOOP('',(#824,#830,#831,#832));
#824 = ORIENTED_EDGE('',*,*,#825,.T.);
#825 = EDGE_CURVE('',#234,#534,#826,.T.);
#826 = LINE('',#827,#828);
#827 = CARTESIAN_POINT('',(1.815214645262E-15,-3.035,0.5));
#828 = VECTOR('',#829,3.937007874016E-02);
#829 = DIRECTION('',(1.,-2.442490654175E-15,-4.440892098501E-16));
#830 = ORIENTED_EDGE('',*,*,#533,.T.);
#831 = ORIENTED_EDGE('',*,*,#825,.F.);
#832 = ORIENTED_EDGE('',*,*,#233,.F.);
#833 = CYLINDRICAL_SURFACE('',#834,9.E-02);
#834 = AXIS2_PLACEMENT_3D('',#835,#836,#837);
#835 = CARTESIAN_POINT('',(1.915134717478E-15,-3.125,0.5));
#836 = DIRECTION('',(-1.,2.22044604925E-15,2.22044604925E-16));
#837 = DIRECTION('',(-1.110223024625E-15,1.,-3.10862446895E-15));
#838 = ADVANCED_FACE('',(#839),#850,.F.);
#839 = FACE_BOUND('',#840,.T.);
#840 = EDGE_LOOP('',(#841,#847,#848,#849));
#841 = ORIENTED_EDGE('',*,*,#842,.T.);
#842 = EDGE_CURVE('',#245,#423,#843,.T.);
#843 = LINE('',#844,#845);
#844 = CARTESIAN_POINT('',(4.3687276019E-15,-2.535,-0.5));
#845 = VECTOR('',#846,3.937007874016E-02);
#846 = DIRECTION('',(1.,-2.442490654175E-15,-4.440892098501E-16));
#847 = ORIENTED_EDGE('',*,*,#422,.T.);
#848 = ORIENTED_EDGE('',*,*,#842,.F.);
#849 = ORIENTED_EDGE('',*,*,#244,.F.);
#850 = CYLINDRICAL_SURFACE('',#851,9.E-02);
#851 = AXIS2_PLACEMENT_3D('',#852,#853,#854);
#852 = CARTESIAN_POINT('',(4.468647674116E-15,-2.625,-0.5));
#853 = DIRECTION('',(-1.,2.22044604925E-15,2.22044604925E-16));
#854 = DIRECTION('',(-1.110223024625E-15,1.,-3.10862446895E-15));
#855 = ADVANCED_FACE('',(#856),#867,.F.);
#856 = FACE_BOUND('',#857,.T.);
#857 = EDGE_LOOP('',(#858,#864,#865,#866));
#858 = ORIENTED_EDGE('',*,*,#859,.T.);
#859 = EDGE_CURVE('',#256,#434,#860,.T.);
#860 = LINE('',#861,#862);
#861 = CARTESIAN_POINT('',(4.923839114213E-15,-3.035,-0.5));
#862 = VECTOR('',#863,3.937007874016E-02);
#863 = DIRECTION('',(1.,-2.442490654175E-15,-4.440892098501E-16));
#864 = ORIENTED_EDGE('',*,*,#433,.T.);
#865 = ORIENTED_EDGE('',*,*,#859,.F.);
#866 = ORIENTED_EDGE('',*,*,#255,.F.);
#867 = CYLINDRICAL_SURFACE('',#868,9.E-02);
#868 = AXIS2_PLACEMENT_3D('',#869,#870,#871);
#869 = CARTESIAN_POINT('',(5.023759186429E-15,-3.125,-0.5));
#870 = DIRECTION('',(-1.,2.22044604925E-15,2.22044604925E-16));
#871 = DIRECTION('',(-1.110223024625E-15,1.,-3.10862446895E-15));
#872 = ADVANCED_FACE('',(#873),#892,.F.);
#873 = FACE_BOUND('',#874,.T.);
#874 = EDGE_LOOP('',(#875,#876,#884,#891));
#875 = ORIENTED_EDGE('',*,*,#266,.F.);
#876 = ORIENTED_EDGE('',*,*,#877,.T.);
#877 = EDGE_CURVE('',#267,#878,#880,.T.);
#878 = VERTEX_POINT('',#879);
#879 = CARTESIAN_POINT('',(0.205,-0.9725,2.080002836635E-15));
#880 = LINE('',#881,#882);
#881 = CARTESIAN_POINT('',(1.079691891448E-15,-0.9725,3.023137296054E-15
    ));
#882 = VECTOR('',#883,3.937007874016E-02);
#883 = DIRECTION('',(1.,-2.442490654175E-15,-4.440892098501E-16));
#884 = ORIENTED_EDGE('',*,*,#885,.F.);
#885 = EDGE_CURVE('',#878,#878,#886,.T.);
#886 = CIRCLE('',#887,9.E-02);
#887 = AXIS2_PLACEMENT_3D('',#888,#889,#890);
#888 = CARTESIAN_POINT('',(0.205,-1.0625,2.495781359357E-15));
#889 = DIRECTION('',(-1.,6.661338147751E-16,-1.33226762955E-15));
#890 = DIRECTION('',(6.661338147751E-16,1.,-2.22044604925E-15));
#891 = ORIENTED_EDGE('',*,*,#877,.F.);
#892 = CYLINDRICAL_SURFACE('',#893,9.E-02);
#893 = AXIS2_PLACEMENT_3D('',#894,#895,#896);
#894 = CARTESIAN_POINT('',(1.179611963664E-15,-1.0625,3.30291349826E-15)
  );
#895 = DIRECTION('',(-1.,2.22044604925E-15,2.22044604925E-16));
#896 = DIRECTION('',(-1.110223024625E-15,1.,-3.10862446895E-15));
#897 = ADVANCED_FACE('',(#898),#917,.F.);
#898 = FACE_BOUND('',#899,.T.);
#899 = EDGE_LOOP('',(#900,#901,#909,#916));
#900 = ORIENTED_EDGE('',*,*,#277,.F.);
#901 = ORIENTED_EDGE('',*,*,#902,.T.);
#902 = EDGE_CURVE('',#278,#903,#905,.T.);
#903 = VERTEX_POINT('',#904);
#904 = CARTESIAN_POINT('',(0.205,-0.9725,-0.5));
#905 = LINE('',#906,#907);
#906 = CARTESIAN_POINT('',(2.634004125923E-15,-0.9725,-0.5));
#907 = VECTOR('',#908,3.937007874016E-02);
#908 = DIRECTION('',(1.,-2.442490654175E-15,-4.440892098501E-16));
#909 = ORIENTED_EDGE('',*,*,#910,.F.);
#910 = EDGE_CURVE('',#903,#903,#911,.T.);
#911 = CIRCLE('',#912,9.E-02);
#912 = AXIS2_PLACEMENT_3D('',#913,#914,#915);
#913 = CARTESIAN_POINT('',(0.205,-1.0625,-0.5));
#914 = DIRECTION('',(-1.,6.661338147751E-16,-1.33226762955E-15));
#915 = DIRECTION('',(6.661338147751E-16,1.,-2.22044604925E-15));
#916 = ORIENTED_EDGE('',*,*,#902,.F.);
#917 = CYLINDRICAL_SURFACE('',#918,9.E-02);
#918 = AXIS2_PLACEMENT_3D('',#919,#920,#921);
#919 = CARTESIAN_POINT('',(2.733924198139E-15,-1.0625,-0.5));
#920 = DIRECTION('',(-1.,2.22044604925E-15,2.22044604925E-16));
#921 = DIRECTION('',(-1.110223024625E-15,1.,-3.10862446895E-15));
#922 = ADVANCED_FACE('',(#923),#942,.F.);
#923 = FACE_BOUND('',#924,.T.);
#924 = EDGE_LOOP('',(#925,#926,#934,#941));
#925 = ORIENTED_EDGE('',*,*,#288,.F.);
#926 = ORIENTED_EDGE('',*,*,#927,.T.);
#927 = EDGE_CURVE('',#289,#928,#930,.T.);
#928 = VERTEX_POINT('',#929);
#929 = CARTESIAN_POINT('',(0.205,-0.9725,0.5));
#930 = LINE('',#931,#932);
#931 = CARTESIAN_POINT('',(-4.746203430273E-16,-0.9725,0.5));
#932 = VECTOR('',#933,3.937007874016E-02);
#933 = DIRECTION('',(1.,-2.442490654175E-15,-4.440892098501E-16));
#934 = ORIENTED_EDGE('',*,*,#935,.F.);
#935 = EDGE_CURVE('',#928,#928,#936,.T.);
#936 = CIRCLE('',#937,9.E-02);
#937 = AXIS2_PLACEMENT_3D('',#938,#939,#940);
#938 = CARTESIAN_POINT('',(0.205,-1.0625,0.5));
#939 = DIRECTION('',(-1.,6.661338147751E-16,-1.33226762955E-15));
#940 = DIRECTION('',(6.661338147751E-16,1.,-2.22044604925E-15));
#941 = ORIENTED_EDGE('',*,*,#927,.F.);
#942 = CYLINDRICAL_SURFACE('',#943,9.E-02);
#943 = AXIS2_PLACEMENT_3D('',#944,#945,#946);
#944 = CARTESIAN_POINT('',(-3.74700270811E-16,-1.0625,0.5));
#945 = DIRECTION('',(-1.,2.22044604925E-15,2.22044604925E-16));
#946 = DIRECTION('',(-1.110223024625E-15,1.,-3.10862446895E-15));
#947 = ADVANCED_FACE('',(#948),#966,.F.);
#948 = FACE_BOUND('',#949,.F.);
#949 = EDGE_LOOP('',(#950,#951,#952,#960));
#950 = ORIENTED_EDGE('',*,*,#392,.F.);
#951 = ORIENTED_EDGE('',*,*,#709,.T.);
#952 = ORIENTED_EDGE('',*,*,#953,.T.);
#953 = EDGE_CURVE('',#710,#954,#956,.T.);
#954 = VERTEX_POINT('',#955);
#955 = CARTESIAN_POINT('',(0.125,1.5,0.5));
#956 = LINE('',#957,#958);
#957 = CARTESIAN_POINT('',(0.125,1.5,-0.5));
#958 = VECTOR('',#959,3.937007874016E-02);
#959 = DIRECTION('',(-4.440892098501E-16,-2.22044604925E-16,1.));
#960 = ORIENTED_EDGE('',*,*,#961,.F.);
#961 = EDGE_CURVE('',#385,#954,#962,.T.);
#962 = LINE('',#963,#964);
#963 = CARTESIAN_POINT('',(0.375,1.5,0.5));
#964 = VECTOR('',#965,3.937007874016E-02);
#965 = DIRECTION('',(-1.,1.221245327088E-15,-3.574525976783E-31));
#966 = PLANE('',#967);
#967 = AXIS2_PLACEMENT_3D('',#968,#969,#970);
#968 = CARTESIAN_POINT('',(0.375,1.5,-0.5));
#969 = DIRECTION('',(1.221245327088E-15,1.,3.821045009664E-31));
#970 = DIRECTION('',(-2.22044604925E-16,-1.232595164408E-31,1.));
#971 = ADVANCED_FACE('',(#972),#990,.F.);
#972 = FACE_BOUND('',#973,.F.);
#973 = EDGE_LOOP('',(#974,#975,#983,#989));
#974 = ORIENTED_EDGE('',*,*,#961,.T.);
#975 = ORIENTED_EDGE('',*,*,#976,.T.);
#976 = EDGE_CURVE('',#954,#977,#979,.T.);
#977 = VERTEX_POINT('',#978);
#978 = CARTESIAN_POINT('',(0.125,-1.942890293094E-16,0.5));
#979 = LINE('',#980,#981);
#980 = CARTESIAN_POINT('',(0.125,1.5,0.5));
#981 = VECTOR('',#982,3.937007874016E-02);
#982 = DIRECTION('',(-6.661338147751E-16,-1.,4.440892098501E-16));
#983 = ORIENTED_EDGE('',*,*,#984,.F.);
#984 = EDGE_CURVE('',#377,#977,#985,.T.);
#985 = LINE('',#986,#987);
#986 = CARTESIAN_POINT('',(0.375,-4.996003610813E-16,0.5));
#987 = VECTOR('',#988,3.937007874016E-02);
#988 = DIRECTION('',(-1.,1.221245327088E-15,-3.574525976783E-31));
#989 = ORIENTED_EDGE('',*,*,#384,.F.);
#990 = PLANE('',#991);
#991 = AXIS2_PLACEMENT_3D('',#992,#993,#994);
#992 = CARTESIAN_POINT('',(0.375,1.5,0.5));
#993 = DIRECTION('',(-8.628166150855E-32,2.22044604925E-16,1.));
#994 = DIRECTION('',(-8.881784197001E-16,-1.,2.22044604925E-16));
#995 = ADVANCED_FACE('',(#996),#1014,.F.);
#996 = FACE_BOUND('',#997,.F.);
#997 = EDGE_LOOP('',(#998,#999,#1007,#1013));
#998 = ORIENTED_EDGE('',*,*,#984,.T.);
#999 = ORIENTED_EDGE('',*,*,#1000,.T.);
#1000 = EDGE_CURVE('',#977,#1001,#1003,.T.);
#1001 = VERTEX_POINT('',#1002);
#1002 = CARTESIAN_POINT('',(0.125,-1.942890293094E-16,-0.5));
#1003 = LINE('',#1004,#1005);
#1004 = CARTESIAN_POINT('',(0.125,-3.053113317719E-16,0.5));
#1005 = VECTOR('',#1006,3.937007874016E-02);
#1006 = DIRECTION('',(4.440892098501E-16,2.22044604925E-16,-1.));
#1007 = ORIENTED_EDGE('',*,*,#1008,.F.);
#1008 = EDGE_CURVE('',#369,#1001,#1009,.T.);
#1009 = LINE('',#1010,#1011);
#1010 = CARTESIAN_POINT('',(0.375,-4.996003610813E-16,-0.5));
#1011 = VECTOR('',#1012,3.937007874016E-02);
#1012 = DIRECTION('',(-1.,1.221245327088E-15,-3.574525976783E-31));
#1013 = ORIENTED_EDGE('',*,*,#376,.F.);
#1014 = PLANE('',#1015);
#1015 = AXIS2_PLACEMENT_3D('',#1016,#1017,#1018);
#1016 = CARTESIAN_POINT('',(0.375,-4.996003610813E-16,0.5));
#1017 = DIRECTION('',(-1.221245327088E-15,-1.,-3.821045009664E-31));
#1018 = DIRECTION('',(2.22044604925E-16,1.232595164408E-31,-1.));
#1019 = ADVANCED_FACE('',(#1020),#1038,.F.);
#1020 = FACE_BOUND('',#1021,.F.);
#1021 = EDGE_LOOP('',(#1022,#1023,#1031,#1037));
#1022 = ORIENTED_EDGE('',*,*,#1008,.T.);
#1023 = ORIENTED_EDGE('',*,*,#1024,.T.);
#1024 = EDGE_CURVE('',#1001,#1025,#1027,.T.);
#1025 = VERTEX_POINT('',#1026);
#1026 = CARTESIAN_POINT('',(0.125,1.5,-0.5));
#1027 = LINE('',#1028,#1029);
#1028 = CARTESIAN_POINT('',(0.125,-8.326672684689E-17,-0.5));
#1029 = VECTOR('',#1030,3.937007874016E-02);
#1030 = DIRECTION('',(6.661338147751E-16,1.,-4.440892098501E-16));
#1031 = ORIENTED_EDGE('',*,*,#1032,.F.);
#1032 = EDGE_CURVE('',#361,#1025,#1033,.T.);
#1033 = LINE('',#1034,#1035);
#1034 = CARTESIAN_POINT('',(0.375,1.5,-0.5));
#1035 = VECTOR('',#1036,3.937007874016E-02);
#1036 = DIRECTION('',(-1.,1.221245327088E-15,-3.574525976783E-31));
#1037 = ORIENTED_EDGE('',*,*,#368,.F.);
#1038 = PLANE('',#1039);
#1039 = AXIS2_PLACEMENT_3D('',#1040,#1041,#1042);
#1040 = CARTESIAN_POINT('',(0.375,-4.996003610813E-16,-0.5));
#1041 = DIRECTION('',(8.628166150855E-32,-2.22044604925E-16,-1.));
#1042 = DIRECTION('',(8.881784197001E-16,1.,-2.22044604925E-16));
#1043 = ADVANCED_FACE('',(#1044),#1055,.F.);
#1044 = FACE_BOUND('',#1045,.F.);
#1045 = EDGE_LOOP('',(#1046,#1047,#1048,#1054));
#1046 = ORIENTED_EDGE('',*,*,#360,.F.);
#1047 = ORIENTED_EDGE('',*,*,#1032,.T.);
#1048 = ORIENTED_EDGE('',*,*,#1049,.T.);
#1049 = EDGE_CURVE('',#1025,#718,#1050,.T.);
#1050 = LINE('',#1051,#1052);
#1051 = CARTESIAN_POINT('',(0.125,1.5,-0.5));
#1052 = VECTOR('',#1053,3.937007874016E-02);
#1053 = DIRECTION('',(-4.440892098501E-16,-2.22044604925E-16,1.));
#1054 = ORIENTED_EDGE('',*,*,#726,.F.);
#1055 = PLANE('',#1056);
#1056 = AXIS2_PLACEMENT_3D('',#1057,#1058,#1059);
#1057 = CARTESIAN_POINT('',(0.375,1.5,-0.5));
#1058 = DIRECTION('',(1.221245327088E-15,1.,3.821045009664E-31));
#1059 = DIRECTION('',(-2.22044604925E-16,-1.232595164408E-31,1.));
#1060 = ADVANCED_FACE('',(#1061),#1079,.F.);
#1061 = FACE_BOUND('',#1062,.F.);
#1062 = EDGE_LOOP('',(#1063,#1064,#1065,#1073));
#1063 = ORIENTED_EDGE('',*,*,#343,.F.);
#1064 = ORIENTED_EDGE('',*,*,#733,.T.);
#1065 = ORIENTED_EDGE('',*,*,#1066,.T.);
#1066 = EDGE_CURVE('',#734,#1067,#1069,.T.);
#1067 = VERTEX_POINT('',#1068);
#1068 = CARTESIAN_POINT('',(0.125,3.284093730622,-0.25));
#1069 = LINE('',#1070,#1071);
#1070 = CARTESIAN_POINT('',(0.125,2.284093730622,-0.25));
#1071 = VECTOR('',#1072,3.937007874016E-02);
#1072 = DIRECTION('',(6.661338147751E-16,1.,-4.440892098501E-16));
#1073 = ORIENTED_EDGE('',*,*,#1074,.F.);
#1074 = EDGE_CURVE('',#336,#1067,#1075,.T.);
#1075 = LINE('',#1076,#1077);
#1076 = CARTESIAN_POINT('',(0.375,3.284093730622,-0.25));
#1077 = VECTOR('',#1078,3.937007874016E-02);
#1078 = DIRECTION('',(-1.,1.221245327088E-15,-3.574525976783E-31));
#1079 = PLANE('',#1080);
#1080 = AXIS2_PLACEMENT_3D('',#1081,#1082,#1083);
#1081 = CARTESIAN_POINT('',(0.375,2.284093730622,-0.25));
#1082 = DIRECTION('',(8.628166150855E-32,-2.22044604925E-16,-1.));
#1083 = DIRECTION('',(8.881784197001E-16,1.,-2.22044604925E-16));
#1084 = ADVANCED_FACE('',(#1085),#1103,.F.);
#1085 = FACE_BOUND('',#1086,.F.);
#1086 = EDGE_LOOP('',(#1087,#1088,#1096,#1102));
#1087 = ORIENTED_EDGE('',*,*,#1074,.T.);
#1088 = ORIENTED_EDGE('',*,*,#1089,.T.);
#1089 = EDGE_CURVE('',#1067,#1090,#1092,.T.);
#1090 = VERTEX_POINT('',#1091);
#1091 = CARTESIAN_POINT('',(0.125,3.284093730622,0.25));
#1092 = LINE('',#1093,#1094);
#1093 = CARTESIAN_POINT('',(0.125,3.284093730622,-0.25));
#1094 = VECTOR('',#1095,3.937007874016E-02);
#1095 = DIRECTION('',(-4.440892098501E-16,-2.22044604925E-16,1.));
#1096 = ORIENTED_EDGE('',*,*,#1097,.F.);
#1097 = EDGE_CURVE('',#328,#1090,#1098,.T.);
#1098 = LINE('',#1099,#1100);
#1099 = CARTESIAN_POINT('',(0.375,3.284093730622,0.25));
#1100 = VECTOR('',#1101,3.937007874016E-02);
#1101 = DIRECTION('',(-1.,1.221245327088E-15,-3.574525976783E-31));
#1102 = ORIENTED_EDGE('',*,*,#335,.F.);
#1103 = PLANE('',#1104);
#1104 = AXIS2_PLACEMENT_3D('',#1105,#1106,#1107);
#1105 = CARTESIAN_POINT('',(0.375,3.284093730622,-0.25));
#1106 = DIRECTION('',(1.221245327088E-15,1.,3.821045009664E-31));
#1107 = DIRECTION('',(-2.22044604925E-16,-1.232595164408E-31,1.));
#1108 = ADVANCED_FACE('',(#1109),#1120,.F.);
#1109 = FACE_BOUND('',#1110,.F.);
#1110 = EDGE_LOOP('',(#1111,#1112,#1113,#1119));
#1111 = ORIENTED_EDGE('',*,*,#327,.F.);
#1112 = ORIENTED_EDGE('',*,*,#1097,.T.);
#1113 = ORIENTED_EDGE('',*,*,#1114,.T.);
#1114 = EDGE_CURVE('',#1090,#694,#1115,.T.);
#1115 = LINE('',#1116,#1117);
#1116 = CARTESIAN_POINT('',(0.125,3.284093730622,0.25));
#1117 = VECTOR('',#1118,3.937007874016E-02);
#1118 = DIRECTION('',(-6.661338147751E-16,-1.,4.440892098501E-16));
#1119 = ORIENTED_EDGE('',*,*,#702,.F.);
#1120 = PLANE('',#1121);
#1121 = AXIS2_PLACEMENT_3D('',#1122,#1123,#1124);
#1122 = CARTESIAN_POINT('',(0.375,3.284093730622,0.25));
#1123 = DIRECTION('',(-8.628166150855E-32,2.22044604925E-16,1.));
#1124 = DIRECTION('',(-8.881784197001E-16,-1.,2.22044604925E-16));
#1125 = ADVANCED_FACE('',(#1126),#1145,.F.);
#1126 = FACE_BOUND('',#1127,.F.);
#1127 = EDGE_LOOP('',(#1128,#1136,#1143,#1144));
#1128 = ORIENTED_EDGE('',*,*,#1129,.T.);
#1129 = EDGE_CURVE('',#401,#1130,#1132,.T.);
#1130 = VERTEX_POINT('',#1131);
#1131 = CARTESIAN_POINT('',(0.205,-0.92,-0.5));
#1132 = LINE('',#1133,#1134);
#1133 = CARTESIAN_POINT('',(0.375,-0.92,-0.5));
#1134 = VECTOR('',#1135,3.937007874016E-02);
#1135 = DIRECTION('',(-1.,6.661338147751E-16,-3.574525976783E-31));
#1136 = ORIENTED_EDGE('',*,*,#1137,.T.);
#1137 = EDGE_CURVE('',#1130,#1130,#1138,.T.);
#1138 = CIRCLE('',#1139,0.145);
#1139 = AXIS2_PLACEMENT_3D('',#1140,#1141,#1142);
#1140 = CARTESIAN_POINT('',(0.205,-1.065,-0.5));
#1141 = DIRECTION('',(1.,4.440892098501E-16,1.110223024625E-15));
#1142 = DIRECTION('',(-4.440892098501E-16,1.,-1.110223024625E-15));
#1143 = ORIENTED_EDGE('',*,*,#1129,.F.);
#1144 = ORIENTED_EDGE('',*,*,#400,.F.);
#1145 = CYLINDRICAL_SURFACE('',#1146,0.145);
#1146 = AXIS2_PLACEMENT_3D('',#1147,#1148,#1149);
#1147 = CARTESIAN_POINT('',(0.375,-1.065,-0.5));
#1148 = DIRECTION('',(1.,-4.440892098501E-16,2.22044604925E-16));
#1149 = DIRECTION('',(-2.22044604925E-16,1.,-8.881784197001E-16));
#1150 = ADVANCED_FACE('',(#1151),#1176,.F.);
#1151 = FACE_BOUND('',#1152,.F.);
#1152 = EDGE_LOOP('',(#1153,#1161,#1169,#1175));
#1153 = ORIENTED_EDGE('',*,*,#1154,.T.);
#1154 = EDGE_CURVE('',#445,#1155,#1157,.T.);
#1155 = VERTEX_POINT('',#1156);
#1156 = CARTESIAN_POINT('',(0.125,-2.390866507383,0.25));
#1157 = LINE('',#1158,#1159);
#1158 = CARTESIAN_POINT('',(0.375,-2.390866507383,0.25));
#1159 = VECTOR('',#1160,3.937007874016E-02);
#1160 = DIRECTION('',(-1.,1.221245327088E-15,-3.574525976783E-31));
#1161 = ORIENTED_EDGE('',*,*,#1162,.T.);
#1162 = EDGE_CURVE('',#1155,#1163,#1165,.T.);
#1163 = VERTEX_POINT('',#1164);
#1164 = CARTESIAN_POINT('',(0.125,-2.390866507383,-0.25));
#1165 = LINE('',#1166,#1167);
#1166 = CARTESIAN_POINT('',(0.125,-2.390866507383,0.25));
#1167 = VECTOR('',#1168,3.937007874016E-02);
#1168 = DIRECTION('',(4.440892098501E-16,2.22044604925E-16,-1.));
#1169 = ORIENTED_EDGE('',*,*,#1170,.F.);
#1170 = EDGE_CURVE('',#447,#1163,#1171,.T.);
#1171 = LINE('',#1172,#1173);
#1172 = CARTESIAN_POINT('',(0.375,-2.390866507383,-0.25));
#1173 = VECTOR('',#1174,3.937007874016E-02);
#1174 = DIRECTION('',(-1.,1.221245327088E-15,-3.574525976783E-31));
#1175 = ORIENTED_EDGE('',*,*,#444,.F.);
#1176 = PLANE('',#1177);
#1177 = AXIS2_PLACEMENT_3D('',#1178,#1179,#1180);
#1178 = CARTESIAN_POINT('',(0.375,-2.390866507383,0.25));
#1179 = DIRECTION('',(-1.221245327088E-15,-1.,-3.821045009664E-31));
#1180 = DIRECTION('',(2.22044604925E-16,1.232595164408E-31,-1.));
#1181 = ADVANCED_FACE('',(#1182),#1200,.F.);
#1182 = FACE_BOUND('',#1183,.F.);
#1183 = EDGE_LOOP('',(#1184,#1185,#1193,#1199));
#1184 = ORIENTED_EDGE('',*,*,#1170,.T.);
#1185 = ORIENTED_EDGE('',*,*,#1186,.T.);
#1186 = EDGE_CURVE('',#1163,#1187,#1189,.T.);
#1187 = VERTEX_POINT('',#1188);
#1188 = CARTESIAN_POINT('',(0.125,-1.390866507383,-0.25));
#1189 = LINE('',#1190,#1191);
#1190 = CARTESIAN_POINT('',(0.125,-2.390866507383,-0.25));
#1191 = VECTOR('',#1192,3.937007874016E-02);
#1192 = DIRECTION('',(6.661338147751E-16,1.,-4.440892098501E-16));
#1193 = ORIENTED_EDGE('',*,*,#1194,.F.);
#1194 = EDGE_CURVE('',#463,#1187,#1195,.T.);
#1195 = LINE('',#1196,#1197);
#1196 = CARTESIAN_POINT('',(0.375,-1.390866507383,-0.25));
#1197 = VECTOR('',#1198,3.937007874016E-02);
#1198 = DIRECTION('',(-1.,1.221245327088E-15,-3.574525976783E-31));
#1199 = ORIENTED_EDGE('',*,*,#470,.F.);
#1200 = PLANE('',#1201);
#1201 = AXIS2_PLACEMENT_3D('',#1202,#1203,#1204);
#1202 = CARTESIAN_POINT('',(0.375,-2.390866507383,-0.25));
#1203 = DIRECTION('',(8.628166150855E-32,-2.22044604925E-16,-1.));
#1204 = DIRECTION('',(8.881784197001E-16,1.,-2.22044604925E-16));
#1205 = ADVANCED_FACE('',(#1206),#1224,.F.);
#1206 = FACE_BOUND('',#1207,.F.);
#1207 = EDGE_LOOP('',(#1208,#1209,#1217,#1223));
#1208 = ORIENTED_EDGE('',*,*,#1194,.T.);
#1209 = ORIENTED_EDGE('',*,*,#1210,.T.);
#1210 = EDGE_CURVE('',#1187,#1211,#1213,.T.);
#1211 = VERTEX_POINT('',#1212);
#1212 = CARTESIAN_POINT('',(0.125,-1.390866507383,0.25));
#1213 = LINE('',#1214,#1215);
#1214 = CARTESIAN_POINT('',(0.125,-1.390866507383,-0.25));
#1215 = VECTOR('',#1216,3.937007874016E-02);
#1216 = DIRECTION('',(-4.440892098501E-16,-2.22044604925E-16,1.));
#1217 = ORIENTED_EDGE('',*,*,#1218,.F.);
#1218 = EDGE_CURVE('',#455,#1211,#1219,.T.);
#1219 = LINE('',#1220,#1221);
#1220 = CARTESIAN_POINT('',(0.375,-1.390866507383,0.25));
#1221 = VECTOR('',#1222,3.937007874016E-02);
#1222 = DIRECTION('',(-1.,1.221245327088E-15,-3.574525976783E-31));
#1223 = ORIENTED_EDGE('',*,*,#462,.F.);
#1224 = PLANE('',#1225);
#1225 = AXIS2_PLACEMENT_3D('',#1226,#1227,#1228);
#1226 = CARTESIAN_POINT('',(0.375,-1.390866507383,-0.25));
#1227 = DIRECTION('',(1.221245327088E-15,1.,3.821045009664E-31));
#1228 = DIRECTION('',(-2.22044604925E-16,-1.232595164408E-31,1.));
#1229 = ADVANCED_FACE('',(#1230),#1241,.F.);
#1230 = FACE_BOUND('',#1231,.F.);
#1231 = EDGE_LOOP('',(#1232,#1233,#1239,#1240));
#1232 = ORIENTED_EDGE('',*,*,#1218,.T.);
#1233 = ORIENTED_EDGE('',*,*,#1234,.T.);
#1234 = EDGE_CURVE('',#1211,#1155,#1235,.T.);
#1235 = LINE('',#1236,#1237);
#1236 = CARTESIAN_POINT('',(0.125,-1.390866507383,0.25));
#1237 = VECTOR('',#1238,3.937007874016E-02);
#1238 = DIRECTION('',(-6.661338147751E-16,-1.,4.440892098501E-16));
#1239 = ORIENTED_EDGE('',*,*,#1154,.F.);
#1240 = ORIENTED_EDGE('',*,*,#454,.F.);
#1241 = PLANE('',#1242);
#1242 = AXIS2_PLACEMENT_3D('',#1243,#1244,#1245);
#1243 = CARTESIAN_POINT('',(0.375,-1.390866507383,0.25));
#1244 = DIRECTION('',(-8.628166150855E-32,2.22044604925E-16,1.));
#1245 = DIRECTION('',(-8.881784197001E-16,-1.,2.22044604925E-16));
#1246 = ADVANCED_FACE('',(#1247),#1266,.F.);
#1247 = FACE_BOUND('',#1248,.F.);
#1248 = EDGE_LOOP('',(#1249,#1257,#1264,#1265));
#1249 = ORIENTED_EDGE('',*,*,#1250,.T.);
#1250 = EDGE_CURVE('',#479,#1251,#1253,.T.);
#1251 = VERTEX_POINT('',#1252);
#1252 = CARTESIAN_POINT('',(0.205,-0.92,8.248957072965E-16));
#1253 = LINE('',#1254,#1255);
#1254 = CARTESIAN_POINT('',(0.375,-0.92,9.836575998179E-16));
#1255 = VECTOR('',#1256,3.937007874016E-02);
#1256 = DIRECTION('',(-1.,6.661338147751E-16,-3.574525976783E-31));
#1257 = ORIENTED_EDGE('',*,*,#1258,.T.);
#1258 = EDGE_CURVE('',#1251,#1251,#1259,.T.);
#1259 = CIRCLE('',#1260,0.145);
#1260 = AXIS2_PLACEMENT_3D('',#1261,#1262,#1263);
#1261 = CARTESIAN_POINT('',(0.205,-1.065,1.083997283886E-15));
#1262 = DIRECTION('',(1.,4.440892098501E-16,1.110223024625E-15));
#1263 = DIRECTION('',(-4.440892098501E-16,1.,-1.110223024625E-15));
#1264 = ORIENTED_EDGE('',*,*,#1250,.F.);
#1265 = ORIENTED_EDGE('',*,*,#478,.F.);
#1266 = CYLINDRICAL_SURFACE('',#1267,0.145);
#1267 = AXIS2_PLACEMENT_3D('',#1268,#1269,#1270);
#1268 = CARTESIAN_POINT('',(0.375,-1.065,1.112443470674E-15));
#1269 = DIRECTION('',(1.,-4.440892098501E-16,2.22044604925E-16));
#1270 = DIRECTION('',(-2.22044604925E-16,1.,-8.881784197001E-16));
#1271 = ADVANCED_FACE('',(#1272),#1291,.F.);
#1272 = FACE_BOUND('',#1273,.F.);
#1273 = EDGE_LOOP('',(#1274,#1282,#1289,#1290));
#1274 = ORIENTED_EDGE('',*,*,#1275,.T.);
#1275 = EDGE_CURVE('',#490,#1276,#1278,.T.);
#1276 = VERTEX_POINT('',#1277);
#1277 = CARTESIAN_POINT('',(0.205,-0.92,0.5));
#1278 = LINE('',#1279,#1280);
#1279 = CARTESIAN_POINT('',(0.375,-0.92,0.5));
#1280 = VECTOR('',#1281,3.937007874016E-02);
#1281 = DIRECTION('',(-1.,6.661338147751E-16,-3.574525976783E-31));
#1282 = ORIENTED_EDGE('',*,*,#1283,.T.);
#1283 = EDGE_CURVE('',#1276,#1276,#1284,.T.);
#1284 = CIRCLE('',#1285,0.145);
#1285 = AXIS2_PLACEMENT_3D('',#1286,#1287,#1288);
#1286 = CARTESIAN_POINT('',(0.205,-1.065,0.5));
#1287 = DIRECTION('',(1.,4.440892098501E-16,1.110223024625E-15));
#1288 = DIRECTION('',(-4.440892098501E-16,1.,-1.110223024625E-15));
#1289 = ORIENTED_EDGE('',*,*,#1275,.F.);
#1290 = ORIENTED_EDGE('',*,*,#489,.F.);
#1291 = CYLINDRICAL_SURFACE('',#1292,0.145);
#1292 = AXIS2_PLACEMENT_3D('',#1293,#1294,#1295);
#1293 = CARTESIAN_POINT('',(0.375,-1.065,0.5));
#1294 = DIRECTION('',(1.,-4.440892098501E-16,2.22044604925E-16));
#1295 = DIRECTION('',(-2.22044604925E-16,1.,-8.881784197001E-16));
#1296 = ADVANCED_FACE('',(#1297),#1316,.F.);
#1297 = FACE_BOUND('',#1298,.F.);
#1298 = EDGE_LOOP('',(#1299,#1307,#1314,#1315));
#1299 = ORIENTED_EDGE('',*,*,#1300,.T.);
#1300 = EDGE_CURVE('',#557,#1301,#1303,.T.);
#1301 = VERTEX_POINT('',#1302);
#1302 = CARTESIAN_POINT('',(0.186924409449,3.135,0.6125));
#1303 = LINE('',#1304,#1305);
#1304 = CARTESIAN_POINT('',(0.186924409449,3.375,0.6125));
#1305 = VECTOR('',#1306,3.937007874016E-02);
#1306 = DIRECTION('',(8.881784197001E-16,-1.,2.553512956638E-15));
#1307 = ORIENTED_EDGE('',*,*,#1308,.T.);
#1308 = EDGE_CURVE('',#1301,#1301,#1309,.T.);
#1309 = CIRCLE('',#1310,0.1125);
#1310 = AXIS2_PLACEMENT_3D('',#1311,#1312,#1313);
#1311 = CARTESIAN_POINT('',(0.186924409449,3.135,0.5));
#1312 = DIRECTION('',(2.22044604925E-15,1.,5.551115123126E-16));
#1313 = DIRECTION('',(-2.775557561563E-15,-5.551115123126E-16,1.));
#1314 = ORIENTED_EDGE('',*,*,#1300,.F.);
#1315 = ORIENTED_EDGE('',*,*,#556,.F.);
#1316 = CYLINDRICAL_SURFACE('',#1317,0.1125);
#1317 = AXIS2_PLACEMENT_3D('',#1318,#1319,#1320);
#1318 = CARTESIAN_POINT('',(0.186924409449,3.375,0.5));
#1319 = DIRECTION('',(-6.661338147751E-16,1.,-2.331468351713E-15));
#1320 = DIRECTION('',(-2.553512956638E-15,-3.330669073875E-16,1.));
#1321 = ADVANCED_FACE('',(#1322),#1341,.F.);
#1322 = FACE_BOUND('',#1323,.F.);
#1323 = EDGE_LOOP('',(#1324,#1332,#1339,#1340));
#1324 = ORIENTED_EDGE('',*,*,#1325,.T.);
#1325 = EDGE_CURVE('',#568,#1326,#1328,.T.);
#1326 = VERTEX_POINT('',#1327);
#1327 = CARTESIAN_POINT('',(0.186924409449,3.135,-0.3875));
#1328 = LINE('',#1329,#1330);
#1329 = CARTESIAN_POINT('',(0.186924409449,3.375,-0.3875));
#1330 = VECTOR('',#1331,3.937007874016E-02);
#1331 = DIRECTION('',(8.881784197001E-16,-1.,2.553512956638E-15));
#1332 = ORIENTED_EDGE('',*,*,#1333,.T.);
#1333 = EDGE_CURVE('',#1326,#1326,#1334,.T.);
#1334 = CIRCLE('',#1335,0.1125);
#1335 = AXIS2_PLACEMENT_3D('',#1336,#1337,#1338);
#1336 = CARTESIAN_POINT('',(0.186924409449,3.135,-0.5));
#1337 = DIRECTION('',(2.22044604925E-15,1.,5.551115123126E-16));
#1338 = DIRECTION('',(-2.775557561563E-15,-5.551115123126E-16,1.));
#1339 = ORIENTED_EDGE('',*,*,#1325,.F.);
#1340 = ORIENTED_EDGE('',*,*,#567,.F.);
#1341 = CYLINDRICAL_SURFACE('',#1342,0.1125);
#1342 = AXIS2_PLACEMENT_3D('',#1343,#1344,#1345);
#1343 = CARTESIAN_POINT('',(0.186924409449,3.375,-0.5));
#1344 = DIRECTION('',(-6.661338147751E-16,1.,-2.331468351713E-15));
#1345 = DIRECTION('',(-2.553512956638E-15,-3.330669073875E-16,1.));
#1346 = ADVANCED_FACE('',(#1347),#1350,.T.);
#1347 = FACE_BOUND('',#1348,.T.);
#1348 = EDGE_LOOP('',(#1349));
#1349 = ORIENTED_EDGE('',*,*,#592,.T.);
#1350 = PLANE('',#1351);
#1351 = AXIS2_PLACEMENT_3D('',#1352,#1353,#1354);
#1352 = CARTESIAN_POINT('',(0.1875,1.25,0.51));
#1353 = DIRECTION('',(-2.22044604925E-15,-4.440892098501E-16,1.));
#1354 = DIRECTION('',(1.,-1.7763568394E-15,-4.440892098501E-16));
#1355 = ADVANCED_FACE('',(#1356),#1359,.T.);
#1356 = FACE_BOUND('',#1357,.T.);
#1357 = EDGE_LOOP('',(#1358));
#1358 = ORIENTED_EDGE('',*,*,#617,.T.);
#1359 = PLANE('',#1360);
#1360 = AXIS2_PLACEMENT_3D('',#1361,#1362,#1363);
#1361 = CARTESIAN_POINT('',(0.1875,1.25,0.51));
#1362 = DIRECTION('',(-2.22044604925E-15,-4.440892098501E-16,1.));
#1363 = DIRECTION('',(1.,-1.7763568394E-15,-4.440892098501E-16));
#1364 = ADVANCED_FACE('',(#1365),#1368,.F.);
#1365 = FACE_BOUND('',#1366,.T.);
#1366 = EDGE_LOOP('',(#1367));
#1367 = ORIENTED_EDGE('',*,*,#642,.T.);
#1368 = PLANE('',#1369);
#1369 = AXIS2_PLACEMENT_3D('',#1370,#1371,#1372);
#1370 = CARTESIAN_POINT('',(0.1875,1.25,-0.51));
#1371 = DIRECTION('',(-1.665334536938E-15,-3.330669073875E-16,1.));
#1372 = DIRECTION('',(1.,-1.33226762955E-15,-3.330669073875E-16));
#1373 = ADVANCED_FACE('',(#1374),#1377,.F.);
#1374 = FACE_BOUND('',#1375,.T.);
#1375 = EDGE_LOOP('',(#1376));
#1376 = ORIENTED_EDGE('',*,*,#667,.T.);
#1377 = PLANE('',#1378);
#1378 = AXIS2_PLACEMENT_3D('',#1379,#1380,#1381);
#1379 = CARTESIAN_POINT('',(0.1875,1.25,-0.51));
#1380 = DIRECTION('',(-1.665334536938E-15,-3.330669073875E-16,1.));
#1381 = DIRECTION('',(1.,-1.33226762955E-15,-3.330669073875E-16));
#1382 = ADVANCED_FACE('',(#1383),#1390,.T.);
#1383 = FACE_BOUND('',#1384,.T.);
#1384 = EDGE_LOOP('',(#1385,#1386,#1387,#1388,#1389));
#1385 = ORIENTED_EDGE('',*,*,#1114,.T.);
#1386 = ORIENTED_EDGE('',*,*,#693,.T.);
#1387 = ORIENTED_EDGE('',*,*,#741,.T.);
#1388 = ORIENTED_EDGE('',*,*,#1066,.T.);
#1389 = ORIENTED_EDGE('',*,*,#1089,.T.);
#1390 = PLANE('',#1391);
#1391 = AXIS2_PLACEMENT_3D('',#1392,#1393,#1394);
#1392 = CARTESIAN_POINT('',(0.125,0.584516515429,1.049029629567E-16));
#1393 = DIRECTION('',(1.,-1.330664607617E-15,-1.110223024625E-16));
#1394 = DIRECTION('',(6.645307928419E-16,1.,-5.551115123126E-16));
#1395 = ADVANCED_FACE('',(#1396),#1404,.T.);
#1396 = FACE_BOUND('',#1397,.T.);
#1397 = EDGE_LOOP('',(#1398,#1399,#1400,#1401,#1402,#1403));
#1398 = ORIENTED_EDGE('',*,*,#976,.T.);
#1399 = ORIENTED_EDGE('',*,*,#1000,.T.);
#1400 = ORIENTED_EDGE('',*,*,#1024,.T.);
#1401 = ORIENTED_EDGE('',*,*,#1049,.T.);
#1402 = ORIENTED_EDGE('',*,*,#717,.T.);
#1403 = ORIENTED_EDGE('',*,*,#953,.T.);
#1404 = PLANE('',#1405);
#1405 = AXIS2_PLACEMENT_3D('',#1406,#1407,#1408);
#1406 = CARTESIAN_POINT('',(0.125,0.584516515429,1.049029629567E-16));
#1407 = DIRECTION('',(1.,-1.330664607617E-15,-1.110223024625E-16));
#1408 = DIRECTION('',(6.645307928419E-16,1.,-5.551115123126E-16));
#1409 = ADVANCED_FACE('',(#1410,#1413),#1416,.T.);
#1410 = FACE_BOUND('',#1411,.T.);
#1411 = EDGE_LOOP('',(#1412));
#1412 = ORIENTED_EDGE('',*,*,#1258,.T.);
#1413 = FACE_BOUND('',#1414,.T.);
#1414 = EDGE_LOOP('',(#1415));
#1415 = ORIENTED_EDGE('',*,*,#885,.T.);
#1416 = PLANE('',#1417);
#1417 = AXIS2_PLACEMENT_3D('',#1418,#1419,#1420);
#1418 = CARTESIAN_POINT('',(0.205,-1.065,1.468641481394E-15));
#1419 = DIRECTION('',(1.,-8.881784197001E-16,-2.22044604925E-16));
#1420 = DIRECTION('',(-1.110223024625E-15,-2.22044604925E-16,1.));
#1421 = ADVANCED_FACE('',(#1422,#1425),#1428,.T.);
#1422 = FACE_BOUND('',#1423,.T.);
#1423 = EDGE_LOOP('',(#1424));
#1424 = ORIENTED_EDGE('',*,*,#1137,.T.);
#1425 = FACE_BOUND('',#1426,.T.);
#1426 = EDGE_LOOP('',(#1427));
#1427 = ORIENTED_EDGE('',*,*,#910,.T.);
#1428 = PLANE('',#1429);
#1429 = AXIS2_PLACEMENT_3D('',#1430,#1431,#1432);
#1430 = CARTESIAN_POINT('',(0.205,-1.065,1.468641481394E-15));
#1431 = DIRECTION('',(1.,-8.881784197001E-16,-2.22044604925E-16));
#1432 = DIRECTION('',(-1.110223024625E-15,-2.22044604925E-16,1.));
#1433 = ADVANCED_FACE('',(#1434,#1437),#1440,.T.);
#1434 = FACE_BOUND('',#1435,.T.);
#1435 = EDGE_LOOP('',(#1436));
#1436 = ORIENTED_EDGE('',*,*,#1283,.T.);
#1437 = FACE_BOUND('',#1438,.T.);
#1438 = EDGE_LOOP('',(#1439));
#1439 = ORIENTED_EDGE('',*,*,#935,.T.);
#1440 = PLANE('',#1441);
#1441 = AXIS2_PLACEMENT_3D('',#1442,#1443,#1444);
#1442 = CARTESIAN_POINT('',(0.205,-1.065,1.468641481394E-15));
#1443 = DIRECTION('',(1.,-8.881784197001E-16,-2.22044604925E-16));
#1444 = DIRECTION('',(-1.110223024625E-15,-2.22044604925E-16,1.));
#1445 = ADVANCED_FACE('',(#1446),#1452,.T.);
#1446 = FACE_BOUND('',#1447,.T.);
#1447 = EDGE_LOOP('',(#1448,#1449,#1450,#1451));
#1448 = ORIENTED_EDGE('',*,*,#1162,.T.);
#1449 = ORIENTED_EDGE('',*,*,#1186,.T.);
#1450 = ORIENTED_EDGE('',*,*,#1210,.T.);
#1451 = ORIENTED_EDGE('',*,*,#1234,.T.);
#1452 = PLANE('',#1453);
#1453 = AXIS2_PLACEMENT_3D('',#1454,#1455,#1456);
#1454 = CARTESIAN_POINT('',(0.125,0.584516515429,1.049029629567E-16));
#1455 = DIRECTION('',(1.,-1.330664607617E-15,-1.110223024625E-16));
#1456 = DIRECTION('',(6.645307928419E-16,1.,-5.551115123126E-16));
#1457 = ADVANCED_FACE('',(#1458),#1461,.T.);
#1458 = FACE_BOUND('',#1459,.T.);
#1459 = EDGE_LOOP('',(#1460));
#1460 = ORIENTED_EDGE('',*,*,#1308,.T.);
#1461 = PLANE('',#1462);
#1462 = AXIS2_PLACEMENT_3D('',#1463,#1464,#1465);
#1463 = CARTESIAN_POINT('',(0.186924409449,3.135,-9.406006123161E-15));
#1464 = DIRECTION('',(-1.110223024625E-15,1.,-2.775557561563E-15));
#1465 = DIRECTION('',(-2.775557561563E-15,-5.551115123126E-16,1.));
#1466 = ADVANCED_FACE('',(#1467),#1470,.T.);
#1467 = FACE_BOUND('',#1468,.T.);
#1468 = EDGE_LOOP('',(#1469));
#1469 = ORIENTED_EDGE('',*,*,#1333,.T.);
#1470 = PLANE('',#1471);
#1471 = AXIS2_PLACEMENT_3D('',#1472,#1473,#1474);
#1472 = CARTESIAN_POINT('',(0.186924409449,3.135,-9.406006123161E-15));
#1473 = DIRECTION('',(-1.110223024625E-15,1.,-2.775557561563E-15));
#1474 = DIRECTION('',(-2.775557561563E-15,-5.551115123126E-16,1.));
#1475 = ( GEOMETRIC_REPRESENTATION_CONTEXT(3) 
GLOBAL_UNCERTAINTY_ASSIGNED_CONTEXT((#1482)) 
GLOBAL_UNIT_ASSIGNED_CONTEXT((#1476,#1480,#1481)) REPRESENTATION_CONTEXT
('Context #1','3D Context with UNIT and UNCERTAINTY') );
#1476 = ( CONVERSION_BASED_UNIT('INCH',#1478) LENGTH_UNIT() NAMED_UNIT(
  #1477) );
#1477 = DIMENSIONAL_EXPONENTS(1.,0.,0.,0.,0.,0.,0.);
#1478 = LENGTH_MEASURE_WITH_UNIT(25.4,#1479);
#1479 = ( LENGTH_UNIT() NAMED_UNIT(*) SI_UNIT(.MILLI.,.METRE.) );
#1480 = ( NAMED_UNIT(*) PLANE_ANGLE_UNIT() SI_UNIT($,.RADIAN.) );
#1481 = ( NAMED_UNIT(*) SI_UNIT($,.STERADIAN.) SOLID_ANGLE_UNIT() );
#1482 = UNCERTAINTY_MEASURE_WITH_UNIT(LENGTH_MEASURE(3.937007874016E-09)
  ,#1476,'distance_accuracy_value','confusion accuracy');
#1483 = PRODUCT_RELATED_PRODUCT_CATEGORY('part',$,(#7));
#1484 = MECHANICAL_DESIGN_GEOMETRIC_PRESENTATION_REPRESENTATION('',(
    #1485),#1475);
#1485 = STYLED_ITEM('color',(#1486),#15);
#1486 = PRESENTATION_STYLE_ASSIGNMENT((#1487,#1493));
#1487 = SURFACE_STYLE_USAGE(.BOTH.,#1488);
#1488 = SURFACE_SIDE_STYLE('',(#1489));
#1489 = SURFACE_STYLE_FILL_AREA(#1490);
#1490 = FILL_AREA_STYLE('',(#1491));
#1491 = FILL_AREA_STYLE_COLOUR('',#1492);
#1492 = COLOUR_RGB('',0.678430976034,0.709803998361,0.741176010593);
#1493 = CURVE_STYLE('',#1494,POSITIVE_LENGTH_MEASURE(0.1),#1495);
#1494 = DRAUGHTING_PRE_DEFINED_CURVE_FONT('continuous');
#1495 = COLOUR_RGB('',9.803921802644E-02,9.803921802644E-02,
  9.803921802644E-02);
ENDSEC;
END-ISO-10303-21;
